<svg xmlns="http://www.w3.org/2000/svg" width="1200" height="520" viewBox="0 0 1200 520" role="img" aria-label="VUH Cost By Date">
<rect width="100%" height="100%" fill="#ffffff"/>
<text x="24" y="34" font-family="Arial, sans-serif" font-size="22" font-weight="700" fill="#111827">VUH Cost By Date</text>
<line x1="80" y1="440" x2="940" y2="440" stroke="#9ca3af"/>
<line x1="80" y1="70" x2="80" y2="440" stroke="#9ca3af"/>
<line x1="80" y1="440" x2="940" y2="440" stroke="#e5e7eb"/>
<text x="70" y="444" text-anchor="end" font-family="Arial, sans-serif" font-size="12" fill="#6b7280">0.00</text>
<line x1="80" y1="347.5" x2="940" y2="347.5" stroke="#e5e7eb"/>
<text x="70" y="351.5" text-anchor="end" font-family="Arial, sans-serif" font-size="12" fill="#6b7280">56.50</text>
<line x1="80" y1="255" x2="940" y2="255" stroke="#e5e7eb"/>
<text x="70" y="259" text-anchor="end" font-family="Arial, sans-serif" font-size="12" fill="#6b7280">113.00</text>
<line x1="80" y1="162.5" x2="940" y2="162.5" stroke="#e5e7eb"/>
<text x="70" y="166.5" text-anchor="end" font-family="Arial, sans-serif" font-size="12" fill="#6b7280">169.49</text>
<line x1="80" y1="70" x2="940" y2="70" stroke="#e5e7eb"/>
<text x="70" y="74" text-anchor="end" font-family="Arial, sans-serif" font-size="12" fill="#6b7280">225.99</text>
<text x="80" y="485" text-anchor="middle" font-family="Arial, sans-serif" font-size="12" fill="#374151">2026-05-30</text>
<text x="510" y="485" text-anchor="middle" font-family="Arial, sans-serif" font-size="12" fill="#374151">2026-05-31</text>
<text x="940" y="485" text-anchor="middle" font-family="Arial, sans-serif" font-size="12" fill="#374151">2026-06-01</text>
<polyline points="510,438.3627594141334" fill="none" stroke="#2563eb" stroke-width="3"/>
<circle cx="510" cy="438.3627594141334" r="5" fill="#2563eb"/>
<rect x="976" y="59" width="14" height="14" fill="#2563eb"/>
<text x="998" y="70" font-family="Arial, sans-serif" font-size="13" fill="#374151">Browser action synthetic check</text>
<polyline points="80,70 80,228.79596442320457 80,228.79596442320457 510,228.79596442320457 510,228.79596442320457 510,291.2730651798752 510,291.2730651798752 510,291.2730651798752 510,291.2730651798752 510,291.2730651798752 510,428.2282401876189 510,291.2730651798752 510,291.2730651798752 510,291.2730651798752 510,291.2730651798752 510,291.2730651798752 510,291.2730651798752 940,291.2730651798752 940,291.2730651798752 940,291.2730651798752" fill="none" stroke="#dc2626" stroke-width="3"/>
<circle cx="80" cy="70" r="5" fill="#dc2626"/>
<circle cx="80" cy="228.79596442320457" r="5" fill="#dc2626"/>
<circle cx="80" cy="228.79596442320457" r="5" fill="#dc2626"/>
<circle cx="510" cy="228.79596442320457" r="5" fill="#dc2626"/>
<circle cx="510" cy="228.79596442320457" r="5" fill="#dc2626"/>
<circle cx="510" cy="291.2730651798752" r="5" fill="#dc2626"/>
<circle cx="510" cy="291.2730651798752" r="5" fill="#dc2626"/>
<circle cx="510" cy="291.2730651798752" r="5" fill="#dc2626"/>
<circle cx="510" cy="291.2730651798752" r="5" fill="#dc2626"/>
<circle cx="510" cy="291.2730651798752" r="5" fill="#dc2626"/>
<circle cx="510" cy="428.2282401876189" r="5" fill="#dc2626"/>
<circle cx="510" cy="291.2730651798752" r="5" fill="#dc2626"/>
<circle cx="510" cy="291.2730651798752" r="5" fill="#dc2626"/>
<circle cx="510" cy="291.2730651798752" r="5" fill="#dc2626"/>
<circle cx="510" cy="291.2730651798752" r="5" fill="#dc2626"/>
<circle cx="510" cy="291.2730651798752" r="5" fill="#dc2626"/>
<circle cx="510" cy="291.2730651798752" r="5" fill="#dc2626"/>
<circle cx="940" cy="291.2730651798752" r="5" fill="#dc2626"/>
<circle cx="940" cy="291.2730651798752" r="5" fill="#dc2626"/>
<circle cx="940" cy="291.2730651798752" r="5" fill="#dc2626"/>
<rect x="976" y="83" width="14" height="14" fill="#dc2626"/>
<text x="998" y="94" font-family="Arial, sans-serif" font-size="13" fill="#374151">Traffic spike benchmark</text>
</svg>
