<svg xmlns="http://www.w3.org/2000/svg" width="1200" height="520" viewBox="0 0 1200 520" role="img" aria-label="Run Duration By Date">
<rect width="100%" height="100%" fill="#ffffff"/>
<text x="24" y="34" font-family="Arial, sans-serif" font-size="22" font-weight="700" fill="#111827">Run Duration By Date</text>
<line x1="80" y1="440" x2="940" y2="440" stroke="#9ca3af"/>
<line x1="80" y1="70" x2="80" y2="440" stroke="#9ca3af"/>
<line x1="80" y1="440" x2="940" y2="440" stroke="#e5e7eb"/>
<text x="70" y="444" text-anchor="end" font-family="Arial, sans-serif" font-size="12" fill="#6b7280">0m</text>
<line x1="80" y1="347.5" x2="940" y2="347.5" stroke="#e5e7eb"/>
<text x="70" y="351.5" text-anchor="end" font-family="Arial, sans-serif" font-size="12" fill="#6b7280">4m</text>
<line x1="80" y1="255" x2="940" y2="255" stroke="#e5e7eb"/>
<text x="70" y="259" text-anchor="end" font-family="Arial, sans-serif" font-size="12" fill="#6b7280">8m</text>
<line x1="80" y1="162.5" x2="940" y2="162.5" stroke="#e5e7eb"/>
<text x="70" y="166.5" text-anchor="end" font-family="Arial, sans-serif" font-size="12" fill="#6b7280">11m</text>
<line x1="80" y1="70" x2="940" y2="70" stroke="#e5e7eb"/>
<text x="70" y="74" text-anchor="end" font-family="Arial, sans-serif" font-size="12" fill="#6b7280">15m</text>
<text x="80" y="485" text-anchor="middle" font-family="Arial, sans-serif" font-size="12" fill="#374151">2026-05-25</text>
<text x="366.66666666666663" y="485" text-anchor="middle" font-family="Arial, sans-serif" font-size="12" fill="#374151">2026-05-27</text>
<text x="653.3333333333333" y="485" text-anchor="middle" font-family="Arial, sans-serif" font-size="12" fill="#374151">2026-05-30</text>
<text x="940" y="485" text-anchor="middle" font-family="Arial, sans-serif" font-size="12" fill="#374151">2026-05-31</text>
<polyline points="80,230.33333333333334 366.66666666666663,230.33333333333334 366.66666666666663,230.33333333333334 366.66666666666663,230.33333333333334 653.3333333333333,230.33333333333334 653.3333333333333,230.33333333333334 653.3333333333333,193.33333333333334 653.3333333333333,193.33333333333334 653.3333333333333,193.33333333333334 653.3333333333333,428.9 653.3333333333333,193.33333333333334 653.3333333333333,404.23333333333335 653.3333333333333,401.76666666666665 653.3333333333333,193.33333333333334 653.3333333333333,428.9 653.3333333333333,396.8333333333333 653.3333333333333,70 653.3333333333333,70 653.3333333333333,70 940,70" fill="none" stroke="#2563eb" stroke-width="3"/>
<circle cx="80" cy="230.33333333333334" r="5" fill="#2563eb"/>
<circle cx="366.66666666666663" cy="230.33333333333334" r="5" fill="#2563eb"/>
<circle cx="366.66666666666663" cy="230.33333333333334" r="5" fill="#2563eb"/>
<circle cx="366.66666666666663" cy="230.33333333333334" r="5" fill="#2563eb"/>
<circle cx="653.3333333333333" cy="230.33333333333334" r="5" fill="#2563eb"/>
<circle cx="653.3333333333333" cy="230.33333333333334" r="5" fill="#2563eb"/>
<circle cx="653.3333333333333" cy="193.33333333333334" r="5" fill="#2563eb"/>
<circle cx="653.3333333333333" cy="193.33333333333334" r="5" fill="#2563eb"/>
<circle cx="653.3333333333333" cy="193.33333333333334" r="5" fill="#2563eb"/>
<circle cx="653.3333333333333" cy="428.9" r="5" fill="#2563eb"/>
<circle cx="653.3333333333333" cy="193.33333333333334" r="5" fill="#2563eb"/>
<circle cx="653.3333333333333" cy="404.23333333333335" r="5" fill="#2563eb"/>
<circle cx="653.3333333333333" cy="401.76666666666665" r="5" fill="#2563eb"/>
<circle cx="653.3333333333333" cy="193.33333333333334" r="5" fill="#2563eb"/>
<circle cx="653.3333333333333" cy="428.9" r="5" fill="#2563eb"/>
<circle cx="653.3333333333333" cy="396.8333333333333" r="5" fill="#2563eb"/>
<circle cx="653.3333333333333" cy="70" r="5" fill="#2563eb"/>
<circle cx="653.3333333333333" cy="70" r="5" fill="#2563eb"/>
<circle cx="653.3333333333333" cy="70" r="5" fill="#2563eb"/>
<circle cx="940" cy="70" r="5" fill="#2563eb"/>
<rect x="976" y="59" width="14" height="14" fill="#2563eb"/>
<text x="998" y="70" font-family="Arial, sans-serif" font-size="13" fill="#374151">Traffic spike benchmark</text>
</svg>
