<?xml version="1.0" encoding="UTF-8" standalone="no"?>
<!DOCTYPE svg PUBLIC "-//W3C//DTD SVG 1.1//EN"
 "http://www.w3.org/Graphics/SVG/1.1/DTD/svg11.dtd">
<!-- Generated by graphviz version 15.0.0 (20260523.1842)
 -->
<!-- Title: faro_k6_contract_relationships Pages: 1 -->
<svg width="4014pt" height="834pt"
 viewBox="0.00 0.00 4014.00 834.00" xmlns="http://www.w3.org/2000/svg" xmlns:xlink="http://www.w3.org/1999/xlink">
<g id="graph0" class="graph" transform="scale(1 1) rotate(0) translate(46.8 787.3)">
<title>faro_k6_contract_relationships</title>
<polygon fill="#0b1220" stroke="none" points="-46.8,46.8 -46.8,-787.3 3967.04,-787.3 3967.04,46.8 -46.8,46.8"/>
<text xml:space="preserve" text-anchor="middle" x="1960.12" y="-715.6" font-family="Helvetica,sans-Serif" font-size="22.00" fill="#f8fafc">Faro User Action Contract, k6 Load Tests, and Synthetic Checks</text>
<g id="clust1" class="cluster">
<title>cluster_contract</title>
<path fill="#0b1220" stroke="#475569" stroke-dasharray="5,2" d="M20,-210C20,-210 874.36,-210 874.36,-210 880.36,-210 886.36,-216 886.36,-222 886.36,-222 886.36,-448 886.36,-448 886.36,-454 880.36,-460 874.36,-460 874.36,-460 20,-460 20,-460 14,-460 8,-454 8,-448 8,-448 8,-222 8,-222 8,-216 14,-210 20,-210"/>
<text xml:space="preserve" text-anchor="middle" x="447.18" y="-435.1" font-family="Helvetica,sans-Serif" font-size="22.00" fill="#f8fafc">1. Frontend action contract</text>
</g>
<g id="clust2" class="cluster">
<title>cluster_browser_check</title>
<path fill="#0b1220" stroke="#475569" stroke-dasharray="5,2" d="M1536.95,-273C1536.95,-273 2774.13,-273 2774.13,-273 2780.13,-273 2786.13,-279 2786.13,-285 2786.13,-285 2786.13,-656 2786.13,-656 2786.13,-662 2780.13,-668 2774.13,-668 2774.13,-668 1536.95,-668 1536.95,-668 1530.95,-668 1524.95,-662 1524.95,-656 1524.95,-656 1524.95,-285 1524.95,-285 1524.95,-279 1530.95,-273 1536.95,-273"/>
<text xml:space="preserve" text-anchor="middle" x="2155.54" y="-643.1" font-family="Helvetica,sans-Serif" font-size="22.00" fill="#f8fafc">2. k6 browser&#45;action and SM scripted checks</text>
</g>
<g id="clust3" class="cluster">
<title>cluster_load_test</title>
<path fill="#0b1220" stroke="#475569" stroke-dasharray="5,2" d="M2483.79,-8C2483.79,-8 3137.06,-8 3137.06,-8 3143.06,-8 3149.06,-14 3149.06,-20 3149.06,-20 3149.06,-232 3149.06,-232 3149.06,-238 3143.06,-244 3137.06,-244 3137.06,-244 2483.79,-244 2483.79,-244 2477.79,-244 2471.79,-238 2471.79,-232 2471.79,-232 2471.79,-20 2471.79,-20 2471.79,-14 2477.79,-8 2483.79,-8"/>
<text xml:space="preserve" text-anchor="middle" x="2810.42" y="-219.1" font-family="Helvetica,sans-Serif" font-size="22.00" fill="#f8fafc">3. k6 load and traffic&#45;spike benchmarks</text>
</g>
<g id="clust4" class="cluster">
<title>cluster_grafana_evidence</title>
<path fill="#0b1220" stroke="#475569" stroke-dasharray="5,2" d="M3310.56,-308C3310.56,-308 3900.24,-308 3900.24,-308 3906.24,-308 3912.24,-314 3912.24,-320 3912.24,-320 3912.24,-690 3912.24,-690 3912.24,-696 3906.24,-702 3900.24,-702 3900.24,-702 3310.56,-702 3310.56,-702 3304.56,-702 3298.56,-696 3298.56,-690 3298.56,-690 3298.56,-320 3298.56,-320 3298.56,-314 3304.56,-308 3310.56,-308"/>
<text xml:space="preserve" text-anchor="middle" x="3605.4" y="-677.1" font-family="Helvetica,sans-Serif" font-size="22.00" fill="#f8fafc">4. Grafana evidence and reporting</text>
</g>
<!-- app_js -->
<g id="node1" class="node">
<title>app_js</title>
<path fill="#312e81" stroke="#a5b4fc" d="M179.68,-348.49C179.68,-348.49 28,-348.49 28,-348.49 22,-348.49 16,-342.49 16,-336.49 16,-336.49 16,-303.51 16,-303.51 16,-297.51 22,-291.51 28,-291.51 28,-291.51 179.68,-291.51 179.68,-291.51 185.68,-291.51 191.68,-297.51 191.68,-303.51 191.68,-303.51 191.68,-336.49 191.68,-336.49 191.68,-342.49 185.68,-348.49 179.68,-348.49"/>
<text xml:space="preserve" text-anchor="middle" x="103.84" y="-327.73" font-family="Helvetica,sans-Serif" font-size="12.00" fill="#f8fafc">frontend/src/App.jsx</text>
<text xml:space="preserve" text-anchor="middle" x="103.84" y="-314.98" font-family="Helvetica,sans-Serif" font-size="12.00" fill="#f8fafc">trackAppAction()</text>
<text xml:space="preserve" text-anchor="middle" x="103.84" y="-302.23" font-family="Helvetica,sans-Serif" font-size="12.00" fill="#f8fafc">data&#45;faro&#45;user&#45;action&#45;name</text>
</g>
<!-- action_taxonomy -->
<g id="node2" class="node">
<title>action_taxonomy</title>
<path fill="#111827" stroke="none" d="M545.43,-421.62C545.43,-421.62 361.68,-421.62 361.68,-421.62 355.68,-421.62 349.68,-415.62 349.68,-409.62 349.68,-409.62 349.68,-230.38 349.68,-230.38 349.68,-224.38 355.68,-218.38 361.68,-218.38 361.68,-218.38 545.43,-218.38 545.43,-218.38 551.43,-218.38 557.43,-224.38 557.43,-230.38 557.43,-230.38 557.43,-409.62 557.43,-409.62 557.43,-415.62 551.43,-421.62 545.43,-421.62"/>
<polygon fill="#1e3a5f" stroke="none" points="350.68,-391.88 350.68,-420.62 556.43,-420.62 556.43,-391.88 350.68,-391.88"/>
<polygon fill="none" stroke="#475569" points="350.68,-391.88 350.68,-420.62 556.43,-420.62 556.43,-391.88 350.68,-391.88"/>
<text xml:space="preserve" text-anchor="start" x="393.18" y="-402.23" font-family="Helvetica,sans-Serif" font-weight="bold" font-size="12.00" fill="#f8fafc">Stable action families</text>
<polygon fill="#111827" stroke="none" points="350.68,-363.12 350.68,-391.88 556.43,-391.88 556.43,-363.12 350.68,-363.12"/>
<polygon fill="none" stroke="#475569" points="350.68,-363.12 350.68,-391.88 556.43,-391.88 556.43,-363.12 350.68,-363.12"/>
<text xml:space="preserve" text-anchor="start" x="358.68" y="-374.12" font-family="Helvetica,sans-Serif" font-size="12.00" fill="#f8fafc">navigation and sale banner</text>
<polygon fill="#111827" stroke="none" points="350.68,-334.38 350.68,-363.12 556.43,-363.12 556.43,-334.38 350.68,-334.38"/>
<polygon fill="none" stroke="#475569" points="350.68,-334.38 350.68,-363.12 556.43,-363.12 556.43,-334.38 350.68,-334.38"/>
<text xml:space="preserve" text-anchor="start" x="358.68" y="-345.38" font-family="Helvetica,sans-Serif" font-size="12.00" fill="#f8fafc">department, category, sort, search</text>
<polygon fill="#111827" stroke="none" points="350.68,-305.62 350.68,-334.38 556.43,-334.38 556.43,-305.62 350.68,-305.62"/>
<polygon fill="none" stroke="#475569" points="350.68,-305.62 350.68,-334.38 556.43,-334.38 556.43,-305.62 350.68,-305.62"/>
<text xml:space="preserve" text-anchor="start" x="358.68" y="-316.62" font-family="Helvetica,sans-Serif" font-size="12.00" fill="#f8fafc">region and language selection</text>
<polygon fill="#111827" stroke="none" points="350.68,-276.88 350.68,-305.62 556.43,-305.62 556.43,-276.88 350.68,-276.88"/>
<polygon fill="none" stroke="#475569" points="350.68,-276.88 350.68,-305.62 556.43,-305.62 556.43,-276.88 350.68,-276.88"/>
<text xml:space="preserve" text-anchor="start" x="358.68" y="-287.88" font-family="Helvetica,sans-Serif" font-size="12.00" fill="#f8fafc">product detail and sale views</text>
<polygon fill="#111827" stroke="none" points="350.68,-248.12 350.68,-276.88 556.43,-276.88 556.43,-248.12 350.68,-248.12"/>
<polygon fill="none" stroke="#475569" points="350.68,-248.12 350.68,-276.88 556.43,-276.88 556.43,-248.12 350.68,-248.12"/>
<text xml:space="preserve" text-anchor="start" x="358.68" y="-259.12" font-family="Helvetica,sans-Serif" font-size="12.00" fill="#dcfce7">cart add, quantity, remove, checkout</text>
<polygon fill="#111827" stroke="none" points="350.68,-219.38 350.68,-248.12 556.43,-248.12 556.43,-219.38 350.68,-219.38"/>
<polygon fill="none" stroke="#475569" points="350.68,-219.38 350.68,-248.12 556.43,-248.12 556.43,-219.38 350.68,-219.38"/>
<text xml:space="preserve" text-anchor="start" x="358.68" y="-230.38" font-family="Helvetica,sans-Serif" font-size="12.00" fill="#f8fafc">account save and Google auth</text>
<polygon fill="none" stroke="#475569" points="349.68,-218.38 349.68,-421.62 557.43,-421.62 557.43,-218.38 349.68,-218.38"/>
</g>
<!-- app_js&#45;&gt;action_taxonomy -->
<g id="edge1" class="edge">
<title>app_js&#45;&gt;action_taxonomy</title>
<path fill="none" stroke="#94a3b8" d="M192.13,-320C237.39,-320 293.16,-320 341.47,-320"/>
<polygon fill="#94a3b8" stroke="#94a3b8" points="341.26,-322.45 348.26,-320 341.26,-317.55 341.26,-322.45"/>
<text xml:space="preserve" text-anchor="middle" x="270.68" y="-321.2" font-family="Helvetica,sans-Serif" font-size="9.00" fill="#f8fafc">defines names</text>
</g>
<!-- faro_attrs -->
<g id="node3" class="node">
<title>faro_attrs</title>
<path fill="#581c87" stroke="#c084fc" d="M866.36,-354.86C866.36,-354.86 727.43,-354.86 727.43,-354.86 721.43,-354.86 715.43,-348.86 715.43,-342.86 715.43,-342.86 715.43,-297.14 715.43,-297.14 715.43,-291.14 721.43,-285.14 727.43,-285.14 727.43,-285.14 866.36,-285.14 866.36,-285.14 872.36,-285.14 878.36,-291.14 878.36,-297.14 878.36,-297.14 878.36,-342.86 878.36,-342.86 878.36,-348.86 872.36,-354.86 866.36,-354.86"/>
<text xml:space="preserve" text-anchor="middle" x="796.9" y="-334.1" font-family="Helvetica,sans-Serif" font-size="12.00" fill="#f8fafc">Faro action attributes</text>
<text xml:space="preserve" text-anchor="middle" x="796.9" y="-321.35" font-family="Helvetica,sans-Serif" font-size="12.00" fill="#f8fafc">region, locale, language,</text>
<text xml:space="preserve" text-anchor="middle" x="796.9" y="-308.6" font-family="Helvetica,sans-Serif" font-size="12.00" fill="#f8fafc">product, cart, account,</text>
<text xml:space="preserve" text-anchor="middle" x="796.9" y="-295.85" font-family="Helvetica,sans-Serif" font-size="12.00" fill="#f8fafc">importance, severity</text>
</g>
<!-- action_taxonomy&#45;&gt;faro_attrs -->
<g id="edge2" class="edge">
<title>action_taxonomy&#45;&gt;faro_attrs</title>
<path fill="none" stroke="#94a3b8" d="M556.97,-320C604.57,-320 660.66,-320 706.52,-320"/>
<polygon fill="#94a3b8" stroke="#94a3b8" points="706.45,-322.45 713.45,-320 706.45,-317.55 706.45,-322.45"/>
<text xml:space="preserve" text-anchor="middle" x="636.43" y="-321.2" font-family="Helvetica,sans-Serif" font-size="9.00" fill="#f8fafc">adds attributes</text>
</g>
<!-- contract_rule -->
<g id="node17" class="node">
<title>contract_rule</title>
<path fill="#164e63" stroke="#22d3ee" stroke-width="2" d="M1144.79,-342.11C1144.79,-342.11 989.36,-342.11 989.36,-342.11 983.36,-342.11 977.36,-336.11 977.36,-330.11 977.36,-330.11 977.36,-309.89 977.36,-309.89 977.36,-303.89 983.36,-297.89 989.36,-297.89 989.36,-297.89 1144.79,-297.89 1144.79,-297.89 1150.79,-297.89 1156.79,-303.89 1156.79,-309.89 1156.79,-309.89 1156.79,-330.11 1156.79,-330.11 1156.79,-336.11 1150.79,-342.11 1144.79,-342.11"/>
<text xml:space="preserve" text-anchor="middle" x="1067.08" y="-321.35" font-family="Helvetica,sans-Serif" font-size="12.00" fill="#f8fafc">Action contract</text>
<text xml:space="preserve" text-anchor="middle" x="1067.08" y="-308.6" font-family="Helvetica,sans-Serif" font-size="12.00" fill="#f8fafc">name &#45;&gt; validate &#45;&gt; observe</text>
</g>
<!-- faro_attrs&#45;&gt;contract_rule -->
<g id="edge3" class="edge">
<title>faro_attrs&#45;&gt;contract_rule</title>
<path fill="none" stroke="#94a3b8" d="M878.72,-320C906.92,-320 938.86,-320 968.29,-320"/>
<polygon fill="#94a3b8" stroke="#94a3b8" points="968,-322.45 975,-320 968,-317.55 968,-322.45"/>
</g>
<!-- synthetic_script -->
<g id="node4" class="node">
<title>synthetic_script</title>
<path fill="#713f12" stroke="#fbbf24" d="M1755.13,-348.49C1755.13,-348.49 1544.95,-348.49 1544.95,-348.49 1538.95,-348.49 1532.95,-342.49 1532.95,-336.49 1532.95,-336.49 1532.95,-303.51 1532.95,-303.51 1532.95,-297.51 1538.95,-291.51 1544.95,-291.51 1544.95,-291.51 1755.13,-291.51 1755.13,-291.51 1761.13,-291.51 1767.13,-297.51 1767.13,-303.51 1767.13,-303.51 1767.13,-336.49 1767.13,-336.49 1767.13,-342.49 1761.13,-348.49 1755.13,-348.49"/>
<text xml:space="preserve" text-anchor="middle" x="1650.04" y="-327.73" font-family="Helvetica,sans-Serif" font-size="12.00" fill="#f8fafc">k6 browser&#45;action check</text>
<text xml:space="preserve" text-anchor="middle" x="1650.04" y="-314.98" font-family="Helvetica,sans-Serif" font-size="12.00" fill="#f8fafc">load&#45;tests/synthetic&#45;browser&#45;actions.js</text>
<text xml:space="preserve" text-anchor="middle" x="1650.04" y="-302.23" font-family="Helvetica,sans-Serif" font-size="12.00" fill="#f8fafc">Chromium UI/Faro journey</text>
</g>
<!-- dom_probe -->
<g id="node5" class="node">
<title>dom_probe</title>
<path fill="#78350f" stroke="#fbbf24" d="M2188.22,-392.49C2188.22,-392.49 2002.79,-392.49 2002.79,-392.49 1996.79,-392.49 1990.79,-386.49 1990.79,-380.49 1990.79,-380.49 1990.79,-347.51 1990.79,-347.51 1990.79,-341.51 1996.79,-335.51 2002.79,-335.51 2002.79,-335.51 2188.22,-335.51 2188.22,-335.51 2194.22,-335.51 2200.22,-341.51 2200.22,-347.51 2200.22,-347.51 2200.22,-380.49 2200.22,-380.49 2200.22,-386.49 2194.22,-392.49 2188.22,-392.49"/>
<text xml:space="preserve" text-anchor="middle" x="2095.5" y="-371.73" font-family="Helvetica,sans-Serif" font-size="12.00" fill="#f8fafc">Reads action selectors</text>
<text xml:space="preserve" text-anchor="middle" x="2095.5" y="-358.98" font-family="Helvetica,sans-Serif" font-size="12.00" fill="#f8fafc">records window.__k6UserActions</text>
<text xml:space="preserve" text-anchor="middle" x="2095.5" y="-346.23" font-family="Helvetica,sans-Serif" font-size="12.00" fill="#f8fafc">validates localized UI copy</text>
</g>
<!-- synthetic_script&#45;&gt;dom_probe -->
<g id="edge8" class="edge">
<title>synthetic_script&#45;&gt;dom_probe</title>
<path fill="none" stroke="#94a3b8" d="M1767.55,-331.56C1833.87,-338.14 1916.55,-346.34 1982.16,-352.85"/>
<polygon fill="#94a3b8" stroke="#94a3b8" points="1981.77,-355.28 1988.98,-353.53 1982.26,-350.4 1981.77,-355.28"/>
<text xml:space="preserve" text-anchor="middle" x="1857.75" y="-345.83" font-family="Helvetica,sans-Serif" font-size="9.00" fill="#f8fafc">browser executes UI</text>
</g>
<!-- spike_load -->
<g id="node11" class="node">
<title>spike_load</title>
<path fill="#7c2d12" stroke="#fb923c" d="M2711.34,-205.49C2711.34,-205.49 2506.41,-205.49 2506.41,-205.49 2500.41,-205.49 2494.41,-199.49 2494.41,-193.49 2494.41,-193.49 2494.41,-160.51 2494.41,-160.51 2494.41,-154.51 2500.41,-148.51 2506.41,-148.51 2506.41,-148.51 2711.34,-148.51 2711.34,-148.51 2717.34,-148.51 2723.34,-154.51 2723.34,-160.51 2723.34,-160.51 2723.34,-193.49 2723.34,-193.49 2723.34,-199.49 2717.34,-205.49 2711.34,-205.49"/>
<text xml:space="preserve" text-anchor="middle" x="2608.88" y="-184.72" font-family="Helvetica,sans-Serif" font-size="12.00" fill="#f8fafc">grafana&#45;cloud&#45;traffic&#45;spikes.js</text>
<text xml:space="preserve" text-anchor="middle" x="2608.88" y="-171.97" font-family="Helvetica,sans-Serif" font-size="12.00" fill="#f8fafc">traffic_spikes + regional_shoppers</text>
<text xml:space="preserve" text-anchor="middle" x="2608.88" y="-159.22" font-family="Helvetica,sans-Serif" font-size="12.00" fill="#f8fafc">api_request_rate + storefront_actions</text>
</g>
<!-- synthetic_script&#45;&gt;spike_load -->
<g id="edge15" class="edge">
<title>synthetic_script&#45;&gt;spike_load</title>
<path fill="none" stroke="#94a3b8" d="M1767.41,-302.61C1949.6,-275.38 2300.49,-222.94 2486.01,-195.21"/>
<polygon fill="#94a3b8" stroke="#94a3b8" points="2486.11,-197.67 2492.67,-194.22 2485.39,-192.83 2486.11,-197.67"/>
<text xml:space="preserve" text-anchor="middle" x="2095.5" y="-275.39" font-family="Helvetica,sans-Serif" font-size="9.00" fill="#f8fafc">imported as storefront_actions</text>
</g>
<!-- synthetic_assertions -->
<g id="node6" class="node">
<title>synthetic_assertions</title>
<path fill="#111827" stroke="none" d="M2766.13,-629.62C2766.13,-629.62 2451.63,-629.62 2451.63,-629.62 2445.63,-629.62 2439.63,-623.62 2439.63,-617.62 2439.63,-617.62 2439.63,-438.38 2439.63,-438.38 2439.63,-432.38 2445.63,-426.38 2451.63,-426.38 2451.63,-426.38 2766.13,-426.38 2766.13,-426.38 2772.13,-426.38 2778.13,-432.38 2778.13,-438.38 2778.13,-438.38 2778.13,-617.62 2778.13,-617.62 2778.13,-623.62 2772.13,-629.62 2766.13,-629.62"/>
<polygon fill="#1e3a5f" stroke="none" points="2440.63,-599.88 2440.63,-628.62 2777.13,-628.62 2777.13,-599.88 2440.63,-599.88"/>
<polygon fill="none" stroke="#475569" points="2440.63,-599.88 2440.63,-628.62 2777.13,-628.62 2777.13,-599.88 2440.63,-599.88"/>
<text xml:space="preserve" text-anchor="start" x="2528.63" y="-610.23" font-family="Helvetica,sans-Serif" font-weight="bold" font-size="12.00" fill="#f8fafc">UI/Faro coverage assertions</text>
<polygon fill="#111827" stroke="none" points="2440.63,-571.12 2440.63,-599.88 2512.13,-599.88 2512.13,-571.12 2440.63,-571.12"/>
<polygon fill="none" stroke="#475569" points="2440.63,-571.12 2440.63,-599.88 2512.13,-599.88 2512.13,-571.12 2440.63,-571.12"/>
<text xml:space="preserve" text-anchor="start" x="2448.63" y="-582.12" font-family="Helvetica,sans-Serif" font-size="12.00" fill="#f8fafc">selectors</text>
<polygon fill="#1e293b" stroke="none" points="2512.13,-571.12 2512.13,-599.88 2777.13,-599.88 2777.13,-571.12 2512.13,-571.12"/>
<polygon fill="none" stroke="#475569" points="2512.13,-571.12 2512.13,-599.88 2777.13,-599.88 2777.13,-571.12 2512.13,-571.12"/>
<text xml:space="preserve" text-anchor="start" x="2551.63" y="-582.12" font-family="Helvetica,sans-Serif" font-size="12.00" fill="#f8fafc">every expected button/action exists</text>
<polygon fill="#111827" stroke="none" points="2440.63,-542.38 2440.63,-571.12 2512.13,-571.12 2512.13,-542.38 2440.63,-542.38"/>
<polygon fill="none" stroke="#475569" points="2440.63,-542.38 2440.63,-571.12 2512.13,-571.12 2512.13,-542.38 2440.63,-542.38"/>
<text xml:space="preserve" text-anchor="start" x="2448.63" y="-553.38" font-family="Helvetica,sans-Serif" font-size="12.00" fill="#f8fafc">navigation</text>
<polygon fill="#1e293b" stroke="none" points="2512.13,-542.38 2512.13,-571.12 2777.13,-571.12 2777.13,-542.38 2512.13,-542.38"/>
<polygon fill="none" stroke="#475569" points="2512.13,-542.38 2512.13,-571.12 2777.13,-571.12 2777.13,-542.38 2512.13,-542.38"/>
<text xml:space="preserve" text-anchor="start" x="2541.5" y="-553.38" font-family="Helvetica,sans-Serif" font-size="12.00" fill="#f8fafc">brand, header, hero, utility, sale banner</text>
<polygon fill="#111827" stroke="none" points="2440.63,-513.62 2440.63,-542.38 2512.13,-542.38 2512.13,-513.62 2440.63,-513.62"/>
<polygon fill="none" stroke="#475569" points="2440.63,-513.62 2440.63,-542.38 2512.13,-542.38 2512.13,-513.62 2440.63,-513.62"/>
<text xml:space="preserve" text-anchor="start" x="2448.63" y="-524.62" font-family="Helvetica,sans-Serif" font-size="12.00" fill="#f8fafc">cart</text>
<polygon fill="#1e293b" stroke="none" points="2512.13,-513.62 2512.13,-542.38 2777.13,-542.38 2777.13,-513.62 2512.13,-513.62"/>
<polygon fill="none" stroke="#475569" points="2512.13,-513.62 2512.13,-542.38 2777.13,-542.38 2777.13,-513.62 2512.13,-513.62"/>
<text xml:space="preserve" text-anchor="start" x="2549.38" y="-524.62" font-family="Helvetica,sans-Serif" font-size="12.00" fill="#f8fafc">add, remove, checkout, dialog close</text>
<polygon fill="#111827" stroke="none" points="2440.63,-484.88 2440.63,-513.62 2512.13,-513.62 2512.13,-484.88 2440.63,-484.88"/>
<polygon fill="none" stroke="#475569" points="2440.63,-484.88 2440.63,-513.62 2512.13,-513.62 2512.13,-484.88 2440.63,-484.88"/>
<text xml:space="preserve" text-anchor="start" x="2448.63" y="-495.88" font-family="Helvetica,sans-Serif" font-size="12.00" fill="#f8fafc">auth</text>
<polygon fill="#1e293b" stroke="none" points="2512.13,-484.88 2512.13,-513.62 2777.13,-513.62 2777.13,-484.88 2512.13,-484.88"/>
<polygon fill="none" stroke="#475569" points="2512.13,-484.88 2512.13,-513.62 2777.13,-513.62 2777.13,-484.88 2512.13,-484.88"/>
<text xml:space="preserve" text-anchor="start" x="2520.13" y="-495.88" font-family="Helvetica,sans-Serif" font-size="12.00" fill="#f8fafc">Google login control and checkout Grafana link</text>
<polygon fill="#111827" stroke="none" points="2440.63,-456.12 2440.63,-484.88 2512.13,-484.88 2512.13,-456.12 2440.63,-456.12"/>
<polygon fill="none" stroke="#475569" points="2440.63,-456.12 2440.63,-484.88 2512.13,-484.88 2512.13,-456.12 2440.63,-456.12"/>
<text xml:space="preserve" text-anchor="start" x="2448.63" y="-467.12" font-family="Helvetica,sans-Serif" font-size="12.00" fill="#f8fafc">region</text>
<polygon fill="#1e293b" stroke="none" points="2512.13,-456.12 2512.13,-484.88 2777.13,-484.88 2777.13,-456.12 2512.13,-456.12"/>
<polygon fill="none" stroke="#475569" points="2512.13,-456.12 2512.13,-484.88 2777.13,-484.88 2777.13,-456.12 2512.13,-456.12"/>
<text xml:space="preserve" text-anchor="start" x="2542.63" y="-467.12" font-family="Helvetica,sans-Serif" font-size="12.00" fill="#f8fafc">US, CA, CN, UK, SE language checks</text>
<polygon fill="#111827" stroke="none" points="2440.63,-427.38 2440.63,-456.12 2512.13,-456.12 2512.13,-427.38 2440.63,-427.38"/>
<polygon fill="none" stroke="#475569" points="2440.63,-427.38 2440.63,-456.12 2512.13,-456.12 2512.13,-427.38 2440.63,-427.38"/>
<text xml:space="preserve" text-anchor="start" x="2448.63" y="-438.38" font-family="Helvetica,sans-Serif" font-size="12.00" fill="#f8fafc">web vitals</text>
<polygon fill="#1e293b" stroke="none" points="2512.13,-427.38 2512.13,-456.12 2777.13,-456.12 2777.13,-427.38 2512.13,-427.38"/>
<polygon fill="none" stroke="#475569" points="2512.13,-427.38 2512.13,-456.12 2777.13,-456.12 2777.13,-427.38 2512.13,-427.38"/>
<text xml:space="preserve" text-anchor="start" x="2578.25" y="-438.38" font-family="Helvetica,sans-Serif" font-size="12.00" fill="#f8fafc">LCP and CLS thresholds</text>
<polygon fill="none" stroke="#475569" points="2439.63,-426.38 2439.63,-629.62 2778.13,-629.62 2778.13,-426.38 2439.63,-426.38"/>
</g>
<!-- dom_probe&#45;&gt;synthetic_assertions -->
<g id="edge9" class="edge">
<title>dom_probe&#45;&gt;synthetic_assertions</title>
<path fill="none" stroke="#94a3b8" d="M2186.75,-392.94C2254.45,-414.66 2349.28,-445.07 2431.82,-471.54"/>
<polygon fill="#94a3b8" stroke="#94a3b8" points="2430.91,-473.82 2438.32,-473.62 2432.4,-469.15 2430.91,-473.82"/>
<text xml:space="preserve" text-anchor="middle" x="2341.13" y="-457.02" font-family="Helvetica,sans-Serif" font-size="9.00" fill="#f8fafc">checks behavior</text>
</g>
<!-- synthetic_counters -->
<g id="node7" class="node">
<title>synthetic_counters</title>
<path fill="#78350f" stroke="#fbbf24" d="M2696.72,-350.86C2696.72,-350.86 2521.04,-350.86 2521.04,-350.86 2515.04,-350.86 2509.04,-344.86 2509.04,-338.86 2509.04,-338.86 2509.04,-293.14 2509.04,-293.14 2509.04,-287.14 2515.04,-281.14 2521.04,-281.14 2521.04,-281.14 2696.72,-281.14 2696.72,-281.14 2702.72,-281.14 2708.72,-287.14 2708.72,-293.14 2708.72,-293.14 2708.72,-338.86 2708.72,-338.86 2708.72,-344.86 2702.72,-350.86 2696.72,-350.86"/>
<text xml:space="preserve" text-anchor="middle" x="2608.88" y="-330.1" font-family="Helvetica,sans-Serif" font-size="12.00" fill="#f8fafc">k6 counters</text>
<text xml:space="preserve" text-anchor="middle" x="2608.88" y="-317.35" font-family="Helvetica,sans-Serif" font-size="12.00" fill="#f8fafc">storefront_user_actions</text>
<text xml:space="preserve" text-anchor="middle" x="2608.88" y="-304.6" font-family="Helvetica,sans-Serif" font-size="12.00" fill="#f8fafc">storefront_user_action_events</text>
<text xml:space="preserve" text-anchor="middle" x="2608.88" y="-291.85" font-family="Helvetica,sans-Serif" font-size="12.00" fill="#f8fafc">cart add/remove/checkout totals</text>
</g>
<!-- dom_probe&#45;&gt;synthetic_counters -->
<g id="edge10" class="edge">
<title>dom_probe&#45;&gt;synthetic_counters</title>
<path fill="none" stroke="#94a3b8" d="M2200.6,-354.23C2287.88,-346.04 2412.03,-334.38 2500.27,-326.1"/>
<polygon fill="#94a3b8" stroke="#94a3b8" points="2500.45,-328.54 2507.19,-325.45 2499.99,-323.67 2500.45,-328.54"/>
<text xml:space="preserve" text-anchor="middle" x="2341.13" y="-345.5" font-family="Helvetica,sans-Serif" font-size="9.00" fill="#f8fafc">counts observed actions</text>
</g>
<!-- k6_cloud -->
<g id="node14" class="node">
<title>k6_cloud</title>
<path fill="#6b21a8" stroke="#c084fc" d="M3484.86,-518.49C3484.86,-518.49 3348.93,-518.49 3348.93,-518.49 3342.93,-518.49 3336.93,-512.49 3336.93,-506.49 3336.93,-506.49 3336.93,-473.51 3336.93,-473.51 3336.93,-467.51 3342.93,-461.51 3348.93,-461.51 3348.93,-461.51 3484.86,-461.51 3484.86,-461.51 3490.86,-461.51 3496.86,-467.51 3496.86,-473.51 3496.86,-473.51 3496.86,-506.49 3496.86,-506.49 3496.86,-512.49 3490.86,-518.49 3484.86,-518.49"/>
<text xml:space="preserve" text-anchor="middle" x="3416.9" y="-497.73" font-family="Helvetica,sans-Serif" font-size="12.00" fill="#f8fafc">Grafana Cloud k6</text>
<text xml:space="preserve" text-anchor="middle" x="3416.9" y="-484.98" font-family="Helvetica,sans-Serif" font-size="12.00" fill="#f8fafc">run metrics, thresholds,</text>
<text xml:space="preserve" text-anchor="middle" x="3416.9" y="-472.23" font-family="Helvetica,sans-Serif" font-size="12.00" fill="#f8fafc">checks, trends, counters</text>
</g>
<!-- synthetic_assertions&#45;&gt;k6_cloud -->
<g id="edge19" class="edge">
<title>synthetic_assertions&#45;&gt;k6_cloud</title>
<path fill="none" stroke="#94a3b8" d="M2777.86,-520.08C2945.47,-512.18 3196.43,-500.35 3328.09,-494.14"/>
<polygon fill="#94a3b8" stroke="#94a3b8" points="3328.2,-496.59 3335.07,-493.81 3327.97,-491.69 3328.2,-496.59"/>
<text xml:space="preserve" text-anchor="middle" x="3053.22" y="-512.1" font-family="Helvetica,sans-Serif" font-size="9.00" fill="#f8fafc">checks</text>
</g>
<!-- load_thresholds -->
<g id="node12" class="node">
<title>load_thresholds</title>
<path fill="#7c2d12" stroke="#fb923c" d="M3129.06,-205.86C3129.06,-205.86 2977.38,-205.86 2977.38,-205.86 2971.38,-205.86 2965.38,-199.86 2965.38,-193.86 2965.38,-193.86 2965.38,-148.14 2965.38,-148.14 2965.38,-142.14 2971.38,-136.14 2977.38,-136.14 2977.38,-136.14 3129.06,-136.14 3129.06,-136.14 3135.06,-136.14 3141.06,-142.14 3141.06,-148.14 3141.06,-148.14 3141.06,-193.86 3141.06,-193.86 3141.06,-199.86 3135.06,-205.86 3129.06,-205.86"/>
<text xml:space="preserve" text-anchor="middle" x="3053.22" y="-185.1" font-family="Helvetica,sans-Serif" font-size="12.00" fill="#f8fafc">Threshold contract</text>
<text xml:space="preserve" text-anchor="middle" x="3053.22" y="-172.35" font-family="Helvetica,sans-Serif" font-size="12.00" fill="#f8fafc">HTTP failure and latency</text>
<text xml:space="preserve" text-anchor="middle" x="3053.22" y="-159.6" font-family="Helvetica,sans-Serif" font-size="12.00" fill="#f8fafc">API request rate</text>
<text xml:space="preserve" text-anchor="middle" x="3053.22" y="-146.85" font-family="Helvetica,sans-Serif" font-size="12.00" fill="#f8fafc">per&#45;action&#45;family event rate</text>
</g>
<!-- synthetic_counters&#45;&gt;load_thresholds -->
<g id="edge18" class="edge">
<title>synthetic_counters&#45;&gt;load_thresholds</title>
<path fill="none" stroke="#94a3b8" d="M2709.08,-286.17C2749.15,-274.12 2786.13,-263 2786.13,-263 2786.13,-263 2880.87,-230.24 2957.28,-203.82"/>
<polygon fill="#94a3b8" stroke="#94a3b8" points="2957.84,-206.22 2963.66,-201.62 2956.24,-201.59 2957.84,-206.22"/>
<text xml:space="preserve" text-anchor="middle" x="2871.75" y="-248.78" font-family="Helvetica,sans-Serif" font-size="9.00" fill="#f8fafc">per&#45;action thresholds</text>
</g>
<!-- synthetic_counters&#45;&gt;k6_cloud -->
<g id="edge20" class="edge">
<title>synthetic_counters&#45;&gt;k6_cloud</title>
<path fill="none" stroke="#94a3b8" d="M2709.11,-337.42C2868.16,-371.76 3177.59,-438.55 3328.67,-471.17"/>
<polygon fill="#94a3b8" stroke="#94a3b8" points="3327.78,-473.49 3335.14,-472.57 3328.82,-468.7 3327.78,-473.49"/>
<text xml:space="preserve" text-anchor="middle" x="3053.22" y="-432.72" font-family="Helvetica,sans-Serif" font-size="9.00" fill="#f8fafc">custom metrics</text>
</g>
<!-- sm_scripted -->
<g id="node8" class="node">
<title>sm_scripted</title>
<path fill="#134e4a" stroke="#5eead4" d="M1748.75,-490.49C1748.75,-490.49 1551.32,-490.49 1551.32,-490.49 1545.32,-490.49 1539.32,-484.49 1539.32,-478.49 1539.32,-478.49 1539.32,-445.51 1539.32,-445.51 1539.32,-439.51 1545.32,-433.51 1551.32,-433.51 1551.32,-433.51 1748.75,-433.51 1748.75,-433.51 1754.75,-433.51 1760.75,-439.51 1760.75,-445.51 1760.75,-445.51 1760.75,-478.49 1760.75,-478.49 1760.75,-484.49 1754.75,-490.49 1748.75,-490.49"/>
<text xml:space="preserve" text-anchor="middle" x="1650.04" y="-469.73" font-family="Helvetica,sans-Serif" font-size="12.00" fill="#f8fafc">SM scripted k6 check</text>
<text xml:space="preserve" text-anchor="middle" x="1650.04" y="-456.98" font-family="Helvetica,sans-Serif" font-size="12.00" fill="#f8fafc">observability/synthetic&#45;monitoring/</text>
<text xml:space="preserve" text-anchor="middle" x="1650.04" y="-444.23" font-family="Helvetica,sans-Serif" font-size="12.00" fill="#f8fafc">ensemble&#45;grafana&#45;scripted&#45;check.js</text>
</g>
<!-- sm_assertions -->
<g id="node9" class="node">
<title>sm_assertions</title>
<path fill="#111827" stroke="none" d="M2230.63,-619.88C2230.63,-619.88 1960.38,-619.88 1960.38,-619.88 1954.38,-619.88 1948.38,-613.88 1948.38,-607.88 1948.38,-607.88 1948.38,-486.12 1948.38,-486.12 1948.38,-480.12 1954.38,-474.12 1960.38,-474.12 1960.38,-474.12 2230.63,-474.12 2230.63,-474.12 2236.63,-474.12 2242.63,-480.12 2242.63,-486.12 2242.63,-486.12 2242.63,-607.88 2242.63,-607.88 2242.63,-613.88 2236.63,-619.88 2230.63,-619.88"/>
<polygon fill="#155e75" stroke="none" points="1949.38,-590.12 1949.38,-618.88 2241.63,-618.88 2241.63,-590.12 1949.38,-590.12"/>
<polygon fill="none" stroke="#475569" points="1949.38,-590.12 1949.38,-618.88 2241.63,-618.88 2241.63,-590.12 1949.38,-590.12"/>
<text xml:space="preserve" text-anchor="start" x="2014.13" y="-600.48" font-family="Helvetica,sans-Serif" font-weight="bold" font-size="12.00" fill="#f8fafc">HTTP transaction assertions</text>
<polygon fill="#111827" stroke="none" points="1949.38,-561.38 1949.38,-590.12 2014.88,-590.12 2014.88,-561.38 1949.38,-561.38"/>
<polygon fill="none" stroke="#475569" points="1949.38,-561.38 1949.38,-590.12 2014.88,-590.12 2014.88,-561.38 1949.38,-561.38"/>
<text xml:space="preserve" text-anchor="start" x="1957.38" y="-572.38" font-family="Helvetica,sans-Serif" font-size="12.00" fill="#f8fafc">runtime</text>
<polygon fill="#1e293b" stroke="none" points="2014.88,-561.38 2014.88,-590.12 2241.63,-590.12 2241.63,-561.38 2014.88,-561.38"/>
<polygon fill="none" stroke="#475569" points="2014.88,-561.38 2014.88,-590.12 2241.63,-590.12 2241.63,-561.38 2014.88,-561.38"/>
<text xml:space="preserve" text-anchor="start" x="2027.38" y="-572.38" font-family="Helvetica,sans-Serif" font-size="12.00" fill="#f8fafc">1 VU, 1 iteration, no external data files</text>
<polygon fill="#111827" stroke="none" points="1949.38,-532.62 1949.38,-561.38 2014.88,-561.38 2014.88,-532.62 1949.38,-532.62"/>
<polygon fill="none" stroke="#475569" points="1949.38,-532.62 1949.38,-561.38 2014.88,-561.38 2014.88,-532.62 1949.38,-532.62"/>
<text xml:space="preserve" text-anchor="start" x="1957.38" y="-543.62" font-family="Helvetica,sans-Serif" font-size="12.00" fill="#f8fafc">storefront</text>
<polygon fill="#1e293b" stroke="none" points="2014.88,-532.62 2014.88,-561.38 2241.63,-561.38 2241.63,-532.62 2014.88,-532.62"/>
<polygon fill="none" stroke="#475569" points="2014.88,-532.62 2014.88,-561.38 2241.63,-561.38 2241.63,-532.62 2014.88,-532.62"/>
<text xml:space="preserve" text-anchor="start" x="2027" y="-543.62" font-family="Helvetica,sans-Serif" font-size="12.00" fill="#f8fafc">homepage 200 and duration threshold</text>
<polygon fill="#111827" stroke="none" points="1949.38,-503.88 1949.38,-532.62 2014.88,-532.62 2014.88,-503.88 1949.38,-503.88"/>
<polygon fill="none" stroke="#475569" points="1949.38,-503.88 1949.38,-532.62 2014.88,-532.62 2014.88,-503.88 1949.38,-503.88"/>
<text xml:space="preserve" text-anchor="start" x="1957.38" y="-514.88" font-family="Helvetica,sans-Serif" font-size="12.00" fill="#f8fafc">inventory</text>
<polygon fill="#1e293b" stroke="none" points="2014.88,-503.88 2014.88,-532.62 2241.63,-532.62 2241.63,-503.88 2014.88,-503.88"/>
<polygon fill="none" stroke="#475569" points="2014.88,-503.88 2014.88,-532.62 2241.63,-532.62 2241.63,-503.88 2014.88,-503.88"/>
<text xml:space="preserve" text-anchor="start" x="2032.63" y="-514.88" font-family="Helvetica,sans-Serif" font-size="12.00" fill="#f8fafc">product list and product detail JSON</text>
<polygon fill="#111827" stroke="none" points="1949.38,-475.12 1949.38,-503.88 2014.88,-503.88 2014.88,-475.12 1949.38,-475.12"/>
<polygon fill="none" stroke="#475569" points="1949.38,-475.12 1949.38,-503.88 2014.88,-503.88 2014.88,-475.12 1949.38,-475.12"/>
<text xml:space="preserve" text-anchor="start" x="1957.38" y="-486.12" font-family="Helvetica,sans-Serif" font-size="12.00" fill="#f8fafc">security</text>
<polygon fill="#1e293b" stroke="none" points="2014.88,-475.12 2014.88,-503.88 2241.63,-503.88 2241.63,-475.12 2014.88,-475.12"/>
<polygon fill="none" stroke="#475569" points="2014.88,-475.12 2014.88,-503.88 2241.63,-503.88 2241.63,-475.12 2014.88,-475.12"/>
<text xml:space="preserve" text-anchor="start" x="2022.88" y="-486.12" font-family="Helvetica,sans-Serif" font-size="12.00" fill="#f8fafc">cart API rejects unauthenticated request</text>
<polygon fill="none" stroke="#475569" points="1948.38,-474.12 1948.38,-619.88 2242.63,-619.88 2242.63,-474.12 1948.38,-474.12"/>
</g>
<!-- sm_scripted&#45;&gt;sm_assertions -->
<g id="edge12" class="edge">
<title>sm_scripted&#45;&gt;sm_assertions</title>
<path fill="none" stroke="#94a3b8" d="M1761.23,-483.12C1815.25,-493.47 1881.21,-506.12 1940.16,-517.42"/>
<polygon fill="#94a3b8" stroke="#94a3b8" points="1939.6,-519.81 1946.94,-518.72 1940.53,-514.99 1939.6,-519.81"/>
<text xml:space="preserve" text-anchor="middle" x="1857.75" y="-510.79" font-family="Helvetica,sans-Serif" font-size="9.00" fill="#f8fafc">checks API behavior</text>
</g>
<!-- synthetic_monitoring -->
<g id="node15" class="node">
<title>synthetic_monitoring</title>
<path fill="#6b21a8" stroke="#c084fc" d="M3515.24,-663.86C3515.24,-663.86 3318.56,-663.86 3318.56,-663.86 3312.56,-663.86 3306.56,-657.86 3306.56,-651.86 3306.56,-651.86 3306.56,-606.14 3306.56,-606.14 3306.56,-600.14 3312.56,-594.14 3318.56,-594.14 3318.56,-594.14 3515.24,-594.14 3515.24,-594.14 3521.24,-594.14 3527.24,-600.14 3527.24,-606.14 3527.24,-606.14 3527.24,-651.86 3527.24,-651.86 3527.24,-657.86 3521.24,-663.86 3515.24,-663.86"/>
<text xml:space="preserve" text-anchor="middle" x="3416.9" y="-643.1" font-family="Helvetica,sans-Serif" font-size="12.00" fill="#f8fafc">Grafana Synthetic Monitoring</text>
<text xml:space="preserve" text-anchor="middle" x="3416.9" y="-630.35" font-family="Helvetica,sans-Serif" font-size="12.00" fill="#f8fafc">HTTP, DNS, Ping, TCP, Scripted k6</text>
<text xml:space="preserve" text-anchor="middle" x="3416.9" y="-617.6" font-family="Helvetica,sans-Serif" font-size="12.00" fill="#f8fafc">uptime, TLS, response, resolution,</text>
<text xml:space="preserve" text-anchor="middle" x="3416.9" y="-604.85" font-family="Helvetica,sans-Serif" font-size="12.00" fill="#f8fafc">storefront/API transaction</text>
</g>
<!-- sm_assertions&#45;&gt;synthetic_monitoring -->
<g id="edge21" class="edge">
<title>sm_assertions&#45;&gt;synthetic_monitoring</title>
<path fill="none" stroke="#94a3b8" d="M2242.51,-598.49C2335.9,-631.42 2439.63,-668 2439.63,-668 2439.63,-668 2786.13,-668 2786.13,-668 2786.13,-668 3115.56,-647.6 3297.9,-636.31"/>
<polygon fill="#94a3b8" stroke="#94a3b8" points="3297.85,-638.76 3304.69,-635.89 3297.55,-633.87 3297.85,-638.76"/>
<text xml:space="preserve" text-anchor="middle" x="2871.75" y="-666.48" font-family="Helvetica,sans-Serif" font-size="9.00" fill="#f8fafc">scripted check</text>
</g>
<!-- regional_load -->
<g id="node10" class="node">
<title>regional_load</title>
<path fill="#7c2d12" stroke="#fb923c" d="M2725.97,-72.48C2725.97,-72.48 2491.79,-72.48 2491.79,-72.48 2485.79,-72.48 2479.79,-66.48 2479.79,-60.48 2479.79,-60.48 2479.79,-27.51 2479.79,-27.51 2479.79,-21.52 2485.79,-15.52 2491.79,-15.52 2491.79,-15.52 2725.97,-15.52 2725.97,-15.52 2731.97,-15.52 2737.97,-21.52 2737.97,-27.52 2737.97,-27.52 2737.97,-60.48 2737.97,-60.48 2737.97,-66.48 2731.97,-72.48 2725.97,-72.48"/>
<text xml:space="preserve" text-anchor="middle" x="2608.88" y="-51.73" font-family="Helvetica,sans-Serif" font-size="12.00" fill="#f8fafc">grafana&#45;cloud&#45;20&#45;user&#45;regional.js</text>
<text xml:space="preserve" text-anchor="middle" x="2608.88" y="-38.98" font-family="Helvetica,sans-Serif" font-size="12.00" fill="#f8fafc">API personas with regions</text>
<text xml:space="preserve" text-anchor="middle" x="2608.88" y="-26.23" font-family="Helvetica,sans-Serif" font-size="12.00" fill="#f8fafc">headers: X&#45;Region, X&#45;Locale, X&#45;Language</text>
</g>
<!-- regional_load&#45;&gt;load_thresholds -->
<g id="edge16" class="edge">
<title>regional_load&#45;&gt;load_thresholds</title>
<path fill="none" stroke="#94a3b8" d="M2710.8,-72.98C2784.85,-94.24 2884.75,-122.92 2957.34,-143.76"/>
<polygon fill="#94a3b8" stroke="#94a3b8" points="2956.3,-146.01 2963.71,-145.59 2957.65,-141.3 2956.3,-146.01"/>
<text xml:space="preserve" text-anchor="middle" x="2871.75" y="-131.12" font-family="Helvetica,sans-Serif" font-size="9.00" fill="#f8fafc">API behavior</text>
</g>
<!-- spike_load&#45;&gt;load_thresholds -->
<g id="edge17" class="edge">
<title>spike_load&#45;&gt;load_thresholds</title>
<path fill="none" stroke="#94a3b8" d="M2723.79,-175.45C2796.11,-174.47 2888.61,-173.22 2957.01,-172.29"/>
<polygon fill="#94a3b8" stroke="#94a3b8" points="2956.75,-174.75 2963.71,-172.2 2956.68,-169.85 2956.75,-174.75"/>
<text xml:space="preserve" text-anchor="middle" x="2871.75" y="-175.2" font-family="Helvetica,sans-Serif" font-size="9.00" fill="#f8fafc">spike and action rates</text>
</g>
<!-- load_thresholds&#45;&gt;k6_cloud -->
<g id="edge22" class="edge">
<title>load_thresholds&#45;&gt;k6_cloud</title>
<path fill="none" stroke="#94a3b8" d="M3113.3,-206.23C3173.34,-242.03 3257.56,-292.25 3257.56,-292.25 3257.56,-292.25 3298.56,-424 3298.56,-424 3298.56,-424 3327.99,-440.56 3357.38,-457.09"/>
<polygon fill="#94a3b8" stroke="#94a3b8" points="3355.81,-459.01 3363.11,-460.31 3358.21,-454.74 3355.81,-459.01"/>
<text xml:space="preserve" text-anchor="middle" x="3223.81" y="-293.45" font-family="Helvetica,sans-Serif" font-size="9.00" fill="#f8fafc">cloud run results</text>
</g>
<!-- faro_cloud -->
<g id="node13" class="node">
<title>faro_cloud</title>
<path fill="#6b21a8" stroke="#c084fc" d="M3496.11,-385.86C3496.11,-385.86 3337.68,-385.86 3337.68,-385.86 3331.68,-385.86 3325.68,-379.86 3325.68,-373.86 3325.68,-373.86 3325.68,-328.14 3325.68,-328.14 3325.68,-322.14 3331.68,-316.14 3337.68,-316.14 3337.68,-316.14 3496.11,-316.14 3496.11,-316.14 3502.11,-316.14 3508.11,-322.14 3508.11,-328.14 3508.11,-328.14 3508.11,-373.86 3508.11,-373.86 3508.11,-379.86 3502.11,-385.86 3496.11,-385.86"/>
<text xml:space="preserve" text-anchor="middle" x="3416.9" y="-365.1" font-family="Helvetica,sans-Serif" font-size="12.00" fill="#f8fafc">Grafana Faro collector</text>
<text xml:space="preserve" text-anchor="middle" x="3416.9" y="-352.35" font-family="Helvetica,sans-Serif" font-size="12.00" fill="#f8fafc">ingests pushEvent()</text>
<text xml:space="preserve" text-anchor="middle" x="3416.9" y="-339.6" font-family="Helvetica,sans-Serif" font-size="12.00" fill="#f8fafc">faro.user.action events</text>
<text xml:space="preserve" text-anchor="middle" x="3416.9" y="-326.85" font-family="Helvetica,sans-Serif" font-size="12.00" fill="#f8fafc">frontend sessions and errors</text>
</g>
<!-- reports -->
<g id="node16" class="node">
<title>reports</title>
<path fill="#111827" stroke="none" d="M3892.24,-577.25C3892.24,-577.25 3715.24,-577.25 3715.24,-577.25 3709.24,-577.25 3703.24,-571.25 3703.24,-565.25 3703.24,-565.25 3703.24,-414.75 3703.24,-414.75 3703.24,-408.75 3709.24,-402.75 3715.24,-402.75 3715.24,-402.75 3892.24,-402.75 3892.24,-402.75 3898.24,-402.75 3904.24,-408.75 3904.24,-414.75 3904.24,-414.75 3904.24,-565.25 3904.24,-565.25 3904.24,-571.25 3898.24,-577.25 3892.24,-577.25"/>
<polygon fill="#1e3a5f" stroke="none" points="3704.24,-547.5 3704.24,-576.25 3903.24,-576.25 3903.24,-547.5 3704.24,-547.5"/>
<polygon fill="none" stroke="#475569" points="3704.24,-547.5 3704.24,-576.25 3903.24,-576.25 3903.24,-547.5 3704.24,-547.5"/>
<text xml:space="preserve" text-anchor="start" x="3751.61" y="-557.85" font-family="Helvetica,sans-Serif" font-weight="bold" font-size="12.00" fill="#f8fafc">Post&#45;run evidence</text>
<polygon fill="#111827" stroke="none" points="3704.24,-518.75 3704.24,-547.5 3903.24,-547.5 3903.24,-518.75 3704.24,-518.75"/>
<polygon fill="none" stroke="#475569" points="3704.24,-518.75 3704.24,-547.5 3903.24,-547.5 3903.24,-518.75 3704.24,-518.75"/>
<text xml:space="preserve" text-anchor="start" x="3712.24" y="-529.75" font-family="Helvetica,sans-Serif" font-size="12.00" fill="#f8fafc">scripts/report&#45;faro&#45;user&#45;actions.mjs</text>
<polygon fill="#111827" stroke="none" points="3704.24,-490 3704.24,-518.75 3903.24,-518.75 3903.24,-490 3704.24,-490"/>
<polygon fill="none" stroke="#475569" points="3704.24,-490 3704.24,-518.75 3903.24,-518.75 3903.24,-490 3704.24,-490"/>
<text xml:space="preserve" text-anchor="start" x="3712.24" y="-501" font-family="Helvetica,sans-Serif" font-size="12.00" fill="#f8fafc">scripts/report&#45;load&#45;tests.mjs</text>
<polygon fill="#111827" stroke="none" points="3704.24,-461.25 3704.24,-490 3903.24,-490 3903.24,-461.25 3704.24,-461.25"/>
<polygon fill="none" stroke="#475569" points="3704.24,-461.25 3704.24,-490 3903.24,-490 3903.24,-461.25 3704.24,-461.25"/>
<text xml:space="preserve" text-anchor="start" x="3712.24" y="-472.25" font-family="Helvetica,sans-Serif" font-size="12.00" fill="#f8fafc">reports/frontend&#45;user&#45;actions/</text>
<polygon fill="#111827" stroke="none" points="3704.24,-432.5 3704.24,-461.25 3903.24,-461.25 3903.24,-432.5 3704.24,-432.5"/>
<polygon fill="none" stroke="#475569" points="3704.24,-432.5 3704.24,-461.25 3903.24,-461.25 3903.24,-432.5 3704.24,-432.5"/>
<text xml:space="preserve" text-anchor="start" x="3712.24" y="-443.5" font-family="Helvetica,sans-Serif" font-size="12.00" fill="#f8fafc">reports/load&#45;tests/comparison/</text>
<polygon fill="#111827" stroke="none" points="3704.24,-403.75 3704.24,-432.5 3903.24,-432.5 3903.24,-403.75 3704.24,-403.75"/>
<polygon fill="none" stroke="#475569" points="3704.24,-403.75 3704.24,-432.5 3903.24,-432.5 3903.24,-403.75 3704.24,-403.75"/>
<text xml:space="preserve" text-anchor="start" x="3712.24" y="-414.75" font-family="Helvetica,sans-Serif" font-size="12.00" fill="#93c5fd">report gaps update the contract</text>
<polygon fill="none" stroke="#475569" points="3703.24,-402.75 3703.24,-577.25 3904.24,-577.25 3904.24,-402.75 3703.24,-402.75"/>
</g>
<!-- faro_cloud&#45;&gt;reports -->
<g id="edge24" class="edge">
<title>faro_cloud&#45;&gt;reports</title>
<path fill="none" stroke="#94a3b8" d="M3508.61,-383.77C3564.65,-404.01 3636.84,-430.08 3695.67,-451.33"/>
<polygon fill="#94a3b8" stroke="#94a3b8" points="3694.67,-453.57 3702.09,-453.65 3696.34,-448.97 3694.67,-453.57"/>
<text xml:space="preserve" text-anchor="middle" x="3615.24" y="-434.15" font-family="Helvetica,sans-Serif" font-size="9.00" fill="#f8fafc">LogQL action totals</text>
</g>
<!-- k6_cloud&#45;&gt;reports -->
<g id="edge25" class="edge">
<title>k6_cloud&#45;&gt;reports</title>
<path fill="none" stroke="#94a3b8" d="M3497.17,-490C3554.34,-490 3632.18,-490 3694.99,-490"/>
<polygon fill="#94a3b8" stroke="#94a3b8" points="3694.84,-492.45 3701.84,-490 3694.84,-487.55 3694.84,-492.45"/>
<text xml:space="preserve" text-anchor="middle" x="3615.24" y="-491.2" font-family="Helvetica,sans-Serif" font-size="9.00" fill="#f8fafc">run summaries</text>
</g>
<!-- synthetic_monitoring&#45;&gt;reports -->
<g id="edge23" class="edge">
<title>synthetic_monitoring&#45;&gt;reports</title>
<path fill="none" stroke="#94a3b8" d="M3515.5,-593.74C3570.48,-573.89 3639.22,-549.06 3695.68,-528.67"/>
<polygon fill="#94a3b8" stroke="#94a3b8" points="3696.38,-531.02 3702.13,-526.34 3694.72,-526.41 3696.38,-531.02"/>
<text xml:space="preserve" text-anchor="middle" x="3615.24" y="-569.02" font-family="Helvetica,sans-Serif" font-size="9.00" fill="#f8fafc">availability context</text>
</g>
<!-- browser_contract -->
<g id="node18" class="node">
<title>browser_contract</title>
<ellipse fill="#0f766e" stroke="#5eead4" cx="1320.62" cy="-320" rx="64.3" ry="22.25"/>
<text xml:space="preserve" text-anchor="middle" x="1320.62" y="-314.98" font-family="Helvetica,sans-Serif" font-size="12.00" fill="#f8fafc">Browser UI</text>
</g>
<!-- contract_rule&#45;&gt;browser_contract -->
<g id="edge4" class="edge">
<title>contract_rule&#45;&gt;browser_contract</title>
<path fill="none" stroke="#94a3b8" d="M1157.47,-320C1187.16,-320 1219.81,-320 1247.98,-320"/>
<polygon fill="#94a3b8" stroke="#94a3b8" points="1247.67,-322.45 1254.67,-320 1247.67,-317.55 1247.67,-322.45"/>
</g>
<!-- api_contract -->
<g id="node19" class="node">
<title>api_contract</title>
<ellipse fill="#0f766e" stroke="#5eead4" cx="1320.62" cy="-451" rx="64.83" ry="22.25"/>
<text xml:space="preserve" text-anchor="middle" x="1320.62" y="-445.98" font-family="Helvetica,sans-Serif" font-size="12.00" fill="#f8fafc">API checks</text>
</g>
<!-- contract_rule&#45;&gt;api_contract -->
<g id="edge5" class="edge">
<title>contract_rule&#45;&gt;api_contract</title>
<path fill="none" stroke="#94a3b8" d="M1112.18,-342.97C1158.36,-367.02 1230.42,-404.55 1276.3,-428.44"/>
<polygon fill="#94a3b8" stroke="#94a3b8" points="1275.03,-430.54 1282.37,-431.6 1277.3,-426.2 1275.03,-430.54"/>
</g>
<!-- load_contract -->
<g id="node20" class="node">
<title>load_contract</title>
<ellipse fill="#0f766e" stroke="#5eead4" cx="2095.5" cy="-70" rx="61.12" ry="22.25"/>
<text xml:space="preserve" text-anchor="middle" x="2095.5" y="-64.97" font-family="Helvetica,sans-Serif" font-size="12.00" fill="#f8fafc">Load tests</text>
</g>
<!-- contract_rule&#45;&gt;load_contract -->
<g id="edge6" class="edge">
<title>contract_rule&#45;&gt;load_contract</title>
<path fill="none" stroke="#94a3b8" d="M1140.11,-296.97C1193.05,-280.05 1255.79,-260 1255.79,-260 1255.79,-260 1842.92,-126.99 2034.7,-83.55"/>
<polygon fill="#94a3b8" stroke="#94a3b8" points="2035.22,-85.94 2041.51,-82 2034.14,-81.16 2035.22,-85.94"/>
</g>
<!-- browser_contract&#45;&gt;synthetic_script -->
<g id="edge7" class="edge">
<title>browser_contract&#45;&gt;synthetic_script</title>
<path fill="none" stroke="#94a3b8" d="M1385.14,-320C1424.61,-320 1476.71,-320 1524.18,-320"/>
<polygon fill="#94a3b8" stroke="#94a3b8" points="1524.16,-322.45 1531.16,-320 1524.16,-317.55 1524.16,-322.45"/>
<text xml:space="preserve" text-anchor="middle" x="1459.2" y="-321.2" font-family="Helvetica,sans-Serif" font-size="9.00" fill="#f8fafc">selectors</text>
</g>
<!-- api_contract&#45;&gt;sm_scripted -->
<g id="edge11" class="edge">
<title>api_contract&#45;&gt;sm_scripted</title>
<path fill="none" stroke="#94a3b8" d="M1385.52,-453.15C1426.69,-454.53 1481.47,-456.37 1530.42,-458.01"/>
<polygon fill="#94a3b8" stroke="#94a3b8" points="1530.26,-460.46 1537.34,-458.25 1530.43,-455.56 1530.26,-460.46"/>
<text xml:space="preserve" text-anchor="middle" x="1459.2" y="-457.37" font-family="Helvetica,sans-Serif" font-size="9.00" fill="#f8fafc">transactions</text>
</g>
<!-- load_contract&#45;&gt;regional_load -->
<g id="edge13" class="edge">
<title>load_contract&#45;&gt;regional_load</title>
<path fill="none" stroke="#94a3b8" d="M2155.84,-65.51C2213.25,-61.17 2291.63,-55.25 2291.63,-55.25 2291.63,-55.25 2385.86,-51.9 2471.45,-48.85"/>
<polygon fill="#94a3b8" stroke="#94a3b8" points="2471.28,-51.31 2478.19,-48.61 2471.1,-46.41 2471.28,-51.31"/>
<text xml:space="preserve" text-anchor="middle" x="2341.13" y="-56.45" font-family="Helvetica,sans-Serif" font-size="9.00" fill="#f8fafc">region/API</text>
</g>
<!-- load_contract&#45;&gt;spike_load -->
<g id="edge14" class="edge">
<title>load_contract&#45;&gt;spike_load</title>
<path fill="none" stroke="#94a3b8" d="M2149.3,-81.05C2228.08,-97.53 2378.57,-129.02 2485.66,-151.43"/>
<polygon fill="#94a3b8" stroke="#94a3b8" points="2485.1,-153.81 2492.46,-152.85 2486.11,-149.02 2485.1,-153.81"/>
<text xml:space="preserve" text-anchor="middle" x="2341.13" y="-131.11" font-family="Helvetica,sans-Serif" font-size="9.00" fill="#f8fafc">browser actions</text>
</g>
</g>
</svg>
