<?xml version="1.0" encoding="UTF-8" standalone="no"?>
<!DOCTYPE svg PUBLIC "-//W3C//DTD SVG 1.1//EN"
 "http://www.w3.org/Graphics/SVG/1.1/DTD/svg11.dtd">
<!-- Generated by graphviz version 15.0.0 (20260523.1842)
 -->
<!-- Title: faro_k6_contract_relationships Pages: 1 -->
<svg width="1850pt" height="930pt"
 viewBox="0.00 0.00 1850.00 930.00" xmlns="http://www.w3.org/2000/svg" xmlns:xlink="http://www.w3.org/1999/xlink">
<g id="graph0" class="graph" transform="scale(1 1) rotate(0) translate(25.2 904.95)">
<title>faro_k6_contract_relationships</title>
<polygon fill="#0b1220" stroke="none" points="-25.2,25.2 -25.2,-904.95 1824.89,-904.95 1824.89,25.2 -25.2,25.2"/>
<text xml:space="preserve" text-anchor="middle" x="899.84" y="-854.85" font-family="Helvetica,sans-Serif" font-size="22.00" fill="#f8fafc">Faro User Action Contract, k6 Load Tests, and Synthetic Checks</text>
<g id="clust1" class="cluster">
<title>cluster_contract</title>
<path fill="#0b1220" stroke="#475569" stroke-dasharray="5,2" d="M823.2,-591.25C823.2,-591.25 1754.17,-591.25 1754.17,-591.25 1760.17,-591.25 1766.17,-597.25 1766.17,-603.25 1766.17,-603.25 1766.17,-829.25 1766.17,-829.25 1766.17,-835.25 1760.17,-841.25 1754.17,-841.25 1754.17,-841.25 823.2,-841.25 823.2,-841.25 817.2,-841.25 811.2,-835.25 811.2,-829.25 811.2,-829.25 811.2,-603.25 811.2,-603.25 811.2,-597.25 817.2,-591.25 823.2,-591.25"/>
<text xml:space="preserve" text-anchor="middle" x="1288.69" y="-816.35" font-family="Helvetica,sans-Serif" font-size="22.00" fill="#f8fafc">1. Frontend action contract</text>
</g>
<g id="clust2" class="cluster">
<title>cluster_browser_check</title>
<path fill="#0b1220" stroke="#475569" stroke-dasharray="5,2" d="M20,-293.25C20,-293.25 1042.19,-293.25 1042.19,-293.25 1048.19,-293.25 1054.19,-299.25 1054.19,-305.25 1054.19,-305.25 1054.19,-571.25 1054.19,-571.25 1054.19,-577.25 1048.19,-583.25 1042.19,-583.25 1042.19,-583.25 20,-583.25 20,-583.25 14,-583.25 8,-577.25 8,-571.25 8,-571.25 8,-305.25 8,-305.25 8,-299.25 14,-293.25 20,-293.25"/>
<text xml:space="preserve" text-anchor="middle" x="531.09" y="-558.35" font-family="Helvetica,sans-Serif" font-size="22.00" fill="#f8fafc">2. k6 synthetic browser action check</text>
</g>
<g id="clust3" class="cluster">
<title>cluster_load_test</title>
<path fill="#0b1220" stroke="#475569" stroke-dasharray="5,2" d="M781.95,-103.25C781.95,-103.25 1410.17,-103.25 1410.17,-103.25 1416.17,-103.25 1422.17,-109.25 1422.17,-115.25 1422.17,-115.25 1422.17,-273.25 1422.17,-273.25 1422.17,-279.25 1416.17,-285.25 1410.17,-285.25 1410.17,-285.25 781.95,-285.25 781.95,-285.25 775.95,-285.25 769.95,-279.25 769.95,-273.25 769.95,-273.25 769.95,-115.25 769.95,-115.25 769.95,-109.25 775.95,-103.25 781.95,-103.25"/>
<text xml:space="preserve" text-anchor="middle" x="1096.06" y="-260.35" font-family="Helvetica,sans-Serif" font-size="22.00" fill="#f8fafc">3. k6 load and traffic&#45;spike benchmarks</text>
</g>
<g id="clust4" class="cluster">
<title>cluster_grafana_evidence</title>
<path fill="#0b1220" stroke="#475569" stroke-dasharray="5,2" d="M1238.2,-312.25C1238.2,-312.25 1779.69,-312.25 1779.69,-312.25 1785.69,-312.25 1791.69,-318.25 1791.69,-324.25 1791.69,-324.25 1791.69,-568.25 1791.69,-568.25 1791.69,-574.25 1785.69,-580.25 1779.69,-580.25 1779.69,-580.25 1238.2,-580.25 1238.2,-580.25 1232.2,-580.25 1226.2,-574.25 1226.2,-568.25 1226.2,-568.25 1226.2,-324.25 1226.2,-324.25 1226.2,-318.25 1232.2,-312.25 1238.2,-312.25"/>
<text xml:space="preserve" text-anchor="middle" x="1508.95" y="-555.35" font-family="Helvetica,sans-Serif" font-size="22.00" fill="#f8fafc">4. Grafana evidence and reporting</text>
</g>
<!-- app_js -->
<g id="node1" class="node">
<title>app_js</title>
<path fill="#312e81" stroke="#a5b4fc" d="M969.92,-649.13C969.92,-649.13 831.2,-649.13 831.2,-649.13 825.2,-649.13 819.2,-643.13 819.2,-637.13 819.2,-637.13 819.2,-611.37 819.2,-611.37 819.2,-605.37 825.2,-599.37 831.2,-599.37 831.2,-599.37 969.92,-599.37 969.92,-599.37 975.92,-599.37 981.92,-605.37 981.92,-611.37 981.92,-611.37 981.92,-637.13 981.92,-637.13 981.92,-643.13 975.92,-649.13 969.92,-649.13"/>
<text xml:space="preserve" text-anchor="middle" x="900.56" y="-631.98" font-family="Helvetica,sans-Serif" font-size="12.00" fill="#f8fafc">frontend/src/App.jsx</text>
<text xml:space="preserve" text-anchor="middle" x="900.56" y="-619.23" font-family="Helvetica,sans-Serif" font-size="12.00" fill="#f8fafc">trackAppAction()</text>
<text xml:space="preserve" text-anchor="middle" x="900.56" y="-606.48" font-family="Helvetica,sans-Serif" font-size="12.00" fill="#f8fafc">data&#45;faro&#45;user&#45;action&#45;name</text>
</g>
<!-- action_taxonomy -->
<g id="node2" class="node">
<title>action_taxonomy</title>
<path fill="#111827" stroke="none" d="M1424.69,-802.88C1424.69,-802.88 1240.94,-802.88 1240.94,-802.88 1234.94,-802.88 1228.94,-796.88 1228.94,-790.88 1228.94,-790.88 1228.94,-611.62 1228.94,-611.62 1228.94,-605.62 1234.94,-599.62 1240.94,-599.62 1240.94,-599.62 1424.69,-599.62 1424.69,-599.62 1430.69,-599.62 1436.69,-605.62 1436.69,-611.62 1436.69,-611.62 1436.69,-790.88 1436.69,-790.88 1436.69,-796.88 1430.69,-802.88 1424.69,-802.88"/>
<polygon fill="#1e3a5f" stroke="none" points="1229.94,-773.12 1229.94,-801.88 1435.69,-801.88 1435.69,-773.12 1229.94,-773.12"/>
<polygon fill="none" stroke="#475569" points="1229.94,-773.12 1229.94,-801.88 1435.69,-801.88 1435.69,-773.12 1229.94,-773.12"/>
<text xml:space="preserve" text-anchor="start" x="1272.44" y="-783.48" font-family="Helvetica,sans-Serif" font-weight="bold" font-size="12.00" fill="#f8fafc">Stable action families</text>
<polygon fill="#111827" stroke="none" points="1229.94,-744.38 1229.94,-773.12 1435.69,-773.12 1435.69,-744.38 1229.94,-744.38"/>
<polygon fill="none" stroke="#475569" points="1229.94,-744.38 1229.94,-773.12 1435.69,-773.12 1435.69,-744.38 1229.94,-744.38"/>
<text xml:space="preserve" text-anchor="start" x="1237.94" y="-755.38" font-family="Helvetica,sans-Serif" font-size="12.00" fill="#f8fafc">navigation and sale banner</text>
<polygon fill="#111827" stroke="none" points="1229.94,-715.62 1229.94,-744.38 1435.69,-744.38 1435.69,-715.62 1229.94,-715.62"/>
<polygon fill="none" stroke="#475569" points="1229.94,-715.62 1229.94,-744.38 1435.69,-744.38 1435.69,-715.62 1229.94,-715.62"/>
<text xml:space="preserve" text-anchor="start" x="1237.94" y="-726.62" font-family="Helvetica,sans-Serif" font-size="12.00" fill="#f8fafc">department, category, sort, search</text>
<polygon fill="#111827" stroke="none" points="1229.94,-686.88 1229.94,-715.62 1435.69,-715.62 1435.69,-686.88 1229.94,-686.88"/>
<polygon fill="none" stroke="#475569" points="1229.94,-686.88 1229.94,-715.62 1435.69,-715.62 1435.69,-686.88 1229.94,-686.88"/>
<text xml:space="preserve" text-anchor="start" x="1237.94" y="-697.88" font-family="Helvetica,sans-Serif" font-size="12.00" fill="#f8fafc">region and language selection</text>
<polygon fill="#111827" stroke="none" points="1229.94,-658.12 1229.94,-686.88 1435.69,-686.88 1435.69,-658.12 1229.94,-658.12"/>
<polygon fill="none" stroke="#475569" points="1229.94,-658.12 1229.94,-686.88 1435.69,-686.88 1435.69,-658.12 1229.94,-658.12"/>
<text xml:space="preserve" text-anchor="start" x="1237.94" y="-669.12" font-family="Helvetica,sans-Serif" font-size="12.00" fill="#f8fafc">product detail and sale views</text>
<polygon fill="#111827" stroke="none" points="1229.94,-629.38 1229.94,-658.12 1435.69,-658.12 1435.69,-629.38 1229.94,-629.38"/>
<polygon fill="none" stroke="#475569" points="1229.94,-629.38 1229.94,-658.12 1435.69,-658.12 1435.69,-629.38 1229.94,-629.38"/>
<text xml:space="preserve" text-anchor="start" x="1237.94" y="-640.38" font-family="Helvetica,sans-Serif" font-size="12.00" fill="#dcfce7">cart add, quantity, remove, checkout</text>
<polygon fill="#111827" stroke="none" points="1229.94,-600.62 1229.94,-629.38 1435.69,-629.38 1435.69,-600.62 1229.94,-600.62"/>
<polygon fill="none" stroke="#475569" points="1229.94,-600.62 1229.94,-629.38 1435.69,-629.38 1435.69,-600.62 1229.94,-600.62"/>
<text xml:space="preserve" text-anchor="start" x="1237.94" y="-611.62" font-family="Helvetica,sans-Serif" font-size="12.00" fill="#f8fafc">account save and Google auth</text>
<polygon fill="none" stroke="#475569" points="1228.94,-599.62 1228.94,-802.88 1436.69,-802.88 1436.69,-599.62 1228.94,-599.62"/>
</g>
<!-- app_js&#45;&gt;action_taxonomy -->
<g id="edge1" class="edge">
<title>app_js&#45;&gt;action_taxonomy</title>
<path fill="none" stroke="#94a3b8" d="M982.24,-638.69C1049.48,-650.72 1145.98,-667.99 1220.56,-681.34"/>
<polygon fill="#94a3b8" stroke="#94a3b8" points="1219.74,-683.86 1227.59,-682.6 1220.67,-678.69 1219.74,-683.86"/>
<text xml:space="preserve" text-anchor="middle" x="1137.56" y="-678.09" font-family="Helvetica,sans-Serif" font-size="10.00" fill="#f8fafc">defines names</text>
</g>
<!-- faro_cloud -->
<g id="node11" class="node">
<title>faro_cloud</title>
<path fill="#6b21a8" stroke="#c084fc" d="M1405.55,-456.13C1405.55,-456.13 1260.08,-456.13 1260.08,-456.13 1254.08,-456.13 1248.08,-450.13 1248.08,-444.13 1248.08,-444.13 1248.08,-418.37 1248.08,-418.37 1248.08,-412.37 1254.08,-406.37 1260.08,-406.37 1260.08,-406.37 1405.55,-406.37 1405.55,-406.37 1411.55,-406.37 1417.55,-412.37 1417.55,-418.37 1417.55,-418.37 1417.55,-444.13 1417.55,-444.13 1417.55,-450.13 1411.55,-456.13 1405.55,-456.13"/>
<text xml:space="preserve" text-anchor="middle" x="1332.81" y="-438.98" font-family="Helvetica,sans-Serif" font-size="12.00" fill="#f8fafc">Grafana Faro collector</text>
<text xml:space="preserve" text-anchor="middle" x="1332.81" y="-426.23" font-family="Helvetica,sans-Serif" font-size="12.00" fill="#f8fafc">faro.user.action events</text>
<text xml:space="preserve" text-anchor="middle" x="1332.81" y="-413.48" font-family="Helvetica,sans-Serif" font-size="12.00" fill="#f8fafc">frontend sessions and errors</text>
</g>
<!-- app_js&#45;&gt;faro_cloud -->
<g id="edge14" class="edge">
<title>app_js&#45;&gt;faro_cloud</title>
<path fill="none" stroke="#94a3b8" d="M982.35,-607.31C1018.96,-599.64 1054.19,-592.25 1054.19,-592.25 1054.19,-592.25 1077.19,-535 1077.19,-535 1077.19,-535 1226.2,-474.25 1226.2,-474.25 1226.2,-474.25 1242.1,-467.78 1261.56,-459.86"/>
<polygon fill="#94a3b8" stroke="#94a3b8" points="1262.41,-462.34 1268.37,-457.08 1260.43,-457.48 1262.41,-462.34"/>
<text xml:space="preserve" text-anchor="middle" x="1137.56" y="-536.75" font-family="Helvetica,sans-Serif" font-size="10.00" fill="#f8fafc">pushEvent</text>
</g>
<!-- faro_attrs -->
<g id="node3" class="node">
<title>faro_attrs</title>
<path fill="#581c87" stroke="#c084fc" d="M1746.17,-680.51C1746.17,-680.51 1620.2,-680.51 1620.2,-680.51 1614.2,-680.51 1608.2,-674.51 1608.2,-668.51 1608.2,-668.51 1608.2,-629.99 1608.2,-629.99 1608.2,-623.99 1614.2,-617.99 1620.2,-617.99 1620.2,-617.99 1746.17,-617.99 1746.17,-617.99 1752.17,-617.99 1758.17,-623.99 1758.17,-629.99 1758.17,-629.99 1758.17,-668.51 1758.17,-668.51 1758.17,-674.51 1752.17,-680.51 1746.17,-680.51"/>
<text xml:space="preserve" text-anchor="middle" x="1683.19" y="-663.35" font-family="Helvetica,sans-Serif" font-size="12.00" fill="#f8fafc">Faro action attributes</text>
<text xml:space="preserve" text-anchor="middle" x="1683.19" y="-650.6" font-family="Helvetica,sans-Serif" font-size="12.00" fill="#f8fafc">region, locale, language,</text>
<text xml:space="preserve" text-anchor="middle" x="1683.19" y="-637.85" font-family="Helvetica,sans-Serif" font-size="12.00" fill="#f8fafc">product, cart, account,</text>
<text xml:space="preserve" text-anchor="middle" x="1683.19" y="-625.1" font-family="Helvetica,sans-Serif" font-size="12.00" fill="#f8fafc">importance, severity</text>
</g>
<!-- action_taxonomy&#45;&gt;faro_attrs -->
<g id="edge2" class="edge">
<title>action_taxonomy&#45;&gt;faro_attrs</title>
<path fill="none" stroke="#94a3b8" d="M1436.45,-685.93C1488.33,-678.19 1550.46,-668.91 1599.27,-661.63"/>
<polygon fill="#94a3b8" stroke="#94a3b8" points="1599.38,-664.26 1606.41,-660.56 1598.61,-659.07 1599.38,-664.26"/>
<text xml:space="preserve" text-anchor="middle" x="1509.69" y="-681.66" font-family="Helvetica,sans-Serif" font-size="10.00" fill="#f8fafc">adds attributes</text>
</g>
<!-- contract_rule -->
<g id="node15" class="node">
<title>contract_rule</title>
<path fill="#164e63" stroke="#22d3ee" stroke-width="2" d="M567.31,-167.51C567.31,-167.51 409.09,-167.51 409.09,-167.51 403.09,-167.51 397.09,-161.51 397.09,-155.51 397.09,-155.51 397.09,-116.99 397.09,-116.99 397.09,-110.99 403.09,-104.99 409.09,-104.99 409.09,-104.99 567.31,-104.99 567.31,-104.99 573.31,-104.99 579.31,-110.99 579.31,-116.99 579.31,-116.99 579.31,-155.51 579.31,-155.51 579.31,-161.51 573.31,-167.51 567.31,-167.51"/>
<text xml:space="preserve" text-anchor="middle" x="488.2" y="-150.35" font-family="Helvetica,sans-Serif" font-size="12.00" fill="#f8fafc">Contract rule</text>
<text xml:space="preserve" text-anchor="middle" x="488.2" y="-137.6" font-family="Helvetica,sans-Serif" font-size="12.00" fill="#f8fafc">Frontend emits named actions;</text>
<text xml:space="preserve" text-anchor="middle" x="488.2" y="-124.85" font-family="Helvetica,sans-Serif" font-size="12.00" fill="#f8fafc">k6 validates the same names;</text>
<text xml:space="preserve" text-anchor="middle" x="488.2" y="-112.1" font-family="Helvetica,sans-Serif" font-size="12.00" fill="#f8fafc">Grafana proves they arrived.</text>
</g>
<!-- faro_attrs&#45;&gt;contract_rule -->
<g id="edge3" class="edge">
<title>faro_attrs&#45;&gt;contract_rule</title>
<path fill="none" stroke="#94a3b8" d="M1629.53,-617.49C1605.66,-603.1 1582.69,-589.25 1582.69,-589.25 1582.69,-589.25 1551.69,-303.25 1551.69,-303.25 1551.69,-303.25 1436.69,-94.25 1436.69,-94.25 1436.69,-94.25 1197.94,-83 1197.94,-83 1197.94,-83 1077.19,-83 1077.19,-83 1077.19,-83 754.94,-94.25 754.94,-94.25 754.94,-94.25 664.33,-108.57 588.93,-120.49"/>
<polygon fill="#94a3b8" stroke="#94a3b8" points="588.78,-117.85 581.78,-121.62 589.6,-123.04 588.78,-117.85"/>
<text xml:space="preserve" text-anchor="middle" x="1137.56" y="-84.75" font-family="Helvetica,sans-Serif" font-size="10.00" fill="#f8fafc">contract</text>
</g>
<!-- synthetic_script -->
<g id="node4" class="node">
<title>synthetic_script</title>
<path fill="#713f12" stroke="#fbbf24" d="M225.22,-338.76C225.22,-338.76 28,-338.76 28,-338.76 22,-338.76 16,-332.76 16,-326.76 16,-326.76 16,-313.74 16,-313.74 16,-307.74 22,-301.74 28,-301.74 28,-301.74 225.22,-301.74 225.22,-301.74 231.22,-301.74 237.22,-307.74 237.22,-313.74 237.22,-313.74 237.22,-326.76 237.22,-326.76 237.22,-332.76 231.22,-338.76 225.22,-338.76"/>
<text xml:space="preserve" text-anchor="middle" x="126.61" y="-321.6" font-family="Helvetica,sans-Serif" font-size="12.00" fill="#f8fafc">load&#45;tests/synthetic&#45;browser&#45;actions.js</text>
<text xml:space="preserve" text-anchor="middle" x="126.61" y="-308.85" font-family="Helvetica,sans-Serif" font-size="12.00" fill="#f8fafc">Chromium storefront journey</text>
</g>
<!-- dom_probe -->
<g id="node5" class="node">
<title>dom_probe</title>
<path fill="#78350f" stroke="#fbbf24" d="M574.44,-362.13C574.44,-362.13 401.97,-362.13 401.97,-362.13 395.97,-362.13 389.97,-356.13 389.97,-350.13 389.97,-350.13 389.97,-324.37 389.97,-324.37 389.97,-318.37 395.97,-312.37 401.97,-312.37 401.97,-312.37 574.44,-312.37 574.44,-312.37 580.44,-312.37 586.44,-318.37 586.44,-324.37 586.44,-324.37 586.44,-350.13 586.44,-350.13 586.44,-356.13 580.44,-362.13 574.44,-362.13"/>
<text xml:space="preserve" text-anchor="middle" x="488.2" y="-344.98" font-family="Helvetica,sans-Serif" font-size="12.00" fill="#f8fafc">Reads action selectors</text>
<text xml:space="preserve" text-anchor="middle" x="488.2" y="-332.23" font-family="Helvetica,sans-Serif" font-size="12.00" fill="#f8fafc">records window.__k6UserActions</text>
<text xml:space="preserve" text-anchor="middle" x="488.2" y="-319.48" font-family="Helvetica,sans-Serif" font-size="12.00" fill="#f8fafc">validates localized UI copy</text>
</g>
<!-- synthetic_script&#45;&gt;dom_probe -->
<g id="edge5" class="edge">
<title>synthetic_script&#45;&gt;dom_probe</title>
<path fill="none" stroke="#94a3b8" d="M237.45,-325.44C282.96,-327.59 335.54,-330.08 380.69,-332.21"/>
<polygon fill="#94a3b8" stroke="#94a3b8" points="380.49,-334.83 388.11,-332.57 380.74,-329.59 380.49,-334.83"/>
<text xml:space="preserve" text-anchor="middle" x="313.59" y="-332.52" font-family="Helvetica,sans-Serif" font-size="10.00" fill="#f8fafc">browser executes UI</text>
</g>
<!-- spike_load -->
<g id="node9" class="node">
<title>spike_load</title>
<path fill="#7c2d12" stroke="#fb923c" d="M996.55,-247.13C996.55,-247.13 804.58,-247.13 804.58,-247.13 798.58,-247.13 792.58,-241.13 792.58,-235.13 792.58,-235.13 792.58,-209.37 792.58,-209.37 792.58,-203.37 798.58,-197.37 804.58,-197.37 804.58,-197.37 996.55,-197.37 996.55,-197.37 1002.55,-197.37 1008.55,-203.37 1008.55,-209.37 1008.55,-209.37 1008.55,-235.13 1008.55,-235.13 1008.55,-241.13 1002.55,-247.13 996.55,-247.13"/>
<text xml:space="preserve" text-anchor="middle" x="900.56" y="-229.97" font-family="Helvetica,sans-Serif" font-size="12.00" fill="#f8fafc">grafana&#45;cloud&#45;traffic&#45;spikes.js</text>
<text xml:space="preserve" text-anchor="middle" x="900.56" y="-217.22" font-family="Helvetica,sans-Serif" font-size="12.00" fill="#f8fafc">traffic_spikes + regional_shoppers</text>
<text xml:space="preserve" text-anchor="middle" x="900.56" y="-204.47" font-family="Helvetica,sans-Serif" font-size="12.00" fill="#f8fafc">api_request_rate + storefront_actions</text>
</g>
<!-- synthetic_script&#45;&gt;spike_load -->
<g id="edge10" class="edge">
<title>synthetic_script&#45;&gt;spike_load</title>
<path fill="none" stroke="#94a3b8" d="M237.35,-304.67C309.25,-294.46 389.97,-283 389.97,-283 389.97,-283 632.83,-254.05 783.24,-236.12"/>
<polygon fill="#94a3b8" stroke="#94a3b8" points="783.48,-238.73 790.61,-235.24 782.85,-233.52 783.48,-238.73"/>
<text xml:space="preserve" text-anchor="middle" x="488.2" y="-284.75" font-family="Helvetica,sans-Serif" font-size="10.00" fill="#f8fafc">imported as storefront_actions</text>
</g>
<!-- synthetic_assertions -->
<g id="node6" class="node">
<title>synthetic_assertions</title>
<path fill="#111827" stroke="none" d="M1034.19,-545.12C1034.19,-545.12 766.94,-545.12 766.94,-545.12 760.94,-545.12 754.94,-539.12 754.94,-533.12 754.94,-533.12 754.94,-411.38 754.94,-411.38 754.94,-405.38 760.94,-399.38 766.94,-399.38 766.94,-399.38 1034.19,-399.38 1034.19,-399.38 1040.19,-399.38 1046.19,-405.38 1046.19,-411.38 1046.19,-411.38 1046.19,-533.12 1046.19,-533.12 1046.19,-539.12 1040.19,-545.12 1034.19,-545.12"/>
<polygon fill="#1e3a5f" stroke="none" points="755.94,-515.38 755.94,-544.12 1045.19,-544.12 1045.19,-515.38 755.94,-515.38"/>
<polygon fill="none" stroke="#475569" points="755.94,-515.38 755.94,-544.12 1045.19,-544.12 1045.19,-515.38 755.94,-515.38"/>
<text xml:space="preserve" text-anchor="start" x="841.31" y="-525.73" font-family="Helvetica,sans-Serif" font-weight="bold" font-size="12.00" fill="#f8fafc">Coverage assertions</text>
<polygon fill="#111827" stroke="none" points="755.94,-486.62 755.94,-515.38 825.19,-515.38 825.19,-486.62 755.94,-486.62"/>
<polygon fill="none" stroke="#475569" points="755.94,-486.62 755.94,-515.38 825.19,-515.38 825.19,-486.62 755.94,-486.62"/>
<text xml:space="preserve" text-anchor="start" x="763.94" y="-497.62" font-family="Helvetica,sans-Serif" font-size="12.00" fill="#f8fafc">selectors</text>
<polygon fill="#1e293b" stroke="none" points="825.19,-486.62 825.19,-515.38 1045.19,-515.38 1045.19,-486.62 825.19,-486.62"/>
<polygon fill="none" stroke="#475569" points="825.19,-486.62 825.19,-515.38 1045.19,-515.38 1045.19,-486.62 825.19,-486.62"/>
<text xml:space="preserve" text-anchor="start" x="842.19" y="-497.62" font-family="Helvetica,sans-Serif" font-size="12.00" fill="#f8fafc">every expected button/action exists</text>
<polygon fill="#111827" stroke="none" points="755.94,-457.88 755.94,-486.62 825.19,-486.62 825.19,-457.88 755.94,-457.88"/>
<polygon fill="none" stroke="#475569" points="755.94,-457.88 755.94,-486.62 825.19,-486.62 825.19,-457.88 755.94,-457.88"/>
<text xml:space="preserve" text-anchor="start" x="763.94" y="-468.88" font-family="Helvetica,sans-Serif" font-size="12.00" fill="#f8fafc">cart</text>
<polygon fill="#1e293b" stroke="none" points="825.19,-457.88 825.19,-486.62 1045.19,-486.62 1045.19,-457.88 825.19,-457.88"/>
<polygon fill="none" stroke="#475569" points="825.19,-457.88 825.19,-486.62 1045.19,-486.62 1045.19,-457.88 825.19,-457.88"/>
<text xml:space="preserve" text-anchor="start" x="839.94" y="-468.88" font-family="Helvetica,sans-Serif" font-size="12.00" fill="#f8fafc">add, remove, checkout, dialog close</text>
<polygon fill="#111827" stroke="none" points="755.94,-429.12 755.94,-457.88 825.19,-457.88 825.19,-429.12 755.94,-429.12"/>
<polygon fill="none" stroke="#475569" points="755.94,-429.12 755.94,-457.88 825.19,-457.88 825.19,-429.12 755.94,-429.12"/>
<text xml:space="preserve" text-anchor="start" x="763.94" y="-440.12" font-family="Helvetica,sans-Serif" font-size="12.00" fill="#f8fafc">region</text>
<polygon fill="#1e293b" stroke="none" points="825.19,-429.12 825.19,-457.88 1045.19,-457.88 1045.19,-429.12 825.19,-429.12"/>
<polygon fill="none" stroke="#475569" points="825.19,-429.12 825.19,-457.88 1045.19,-457.88 1045.19,-429.12 825.19,-429.12"/>
<text xml:space="preserve" text-anchor="start" x="833.19" y="-440.12" font-family="Helvetica,sans-Serif" font-size="12.00" fill="#f8fafc">US, CA, CN, UK, SE language checks</text>
<polygon fill="#111827" stroke="none" points="755.94,-400.38 755.94,-429.12 825.19,-429.12 825.19,-400.38 755.94,-400.38"/>
<polygon fill="none" stroke="#475569" points="755.94,-400.38 755.94,-429.12 825.19,-429.12 825.19,-400.38 755.94,-400.38"/>
<text xml:space="preserve" text-anchor="start" x="763.94" y="-411.38" font-family="Helvetica,sans-Serif" font-size="12.00" fill="#f8fafc">web vitals</text>
<polygon fill="#1e293b" stroke="none" points="825.19,-400.38 825.19,-429.12 1045.19,-429.12 1045.19,-400.38 825.19,-400.38"/>
<polygon fill="none" stroke="#475569" points="825.19,-400.38 825.19,-429.12 1045.19,-429.12 1045.19,-400.38 825.19,-400.38"/>
<text xml:space="preserve" text-anchor="start" x="868.81" y="-411.38" font-family="Helvetica,sans-Serif" font-size="12.00" fill="#f8fafc">LCP and CLS thresholds</text>
<polygon fill="none" stroke="#475569" points="754.94,-399.38 754.94,-545.12 1046.19,-545.12 1046.19,-399.38 754.94,-399.38"/>
</g>
<!-- dom_probe&#45;&gt;synthetic_assertions -->
<g id="edge6" class="edge">
<title>dom_probe&#45;&gt;synthetic_assertions</title>
<path fill="none" stroke="#94a3b8" d="M565.91,-362.48C616.75,-379.21 685.2,-401.73 746.87,-422.02"/>
<polygon fill="#94a3b8" stroke="#94a3b8" points="745.75,-424.41 753.69,-424.26 747.39,-419.42 745.75,-424.41"/>
<text xml:space="preserve" text-anchor="middle" x="670.69" y="-414.58" font-family="Helvetica,sans-Serif" font-size="10.00" fill="#f8fafc">checks behavior</text>
</g>
<!-- synthetic_counters -->
<g id="node7" class="node">
<title>synthetic_counters</title>
<path fill="#78350f" stroke="#fbbf24" d="M981.92,-363.51C981.92,-363.51 819.2,-363.51 819.2,-363.51 813.2,-363.51 807.2,-357.51 807.2,-351.51 807.2,-351.51 807.2,-312.99 807.2,-312.99 807.2,-306.99 813.2,-300.99 819.2,-300.99 819.2,-300.99 981.92,-300.99 981.92,-300.99 987.92,-300.99 993.92,-306.99 993.92,-312.99 993.92,-312.99 993.92,-351.51 993.92,-351.51 993.92,-357.51 987.92,-363.51 981.92,-363.51"/>
<text xml:space="preserve" text-anchor="middle" x="900.56" y="-346.35" font-family="Helvetica,sans-Serif" font-size="12.00" fill="#f8fafc">k6 counters</text>
<text xml:space="preserve" text-anchor="middle" x="900.56" y="-333.6" font-family="Helvetica,sans-Serif" font-size="12.00" fill="#f8fafc">storefront_user_actions</text>
<text xml:space="preserve" text-anchor="middle" x="900.56" y="-320.85" font-family="Helvetica,sans-Serif" font-size="12.00" fill="#f8fafc">storefront_user_action_events</text>
<text xml:space="preserve" text-anchor="middle" x="900.56" y="-308.1" font-family="Helvetica,sans-Serif" font-size="12.00" fill="#f8fafc">cart add/remove/checkout totals</text>
</g>
<!-- dom_probe&#45;&gt;synthetic_counters -->
<g id="edge7" class="edge">
<title>dom_probe&#45;&gt;synthetic_counters</title>
<path fill="none" stroke="#94a3b8" d="M586.71,-336.06C650.44,-335.29 733.51,-334.27 798.03,-333.49"/>
<polygon fill="#94a3b8" stroke="#94a3b8" points="798.02,-336.11 805.49,-333.4 797.96,-330.86 798.02,-336.11"/>
<text xml:space="preserve" text-anchor="middle" x="670.69" y="-337.38" font-family="Helvetica,sans-Serif" font-size="10.00" fill="#f8fafc">counts observed actions</text>
</g>
<!-- k6_cloud -->
<g id="node12" class="node">
<title>k6_cloud</title>
<path fill="#6b21a8" stroke="#c084fc" d="M1394.3,-370.13C1394.3,-370.13 1271.33,-370.13 1271.33,-370.13 1265.33,-370.13 1259.33,-364.13 1259.33,-358.13 1259.33,-358.13 1259.33,-332.37 1259.33,-332.37 1259.33,-326.37 1265.33,-320.37 1271.33,-320.37 1271.33,-320.37 1394.3,-320.37 1394.3,-320.37 1400.3,-320.37 1406.3,-326.37 1406.3,-332.37 1406.3,-332.37 1406.3,-358.13 1406.3,-358.13 1406.3,-364.13 1400.3,-370.13 1394.3,-370.13"/>
<text xml:space="preserve" text-anchor="middle" x="1332.81" y="-352.98" font-family="Helvetica,sans-Serif" font-size="12.00" fill="#f8fafc">Grafana Cloud k6</text>
<text xml:space="preserve" text-anchor="middle" x="1332.81" y="-340.23" font-family="Helvetica,sans-Serif" font-size="12.00" fill="#f8fafc">run metrics, thresholds,</text>
<text xml:space="preserve" text-anchor="middle" x="1332.81" y="-327.48" font-family="Helvetica,sans-Serif" font-size="12.00" fill="#f8fafc">checks, trends, counters</text>
</g>
<!-- synthetic_assertions&#45;&gt;k6_cloud -->
<g id="edge15" class="edge">
<title>synthetic_assertions&#45;&gt;k6_cloud</title>
<path fill="none" stroke="#94a3b8" d="M1046.03,-429.61C1114.2,-409.48 1193.03,-386.22 1250.61,-369.22"/>
<polygon fill="#94a3b8" stroke="#94a3b8" points="1251.04,-371.83 1257.49,-367.19 1249.56,-366.79 1251.04,-371.83"/>
<text xml:space="preserve" text-anchor="middle" x="1137.56" y="-421.88" font-family="Helvetica,sans-Serif" font-size="10.00" fill="#f8fafc">checks</text>
</g>
<!-- load_thresholds -->
<g id="node10" class="node">
<title>load_thresholds</title>
<path fill="#7c2d12" stroke="#fb923c" d="M1402.17,-246.51C1402.17,-246.51 1263.45,-246.51 1263.45,-246.51 1257.45,-246.51 1251.45,-240.51 1251.45,-234.51 1251.45,-234.51 1251.45,-195.99 1251.45,-195.99 1251.45,-189.99 1257.45,-183.99 1263.45,-183.99 1263.45,-183.99 1402.17,-183.99 1402.17,-183.99 1408.17,-183.99 1414.17,-189.99 1414.17,-195.99 1414.17,-195.99 1414.17,-234.51 1414.17,-234.51 1414.17,-240.51 1408.17,-246.51 1402.17,-246.51"/>
<text xml:space="preserve" text-anchor="middle" x="1332.81" y="-229.35" font-family="Helvetica,sans-Serif" font-size="12.00" fill="#f8fafc">Threshold contract</text>
<text xml:space="preserve" text-anchor="middle" x="1332.81" y="-216.6" font-family="Helvetica,sans-Serif" font-size="12.00" fill="#f8fafc">HTTP failure and latency</text>
<text xml:space="preserve" text-anchor="middle" x="1332.81" y="-203.85" font-family="Helvetica,sans-Serif" font-size="12.00" fill="#f8fafc">API request rate</text>
<text xml:space="preserve" text-anchor="middle" x="1332.81" y="-191.1" font-family="Helvetica,sans-Serif" font-size="12.00" fill="#f8fafc">per&#45;action&#45;family event rate</text>
</g>
<!-- synthetic_counters&#45;&gt;load_thresholds -->
<g id="edge13" class="edge">
<title>synthetic_counters&#45;&gt;load_thresholds</title>
<path fill="none" stroke="#94a3b8" d="M994.31,-309.16C1026.27,-301.2 1054.19,-294.25 1054.19,-294.25 1054.19,-294.25 1161.66,-263.67 1242.87,-240.56"/>
<polygon fill="#94a3b8" stroke="#94a3b8" points="1243.19,-243.2 1249.69,-238.62 1241.75,-238.15 1243.19,-243.2"/>
<text xml:space="preserve" text-anchor="middle" x="1137.56" y="-289.24" font-family="Helvetica,sans-Serif" font-size="10.00" fill="#f8fafc">per&#45;action thresholds</text>
</g>
<!-- synthetic_counters&#45;&gt;k6_cloud -->
<g id="edge16" class="edge">
<title>synthetic_counters&#45;&gt;k6_cloud</title>
<path fill="none" stroke="#94a3b8" d="M994.39,-335.05C1070.59,-337.36 1177.45,-340.59 1250.37,-342.79"/>
<polygon fill="#94a3b8" stroke="#94a3b8" points="1250,-345.4 1257.57,-343.01 1250.15,-340.16 1250,-345.4"/>
<text xml:space="preserve" text-anchor="middle" x="1137.56" y="-342.8" font-family="Helvetica,sans-Serif" font-size="10.00" fill="#f8fafc">custom metrics</text>
</g>
<!-- regional_load -->
<g id="node8" class="node">
<title>regional_load</title>
<path fill="#7c2d12" stroke="#fb923c" d="M1011.17,-161.13C1011.17,-161.13 789.95,-161.13 789.95,-161.13 783.95,-161.13 777.95,-155.13 777.95,-149.13 777.95,-149.13 777.95,-123.37 777.95,-123.37 777.95,-117.37 783.95,-111.37 789.95,-111.37 789.95,-111.37 1011.17,-111.37 1011.17,-111.37 1017.17,-111.37 1023.17,-117.37 1023.17,-123.37 1023.17,-123.37 1023.17,-149.13 1023.17,-149.13 1023.17,-155.13 1017.17,-161.13 1011.17,-161.13"/>
<text xml:space="preserve" text-anchor="middle" x="900.56" y="-143.97" font-family="Helvetica,sans-Serif" font-size="12.00" fill="#f8fafc">grafana&#45;cloud&#45;20&#45;user&#45;regional.js</text>
<text xml:space="preserve" text-anchor="middle" x="900.56" y="-131.22" font-family="Helvetica,sans-Serif" font-size="12.00" fill="#f8fafc">API personas with regions</text>
<text xml:space="preserve" text-anchor="middle" x="900.56" y="-118.47" font-family="Helvetica,sans-Serif" font-size="12.00" fill="#f8fafc">headers: X&#45;Region, X&#45;Locale, X&#45;Language</text>
</g>
<!-- regional_load&#45;&gt;load_thresholds -->
<g id="edge11" class="edge">
<title>regional_load&#45;&gt;load_thresholds</title>
<path fill="none" stroke="#94a3b8" d="M1023.42,-158.62C1093.07,-171.41 1178.89,-187.17 1242.31,-198.81"/>
<polygon fill="#94a3b8" stroke="#94a3b8" points="1241.76,-201.38 1249.61,-200.16 1242.71,-196.22 1241.76,-201.38"/>
<text xml:space="preserve" text-anchor="middle" x="1137.56" y="-191.45" font-family="Helvetica,sans-Serif" font-size="10.00" fill="#f8fafc">API behavior</text>
</g>
<!-- spike_load&#45;&gt;load_thresholds -->
<g id="edge12" class="edge">
<title>spike_load&#45;&gt;load_thresholds</title>
<path fill="none" stroke="#94a3b8" d="M1009.03,-220.5C1080.84,-219.33 1174.23,-217.81 1242.07,-216.71"/>
<polygon fill="#94a3b8" stroke="#94a3b8" points="1242.08,-219.34 1249.54,-216.59 1241.99,-214.09 1242.08,-219.34"/>
<text xml:space="preserve" text-anchor="middle" x="1137.56" y="-221.13" font-family="Helvetica,sans-Serif" font-size="10.00" fill="#f8fafc">spike and action rates</text>
</g>
<!-- load_thresholds&#45;&gt;k6_cloud -->
<g id="edge17" class="edge">
<title>load_thresholds&#45;&gt;k6_cloud</title>
<path fill="none" stroke="#94a3b8" d="M1332.81,-246.72C1332.81,-266.27 1332.81,-291.39 1332.81,-311.37"/>
<polygon fill="#94a3b8" stroke="#94a3b8" points="1330.19,-311.14 1332.82,-318.64 1335.44,-311.14 1330.19,-311.14"/>
<text xml:space="preserve" text-anchor="middle" x="1324.19" y="-279.56" font-family="Helvetica,sans-Serif" font-size="10.00" fill="#f8fafc">cloud run results</text>
</g>
<!-- reports -->
<g id="node14" class="node">
<title>reports</title>
<path fill="#111827" stroke="none" d="M1771.69,-482.12C1771.69,-482.12 1594.69,-482.12 1594.69,-482.12 1588.69,-482.12 1582.69,-476.12 1582.69,-470.12 1582.69,-470.12 1582.69,-348.38 1582.69,-348.38 1582.69,-342.38 1588.69,-336.38 1594.69,-336.38 1594.69,-336.38 1771.69,-336.38 1771.69,-336.38 1777.69,-336.38 1783.69,-342.38 1783.69,-348.38 1783.69,-348.38 1783.69,-470.12 1783.69,-470.12 1783.69,-476.12 1777.69,-482.12 1771.69,-482.12"/>
<polygon fill="#1e3a5f" stroke="none" points="1583.69,-452.38 1583.69,-481.12 1782.69,-481.12 1782.69,-452.38 1583.69,-452.38"/>
<polygon fill="none" stroke="#475569" points="1583.69,-452.38 1583.69,-481.12 1782.69,-481.12 1782.69,-452.38 1583.69,-452.38"/>
<text xml:space="preserve" text-anchor="start" x="1631.06" y="-462.73" font-family="Helvetica,sans-Serif" font-weight="bold" font-size="12.00" fill="#f8fafc">Post&#45;run evidence</text>
<polygon fill="#111827" stroke="none" points="1583.69,-423.62 1583.69,-452.38 1782.69,-452.38 1782.69,-423.62 1583.69,-423.62"/>
<polygon fill="none" stroke="#475569" points="1583.69,-423.62 1583.69,-452.38 1782.69,-452.38 1782.69,-423.62 1583.69,-423.62"/>
<text xml:space="preserve" text-anchor="start" x="1591.69" y="-434.62" font-family="Helvetica,sans-Serif" font-size="12.00" fill="#f8fafc">scripts/report&#45;faro&#45;user&#45;actions.mjs</text>
<polygon fill="#111827" stroke="none" points="1583.69,-394.88 1583.69,-423.62 1782.69,-423.62 1782.69,-394.88 1583.69,-394.88"/>
<polygon fill="none" stroke="#475569" points="1583.69,-394.88 1583.69,-423.62 1782.69,-423.62 1782.69,-394.88 1583.69,-394.88"/>
<text xml:space="preserve" text-anchor="start" x="1591.69" y="-405.88" font-family="Helvetica,sans-Serif" font-size="12.00" fill="#f8fafc">scripts/report&#45;load&#45;tests.mjs</text>
<polygon fill="#111827" stroke="none" points="1583.69,-366.12 1583.69,-394.88 1782.69,-394.88 1782.69,-366.12 1583.69,-366.12"/>
<polygon fill="none" stroke="#475569" points="1583.69,-366.12 1583.69,-394.88 1782.69,-394.88 1782.69,-366.12 1583.69,-366.12"/>
<text xml:space="preserve" text-anchor="start" x="1591.69" y="-377.12" font-family="Helvetica,sans-Serif" font-size="12.00" fill="#f8fafc">reports/frontend&#45;user&#45;actions/</text>
<polygon fill="#111827" stroke="none" points="1583.69,-337.38 1583.69,-366.12 1782.69,-366.12 1782.69,-337.38 1583.69,-337.38"/>
<polygon fill="none" stroke="#475569" points="1583.69,-337.38 1583.69,-366.12 1782.69,-366.12 1782.69,-337.38 1583.69,-337.38"/>
<text xml:space="preserve" text-anchor="start" x="1591.69" y="-348.38" font-family="Helvetica,sans-Serif" font-size="12.00" fill="#f8fafc">reports/load&#45;tests/comparison/</text>
<polygon fill="none" stroke="#475569" points="1582.69,-336.38 1582.69,-482.12 1783.69,-482.12 1783.69,-336.38 1582.69,-336.38"/>
</g>
<!-- faro_cloud&#45;&gt;reports -->
<g id="edge19" class="edge">
<title>faro_cloud&#45;&gt;reports</title>
<path fill="none" stroke="#94a3b8" d="M1417.7,-425.95C1464.62,-422.99 1523.61,-419.26 1573.97,-416.08"/>
<polygon fill="#94a3b8" stroke="#94a3b8" points="1574.11,-418.71 1581.43,-415.61 1573.78,-413.47 1574.11,-418.71"/>
<text xml:space="preserve" text-anchor="middle" x="1509.69" y="-423.97" font-family="Helvetica,sans-Serif" font-size="10.00" fill="#f8fafc">LogQL action totals</text>
</g>
<!-- k6_cloud&#45;&gt;reports -->
<g id="edge20" class="edge">
<title>k6_cloud&#45;&gt;reports</title>
<path fill="none" stroke="#94a3b8" d="M1406.42,-358.59C1454.97,-367.51 1519.71,-379.4 1574.26,-389.42"/>
<polygon fill="#94a3b8" stroke="#94a3b8" points="1573.58,-391.97 1581.43,-390.74 1574.53,-386.8 1573.58,-391.97"/>
<text xml:space="preserve" text-anchor="middle" x="1509.69" y="-386.61" font-family="Helvetica,sans-Serif" font-size="10.00" fill="#f8fafc">run summaries</text>
</g>
<!-- synthetic_monitoring -->
<g id="node13" class="node">
<title>synthetic_monitoring</title>
<path fill="#6b21a8" stroke="#c084fc" d="M1419.42,-542.13C1419.42,-542.13 1246.2,-542.13 1246.2,-542.13 1240.2,-542.13 1234.2,-536.13 1234.2,-530.13 1234.2,-530.13 1234.2,-504.37 1234.2,-504.37 1234.2,-498.37 1240.2,-492.37 1246.2,-492.37 1246.2,-492.37 1419.42,-492.37 1419.42,-492.37 1425.42,-492.37 1431.42,-498.37 1431.42,-504.37 1431.42,-504.37 1431.42,-530.13 1431.42,-530.13 1431.42,-536.13 1425.42,-542.13 1419.42,-542.13"/>
<text xml:space="preserve" text-anchor="middle" x="1332.81" y="-524.98" font-family="Helvetica,sans-Serif" font-size="12.00" fill="#f8fafc">Grafana Synthetic Monitoring</text>
<text xml:space="preserve" text-anchor="middle" x="1332.81" y="-512.23" font-family="Helvetica,sans-Serif" font-size="12.00" fill="#f8fafc">HTTP, DNS, Ping, TCP checks</text>
<text xml:space="preserve" text-anchor="middle" x="1332.81" y="-499.48" font-family="Helvetica,sans-Serif" font-size="12.00" fill="#f8fafc">uptime, TLS, response, resolution</text>
</g>
<!-- synthetic_monitoring&#45;&gt;app_js -->
<g id="edge21" class="edge">
<title>synthetic_monitoring&#45;&gt;app_js</title>
<path fill="none" stroke="#60a5fa" stroke-dasharray="5,2" d="M1238.21,-542.54C1157.61,-564.31 1054.19,-592.25 1054.19,-592.25 1054.19,-592.25 1024.25,-598.53 990.89,-605.52"/>
<polygon fill="#60a5fa" stroke="#60a5fa" points="990.63,-602.89 983.83,-607 991.71,-608.03 990.63,-602.89"/>
<text xml:space="preserve" text-anchor="middle" x="1137.56" y="-587.58" font-family="Helvetica,sans-Serif" font-size="10.00" fill="#f8fafc">site/API reachable?</text>
</g>
<!-- synthetic_monitoring&#45;&gt;reports -->
<g id="edge18" class="edge">
<title>synthetic_monitoring&#45;&gt;reports</title>
<path fill="none" stroke="#94a3b8" d="M1415.49,-491.93C1462.83,-477.25 1523.02,-458.6 1574.23,-442.72"/>
<polygon fill="#94a3b8" stroke="#94a3b8" points="1574.86,-445.27 1581.25,-440.54 1573.31,-440.26 1574.86,-445.27"/>
<text xml:space="preserve" text-anchor="middle" x="1509.69" y="-474.67" font-family="Helvetica,sans-Serif" font-size="10.00" fill="#f8fafc">availability context</text>
</g>
<!-- reports&#45;&gt;contract_rule -->
<g id="edge22" class="edge">
<title>reports&#45;&gt;contract_rule</title>
<path fill="none" stroke="#60a5fa" stroke-dasharray="5,2" d="M1657.34,-336.69C1619.47,-226.15 1551.69,-28.25 1551.69,-28.25 1551.69,-28.25 1197.94,0 1197.94,0 1197.94,0 1077.19,0 1077.19,0 1077.19,0 617.44,-28.25 617.44,-28.25 617.44,-28.25 571.08,-67.29 534.11,-98.43"/>
<polygon fill="#60a5fa" stroke="#60a5fa" points="532.54,-96.32 528.49,-103.16 535.92,-100.34 532.54,-96.32"/>
<text xml:space="preserve" text-anchor="middle" x="1137.56" y="-1.75" font-family="Helvetica,sans-Serif" font-size="10.00" fill="#f8fafc">gaps drive contract updates</text>
</g>
<!-- contract_rule&#45;&gt;synthetic_script -->
<g id="edge4" class="edge">
<title>contract_rule&#45;&gt;synthetic_script</title>
<path fill="none" stroke="#94a3b8" d="M396.24,-166.47C336.07,-186.46 268.22,-209 268.22,-209 268.22,-209 199.73,-263.19 158.35,-295.93"/>
<polygon fill="#94a3b8" stroke="#94a3b8" points="156.9,-293.73 152.65,-300.44 160.16,-297.84 156.9,-293.73"/>
<text xml:space="preserve" text-anchor="middle" x="313.59" y="-210.75" font-family="Helvetica,sans-Serif" font-size="10.00" fill="#f8fafc">selector coverage</text>
</g>
<!-- contract_rule&#45;&gt;regional_load -->
<g id="edge8" class="edge">
<title>contract_rule&#45;&gt;regional_load</title>
<path fill="none" stroke="#94a3b8" d="M580.28,-136.25C635.64,-136.25 707.26,-136.25 768.63,-136.25"/>
<polygon fill="#94a3b8" stroke="#94a3b8" points="768.59,-138.88 776.09,-136.25 768.59,-133.63 768.59,-138.88"/>
<text xml:space="preserve" text-anchor="middle" x="670.69" y="-138" font-family="Helvetica,sans-Serif" font-size="10.00" fill="#f8fafc">region and API context</text>
</g>
<!-- contract_rule&#45;&gt;spike_load -->
<g id="edge9" class="edge">
<title>contract_rule&#45;&gt;spike_load</title>
<path fill="none" stroke="#94a3b8" d="M580.28,-155.34C640.27,-167.91 719.36,-184.48 783.81,-197.99"/>
<polygon fill="#94a3b8" stroke="#94a3b8" points="783.04,-200.51 790.92,-199.48 784.11,-195.37 783.04,-200.51"/>
<text xml:space="preserve" text-anchor="middle" x="670.69" y="-186.15" font-family="Helvetica,sans-Serif" font-size="10.00" fill="#f8fafc">browser action scenario</text>
</g>
</g>
</svg>
