<?xml version="1.0" encoding="UTF-8" standalone="no"?>
<!DOCTYPE svg PUBLIC "-//W3C//DTD SVG 1.1//EN"
 "http://www.w3.org/Graphics/SVG/1.1/DTD/svg11.dtd">
<!-- Generated by graphviz version 15.0.0 (20260523.1842)
 -->
<!-- Title: faro_k6_contract_relationships Pages: 1 -->
<svg width="1897pt" height="988pt"
 viewBox="0.00 0.00 1897.00 988.00" xmlns="http://www.w3.org/2000/svg" xmlns:xlink="http://www.w3.org/1999/xlink">
<g id="graph0" class="graph" transform="scale(1 1) rotate(0) translate(25.2 962.95)">
<title>faro_k6_contract_relationships</title>
<polygon fill="#0b1220" stroke="none" points="-25.2,25.2 -25.2,-962.95 1872.14,-962.95 1872.14,25.2 -25.2,25.2"/>
<text xml:space="preserve" text-anchor="middle" x="923.47" y="-912.85" font-family="Helvetica,sans-Serif" font-size="22.00" fill="#f8fafc">Faro User Action Contract, k6 Load Tests, and Synthetic Checks</text>
<g id="clust1" class="cluster">
<title>cluster_contract</title>
<path fill="#0b1220" stroke="#475569" stroke-dasharray="5,2" d="M846.83,-649.25C846.83,-649.25 1801.42,-649.25 1801.42,-649.25 1807.42,-649.25 1813.42,-655.25 1813.42,-661.25 1813.42,-661.25 1813.42,-887.25 1813.42,-887.25 1813.42,-893.25 1807.42,-899.25 1801.42,-899.25 1801.42,-899.25 846.83,-899.25 846.83,-899.25 840.83,-899.25 834.83,-893.25 834.83,-887.25 834.83,-887.25 834.83,-661.25 834.83,-661.25 834.83,-655.25 840.83,-649.25 846.83,-649.25"/>
<text xml:space="preserve" text-anchor="middle" x="1324.13" y="-874.35" font-family="Helvetica,sans-Serif" font-size="22.00" fill="#f8fafc">1. Frontend action contract</text>
</g>
<g id="clust2" class="cluster">
<title>cluster_browser_check</title>
<path fill="#0b1220" stroke="#475569" stroke-dasharray="5,2" d="M20,-293.25C20,-293.25 1089.44,-293.25 1089.44,-293.25 1095.44,-293.25 1101.44,-299.25 1101.44,-305.25 1101.44,-305.25 1101.44,-629.25 1101.44,-629.25 1101.44,-635.25 1095.44,-641.25 1089.44,-641.25 1089.44,-641.25 20,-641.25 20,-641.25 14,-641.25 8,-635.25 8,-629.25 8,-629.25 8,-305.25 8,-305.25 8,-299.25 14,-293.25 20,-293.25"/>
<text xml:space="preserve" text-anchor="middle" x="554.72" y="-616.35" font-family="Helvetica,sans-Serif" font-size="22.00" fill="#f8fafc">2. k6 synthetic browser action check</text>
</g>
<g id="clust3" class="cluster">
<title>cluster_load_test</title>
<path fill="#0b1220" stroke="#475569" stroke-dasharray="5,2" d="M805.58,-103.25C805.58,-103.25 1457.42,-103.25 1457.42,-103.25 1463.42,-103.25 1469.42,-109.25 1469.42,-115.25 1469.42,-115.25 1469.42,-273.25 1469.42,-273.25 1469.42,-279.25 1463.42,-285.25 1457.42,-285.25 1457.42,-285.25 805.58,-285.25 805.58,-285.25 799.58,-285.25 793.58,-279.25 793.58,-273.25 793.58,-273.25 793.58,-115.25 793.58,-115.25 793.58,-109.25 799.58,-103.25 805.58,-103.25"/>
<text xml:space="preserve" text-anchor="middle" x="1131.5" y="-260.35" font-family="Helvetica,sans-Serif" font-size="22.00" fill="#f8fafc">3. k6 load and traffic&#45;spike benchmarks</text>
</g>
<g id="clust4" class="cluster">
<title>cluster_grafana_evidence</title>
<path fill="#0b1220" stroke="#475569" stroke-dasharray="5,2" d="M1285.45,-341.25C1285.45,-341.25 1826.94,-341.25 1826.94,-341.25 1832.94,-341.25 1838.94,-347.25 1838.94,-353.25 1838.94,-353.25 1838.94,-597.25 1838.94,-597.25 1838.94,-603.25 1832.94,-609.25 1826.94,-609.25 1826.94,-609.25 1285.45,-609.25 1285.45,-609.25 1279.45,-609.25 1273.45,-603.25 1273.45,-597.25 1273.45,-597.25 1273.45,-353.25 1273.45,-353.25 1273.45,-347.25 1279.45,-341.25 1285.45,-341.25"/>
<text xml:space="preserve" text-anchor="middle" x="1556.2" y="-584.35" font-family="Helvetica,sans-Serif" font-size="22.00" fill="#f8fafc">4. Grafana evidence and reporting</text>
</g>
<!-- app_js -->
<g id="node1" class="node">
<title>app_js</title>
<path fill="#312e81" stroke="#a5b4fc" d="M993.55,-707.13C993.55,-707.13 854.83,-707.13 854.83,-707.13 848.83,-707.13 842.83,-701.13 842.83,-695.13 842.83,-695.13 842.83,-669.37 842.83,-669.37 842.83,-663.37 848.83,-657.37 854.83,-657.37 854.83,-657.37 993.55,-657.37 993.55,-657.37 999.55,-657.37 1005.55,-663.37 1005.55,-669.37 1005.55,-669.37 1005.55,-695.13 1005.55,-695.13 1005.55,-701.13 999.55,-707.13 993.55,-707.13"/>
<text xml:space="preserve" text-anchor="middle" x="924.19" y="-689.98" font-family="Helvetica,sans-Serif" font-size="12.00" fill="#f8fafc">frontend/src/App.jsx</text>
<text xml:space="preserve" text-anchor="middle" x="924.19" y="-677.23" font-family="Helvetica,sans-Serif" font-size="12.00" fill="#f8fafc">trackAppAction()</text>
<text xml:space="preserve" text-anchor="middle" x="924.19" y="-664.48" font-family="Helvetica,sans-Serif" font-size="12.00" fill="#f8fafc">data&#45;faro&#45;user&#45;action&#45;name</text>
</g>
<!-- action_taxonomy -->
<g id="node2" class="node">
<title>action_taxonomy</title>
<path fill="#111827" stroke="none" d="M1471.94,-860.88C1471.94,-860.88 1288.19,-860.88 1288.19,-860.88 1282.19,-860.88 1276.19,-854.88 1276.19,-848.88 1276.19,-848.88 1276.19,-669.62 1276.19,-669.62 1276.19,-663.62 1282.19,-657.62 1288.19,-657.62 1288.19,-657.62 1471.94,-657.62 1471.94,-657.62 1477.94,-657.62 1483.94,-663.62 1483.94,-669.62 1483.94,-669.62 1483.94,-848.88 1483.94,-848.88 1483.94,-854.88 1477.94,-860.88 1471.94,-860.88"/>
<polygon fill="#1e3a5f" stroke="none" points="1277.19,-831.12 1277.19,-859.88 1482.94,-859.88 1482.94,-831.12 1277.19,-831.12"/>
<polygon fill="none" stroke="#475569" points="1277.19,-831.12 1277.19,-859.88 1482.94,-859.88 1482.94,-831.12 1277.19,-831.12"/>
<text xml:space="preserve" text-anchor="start" x="1319.69" y="-841.48" font-family="Helvetica,sans-Serif" font-weight="bold" font-size="12.00" fill="#f8fafc">Stable action families</text>
<polygon fill="#111827" stroke="none" points="1277.19,-802.38 1277.19,-831.12 1482.94,-831.12 1482.94,-802.38 1277.19,-802.38"/>
<polygon fill="none" stroke="#475569" points="1277.19,-802.38 1277.19,-831.12 1482.94,-831.12 1482.94,-802.38 1277.19,-802.38"/>
<text xml:space="preserve" text-anchor="start" x="1285.19" y="-813.38" font-family="Helvetica,sans-Serif" font-size="12.00" fill="#f8fafc">navigation and sale banner</text>
<polygon fill="#111827" stroke="none" points="1277.19,-773.62 1277.19,-802.38 1482.94,-802.38 1482.94,-773.62 1277.19,-773.62"/>
<polygon fill="none" stroke="#475569" points="1277.19,-773.62 1277.19,-802.38 1482.94,-802.38 1482.94,-773.62 1277.19,-773.62"/>
<text xml:space="preserve" text-anchor="start" x="1285.19" y="-784.62" font-family="Helvetica,sans-Serif" font-size="12.00" fill="#f8fafc">department, category, sort, search</text>
<polygon fill="#111827" stroke="none" points="1277.19,-744.88 1277.19,-773.62 1482.94,-773.62 1482.94,-744.88 1277.19,-744.88"/>
<polygon fill="none" stroke="#475569" points="1277.19,-744.88 1277.19,-773.62 1482.94,-773.62 1482.94,-744.88 1277.19,-744.88"/>
<text xml:space="preserve" text-anchor="start" x="1285.19" y="-755.88" font-family="Helvetica,sans-Serif" font-size="12.00" fill="#f8fafc">region and language selection</text>
<polygon fill="#111827" stroke="none" points="1277.19,-716.12 1277.19,-744.88 1482.94,-744.88 1482.94,-716.12 1277.19,-716.12"/>
<polygon fill="none" stroke="#475569" points="1277.19,-716.12 1277.19,-744.88 1482.94,-744.88 1482.94,-716.12 1277.19,-716.12"/>
<text xml:space="preserve" text-anchor="start" x="1285.19" y="-727.12" font-family="Helvetica,sans-Serif" font-size="12.00" fill="#f8fafc">product detail and sale views</text>
<polygon fill="#111827" stroke="none" points="1277.19,-687.38 1277.19,-716.12 1482.94,-716.12 1482.94,-687.38 1277.19,-687.38"/>
<polygon fill="none" stroke="#475569" points="1277.19,-687.38 1277.19,-716.12 1482.94,-716.12 1482.94,-687.38 1277.19,-687.38"/>
<text xml:space="preserve" text-anchor="start" x="1285.19" y="-698.38" font-family="Helvetica,sans-Serif" font-size="12.00" fill="#dcfce7">cart add, quantity, remove, checkout</text>
<polygon fill="#111827" stroke="none" points="1277.19,-658.62 1277.19,-687.38 1482.94,-687.38 1482.94,-658.62 1277.19,-658.62"/>
<polygon fill="none" stroke="#475569" points="1277.19,-658.62 1277.19,-687.38 1482.94,-687.38 1482.94,-658.62 1277.19,-658.62"/>
<text xml:space="preserve" text-anchor="start" x="1285.19" y="-669.62" font-family="Helvetica,sans-Serif" font-size="12.00" fill="#f8fafc">account save and Google auth</text>
<polygon fill="none" stroke="#475569" points="1276.19,-657.62 1276.19,-860.88 1483.94,-860.88 1483.94,-657.62 1276.19,-657.62"/>
</g>
<!-- app_js&#45;&gt;action_taxonomy -->
<g id="edge1" class="edge">
<title>app_js&#45;&gt;action_taxonomy</title>
<path fill="none" stroke="#94a3b8" d="M1005.81,-695.93C1078.69,-708.29 1186.65,-726.61 1267.74,-740.36"/>
<polygon fill="#94a3b8" stroke="#94a3b8" points="1267.17,-742.93 1275.01,-741.6 1268.05,-737.75 1267.17,-742.93"/>
<text xml:space="preserve" text-anchor="middle" x="1184.81" y="-738.25" font-family="Helvetica,sans-Serif" font-size="10.00" fill="#f8fafc">defines names</text>
</g>
<!-- faro_cloud -->
<g id="node11" class="node">
<title>faro_cloud</title>
<path fill="#6b21a8" stroke="#c084fc" d="M1452.8,-485.13C1452.8,-485.13 1307.33,-485.13 1307.33,-485.13 1301.33,-485.13 1295.33,-479.13 1295.33,-473.13 1295.33,-473.13 1295.33,-447.37 1295.33,-447.37 1295.33,-441.37 1301.33,-435.37 1307.33,-435.37 1307.33,-435.37 1452.8,-435.37 1452.8,-435.37 1458.8,-435.37 1464.8,-441.37 1464.8,-447.37 1464.8,-447.37 1464.8,-473.13 1464.8,-473.13 1464.8,-479.13 1458.8,-485.13 1452.8,-485.13"/>
<text xml:space="preserve" text-anchor="middle" x="1380.06" y="-467.98" font-family="Helvetica,sans-Serif" font-size="12.00" fill="#f8fafc">Grafana Faro collector</text>
<text xml:space="preserve" text-anchor="middle" x="1380.06" y="-455.23" font-family="Helvetica,sans-Serif" font-size="12.00" fill="#f8fafc">faro.user.action events</text>
<text xml:space="preserve" text-anchor="middle" x="1380.06" y="-442.48" font-family="Helvetica,sans-Serif" font-size="12.00" fill="#f8fafc">frontend sessions and errors</text>
</g>
<!-- app_js&#45;&gt;faro_cloud -->
<g id="edge14" class="edge">
<title>app_js&#45;&gt;faro_cloud</title>
<path fill="none" stroke="#94a3b8" d="M1005.84,-667.61C1052.24,-659.18 1101.44,-650.25 1101.44,-650.25 1101.44,-650.25 1124.44,-578 1124.44,-578 1124.44,-578 1273.45,-503.25 1273.45,-503.25 1273.45,-503.25 1289.35,-496.78 1308.81,-488.86"/>
<polygon fill="#94a3b8" stroke="#94a3b8" points="1309.66,-491.34 1315.62,-486.08 1307.68,-486.48 1309.66,-491.34"/>
<text xml:space="preserve" text-anchor="middle" x="1184.81" y="-579.75" font-family="Helvetica,sans-Serif" font-size="10.00" fill="#f8fafc">pushEvent</text>
</g>
<!-- faro_attrs -->
<g id="node3" class="node">
<title>faro_attrs</title>
<path fill="#581c87" stroke="#c084fc" d="M1793.42,-738.51C1793.42,-738.51 1667.45,-738.51 1667.45,-738.51 1661.45,-738.51 1655.45,-732.51 1655.45,-726.51 1655.45,-726.51 1655.45,-687.99 1655.45,-687.99 1655.45,-681.99 1661.45,-675.99 1667.45,-675.99 1667.45,-675.99 1793.42,-675.99 1793.42,-675.99 1799.42,-675.99 1805.42,-681.99 1805.42,-687.99 1805.42,-687.99 1805.42,-726.51 1805.42,-726.51 1805.42,-732.51 1799.42,-738.51 1793.42,-738.51"/>
<text xml:space="preserve" text-anchor="middle" x="1730.44" y="-721.35" font-family="Helvetica,sans-Serif" font-size="12.00" fill="#f8fafc">Faro action attributes</text>
<text xml:space="preserve" text-anchor="middle" x="1730.44" y="-708.6" font-family="Helvetica,sans-Serif" font-size="12.00" fill="#f8fafc">region, locale, language,</text>
<text xml:space="preserve" text-anchor="middle" x="1730.44" y="-695.85" font-family="Helvetica,sans-Serif" font-size="12.00" fill="#f8fafc">product, cart, account,</text>
<text xml:space="preserve" text-anchor="middle" x="1730.44" y="-683.1" font-family="Helvetica,sans-Serif" font-size="12.00" fill="#f8fafc">importance, severity</text>
</g>
<!-- action_taxonomy&#45;&gt;faro_attrs -->
<g id="edge2" class="edge">
<title>action_taxonomy&#45;&gt;faro_attrs</title>
<path fill="none" stroke="#94a3b8" d="M1483.7,-743.93C1535.58,-736.19 1597.71,-726.91 1646.52,-719.63"/>
<polygon fill="#94a3b8" stroke="#94a3b8" points="1646.63,-722.26 1653.66,-718.56 1645.86,-717.07 1646.63,-722.26"/>
<text xml:space="preserve" text-anchor="middle" x="1556.94" y="-739.66" font-family="Helvetica,sans-Serif" font-size="10.00" fill="#f8fafc">adds attributes</text>
</g>
<!-- contract_rule -->
<g id="node15" class="node">
<title>contract_rule</title>
<path fill="#164e63" stroke="#22d3ee" stroke-width="2" d="M567.31,-167.51C567.31,-167.51 409.09,-167.51 409.09,-167.51 403.09,-167.51 397.09,-161.51 397.09,-155.51 397.09,-155.51 397.09,-116.99 397.09,-116.99 397.09,-110.99 403.09,-104.99 409.09,-104.99 409.09,-104.99 567.31,-104.99 567.31,-104.99 573.31,-104.99 579.31,-110.99 579.31,-116.99 579.31,-116.99 579.31,-155.51 579.31,-155.51 579.31,-161.51 573.31,-167.51 567.31,-167.51"/>
<text xml:space="preserve" text-anchor="middle" x="488.2" y="-150.35" font-family="Helvetica,sans-Serif" font-size="12.00" fill="#f8fafc">Contract rule</text>
<text xml:space="preserve" text-anchor="middle" x="488.2" y="-137.6" font-family="Helvetica,sans-Serif" font-size="12.00" fill="#f8fafc">Frontend emits named actions;</text>
<text xml:space="preserve" text-anchor="middle" x="488.2" y="-124.85" font-family="Helvetica,sans-Serif" font-size="12.00" fill="#f8fafc">k6 validates the same names;</text>
<text xml:space="preserve" text-anchor="middle" x="488.2" y="-112.1" font-family="Helvetica,sans-Serif" font-size="12.00" fill="#f8fafc">Grafana proves they arrived.</text>
</g>
<!-- faro_attrs&#45;&gt;contract_rule -->
<g id="edge3" class="edge">
<title>faro_attrs&#45;&gt;contract_rule</title>
<path fill="none" stroke="#94a3b8" d="M1694.08,-675.62C1665.48,-650.04 1629.94,-618.25 1629.94,-618.25 1629.94,-618.25 1598.94,-332.25 1598.94,-332.25 1598.94,-332.25 1483.94,-94.25 1483.94,-94.25 1483.94,-94.25 1245.19,-83 1245.19,-83 1245.19,-83 1124.44,-83 1124.44,-83 1124.44,-83 754.94,-94.25 754.94,-94.25 754.94,-94.25 664.33,-108.57 588.93,-120.49"/>
<polygon fill="#94a3b8" stroke="#94a3b8" points="588.78,-117.85 581.78,-121.62 589.6,-123.04 588.78,-117.85"/>
<text xml:space="preserve" text-anchor="middle" x="1184.81" y="-84.75" font-family="Helvetica,sans-Serif" font-size="10.00" fill="#f8fafc">contract</text>
</g>
<!-- synthetic_script -->
<g id="node4" class="node">
<title>synthetic_script</title>
<path fill="#713f12" stroke="#fbbf24" d="M225.22,-338.76C225.22,-338.76 28,-338.76 28,-338.76 22,-338.76 16,-332.76 16,-326.76 16,-326.76 16,-313.74 16,-313.74 16,-307.74 22,-301.74 28,-301.74 28,-301.74 225.22,-301.74 225.22,-301.74 231.22,-301.74 237.22,-307.74 237.22,-313.74 237.22,-313.74 237.22,-326.76 237.22,-326.76 237.22,-332.76 231.22,-338.76 225.22,-338.76"/>
<text xml:space="preserve" text-anchor="middle" x="126.61" y="-321.6" font-family="Helvetica,sans-Serif" font-size="12.00" fill="#f8fafc">load&#45;tests/synthetic&#45;browser&#45;actions.js</text>
<text xml:space="preserve" text-anchor="middle" x="126.61" y="-308.85" font-family="Helvetica,sans-Serif" font-size="12.00" fill="#f8fafc">Chromium storefront journey</text>
</g>
<!-- dom_probe -->
<g id="node5" class="node">
<title>dom_probe</title>
<path fill="#78350f" stroke="#fbbf24" d="M574.44,-362.13C574.44,-362.13 401.97,-362.13 401.97,-362.13 395.97,-362.13 389.97,-356.13 389.97,-350.13 389.97,-350.13 389.97,-324.37 389.97,-324.37 389.97,-318.37 395.97,-312.37 401.97,-312.37 401.97,-312.37 574.44,-312.37 574.44,-312.37 580.44,-312.37 586.44,-318.37 586.44,-324.37 586.44,-324.37 586.44,-350.13 586.44,-350.13 586.44,-356.13 580.44,-362.13 574.44,-362.13"/>
<text xml:space="preserve" text-anchor="middle" x="488.2" y="-344.98" font-family="Helvetica,sans-Serif" font-size="12.00" fill="#f8fafc">Reads action selectors</text>
<text xml:space="preserve" text-anchor="middle" x="488.2" y="-332.23" font-family="Helvetica,sans-Serif" font-size="12.00" fill="#f8fafc">records window.__k6UserActions</text>
<text xml:space="preserve" text-anchor="middle" x="488.2" y="-319.48" font-family="Helvetica,sans-Serif" font-size="12.00" fill="#f8fafc">validates localized UI copy</text>
</g>
<!-- synthetic_script&#45;&gt;dom_probe -->
<g id="edge5" class="edge">
<title>synthetic_script&#45;&gt;dom_probe</title>
<path fill="none" stroke="#94a3b8" d="M237.45,-325.44C282.96,-327.59 335.54,-330.08 380.69,-332.21"/>
<polygon fill="#94a3b8" stroke="#94a3b8" points="380.49,-334.83 388.11,-332.57 380.74,-329.59 380.49,-334.83"/>
<text xml:space="preserve" text-anchor="middle" x="313.59" y="-332.52" font-family="Helvetica,sans-Serif" font-size="10.00" fill="#f8fafc">browser executes UI</text>
</g>
<!-- spike_load -->
<g id="node9" class="node">
<title>spike_load</title>
<path fill="#7c2d12" stroke="#fb923c" d="M1020.17,-247.13C1020.17,-247.13 828.2,-247.13 828.2,-247.13 822.2,-247.13 816.2,-241.13 816.2,-235.13 816.2,-235.13 816.2,-209.37 816.2,-209.37 816.2,-203.37 822.2,-197.37 828.2,-197.37 828.2,-197.37 1020.17,-197.37 1020.17,-197.37 1026.17,-197.37 1032.17,-203.37 1032.17,-209.37 1032.17,-209.37 1032.17,-235.13 1032.17,-235.13 1032.17,-241.13 1026.17,-247.13 1020.17,-247.13"/>
<text xml:space="preserve" text-anchor="middle" x="924.19" y="-229.97" font-family="Helvetica,sans-Serif" font-size="12.00" fill="#f8fafc">grafana&#45;cloud&#45;traffic&#45;spikes.js</text>
<text xml:space="preserve" text-anchor="middle" x="924.19" y="-217.22" font-family="Helvetica,sans-Serif" font-size="12.00" fill="#f8fafc">traffic_spikes + regional_shoppers</text>
<text xml:space="preserve" text-anchor="middle" x="924.19" y="-204.47" font-family="Helvetica,sans-Serif" font-size="12.00" fill="#f8fafc">api_request_rate + storefront_actions</text>
</g>
<!-- synthetic_script&#45;&gt;spike_load -->
<g id="edge10" class="edge">
<title>synthetic_script&#45;&gt;spike_load</title>
<path fill="none" stroke="#94a3b8" d="M237.35,-304.67C309.25,-294.46 389.97,-283 389.97,-283 389.97,-283 650.28,-253.34 807.14,-235.47"/>
<polygon fill="#94a3b8" stroke="#94a3b8" points="807.27,-238.1 814.42,-234.64 806.67,-232.88 807.27,-238.1"/>
<text xml:space="preserve" text-anchor="middle" x="488.2" y="-284.75" font-family="Helvetica,sans-Serif" font-size="10.00" fill="#f8fafc">imported as storefront_actions</text>
</g>
<!-- synthetic_assertions -->
<g id="node6" class="node">
<title>synthetic_assertions</title>
<path fill="#111827" stroke="none" d="M1081.44,-602.88C1081.44,-602.88 766.94,-602.88 766.94,-602.88 760.94,-602.88 754.94,-596.88 754.94,-590.88 754.94,-590.88 754.94,-411.62 754.94,-411.62 754.94,-405.62 760.94,-399.62 766.94,-399.62 766.94,-399.62 1081.44,-399.62 1081.44,-399.62 1087.44,-399.62 1093.44,-405.62 1093.44,-411.62 1093.44,-411.62 1093.44,-590.88 1093.44,-590.88 1093.44,-596.88 1087.44,-602.88 1081.44,-602.88"/>
<polygon fill="#1e3a5f" stroke="none" points="755.94,-573.12 755.94,-601.88 1092.44,-601.88 1092.44,-573.12 755.94,-573.12"/>
<polygon fill="none" stroke="#475569" points="755.94,-573.12 755.94,-601.88 1092.44,-601.88 1092.44,-573.12 755.94,-573.12"/>
<text xml:space="preserve" text-anchor="start" x="864.94" y="-583.48" font-family="Helvetica,sans-Serif" font-weight="bold" font-size="12.00" fill="#f8fafc">Coverage assertions</text>
<polygon fill="#111827" stroke="none" points="755.94,-544.38 755.94,-573.12 827.44,-573.12 827.44,-544.38 755.94,-544.38"/>
<polygon fill="none" stroke="#475569" points="755.94,-544.38 755.94,-573.12 827.44,-573.12 827.44,-544.38 755.94,-544.38"/>
<text xml:space="preserve" text-anchor="start" x="763.94" y="-555.38" font-family="Helvetica,sans-Serif" font-size="12.00" fill="#f8fafc">selectors</text>
<polygon fill="#1e293b" stroke="none" points="827.44,-544.38 827.44,-573.12 1092.44,-573.12 1092.44,-544.38 827.44,-544.38"/>
<polygon fill="none" stroke="#475569" points="827.44,-544.38 827.44,-573.12 1092.44,-573.12 1092.44,-544.38 827.44,-544.38"/>
<text xml:space="preserve" text-anchor="start" x="866.94" y="-555.38" font-family="Helvetica,sans-Serif" font-size="12.00" fill="#f8fafc">every expected button/action exists</text>
<polygon fill="#111827" stroke="none" points="755.94,-515.62 755.94,-544.38 827.44,-544.38 827.44,-515.62 755.94,-515.62"/>
<polygon fill="none" stroke="#475569" points="755.94,-515.62 755.94,-544.38 827.44,-544.38 827.44,-515.62 755.94,-515.62"/>
<text xml:space="preserve" text-anchor="start" x="763.94" y="-526.62" font-family="Helvetica,sans-Serif" font-size="12.00" fill="#f8fafc">navigation</text>
<polygon fill="#1e293b" stroke="none" points="827.44,-515.62 827.44,-544.38 1092.44,-544.38 1092.44,-515.62 827.44,-515.62"/>
<polygon fill="none" stroke="#475569" points="827.44,-515.62 827.44,-544.38 1092.44,-544.38 1092.44,-515.62 827.44,-515.62"/>
<text xml:space="preserve" text-anchor="start" x="856.81" y="-526.62" font-family="Helvetica,sans-Serif" font-size="12.00" fill="#f8fafc">brand, header, hero, utility, sale banner</text>
<polygon fill="#111827" stroke="none" points="755.94,-486.88 755.94,-515.62 827.44,-515.62 827.44,-486.88 755.94,-486.88"/>
<polygon fill="none" stroke="#475569" points="755.94,-486.88 755.94,-515.62 827.44,-515.62 827.44,-486.88 755.94,-486.88"/>
<text xml:space="preserve" text-anchor="start" x="763.94" y="-497.88" font-family="Helvetica,sans-Serif" font-size="12.00" fill="#f8fafc">cart</text>
<polygon fill="#1e293b" stroke="none" points="827.44,-486.88 827.44,-515.62 1092.44,-515.62 1092.44,-486.88 827.44,-486.88"/>
<polygon fill="none" stroke="#475569" points="827.44,-486.88 827.44,-515.62 1092.44,-515.62 1092.44,-486.88 827.44,-486.88"/>
<text xml:space="preserve" text-anchor="start" x="864.69" y="-497.88" font-family="Helvetica,sans-Serif" font-size="12.00" fill="#f8fafc">add, remove, checkout, dialog close</text>
<polygon fill="#111827" stroke="none" points="755.94,-458.12 755.94,-486.88 827.44,-486.88 827.44,-458.12 755.94,-458.12"/>
<polygon fill="none" stroke="#475569" points="755.94,-458.12 755.94,-486.88 827.44,-486.88 827.44,-458.12 755.94,-458.12"/>
<text xml:space="preserve" text-anchor="start" x="763.94" y="-469.12" font-family="Helvetica,sans-Serif" font-size="12.00" fill="#f8fafc">auth</text>
<polygon fill="#1e293b" stroke="none" points="827.44,-458.12 827.44,-486.88 1092.44,-486.88 1092.44,-458.12 827.44,-458.12"/>
<polygon fill="none" stroke="#475569" points="827.44,-458.12 827.44,-486.88 1092.44,-486.88 1092.44,-458.12 827.44,-458.12"/>
<text xml:space="preserve" text-anchor="start" x="835.44" y="-469.12" font-family="Helvetica,sans-Serif" font-size="12.00" fill="#f8fafc">Google login control and checkout Grafana link</text>
<polygon fill="#111827" stroke="none" points="755.94,-429.38 755.94,-458.12 827.44,-458.12 827.44,-429.38 755.94,-429.38"/>
<polygon fill="none" stroke="#475569" points="755.94,-429.38 755.94,-458.12 827.44,-458.12 827.44,-429.38 755.94,-429.38"/>
<text xml:space="preserve" text-anchor="start" x="763.94" y="-440.38" font-family="Helvetica,sans-Serif" font-size="12.00" fill="#f8fafc">region</text>
<polygon fill="#1e293b" stroke="none" points="827.44,-429.38 827.44,-458.12 1092.44,-458.12 1092.44,-429.38 827.44,-429.38"/>
<polygon fill="none" stroke="#475569" points="827.44,-429.38 827.44,-458.12 1092.44,-458.12 1092.44,-429.38 827.44,-429.38"/>
<text xml:space="preserve" text-anchor="start" x="857.94" y="-440.38" font-family="Helvetica,sans-Serif" font-size="12.00" fill="#f8fafc">US, CA, CN, UK, SE language checks</text>
<polygon fill="#111827" stroke="none" points="755.94,-400.62 755.94,-429.38 827.44,-429.38 827.44,-400.62 755.94,-400.62"/>
<polygon fill="none" stroke="#475569" points="755.94,-400.62 755.94,-429.38 827.44,-429.38 827.44,-400.62 755.94,-400.62"/>
<text xml:space="preserve" text-anchor="start" x="763.94" y="-411.62" font-family="Helvetica,sans-Serif" font-size="12.00" fill="#f8fafc">web vitals</text>
<polygon fill="#1e293b" stroke="none" points="827.44,-400.62 827.44,-429.38 1092.44,-429.38 1092.44,-400.62 827.44,-400.62"/>
<polygon fill="none" stroke="#475569" points="827.44,-400.62 827.44,-429.38 1092.44,-429.38 1092.44,-400.62 827.44,-400.62"/>
<text xml:space="preserve" text-anchor="start" x="893.56" y="-411.62" font-family="Helvetica,sans-Serif" font-size="12.00" fill="#f8fafc">LCP and CLS thresholds</text>
<polygon fill="none" stroke="#475569" points="754.94,-399.62 754.94,-602.88 1093.44,-602.88 1093.44,-399.62 754.94,-399.62"/>
</g>
<!-- dom_probe&#45;&gt;synthetic_assertions -->
<g id="edge6" class="edge">
<title>dom_probe&#45;&gt;synthetic_assertions</title>
<path fill="none" stroke="#94a3b8" d="M556.06,-362.52C607.01,-381.77 679.63,-409.21 746.84,-434.61"/>
<polygon fill="#94a3b8" stroke="#94a3b8" points="745.65,-436.96 753.59,-437.16 747.51,-432.05 745.65,-436.96"/>
<text xml:space="preserve" text-anchor="middle" x="670.69" y="-425.92" font-family="Helvetica,sans-Serif" font-size="10.00" fill="#f8fafc">checks behavior</text>
</g>
<!-- synthetic_counters -->
<g id="node7" class="node">
<title>synthetic_counters</title>
<path fill="#78350f" stroke="#fbbf24" d="M1005.55,-363.51C1005.55,-363.51 842.83,-363.51 842.83,-363.51 836.83,-363.51 830.83,-357.51 830.83,-351.51 830.83,-351.51 830.83,-312.99 830.83,-312.99 830.83,-306.99 836.83,-300.99 842.83,-300.99 842.83,-300.99 1005.55,-300.99 1005.55,-300.99 1011.55,-300.99 1017.55,-306.99 1017.55,-312.99 1017.55,-312.99 1017.55,-351.51 1017.55,-351.51 1017.55,-357.51 1011.55,-363.51 1005.55,-363.51"/>
<text xml:space="preserve" text-anchor="middle" x="924.19" y="-346.35" font-family="Helvetica,sans-Serif" font-size="12.00" fill="#f8fafc">k6 counters</text>
<text xml:space="preserve" text-anchor="middle" x="924.19" y="-333.6" font-family="Helvetica,sans-Serif" font-size="12.00" fill="#f8fafc">storefront_user_actions</text>
<text xml:space="preserve" text-anchor="middle" x="924.19" y="-320.85" font-family="Helvetica,sans-Serif" font-size="12.00" fill="#f8fafc">storefront_user_action_events</text>
<text xml:space="preserve" text-anchor="middle" x="924.19" y="-308.1" font-family="Helvetica,sans-Serif" font-size="12.00" fill="#f8fafc">cart add/remove/checkout totals</text>
</g>
<!-- dom_probe&#45;&gt;synthetic_counters -->
<g id="edge7" class="edge">
<title>dom_probe&#45;&gt;synthetic_counters</title>
<path fill="none" stroke="#94a3b8" d="M586.87,-336.12C656.86,-335.32 750.9,-334.24 821.74,-333.42"/>
<polygon fill="#94a3b8" stroke="#94a3b8" points="821.71,-336.04 829.18,-333.33 821.65,-330.79 821.71,-336.04"/>
<text xml:space="preserve" text-anchor="middle" x="670.69" y="-337.52" font-family="Helvetica,sans-Serif" font-size="10.00" fill="#f8fafc">counts observed actions</text>
</g>
<!-- k6_cloud -->
<g id="node12" class="node">
<title>k6_cloud</title>
<path fill="#6b21a8" stroke="#c084fc" d="M1441.55,-399.13C1441.55,-399.13 1318.58,-399.13 1318.58,-399.13 1312.58,-399.13 1306.58,-393.13 1306.58,-387.13 1306.58,-387.13 1306.58,-361.37 1306.58,-361.37 1306.58,-355.37 1312.58,-349.37 1318.58,-349.37 1318.58,-349.37 1441.55,-349.37 1441.55,-349.37 1447.55,-349.37 1453.55,-355.37 1453.55,-361.37 1453.55,-361.37 1453.55,-387.13 1453.55,-387.13 1453.55,-393.13 1447.55,-399.13 1441.55,-399.13"/>
<text xml:space="preserve" text-anchor="middle" x="1380.06" y="-381.98" font-family="Helvetica,sans-Serif" font-size="12.00" fill="#f8fafc">Grafana Cloud k6</text>
<text xml:space="preserve" text-anchor="middle" x="1380.06" y="-369.23" font-family="Helvetica,sans-Serif" font-size="12.00" fill="#f8fafc">run metrics, thresholds,</text>
<text xml:space="preserve" text-anchor="middle" x="1380.06" y="-356.48" font-family="Helvetica,sans-Serif" font-size="12.00" fill="#f8fafc">checks, trends, counters</text>
</g>
<!-- synthetic_assertions&#45;&gt;k6_cloud -->
<g id="edge15" class="edge">
<title>synthetic_assertions&#45;&gt;k6_cloud</title>
<path fill="none" stroke="#94a3b8" d="M1093.23,-454.23C1163.09,-434.68 1240.96,-412.89 1297.75,-397"/>
<polygon fill="#94a3b8" stroke="#94a3b8" points="1298.35,-399.56 1304.87,-395.01 1296.94,-394.5 1298.35,-399.56"/>
<text xml:space="preserve" text-anchor="middle" x="1184.81" y="-447.1" font-family="Helvetica,sans-Serif" font-size="10.00" fill="#f8fafc">checks</text>
</g>
<!-- load_thresholds -->
<g id="node10" class="node">
<title>load_thresholds</title>
<path fill="#7c2d12" stroke="#fb923c" d="M1449.42,-246.51C1449.42,-246.51 1310.7,-246.51 1310.7,-246.51 1304.7,-246.51 1298.7,-240.51 1298.7,-234.51 1298.7,-234.51 1298.7,-195.99 1298.7,-195.99 1298.7,-189.99 1304.7,-183.99 1310.7,-183.99 1310.7,-183.99 1449.42,-183.99 1449.42,-183.99 1455.42,-183.99 1461.42,-189.99 1461.42,-195.99 1461.42,-195.99 1461.42,-234.51 1461.42,-234.51 1461.42,-240.51 1455.42,-246.51 1449.42,-246.51"/>
<text xml:space="preserve" text-anchor="middle" x="1380.06" y="-229.35" font-family="Helvetica,sans-Serif" font-size="12.00" fill="#f8fafc">Threshold contract</text>
<text xml:space="preserve" text-anchor="middle" x="1380.06" y="-216.6" font-family="Helvetica,sans-Serif" font-size="12.00" fill="#f8fafc">HTTP failure and latency</text>
<text xml:space="preserve" text-anchor="middle" x="1380.06" y="-203.85" font-family="Helvetica,sans-Serif" font-size="12.00" fill="#f8fafc">API request rate</text>
<text xml:space="preserve" text-anchor="middle" x="1380.06" y="-191.1" font-family="Helvetica,sans-Serif" font-size="12.00" fill="#f8fafc">per&#45;action&#45;family event rate</text>
</g>
<!-- synthetic_counters&#45;&gt;load_thresholds -->
<g id="edge13" class="edge">
<title>synthetic_counters&#45;&gt;load_thresholds</title>
<path fill="none" stroke="#94a3b8" d="M1017.96,-312.25C1060.42,-303.09 1101.44,-294.25 1101.44,-294.25 1101.44,-294.25 1208.91,-263.67 1290.12,-240.56"/>
<polygon fill="#94a3b8" stroke="#94a3b8" points="1290.44,-243.2 1296.94,-238.62 1289,-238.15 1290.44,-243.2"/>
<text xml:space="preserve" text-anchor="middle" x="1184.81" y="-289.24" font-family="Helvetica,sans-Serif" font-size="10.00" fill="#f8fafc">per&#45;action thresholds</text>
</g>
<!-- synthetic_counters&#45;&gt;k6_cloud -->
<g id="edge16" class="edge">
<title>synthetic_counters&#45;&gt;k6_cloud</title>
<path fill="none" stroke="#94a3b8" d="M1017.86,-340.83C1099.99,-348.43 1218.77,-359.42 1297.4,-366.69"/>
<polygon fill="#94a3b8" stroke="#94a3b8" points="1297.09,-369.3 1304.8,-367.38 1297.58,-364.07 1297.09,-369.3"/>
<text xml:space="preserve" text-anchor="middle" x="1184.81" y="-363.59" font-family="Helvetica,sans-Serif" font-size="10.00" fill="#f8fafc">custom metrics</text>
</g>
<!-- regional_load -->
<g id="node8" class="node">
<title>regional_load</title>
<path fill="#7c2d12" stroke="#fb923c" d="M1034.8,-161.13C1034.8,-161.13 813.58,-161.13 813.58,-161.13 807.58,-161.13 801.58,-155.13 801.58,-149.13 801.58,-149.13 801.58,-123.37 801.58,-123.37 801.58,-117.37 807.58,-111.37 813.58,-111.37 813.58,-111.37 1034.8,-111.37 1034.8,-111.37 1040.8,-111.37 1046.8,-117.37 1046.8,-123.37 1046.8,-123.37 1046.8,-149.13 1046.8,-149.13 1046.8,-155.13 1040.8,-161.13 1034.8,-161.13"/>
<text xml:space="preserve" text-anchor="middle" x="924.19" y="-143.97" font-family="Helvetica,sans-Serif" font-size="12.00" fill="#f8fafc">grafana&#45;cloud&#45;20&#45;user&#45;regional.js</text>
<text xml:space="preserve" text-anchor="middle" x="924.19" y="-131.22" font-family="Helvetica,sans-Serif" font-size="12.00" fill="#f8fafc">API personas with regions</text>
<text xml:space="preserve" text-anchor="middle" x="924.19" y="-118.47" font-family="Helvetica,sans-Serif" font-size="12.00" fill="#f8fafc">headers: X&#45;Region, X&#45;Locale, X&#45;Language</text>
</g>
<!-- regional_load&#45;&gt;load_thresholds -->
<g id="edge11" class="edge">
<title>regional_load&#45;&gt;load_thresholds</title>
<path fill="none" stroke="#94a3b8" d="M1047.12,-157.47C1123.54,-170.77 1220.34,-187.62 1289.66,-199.69"/>
<polygon fill="#94a3b8" stroke="#94a3b8" points="1289.07,-202.25 1296.91,-200.95 1289.97,-197.08 1289.07,-202.25"/>
<text xml:space="preserve" text-anchor="middle" x="1184.81" y="-193.66" font-family="Helvetica,sans-Serif" font-size="10.00" fill="#f8fafc">API behavior</text>
</g>
<!-- spike_load&#45;&gt;load_thresholds -->
<g id="edge12" class="edge">
<title>spike_load&#45;&gt;load_thresholds</title>
<path fill="none" stroke="#94a3b8" d="M1032.46,-220.6C1110.8,-219.39 1215.77,-217.77 1289.6,-216.63"/>
<polygon fill="#94a3b8" stroke="#94a3b8" points="1289.47,-219.26 1296.93,-216.52 1289.39,-214.01 1289.47,-219.26"/>
<text xml:space="preserve" text-anchor="middle" x="1184.81" y="-220.92" font-family="Helvetica,sans-Serif" font-size="10.00" fill="#f8fafc">spike and action rates</text>
</g>
<!-- load_thresholds&#45;&gt;k6_cloud -->
<g id="edge17" class="edge">
<title>load_thresholds&#45;&gt;k6_cloud</title>
<path fill="none" stroke="#94a3b8" d="M1380.06,-246.66C1380.06,-273.58 1380.06,-312.27 1380.06,-339.98"/>
<polygon fill="#94a3b8" stroke="#94a3b8" points="1377.44,-339.91 1380.07,-347.41 1382.69,-339.91 1377.44,-339.91"/>
<text xml:space="preserve" text-anchor="middle" x="1371.44" y="-294.06" font-family="Helvetica,sans-Serif" font-size="10.00" fill="#f8fafc">cloud run results</text>
</g>
<!-- reports -->
<g id="node14" class="node">
<title>reports</title>
<path fill="#111827" stroke="none" d="M1818.94,-511.12C1818.94,-511.12 1641.94,-511.12 1641.94,-511.12 1635.94,-511.12 1629.94,-505.12 1629.94,-499.12 1629.94,-499.12 1629.94,-377.38 1629.94,-377.38 1629.94,-371.38 1635.94,-365.38 1641.94,-365.38 1641.94,-365.38 1818.94,-365.38 1818.94,-365.38 1824.94,-365.38 1830.94,-371.38 1830.94,-377.38 1830.94,-377.38 1830.94,-499.12 1830.94,-499.12 1830.94,-505.12 1824.94,-511.12 1818.94,-511.12"/>
<polygon fill="#1e3a5f" stroke="none" points="1630.94,-481.38 1630.94,-510.12 1829.94,-510.12 1829.94,-481.38 1630.94,-481.38"/>
<polygon fill="none" stroke="#475569" points="1630.94,-481.38 1630.94,-510.12 1829.94,-510.12 1829.94,-481.38 1630.94,-481.38"/>
<text xml:space="preserve" text-anchor="start" x="1678.31" y="-491.73" font-family="Helvetica,sans-Serif" font-weight="bold" font-size="12.00" fill="#f8fafc">Post&#45;run evidence</text>
<polygon fill="#111827" stroke="none" points="1630.94,-452.62 1630.94,-481.38 1829.94,-481.38 1829.94,-452.62 1630.94,-452.62"/>
<polygon fill="none" stroke="#475569" points="1630.94,-452.62 1630.94,-481.38 1829.94,-481.38 1829.94,-452.62 1630.94,-452.62"/>
<text xml:space="preserve" text-anchor="start" x="1638.94" y="-463.62" font-family="Helvetica,sans-Serif" font-size="12.00" fill="#f8fafc">scripts/report&#45;faro&#45;user&#45;actions.mjs</text>
<polygon fill="#111827" stroke="none" points="1630.94,-423.88 1630.94,-452.62 1829.94,-452.62 1829.94,-423.88 1630.94,-423.88"/>
<polygon fill="none" stroke="#475569" points="1630.94,-423.88 1630.94,-452.62 1829.94,-452.62 1829.94,-423.88 1630.94,-423.88"/>
<text xml:space="preserve" text-anchor="start" x="1638.94" y="-434.88" font-family="Helvetica,sans-Serif" font-size="12.00" fill="#f8fafc">scripts/report&#45;load&#45;tests.mjs</text>
<polygon fill="#111827" stroke="none" points="1630.94,-395.12 1630.94,-423.88 1829.94,-423.88 1829.94,-395.12 1630.94,-395.12"/>
<polygon fill="none" stroke="#475569" points="1630.94,-395.12 1630.94,-423.88 1829.94,-423.88 1829.94,-395.12 1630.94,-395.12"/>
<text xml:space="preserve" text-anchor="start" x="1638.94" y="-406.12" font-family="Helvetica,sans-Serif" font-size="12.00" fill="#f8fafc">reports/frontend&#45;user&#45;actions/</text>
<polygon fill="#111827" stroke="none" points="1630.94,-366.38 1630.94,-395.12 1829.94,-395.12 1829.94,-366.38 1630.94,-366.38"/>
<polygon fill="none" stroke="#475569" points="1630.94,-366.38 1630.94,-395.12 1829.94,-395.12 1829.94,-366.38 1630.94,-366.38"/>
<text xml:space="preserve" text-anchor="start" x="1638.94" y="-377.38" font-family="Helvetica,sans-Serif" font-size="12.00" fill="#f8fafc">reports/load&#45;tests/comparison/</text>
<polygon fill="none" stroke="#475569" points="1629.94,-365.38 1629.94,-511.12 1830.94,-511.12 1830.94,-365.38 1629.94,-365.38"/>
</g>
<!-- faro_cloud&#45;&gt;reports -->
<g id="edge19" class="edge">
<title>faro_cloud&#45;&gt;reports</title>
<path fill="none" stroke="#94a3b8" d="M1464.95,-454.95C1511.87,-451.99 1570.86,-448.26 1621.22,-445.08"/>
<polygon fill="#94a3b8" stroke="#94a3b8" points="1621.36,-447.71 1628.68,-444.61 1621.03,-442.47 1621.36,-447.71"/>
<text xml:space="preserve" text-anchor="middle" x="1556.94" y="-452.97" font-family="Helvetica,sans-Serif" font-size="10.00" fill="#f8fafc">LogQL action totals</text>
</g>
<!-- k6_cloud&#45;&gt;reports -->
<g id="edge20" class="edge">
<title>k6_cloud&#45;&gt;reports</title>
<path fill="none" stroke="#94a3b8" d="M1453.67,-387.59C1502.22,-396.51 1566.96,-408.4 1621.51,-418.42"/>
<polygon fill="#94a3b8" stroke="#94a3b8" points="1620.83,-420.97 1628.68,-419.74 1621.78,-415.8 1620.83,-420.97"/>
<text xml:space="preserve" text-anchor="middle" x="1556.94" y="-415.61" font-family="Helvetica,sans-Serif" font-size="10.00" fill="#f8fafc">run summaries</text>
</g>
<!-- synthetic_monitoring -->
<g id="node13" class="node">
<title>synthetic_monitoring</title>
<path fill="#6b21a8" stroke="#c084fc" d="M1466.67,-571.13C1466.67,-571.13 1293.45,-571.13 1293.45,-571.13 1287.45,-571.13 1281.45,-565.13 1281.45,-559.13 1281.45,-559.13 1281.45,-533.37 1281.45,-533.37 1281.45,-527.37 1287.45,-521.37 1293.45,-521.37 1293.45,-521.37 1466.67,-521.37 1466.67,-521.37 1472.67,-521.37 1478.67,-527.37 1478.67,-533.37 1478.67,-533.37 1478.67,-559.13 1478.67,-559.13 1478.67,-565.13 1472.67,-571.13 1466.67,-571.13"/>
<text xml:space="preserve" text-anchor="middle" x="1380.06" y="-553.98" font-family="Helvetica,sans-Serif" font-size="12.00" fill="#f8fafc">Grafana Synthetic Monitoring</text>
<text xml:space="preserve" text-anchor="middle" x="1380.06" y="-541.23" font-family="Helvetica,sans-Serif" font-size="12.00" fill="#f8fafc">HTTP, DNS, Ping, TCP checks</text>
<text xml:space="preserve" text-anchor="middle" x="1380.06" y="-528.48" font-family="Helvetica,sans-Serif" font-size="12.00" fill="#f8fafc">uptime, TLS, response, resolution</text>
</g>
<!-- synthetic_monitoring&#45;&gt;app_js -->
<g id="edge21" class="edge">
<title>synthetic_monitoring&#45;&gt;app_js</title>
<path fill="none" stroke="#60a5fa" stroke-dasharray="5,2" d="M1311.51,-571.56C1229.33,-602.34 1101.44,-650.25 1101.44,-650.25 1101.44,-650.25 1058.2,-658.1 1014.56,-666.02"/>
<polygon fill="#60a5fa" stroke="#60a5fa" points="1014.24,-663.41 1007.33,-667.34 1015.17,-668.58 1014.24,-663.41"/>
<text xml:space="preserve" text-anchor="middle" x="1184.81" y="-643.1" font-family="Helvetica,sans-Serif" font-size="10.00" fill="#f8fafc">site/API reachable?</text>
</g>
<!-- synthetic_monitoring&#45;&gt;reports -->
<g id="edge18" class="edge">
<title>synthetic_monitoring&#45;&gt;reports</title>
<path fill="none" stroke="#94a3b8" d="M1462.74,-520.93C1510.08,-506.25 1570.27,-487.6 1621.48,-471.72"/>
<polygon fill="#94a3b8" stroke="#94a3b8" points="1622.11,-474.27 1628.5,-469.54 1620.56,-469.26 1622.11,-474.27"/>
<text xml:space="preserve" text-anchor="middle" x="1556.94" y="-503.67" font-family="Helvetica,sans-Serif" font-size="10.00" fill="#f8fafc">availability context</text>
</g>
<!-- reports&#45;&gt;contract_rule -->
<g id="edge22" class="edge">
<title>reports&#45;&gt;contract_rule</title>
<path fill="none" stroke="#60a5fa" stroke-dasharray="5,2" d="M1706.26,-365.42C1668.76,-247.61 1598.94,-28.25 1598.94,-28.25 1598.94,-28.25 1245.19,0 1245.19,0 1245.19,0 1124.44,0 1124.44,0 1124.44,0 617.44,-28.25 617.44,-28.25 617.44,-28.25 571.08,-67.29 534.11,-98.43"/>
<polygon fill="#60a5fa" stroke="#60a5fa" points="532.54,-96.32 528.49,-103.16 535.92,-100.34 532.54,-96.32"/>
<text xml:space="preserve" text-anchor="middle" x="1184.81" y="-1.75" font-family="Helvetica,sans-Serif" font-size="10.00" fill="#f8fafc">gaps drive contract updates</text>
</g>
<!-- contract_rule&#45;&gt;synthetic_script -->
<g id="edge4" class="edge">
<title>contract_rule&#45;&gt;synthetic_script</title>
<path fill="none" stroke="#94a3b8" d="M396.24,-166.47C336.07,-186.46 268.22,-209 268.22,-209 268.22,-209 199.73,-263.19 158.35,-295.93"/>
<polygon fill="#94a3b8" stroke="#94a3b8" points="156.9,-293.73 152.65,-300.44 160.16,-297.84 156.9,-293.73"/>
<text xml:space="preserve" text-anchor="middle" x="313.59" y="-210.75" font-family="Helvetica,sans-Serif" font-size="10.00" fill="#f8fafc">selector coverage</text>
</g>
<!-- contract_rule&#45;&gt;regional_load -->
<g id="edge8" class="edge">
<title>contract_rule&#45;&gt;regional_load</title>
<path fill="none" stroke="#94a3b8" d="M580.18,-136.25C641.8,-136.25 724.16,-136.25 792.73,-136.25"/>
<polygon fill="#94a3b8" stroke="#94a3b8" points="792.44,-138.88 799.94,-136.25 792.44,-133.63 792.44,-138.88"/>
<text xml:space="preserve" text-anchor="middle" x="670.69" y="-138" font-family="Helvetica,sans-Serif" font-size="10.00" fill="#f8fafc">region and API context</text>
</g>
<!-- contract_rule&#45;&gt;spike_load -->
<g id="edge9" class="edge">
<title>contract_rule&#45;&gt;spike_load</title>
<path fill="none" stroke="#94a3b8" d="M580.18,-154.28C646.22,-167.37 736.09,-185.17 807.28,-199.28"/>
<polygon fill="#94a3b8" stroke="#94a3b8" points="806.51,-201.8 814.38,-200.69 807.53,-196.65 806.51,-201.8"/>
<text xml:space="preserve" text-anchor="middle" x="670.69" y="-183.58" font-family="Helvetica,sans-Serif" font-size="10.00" fill="#f8fafc">browser action scenario</text>
</g>
</g>
</svg>
