<?xml version="1.0" encoding="UTF-8" standalone="no"?>
<!DOCTYPE svg PUBLIC "-//W3C//DTD SVG 1.1//EN"
 "http://www.w3.org/Graphics/SVG/1.1/DTD/svg11.dtd">
<!-- Generated by graphviz version 15.0.0 (20260523.1842)
 -->
<!-- Title: load_run_table Pages: 1 -->
<svg width="588pt" height="1009pt"
 viewBox="0.00 0.00 588.00 1009.00" xmlns="http://www.w3.org/2000/svg" xmlns:xlink="http://www.w3.org/1999/xlink">
<g id="graph0" class="graph" transform="scale(1 1) rotate(0) translate(25.2 983.95)">
<title>load_run_table</title>
<polygon fill="#ffffff" stroke="none" points="-25.2,25.2 -25.2,-983.95 562.45,-983.95 562.45,25.2 -25.2,25.2"/>
<text xml:space="preserve" text-anchor="middle" x="268.62" y="-941.45" font-family="Arial" font-size="14.00">Ensemble&#45;Grafana k6 Traffic Spike Run History</text>
<!-- runs -->
<g id="node1" class="node">
<title>runs</title>
<polygon fill="#111827" stroke="none" points="0,-635 0,-666.75 121,-666.75 121,-635 0,-635"/>
<polygon fill="none" stroke="#d1d5db" points="0,-635 0,-666.75 121,-666.75 121,-635 0,-635"/>
<text xml:space="preserve" text-anchor="start" x="37.25" y="-646.45" font-family="Arial" font-weight="bold" font-size="14.00" fill="#ffffff">Started</text>
<polygon fill="#111827" stroke="none" points="121,-635 121,-666.75 179,-666.75 179,-635 121,-635"/>
<polygon fill="none" stroke="#d1d5db" points="121,-635 121,-666.75 179,-666.75 179,-635 121,-635"/>
<text xml:space="preserve" text-anchor="start" x="136.88" y="-646.45" font-family="Arial" font-weight="bold" font-size="14.00" fill="#ffffff">Run</text>
<polygon fill="#111827" stroke="none" points="179,-635 179,-666.75 244.5,-666.75 244.5,-635 179,-635"/>
<polygon fill="none" stroke="#d1d5db" points="179,-635 179,-666.75 244.5,-666.75 244.5,-635 179,-635"/>
<text xml:space="preserve" text-anchor="start" x="191.12" y="-646.45" font-family="Arial" font-weight="bold" font-size="14.00" fill="#ffffff">Result</text>
<polygon fill="#111827" stroke="none" points="244.5,-635 244.5,-666.75 316,-666.75 316,-635 244.5,-635"/>
<polygon fill="none" stroke="#d1d5db" points="244.5,-635 244.5,-666.75 316,-666.75 316,-635 244.5,-635"/>
<text xml:space="preserve" text-anchor="start" x="252.5" y="-646.45" font-family="Arial" font-weight="bold" font-size="14.00" fill="#ffffff">Duration</text>
<polygon fill="#111827" stroke="none" points="316,-635 316,-666.75 395.75,-666.75 395.75,-635 316,-635"/>
<polygon fill="none" stroke="#d1d5db" points="316,-635 316,-666.75 395.75,-666.75 395.75,-635 316,-635"/>
<text xml:space="preserve" text-anchor="start" x="324" y="-646.45" font-family="Arial" font-weight="bold" font-size="14.00" fill="#ffffff">Total VUH</text>
<polygon fill="#111827" stroke="none" points="395.75,-635 395.75,-666.75 466.5,-666.75 466.5,-635 395.75,-635"/>
<polygon fill="none" stroke="#d1d5db" points="395.75,-635 395.75,-666.75 466.5,-666.75 466.5,-635 395.75,-635"/>
<text xml:space="preserve" text-anchor="start" x="403.75" y="-646.45" font-family="Arial" font-weight="bold" font-size="14.00" fill="#ffffff">Protocol</text>
<polygon fill="#111827" stroke="none" points="466.5,-635 466.5,-666.75 537.25,-666.75 537.25,-635 466.5,-635"/>
<polygon fill="none" stroke="#d1d5db" points="466.5,-635 466.5,-666.75 537.25,-666.75 537.25,-635 466.5,-635"/>
<text xml:space="preserve" text-anchor="start" x="474.5" y="-646.45" font-family="Arial" font-weight="bold" font-size="14.00" fill="#ffffff">Browser</text>
<polygon fill="none" stroke="#d1d5db" points="0,-603.25 0,-635 121,-635 121,-603.25 0,-603.25"/>
<text xml:space="preserve" text-anchor="start" x="8" y="-614.25" font-family="Arial" font-size="14.00">05/30/2026 18:27</text>
<polygon fill="none" stroke="#d1d5db" points="121,-603.25 121,-635 179,-635 179,-603.25 121,-603.25"/>
<text xml:space="preserve" text-anchor="start" x="129" y="-615.38" font-family="Arial" font-size="11.00">7648780</text>
<polygon fill="#dcfce7" stroke="none" points="179,-603.25 179,-635 244.5,-635 244.5,-603.25 179,-603.25"/>
<polygon fill="none" stroke="#d1d5db" points="179,-603.25 179,-635 244.5,-635 244.5,-603.25 179,-603.25"/>
<text xml:space="preserve" text-anchor="start" x="193.75" y="-614.7" font-family="Arial" font-weight="bold" font-size="14.00" fill="#166534">PASS</text>
<polygon fill="none" stroke="#d1d5db" points="244.5,-603.25 244.5,-635 316,-635 316,-603.25 244.5,-603.25"/>
<text xml:space="preserve" text-anchor="start" x="261.12" y="-614.25" font-family="Arial" font-size="14.00">15.0m</text>
<polygon fill="none" stroke="#d1d5db" points="316,-603.25 316,-635 395.75,-635 395.75,-603.25 316,-603.25"/>
<text xml:space="preserve" text-anchor="start" x="335.25" y="-614.25" font-family="Arial" font-size="14.00">129.00</text>
<polygon fill="none" stroke="#d1d5db" points="395.75,-603.25 395.75,-635 466.5,-635 466.5,-603.25 395.75,-603.25"/>
<text xml:space="preserve" text-anchor="start" x="410.88" y="-614.25" font-family="Arial" font-size="14.00">117.16</text>
<polygon fill="none" stroke="#d1d5db" points="466.5,-603.25 466.5,-635 537.25,-635 537.25,-603.25 466.5,-603.25"/>
<text xml:space="preserve" text-anchor="start" x="485.38" y="-614.25" font-family="Arial" font-size="14.00">11.84</text>
<polygon fill="none" stroke="#d1d5db" points="0,-571.5 0,-603.25 121,-603.25 121,-571.5 0,-571.5"/>
<text xml:space="preserve" text-anchor="start" x="8" y="-582.5" font-family="Arial" font-size="14.00">05/30/2026 18:01</text>
<polygon fill="none" stroke="#d1d5db" points="121,-571.5 121,-603.25 179,-603.25 179,-571.5 121,-571.5"/>
<text xml:space="preserve" text-anchor="start" x="129" y="-583.62" font-family="Arial" font-size="11.00">7648612</text>
<polygon fill="#fee2e2" stroke="none" points="179,-571.5 179,-603.25 244.5,-603.25 244.5,-571.5 179,-571.5"/>
<polygon fill="none" stroke="#d1d5db" points="179,-571.5 179,-603.25 244.5,-603.25 244.5,-571.5 179,-571.5"/>
<text xml:space="preserve" text-anchor="start" x="197.12" y="-582.95" font-family="Arial" font-weight="bold" font-size="14.00" fill="#991b1b">FAIL</text>
<polygon fill="none" stroke="#d1d5db" points="244.5,-571.5 244.5,-603.25 316,-603.25 316,-571.5 244.5,-571.5"/>
<text xml:space="preserve" text-anchor="start" x="261.12" y="-582.5" font-family="Arial" font-size="14.00">15.0m</text>
<polygon fill="none" stroke="#d1d5db" points="316,-571.5 316,-603.25 395.75,-603.25 395.75,-571.5 316,-571.5"/>
<text xml:space="preserve" text-anchor="start" x="335.25" y="-582.5" font-family="Arial" font-size="14.00">129.00</text>
<polygon fill="none" stroke="#d1d5db" points="395.75,-571.5 395.75,-603.25 466.5,-603.25 466.5,-571.5 395.75,-571.5"/>
<text xml:space="preserve" text-anchor="start" x="410.88" y="-582.5" font-family="Arial" font-size="14.00">117.16</text>
<polygon fill="none" stroke="#d1d5db" points="466.5,-571.5 466.5,-603.25 537.25,-603.25 537.25,-571.5 466.5,-571.5"/>
<text xml:space="preserve" text-anchor="start" x="485.38" y="-582.5" font-family="Arial" font-size="14.00">11.84</text>
<polygon fill="none" stroke="#d1d5db" points="0,-539.75 0,-571.5 121,-571.5 121,-539.75 0,-539.75"/>
<text xml:space="preserve" text-anchor="start" x="8" y="-550.75" font-family="Arial" font-size="14.00">05/30/2026 17:43</text>
<polygon fill="none" stroke="#d1d5db" points="121,-539.75 121,-571.5 179,-571.5 179,-539.75 121,-539.75"/>
<text xml:space="preserve" text-anchor="start" x="129" y="-551.88" font-family="Arial" font-size="11.00">7648492</text>
<polygon fill="#fee2e2" stroke="none" points="179,-539.75 179,-571.5 244.5,-571.5 244.5,-539.75 179,-539.75"/>
<polygon fill="none" stroke="#d1d5db" points="179,-539.75 179,-571.5 244.5,-571.5 244.5,-539.75 179,-539.75"/>
<text xml:space="preserve" text-anchor="start" x="197.12" y="-551.2" font-family="Arial" font-weight="bold" font-size="14.00" fill="#991b1b">FAIL</text>
<polygon fill="none" stroke="#d1d5db" points="244.5,-539.75 244.5,-571.5 316,-571.5 316,-539.75 244.5,-539.75"/>
<text xml:space="preserve" text-anchor="start" x="261.12" y="-550.75" font-family="Arial" font-size="14.00">15.0m</text>
<polygon fill="none" stroke="#d1d5db" points="316,-539.75 316,-571.5 395.75,-571.5 395.75,-539.75 316,-539.75"/>
<text xml:space="preserve" text-anchor="start" x="335.25" y="-550.75" font-family="Arial" font-size="14.00">225.99</text>
<polygon fill="none" stroke="#d1d5db" points="395.75,-539.75 395.75,-571.5 466.5,-571.5 466.5,-539.75 395.75,-539.75"/>
<text xml:space="preserve" text-anchor="start" x="414.25" y="-550.75" font-family="Arial" font-size="14.00">94.35</text>
<polygon fill="none" stroke="#d1d5db" points="466.5,-539.75 466.5,-571.5 537.25,-571.5 537.25,-539.75 466.5,-539.75"/>
<text xml:space="preserve" text-anchor="start" x="481.25" y="-550.75" font-family="Arial" font-size="14.00">131.64</text>
<polygon fill="none" stroke="#d1d5db" points="0,-508 0,-539.75 121,-539.75 121,-508 0,-508"/>
<text xml:space="preserve" text-anchor="start" x="8" y="-519" font-family="Arial" font-size="14.00">05/30/2026 17:37</text>
<polygon fill="none" stroke="#d1d5db" points="121,-508 121,-539.75 179,-539.75 179,-508 121,-508"/>
<text xml:space="preserve" text-anchor="start" x="129" y="-520.12" font-family="Arial" font-size="11.00">7648480</text>
<polygon fill="#fef3c7" stroke="none" points="179,-508 179,-539.75 244.5,-539.75 244.5,-508 179,-508"/>
<polygon fill="none" stroke="#d1d5db" points="179,-508 179,-539.75 244.5,-539.75 244.5,-508 179,-508"/>
<text xml:space="preserve" text-anchor="start" x="187" y="-519.45" font-family="Arial" font-weight="bold" font-size="14.00" fill="#92400e">ERROR</text>
<polygon fill="none" stroke="#d1d5db" points="244.5,-508 244.5,-539.75 316,-539.75 316,-508 244.5,-508"/>
<text xml:space="preserve" text-anchor="start" x="264.88" y="-519" font-family="Arial" font-size="14.00">1.8m</text>
<polygon fill="none" stroke="#d1d5db" points="316,-508 316,-539.75 395.75,-539.75 395.75,-508 316,-508"/>
<text xml:space="preserve" text-anchor="start" x="339" y="-519" font-family="Arial" font-size="14.00">30.05</text>
<polygon fill="none" stroke="#d1d5db" points="395.75,-508 395.75,-539.75 466.5,-539.75 466.5,-508 395.75,-508"/>
<text xml:space="preserve" text-anchor="start" x="414.25" y="-519" font-family="Arial" font-size="14.00">12.55</text>
<polygon fill="none" stroke="#d1d5db" points="466.5,-508 466.5,-539.75 537.25,-539.75 537.25,-508 466.5,-508"/>
<text xml:space="preserve" text-anchor="start" x="485" y="-519" font-family="Arial" font-size="14.00">17.50</text>
<polygon fill="none" stroke="#d1d5db" points="0,-476.25 0,-508 121,-508 121,-476.25 0,-476.25"/>
<text xml:space="preserve" text-anchor="start" x="8" y="-487.25" font-family="Arial" font-size="14.00">05/30/2026 17:36</text>
<polygon fill="none" stroke="#d1d5db" points="121,-476.25 121,-508 179,-508 179,-476.25 121,-476.25"/>
<text xml:space="preserve" text-anchor="start" x="129" y="-488.38" font-family="Arial" font-size="11.00">7648472</text>
<polygon fill="#fef3c7" stroke="none" points="179,-476.25 179,-508 244.5,-508 244.5,-476.25 179,-476.25"/>
<polygon fill="none" stroke="#d1d5db" points="179,-476.25 179,-508 244.5,-508 244.5,-476.25 179,-476.25"/>
<text xml:space="preserve" text-anchor="start" x="187" y="-487.7" font-family="Arial" font-weight="bold" font-size="14.00" fill="#92400e">ERROR</text>
<polygon fill="none" stroke="#d1d5db" points="244.5,-476.25 244.5,-508 316,-508 316,-476.25 244.5,-476.25"/>
<text xml:space="preserve" text-anchor="start" x="264.88" y="-487.25" font-family="Arial" font-size="14.00">0.5m</text>
<polygon fill="none" stroke="#d1d5db" points="316,-476.25 316,-508 395.75,-508 395.75,-476.25 316,-476.25"/>
<text xml:space="preserve" text-anchor="start" x="342.75" y="-487.25" font-family="Arial" font-size="14.00">7.73</text>
<polygon fill="none" stroke="#d1d5db" points="395.75,-476.25 395.75,-508 466.5,-508 466.5,-476.25 395.75,-476.25"/>
<text xml:space="preserve" text-anchor="start" x="418" y="-487.25" font-family="Arial" font-size="14.00">3.23</text>
<polygon fill="none" stroke="#d1d5db" points="466.5,-476.25 466.5,-508 537.25,-508 537.25,-476.25 466.5,-476.25"/>
<text xml:space="preserve" text-anchor="start" x="488.75" y="-487.25" font-family="Arial" font-size="14.00">4.50</text>
<polygon fill="none" stroke="#d1d5db" points="0,-444.5 0,-476.25 121,-476.25 121,-444.5 0,-444.5"/>
<text xml:space="preserve" text-anchor="start" x="8" y="-455.5" font-family="Arial" font-size="14.00">05/30/2026 16:55</text>
<polygon fill="none" stroke="#d1d5db" points="121,-444.5 121,-476.25 179,-476.25 179,-444.5 121,-444.5"/>
<text xml:space="preserve" text-anchor="start" x="129" y="-456.62" font-family="Arial" font-size="11.00">7648337</text>
<polygon fill="#dcfce7" stroke="none" points="179,-444.5 179,-476.25 244.5,-476.25 244.5,-444.5 179,-444.5"/>
<polygon fill="none" stroke="#d1d5db" points="179,-444.5 179,-476.25 244.5,-476.25 244.5,-444.5 179,-444.5"/>
<text xml:space="preserve" text-anchor="start" x="193.75" y="-455.95" font-family="Arial" font-weight="bold" font-size="14.00" fill="#166534">PASS</text>
<polygon fill="none" stroke="#d1d5db" points="244.5,-444.5 244.5,-476.25 316,-476.25 316,-444.5 244.5,-444.5"/>
<text xml:space="preserve" text-anchor="start" x="261.12" y="-455.5" font-family="Arial" font-size="14.00">10.0m</text>
<polygon fill="none" stroke="#d1d5db" points="316,-444.5 316,-476.25 395.75,-476.25 395.75,-444.5 316,-444.5"/>
<text xml:space="preserve" text-anchor="start" x="339" y="-455.5" font-family="Arial" font-size="14.00">80.01</text>
<polygon fill="none" stroke="#d1d5db" points="395.75,-444.5 395.75,-476.25 466.5,-476.25 466.5,-444.5 395.75,-444.5"/>
<text xml:space="preserve" text-anchor="start" x="414.25" y="-455.5" font-family="Arial" font-size="14.00">71.67</text>
<polygon fill="none" stroke="#d1d5db" points="466.5,-444.5 466.5,-476.25 537.25,-476.25 537.25,-444.5 466.5,-444.5"/>
<text xml:space="preserve" text-anchor="start" x="488.75" y="-455.5" font-family="Arial" font-size="14.00">8.34</text>
<polygon fill="none" stroke="#d1d5db" points="0,-412.75 0,-444.5 121,-444.5 121,-412.75 0,-412.75"/>
<text xml:space="preserve" text-anchor="start" x="8" y="-423.75" font-family="Arial" font-size="14.00">05/30/2026 16:50</text>
<polygon fill="none" stroke="#d1d5db" points="121,-412.75 121,-444.5 179,-444.5 179,-412.75 121,-412.75"/>
<text xml:space="preserve" text-anchor="start" x="129" y="-424.88" font-family="Arial" font-size="11.00">7648323</text>
<polygon fill="#fef3c7" stroke="none" points="179,-412.75 179,-444.5 244.5,-444.5 244.5,-412.75 179,-412.75"/>
<polygon fill="none" stroke="#d1d5db" points="179,-412.75 179,-444.5 244.5,-444.5 244.5,-412.75 179,-412.75"/>
<text xml:space="preserve" text-anchor="start" x="187" y="-424.2" font-family="Arial" font-weight="bold" font-size="14.00" fill="#92400e">ERROR</text>
<polygon fill="none" stroke="#d1d5db" points="244.5,-412.75 244.5,-444.5 316,-444.5 316,-412.75 244.5,-412.75"/>
<text xml:space="preserve" text-anchor="start" x="264.88" y="-423.75" font-family="Arial" font-size="14.00">1.6m</text>
<polygon fill="none" stroke="#d1d5db" points="316,-412.75 316,-444.5 395.75,-444.5 395.75,-412.75 316,-412.75"/>
<text xml:space="preserve" text-anchor="start" x="339" y="-423.75" font-family="Arial" font-size="14.00">12.41</text>
<polygon fill="none" stroke="#d1d5db" points="395.75,-412.75 395.75,-444.5 466.5,-444.5 466.5,-412.75 395.75,-412.75"/>
<text xml:space="preserve" text-anchor="start" x="415" y="-423.75" font-family="Arial" font-size="14.00">11.11</text>
<polygon fill="none" stroke="#d1d5db" points="466.5,-412.75 466.5,-444.5 537.25,-444.5 537.25,-412.75 466.5,-412.75"/>
<text xml:space="preserve" text-anchor="start" x="488.75" y="-423.75" font-family="Arial" font-size="14.00">1.30</text>
<polygon fill="none" stroke="#d1d5db" points="0,-381 0,-412.75 121,-412.75 121,-381 0,-381"/>
<text xml:space="preserve" text-anchor="start" x="8" y="-392" font-family="Arial" font-size="14.00">05/30/2026 16:45</text>
<polygon fill="none" stroke="#d1d5db" points="121,-381 121,-412.75 179,-412.75 179,-381 121,-381"/>
<text xml:space="preserve" text-anchor="start" x="129" y="-393.12" font-family="Arial" font-size="11.00">7648315</text>
<polygon fill="#fef3c7" stroke="none" points="179,-381 179,-412.75 244.5,-412.75 244.5,-381 179,-381"/>
<polygon fill="none" stroke="#d1d5db" points="179,-381 179,-412.75 244.5,-412.75 244.5,-381 179,-381"/>
<text xml:space="preserve" text-anchor="start" x="187" y="-392.45" font-family="Arial" font-weight="bold" font-size="14.00" fill="#92400e">ERROR</text>
<polygon fill="none" stroke="#d1d5db" points="244.5,-381 244.5,-412.75 316,-412.75 316,-381 244.5,-381"/>
<text xml:space="preserve" text-anchor="start" x="264.88" y="-392" font-family="Arial" font-size="14.00">1.4m</text>
<polygon fill="none" stroke="#d1d5db" points="316,-381 316,-412.75 395.75,-412.75 395.75,-381 316,-381"/>
<text xml:space="preserve" text-anchor="start" x="339" y="-392" font-family="Arial" font-size="14.00">15.24</text>
<polygon fill="none" stroke="#d1d5db" points="395.75,-381 395.75,-412.75 466.5,-412.75 466.5,-381 395.75,-381"/>
<text xml:space="preserve" text-anchor="start" x="414.25" y="-392" font-family="Arial" font-size="14.00">10.40</text>
<polygon fill="none" stroke="#d1d5db" points="466.5,-381 466.5,-412.75 537.25,-412.75 537.25,-381 466.5,-381"/>
<text xml:space="preserve" text-anchor="start" x="488.75" y="-392" font-family="Arial" font-size="14.00">4.84</text>
<polygon fill="none" stroke="#d1d5db" points="0,-349.25 0,-381 121,-381 121,-349.25 0,-349.25"/>
<text xml:space="preserve" text-anchor="start" x="8" y="-360.25" font-family="Arial" font-size="14.00">05/30/2026 16:23</text>
<polygon fill="none" stroke="#d1d5db" points="121,-349.25 121,-381 179,-381 179,-349.25 121,-349.25"/>
<text xml:space="preserve" text-anchor="start" x="129" y="-361.38" font-family="Arial" font-size="11.00">7648249</text>
<polygon fill="#fee2e2" stroke="none" points="179,-349.25 179,-381 244.5,-381 244.5,-349.25 179,-349.25"/>
<polygon fill="none" stroke="#d1d5db" points="179,-349.25 179,-381 244.5,-381 244.5,-349.25 179,-349.25"/>
<text xml:space="preserve" text-anchor="start" x="197.12" y="-360.7" font-family="Arial" font-weight="bold" font-size="14.00" fill="#991b1b">FAIL</text>
<polygon fill="none" stroke="#d1d5db" points="244.5,-349.25 244.5,-381 316,-381 316,-349.25 244.5,-349.25"/>
<text xml:space="preserve" text-anchor="start" x="261.12" y="-360.25" font-family="Arial" font-size="14.00">10.0m</text>
<polygon fill="none" stroke="#d1d5db" points="316,-349.25 316,-381 395.75,-381 395.75,-349.25 316,-349.25"/>
<text xml:space="preserve" text-anchor="start" x="335.25" y="-360.25" font-family="Arial" font-size="14.00">157.34</text>
<polygon fill="none" stroke="#d1d5db" points="395.75,-349.25 395.75,-381 466.5,-381 466.5,-349.25 395.75,-349.25"/>
<text xml:space="preserve" text-anchor="start" x="414.25" y="-360.25" font-family="Arial" font-size="14.00">65.69</text>
<polygon fill="none" stroke="#d1d5db" points="466.5,-349.25 466.5,-381 537.25,-381 537.25,-349.25 466.5,-349.25"/>
<text xml:space="preserve" text-anchor="start" x="485" y="-360.25" font-family="Arial" font-size="14.00">91.65</text>
<polygon fill="none" stroke="#d1d5db" points="0,-317.5 0,-349.25 121,-349.25 121,-317.5 0,-317.5"/>
<text xml:space="preserve" text-anchor="start" x="8" y="-328.5" font-family="Arial" font-size="14.00">05/30/2026 16:20</text>
<polygon fill="none" stroke="#d1d5db" points="121,-317.5 121,-349.25 179,-349.25 179,-317.5 121,-317.5"/>
<text xml:space="preserve" text-anchor="start" x="129" y="-329.62" font-family="Arial" font-size="11.00">7648230</text>
<polygon fill="#fef3c7" stroke="none" points="179,-317.5 179,-349.25 244.5,-349.25 244.5,-317.5 179,-317.5"/>
<polygon fill="none" stroke="#d1d5db" points="179,-317.5 179,-349.25 244.5,-349.25 244.5,-317.5 179,-317.5"/>
<text xml:space="preserve" text-anchor="start" x="187" y="-328.95" font-family="Arial" font-weight="bold" font-size="14.00" fill="#92400e">ERROR</text>
<polygon fill="none" stroke="#d1d5db" points="244.5,-317.5 244.5,-349.25 316,-349.25 316,-317.5 244.5,-317.5"/>
<text xml:space="preserve" text-anchor="start" x="264.88" y="-328.5" font-family="Arial" font-size="14.00">0.5m</text>
<polygon fill="none" stroke="#d1d5db" points="316,-317.5 316,-349.25 395.75,-349.25 395.75,-317.5 316,-317.5"/>
<text xml:space="preserve" text-anchor="start" x="342.75" y="-328.5" font-family="Arial" font-size="14.00">7.73</text>
<polygon fill="none" stroke="#d1d5db" points="395.75,-317.5 395.75,-349.25 466.5,-349.25 466.5,-317.5 395.75,-317.5"/>
<text xml:space="preserve" text-anchor="start" x="418" y="-328.5" font-family="Arial" font-size="14.00">3.23</text>
<polygon fill="none" stroke="#d1d5db" points="466.5,-317.5 466.5,-349.25 537.25,-349.25 537.25,-317.5 466.5,-317.5"/>
<text xml:space="preserve" text-anchor="start" x="488.75" y="-328.5" font-family="Arial" font-size="14.00">4.50</text>
<polygon fill="none" stroke="#d1d5db" points="0,-285.75 0,-317.5 121,-317.5 121,-285.75 0,-285.75"/>
<text xml:space="preserve" text-anchor="start" x="8" y="-296.75" font-family="Arial" font-size="14.00">05/30/2026 15:46</text>
<polygon fill="none" stroke="#d1d5db" points="121,-285.75 121,-317.5 179,-317.5 179,-285.75 121,-285.75"/>
<text xml:space="preserve" text-anchor="start" x="129" y="-297.88" font-family="Arial" font-size="11.00">7648063</text>
<polygon fill="#fee2e2" stroke="none" points="179,-285.75 179,-317.5 244.5,-317.5 244.5,-285.75 179,-285.75"/>
<polygon fill="none" stroke="#d1d5db" points="179,-285.75 179,-317.5 244.5,-317.5 244.5,-285.75 179,-285.75"/>
<text xml:space="preserve" text-anchor="start" x="197.12" y="-297.2" font-family="Arial" font-weight="bold" font-size="14.00" fill="#991b1b">FAIL</text>
<polygon fill="none" stroke="#d1d5db" points="244.5,-285.75 244.5,-317.5 316,-317.5 316,-285.75 244.5,-285.75"/>
<text xml:space="preserve" text-anchor="start" x="261.12" y="-296.75" font-family="Arial" font-size="14.00">10.0m</text>
<polygon fill="none" stroke="#d1d5db" points="316,-285.75 316,-317.5 395.75,-317.5 395.75,-285.75 316,-285.75"/>
<text xml:space="preserve" text-anchor="start" x="335.25" y="-296.75" font-family="Arial" font-size="14.00">157.34</text>
<polygon fill="none" stroke="#d1d5db" points="395.75,-285.75 395.75,-317.5 466.5,-317.5 466.5,-285.75 395.75,-285.75"/>
<text xml:space="preserve" text-anchor="start" x="414.25" y="-296.75" font-family="Arial" font-size="14.00">65.69</text>
<polygon fill="none" stroke="#d1d5db" points="466.5,-285.75 466.5,-317.5 537.25,-317.5 537.25,-285.75 466.5,-285.75"/>
<text xml:space="preserve" text-anchor="start" x="485" y="-296.75" font-family="Arial" font-size="14.00">91.65</text>
<polygon fill="none" stroke="#d1d5db" points="0,-254 0,-285.75 121,-285.75 121,-254 0,-254"/>
<text xml:space="preserve" text-anchor="start" x="8" y="-265" font-family="Arial" font-size="14.00">05/30/2026 14:56</text>
<polygon fill="none" stroke="#d1d5db" points="121,-254 121,-285.75 179,-285.75 179,-254 121,-254"/>
<text xml:space="preserve" text-anchor="start" x="129" y="-266.12" font-family="Arial" font-size="11.00">7647787</text>
<polygon fill="#dcfce7" stroke="none" points="179,-254 179,-285.75 244.5,-285.75 244.5,-254 179,-254"/>
<polygon fill="none" stroke="#d1d5db" points="179,-254 179,-285.75 244.5,-285.75 244.5,-254 179,-254"/>
<text xml:space="preserve" text-anchor="start" x="193.75" y="-265.45" font-family="Arial" font-weight="bold" font-size="14.00" fill="#166534">PASS</text>
<polygon fill="none" stroke="#d1d5db" points="244.5,-254 244.5,-285.75 316,-285.75 316,-254 244.5,-254"/>
<text xml:space="preserve" text-anchor="start" x="261.12" y="-265" font-family="Arial" font-size="14.00">10.0m</text>
<polygon fill="none" stroke="#d1d5db" points="316,-254 316,-285.75 395.75,-285.75 395.75,-254 316,-254"/>
<text xml:space="preserve" text-anchor="start" x="339" y="-265" font-family="Arial" font-size="14.00">73.34</text>
<polygon fill="none" stroke="#d1d5db" points="395.75,-254 395.75,-285.75 466.5,-285.75 466.5,-254 395.75,-254"/>
<text xml:space="preserve" text-anchor="start" x="414.25" y="-265" font-family="Arial" font-size="14.00">71.67</text>
<polygon fill="none" stroke="#d1d5db" points="466.5,-254 466.5,-285.75 537.25,-285.75 537.25,-254 466.5,-254"/>
<text xml:space="preserve" text-anchor="start" x="488.75" y="-265" font-family="Arial" font-size="14.00">1.67</text>
<polygon fill="none" stroke="#d1d5db" points="0,-222.25 0,-254 121,-254 121,-222.25 0,-222.25"/>
<text xml:space="preserve" text-anchor="start" x="8" y="-233.25" font-family="Arial" font-size="14.00">05/30/2026 14:40</text>
<polygon fill="none" stroke="#d1d5db" points="121,-222.25 121,-254 179,-254 179,-222.25 121,-222.25"/>
<text xml:space="preserve" text-anchor="start" x="129" y="-234.38" font-family="Arial" font-size="11.00">7647743</text>
<polygon fill="#dcfce7" stroke="none" points="179,-222.25 179,-254 244.5,-254 244.5,-222.25 179,-222.25"/>
<polygon fill="none" stroke="#d1d5db" points="179,-222.25 179,-254 244.5,-254 244.5,-222.25 179,-222.25"/>
<text xml:space="preserve" text-anchor="start" x="193.75" y="-233.7" font-family="Arial" font-weight="bold" font-size="14.00" fill="#166534">PASS</text>
<polygon fill="none" stroke="#d1d5db" points="244.5,-222.25 244.5,-254 316,-254 316,-222.25 244.5,-222.25"/>
<text xml:space="preserve" text-anchor="start" x="261.12" y="-233.25" font-family="Arial" font-size="14.00">10.0m</text>
<polygon fill="none" stroke="#d1d5db" points="316,-222.25 316,-254 395.75,-254 395.75,-222.25 316,-222.25"/>
<text xml:space="preserve" text-anchor="start" x="339" y="-233.25" font-family="Arial" font-size="14.00">18.01</text>
<polygon fill="none" stroke="#d1d5db" points="395.75,-222.25 395.75,-254 466.5,-254 466.5,-222.25 395.75,-222.25"/>
<text xml:space="preserve" text-anchor="start" x="414.25" y="-233.25" font-family="Arial" font-size="14.00">16.34</text>
<polygon fill="none" stroke="#d1d5db" points="466.5,-222.25 466.5,-254 537.25,-254 537.25,-222.25 466.5,-222.25"/>
<text xml:space="preserve" text-anchor="start" x="488.75" y="-233.25" font-family="Arial" font-size="14.00">1.67</text>
<polygon fill="none" stroke="#d1d5db" points="0,-190.5 0,-222.25 121,-222.25 121,-190.5 0,-190.5"/>
<text xml:space="preserve" text-anchor="start" x="8" y="-201.5" font-family="Arial" font-size="14.00">05/30/2026 10:55</text>
<polygon fill="none" stroke="#d1d5db" points="121,-190.5 121,-222.25 179,-222.25 179,-190.5 121,-190.5"/>
<text xml:space="preserve" text-anchor="start" x="129" y="-202.62" font-family="Arial" font-size="11.00">7646958</text>
<polygon fill="#dcfce7" stroke="none" points="179,-190.5 179,-222.25 244.5,-222.25 244.5,-190.5 179,-190.5"/>
<polygon fill="none" stroke="#d1d5db" points="179,-190.5 179,-222.25 244.5,-222.25 244.5,-190.5 179,-190.5"/>
<text xml:space="preserve" text-anchor="start" x="193.75" y="-201.95" font-family="Arial" font-weight="bold" font-size="14.00" fill="#166534">PASS</text>
<polygon fill="none" stroke="#d1d5db" points="244.5,-190.5 244.5,-222.25 316,-222.25 316,-190.5 244.5,-190.5"/>
<text xml:space="preserve" text-anchor="start" x="264.88" y="-201.5" font-family="Arial" font-size="14.00">8.5m</text>
<polygon fill="none" stroke="#d1d5db" points="316,-190.5 316,-222.25 395.75,-222.25 395.75,-190.5 316,-190.5"/>
<text xml:space="preserve" text-anchor="start" x="339" y="-201.5" font-family="Arial" font-size="14.00">12.75</text>
<polygon fill="none" stroke="#d1d5db" points="395.75,-190.5 395.75,-222.25 466.5,-222.25 466.5,-190.5 395.75,-190.5"/>
<text xml:space="preserve" text-anchor="start" x="414.25" y="-201.5" font-family="Arial" font-size="14.00">12.75</text>
<polygon fill="none" stroke="#d1d5db" points="466.5,-190.5 466.5,-222.25 537.25,-222.25 537.25,-190.5 466.5,-190.5"/>
<text xml:space="preserve" text-anchor="start" x="488.75" y="-201.5" font-family="Arial" font-size="14.00">0.00</text>
<polygon fill="none" stroke="#d1d5db" points="0,-158.75 0,-190.5 121,-190.5 121,-158.75 0,-158.75"/>
<text xml:space="preserve" text-anchor="start" x="8" y="-169.75" font-family="Arial" font-size="14.00">05/30/2026 10:29</text>
<polygon fill="none" stroke="#d1d5db" points="121,-158.75 121,-190.5 179,-190.5 179,-158.75 121,-158.75"/>
<text xml:space="preserve" text-anchor="start" x="129" y="-170.88" font-family="Arial" font-size="11.00">7646874</text>
<polygon fill="#dcfce7" stroke="none" points="179,-158.75 179,-190.5 244.5,-190.5 244.5,-158.75 179,-158.75"/>
<polygon fill="none" stroke="#d1d5db" points="179,-158.75 179,-190.5 244.5,-190.5 244.5,-158.75 179,-158.75"/>
<text xml:space="preserve" text-anchor="start" x="193.75" y="-170.2" font-family="Arial" font-weight="bold" font-size="14.00" fill="#166534">PASS</text>
<polygon fill="none" stroke="#d1d5db" points="244.5,-158.75 244.5,-190.5 316,-190.5 316,-158.75 244.5,-158.75"/>
<text xml:space="preserve" text-anchor="start" x="264.88" y="-169.75" font-family="Arial" font-size="14.00">8.5m</text>
<polygon fill="none" stroke="#d1d5db" points="316,-158.75 316,-190.5 395.75,-190.5 395.75,-158.75 316,-158.75"/>
<text xml:space="preserve" text-anchor="start" x="342.75" y="-169.75" font-family="Arial" font-size="14.00">6.38</text>
<polygon fill="none" stroke="#d1d5db" points="395.75,-158.75 395.75,-190.5 466.5,-190.5 466.5,-158.75 395.75,-158.75"/>
<text xml:space="preserve" text-anchor="start" x="418" y="-169.75" font-family="Arial" font-size="14.00">6.38</text>
<polygon fill="none" stroke="#d1d5db" points="466.5,-158.75 466.5,-190.5 537.25,-190.5 537.25,-158.75 466.5,-158.75"/>
<text xml:space="preserve" text-anchor="start" x="488.75" y="-169.75" font-family="Arial" font-size="14.00">0.00</text>
<polygon fill="none" stroke="#d1d5db" points="0,-127 0,-158.75 121,-158.75 121,-127 0,-127"/>
<text xml:space="preserve" text-anchor="start" x="8" y="-138" font-family="Arial" font-size="14.00">05/27/2026 13:05</text>
<polygon fill="none" stroke="#d1d5db" points="121,-127 121,-158.75 179,-158.75 179,-127 121,-127"/>
<text xml:space="preserve" text-anchor="start" x="129" y="-139.12" font-family="Arial" font-size="11.00">7627516</text>
<polygon fill="#fee2e2" stroke="none" points="179,-127 179,-158.75 244.5,-158.75 244.5,-127 179,-127"/>
<polygon fill="none" stroke="#d1d5db" points="179,-127 179,-158.75 244.5,-158.75 244.5,-127 179,-127"/>
<text xml:space="preserve" text-anchor="start" x="197.12" y="-138.45" font-family="Arial" font-weight="bold" font-size="14.00" fill="#991b1b">FAIL</text>
<polygon fill="none" stroke="#d1d5db" points="244.5,-127 244.5,-158.75 316,-158.75 316,-127 244.5,-127"/>
<text xml:space="preserve" text-anchor="start" x="264.88" y="-138" font-family="Arial" font-size="14.00">8.5m</text>
<polygon fill="none" stroke="#d1d5db" points="316,-127 316,-158.75 395.75,-158.75 395.75,-127 316,-127"/>
<text xml:space="preserve" text-anchor="start" x="342.75" y="-138" font-family="Arial" font-size="14.00">6.38</text>
<polygon fill="none" stroke="#d1d5db" points="395.75,-127 395.75,-158.75 466.5,-158.75 466.5,-127 395.75,-127"/>
<text xml:space="preserve" text-anchor="start" x="418" y="-138" font-family="Arial" font-size="14.00">6.38</text>
<polygon fill="none" stroke="#d1d5db" points="466.5,-127 466.5,-158.75 537.25,-158.75 537.25,-127 466.5,-127"/>
<text xml:space="preserve" text-anchor="start" x="488.75" y="-138" font-family="Arial" font-size="14.00">0.00</text>
<polygon fill="none" stroke="#d1d5db" points="0,-95.25 0,-127 121,-127 121,-95.25 0,-95.25"/>
<text xml:space="preserve" text-anchor="start" x="8" y="-106.25" font-family="Arial" font-size="14.00">05/27/2026 12:41</text>
<polygon fill="none" stroke="#d1d5db" points="121,-95.25 121,-127 179,-127 179,-95.25 121,-95.25"/>
<text xml:space="preserve" text-anchor="start" x="129" y="-107.38" font-family="Arial" font-size="11.00">7627390</text>
<polygon fill="#fee2e2" stroke="none" points="179,-95.25 179,-127 244.5,-127 244.5,-95.25 179,-95.25"/>
<polygon fill="none" stroke="#d1d5db" points="179,-95.25 179,-127 244.5,-127 244.5,-95.25 179,-95.25"/>
<text xml:space="preserve" text-anchor="start" x="197.12" y="-106.7" font-family="Arial" font-weight="bold" font-size="14.00" fill="#991b1b">FAIL</text>
<polygon fill="none" stroke="#d1d5db" points="244.5,-95.25 244.5,-127 316,-127 316,-95.25 244.5,-95.25"/>
<text xml:space="preserve" text-anchor="start" x="264.88" y="-106.25" font-family="Arial" font-size="14.00">8.5m</text>
<polygon fill="none" stroke="#d1d5db" points="316,-95.25 316,-127 395.75,-127 395.75,-95.25 316,-95.25"/>
<text xml:space="preserve" text-anchor="start" x="342.75" y="-106.25" font-family="Arial" font-size="14.00">6.38</text>
<polygon fill="none" stroke="#d1d5db" points="395.75,-95.25 395.75,-127 466.5,-127 466.5,-95.25 395.75,-95.25"/>
<text xml:space="preserve" text-anchor="start" x="418" y="-106.25" font-family="Arial" font-size="14.00">6.38</text>
<polygon fill="none" stroke="#d1d5db" points="466.5,-95.25 466.5,-127 537.25,-127 537.25,-95.25 466.5,-95.25"/>
<text xml:space="preserve" text-anchor="start" x="488.75" y="-106.25" font-family="Arial" font-size="14.00">0.00</text>
<polygon fill="none" stroke="#d1d5db" points="0,-63.5 0,-95.25 121,-95.25 121,-63.5 0,-63.5"/>
<text xml:space="preserve" text-anchor="start" x="8" y="-74.5" font-family="Arial" font-size="14.00">05/27/2026 12:06</text>
<polygon fill="none" stroke="#d1d5db" points="121,-63.5 121,-95.25 179,-95.25 179,-63.5 121,-63.5"/>
<text xml:space="preserve" text-anchor="start" x="129" y="-75.62" font-family="Arial" font-size="11.00">7627249</text>
<polygon fill="#dcfce7" stroke="none" points="179,-63.5 179,-95.25 244.5,-95.25 244.5,-63.5 179,-63.5"/>
<polygon fill="none" stroke="#d1d5db" points="179,-63.5 179,-95.25 244.5,-95.25 244.5,-63.5 179,-63.5"/>
<text xml:space="preserve" text-anchor="start" x="193.75" y="-74.95" font-family="Arial" font-weight="bold" font-size="14.00" fill="#166534">PASS</text>
<polygon fill="none" stroke="#d1d5db" points="244.5,-63.5 244.5,-95.25 316,-95.25 316,-63.5 244.5,-63.5"/>
<text xml:space="preserve" text-anchor="start" x="264.88" y="-74.5" font-family="Arial" font-size="14.00">8.5m</text>
<polygon fill="none" stroke="#d1d5db" points="316,-63.5 316,-95.25 395.75,-95.25 395.75,-63.5 316,-63.5"/>
<text xml:space="preserve" text-anchor="start" x="342.75" y="-74.5" font-family="Arial" font-size="14.00">6.38</text>
<polygon fill="none" stroke="#d1d5db" points="395.75,-63.5 395.75,-95.25 466.5,-95.25 466.5,-63.5 395.75,-63.5"/>
<text xml:space="preserve" text-anchor="start" x="418" y="-74.5" font-family="Arial" font-size="14.00">6.38</text>
<polygon fill="none" stroke="#d1d5db" points="466.5,-63.5 466.5,-95.25 537.25,-95.25 537.25,-63.5 466.5,-63.5"/>
<text xml:space="preserve" text-anchor="start" x="488.75" y="-74.5" font-family="Arial" font-size="14.00">0.00</text>
<polygon fill="none" stroke="#d1d5db" points="0,-31.75 0,-63.5 121,-63.5 121,-31.75 0,-31.75"/>
<text xml:space="preserve" text-anchor="start" x="8" y="-42.75" font-family="Arial" font-size="14.00">05/25/2026 08:58</text>
<polygon fill="none" stroke="#d1d5db" points="121,-31.75 121,-63.5 179,-63.5 179,-31.75 121,-31.75"/>
<text xml:space="preserve" text-anchor="start" x="129" y="-43.88" font-family="Arial" font-size="11.00">7612573</text>
<polygon fill="#dcfce7" stroke="none" points="179,-31.75 179,-63.5 244.5,-63.5 244.5,-31.75 179,-31.75"/>
<polygon fill="none" stroke="#d1d5db" points="179,-31.75 179,-63.5 244.5,-63.5 244.5,-31.75 179,-31.75"/>
<text xml:space="preserve" text-anchor="start" x="193.75" y="-43.2" font-family="Arial" font-weight="bold" font-size="14.00" fill="#166534">PASS</text>
<polygon fill="none" stroke="#d1d5db" points="244.5,-31.75 244.5,-63.5 316,-63.5 316,-31.75 244.5,-31.75"/>
<text xml:space="preserve" text-anchor="start" x="264.88" y="-42.75" font-family="Arial" font-size="14.00">8.5m</text>
<polygon fill="none" stroke="#d1d5db" points="316,-31.75 316,-63.5 395.75,-63.5 395.75,-31.75 316,-31.75"/>
<text xml:space="preserve" text-anchor="start" x="342.75" y="-42.75" font-family="Arial" font-size="14.00">6.38</text>
<polygon fill="none" stroke="#d1d5db" points="395.75,-31.75 395.75,-63.5 466.5,-63.5 466.5,-31.75 395.75,-31.75"/>
<text xml:space="preserve" text-anchor="start" x="418" y="-42.75" font-family="Arial" font-size="14.00">6.38</text>
<polygon fill="none" stroke="#d1d5db" points="466.5,-31.75 466.5,-63.5 537.25,-63.5 537.25,-31.75 466.5,-31.75"/>
<text xml:space="preserve" text-anchor="start" x="488.75" y="-42.75" font-family="Arial" font-size="14.00">0.00</text>
<polygon fill="none" stroke="#d1d5db" points="0,0 0,-31.75 121,-31.75 121,0 0,0"/>
<text xml:space="preserve" text-anchor="start" x="8" y="-11" font-family="Arial" font-size="14.00">05/25/2026 08:57</text>
<polygon fill="none" stroke="#d1d5db" points="121,0 121,-31.75 179,-31.75 179,0 121,0"/>
<text xml:space="preserve" text-anchor="start" x="129" y="-12.12" font-family="Arial" font-size="11.00">7612567</text>
<polygon fill="#fef3c7" stroke="none" points="179,0 179,-31.75 244.5,-31.75 244.5,0 179,0"/>
<polygon fill="none" stroke="#d1d5db" points="179,0 179,-31.75 244.5,-31.75 244.5,0 179,0"/>
<text xml:space="preserve" text-anchor="start" x="187" y="-11.45" font-family="Arial" font-weight="bold" font-size="14.00" fill="#92400e">ERROR</text>
<polygon fill="none" stroke="#d1d5db" points="244.5,0 244.5,-31.75 316,-31.75 316,0 244.5,0"/>
<text xml:space="preserve" text-anchor="start" x="264.88" y="-11" font-family="Arial" font-size="14.00">0.6m</text>
<polygon fill="none" stroke="#d1d5db" points="316,0 316,-31.75 395.75,-31.75 395.75,0 316,0"/>
<text xml:space="preserve" text-anchor="start" x="342.75" y="-11" font-family="Arial" font-size="14.00">1.00</text>
<polygon fill="none" stroke="#d1d5db" points="395.75,0 395.75,-31.75 466.5,-31.75 466.5,0 395.75,0"/>
<text xml:space="preserve" text-anchor="start" x="418" y="-11" font-family="Arial" font-size="14.00">1.00</text>
<polygon fill="none" stroke="#d1d5db" points="466.5,0 466.5,-31.75 537.25,-31.75 537.25,0 466.5,0"/>
<text xml:space="preserve" text-anchor="start" x="488.75" y="-11" font-family="Arial" font-size="14.00">0.00</text>
</g>
<!-- summary -->
<g id="node2" class="node">
<title>summary</title>
<polygon fill="#f3f4f6" stroke="none" points="149.75,-901.25 149.75,-935 387.5,-935 387.5,-901.25 149.75,-901.25"/>
<polygon fill="none" stroke="#d1d5db" points="149.75,-901.25 149.75,-935 387.5,-935 387.5,-901.25 149.75,-901.25"/>
<text xml:space="preserve" text-anchor="start" x="237.12" y="-913.7" font-family="Arial" font-weight="bold" font-size="14.00">Summary</text>
<polygon fill="none" stroke="#d1d5db" points="149.75,-867.5 149.75,-901.25 387.5,-901.25 387.5,-867.5 149.75,-867.5"/>
<text xml:space="preserve" text-anchor="start" x="158.75" y="-879.5" font-family="Arial" font-size="14.00">Runs: 20</text>
<polygon fill="none" stroke="#d1d5db" points="149.75,-833.75 149.75,-867.5 387.5,-867.5 387.5,-833.75 149.75,-833.75"/>
<text xml:space="preserve" text-anchor="start" x="158.75" y="-845.75" font-family="Arial" font-size="14.00">Passed: 8</text>
<polygon fill="none" stroke="#d1d5db" points="149.75,-800 149.75,-833.75 387.5,-833.75 387.5,-800 149.75,-800"/>
<text xml:space="preserve" text-anchor="start" x="158.75" y="-812" font-family="Arial" font-size="14.00">Failed: 6</text>
<polygon fill="none" stroke="#d1d5db" points="149.75,-766.25 149.75,-800 387.5,-800 387.5,-766.25 149.75,-766.25"/>
<text xml:space="preserve" text-anchor="start" x="158.75" y="-778.25" font-family="Arial" font-size="14.00">Errors: 6</text>
<polygon fill="none" stroke="#d1d5db" points="149.75,-732.5 149.75,-766.25 387.5,-766.25 387.5,-732.5 149.75,-732.5"/>
<text xml:space="preserve" text-anchor="start" x="158.75" y="-744.5" font-family="Arial" font-size="14.00">Pass rate: 40%</text>
<polygon fill="none" stroke="#d1d5db" points="149.75,-698.75 149.75,-732.5 387.5,-732.5 387.5,-698.75 149.75,-698.75"/>
<text xml:space="preserve" text-anchor="start" x="158.75" y="-710.75" font-family="Arial" font-size="14.00">Latest passing 400&#45;VU run: 7648780</text>
</g>
<!-- summary&#45;&gt;runs -->
</g>
</svg>
