<?xml version="1.0" encoding="UTF-8" standalone="no"?>
<!DOCTYPE svg PUBLIC "-//W3C//DTD SVG 1.1//EN"
 "http://www.w3.org/Graphics/SVG/1.1/DTD/svg11.dtd">
<!-- Generated by graphviz version 15.0.0 (20260523.1842)
 -->
<!-- Title: traffic_spike_request_model Pages: 1 -->
<svg width="3458pt" height="444pt"
 viewBox="0.00 0.00 3458.00 444.00" xmlns="http://www.w3.org/2000/svg" xmlns:xlink="http://www.w3.org/1999/xlink">
<g id="graph0" class="graph" transform="scale(1 1) rotate(0) translate(4 439.5)">
<title>traffic_spike_request_model</title>
<polygon fill="white" stroke="none" points="-4,4 -4,-439.5 3453.5,-439.5 3453.5,4 -4,4"/>
<text xml:space="preserve" text-anchor="middle" x="1724.75" y="-410.6" font-family="Helvetica,sans-Serif" font-size="22.00">Traffic Spike Request and Counter Model</text>
<g id="clust1" class="cluster">
<title>cluster_personas</title>
<path fill="none" stroke="#cbd5e1" stroke-dasharray="5,2" d="M20,-24C20,-24 855,-24 855,-24 861,-24 867,-30 867,-36 867,-36 867,-124 867,-124 867,-130 861,-136 855,-136 855,-136 20,-136 20,-136 14,-136 8,-130 8,-124 8,-124 8,-36 8,-36 8,-30 14,-24 20,-24"/>
<text xml:space="preserve" text-anchor="middle" x="437.5" y="-116.8" font-family="Helvetica,sans-Serif" font-size="16.00">traffic_spikes persona mix</text>
</g>
<g id="clust2" class="cluster">
<title>cluster_stages</title>
<path fill="none" stroke="#cbd5e1" stroke-dasharray="5,2" d="M1544.62,-272C1544.62,-272 3429.5,-272 3429.5,-272 3435.5,-272 3441.5,-278 3441.5,-284 3441.5,-284 3441.5,-385 3441.5,-385 3441.5,-391 3435.5,-397 3429.5,-397 3429.5,-397 1544.62,-397 1544.62,-397 1538.62,-397 1532.62,-391 1532.62,-385 1532.62,-385 1532.62,-284 1532.62,-284 1532.62,-278 1538.62,-272 1544.62,-272"/>
<text xml:space="preserve" text-anchor="middle" x="2487.06" y="-377.8" font-family="Helvetica,sans-Serif" font-size="16.00">Current k6 stages from grafana&#45;cloud&#45;traffic&#45;spikes.js</text>
</g>
<g id="clust3" class="cluster">
<title>cluster_parallel</title>
<path fill="none" stroke="#cbd5e1" stroke-dasharray="5,2" d="M1443.75,-8C1443.75,-8 1759.25,-8 1759.25,-8 1765.25,-8 1771.25,-14 1771.25,-20 1771.25,-20 1771.25,-252 1771.25,-252 1771.25,-258 1765.25,-264 1759.25,-264 1759.25,-264 1443.75,-264 1443.75,-264 1437.75,-264 1431.75,-258 1431.75,-252 1431.75,-252 1431.75,-20 1431.75,-20 1431.75,-14 1437.75,-8 1443.75,-8"/>
<text xml:space="preserve" text-anchor="middle" x="1601.5" y="-244.8" font-family="Helvetica,sans-Serif" font-size="16.00">Parallel scenarios in combined script</text>
</g>
<!-- note -->
<g id="node1" class="node">
<title>note</title>
<polygon fill="#fff7ed" stroke="#f97316" points="968.5,-190.12 615,-190.12 615,-143.88 974.5,-143.88 974.5,-184.12 968.5,-190.12"/>
<polyline fill="none" stroke="#f97316" points="968.5,-190.12 968.5,-184.12"/>
<polyline fill="none" stroke="#f97316" points="974.5,-184.12 968.5,-184.12"/>
<text xml:space="preserve" text-anchor="middle" x="794.75" y="-174.72" font-family="Helvetica,sans-Serif" font-size="12.00">ramping&#45;vus loops each active VU.</text>
<text xml:space="preserve" text-anchor="middle" x="794.75" y="-161.97" font-family="Helvetica,sans-Serif" font-size="12.00">Counts below are per completed VU wave.</text>
<text xml:space="preserve" text-anchor="middle" x="794.75" y="-149.22" font-family="Helvetica,sans-Serif" font-size="12.00">Actual totals depend on latency, sleeps, and iteration completion.</text>
</g>
<!-- avg -->
<g id="node2" class="node">
<title>avg</title>
<polygon fill="#ecfeff" stroke="#0891b2" points="1289,-135 1109.5,-135 1109.5,-131 1105.5,-131 1105.5,-127 1109.5,-127 1109.5,-107 1105.5,-107 1105.5,-103 1109.5,-103 1109.5,-99 1289,-99 1289,-135"/>
<polyline fill="none" stroke="#0891b2" points="1109.5,-131 1113.5,-131 1113.5,-127 1109.5,-127"/>
<polyline fill="none" stroke="#0891b2" points="1109.5,-107 1113.5,-107 1113.5,-103 1109.5,-103"/>
<text xml:space="preserve" text-anchor="middle" x="1199.25" y="-118.35" font-family="Helvetica,sans-Serif" font-size="12.00">Average traffic_spikes iteration</text>
<text xml:space="preserve" text-anchor="middle" x="1199.25" y="-105.6" font-family="Helvetica,sans-Serif" font-size="12.00">4 requests / VU wave</text>
</g>
<!-- note&#45;&gt;avg -->
<g id="edge14" class="edge">
<title>note&#45;&gt;avg</title>
<path fill="none" stroke="#475569" d="M974.93,-144.74C1017.77,-139.42 1061.96,-133.93 1099.61,-129.25"/>
<polygon fill="#475569" stroke="#475569" points="1099.94,-132.03 1107.53,-128.27 1099.25,-126.48 1099.94,-132.03"/>
</g>
<!-- warmup -->
<g id="node8" class="node">
<title>warmup</title>
<path fill="#f1f5f9" stroke="#334155" d="M1650.38,-364.25C1650.38,-364.25 1552.62,-364.25 1552.62,-364.25 1546.62,-364.25 1540.62,-358.25 1540.62,-352.25 1540.62,-352.25 1540.62,-291.75 1540.62,-291.75 1540.62,-285.75 1546.62,-279.75 1552.62,-279.75 1552.62,-279.75 1650.38,-279.75 1650.38,-279.75 1656.38,-279.75 1662.38,-285.75 1662.38,-291.75 1662.38,-291.75 1662.38,-352.25 1662.38,-352.25 1662.38,-358.25 1656.38,-364.25 1650.38,-364.25"/>
<text xml:space="preserve" text-anchor="middle" x="1601.5" y="-348.85" font-family="Helvetica,sans-Serif" font-size="12.00">Warmup</text>
<text xml:space="preserve" text-anchor="middle" x="1601.5" y="-336.1" font-family="Helvetica,sans-Serif" font-size="12.00">2m, 25 VUs</text>
<text xml:space="preserve" text-anchor="middle" x="1601.5" y="-323.35" font-family="Helvetica,sans-Serif" font-size="12.00">~100 requests</text>
<text xml:space="preserve" text-anchor="middle" x="1601.5" y="-310.6" font-family="Helvetica,sans-Serif" font-size="12.00">15 cart updates</text>
<text xml:space="preserve" text-anchor="middle" x="1601.5" y="-297.85" font-family="Helvetica,sans-Serif" font-size="12.00">5 checkout attempts</text>
<text xml:space="preserve" text-anchor="middle" x="1601.5" y="-285.1" font-family="Helvetica,sans-Serif" font-size="12.00">25 region changes</text>
</g>
<!-- avg&#45;&gt;warmup -->
<g id="edge15" class="edge">
<title>avg&#45;&gt;warmup</title>
<path fill="none" stroke="#475569" d="M1222.52,-135.31C1262.26,-167.18 1349,-233.14 1431.75,-272 1463.22,-286.78 1500.04,-298.29 1531.25,-306.53"/>
<polygon fill="#475569" stroke="#475569" points="1530.41,-309.21 1538.85,-308.5 1531.81,-303.78 1530.41,-309.21"/>
<text xml:space="preserve" text-anchor="middle" x="1364.38" y="-263.57" font-family="Helvetica,sans-Serif" font-size="11.00">stage estimates</text>
</g>
<!-- regional -->
<g id="node18" class="node">
<title>regional</title>
<path fill="#ecfdf5" stroke="#334155" d="M1710,-140.12C1710,-140.12 1493,-140.12 1493,-140.12 1487,-140.12 1481,-134.12 1481,-128.12 1481,-128.12 1481,-105.88 1481,-105.88 1481,-99.88 1487,-93.88 1493,-93.88 1493,-93.88 1710,-93.88 1710,-93.88 1716,-93.88 1722,-99.88 1722,-105.88 1722,-105.88 1722,-128.12 1722,-128.12 1722,-134.12 1716,-140.12 1710,-140.12"/>
<text xml:space="preserve" text-anchor="middle" x="1601.5" y="-124.72" font-family="Helvetica,sans-Serif" font-size="12.00">regional_shoppers</text>
<text xml:space="preserve" text-anchor="middle" x="1601.5" y="-111.97" font-family="Helvetica,sans-Serif" font-size="12.00">30 VUs for TEST_DURATION/default 15m</text>
<text xml:space="preserve" text-anchor="middle" x="1601.5" y="-99.22" font-family="Helvetica,sans-Serif" font-size="12.00">~120 requests per completed wave</text>
</g>
<!-- avg&#45;&gt;regional -->
<g id="edge16" class="edge">
<title>avg&#45;&gt;regional</title>
<path fill="none" stroke="#475569" d="M1289.08,-117C1342.64,-117 1411.79,-117 1471.32,-117"/>
<polygon fill="#475569" stroke="#475569" points="1471.28,-119.8 1479.28,-117 1471.28,-114.2 1471.28,-119.8"/>
<text xml:space="preserve" text-anchor="middle" x="1364.38" y="-118.55" font-family="Helvetica,sans-Serif" font-size="11.00">parallel HTTP load</text>
</g>
<!-- api_rate -->
<g id="node19" class="node">
<title>api_rate</title>
<path fill="#e0f2fe" stroke="#334155" d="M1657.5,-62.12C1657.5,-62.12 1545.5,-62.12 1545.5,-62.12 1539.5,-62.12 1533.5,-56.12 1533.5,-50.12 1533.5,-50.12 1533.5,-27.88 1533.5,-27.88 1533.5,-21.88 1539.5,-15.88 1545.5,-15.88 1545.5,-15.88 1657.5,-15.88 1657.5,-15.88 1663.5,-15.88 1669.5,-21.88 1669.5,-27.88 1669.5,-27.88 1669.5,-50.12 1669.5,-50.12 1669.5,-56.12 1663.5,-62.12 1657.5,-62.12"/>
<text xml:space="preserve" text-anchor="middle" x="1601.5" y="-46.73" font-family="Helvetica,sans-Serif" font-size="12.00">api_request_rate</text>
<text xml:space="preserve" text-anchor="middle" x="1601.5" y="-33.98" font-family="Helvetica,sans-Serif" font-size="12.00">constant arrival rate</text>
<text xml:space="preserve" text-anchor="middle" x="1601.5" y="-21.23" font-family="Helvetica,sans-Serif" font-size="12.00">8 requests/sec for 15m</text>
</g>
<!-- avg&#45;&gt;api_rate -->
<g id="edge17" class="edge">
<title>avg&#45;&gt;api_rate</title>
<path fill="none" stroke="#475569" d="M1289.08,-99.69C1359.47,-85.97 1456.79,-67.01 1523.81,-53.95"/>
<polygon fill="#475569" stroke="#475569" points="1524.25,-56.71 1531.57,-52.43 1523.18,-51.21 1524.25,-56.71"/>
<text xml:space="preserve" text-anchor="middle" x="1364.38" y="-95.5" font-family="Helvetica,sans-Serif" font-size="11.00">steady API pressure</text>
</g>
<!-- browser -->
<g id="node3" class="node">
<title>browser</title>
<path fill="#eef2ff" stroke="#334155" d="M75.5,-91.12C75.5,-91.12 28,-91.12 28,-91.12 22,-91.12 16,-85.12 16,-79.12 16,-79.12 16,-56.88 16,-56.88 16,-50.88 22,-44.88 28,-44.88 28,-44.88 75.5,-44.88 75.5,-44.88 81.5,-44.88 87.5,-50.88 87.5,-56.88 87.5,-56.88 87.5,-79.12 87.5,-79.12 87.5,-85.12 81.5,-91.12 75.5,-91.12"/>
<text xml:space="preserve" text-anchor="middle" x="51.75" y="-75.72" font-family="Helvetica,sans-Serif" font-size="12.00">browser</text>
<text xml:space="preserve" text-anchor="middle" x="51.75" y="-62.98" font-family="Helvetica,sans-Serif" font-size="12.00">3 requests</text>
<text xml:space="preserve" text-anchor="middle" x="51.75" y="-50.23" font-family="Helvetica,sans-Serif" font-size="12.00">region +1</text>
</g>
<!-- cart_builder -->
<g id="node4" class="node">
<title>cart_builder</title>
<path fill="#f0fdf4" stroke="#334155" d="M228.25,-97.5C228.25,-97.5 154.5,-97.5 154.5,-97.5 148.5,-97.5 142.5,-91.5 142.5,-85.5 142.5,-85.5 142.5,-50.5 142.5,-50.5 142.5,-44.5 148.5,-38.5 154.5,-38.5 154.5,-38.5 228.25,-38.5 228.25,-38.5 234.25,-38.5 240.25,-44.5 240.25,-50.5 240.25,-50.5 240.25,-85.5 240.25,-85.5 240.25,-91.5 234.25,-97.5 228.25,-97.5"/>
<text xml:space="preserve" text-anchor="middle" x="191.38" y="-82.1" font-family="Helvetica,sans-Serif" font-size="12.00">cart_builder</text>
<text xml:space="preserve" text-anchor="middle" x="191.38" y="-69.35" font-family="Helvetica,sans-Serif" font-size="12.00">4 requests</text>
<text xml:space="preserve" text-anchor="middle" x="191.38" y="-56.6" font-family="Helvetica,sans-Serif" font-size="12.00">region +1</text>
<text xml:space="preserve" text-anchor="middle" x="191.38" y="-43.85" font-family="Helvetica,sans-Serif" font-size="12.00">cart updates +1</text>
</g>
<!-- browser&#45;&gt;cart_builder -->
<!-- account_manager -->
<g id="node5" class="node">
<title>account_manager</title>
<path fill="#f8fafc" stroke="#334155" d="M395.25,-91.12C395.25,-91.12 307.25,-91.12 307.25,-91.12 301.25,-91.12 295.25,-85.12 295.25,-79.12 295.25,-79.12 295.25,-56.88 295.25,-56.88 295.25,-50.88 301.25,-44.88 307.25,-44.88 307.25,-44.88 395.25,-44.88 395.25,-44.88 401.25,-44.88 407.25,-50.88 407.25,-56.88 407.25,-56.88 407.25,-79.12 407.25,-79.12 407.25,-85.12 401.25,-91.12 395.25,-91.12"/>
<text xml:space="preserve" text-anchor="middle" x="351.25" y="-75.72" font-family="Helvetica,sans-Serif" font-size="12.00">account_manager</text>
<text xml:space="preserve" text-anchor="middle" x="351.25" y="-62.98" font-family="Helvetica,sans-Serif" font-size="12.00">4 requests</text>
<text xml:space="preserve" text-anchor="middle" x="351.25" y="-50.23" font-family="Helvetica,sans-Serif" font-size="12.00">region +1</text>
</g>
<!-- cart_builder&#45;&gt;account_manager -->
<!-- sale_hunter -->
<g id="node6" class="node">
<title>sale_hunter</title>
<path fill="#fefce8" stroke="#334155" d="M548,-97.5C548,-97.5 474.25,-97.5 474.25,-97.5 468.25,-97.5 462.25,-91.5 462.25,-85.5 462.25,-85.5 462.25,-50.5 462.25,-50.5 462.25,-44.5 468.25,-38.5 474.25,-38.5 474.25,-38.5 548,-38.5 548,-38.5 554,-38.5 560,-44.5 560,-50.5 560,-50.5 560,-85.5 560,-85.5 560,-91.5 554,-97.5 548,-97.5"/>
<text xml:space="preserve" text-anchor="middle" x="511.12" y="-82.1" font-family="Helvetica,sans-Serif" font-size="12.00">sale_hunter</text>
<text xml:space="preserve" text-anchor="middle" x="511.12" y="-69.35" font-family="Helvetica,sans-Serif" font-size="12.00">4 requests</text>
<text xml:space="preserve" text-anchor="middle" x="511.12" y="-56.6" font-family="Helvetica,sans-Serif" font-size="12.00">region +1</text>
<text xml:space="preserve" text-anchor="middle" x="511.12" y="-43.85" font-family="Helvetica,sans-Serif" font-size="12.00">cart updates +1</text>
</g>
<!-- account_manager&#45;&gt;sale_hunter -->
<!-- checkout -->
<g id="node7" class="node">
<title>checkout</title>
<path fill="#fef2f2" stroke="#334155" d="M847,-103.88C847,-103.88 742.5,-103.88 742.5,-103.88 736.5,-103.88 730.5,-97.88 730.5,-91.88 730.5,-91.88 730.5,-44.12 730.5,-44.12 730.5,-38.12 736.5,-32.12 742.5,-32.12 742.5,-32.12 847,-32.12 847,-32.12 853,-32.12 859,-38.12 859,-44.12 859,-44.12 859,-91.88 859,-91.88 859,-97.88 853,-103.88 847,-103.88"/>
<text xml:space="preserve" text-anchor="middle" x="794.75" y="-88.47" font-family="Helvetica,sans-Serif" font-size="12.00">checkout</text>
<text xml:space="preserve" text-anchor="middle" x="794.75" y="-75.72" font-family="Helvetica,sans-Serif" font-size="12.00">5 requests</text>
<text xml:space="preserve" text-anchor="middle" x="794.75" y="-62.98" font-family="Helvetica,sans-Serif" font-size="12.00">region +1</text>
<text xml:space="preserve" text-anchor="middle" x="794.75" y="-50.23" font-family="Helvetica,sans-Serif" font-size="12.00">cart updates +1</text>
<text xml:space="preserve" text-anchor="middle" x="794.75" y="-37.48" font-family="Helvetica,sans-Serif" font-size="12.00">checkout attempts +1</text>
</g>
<!-- sale_hunter&#45;&gt;checkout -->
<!-- checkout&#45;&gt;avg -->
<g id="edge18" class="edge">
<title>checkout&#45;&gt;avg</title>
<path fill="none" stroke="#475569" d="M859.08,-75.71C923.76,-83.58 1025.04,-95.91 1100.11,-105.05"/>
<polygon fill="#475569" stroke="#475569" points="1099.34,-107.78 1107.62,-105.97 1100.02,-102.22 1099.34,-107.78"/>
<text xml:space="preserve" text-anchor="middle" x="1042" y="-104.07" font-family="Helvetica,sans-Serif" font-size="11.00">persona average</text>
</g>
<!-- ramp1 -->
<g id="node9" class="node">
<title>ramp1</title>
<path fill="#dbeafe" stroke="#334155" d="M1934.75,-364.25C1934.75,-364.25 1830.25,-364.25 1830.25,-364.25 1824.25,-364.25 1818.25,-358.25 1818.25,-352.25 1818.25,-352.25 1818.25,-291.75 1818.25,-291.75 1818.25,-285.75 1824.25,-279.75 1830.25,-279.75 1830.25,-279.75 1934.75,-279.75 1934.75,-279.75 1940.75,-279.75 1946.75,-285.75 1946.75,-291.75 1946.75,-291.75 1946.75,-352.25 1946.75,-352.25 1946.75,-358.25 1940.75,-364.25 1934.75,-364.25"/>
<text xml:space="preserve" text-anchor="middle" x="1882.5" y="-348.85" font-family="Helvetica,sans-Serif" font-size="12.00">Ramp to Spike 1</text>
<text xml:space="preserve" text-anchor="middle" x="1882.5" y="-336.1" font-family="Helvetica,sans-Serif" font-size="12.00">30s, 100 VUs</text>
<text xml:space="preserve" text-anchor="middle" x="1882.5" y="-323.35" font-family="Helvetica,sans-Serif" font-size="12.00">up to ~400 requests</text>
<text xml:space="preserve" text-anchor="middle" x="1882.5" y="-310.6" font-family="Helvetica,sans-Serif" font-size="12.00">60 cart updates</text>
<text xml:space="preserve" text-anchor="middle" x="1882.5" y="-297.85" font-family="Helvetica,sans-Serif" font-size="12.00">20 checkout attempts</text>
<text xml:space="preserve" text-anchor="middle" x="1882.5" y="-285.1" font-family="Helvetica,sans-Serif" font-size="12.00">100 region changes</text>
</g>
<!-- warmup&#45;&gt;ramp1 -->
<g id="edge5" class="edge">
<title>warmup&#45;&gt;ramp1</title>
<path fill="none" stroke="#475569" d="M1662.7,-322C1705.47,-322 1763.14,-322 1808.53,-322"/>
<polygon fill="#475569" stroke="#475569" points="1808.51,-324.8 1816.51,-322 1808.51,-319.2 1808.51,-324.8"/>
</g>
<!-- hold1 -->
<g id="node10" class="node">
<title>hold1</title>
<path fill="#bfdbfe" stroke="#334155" d="M2119,-364.25C2119,-364.25 2013.75,-364.25 2013.75,-364.25 2007.75,-364.25 2001.75,-358.25 2001.75,-352.25 2001.75,-352.25 2001.75,-291.75 2001.75,-291.75 2001.75,-285.75 2007.75,-279.75 2013.75,-279.75 2013.75,-279.75 2119,-279.75 2119,-279.75 2125,-279.75 2131,-285.75 2131,-291.75 2131,-291.75 2131,-352.25 2131,-352.25 2131,-358.25 2125,-364.25 2119,-364.25"/>
<text xml:space="preserve" text-anchor="middle" x="2066.38" y="-348.85" font-family="Helvetica,sans-Serif" font-size="12.00">Hold Spike 1</text>
<text xml:space="preserve" text-anchor="middle" x="2066.38" y="-336.1" font-family="Helvetica,sans-Serif" font-size="12.00">2m, 100 VUs</text>
<text xml:space="preserve" text-anchor="middle" x="2066.38" y="-323.35" font-family="Helvetica,sans-Serif" font-size="12.00">~400 requests / wave</text>
<text xml:space="preserve" text-anchor="middle" x="2066.38" y="-310.6" font-family="Helvetica,sans-Serif" font-size="12.00">60 cart updates</text>
<text xml:space="preserve" text-anchor="middle" x="2066.38" y="-297.85" font-family="Helvetica,sans-Serif" font-size="12.00">20 checkout attempts</text>
<text xml:space="preserve" text-anchor="middle" x="2066.38" y="-285.1" font-family="Helvetica,sans-Serif" font-size="12.00">100 region changes</text>
</g>
<!-- ramp1&#45;&gt;hold1 -->
<g id="edge6" class="edge">
<title>ramp1&#45;&gt;hold1</title>
<path fill="none" stroke="#475569" d="M1947.11,-322C1961.7,-322 1977.33,-322 1992.28,-322"/>
<polygon fill="#475569" stroke="#475569" points="1991.98,-324.8 1999.98,-322 1991.98,-319.2 1991.98,-324.8"/>
</g>
<!-- recovery1 -->
<g id="node11" class="node">
<title>recovery1</title>
<path fill="#f1f5f9" stroke="#334155" d="M2303.25,-364.25C2303.25,-364.25 2198,-364.25 2198,-364.25 2192,-364.25 2186,-358.25 2186,-352.25 2186,-352.25 2186,-291.75 2186,-291.75 2186,-285.75 2192,-279.75 2198,-279.75 2198,-279.75 2303.25,-279.75 2303.25,-279.75 2309.25,-279.75 2315.25,-285.75 2315.25,-291.75 2315.25,-291.75 2315.25,-352.25 2315.25,-352.25 2315.25,-358.25 2309.25,-364.25 2303.25,-364.25"/>
<text xml:space="preserve" text-anchor="middle" x="2250.62" y="-348.85" font-family="Helvetica,sans-Serif" font-size="12.00">Recovery</text>
<text xml:space="preserve" text-anchor="middle" x="2250.62" y="-336.1" font-family="Helvetica,sans-Serif" font-size="12.00">1m30s, 25 VUs</text>
<text xml:space="preserve" text-anchor="middle" x="2250.62" y="-323.35" font-family="Helvetica,sans-Serif" font-size="12.00">~100 requests / wave</text>
<text xml:space="preserve" text-anchor="middle" x="2250.62" y="-310.6" font-family="Helvetica,sans-Serif" font-size="12.00">15 cart updates</text>
<text xml:space="preserve" text-anchor="middle" x="2250.62" y="-297.85" font-family="Helvetica,sans-Serif" font-size="12.00">5 checkout attempts</text>
<text xml:space="preserve" text-anchor="middle" x="2250.62" y="-285.1" font-family="Helvetica,sans-Serif" font-size="12.00">25 region changes</text>
</g>
<!-- hold1&#45;&gt;recovery1 -->
<g id="edge7" class="edge">
<title>hold1&#45;&gt;recovery1</title>
<path fill="none" stroke="#475569" d="M2131.37,-322C2145.98,-322 2161.62,-322 2176.57,-322"/>
<polygon fill="#475569" stroke="#475569" points="2176.27,-324.8 2184.27,-322 2176.27,-319.2 2176.27,-324.8"/>
</g>
<!-- ramp2 -->
<g id="node12" class="node">
<title>ramp2</title>
<path fill="#fde68a" stroke="#334155" d="M2486.75,-364.25C2486.75,-364.25 2382.25,-364.25 2382.25,-364.25 2376.25,-364.25 2370.25,-358.25 2370.25,-352.25 2370.25,-352.25 2370.25,-291.75 2370.25,-291.75 2370.25,-285.75 2376.25,-279.75 2382.25,-279.75 2382.25,-279.75 2486.75,-279.75 2486.75,-279.75 2492.75,-279.75 2498.75,-285.75 2498.75,-291.75 2498.75,-291.75 2498.75,-352.25 2498.75,-352.25 2498.75,-358.25 2492.75,-364.25 2486.75,-364.25"/>
<text xml:space="preserve" text-anchor="middle" x="2434.5" y="-348.85" font-family="Helvetica,sans-Serif" font-size="12.00">Ramp to Spike 2</text>
<text xml:space="preserve" text-anchor="middle" x="2434.5" y="-336.1" font-family="Helvetica,sans-Serif" font-size="12.00">30s, 200 VUs</text>
<text xml:space="preserve" text-anchor="middle" x="2434.5" y="-323.35" font-family="Helvetica,sans-Serif" font-size="12.00">up to ~800 requests</text>
<text xml:space="preserve" text-anchor="middle" x="2434.5" y="-310.6" font-family="Helvetica,sans-Serif" font-size="12.00">120 cart updates</text>
<text xml:space="preserve" text-anchor="middle" x="2434.5" y="-297.85" font-family="Helvetica,sans-Serif" font-size="12.00">40 checkout attempts</text>
<text xml:space="preserve" text-anchor="middle" x="2434.5" y="-285.1" font-family="Helvetica,sans-Serif" font-size="12.00">200 region changes</text>
</g>
<!-- recovery1&#45;&gt;ramp2 -->
<g id="edge8" class="edge">
<title>recovery1&#45;&gt;ramp2</title>
<path fill="none" stroke="#475569" d="M2315.75,-322C2330.31,-322 2345.89,-322 2360.79,-322"/>
<polygon fill="#475569" stroke="#475569" points="2360.44,-324.8 2368.44,-322 2360.44,-319.2 2360.44,-324.8"/>
</g>
<!-- hold2 -->
<g id="node13" class="node">
<title>hold2</title>
<path fill="#fcd34d" stroke="#334155" d="M2671,-364.25C2671,-364.25 2565.75,-364.25 2565.75,-364.25 2559.75,-364.25 2553.75,-358.25 2553.75,-352.25 2553.75,-352.25 2553.75,-291.75 2553.75,-291.75 2553.75,-285.75 2559.75,-279.75 2565.75,-279.75 2565.75,-279.75 2671,-279.75 2671,-279.75 2677,-279.75 2683,-285.75 2683,-291.75 2683,-291.75 2683,-352.25 2683,-352.25 2683,-358.25 2677,-364.25 2671,-364.25"/>
<text xml:space="preserve" text-anchor="middle" x="2618.38" y="-348.85" font-family="Helvetica,sans-Serif" font-size="12.00">Hold Spike 2</text>
<text xml:space="preserve" text-anchor="middle" x="2618.38" y="-336.1" font-family="Helvetica,sans-Serif" font-size="12.00">2m, 200 VUs</text>
<text xml:space="preserve" text-anchor="middle" x="2618.38" y="-323.35" font-family="Helvetica,sans-Serif" font-size="12.00">~800 requests / wave</text>
<text xml:space="preserve" text-anchor="middle" x="2618.38" y="-310.6" font-family="Helvetica,sans-Serif" font-size="12.00">120 cart updates</text>
<text xml:space="preserve" text-anchor="middle" x="2618.38" y="-297.85" font-family="Helvetica,sans-Serif" font-size="12.00">40 checkout attempts</text>
<text xml:space="preserve" text-anchor="middle" x="2618.38" y="-285.1" font-family="Helvetica,sans-Serif" font-size="12.00">200 region changes</text>
</g>
<!-- ramp2&#45;&gt;hold2 -->
<g id="edge9" class="edge">
<title>ramp2&#45;&gt;hold2</title>
<path fill="none" stroke="#475569" d="M2499.11,-322C2513.7,-322 2529.33,-322 2544.28,-322"/>
<polygon fill="#475569" stroke="#475569" points="2543.98,-324.8 2551.98,-322 2543.98,-319.2 2543.98,-324.8"/>
</g>
<!-- recovery2 -->
<g id="node14" class="node">
<title>recovery2</title>
<path fill="#f1f5f9" stroke="#334155" d="M2855.25,-364.25C2855.25,-364.25 2750,-364.25 2750,-364.25 2744,-364.25 2738,-358.25 2738,-352.25 2738,-352.25 2738,-291.75 2738,-291.75 2738,-285.75 2744,-279.75 2750,-279.75 2750,-279.75 2855.25,-279.75 2855.25,-279.75 2861.25,-279.75 2867.25,-285.75 2867.25,-291.75 2867.25,-291.75 2867.25,-352.25 2867.25,-352.25 2867.25,-358.25 2861.25,-364.25 2855.25,-364.25"/>
<text xml:space="preserve" text-anchor="middle" x="2802.62" y="-348.85" font-family="Helvetica,sans-Serif" font-size="12.00">Recovery</text>
<text xml:space="preserve" text-anchor="middle" x="2802.62" y="-336.1" font-family="Helvetica,sans-Serif" font-size="12.00">1m30s, 25 VUs</text>
<text xml:space="preserve" text-anchor="middle" x="2802.62" y="-323.35" font-family="Helvetica,sans-Serif" font-size="12.00">~100 requests / wave</text>
<text xml:space="preserve" text-anchor="middle" x="2802.62" y="-310.6" font-family="Helvetica,sans-Serif" font-size="12.00">15 cart updates</text>
<text xml:space="preserve" text-anchor="middle" x="2802.62" y="-297.85" font-family="Helvetica,sans-Serif" font-size="12.00">5 checkout attempts</text>
<text xml:space="preserve" text-anchor="middle" x="2802.62" y="-285.1" font-family="Helvetica,sans-Serif" font-size="12.00">25 region changes</text>
</g>
<!-- hold2&#45;&gt;recovery2 -->
<g id="edge10" class="edge">
<title>hold2&#45;&gt;recovery2</title>
<path fill="none" stroke="#475569" d="M2683.37,-322C2697.98,-322 2713.62,-322 2728.57,-322"/>
<polygon fill="#475569" stroke="#475569" points="2728.27,-324.8 2736.27,-322 2728.27,-319.2 2728.27,-324.8"/>
</g>
<!-- ramp3 -->
<g id="node15" class="node">
<title>ramp3</title>
<path fill="#fecaca" stroke="#334155" d="M3038.75,-364.25C3038.75,-364.25 2934.25,-364.25 2934.25,-364.25 2928.25,-364.25 2922.25,-358.25 2922.25,-352.25 2922.25,-352.25 2922.25,-291.75 2922.25,-291.75 2922.25,-285.75 2928.25,-279.75 2934.25,-279.75 2934.25,-279.75 3038.75,-279.75 3038.75,-279.75 3044.75,-279.75 3050.75,-285.75 3050.75,-291.75 3050.75,-291.75 3050.75,-352.25 3050.75,-352.25 3050.75,-358.25 3044.75,-364.25 3038.75,-364.25"/>
<text xml:space="preserve" text-anchor="middle" x="2986.5" y="-348.85" font-family="Helvetica,sans-Serif" font-size="12.00">Ramp to Spike 3</text>
<text xml:space="preserve" text-anchor="middle" x="2986.5" y="-336.1" font-family="Helvetica,sans-Serif" font-size="12.00">30s, 400 VUs</text>
<text xml:space="preserve" text-anchor="middle" x="2986.5" y="-323.35" font-family="Helvetica,sans-Serif" font-size="12.00">up to ~1600 requests</text>
<text xml:space="preserve" text-anchor="middle" x="2986.5" y="-310.6" font-family="Helvetica,sans-Serif" font-size="12.00">240 cart updates</text>
<text xml:space="preserve" text-anchor="middle" x="2986.5" y="-297.85" font-family="Helvetica,sans-Serif" font-size="12.00">80 checkout attempts</text>
<text xml:space="preserve" text-anchor="middle" x="2986.5" y="-285.1" font-family="Helvetica,sans-Serif" font-size="12.00">400 region changes</text>
</g>
<!-- recovery2&#45;&gt;ramp3 -->
<g id="edge11" class="edge">
<title>recovery2&#45;&gt;ramp3</title>
<path fill="none" stroke="#475569" d="M2867.75,-322C2882.31,-322 2897.89,-322 2912.79,-322"/>
<polygon fill="#475569" stroke="#475569" points="2912.44,-324.8 2920.44,-322 2912.44,-319.2 2912.44,-324.8"/>
</g>
<!-- hold3 -->
<g id="node16" class="node">
<title>hold3</title>
<path fill="#fca5a5" stroke="#334155" d="M3229.75,-364.25C3229.75,-364.25 3117.75,-364.25 3117.75,-364.25 3111.75,-364.25 3105.75,-358.25 3105.75,-352.25 3105.75,-352.25 3105.75,-291.75 3105.75,-291.75 3105.75,-285.75 3111.75,-279.75 3117.75,-279.75 3117.75,-279.75 3229.75,-279.75 3229.75,-279.75 3235.75,-279.75 3241.75,-285.75 3241.75,-291.75 3241.75,-291.75 3241.75,-352.25 3241.75,-352.25 3241.75,-358.25 3235.75,-364.25 3229.75,-364.25"/>
<text xml:space="preserve" text-anchor="middle" x="3173.75" y="-348.85" font-family="Helvetica,sans-Serif" font-size="12.00">Hold Spike 3</text>
<text xml:space="preserve" text-anchor="middle" x="3173.75" y="-336.1" font-family="Helvetica,sans-Serif" font-size="12.00">2m, 400 VUs</text>
<text xml:space="preserve" text-anchor="middle" x="3173.75" y="-323.35" font-family="Helvetica,sans-Serif" font-size="12.00">~1600 requests / wave</text>
<text xml:space="preserve" text-anchor="middle" x="3173.75" y="-310.6" font-family="Helvetica,sans-Serif" font-size="12.00">240 cart updates</text>
<text xml:space="preserve" text-anchor="middle" x="3173.75" y="-297.85" font-family="Helvetica,sans-Serif" font-size="12.00">80 checkout attempts</text>
<text xml:space="preserve" text-anchor="middle" x="3173.75" y="-285.1" font-family="Helvetica,sans-Serif" font-size="12.00">400 region changes</text>
</g>
<!-- ramp3&#45;&gt;hold3 -->
<g id="edge12" class="edge">
<title>ramp3&#45;&gt;hold3</title>
<path fill="none" stroke="#475569" d="M3050.99,-322C3065.57,-322 3081.21,-322 3096.26,-322"/>
<polygon fill="#475569" stroke="#475569" points="3096.03,-324.8 3104.03,-322 3096.03,-319.2 3096.03,-324.8"/>
</g>
<!-- rampdown -->
<g id="node17" class="node">
<title>rampdown</title>
<path fill="#e2e8f0" stroke="#334155" d="M3421.5,-345.12C3421.5,-345.12 3308.75,-345.12 3308.75,-345.12 3302.75,-345.12 3296.75,-339.12 3296.75,-333.12 3296.75,-333.12 3296.75,-310.88 3296.75,-310.88 3296.75,-304.88 3302.75,-298.88 3308.75,-298.88 3308.75,-298.88 3421.5,-298.88 3421.5,-298.88 3427.5,-298.88 3433.5,-304.88 3433.5,-310.88 3433.5,-310.88 3433.5,-333.12 3433.5,-333.12 3433.5,-339.12 3427.5,-345.12 3421.5,-345.12"/>
<text xml:space="preserve" text-anchor="middle" x="3365.12" y="-329.73" font-family="Helvetica,sans-Serif" font-size="12.00">Ramp down</text>
<text xml:space="preserve" text-anchor="middle" x="3365.12" y="-316.98" font-family="Helvetica,sans-Serif" font-size="12.00">2m30s, 0 VUs</text>
<text xml:space="preserve" text-anchor="middle" x="3365.12" y="-304.23" font-family="Helvetica,sans-Serif" font-size="12.00">requests decrease to 0</text>
</g>
<!-- hold3&#45;&gt;rampdown -->
<g id="edge13" class="edge">
<title>hold3&#45;&gt;rampdown</title>
<path fill="none" stroke="#475569" d="M3242.05,-322C3256.66,-322 3272.23,-322 3287.19,-322"/>
<polygon fill="#475569" stroke="#475569" points="3286.89,-324.8 3294.89,-322 3286.89,-319.2 3286.89,-324.8"/>
</g>
<!-- storefront -->
<g id="node20" class="node">
<title>storefront</title>
<path fill="#faf5ff" stroke="#334155" d="M1751.25,-231.5C1751.25,-231.5 1451.75,-231.5 1451.75,-231.5 1445.75,-231.5 1439.75,-225.5 1439.75,-219.5 1439.75,-219.5 1439.75,-184.5 1439.75,-184.5 1439.75,-178.5 1445.75,-172.5 1451.75,-172.5 1451.75,-172.5 1751.25,-172.5 1751.25,-172.5 1757.25,-172.5 1763.25,-178.5 1763.25,-184.5 1763.25,-184.5 1763.25,-219.5 1763.25,-219.5 1763.25,-225.5 1757.25,-231.5 1751.25,-231.5"/>
<text xml:space="preserve" text-anchor="middle" x="1601.5" y="-216.1" font-family="Helvetica,sans-Serif" font-size="12.00">storefront_actions</text>
<text xml:space="preserve" text-anchor="middle" x="1601.5" y="-203.35" font-family="Helvetica,sans-Serif" font-size="12.00">ramp to 5 browser VUs over 3m, hold 10m, ramp down 2m</text>
<text xml:space="preserve" text-anchor="middle" x="1601.5" y="-190.6" font-family="Helvetica,sans-Serif" font-size="12.00">Faro UI actions + browser metrics</text>
<text xml:space="preserve" text-anchor="middle" x="1601.5" y="-177.85" font-family="Helvetica,sans-Serif" font-size="12.00">standard http_reqs may be n/a</text>
</g>
</g>
</svg>
