<?xml version="1.0" encoding="UTF-8" standalone="no"?>
<!DOCTYPE svg PUBLIC "-//W3C//DTD SVG 1.1//EN"
 "http://www.w3.org/Graphics/SVG/1.1/DTD/svg11.dtd">
<!-- Generated by graphviz version 15.0.0 (20260523.1842)
 -->
<!-- Title: traffic_spike_target_heatmap_dark Pages: 1 -->
<svg width="667pt" height="340pt"
 viewBox="0.00 0.00 667.00 340.00" xmlns="http://www.w3.org/2000/svg" xmlns:xlink="http://www.w3.org/1999/xlink">
<g id="graph0" class="graph" transform="scale(1 1) rotate(0) translate(4 335.5)">
<title>traffic_spike_target_heatmap_dark</title>
<polygon fill="#0b1220" stroke="none" points="-4,4 -4,-335.5 663,-335.5 663,4 -4,4"/>
<text xml:space="preserve" text-anchor="middle" x="329.5" y="-306.6" font-family="Helvetica,sans-Serif" font-size="22.00" fill="#f8fafc">Traffic Spike Test Targets</text>
<!-- target_heatmap -->
<g id="node1" class="node">
<title>target_heatmap</title>
<polygon fill="#1e3a5f" stroke="none" points="1,-269 1,-300 137,-300 137,-269 1,-269"/>
<polygon fill="none" stroke="#475569" points="1,-269 1,-300 137,-300 137,-269 1,-269"/>
<text xml:space="preserve" text-anchor="start" x="50.62" y="-279.7" font-family="Helvetica,sans-Serif" font-weight="bold" font-size="14.00" fill="#f8fafc">Stage</text>
<polygon fill="#1e3a5f" stroke="none" points="137,-269 137,-300 179.25,-300 179.25,-269 137,-269"/>
<polygon fill="none" stroke="#475569" points="137,-269 137,-300 179.25,-300 179.25,-269 137,-269"/>
<text xml:space="preserve" text-anchor="start" x="145" y="-279.7" font-family="Helvetica,sans-Serif" font-weight="bold" font-size="14.00" fill="#f8fafc">VUs</text>
<polygon fill="#1e3a5f" stroke="none" points="179.25,-269 179.25,-300 301,-300 301,-269 179.25,-269"/>
<polygon fill="none" stroke="#475569" points="179.25,-269 179.25,-300 301,-300 301,-269 179.25,-269"/>
<text xml:space="preserve" text-anchor="start" x="187.25" y="-279.7" font-family="Helvetica,sans-Serif" font-weight="bold" font-size="14.00" fill="#f8fafc">Requests / wave</text>
<polygon fill="#14532d" stroke="none" points="301,-269 301,-300 399.5,-300 399.5,-269 301,-269"/>
<polygon fill="none" stroke="#475569" points="301,-269 301,-300 399.5,-300 399.5,-269 301,-269"/>
<text xml:space="preserve" text-anchor="start" x="309" y="-279.7" font-family="Helvetica,sans-Serif" font-weight="bold" font-size="14.00" fill="#f8fafc">Cart updates</text>
<polygon fill="#713f12" stroke="none" points="399.5,-269 399.5,-300 537.75,-300 537.75,-269 399.5,-269"/>
<polygon fill="none" stroke="#475569" points="399.5,-269 399.5,-300 537.75,-300 537.75,-269 399.5,-269"/>
<text xml:space="preserve" text-anchor="start" x="407.5" y="-279.7" font-family="Helvetica,sans-Serif" font-weight="bold" font-size="14.00" fill="#f8fafc">Checkout attempts</text>
<polygon fill="#1e40af" stroke="none" points="537.75,-269 537.75,-300 658,-300 658,-269 537.75,-269"/>
<polygon fill="none" stroke="#475569" points="537.75,-269 537.75,-300 658,-300 658,-269 537.75,-269"/>
<text xml:space="preserve" text-anchor="start" x="545.75" y="-279.7" font-family="Helvetica,sans-Serif" font-weight="bold" font-size="14.00" fill="#f8fafc">Region changes</text>
<polygon fill="#111827" stroke="none" points="1,-238 1,-269 137,-269 137,-238 1,-238"/>
<polygon fill="none" stroke="#475569" points="1,-238 1,-269 137,-269 137,-238 1,-238"/>
<text xml:space="preserve" text-anchor="start" x="9" y="-249.75" font-family="Helvetica,sans-Serif" font-size="14.00" fill="#f8fafc">Warmup / Recovery</text>
<polygon fill="#111827" stroke="none" points="137,-238 137,-269 179.25,-269 179.25,-238 137,-238"/>
<polygon fill="none" stroke="#475569" points="137,-238 137,-269 179.25,-269 179.25,-238 137,-238"/>
<text xml:space="preserve" text-anchor="start" x="150.62" y="-248.7" font-family="Helvetica,sans-Serif" font-weight="bold" font-size="14.00" fill="#f8fafc">25</text>
<polygon fill="#334155" stroke="none" points="179.25,-238 179.25,-269 301,-269 301,-238 179.25,-238"/>
<polygon fill="none" stroke="#475569" points="179.25,-238 179.25,-269 301,-269 301,-238 179.25,-238"/>
<text xml:space="preserve" text-anchor="start" x="228.88" y="-249.75" font-family="Helvetica,sans-Serif" font-size="14.00" fill="#f8fafc">100</text>
<polygon fill="#166534" stroke="none" points="301,-238 301,-269 399.5,-269 399.5,-238 301,-238"/>
<polygon fill="none" stroke="#475569" points="301,-238 301,-269 399.5,-269 399.5,-238 301,-238"/>
<text xml:space="preserve" text-anchor="start" x="342.75" y="-249.75" font-family="Helvetica,sans-Serif" font-size="14.00" fill="#f8fafc">15</text>
<polygon fill="#854d0e" stroke="none" points="399.5,-238 399.5,-269 537.75,-269 537.75,-238 399.5,-238"/>
<polygon fill="none" stroke="#475569" points="399.5,-238 399.5,-269 537.75,-269 537.75,-238 399.5,-238"/>
<text xml:space="preserve" text-anchor="start" x="464.88" y="-249.75" font-family="Helvetica,sans-Serif" font-size="14.00" fill="#f8fafc">5</text>
<polygon fill="#1d4ed8" stroke="none" points="537.75,-238 537.75,-269 658,-269 658,-238 537.75,-238"/>
<polygon fill="none" stroke="#475569" points="537.75,-238 537.75,-269 658,-269 658,-238 537.75,-238"/>
<text xml:space="preserve" text-anchor="start" x="590.38" y="-249.75" font-family="Helvetica,sans-Serif" font-size="14.00" fill="#f8fafc">25</text>
<polygon fill="#111827" stroke="none" points="1,-207 1,-238 137,-238 137,-207 1,-207"/>
<polygon fill="none" stroke="#475569" points="1,-207 1,-238 137,-238 137,-207 1,-207"/>
<text xml:space="preserve" text-anchor="start" x="9" y="-218.75" font-family="Helvetica,sans-Serif" font-size="14.00" fill="#f8fafc">Spike 1</text>
<polygon fill="#111827" stroke="none" points="137,-207 137,-238 179.25,-238 179.25,-207 137,-207"/>
<polygon fill="none" stroke="#475569" points="137,-207 137,-238 179.25,-238 179.25,-207 137,-207"/>
<text xml:space="preserve" text-anchor="start" x="146.88" y="-217.7" font-family="Helvetica,sans-Serif" font-weight="bold" font-size="14.00" fill="#f8fafc">100</text>
<polygon fill="#2563eb" stroke="none" points="179.25,-207 179.25,-238 301,-238 301,-207 179.25,-207"/>
<polygon fill="none" stroke="#475569" points="179.25,-207 179.25,-238 301,-238 301,-207 179.25,-207"/>
<text xml:space="preserve" text-anchor="start" x="228.88" y="-217.7" font-family="Helvetica,sans-Serif" font-weight="bold" font-size="14.00" fill="#f8fafc">400</text>
<polygon fill="#15803d" stroke="none" points="301,-207 301,-238 399.5,-238 399.5,-207 301,-207"/>
<polygon fill="none" stroke="#475569" points="301,-207 301,-238 399.5,-238 399.5,-207 301,-207"/>
<text xml:space="preserve" text-anchor="start" x="342.75" y="-217.7" font-family="Helvetica,sans-Serif" font-weight="bold" font-size="14.00" fill="#f8fafc">60</text>
<polygon fill="#a16207" stroke="none" points="399.5,-207 399.5,-238 537.75,-238 537.75,-207 399.5,-207"/>
<polygon fill="none" stroke="#475569" points="399.5,-207 399.5,-238 537.75,-238 537.75,-207 399.5,-207"/>
<text xml:space="preserve" text-anchor="start" x="461.12" y="-217.7" font-family="Helvetica,sans-Serif" font-weight="bold" font-size="14.00" fill="#f8fafc">20</text>
<polygon fill="#2563eb" stroke="none" points="537.75,-207 537.75,-238 658,-238 658,-207 537.75,-207"/>
<polygon fill="none" stroke="#475569" points="537.75,-207 537.75,-238 658,-238 658,-207 537.75,-207"/>
<text xml:space="preserve" text-anchor="start" x="586.62" y="-217.7" font-family="Helvetica,sans-Serif" font-weight="bold" font-size="14.00" fill="#f8fafc">100</text>
<polygon fill="#111827" stroke="none" points="1,-176 1,-207 137,-207 137,-176 1,-176"/>
<polygon fill="none" stroke="#475569" points="1,-176 1,-207 137,-207 137,-176 1,-176"/>
<text xml:space="preserve" text-anchor="start" x="9" y="-187.75" font-family="Helvetica,sans-Serif" font-size="14.00" fill="#f8fafc">Spike 2</text>
<polygon fill="#111827" stroke="none" points="137,-176 137,-207 179.25,-207 179.25,-176 137,-176"/>
<polygon fill="none" stroke="#475569" points="137,-176 137,-207 179.25,-207 179.25,-176 137,-176"/>
<text xml:space="preserve" text-anchor="start" x="146.88" y="-186.7" font-family="Helvetica,sans-Serif" font-weight="bold" font-size="14.00" fill="#f8fafc">200</text>
<polygon fill="#1e40af" stroke="none" points="179.25,-176 179.25,-207 301,-207 301,-176 179.25,-176"/>
<polygon fill="none" stroke="#475569" points="179.25,-176 179.25,-207 301,-207 301,-176 179.25,-176"/>
<text xml:space="preserve" text-anchor="start" x="228.88" y="-186.7" font-family="Helvetica,sans-Serif" font-weight="bold" font-size="14.00" fill="#f8fafc">800</text>
<polygon fill="#15803d" stroke="none" points="301,-176 301,-207 399.5,-207 399.5,-176 301,-176"/>
<polygon fill="none" stroke="#475569" points="301,-176 301,-207 399.5,-207 399.5,-176 301,-176"/>
<text xml:space="preserve" text-anchor="start" x="339" y="-186.7" font-family="Helvetica,sans-Serif" font-weight="bold" font-size="14.00" fill="#f8fafc">120</text>
<polygon fill="#92400e" stroke="none" points="399.5,-176 399.5,-207 537.75,-207 537.75,-176 399.5,-176"/>
<polygon fill="none" stroke="#475569" points="399.5,-176 399.5,-207 537.75,-207 537.75,-176 399.5,-176"/>
<text xml:space="preserve" text-anchor="start" x="461.12" y="-186.7" font-family="Helvetica,sans-Serif" font-weight="bold" font-size="14.00" fill="#f8fafc">40</text>
<polygon fill="#1e40af" stroke="none" points="537.75,-176 537.75,-207 658,-207 658,-176 537.75,-176"/>
<polygon fill="none" stroke="#475569" points="537.75,-176 537.75,-207 658,-207 658,-176 537.75,-176"/>
<text xml:space="preserve" text-anchor="start" x="586.62" y="-186.7" font-family="Helvetica,sans-Serif" font-weight="bold" font-size="14.00" fill="#f8fafc">200</text>
<polygon fill="#111827" stroke="none" points="1,-145 1,-176 137,-176 137,-145 1,-145"/>
<polygon fill="none" stroke="#475569" points="1,-145 1,-176 137,-176 137,-145 1,-145"/>
<text xml:space="preserve" text-anchor="start" x="9" y="-156.75" font-family="Helvetica,sans-Serif" font-size="14.00" fill="#f8fafc">Spike 3</text>
<polygon fill="#111827" stroke="none" points="137,-145 137,-176 179.25,-176 179.25,-145 137,-145"/>
<polygon fill="none" stroke="#475569" points="137,-145 137,-176 179.25,-176 179.25,-145 137,-145"/>
<text xml:space="preserve" text-anchor="start" x="146.88" y="-155.7" font-family="Helvetica,sans-Serif" font-weight="bold" font-size="14.00" fill="#f8fafc">400</text>
<polygon fill="#1e3a8a" stroke="none" points="179.25,-145 179.25,-176 301,-176 301,-145 179.25,-145"/>
<polygon fill="none" stroke="#475569" points="179.25,-145 179.25,-176 301,-176 301,-145 179.25,-145"/>
<text xml:space="preserve" text-anchor="start" x="225.12" y="-155.7" font-family="Helvetica,sans-Serif" font-weight="bold" font-size="14.00" fill="#f8fafc">1600</text>
<polygon fill="#166534" stroke="none" points="301,-145 301,-176 399.5,-176 399.5,-145 301,-145"/>
<polygon fill="none" stroke="#475569" points="301,-145 301,-176 399.5,-176 399.5,-145 301,-145"/>
<text xml:space="preserve" text-anchor="start" x="339" y="-155.7" font-family="Helvetica,sans-Serif" font-weight="bold" font-size="14.00" fill="#f8fafc">240</text>
<polygon fill="#713f12" stroke="none" points="399.5,-145 399.5,-176 537.75,-176 537.75,-145 399.5,-145"/>
<polygon fill="none" stroke="#475569" points="399.5,-145 399.5,-176 537.75,-176 537.75,-145 399.5,-145"/>
<text xml:space="preserve" text-anchor="start" x="461.12" y="-155.7" font-family="Helvetica,sans-Serif" font-weight="bold" font-size="14.00" fill="#f8fafc">80</text>
<polygon fill="#1e3a8a" stroke="none" points="537.75,-145 537.75,-176 658,-176 658,-145 537.75,-145"/>
<polygon fill="none" stroke="#475569" points="537.75,-145 537.75,-176 658,-176 658,-145 537.75,-145"/>
<text xml:space="preserve" text-anchor="start" x="586.62" y="-155.7" font-family="Helvetica,sans-Serif" font-weight="bold" font-size="14.00" fill="#f8fafc">400</text>
<polygon fill="none" stroke="#475569" points="0,-144 0,-301 659,-301 659,-144 0,-144"/>
</g>
<!-- target_note -->
<g id="node2" class="node">
<title>target_note</title>
<text xml:space="preserve" text-anchor="start" x="111.62" y="-98.7" font-family="Helvetica,sans-Serif" font-weight="bold" font-size="14.00" fill="#f8fafc">Readout:</text>
<text xml:space="preserve" text-anchor="start" x="170.12" y="-98.7" font-family="Helvetica,sans-Serif" font-size="14.00" fill="#f8fafc"> brighter cells mean more target pressure per completed wave.</text>
<text xml:space="preserve" text-anchor="start" x="111.62" y="-76.75" font-family="Helvetica,sans-Serif" font-size="14.00" fill="#f8fafc">Config: base=100, multiplier=2.</text>
<text xml:space="preserve" text-anchor="start" x="111.62" y="-53.75" font-family="Helvetica,sans-Serif" font-size="14.00" fill="#f8fafc">Regional shoppers: 30 VUs.</text>
<text xml:space="preserve" text-anchor="start" x="111.62" y="-30.75" font-family="Helvetica,sans-Serif" font-size="14.00" fill="#f8fafc">Storefront actions: 20 browser VUs.</text>
<text xml:space="preserve" text-anchor="start" x="111.62" y="-7.75" font-family="Helvetica,sans-Serif" font-size="14.00" fill="#f8fafc">Duration: 10m.</text>
</g>
<!-- target_heatmap&#45;&gt;target_note -->
</g>
</svg>
