<?xml version="1.0" encoding="UTF-8" standalone="no"?>
<!DOCTYPE svg PUBLIC "-//W3C//DTD SVG 1.1//EN"
 "http://www.w3.org/Graphics/SVG/1.1/DTD/svg11.dtd">
<!-- Generated by graphviz version 15.0.0 (20260523.1842)
 -->
<!-- Title: traffic_spike_target_heatmap Pages: 1 -->
<svg width="1291pt" height="271pt"
 viewBox="0.00 0.00 1291.00 271.00" xmlns="http://www.w3.org/2000/svg" xmlns:xlink="http://www.w3.org/1999/xlink">
<g id="graph0" class="graph" transform="scale(1 1) rotate(0) translate(4 266.5)">
<title>traffic_spike_target_heatmap</title>
<polygon fill="white" stroke="none" points="-4,4 -4,-266.5 1287,-266.5 1287,4 -4,4"/>
<text xml:space="preserve" text-anchor="middle" x="641.5" y="-237.6" font-family="Helvetica,sans-Serif" font-size="22.00">Traffic Spike Test Targets</text>
<!-- target_heatmap -->
<g id="node1" class="node">
<title>target_heatmap</title>
<polygon fill="#e0f2fe" stroke="none" points="313,-200 313,-231 449,-231 449,-200 313,-200"/>
<polygon fill="none" stroke="#334155" points="313,-200 313,-231 449,-231 449,-200 313,-200"/>
<text xml:space="preserve" text-anchor="start" x="362.62" y="-210.7" font-family="Helvetica,sans-Serif" font-weight="bold" font-size="14.00">Stage</text>
<polygon fill="#e0f2fe" stroke="none" points="449,-200 449,-231 491.25,-231 491.25,-200 449,-200"/>
<polygon fill="none" stroke="#334155" points="449,-200 449,-231 491.25,-231 491.25,-200 449,-200"/>
<text xml:space="preserve" text-anchor="start" x="457" y="-210.7" font-family="Helvetica,sans-Serif" font-weight="bold" font-size="14.00">VUs</text>
<polygon fill="#e0f2fe" stroke="none" points="491.25,-200 491.25,-231 613,-231 613,-200 491.25,-200"/>
<polygon fill="none" stroke="#334155" points="491.25,-200 491.25,-231 613,-231 613,-200 491.25,-200"/>
<text xml:space="preserve" text-anchor="start" x="499.25" y="-210.7" font-family="Helvetica,sans-Serif" font-weight="bold" font-size="14.00">Requests / wave</text>
<polygon fill="#dcfce7" stroke="none" points="613,-200 613,-231 711.5,-231 711.5,-200 613,-200"/>
<polygon fill="none" stroke="#334155" points="613,-200 613,-231 711.5,-231 711.5,-200 613,-200"/>
<text xml:space="preserve" text-anchor="start" x="621" y="-210.7" font-family="Helvetica,sans-Serif" font-weight="bold" font-size="14.00">Cart updates</text>
<polygon fill="#fef3c7" stroke="none" points="711.5,-200 711.5,-231 849.75,-231 849.75,-200 711.5,-200"/>
<polygon fill="none" stroke="#334155" points="711.5,-200 711.5,-231 849.75,-231 849.75,-200 711.5,-200"/>
<text xml:space="preserve" text-anchor="start" x="719.5" y="-210.7" font-family="Helvetica,sans-Serif" font-weight="bold" font-size="14.00">Checkout attempts</text>
<polygon fill="#dbeafe" stroke="none" points="849.75,-200 849.75,-231 970,-231 970,-200 849.75,-200"/>
<polygon fill="none" stroke="#334155" points="849.75,-200 849.75,-231 970,-231 970,-200 849.75,-200"/>
<text xml:space="preserve" text-anchor="start" x="857.75" y="-210.7" font-family="Helvetica,sans-Serif" font-weight="bold" font-size="14.00">Region changes</text>
<polygon fill="none" stroke="#334155" points="313,-169 313,-200 449,-200 449,-169 313,-169"/>
<text xml:space="preserve" text-anchor="start" x="321" y="-180.75" font-family="Helvetica,sans-Serif" font-size="14.00">Warmup / Recovery</text>
<polygon fill="none" stroke="#334155" points="449,-169 449,-200 491.25,-200 491.25,-169 449,-169"/>
<text xml:space="preserve" text-anchor="start" x="462.62" y="-179.7" font-family="Helvetica,sans-Serif" font-weight="bold" font-size="14.00">25</text>
<polygon fill="#e2e8f0" stroke="none" points="491.25,-169 491.25,-200 613,-200 613,-169 491.25,-169"/>
<polygon fill="none" stroke="#334155" points="491.25,-169 491.25,-200 613,-200 613,-169 491.25,-169"/>
<text xml:space="preserve" text-anchor="start" x="540.88" y="-180.75" font-family="Helvetica,sans-Serif" font-size="14.00">100</text>
<polygon fill="#bbf7d0" stroke="none" points="613,-169 613,-200 711.5,-200 711.5,-169 613,-169"/>
<polygon fill="none" stroke="#334155" points="613,-169 613,-200 711.5,-200 711.5,-169 613,-169"/>
<text xml:space="preserve" text-anchor="start" x="654.75" y="-180.75" font-family="Helvetica,sans-Serif" font-size="14.00">15</text>
<polygon fill="#fde68a" stroke="none" points="711.5,-169 711.5,-200 849.75,-200 849.75,-169 711.5,-169"/>
<polygon fill="none" stroke="#334155" points="711.5,-169 711.5,-200 849.75,-200 849.75,-169 711.5,-169"/>
<text xml:space="preserve" text-anchor="start" x="776.88" y="-180.75" font-family="Helvetica,sans-Serif" font-size="14.00">5</text>
<polygon fill="#bfdbfe" stroke="none" points="849.75,-169 849.75,-200 970,-200 970,-169 849.75,-169"/>
<polygon fill="none" stroke="#334155" points="849.75,-169 849.75,-200 970,-200 970,-169 849.75,-169"/>
<text xml:space="preserve" text-anchor="start" x="902.38" y="-180.75" font-family="Helvetica,sans-Serif" font-size="14.00">25</text>
<polygon fill="none" stroke="#334155" points="313,-138 313,-169 449,-169 449,-138 313,-138"/>
<text xml:space="preserve" text-anchor="start" x="321" y="-149.75" font-family="Helvetica,sans-Serif" font-size="14.00">Spike 1</text>
<polygon fill="none" stroke="#334155" points="449,-138 449,-169 491.25,-169 491.25,-138 449,-138"/>
<text xml:space="preserve" text-anchor="start" x="458.88" y="-148.7" font-family="Helvetica,sans-Serif" font-weight="bold" font-size="14.00">100</text>
<polygon fill="#93c5fd" stroke="none" points="491.25,-138 491.25,-169 613,-169 613,-138 491.25,-138"/>
<polygon fill="none" stroke="#334155" points="491.25,-138 491.25,-169 613,-169 613,-138 491.25,-138"/>
<text xml:space="preserve" text-anchor="start" x="540.88" y="-148.7" font-family="Helvetica,sans-Serif" font-weight="bold" font-size="14.00">400</text>
<polygon fill="#4ade80" stroke="none" points="613,-138 613,-169 711.5,-169 711.5,-138 613,-138"/>
<polygon fill="none" stroke="#334155" points="613,-138 613,-169 711.5,-169 711.5,-138 613,-138"/>
<text xml:space="preserve" text-anchor="start" x="654.75" y="-148.7" font-family="Helvetica,sans-Serif" font-weight="bold" font-size="14.00">60</text>
<polygon fill="#facc15" stroke="none" points="711.5,-138 711.5,-169 849.75,-169 849.75,-138 711.5,-138"/>
<polygon fill="none" stroke="#334155" points="711.5,-138 711.5,-169 849.75,-169 849.75,-138 711.5,-138"/>
<text xml:space="preserve" text-anchor="start" x="773.12" y="-148.7" font-family="Helvetica,sans-Serif" font-weight="bold" font-size="14.00">20</text>
<polygon fill="#60a5fa" stroke="none" points="849.75,-138 849.75,-169 970,-169 970,-138 849.75,-138"/>
<polygon fill="none" stroke="#334155" points="849.75,-138 849.75,-169 970,-169 970,-138 849.75,-138"/>
<text xml:space="preserve" text-anchor="start" x="898.62" y="-148.7" font-family="Helvetica,sans-Serif" font-weight="bold" font-size="14.00">100</text>
<polygon fill="none" stroke="#334155" points="313,-107 313,-138 449,-138 449,-107 313,-107"/>
<text xml:space="preserve" text-anchor="start" x="321" y="-118.75" font-family="Helvetica,sans-Serif" font-size="14.00">Spike 2</text>
<polygon fill="none" stroke="#334155" points="449,-107 449,-138 491.25,-138 491.25,-107 449,-107"/>
<text xml:space="preserve" text-anchor="start" x="458.88" y="-117.7" font-family="Helvetica,sans-Serif" font-weight="bold" font-size="14.00">200</text>
<polygon fill="#3b82f6" stroke="none" points="491.25,-107 491.25,-138 613,-138 613,-107 491.25,-107"/>
<polygon fill="none" stroke="#334155" points="491.25,-107 491.25,-138 613,-138 613,-107 491.25,-107"/>
<text xml:space="preserve" text-anchor="start" x="540.88" y="-117.7" font-family="Helvetica,sans-Serif" font-weight="bold" font-size="14.00" fill="white">800</text>
<polygon fill="#22c55e" stroke="none" points="613,-107 613,-138 711.5,-138 711.5,-107 613,-107"/>
<polygon fill="none" stroke="#334155" points="613,-107 613,-138 711.5,-138 711.5,-107 613,-107"/>
<text xml:space="preserve" text-anchor="start" x="651" y="-117.7" font-family="Helvetica,sans-Serif" font-weight="bold" font-size="14.00">120</text>
<polygon fill="#eab308" stroke="none" points="711.5,-107 711.5,-138 849.75,-138 849.75,-107 711.5,-107"/>
<polygon fill="none" stroke="#334155" points="711.5,-107 711.5,-138 849.75,-138 849.75,-107 711.5,-107"/>
<text xml:space="preserve" text-anchor="start" x="773.12" y="-117.7" font-family="Helvetica,sans-Serif" font-weight="bold" font-size="14.00">40</text>
<polygon fill="#3b82f6" stroke="none" points="849.75,-107 849.75,-138 970,-138 970,-107 849.75,-107"/>
<polygon fill="none" stroke="#334155" points="849.75,-107 849.75,-138 970,-138 970,-107 849.75,-107"/>
<text xml:space="preserve" text-anchor="start" x="898.62" y="-117.7" font-family="Helvetica,sans-Serif" font-weight="bold" font-size="14.00" fill="white">200</text>
<polygon fill="none" stroke="#334155" points="313,-76 313,-107 449,-107 449,-76 313,-76"/>
<text xml:space="preserve" text-anchor="start" x="321" y="-87.75" font-family="Helvetica,sans-Serif" font-size="14.00">Spike 3</text>
<polygon fill="none" stroke="#334155" points="449,-76 449,-107 491.25,-107 491.25,-76 449,-76"/>
<text xml:space="preserve" text-anchor="start" x="458.88" y="-86.7" font-family="Helvetica,sans-Serif" font-weight="bold" font-size="14.00">400</text>
<polygon fill="#1d4ed8" stroke="none" points="491.25,-76 491.25,-107 613,-107 613,-76 491.25,-76"/>
<polygon fill="none" stroke="#334155" points="491.25,-76 491.25,-107 613,-107 613,-76 491.25,-76"/>
<text xml:space="preserve" text-anchor="start" x="537.12" y="-86.7" font-family="Helvetica,sans-Serif" font-weight="bold" font-size="14.00" fill="white">1600</text>
<polygon fill="#15803d" stroke="none" points="613,-76 613,-107 711.5,-107 711.5,-76 613,-76"/>
<polygon fill="none" stroke="#334155" points="613,-76 613,-107 711.5,-107 711.5,-76 613,-76"/>
<text xml:space="preserve" text-anchor="start" x="651" y="-86.7" font-family="Helvetica,sans-Serif" font-weight="bold" font-size="14.00" fill="white">240</text>
<polygon fill="#a16207" stroke="none" points="711.5,-76 711.5,-107 849.75,-107 849.75,-76 711.5,-76"/>
<polygon fill="none" stroke="#334155" points="711.5,-76 711.5,-107 849.75,-107 849.75,-76 711.5,-76"/>
<text xml:space="preserve" text-anchor="start" x="773.12" y="-86.7" font-family="Helvetica,sans-Serif" font-weight="bold" font-size="14.00" fill="white">80</text>
<polygon fill="#1d4ed8" stroke="none" points="849.75,-76 849.75,-107 970,-107 970,-76 849.75,-76"/>
<polygon fill="none" stroke="#334155" points="849.75,-76 849.75,-107 970,-107 970,-76 849.75,-76"/>
<text xml:space="preserve" text-anchor="start" x="898.62" y="-86.7" font-family="Helvetica,sans-Serif" font-weight="bold" font-size="14.00" fill="white">400</text>
<polygon fill="none" stroke="#334155" points="312,-75 312,-232 971,-232 971,-75 312,-75"/>
</g>
<!-- target_note -->
<g id="node2" class="node">
<title>target_note</title>
<text xml:space="preserve" text-anchor="start" x="4" y="-29.7" font-family="Helvetica,sans-Serif" font-weight="bold" font-size="14.00">Readout:</text>
<text xml:space="preserve" text-anchor="start" x="62.5" y="-29.7" font-family="Helvetica,sans-Serif" font-size="14.00"> darker cells mean more target pressure per completed wave.</text>
<text xml:space="preserve" text-anchor="start" x="4" y="-7.75" font-family="Helvetica,sans-Serif" font-size="14.00">Current config: BASE_SPIKE_USERS=100, SPIKE_MULTIPLIER=2, regional_shoppers=30 VUs, api_request_rate=100 requests/sec, storefront_actions=ramp to 5 browser VUs over 2m, hold 6m, ramp down 2m.</text>
</g>
<!-- target_heatmap&#45;&gt;target_note -->
</g>
</svg>
