<?xml version="1.0" encoding="UTF-8" standalone="no"?>
<!DOCTYPE svg PUBLIC "-//W3C//DTD SVG 1.1//EN"
 "http://www.w3.org/Graphics/SVG/1.1/DTD/svg11.dtd">
<!-- Generated by graphviz version 15.0.0 (20260523.1842)
 -->
<!-- Title: traffic_spike_target_heatmap_dark Pages: 1 -->
<svg width="667pt" height="363pt"
 viewBox="0.00 0.00 667.00 363.00" xmlns="http://www.w3.org/2000/svg" xmlns:xlink="http://www.w3.org/1999/xlink">
<g id="graph0" class="graph" transform="scale(1 1) rotate(0) translate(4 358.5)">
<title>traffic_spike_target_heatmap_dark</title>
<polygon fill="#0b1220" stroke="none" points="-4,4 -4,-358.5 663,-358.5 663,4 -4,4"/>
<text xml:space="preserve" text-anchor="middle" x="329.5" y="-329.6" font-family="Helvetica,sans-Serif" font-size="22.00" fill="#f8fafc">Traffic Spike Test Targets</text>
<!-- target_heatmap -->
<g id="node1" class="node">
<title>target_heatmap</title>
<polygon fill="#1e3a5f" stroke="none" points="1,-292 1,-323 137,-323 137,-292 1,-292"/>
<polygon fill="none" stroke="#475569" points="1,-292 1,-323 137,-323 137,-292 1,-292"/>
<text xml:space="preserve" text-anchor="start" x="50.62" y="-302.7" font-family="Helvetica,sans-Serif" font-weight="bold" font-size="14.00" fill="#f8fafc">Stage</text>
<polygon fill="#1e3a5f" stroke="none" points="137,-292 137,-323 179.25,-323 179.25,-292 137,-292"/>
<polygon fill="none" stroke="#475569" points="137,-292 137,-323 179.25,-323 179.25,-292 137,-292"/>
<text xml:space="preserve" text-anchor="start" x="145" y="-302.7" font-family="Helvetica,sans-Serif" font-weight="bold" font-size="14.00" fill="#f8fafc">VUs</text>
<polygon fill="#1e3a5f" stroke="none" points="179.25,-292 179.25,-323 301,-323 301,-292 179.25,-292"/>
<polygon fill="none" stroke="#475569" points="179.25,-292 179.25,-323 301,-323 301,-292 179.25,-292"/>
<text xml:space="preserve" text-anchor="start" x="187.25" y="-302.7" font-family="Helvetica,sans-Serif" font-weight="bold" font-size="14.00" fill="#f8fafc">Requests / wave</text>
<polygon fill="#14532d" stroke="none" points="301,-292 301,-323 399.5,-323 399.5,-292 301,-292"/>
<polygon fill="none" stroke="#475569" points="301,-292 301,-323 399.5,-323 399.5,-292 301,-292"/>
<text xml:space="preserve" text-anchor="start" x="309" y="-302.7" font-family="Helvetica,sans-Serif" font-weight="bold" font-size="14.00" fill="#f8fafc">Cart updates</text>
<polygon fill="#713f12" stroke="none" points="399.5,-292 399.5,-323 537.75,-323 537.75,-292 399.5,-292"/>
<polygon fill="none" stroke="#475569" points="399.5,-292 399.5,-323 537.75,-323 537.75,-292 399.5,-292"/>
<text xml:space="preserve" text-anchor="start" x="407.5" y="-302.7" font-family="Helvetica,sans-Serif" font-weight="bold" font-size="14.00" fill="#f8fafc">Checkout attempts</text>
<polygon fill="#1e40af" stroke="none" points="537.75,-292 537.75,-323 658,-323 658,-292 537.75,-292"/>
<polygon fill="none" stroke="#475569" points="537.75,-292 537.75,-323 658,-323 658,-292 537.75,-292"/>
<text xml:space="preserve" text-anchor="start" x="545.75" y="-302.7" font-family="Helvetica,sans-Serif" font-weight="bold" font-size="14.00" fill="#f8fafc">Region changes</text>
<polygon fill="#111827" stroke="none" points="1,-261 1,-292 137,-292 137,-261 1,-261"/>
<polygon fill="none" stroke="#475569" points="1,-261 1,-292 137,-292 137,-261 1,-261"/>
<text xml:space="preserve" text-anchor="start" x="9" y="-272.75" font-family="Helvetica,sans-Serif" font-size="14.00" fill="#f8fafc">Warmup / Recovery</text>
<polygon fill="#111827" stroke="none" points="137,-261 137,-292 179.25,-292 179.25,-261 137,-261"/>
<polygon fill="none" stroke="#475569" points="137,-261 137,-292 179.25,-292 179.25,-261 137,-261"/>
<text xml:space="preserve" text-anchor="start" x="150.62" y="-271.7" font-family="Helvetica,sans-Serif" font-weight="bold" font-size="14.00" fill="#f8fafc">25</text>
<polygon fill="#334155" stroke="none" points="179.25,-261 179.25,-292 301,-292 301,-261 179.25,-261"/>
<polygon fill="none" stroke="#475569" points="179.25,-261 179.25,-292 301,-292 301,-261 179.25,-261"/>
<text xml:space="preserve" text-anchor="start" x="228.88" y="-272.75" font-family="Helvetica,sans-Serif" font-size="14.00" fill="#f8fafc">100</text>
<polygon fill="#166534" stroke="none" points="301,-261 301,-292 399.5,-292 399.5,-261 301,-261"/>
<polygon fill="none" stroke="#475569" points="301,-261 301,-292 399.5,-292 399.5,-261 301,-261"/>
<text xml:space="preserve" text-anchor="start" x="342.75" y="-272.75" font-family="Helvetica,sans-Serif" font-size="14.00" fill="#f8fafc">15</text>
<polygon fill="#854d0e" stroke="none" points="399.5,-261 399.5,-292 537.75,-292 537.75,-261 399.5,-261"/>
<polygon fill="none" stroke="#475569" points="399.5,-261 399.5,-292 537.75,-292 537.75,-261 399.5,-261"/>
<text xml:space="preserve" text-anchor="start" x="464.88" y="-272.75" font-family="Helvetica,sans-Serif" font-size="14.00" fill="#f8fafc">5</text>
<polygon fill="#1d4ed8" stroke="none" points="537.75,-261 537.75,-292 658,-292 658,-261 537.75,-261"/>
<polygon fill="none" stroke="#475569" points="537.75,-261 537.75,-292 658,-292 658,-261 537.75,-261"/>
<text xml:space="preserve" text-anchor="start" x="590.38" y="-272.75" font-family="Helvetica,sans-Serif" font-size="14.00" fill="#f8fafc">25</text>
<polygon fill="#111827" stroke="none" points="1,-230 1,-261 137,-261 137,-230 1,-230"/>
<polygon fill="none" stroke="#475569" points="1,-230 1,-261 137,-261 137,-230 1,-230"/>
<text xml:space="preserve" text-anchor="start" x="9" y="-241.75" font-family="Helvetica,sans-Serif" font-size="14.00" fill="#f8fafc">Spike 1</text>
<polygon fill="#111827" stroke="none" points="137,-230 137,-261 179.25,-261 179.25,-230 137,-230"/>
<polygon fill="none" stroke="#475569" points="137,-230 137,-261 179.25,-261 179.25,-230 137,-230"/>
<text xml:space="preserve" text-anchor="start" x="146.88" y="-240.7" font-family="Helvetica,sans-Serif" font-weight="bold" font-size="14.00" fill="#f8fafc">100</text>
<polygon fill="#2563eb" stroke="none" points="179.25,-230 179.25,-261 301,-261 301,-230 179.25,-230"/>
<polygon fill="none" stroke="#475569" points="179.25,-230 179.25,-261 301,-261 301,-230 179.25,-230"/>
<text xml:space="preserve" text-anchor="start" x="228.88" y="-240.7" font-family="Helvetica,sans-Serif" font-weight="bold" font-size="14.00" fill="#f8fafc">400</text>
<polygon fill="#15803d" stroke="none" points="301,-230 301,-261 399.5,-261 399.5,-230 301,-230"/>
<polygon fill="none" stroke="#475569" points="301,-230 301,-261 399.5,-261 399.5,-230 301,-230"/>
<text xml:space="preserve" text-anchor="start" x="342.75" y="-240.7" font-family="Helvetica,sans-Serif" font-weight="bold" font-size="14.00" fill="#f8fafc">60</text>
<polygon fill="#a16207" stroke="none" points="399.5,-230 399.5,-261 537.75,-261 537.75,-230 399.5,-230"/>
<polygon fill="none" stroke="#475569" points="399.5,-230 399.5,-261 537.75,-261 537.75,-230 399.5,-230"/>
<text xml:space="preserve" text-anchor="start" x="461.12" y="-240.7" font-family="Helvetica,sans-Serif" font-weight="bold" font-size="14.00" fill="#f8fafc">20</text>
<polygon fill="#2563eb" stroke="none" points="537.75,-230 537.75,-261 658,-261 658,-230 537.75,-230"/>
<polygon fill="none" stroke="#475569" points="537.75,-230 537.75,-261 658,-261 658,-230 537.75,-230"/>
<text xml:space="preserve" text-anchor="start" x="586.62" y="-240.7" font-family="Helvetica,sans-Serif" font-weight="bold" font-size="14.00" fill="#f8fafc">100</text>
<polygon fill="#111827" stroke="none" points="1,-199 1,-230 137,-230 137,-199 1,-199"/>
<polygon fill="none" stroke="#475569" points="1,-199 1,-230 137,-230 137,-199 1,-199"/>
<text xml:space="preserve" text-anchor="start" x="9" y="-210.75" font-family="Helvetica,sans-Serif" font-size="14.00" fill="#f8fafc">Spike 2</text>
<polygon fill="#111827" stroke="none" points="137,-199 137,-230 179.25,-230 179.25,-199 137,-199"/>
<polygon fill="none" stroke="#475569" points="137,-199 137,-230 179.25,-230 179.25,-199 137,-199"/>
<text xml:space="preserve" text-anchor="start" x="146.88" y="-209.7" font-family="Helvetica,sans-Serif" font-weight="bold" font-size="14.00" fill="#f8fafc">200</text>
<polygon fill="#1e40af" stroke="none" points="179.25,-199 179.25,-230 301,-230 301,-199 179.25,-199"/>
<polygon fill="none" stroke="#475569" points="179.25,-199 179.25,-230 301,-230 301,-199 179.25,-199"/>
<text xml:space="preserve" text-anchor="start" x="228.88" y="-209.7" font-family="Helvetica,sans-Serif" font-weight="bold" font-size="14.00" fill="#f8fafc">800</text>
<polygon fill="#15803d" stroke="none" points="301,-199 301,-230 399.5,-230 399.5,-199 301,-199"/>
<polygon fill="none" stroke="#475569" points="301,-199 301,-230 399.5,-230 399.5,-199 301,-199"/>
<text xml:space="preserve" text-anchor="start" x="339" y="-209.7" font-family="Helvetica,sans-Serif" font-weight="bold" font-size="14.00" fill="#f8fafc">120</text>
<polygon fill="#92400e" stroke="none" points="399.5,-199 399.5,-230 537.75,-230 537.75,-199 399.5,-199"/>
<polygon fill="none" stroke="#475569" points="399.5,-199 399.5,-230 537.75,-230 537.75,-199 399.5,-199"/>
<text xml:space="preserve" text-anchor="start" x="461.12" y="-209.7" font-family="Helvetica,sans-Serif" font-weight="bold" font-size="14.00" fill="#f8fafc">40</text>
<polygon fill="#1e40af" stroke="none" points="537.75,-199 537.75,-230 658,-230 658,-199 537.75,-199"/>
<polygon fill="none" stroke="#475569" points="537.75,-199 537.75,-230 658,-230 658,-199 537.75,-199"/>
<text xml:space="preserve" text-anchor="start" x="586.62" y="-209.7" font-family="Helvetica,sans-Serif" font-weight="bold" font-size="14.00" fill="#f8fafc">200</text>
<polygon fill="#111827" stroke="none" points="1,-168 1,-199 137,-199 137,-168 1,-168"/>
<polygon fill="none" stroke="#475569" points="1,-168 1,-199 137,-199 137,-168 1,-168"/>
<text xml:space="preserve" text-anchor="start" x="9" y="-179.75" font-family="Helvetica,sans-Serif" font-size="14.00" fill="#f8fafc">Spike 3</text>
<polygon fill="#111827" stroke="none" points="137,-168 137,-199 179.25,-199 179.25,-168 137,-168"/>
<polygon fill="none" stroke="#475569" points="137,-168 137,-199 179.25,-199 179.25,-168 137,-168"/>
<text xml:space="preserve" text-anchor="start" x="146.88" y="-178.7" font-family="Helvetica,sans-Serif" font-weight="bold" font-size="14.00" fill="#f8fafc">400</text>
<polygon fill="#1e3a8a" stroke="none" points="179.25,-168 179.25,-199 301,-199 301,-168 179.25,-168"/>
<polygon fill="none" stroke="#475569" points="179.25,-168 179.25,-199 301,-199 301,-168 179.25,-168"/>
<text xml:space="preserve" text-anchor="start" x="225.12" y="-178.7" font-family="Helvetica,sans-Serif" font-weight="bold" font-size="14.00" fill="#f8fafc">1600</text>
<polygon fill="#166534" stroke="none" points="301,-168 301,-199 399.5,-199 399.5,-168 301,-168"/>
<polygon fill="none" stroke="#475569" points="301,-168 301,-199 399.5,-199 399.5,-168 301,-168"/>
<text xml:space="preserve" text-anchor="start" x="339" y="-178.7" font-family="Helvetica,sans-Serif" font-weight="bold" font-size="14.00" fill="#f8fafc">240</text>
<polygon fill="#713f12" stroke="none" points="399.5,-168 399.5,-199 537.75,-199 537.75,-168 399.5,-168"/>
<polygon fill="none" stroke="#475569" points="399.5,-168 399.5,-199 537.75,-199 537.75,-168 399.5,-168"/>
<text xml:space="preserve" text-anchor="start" x="461.12" y="-178.7" font-family="Helvetica,sans-Serif" font-weight="bold" font-size="14.00" fill="#f8fafc">80</text>
<polygon fill="#1e3a8a" stroke="none" points="537.75,-168 537.75,-199 658,-199 658,-168 537.75,-168"/>
<polygon fill="none" stroke="#475569" points="537.75,-168 537.75,-199 658,-199 658,-168 537.75,-168"/>
<text xml:space="preserve" text-anchor="start" x="586.62" y="-178.7" font-family="Helvetica,sans-Serif" font-weight="bold" font-size="14.00" fill="#f8fafc">400</text>
<polygon fill="none" stroke="#475569" points="0,-167 0,-324 659,-324 659,-167 0,-167"/>
</g>
<!-- target_note -->
<g id="node2" class="node">
<title>target_note</title>
<text xml:space="preserve" text-anchor="start" x="111.62" y="-121.7" font-family="Helvetica,sans-Serif" font-weight="bold" font-size="14.00" fill="#f8fafc">Readout:</text>
<text xml:space="preserve" text-anchor="start" x="170.12" y="-121.7" font-family="Helvetica,sans-Serif" font-size="14.00" fill="#f8fafc"> brighter cells mean more target pressure per completed wave.</text>
<text xml:space="preserve" text-anchor="start" x="111.62" y="-99.75" font-family="Helvetica,sans-Serif" font-size="14.00" fill="#f8fafc">Config: base=100, multiplier=2.</text>
<text xml:space="preserve" text-anchor="start" x="111.62" y="-76.75" font-family="Helvetica,sans-Serif" font-size="14.00" fill="#f8fafc">Regional shoppers: 30 VUs.</text>
<text xml:space="preserve" text-anchor="start" x="111.62" y="-53.75" font-family="Helvetica,sans-Serif" font-size="14.00" fill="#f8fafc">Steady API load: 8 requests/sec.</text>
<text xml:space="preserve" text-anchor="start" x="111.62" y="-30.75" font-family="Helvetica,sans-Serif" font-size="14.00" fill="#f8fafc">Storefront actions: ramp to 5 browser VUs.</text>
<text xml:space="preserve" text-anchor="start" x="111.62" y="-7.75" font-family="Helvetica,sans-Serif" font-size="14.00" fill="#f8fafc">Duration: 15m.</text>
</g>
<!-- target_heatmap&#45;&gt;target_note -->
</g>
</svg>
