<?xml version="1.0" encoding="UTF-8" standalone="no"?>
<!DOCTYPE svg PUBLIC "-//W3C//DTD SVG 1.1//EN"
 "http://www.w3.org/Graphics/SVG/1.1/DTD/svg11.dtd">
<!-- Generated by graphviz version 15.0.0 (20260523.1842)
 -->
<!-- Title: traffic_spike_request_tables Pages: 1 -->
<svg width="860pt" height="1050pt"
 viewBox="0.00 0.00 860.00 1050.00" xmlns="http://www.w3.org/2000/svg" xmlns:xlink="http://www.w3.org/1999/xlink">
<g id="graph0" class="graph" transform="scale(1 1) rotate(0) translate(4 1045.5)">
<title>traffic_spike_request_tables</title>
<polygon fill="white" stroke="none" points="-4,4 -4,-1045.5 855.75,-1045.5 855.75,4 -4,4"/>
<text xml:space="preserve" text-anchor="middle" x="425.88" y="-1016.6" font-family="Helvetica,sans-Serif" font-size="22.00">Traffic Spike Request Model</text>
<!-- caveat -->
<g id="node1" class="node">
<title>caveat</title>
<polygon fill="#fff7ed" stroke="none" points="96.5,-979 96.5,-1010 755.25,-1010 755.25,-979 96.5,-979"/>
<text xml:space="preserve" text-anchor="start" x="371.5" y="-989.7" font-family="Helvetica,sans-Serif" font-weight="bold" font-size="14.00">Important caveat</text>
<text xml:space="preserve" text-anchor="start" x="104.5" y="-958.7" font-family="Helvetica,sans-Serif" font-size="14.00">Requests per stage are not fixed. </text>
<text xml:space="preserve" text-anchor="start" x="307" y="-958.7" font-family="Helvetica,sans-Serif" font-weight="bold" font-size="14.00">ramping&#45;vus</text>
<text xml:space="preserve" text-anchor="start" x="388.75" y="-958.7" font-family="Helvetica,sans-Serif" font-size="14.00"> keeps each active VU looping as fast as the journey allows.</text>
<text xml:space="preserve" text-anchor="start" x="172" y="-944.7" font-family="Helvetica,sans-Serif" font-size="14.00">Exact totals depend on response time, persona sleep time, and completed iterations.</text>
<polygon fill="none" stroke="#f97316" points="95.5,-934 95.5,-1011 756.25,-1011 756.25,-934 95.5,-934"/>
</g>
<!-- persona_table -->
<g id="node2" class="node">
<title>persona_table</title>
<polygon fill="#e0f2fe" stroke="none" points="13.38,-855 13.38,-886 838.38,-886 838.38,-855 13.38,-855"/>
<polygon fill="none" stroke="#334155" points="13.38,-855 13.38,-886 838.38,-886 838.38,-855 13.38,-855"/>
<text xml:space="preserve" text-anchor="start" x="294.25" y="-865.7" font-family="Helvetica,sans-Serif" font-weight="bold" font-size="14.00">Per completed traffic&#45;spike user iteration</text>
<polygon fill="#f1f5f9" stroke="none" points="13.38,-824 13.38,-855 153.12,-855 153.12,-824 13.38,-824"/>
<polygon fill="none" stroke="#334155" points="13.38,-824 13.38,-855 153.12,-855 153.12,-824 13.38,-824"/>
<text xml:space="preserve" text-anchor="start" x="56.62" y="-834.7" font-family="Helvetica,sans-Serif" font-weight="bold" font-size="14.00">Persona</text>
<polygon fill="#f1f5f9" stroke="none" points="153.12,-824 153.12,-855 229.88,-855 229.88,-824 153.12,-824"/>
<polygon fill="none" stroke="#334155" points="153.12,-824 153.12,-855 229.88,-855 229.88,-824 153.12,-824"/>
<text xml:space="preserve" text-anchor="start" x="161.12" y="-834.7" font-family="Helvetica,sans-Serif" font-weight="bold" font-size="14.00">Requests</text>
<polygon fill="#f1f5f9" stroke="none" points="229.88,-824 229.88,-855 838.38,-855 838.38,-824 229.88,-824"/>
<polygon fill="none" stroke="#334155" points="229.88,-824 229.88,-855 838.38,-855 838.38,-824 229.88,-824"/>
<text xml:space="preserve" text-anchor="start" x="475.25" y="-834.7" font-family="Helvetica,sans-Serif" font-weight="bold" font-size="14.00">Counters / actions</text>
<polygon fill="none" stroke="#334155" points="13.38,-791.5 13.38,-824 153.12,-824 153.12,-791.5 13.38,-791.5"/>
<text xml:space="preserve" text-anchor="start" x="21.38" y="-804" font-family="Courier,monospace" font-size="14.00">browser</text>
<polygon fill="none" stroke="#334155" points="153.12,-791.5 153.12,-824 229.88,-824 229.88,-791.5 153.12,-791.5"/>
<text xml:space="preserve" text-anchor="start" x="214.38" y="-804" font-family="Helvetica,sans-Serif" font-size="14.00">3</text>
<polygon fill="none" stroke="#334155" points="229.88,-791.5 229.88,-824 838.38,-824 838.38,-791.5 229.88,-791.5"/>
<text xml:space="preserve" text-anchor="start" x="237.88" y="-804" font-family="Courier,monospace" font-size="14.00">spike_region_changes +1</text>
<polygon fill="none" stroke="#334155" points="13.38,-759 13.38,-791.5 153.12,-791.5 153.12,-759 13.38,-759"/>
<text xml:space="preserve" text-anchor="start" x="21.38" y="-771.5" font-family="Courier,monospace" font-size="14.00">cart_builder</text>
<polygon fill="none" stroke="#334155" points="153.12,-759 153.12,-791.5 229.88,-791.5 229.88,-759 153.12,-759"/>
<text xml:space="preserve" text-anchor="start" x="214.38" y="-771.5" font-family="Helvetica,sans-Serif" font-size="14.00">4</text>
<polygon fill="none" stroke="#334155" points="229.88,-759 229.88,-791.5 838.38,-791.5 838.38,-759 229.88,-759"/>
<text xml:space="preserve" text-anchor="start" x="237.88" y="-771.2" font-family="Courier,monospace" font-size="14.00">spike_region_changes +1</text>
<text xml:space="preserve" text-anchor="start" x="427.62" y="-771.2" font-family="Helvetica,sans-Serif" font-size="14.00">, </text>
<text xml:space="preserve" text-anchor="start" x="435.12" y="-771.2" font-family="Courier,monospace" font-size="14.00">spike_cart_updates +1</text>
<polygon fill="none" stroke="#334155" points="13.38,-726.5 13.38,-759 153.12,-759 153.12,-726.5 13.38,-726.5"/>
<text xml:space="preserve" text-anchor="start" x="21.38" y="-739" font-family="Courier,monospace" font-size="14.00">account_manager</text>
<polygon fill="none" stroke="#334155" points="153.12,-726.5 153.12,-759 229.88,-759 229.88,-726.5 153.12,-726.5"/>
<text xml:space="preserve" text-anchor="start" x="214.38" y="-739" font-family="Helvetica,sans-Serif" font-size="14.00">4</text>
<polygon fill="none" stroke="#334155" points="229.88,-726.5 229.88,-759 838.38,-759 838.38,-726.5 229.88,-726.5"/>
<text xml:space="preserve" text-anchor="start" x="237.88" y="-739" font-family="Courier,monospace" font-size="14.00">spike_region_changes +1</text>
<polygon fill="none" stroke="#334155" points="13.38,-694 13.38,-726.5 153.12,-726.5 153.12,-694 13.38,-694"/>
<text xml:space="preserve" text-anchor="start" x="21.38" y="-706.5" font-family="Courier,monospace" font-size="14.00">sale_hunter</text>
<polygon fill="none" stroke="#334155" points="153.12,-694 153.12,-726.5 229.88,-726.5 229.88,-694 153.12,-694"/>
<text xml:space="preserve" text-anchor="start" x="214.38" y="-706.5" font-family="Helvetica,sans-Serif" font-size="14.00">4</text>
<polygon fill="none" stroke="#334155" points="229.88,-694 229.88,-726.5 838.38,-726.5 838.38,-694 229.88,-694"/>
<text xml:space="preserve" text-anchor="start" x="237.88" y="-706.2" font-family="Courier,monospace" font-size="14.00">spike_region_changes +1</text>
<text xml:space="preserve" text-anchor="start" x="427.62" y="-706.2" font-family="Helvetica,sans-Serif" font-size="14.00">, </text>
<text xml:space="preserve" text-anchor="start" x="435.12" y="-706.2" font-family="Courier,monospace" font-size="14.00">spike_cart_updates +1</text>
<polygon fill="none" stroke="#334155" points="13.38,-661.5 13.38,-694 153.12,-694 153.12,-661.5 13.38,-661.5"/>
<text xml:space="preserve" text-anchor="start" x="21.38" y="-674" font-family="Courier,monospace" font-size="14.00">checkout</text>
<polygon fill="none" stroke="#334155" points="153.12,-661.5 153.12,-694 229.88,-694 229.88,-661.5 153.12,-661.5"/>
<text xml:space="preserve" text-anchor="start" x="214.38" y="-674" font-family="Helvetica,sans-Serif" font-size="14.00">5</text>
<polygon fill="none" stroke="#334155" points="229.88,-661.5 229.88,-694 838.38,-694 838.38,-661.5 229.88,-661.5"/>
<text xml:space="preserve" text-anchor="start" x="237.88" y="-673.7" font-family="Courier,monospace" font-size="14.00">spike_region_changes +1</text>
<text xml:space="preserve" text-anchor="start" x="427.62" y="-673.7" font-family="Helvetica,sans-Serif" font-size="14.00">, </text>
<text xml:space="preserve" text-anchor="start" x="435.12" y="-673.7" font-family="Courier,monospace" font-size="14.00">spike_cart_updates +1</text>
<text xml:space="preserve" text-anchor="start" x="608.38" y="-673.7" font-family="Helvetica,sans-Serif" font-size="14.00">, </text>
<text xml:space="preserve" text-anchor="start" x="615.88" y="-673.7" font-family="Courier,monospace" font-size="14.00">spike_checkout_attempts +1</text>
<polygon fill="#ecfeff" stroke="none" points="13.38,-630.5 13.38,-661.5 153.12,-661.5 153.12,-630.5 13.38,-630.5"/>
<polygon fill="none" stroke="#334155" points="13.38,-630.5 13.38,-661.5 153.12,-661.5 153.12,-630.5 13.38,-630.5"/>
<text xml:space="preserve" text-anchor="start" x="21.38" y="-641.2" font-family="Helvetica,sans-Serif" font-weight="bold" font-size="14.00">Average</text>
<polygon fill="#ecfeff" stroke="none" points="153.12,-630.5 153.12,-661.5 229.88,-661.5 229.88,-630.5 153.12,-630.5"/>
<polygon fill="none" stroke="#334155" points="153.12,-630.5 153.12,-661.5 229.88,-661.5 229.88,-630.5 153.12,-630.5"/>
<text xml:space="preserve" text-anchor="start" x="214.38" y="-641.2" font-family="Helvetica,sans-Serif" font-weight="bold" font-size="14.00">4</text>
<polygon fill="#ecfeff" stroke="none" points="229.88,-630.5 229.88,-661.5 838.38,-661.5 838.38,-630.5 229.88,-630.5"/>
<polygon fill="none" stroke="#334155" points="229.88,-630.5 229.88,-661.5 838.38,-661.5 838.38,-630.5 229.88,-630.5"/>
<text xml:space="preserve" text-anchor="start" x="237.88" y="-641.2" font-family="Helvetica,sans-Serif" font-weight="bold" font-size="14.00">requests per completed user iteration</text>
<polygon fill="none" stroke="#334155" points="12.38,-629.5 12.38,-887 839.38,-887 839.38,-629.5 12.38,-629.5"/>
</g>
<!-- caveat&#45;&gt;persona_table -->
<g id="edge1" class="edge">
<title>caveat&#45;&gt;persona_table</title>
<path fill="none" stroke="#94a3b8" d="M425.88,-934.04C425.88,-922.6 425.88,-909.3 425.88,-895.23"/>
<polygon fill="#94a3b8" stroke="#94a3b8" points="428.33,-895.38 425.88,-888.38 423.43,-895.38 428.33,-895.38"/>
</g>
<!-- stage_table -->
<g id="node3" class="node">
<title>stage_table</title>
<polygon fill="#dcfce7" stroke="none" points="36.12,-550.5 36.12,-581.5 815.62,-581.5 815.62,-550.5 36.12,-550.5"/>
<polygon fill="none" stroke="#334155" points="36.12,-550.5 36.12,-581.5 815.62,-581.5 815.62,-550.5 36.12,-550.5"/>
<text xml:space="preserve" text-anchor="start" x="281.5" y="-561.2" font-family="Helvetica,sans-Serif" font-weight="bold" font-size="14.00">Current stage estimates per completed wave</text>
<polygon fill="#f1f5f9" stroke="none" points="36.12,-519.5 36.12,-550.5 166.88,-550.5 166.88,-519.5 36.12,-519.5"/>
<polygon fill="none" stroke="#334155" points="36.12,-519.5 36.12,-550.5 166.88,-550.5 166.88,-519.5 36.12,-519.5"/>
<text xml:space="preserve" text-anchor="start" x="83.12" y="-530.2" font-family="Helvetica,sans-Serif" font-weight="bold" font-size="14.00">Stage</text>
<polygon fill="#f1f5f9" stroke="none" points="166.88,-519.5 166.88,-550.5 238.38,-550.5 238.38,-519.5 166.88,-519.5"/>
<polygon fill="none" stroke="#334155" points="166.88,-519.5 166.88,-550.5 238.38,-550.5 238.38,-519.5 166.88,-519.5"/>
<text xml:space="preserve" text-anchor="start" x="174.88" y="-530.2" font-family="Helvetica,sans-Serif" font-weight="bold" font-size="14.00">Duration</text>
<polygon fill="#f1f5f9" stroke="none" points="238.38,-519.5 238.38,-550.5 325.62,-550.5 325.62,-519.5 238.38,-519.5"/>
<polygon fill="none" stroke="#334155" points="238.38,-519.5 238.38,-550.5 325.62,-550.5 325.62,-519.5 238.38,-519.5"/>
<text xml:space="preserve" text-anchor="start" x="246.38" y="-530.2" font-family="Helvetica,sans-Serif" font-weight="bold" font-size="14.00">Target VUs</text>
<polygon fill="#f1f5f9" stroke="none" points="325.62,-519.5 325.62,-550.5 458.62,-550.5 458.62,-519.5 325.62,-519.5"/>
<polygon fill="none" stroke="#334155" points="325.62,-519.5 325.62,-550.5 458.62,-550.5 458.62,-519.5 325.62,-519.5"/>
<text xml:space="preserve" text-anchor="start" x="338.5" y="-530.2" font-family="Helvetica,sans-Serif" font-weight="bold" font-size="14.00">Approx requests</text>
<polygon fill="#f1f5f9" stroke="none" points="458.62,-519.5 458.62,-550.5 557.12,-550.5 557.12,-519.5 458.62,-519.5"/>
<polygon fill="none" stroke="#334155" points="458.62,-519.5 458.62,-550.5 557.12,-550.5 557.12,-519.5 458.62,-519.5"/>
<text xml:space="preserve" text-anchor="start" x="466.62" y="-530.2" font-family="Helvetica,sans-Serif" font-weight="bold" font-size="14.00">Cart updates</text>
<polygon fill="#f1f5f9" stroke="none" points="557.12,-519.5 557.12,-550.5 695.38,-550.5 695.38,-519.5 557.12,-519.5"/>
<polygon fill="none" stroke="#334155" points="557.12,-519.5 557.12,-550.5 695.38,-550.5 695.38,-519.5 557.12,-519.5"/>
<text xml:space="preserve" text-anchor="start" x="565.12" y="-530.2" font-family="Helvetica,sans-Serif" font-weight="bold" font-size="14.00">Checkout attempts</text>
<polygon fill="#f1f5f9" stroke="none" points="695.38,-519.5 695.38,-550.5 815.62,-550.5 815.62,-519.5 695.38,-519.5"/>
<polygon fill="none" stroke="#334155" points="695.38,-519.5 695.38,-550.5 815.62,-550.5 815.62,-519.5 695.38,-519.5"/>
<text xml:space="preserve" text-anchor="start" x="703.38" y="-530.2" font-family="Helvetica,sans-Serif" font-weight="bold" font-size="14.00">Region changes</text>
<polygon fill="none" stroke="#334155" points="36.12,-488.5 36.12,-519.5 166.88,-519.5 166.88,-488.5 36.12,-488.5"/>
<text xml:space="preserve" text-anchor="start" x="44.12" y="-500.25" font-family="Helvetica,sans-Serif" font-size="14.00">Warmup / recovery</text>
<polygon fill="none" stroke="#334155" points="166.88,-488.5 166.88,-519.5 238.38,-519.5 238.38,-488.5 166.88,-488.5"/>
<text xml:space="preserve" text-anchor="start" x="210.88" y="-500.25" font-family="Helvetica,sans-Serif" font-size="14.00">1m</text>
<polygon fill="none" stroke="#334155" points="238.38,-488.5 238.38,-519.5 325.62,-519.5 325.62,-488.5 238.38,-488.5"/>
<text xml:space="preserve" text-anchor="start" x="302.62" y="-500.25" font-family="Helvetica,sans-Serif" font-size="14.00">25</text>
<polygon fill="none" stroke="#334155" points="325.62,-488.5 325.62,-519.5 458.62,-519.5 458.62,-488.5 325.62,-488.5"/>
<text xml:space="preserve" text-anchor="start" x="428.12" y="-500.25" font-family="Helvetica,sans-Serif" font-size="14.00">100</text>
<polygon fill="none" stroke="#334155" points="458.62,-488.5 458.62,-519.5 557.12,-519.5 557.12,-488.5 458.62,-488.5"/>
<text xml:space="preserve" text-anchor="start" x="534.12" y="-500.25" font-family="Helvetica,sans-Serif" font-size="14.00">15</text>
<polygon fill="none" stroke="#334155" points="557.12,-488.5 557.12,-519.5 695.38,-519.5 695.38,-488.5 557.12,-488.5"/>
<text xml:space="preserve" text-anchor="start" x="679.88" y="-500.25" font-family="Helvetica,sans-Serif" font-size="14.00">5</text>
<polygon fill="none" stroke="#334155" points="695.38,-488.5 695.38,-519.5 815.62,-519.5 815.62,-488.5 695.38,-488.5"/>
<text xml:space="preserve" text-anchor="start" x="792.62" y="-500.25" font-family="Helvetica,sans-Serif" font-size="14.00">25</text>
<polygon fill="none" stroke="#334155" points="36.12,-457.5 36.12,-488.5 166.88,-488.5 166.88,-457.5 36.12,-457.5"/>
<text xml:space="preserve" text-anchor="start" x="44.12" y="-469.25" font-family="Helvetica,sans-Serif" font-size="14.00">Ramp to spike 1</text>
<polygon fill="none" stroke="#334155" points="166.88,-457.5 166.88,-488.5 238.38,-488.5 238.38,-457.5 166.88,-457.5"/>
<text xml:space="preserve" text-anchor="start" x="208.62" y="-469.25" font-family="Helvetica,sans-Serif" font-size="14.00">20s</text>
<polygon fill="none" stroke="#334155" points="238.38,-457.5 238.38,-488.5 325.62,-488.5 325.62,-457.5 238.38,-457.5"/>
<text xml:space="preserve" text-anchor="start" x="295.12" y="-469.25" font-family="Helvetica,sans-Serif" font-size="14.00">100</text>
<polygon fill="none" stroke="#334155" points="325.62,-457.5 325.62,-488.5 458.62,-488.5 458.62,-457.5 325.62,-457.5"/>
<text xml:space="preserve" text-anchor="start" x="341.12" y="-469.25" font-family="Helvetica,sans-Serif" font-size="14.00">up to 400 at target</text>
<polygon fill="none" stroke="#334155" points="458.62,-457.5 458.62,-488.5 557.12,-488.5 557.12,-457.5 458.62,-457.5"/>
<text xml:space="preserve" text-anchor="start" x="534.12" y="-469.25" font-family="Helvetica,sans-Serif" font-size="14.00">60</text>
<polygon fill="none" stroke="#334155" points="557.12,-457.5 557.12,-488.5 695.38,-488.5 695.38,-457.5 557.12,-457.5"/>
<text xml:space="preserve" text-anchor="start" x="672.38" y="-469.25" font-family="Helvetica,sans-Serif" font-size="14.00">20</text>
<polygon fill="none" stroke="#334155" points="695.38,-457.5 695.38,-488.5 815.62,-488.5 815.62,-457.5 695.38,-457.5"/>
<text xml:space="preserve" text-anchor="start" x="785.12" y="-469.25" font-family="Helvetica,sans-Serif" font-size="14.00">100</text>
<polygon fill="none" stroke="#334155" points="36.12,-426.5 36.12,-457.5 166.88,-457.5 166.88,-426.5 36.12,-426.5"/>
<text xml:space="preserve" text-anchor="start" x="44.12" y="-438.25" font-family="Helvetica,sans-Serif" font-size="14.00">Hold spike 1</text>
<polygon fill="none" stroke="#334155" points="166.88,-426.5 166.88,-457.5 238.38,-457.5 238.38,-426.5 166.88,-426.5"/>
<text xml:space="preserve" text-anchor="start" x="189.12" y="-438.25" font-family="Helvetica,sans-Serif" font-size="14.00">1m20s</text>
<polygon fill="none" stroke="#334155" points="238.38,-426.5 238.38,-457.5 325.62,-457.5 325.62,-426.5 238.38,-426.5"/>
<text xml:space="preserve" text-anchor="start" x="295.12" y="-438.25" font-family="Helvetica,sans-Serif" font-size="14.00">100</text>
<polygon fill="none" stroke="#334155" points="325.62,-426.5 325.62,-457.5 458.62,-457.5 458.62,-426.5 325.62,-426.5"/>
<text xml:space="preserve" text-anchor="start" x="369.62" y="-438.25" font-family="Helvetica,sans-Serif" font-size="14.00">400 per wave</text>
<polygon fill="none" stroke="#334155" points="458.62,-426.5 458.62,-457.5 557.12,-457.5 557.12,-426.5 458.62,-426.5"/>
<text xml:space="preserve" text-anchor="start" x="534.12" y="-438.25" font-family="Helvetica,sans-Serif" font-size="14.00">60</text>
<polygon fill="none" stroke="#334155" points="557.12,-426.5 557.12,-457.5 695.38,-457.5 695.38,-426.5 557.12,-426.5"/>
<text xml:space="preserve" text-anchor="start" x="672.38" y="-438.25" font-family="Helvetica,sans-Serif" font-size="14.00">20</text>
<polygon fill="none" stroke="#334155" points="695.38,-426.5 695.38,-457.5 815.62,-457.5 815.62,-426.5 695.38,-426.5"/>
<text xml:space="preserve" text-anchor="start" x="785.12" y="-438.25" font-family="Helvetica,sans-Serif" font-size="14.00">100</text>
<polygon fill="none" stroke="#334155" points="36.12,-395.5 36.12,-426.5 166.88,-426.5 166.88,-395.5 36.12,-395.5"/>
<text xml:space="preserve" text-anchor="start" x="44.12" y="-407.25" font-family="Helvetica,sans-Serif" font-size="14.00">Recovery</text>
<polygon fill="none" stroke="#334155" points="166.88,-395.5 166.88,-426.5 238.38,-426.5 238.38,-395.5 166.88,-395.5"/>
<text xml:space="preserve" text-anchor="start" x="210.88" y="-407.25" font-family="Helvetica,sans-Serif" font-size="14.00">1m</text>
<polygon fill="none" stroke="#334155" points="238.38,-395.5 238.38,-426.5 325.62,-426.5 325.62,-395.5 238.38,-395.5"/>
<text xml:space="preserve" text-anchor="start" x="302.62" y="-407.25" font-family="Helvetica,sans-Serif" font-size="14.00">25</text>
<polygon fill="none" stroke="#334155" points="325.62,-395.5 325.62,-426.5 458.62,-426.5 458.62,-395.5 325.62,-395.5"/>
<text xml:space="preserve" text-anchor="start" x="369.62" y="-407.25" font-family="Helvetica,sans-Serif" font-size="14.00">100 per wave</text>
<polygon fill="none" stroke="#334155" points="458.62,-395.5 458.62,-426.5 557.12,-426.5 557.12,-395.5 458.62,-395.5"/>
<text xml:space="preserve" text-anchor="start" x="534.12" y="-407.25" font-family="Helvetica,sans-Serif" font-size="14.00">15</text>
<polygon fill="none" stroke="#334155" points="557.12,-395.5 557.12,-426.5 695.38,-426.5 695.38,-395.5 557.12,-395.5"/>
<text xml:space="preserve" text-anchor="start" x="679.88" y="-407.25" font-family="Helvetica,sans-Serif" font-size="14.00">5</text>
<polygon fill="none" stroke="#334155" points="695.38,-395.5 695.38,-426.5 815.62,-426.5 815.62,-395.5 695.38,-395.5"/>
<text xml:space="preserve" text-anchor="start" x="792.62" y="-407.25" font-family="Helvetica,sans-Serif" font-size="14.00">25</text>
<polygon fill="none" stroke="#334155" points="36.12,-364.5 36.12,-395.5 166.88,-395.5 166.88,-364.5 36.12,-364.5"/>
<text xml:space="preserve" text-anchor="start" x="44.12" y="-376.25" font-family="Helvetica,sans-Serif" font-size="14.00">Ramp to spike 2</text>
<polygon fill="none" stroke="#334155" points="166.88,-364.5 166.88,-395.5 238.38,-395.5 238.38,-364.5 166.88,-364.5"/>
<text xml:space="preserve" text-anchor="start" x="208.62" y="-376.25" font-family="Helvetica,sans-Serif" font-size="14.00">20s</text>
<polygon fill="none" stroke="#334155" points="238.38,-364.5 238.38,-395.5 325.62,-395.5 325.62,-364.5 238.38,-364.5"/>
<text xml:space="preserve" text-anchor="start" x="295.12" y="-376.25" font-family="Helvetica,sans-Serif" font-size="14.00">200</text>
<polygon fill="none" stroke="#334155" points="325.62,-364.5 325.62,-395.5 458.62,-395.5 458.62,-364.5 325.62,-364.5"/>
<text xml:space="preserve" text-anchor="start" x="341.12" y="-376.25" font-family="Helvetica,sans-Serif" font-size="14.00">up to 800 at target</text>
<polygon fill="none" stroke="#334155" points="458.62,-364.5 458.62,-395.5 557.12,-395.5 557.12,-364.5 458.62,-364.5"/>
<text xml:space="preserve" text-anchor="start" x="526.62" y="-376.25" font-family="Helvetica,sans-Serif" font-size="14.00">120</text>
<polygon fill="none" stroke="#334155" points="557.12,-364.5 557.12,-395.5 695.38,-395.5 695.38,-364.5 557.12,-364.5"/>
<text xml:space="preserve" text-anchor="start" x="672.38" y="-376.25" font-family="Helvetica,sans-Serif" font-size="14.00">40</text>
<polygon fill="none" stroke="#334155" points="695.38,-364.5 695.38,-395.5 815.62,-395.5 815.62,-364.5 695.38,-364.5"/>
<text xml:space="preserve" text-anchor="start" x="785.12" y="-376.25" font-family="Helvetica,sans-Serif" font-size="14.00">200</text>
<polygon fill="none" stroke="#334155" points="36.12,-333.5 36.12,-364.5 166.88,-364.5 166.88,-333.5 36.12,-333.5"/>
<text xml:space="preserve" text-anchor="start" x="44.12" y="-345.25" font-family="Helvetica,sans-Serif" font-size="14.00">Hold spike 2</text>
<polygon fill="none" stroke="#334155" points="166.88,-333.5 166.88,-364.5 238.38,-364.5 238.38,-333.5 166.88,-333.5"/>
<text xml:space="preserve" text-anchor="start" x="189.12" y="-345.25" font-family="Helvetica,sans-Serif" font-size="14.00">1m20s</text>
<polygon fill="none" stroke="#334155" points="238.38,-333.5 238.38,-364.5 325.62,-364.5 325.62,-333.5 238.38,-333.5"/>
<text xml:space="preserve" text-anchor="start" x="295.12" y="-345.25" font-family="Helvetica,sans-Serif" font-size="14.00">200</text>
<polygon fill="none" stroke="#334155" points="325.62,-333.5 325.62,-364.5 458.62,-364.5 458.62,-333.5 325.62,-333.5"/>
<text xml:space="preserve" text-anchor="start" x="369.62" y="-345.25" font-family="Helvetica,sans-Serif" font-size="14.00">800 per wave</text>
<polygon fill="none" stroke="#334155" points="458.62,-333.5 458.62,-364.5 557.12,-364.5 557.12,-333.5 458.62,-333.5"/>
<text xml:space="preserve" text-anchor="start" x="526.62" y="-345.25" font-family="Helvetica,sans-Serif" font-size="14.00">120</text>
<polygon fill="none" stroke="#334155" points="557.12,-333.5 557.12,-364.5 695.38,-364.5 695.38,-333.5 557.12,-333.5"/>
<text xml:space="preserve" text-anchor="start" x="672.38" y="-345.25" font-family="Helvetica,sans-Serif" font-size="14.00">40</text>
<polygon fill="none" stroke="#334155" points="695.38,-333.5 695.38,-364.5 815.62,-364.5 815.62,-333.5 695.38,-333.5"/>
<text xml:space="preserve" text-anchor="start" x="785.12" y="-345.25" font-family="Helvetica,sans-Serif" font-size="14.00">200</text>
<polygon fill="none" stroke="#334155" points="36.12,-302.5 36.12,-333.5 166.88,-333.5 166.88,-302.5 36.12,-302.5"/>
<text xml:space="preserve" text-anchor="start" x="44.12" y="-314.25" font-family="Helvetica,sans-Serif" font-size="14.00">Recovery</text>
<polygon fill="none" stroke="#334155" points="166.88,-302.5 166.88,-333.5 238.38,-333.5 238.38,-302.5 166.88,-302.5"/>
<text xml:space="preserve" text-anchor="start" x="210.88" y="-314.25" font-family="Helvetica,sans-Serif" font-size="14.00">1m</text>
<polygon fill="none" stroke="#334155" points="238.38,-302.5 238.38,-333.5 325.62,-333.5 325.62,-302.5 238.38,-302.5"/>
<text xml:space="preserve" text-anchor="start" x="302.62" y="-314.25" font-family="Helvetica,sans-Serif" font-size="14.00">25</text>
<polygon fill="none" stroke="#334155" points="325.62,-302.5 325.62,-333.5 458.62,-333.5 458.62,-302.5 325.62,-302.5"/>
<text xml:space="preserve" text-anchor="start" x="369.62" y="-314.25" font-family="Helvetica,sans-Serif" font-size="14.00">100 per wave</text>
<polygon fill="none" stroke="#334155" points="458.62,-302.5 458.62,-333.5 557.12,-333.5 557.12,-302.5 458.62,-302.5"/>
<text xml:space="preserve" text-anchor="start" x="534.12" y="-314.25" font-family="Helvetica,sans-Serif" font-size="14.00">15</text>
<polygon fill="none" stroke="#334155" points="557.12,-302.5 557.12,-333.5 695.38,-333.5 695.38,-302.5 557.12,-302.5"/>
<text xml:space="preserve" text-anchor="start" x="679.88" y="-314.25" font-family="Helvetica,sans-Serif" font-size="14.00">5</text>
<polygon fill="none" stroke="#334155" points="695.38,-302.5 695.38,-333.5 815.62,-333.5 815.62,-302.5 695.38,-302.5"/>
<text xml:space="preserve" text-anchor="start" x="792.62" y="-314.25" font-family="Helvetica,sans-Serif" font-size="14.00">25</text>
<polygon fill="none" stroke="#334155" points="36.12,-271.5 36.12,-302.5 166.88,-302.5 166.88,-271.5 36.12,-271.5"/>
<text xml:space="preserve" text-anchor="start" x="44.12" y="-283.25" font-family="Helvetica,sans-Serif" font-size="14.00">Ramp to spike 3</text>
<polygon fill="none" stroke="#334155" points="166.88,-271.5 166.88,-302.5 238.38,-302.5 238.38,-271.5 166.88,-271.5"/>
<text xml:space="preserve" text-anchor="start" x="208.62" y="-283.25" font-family="Helvetica,sans-Serif" font-size="14.00">20s</text>
<polygon fill="none" stroke="#334155" points="238.38,-271.5 238.38,-302.5 325.62,-302.5 325.62,-271.5 238.38,-271.5"/>
<text xml:space="preserve" text-anchor="start" x="295.12" y="-283.25" font-family="Helvetica,sans-Serif" font-size="14.00">400</text>
<polygon fill="none" stroke="#334155" points="325.62,-271.5 325.62,-302.5 458.62,-302.5 458.62,-271.5 325.62,-271.5"/>
<text xml:space="preserve" text-anchor="start" x="333.62" y="-283.25" font-family="Helvetica,sans-Serif" font-size="14.00">up to 1600 at target</text>
<polygon fill="none" stroke="#334155" points="458.62,-271.5 458.62,-302.5 557.12,-302.5 557.12,-271.5 458.62,-271.5"/>
<text xml:space="preserve" text-anchor="start" x="526.62" y="-283.25" font-family="Helvetica,sans-Serif" font-size="14.00">240</text>
<polygon fill="none" stroke="#334155" points="557.12,-271.5 557.12,-302.5 695.38,-302.5 695.38,-271.5 557.12,-271.5"/>
<text xml:space="preserve" text-anchor="start" x="672.38" y="-283.25" font-family="Helvetica,sans-Serif" font-size="14.00">80</text>
<polygon fill="none" stroke="#334155" points="695.38,-271.5 695.38,-302.5 815.62,-302.5 815.62,-271.5 695.38,-271.5"/>
<text xml:space="preserve" text-anchor="start" x="785.12" y="-283.25" font-family="Helvetica,sans-Serif" font-size="14.00">400</text>
<polygon fill="none" stroke="#334155" points="36.12,-240.5 36.12,-271.5 166.88,-271.5 166.88,-240.5 36.12,-240.5"/>
<text xml:space="preserve" text-anchor="start" x="44.12" y="-252.25" font-family="Helvetica,sans-Serif" font-size="14.00">Hold spike 3</text>
<polygon fill="none" stroke="#334155" points="166.88,-240.5 166.88,-271.5 238.38,-271.5 238.38,-240.5 166.88,-240.5"/>
<text xml:space="preserve" text-anchor="start" x="189.12" y="-252.25" font-family="Helvetica,sans-Serif" font-size="14.00">1m20s</text>
<polygon fill="none" stroke="#334155" points="238.38,-240.5 238.38,-271.5 325.62,-271.5 325.62,-240.5 238.38,-240.5"/>
<text xml:space="preserve" text-anchor="start" x="295.12" y="-252.25" font-family="Helvetica,sans-Serif" font-size="14.00">400</text>
<polygon fill="none" stroke="#334155" points="325.62,-240.5 325.62,-271.5 458.62,-271.5 458.62,-240.5 325.62,-240.5"/>
<text xml:space="preserve" text-anchor="start" x="362.12" y="-252.25" font-family="Helvetica,sans-Serif" font-size="14.00">1600 per wave</text>
<polygon fill="none" stroke="#334155" points="458.62,-240.5 458.62,-271.5 557.12,-271.5 557.12,-240.5 458.62,-240.5"/>
<text xml:space="preserve" text-anchor="start" x="526.62" y="-252.25" font-family="Helvetica,sans-Serif" font-size="14.00">240</text>
<polygon fill="none" stroke="#334155" points="557.12,-240.5 557.12,-271.5 695.38,-271.5 695.38,-240.5 557.12,-240.5"/>
<text xml:space="preserve" text-anchor="start" x="672.38" y="-252.25" font-family="Helvetica,sans-Serif" font-size="14.00">80</text>
<polygon fill="none" stroke="#334155" points="695.38,-240.5 695.38,-271.5 815.62,-271.5 815.62,-240.5 695.38,-240.5"/>
<text xml:space="preserve" text-anchor="start" x="785.12" y="-252.25" font-family="Helvetica,sans-Serif" font-size="14.00">400</text>
<polygon fill="none" stroke="#334155" points="36.12,-209.5 36.12,-240.5 166.88,-240.5 166.88,-209.5 36.12,-209.5"/>
<text xml:space="preserve" text-anchor="start" x="44.12" y="-221.25" font-family="Helvetica,sans-Serif" font-size="14.00">Ramp down</text>
<polygon fill="none" stroke="#334155" points="166.88,-209.5 166.88,-240.5 238.38,-240.5 238.38,-209.5 166.88,-209.5"/>
<text xml:space="preserve" text-anchor="start" x="210.88" y="-221.25" font-family="Helvetica,sans-Serif" font-size="14.00">2m</text>
<polygon fill="none" stroke="#334155" points="238.38,-209.5 238.38,-240.5 325.62,-240.5 325.62,-209.5 238.38,-209.5"/>
<text xml:space="preserve" text-anchor="start" x="310.12" y="-221.25" font-family="Helvetica,sans-Serif" font-size="14.00">0</text>
<polygon fill="none" stroke="#334155" points="325.62,-209.5 325.62,-240.5 458.62,-240.5 458.62,-209.5 325.62,-209.5"/>
<text xml:space="preserve" text-anchor="start" x="358.38" y="-221.25" font-family="Helvetica,sans-Serif" font-size="14.00">decreasing to 0</text>
<polygon fill="none" stroke="#334155" points="458.62,-209.5 458.62,-240.5 557.12,-240.5 557.12,-209.5 458.62,-209.5"/>
<text xml:space="preserve" text-anchor="start" x="483.12" y="-221.25" font-family="Helvetica,sans-Serif" font-size="14.00">decreasing</text>
<polygon fill="none" stroke="#334155" points="557.12,-209.5 557.12,-240.5 695.38,-240.5 695.38,-209.5 557.12,-209.5"/>
<text xml:space="preserve" text-anchor="start" x="621.38" y="-221.25" font-family="Helvetica,sans-Serif" font-size="14.00">decreasing</text>
<polygon fill="none" stroke="#334155" points="695.38,-209.5 695.38,-240.5 815.62,-240.5 815.62,-209.5 695.38,-209.5"/>
<text xml:space="preserve" text-anchor="start" x="741.62" y="-221.25" font-family="Helvetica,sans-Serif" font-size="14.00">decreasing</text>
<polygon fill="none" stroke="#334155" points="35.12,-208.5 35.12,-582.5 816.62,-582.5 816.62,-208.5 35.12,-208.5"/>
</g>
<!-- persona_table&#45;&gt;stage_table -->
<g id="edge2" class="edge">
<title>persona_table&#45;&gt;stage_table</title>
<path fill="none" stroke="#94a3b8" d="M425.88,-629.56C425.88,-616.88 425.88,-603.83 425.88,-590.68"/>
<polygon fill="#94a3b8" stroke="#94a3b8" points="428.33,-590.99 425.88,-583.99 423.43,-590.99 428.33,-590.99"/>
</g>
<!-- parallel_table -->
<g id="node4" class="node">
<title>parallel_table</title>
<polygon fill="#f3e8ff" stroke="none" points="1,-129.5 1,-160.5 850.75,-160.5 850.75,-129.5 1,-129.5"/>
<polygon fill="none" stroke="#334155" points="1,-129.5 1,-160.5 850.75,-160.5 850.75,-129.5 1,-129.5"/>
<text xml:space="preserve" text-anchor="start" x="294.25" y="-140.2" font-family="Helvetica,sans-Serif" font-weight="bold" font-size="14.00">Parallel scenarios in the combined script</text>
<polygon fill="#f1f5f9" stroke="none" points="1,-98.5 1,-129.5 165.5,-129.5 165.5,-98.5 1,-98.5"/>
<polygon fill="none" stroke="#334155" points="1,-98.5 1,-129.5 165.5,-129.5 165.5,-98.5 1,-98.5"/>
<text xml:space="preserve" text-anchor="start" x="54.75" y="-109.2" font-family="Helvetica,sans-Serif" font-weight="bold" font-size="14.00">Scenario</text>
<polygon fill="#f1f5f9" stroke="none" points="165.5,-98.5 165.5,-129.5 358.5,-129.5 358.5,-98.5 165.5,-98.5"/>
<polygon fill="none" stroke="#334155" points="165.5,-98.5 165.5,-129.5 358.5,-129.5 358.5,-98.5 165.5,-98.5"/>
<text xml:space="preserve" text-anchor="start" x="245.88" y="-109.2" font-family="Helvetica,sans-Serif" font-weight="bold" font-size="14.00">Load</text>
<polygon fill="#f1f5f9" stroke="none" points="358.5,-98.5 358.5,-129.5 850.75,-129.5 850.75,-98.5 358.5,-98.5"/>
<polygon fill="none" stroke="#334155" points="358.5,-98.5 358.5,-129.5 850.75,-129.5 850.75,-98.5 358.5,-98.5"/>
<text xml:space="preserve" text-anchor="start" x="555.88" y="-109.2" font-family="Helvetica,sans-Serif" font-weight="bold" font-size="14.00">Request model</text>
<polygon fill="none" stroke="#334155" points="1,-66 1,-98.5 165.5,-98.5 165.5,-66 1,-66"/>
<text xml:space="preserve" text-anchor="start" x="9" y="-78.5" font-family="Courier,monospace" font-size="14.00">regional_shoppers</text>
<polygon fill="none" stroke="#334155" points="165.5,-66 165.5,-98.5 358.5,-98.5 358.5,-66 165.5,-66"/>
<text xml:space="preserve" text-anchor="start" x="306.25" y="-78.5" font-family="Helvetica,sans-Serif" font-size="14.00">30 VUs</text>
<polygon fill="none" stroke="#334155" points="358.5,-66 358.5,-98.5 850.75,-98.5 850.75,-66 358.5,-66"/>
<text xml:space="preserve" text-anchor="start" x="366.5" y="-78.5" font-family="Helvetica,sans-Serif" font-size="14.00">About 120 requests per completed wave</text>
<polygon fill="none" stroke="#334155" points="1,-33.5 1,-66 165.5,-66 165.5,-33.5 1,-33.5"/>
<text xml:space="preserve" text-anchor="start" x="9" y="-46" font-family="Courier,monospace" font-size="14.00">api_request_rate</text>
<polygon fill="none" stroke="#334155" points="165.5,-33.5 165.5,-66 358.5,-66 358.5,-33.5 165.5,-33.5"/>
<text xml:space="preserve" text-anchor="start" x="262.75" y="-46" font-family="Helvetica,sans-Serif" font-size="14.00">5 requests/sec</text>
<polygon fill="none" stroke="#334155" points="358.5,-33.5 358.5,-66 850.75,-66 850.75,-33.5 358.5,-33.5"/>
<text xml:space="preserve" text-anchor="start" x="366.5" y="-46" font-family="Helvetica,sans-Serif" font-size="14.00">Constant&#45;arrival&#45;rate protocol load for 10m</text>
<polygon fill="none" stroke="#334155" points="1,-1 1,-33.5 165.5,-33.5 165.5,-1 1,-1"/>
<text xml:space="preserve" text-anchor="start" x="9" y="-13.5" font-family="Courier,monospace" font-size="14.00">storefront_actions</text>
<polygon fill="none" stroke="#334155" points="165.5,-1 165.5,-33.5 358.5,-33.5 358.5,-1 165.5,-1"/>
<text xml:space="preserve" text-anchor="start" x="173.5" y="-13.5" font-family="Helvetica,sans-Serif" font-size="14.00">ramp to 5 browser VUs / 10m</text>
<polygon fill="none" stroke="#334155" points="358.5,-1 358.5,-33.5 850.75,-33.5 850.75,-1 358.5,-1"/>
<text xml:space="preserve" text-anchor="start" x="366.5" y="-13.5" font-family="Helvetica,sans-Serif" font-size="14.00">Generates Faro UI actions and browser metrics; standard http_reqs may be n/a</text>
<polygon fill="none" stroke="#334155" points="0,0 0,-161.5 851.75,-161.5 851.75,0 0,0"/>
</g>
<!-- stage_table&#45;&gt;parallel_table -->
<g id="edge3" class="edge">
<title>stage_table&#45;&gt;parallel_table</title>
<path fill="none" stroke="#94a3b8" d="M425.88,-208.51C425.88,-195.18 425.88,-182.16 425.88,-169.84"/>
<polygon fill="#94a3b8" stroke="#94a3b8" points="428.33,-169.94 425.88,-162.94 423.43,-169.94 428.33,-169.94"/>
</g>
</g>
</svg>
