<?xml version="1.0" encoding="UTF-8" standalone="no"?>
<!DOCTYPE svg PUBLIC "-//W3C//DTD SVG 1.1//EN"
 "http://www.w3.org/Graphics/SVG/1.1/DTD/svg11.dtd">
<!-- Generated by graphviz version 15.0.0 (20260523.1842)
 -->
<!-- Title: traffic_spike_requests_only Pages: 1 -->
<svg width="3895pt" height="325pt"
 viewBox="0.00 0.00 3895.00 325.00" xmlns="http://www.w3.org/2000/svg" xmlns:xlink="http://www.w3.org/1999/xlink">
<g id="graph0" class="graph" transform="scale(1 1) rotate(0) translate(4 321)">
<title>traffic_spike_requests_only</title>
<polygon fill="white" stroke="none" points="-4,4 -4,-321 3891.25,-321 3891.25,4 -4,4"/>
<text xml:space="preserve" text-anchor="middle" x="1943.62" y="-294" font-family="Helvetica,sans-Serif" font-size="20.00">Traffic Spike Requests per Completed Wave</text>
<g id="clust1" class="cluster">
<title>cluster_persona_math</title>
<path fill="none" stroke="#cbd5e1" stroke-dasharray="5,2" d="M20,-65C20,-65 1054.22,-65 1054.22,-65 1060.22,-65 1066.22,-71 1066.22,-77 1066.22,-77 1066.22,-128 1066.22,-128 1066.22,-134 1060.22,-140 1054.22,-140 1054.22,-140 20,-140 20,-140 14,-140 8,-134 8,-128 8,-128 8,-77 8,-77 8,-71 14,-65 20,-65"/>
<text xml:space="preserve" text-anchor="middle" x="537.11" y="-123.65" font-family="Helvetica,sans-Serif" font-size="13.00">Per iteration request mix</text>
</g>
<g id="clust2" class="cluster">
<title>cluster_stage_flow</title>
<path fill="none" stroke="#cbd5e1" stroke-dasharray="5,2" d="M1331.09,-205C1331.09,-205 3867.25,-205 3867.25,-205 3873.25,-205 3879.25,-211 3879.25,-217 3879.25,-217 3879.25,-268 3879.25,-268 3879.25,-274 3873.25,-280 3867.25,-280 3867.25,-280 1331.09,-280 1331.09,-280 1325.09,-280 1319.09,-274 1319.09,-268 1319.09,-268 1319.09,-217 1319.09,-217 1319.09,-211 1325.09,-205 1331.09,-205"/>
<text xml:space="preserve" text-anchor="middle" x="2599.17" y="-263.65" font-family="Helvetica,sans-Serif" font-size="13.00">traffic_spikes stage model</text>
</g>
<g id="clust3" class="cluster">
<title>cluster_parallel</title>
<path fill="none" stroke="#cbd5e1" stroke-dasharray="5,2" d="M1181.97,-8C1181.97,-8 1654.03,-8 1654.03,-8 1660.03,-8 1666.03,-14 1666.03,-20 1666.03,-20 1666.03,-185 1666.03,-185 1666.03,-191 1660.03,-197 1654.03,-197 1654.03,-197 1181.97,-197 1181.97,-197 1175.97,-197 1169.97,-191 1169.97,-185 1169.97,-185 1169.97,-20 1169.97,-20 1169.97,-14 1175.97,-8 1181.97,-8"/>
<text xml:space="preserve" text-anchor="middle" x="1418" y="-180.65" font-family="Helvetica,sans-Serif" font-size="13.00">Parallel request load</text>
</g>
<!-- note&#45;&gt;p_avg -->
<g id="edge15" class="edge">
<title>note&#45;&gt;p_avg</title>
<path fill="none" stroke="#475569" stroke-width="1.2" d="M860.12,-147.53C874.82,-145.42 884.68,-144 884.68,-144 884.68,-144 919.1,-128.21 950.02,-114.04"/>
<polygon fill="#475569" stroke="#475569" stroke-width="1.2" points="950.78,-116.38 956.13,-111.24 948.74,-111.93 950.78,-116.38"/>
<text xml:space="preserve" text-anchor="middle" x="912.3" y="-138.2" font-family="Helvetica,sans-Serif" font-size="10.00">basis</text>
</g>
<!-- p_browser&#45;&gt;p_cart -->
<!-- p_cart&#45;&gt;p_account -->
<!-- p_account&#45;&gt;p_sale -->
<!-- p_sale&#45;&gt;p_checkout -->
<!-- p_checkout&#45;&gt;p_avg -->
<!-- p_avg&#45;&gt;warmup -->
<g id="edge16" class="edge">
<title>p_avg&#45;&gt;warmup</title>
<path fill="none" stroke="#475569" stroke-width="1.2" d="M1028.51,-110.41C1076.88,-141.73 1169.97,-202 1169.97,-202 1169.97,-202 1249.6,-211.67 1318.43,-220.03"/>
<polygon fill="#475569" stroke="#475569" stroke-width="1.2" points="1317.72,-222.41 1324.96,-220.82 1318.31,-217.55 1317.72,-222.41"/>
<text xml:space="preserve" text-anchor="middle" x="1118.09" y="-197.89" font-family="Helvetica,sans-Serif" font-size="10.00">× target VUs</text>
</g>
<!-- p_avg&#45;&gt;regional -->
<g id="edge17" class="edge">
<title>p_avg&#45;&gt;regional</title>
<path fill="none" stroke="#475569" stroke-width="1.2" d="M1058.49,-92C1119.25,-92 1216.19,-92 1293.95,-92"/>
<polygon fill="#475569" stroke="#475569" stroke-width="1.2" points="1293.56,-94.45 1300.56,-92 1293.56,-89.55 1293.56,-94.45"/>
<text xml:space="preserve" text-anchor="middle" x="1118.09" y="-93.75" font-family="Helvetica,sans-Serif" font-size="10.00">30 × 4</text>
</g>
<!-- p_avg&#45;&gt;api_rate -->
<g id="edge18" class="edge">
<title>p_avg&#45;&gt;api_rate</title>
<path fill="none" stroke="#475569" stroke-width="1.2" d="M1058.5,-79.2C1067.69,-77.18 1074.22,-75.75 1074.22,-75.75 1074.22,-75.75 1169.97,-64 1169.97,-64 1169.97,-64 1207.86,-59.55 1253.96,-54.14"/>
<polygon fill="#475569" stroke="#475569" stroke-width="1.2" points="1254.19,-56.58 1260.85,-53.33 1253.62,-51.71 1254.19,-56.58"/>
<text xml:space="preserve" text-anchor="middle" x="1118.09" y="-77.5" font-family="Helvetica,sans-Serif" font-size="10.00">steady protocol load</text>
</g>
<!-- warmup&#45;&gt;ramp1 -->
<g id="edge6" class="edge">
<title>warmup&#45;&gt;ramp1</title>
<path fill="none" stroke="#475569" stroke-width="1.2" d="M1509.08,-232C1560.8,-232 1626.3,-232 1681.75,-232"/>
<polygon fill="#475569" stroke="#475569" stroke-width="1.2" points="1681.75,-234.45 1688.75,-232 1681.75,-229.55 1681.75,-234.45"/>
</g>
<!-- ramp1&#45;&gt;hold1 -->
<g id="edge7" class="edge">
<title>ramp1&#45;&gt;hold1</title>
<path fill="none" stroke="#475569" stroke-width="1.2" d="M1905.44,-232C1913.34,-232 1921.35,-232 1929.32,-232"/>
<polygon fill="#475569" stroke="#475569" stroke-width="1.2" points="1929.14,-234.45 1936.14,-232 1929.14,-229.55 1929.14,-234.45"/>
</g>
<!-- hold1&#45;&gt;rec1 -->
<g id="edge8" class="edge">
<title>hold1&#45;&gt;rec1</title>
<path fill="none" stroke="#475569" stroke-width="1.2" d="M2162.2,-232C2170.13,-232 2178.14,-232 2186.08,-232"/>
<polygon fill="#475569" stroke="#475569" stroke-width="1.2" points="2185.85,-234.45 2192.85,-232 2185.85,-229.55 2185.85,-234.45"/>
</g>
<!-- rec1&#45;&gt;ramp2 -->
<g id="edge9" class="edge">
<title>rec1&#45;&gt;ramp2</title>
<path fill="none" stroke="#475569" stroke-width="1.2" d="M2404.77,-232C2412.53,-232 2420.39,-232 2428.22,-232"/>
<polygon fill="#475569" stroke="#475569" stroke-width="1.2" points="2428.21,-234.45 2435.21,-232 2428.21,-229.55 2428.21,-234.45"/>
</g>
<!-- ramp2&#45;&gt;hold2 -->
<g id="edge10" class="edge">
<title>ramp2&#45;&gt;hold2</title>
<path fill="none" stroke="#475569" stroke-width="1.2" d="M2651.76,-232C2659.66,-232 2667.63,-232 2675.56,-232"/>
<polygon fill="#475569" stroke="#475569" stroke-width="1.2" points="2675.31,-234.45 2682.31,-232 2675.31,-229.55 2675.31,-234.45"/>
</g>
<!-- hold2&#45;&gt;rec2 -->
<g id="edge11" class="edge">
<title>hold2&#45;&gt;rec2</title>
<path fill="none" stroke="#475569" stroke-width="1.2" d="M2891.67,-232C2899.39,-232 2907.21,-232 2914.99,-232"/>
<polygon fill="#475569" stroke="#475569" stroke-width="1.2" points="2914.94,-234.45 2921.94,-232 2914.94,-229.55 2914.94,-234.45"/>
</g>
<!-- rec2&#45;&gt;ramp3 -->
<g id="edge12" class="edge">
<title>rec2&#45;&gt;ramp3</title>
<path fill="none" stroke="#475569" stroke-width="1.2" d="M3134.22,-232C3141.93,-232 3149.73,-232 3157.5,-232"/>
<polygon fill="#475569" stroke="#475569" stroke-width="1.2" points="3157.45,-234.45 3164.45,-232 3157.45,-229.55 3157.45,-234.45"/>
</g>
<!-- ramp3&#45;&gt;hold3 -->
<g id="edge13" class="edge">
<title>ramp3&#45;&gt;hold3</title>
<path fill="none" stroke="#475569" stroke-width="1.2" d="M3387.09,-232C3394.97,-232 3402.95,-232 3410.91,-232"/>
<polygon fill="#475569" stroke="#475569" stroke-width="1.2" points="3410.7,-234.45 3417.7,-232 3410.7,-229.55 3410.7,-234.45"/>
</g>
<!-- hold3&#45;&gt;down -->
<g id="edge14" class="edge">
<title>hold3&#45;&gt;down</title>
<path fill="none" stroke="#475569" stroke-width="1.2" d="M3649.88,-232C3657.79,-232 3665.74,-232 3673.59,-232"/>
<polygon fill="#475569" stroke="#475569" stroke-width="1.2" points="3673.58,-234.45 3680.58,-232 3673.58,-229.55 3673.58,-234.45"/>
</g>
<!-- note -->
<g id="node1" class="node">
<title>note</title>
<polygon fill="#fff7ed" stroke="#f97316" points="878.68,-184 576.91,-184 576.91,-148 884.68,-148 884.68,-178 878.68,-184"/>
<polyline fill="none" stroke="#f97316" points="878.68,-184 878.68,-178"/>
<polyline fill="none" stroke="#f97316" points="884.68,-178 878.68,-178"/>
<text xml:space="preserve" text-anchor="middle" x="730.8" y="-167.55" font-family="Helvetica,sans-Serif" font-size="11.00">Estimates assume each active VU completes one iteration.</text>
<text xml:space="preserve" text-anchor="middle" x="730.8" y="-155.55" font-family="Helvetica,sans-Serif" font-size="11.00">Actual request totals vary with latency, sleeps, and loop count.</text>
</g>
<!-- p_browser -->
<g id="node2" class="node">
<title>p_browser</title>
<path fill="#f8fafc" stroke="#334155" d="M28,-74C28,-74 90.79,-74 90.79,-74 96.79,-74 102.79,-80 102.79,-86 102.79,-86 102.79,-98 102.79,-98 102.79,-104 96.79,-110 90.79,-110 90.79,-110 28,-110 28,-110 22,-110 16,-104 16,-98 16,-98 16,-86 16,-86 16,-80 22,-74 28,-74"/>
<text xml:space="preserve" text-anchor="middle" x="41.26" y="-87.95" font-family="Helvetica,sans-Serif" font-size="11.00">browser</text>
<polyline fill="none" stroke="#334155" points="66.52,-74.8 66.52,-110"/>
<text xml:space="preserve" text-anchor="middle" x="84.65" y="-87.95" font-family="Helvetica,sans-Serif" font-size="11.00">3 req</text>
</g>
<!-- p_cart -->
<g id="node3" class="node">
<title>p_cart</title>
<path fill="#f8fafc" stroke="#334155" d="M147.79,-74C147.79,-74 227.83,-74 227.83,-74 233.83,-74 239.83,-80 239.83,-86 239.83,-86 239.83,-98 239.83,-98 239.83,-104 233.83,-110 227.83,-110 227.83,-110 147.79,-110 147.79,-110 141.79,-110 135.79,-104 135.79,-98 135.79,-98 135.79,-86 135.79,-86 135.79,-80 141.79,-74 147.79,-74"/>
<text xml:space="preserve" text-anchor="middle" x="169.67" y="-87.95" font-family="Helvetica,sans-Serif" font-size="11.00">cart_builder</text>
<polyline fill="none" stroke="#334155" points="203.56,-74.8 203.56,-110"/>
<text xml:space="preserve" text-anchor="middle" x="221.69" y="-87.95" font-family="Helvetica,sans-Serif" font-size="11.00">4 req</text>
</g>
<!-- p_account -->
<g id="node4" class="node">
<title>p_account</title>
<path fill="#f8fafc" stroke="#334155" d="M284.83,-74C284.83,-74 394.87,-74 394.87,-74 400.87,-74 406.87,-80 406.87,-86 406.87,-86 406.87,-98 406.87,-98 406.87,-104 400.87,-110 394.87,-110 394.87,-110 284.83,-110 284.83,-110 278.83,-110 272.83,-104 272.83,-98 272.83,-98 272.83,-86 272.83,-86 272.83,-80 278.83,-74 284.83,-74"/>
<text xml:space="preserve" text-anchor="middle" x="321.71" y="-87.95" font-family="Helvetica,sans-Serif" font-size="11.00">account_manager</text>
<polyline fill="none" stroke="#334155" points="370.6,-74.8 370.6,-110"/>
<text xml:space="preserve" text-anchor="middle" x="388.73" y="-87.95" font-family="Helvetica,sans-Serif" font-size="11.00">4 req</text>
</g>
<!-- p_sale -->
<g id="node5" class="node">
<title>p_sale</title>
<path fill="#f8fafc" stroke="#334155" d="M451.87,-74C451.87,-74 531.91,-74 531.91,-74 537.91,-74 543.91,-80 543.91,-86 543.91,-86 543.91,-98 543.91,-98 543.91,-104 537.91,-110 531.91,-110 531.91,-110 451.87,-110 451.87,-110 445.87,-110 439.87,-104 439.87,-98 439.87,-98 439.87,-86 439.87,-86 439.87,-80 445.87,-74 451.87,-74"/>
<text xml:space="preserve" text-anchor="middle" x="473.75" y="-87.95" font-family="Helvetica,sans-Serif" font-size="11.00">sale_hunter</text>
<polyline fill="none" stroke="#334155" points="507.64,-74.8 507.64,-110"/>
<text xml:space="preserve" text-anchor="middle" x="525.77" y="-87.95" font-family="Helvetica,sans-Serif" font-size="11.00">4 req</text>
</g>
<!-- p_checkout -->
<g id="node6" class="node">
<title>p_checkout</title>
<path fill="#f8fafc" stroke="#334155" d="M697.53,-74C697.53,-74 764.07,-74 764.07,-74 770.07,-74 776.07,-80 776.07,-86 776.07,-86 776.07,-98 776.07,-98 776.07,-104 770.07,-110 764.07,-110 764.07,-110 697.53,-110 697.53,-110 691.53,-110 685.53,-104 685.53,-98 685.53,-98 685.53,-86 685.53,-86 685.53,-80 691.53,-74 697.53,-74"/>
<text xml:space="preserve" text-anchor="middle" x="712.66" y="-87.95" font-family="Helvetica,sans-Serif" font-size="11.00">checkout</text>
<polyline fill="none" stroke="#334155" points="739.8,-74.8 739.8,-110"/>
<text xml:space="preserve" text-anchor="middle" x="757.93" y="-87.95" font-family="Helvetica,sans-Serif" font-size="11.00">5 req</text>
</g>
<!-- p_avg -->
<g id="node7" class="node">
<title>p_avg</title>
<path fill="#ecfeff" stroke="#0891b2" d="M951.93,-74C951.93,-74 1046.22,-74 1046.22,-74 1052.22,-74 1058.22,-80 1058.22,-86 1058.22,-86 1058.22,-98 1058.22,-98 1058.22,-104 1052.22,-110 1046.22,-110 1046.22,-110 951.93,-110 951.93,-110 945.93,-110 939.93,-104 939.93,-98 939.93,-98 939.93,-86 939.93,-86 939.93,-80 945.93,-74 951.93,-74"/>
<text xml:space="preserve" text-anchor="middle" x="954.31" y="-87.95" font-family="Helvetica,sans-Serif" font-size="11.00">avg</text>
<polyline fill="none" stroke="#0891b2" points="968.7,-74.8 968.7,-110"/>
<text xml:space="preserve" text-anchor="middle" x="1013.46" y="-87.95" font-family="Helvetica,sans-Serif" font-size="11.00">4 req / VU wave</text>
</g>
<!-- warmup -->
<g id="node8" class="node">
<title>warmup</title>
<path fill="#f1f5f9" stroke="#334155" d="M1339.09,-214C1339.09,-214 1496.91,-214 1496.91,-214 1502.91,-214 1508.91,-220 1508.91,-226 1508.91,-226 1508.91,-238 1508.91,-238 1508.91,-244 1502.91,-250 1496.91,-250 1496.91,-250 1339.09,-250 1339.09,-250 1333.09,-250 1327.09,-244 1327.09,-238 1327.09,-238 1327.09,-226 1327.09,-226 1327.09,-220 1333.09,-214 1339.09,-214"/>
<text xml:space="preserve" text-anchor="middle" x="1353.47" y="-227.95" font-family="Helvetica,sans-Serif" font-size="11.00">Warmup</text>
<polyline fill="none" stroke="#334155" points="1379.86,-214.8 1379.86,-250"/>
<text xml:space="preserve" text-anchor="middle" x="1393.12" y="-227.95" font-family="Helvetica,sans-Serif" font-size="11.00">1m</text>
<polyline fill="none" stroke="#334155" points="1406.38,-214.8 1406.38,-250"/>
<text xml:space="preserve" text-anchor="middle" x="1430.13" y="-227.95" font-family="Helvetica,sans-Serif" font-size="11.00">25 VUs</text>
<polyline fill="none" stroke="#334155" points="1453.89,-214.8 1453.89,-250"/>
<text xml:space="preserve" text-anchor="middle" x="1481.4" y="-227.95" font-family="Helvetica,sans-Serif" font-size="11.00">~100 req</text>
</g>
<!-- ramp1 -->
<g id="node9" class="node">
<title>ramp1</title>
<path fill="#dbeafe" stroke="#334155" d="M1703.03,-214C1703.03,-214 1893.11,-214 1893.11,-214 1899.11,-214 1905.11,-220 1905.11,-226 1905.11,-226 1905.11,-238 1905.11,-238 1905.11,-244 1899.11,-250 1893.11,-250 1893.11,-250 1703.03,-250 1703.03,-250 1697.03,-250 1691.03,-244 1691.03,-238 1691.03,-238 1691.03,-226 1691.03,-226 1691.03,-220 1697.03,-214 1703.03,-214"/>
<text xml:space="preserve" text-anchor="middle" x="1715.92" y="-227.95" font-family="Helvetica,sans-Serif" font-size="11.00">Ramp 1</text>
<polyline fill="none" stroke="#334155" points="1740.8,-214.8 1740.8,-250"/>
<text xml:space="preserve" text-anchor="middle" x="1755.19" y="-227.95" font-family="Helvetica,sans-Serif" font-size="11.00">20s</text>
<polyline fill="none" stroke="#334155" points="1769.57,-214.8 1769.57,-250"/>
<text xml:space="preserve" text-anchor="middle" x="1796.33" y="-227.95" font-family="Helvetica,sans-Serif" font-size="11.00">100 VUs</text>
<polyline fill="none" stroke="#334155" points="1823.09,-214.8 1823.09,-250"/>
<text xml:space="preserve" text-anchor="middle" x="1864.1" y="-227.95" font-family="Helvetica,sans-Serif" font-size="11.00">up to ~400 req</text>
</g>
<!-- hold1 -->
<g id="node10" class="node">
<title>hold1</title>
<path fill="#bfdbfe" stroke="#334155" d="M1950.11,-214C1950.11,-214 2149.94,-214 2149.94,-214 2155.94,-214 2161.94,-220 2161.94,-226 2161.94,-226 2161.94,-238 2161.94,-238 2161.94,-244 2155.94,-250 2149.94,-250 2149.94,-250 1950.11,-250 1950.11,-250 1944.11,-250 1938.11,-244 1938.11,-238 1938.11,-238 1938.11,-226 1938.11,-226 1938.11,-220 1944.11,-214 1950.11,-214"/>
<text xml:space="preserve" text-anchor="middle" x="1959.62" y="-227.95" font-family="Helvetica,sans-Serif" font-size="11.00">Hold 1</text>
<polyline fill="none" stroke="#334155" points="1981.13,-214.8 1981.13,-250"/>
<text xml:space="preserve" text-anchor="middle" x="2003.02" y="-227.95" font-family="Helvetica,sans-Serif" font-size="11.00">1m20s</text>
<polyline fill="none" stroke="#334155" points="2024.9,-214.8 2024.9,-250"/>
<text xml:space="preserve" text-anchor="middle" x="2051.66" y="-227.95" font-family="Helvetica,sans-Serif" font-size="11.00">100 VUs</text>
<polyline fill="none" stroke="#334155" points="2078.42,-214.8 2078.42,-250"/>
<text xml:space="preserve" text-anchor="middle" x="2120.18" y="-227.95" font-family="Helvetica,sans-Serif" font-size="11.00">~400 req/wave</text>
</g>
<!-- rec1 -->
<g id="node11" class="node">
<title>rec1</title>
<path fill="#f1f5f9" stroke="#334155" d="M2206.94,-214C2206.94,-214 2392.52,-214 2392.52,-214 2398.52,-214 2404.52,-220 2404.52,-226 2404.52,-226 2404.52,-238 2404.52,-238 2404.52,-244 2398.52,-250 2392.52,-250 2392.52,-250 2206.94,-250 2206.94,-250 2200.94,-250 2194.94,-244 2194.94,-238 2194.94,-238 2194.94,-226 2194.94,-226 2194.94,-220 2200.94,-214 2206.94,-214"/>
<text xml:space="preserve" text-anchor="middle" x="2220.95" y="-227.95" font-family="Helvetica,sans-Serif" font-size="11.00">Recover</text>
<polyline fill="none" stroke="#334155" points="2246.96,-214.8 2246.96,-250"/>
<text xml:space="preserve" text-anchor="middle" x="2260.22" y="-227.95" font-family="Helvetica,sans-Serif" font-size="11.00">1m</text>
<polyline fill="none" stroke="#334155" points="2273.48,-214.8 2273.48,-250"/>
<text xml:space="preserve" text-anchor="middle" x="2297.24" y="-227.95" font-family="Helvetica,sans-Serif" font-size="11.00">25 VUs</text>
<polyline fill="none" stroke="#334155" points="2321,-214.8 2321,-250"/>
<text xml:space="preserve" text-anchor="middle" x="2362.76" y="-227.95" font-family="Helvetica,sans-Serif" font-size="11.00">~100 req/wave</text>
</g>
<!-- ramp2 -->
<g id="node12" class="node">
<title>ramp2</title>
<path fill="#fde68a" stroke="#334155" d="M2449.52,-214C2449.52,-214 2639.6,-214 2639.6,-214 2645.6,-214 2651.6,-220 2651.6,-226 2651.6,-226 2651.6,-238 2651.6,-238 2651.6,-244 2645.6,-250 2639.6,-250 2639.6,-250 2449.52,-250 2449.52,-250 2443.52,-250 2437.52,-244 2437.52,-238 2437.52,-238 2437.52,-226 2437.52,-226 2437.52,-220 2443.52,-214 2449.52,-214"/>
<text xml:space="preserve" text-anchor="middle" x="2462.41" y="-227.95" font-family="Helvetica,sans-Serif" font-size="11.00">Ramp 2</text>
<polyline fill="none" stroke="#334155" points="2487.29,-214.8 2487.29,-250"/>
<text xml:space="preserve" text-anchor="middle" x="2501.68" y="-227.95" font-family="Helvetica,sans-Serif" font-size="11.00">30s</text>
<polyline fill="none" stroke="#334155" points="2516.06,-214.8 2516.06,-250"/>
<text xml:space="preserve" text-anchor="middle" x="2542.82" y="-227.95" font-family="Helvetica,sans-Serif" font-size="11.00">200 VUs</text>
<polyline fill="none" stroke="#334155" points="2569.58,-214.8 2569.58,-250"/>
<text xml:space="preserve" text-anchor="middle" x="2610.59" y="-227.95" font-family="Helvetica,sans-Serif" font-size="11.00">up to ~800 req</text>
</g>
<!-- hold2 -->
<g id="node13" class="node">
<title>hold2</title>
<path fill="#fcd34d" stroke="#334155" d="M2696.6,-214C2696.6,-214 2879.18,-214 2879.18,-214 2885.18,-214 2891.18,-220 2891.18,-226 2891.18,-226 2891.18,-238 2891.18,-238 2891.18,-244 2885.18,-250 2879.18,-250 2879.18,-250 2696.6,-250 2696.6,-250 2690.6,-250 2684.6,-244 2684.6,-238 2684.6,-238 2684.6,-226 2684.6,-226 2684.6,-220 2690.6,-214 2696.6,-214"/>
<text xml:space="preserve" text-anchor="middle" x="2706.11" y="-227.95" font-family="Helvetica,sans-Serif" font-size="11.00">Hold 2</text>
<polyline fill="none" stroke="#334155" points="2727.62,-214.8 2727.62,-250"/>
<text xml:space="preserve" text-anchor="middle" x="2740.88" y="-227.95" font-family="Helvetica,sans-Serif" font-size="11.00">2m</text>
<polyline fill="none" stroke="#334155" points="2754.14,-214.8 2754.14,-250"/>
<text xml:space="preserve" text-anchor="middle" x="2780.9" y="-227.95" font-family="Helvetica,sans-Serif" font-size="11.00">200 VUs</text>
<polyline fill="none" stroke="#334155" points="2807.66,-214.8 2807.66,-250"/>
<text xml:space="preserve" text-anchor="middle" x="2849.42" y="-227.95" font-family="Helvetica,sans-Serif" font-size="11.00">~800 req/wave</text>
</g>
<!-- rec2 -->
<g id="node14" class="node">
<title>rec2</title>
<path fill="#f1f5f9" stroke="#334155" d="M2936.18,-214C2936.18,-214 3121.76,-214 3121.76,-214 3127.76,-214 3133.76,-220 3133.76,-226 3133.76,-226 3133.76,-238 3133.76,-238 3133.76,-244 3127.76,-250 3121.76,-250 3121.76,-250 2936.18,-250 2936.18,-250 2930.18,-250 2924.18,-244 2924.18,-238 2924.18,-238 2924.18,-226 2924.18,-226 2924.18,-220 2930.18,-214 2936.18,-214"/>
<text xml:space="preserve" text-anchor="middle" x="2950.19" y="-227.95" font-family="Helvetica,sans-Serif" font-size="11.00">Recover</text>
<polyline fill="none" stroke="#334155" points="2976.2,-214.8 2976.2,-250"/>
<text xml:space="preserve" text-anchor="middle" x="2989.46" y="-227.95" font-family="Helvetica,sans-Serif" font-size="11.00">1m</text>
<polyline fill="none" stroke="#334155" points="3002.72,-214.8 3002.72,-250"/>
<text xml:space="preserve" text-anchor="middle" x="3026.48" y="-227.95" font-family="Helvetica,sans-Serif" font-size="11.00">25 VUs</text>
<polyline fill="none" stroke="#334155" points="3050.24,-214.8 3050.24,-250"/>
<text xml:space="preserve" text-anchor="middle" x="3092" y="-227.95" font-family="Helvetica,sans-Serif" font-size="11.00">~100 req/wave</text>
</g>
<!-- ramp3 -->
<g id="node15" class="node">
<title>ramp3</title>
<path fill="#fecaca" stroke="#334155" d="M3178.76,-214C3178.76,-214 3374.84,-214 3374.84,-214 3380.84,-214 3386.84,-220 3386.84,-226 3386.84,-226 3386.84,-238 3386.84,-238 3386.84,-244 3380.84,-250 3374.84,-250 3374.84,-250 3178.76,-250 3178.76,-250 3172.76,-250 3166.76,-244 3166.76,-238 3166.76,-238 3166.76,-226 3166.76,-226 3166.76,-220 3172.76,-214 3178.76,-214"/>
<text xml:space="preserve" text-anchor="middle" x="3191.64" y="-227.95" font-family="Helvetica,sans-Serif" font-size="11.00">Ramp 3</text>
<polyline fill="none" stroke="#334155" points="3216.53,-214.8 3216.53,-250"/>
<text xml:space="preserve" text-anchor="middle" x="3230.91" y="-227.95" font-family="Helvetica,sans-Serif" font-size="11.00">20s</text>
<polyline fill="none" stroke="#334155" points="3245.3,-214.8 3245.3,-250"/>
<text xml:space="preserve" text-anchor="middle" x="3272.06" y="-227.95" font-family="Helvetica,sans-Serif" font-size="11.00">400 VUs</text>
<polyline fill="none" stroke="#334155" points="3298.82,-214.8 3298.82,-250"/>
<text xml:space="preserve" text-anchor="middle" x="3342.83" y="-227.95" font-family="Helvetica,sans-Serif" font-size="11.00">up to ~1600 req</text>
</g>
<!-- hold3 -->
<g id="node16" class="node">
<title>hold3</title>
<path fill="#fca5a5" stroke="#334155" d="M3431.84,-214C3431.84,-214 3637.67,-214 3637.67,-214 3643.67,-214 3649.67,-220 3649.67,-226 3649.67,-226 3649.67,-238 3649.67,-238 3649.67,-244 3643.67,-250 3637.67,-250 3637.67,-250 3431.84,-250 3431.84,-250 3425.84,-250 3419.84,-244 3419.84,-238 3419.84,-238 3419.84,-226 3419.84,-226 3419.84,-220 3425.84,-214 3431.84,-214"/>
<text xml:space="preserve" text-anchor="middle" x="3441.35" y="-227.95" font-family="Helvetica,sans-Serif" font-size="11.00">Hold 3</text>
<polyline fill="none" stroke="#334155" points="3462.86,-214.8 3462.86,-250"/>
<text xml:space="preserve" text-anchor="middle" x="3484.74" y="-227.95" font-family="Helvetica,sans-Serif" font-size="11.00">1m20s</text>
<polyline fill="none" stroke="#334155" points="3506.63,-214.8 3506.63,-250"/>
<text xml:space="preserve" text-anchor="middle" x="3533.39" y="-227.95" font-family="Helvetica,sans-Serif" font-size="11.00">400 VUs</text>
<polyline fill="none" stroke="#334155" points="3560.15,-214.8 3560.15,-250"/>
<text xml:space="preserve" text-anchor="middle" x="3604.91" y="-227.95" font-family="Helvetica,sans-Serif" font-size="11.00">~1600 req/wave</text>
</g>
<!-- down -->
<g id="node17" class="node">
<title>down</title>
<path fill="#e2e8f0" stroke="#334155" d="M3694.67,-214C3694.67,-214 3859.25,-214 3859.25,-214 3865.25,-214 3871.25,-220 3871.25,-226 3871.25,-226 3871.25,-238 3871.25,-238 3871.25,-244 3865.25,-250 3859.25,-250 3859.25,-250 3694.67,-250 3694.67,-250 3688.67,-250 3682.67,-244 3682.67,-238 3682.67,-238 3682.67,-226 3682.67,-226 3682.67,-220 3688.67,-214 3694.67,-214"/>
<text xml:space="preserve" text-anchor="middle" x="3717.68" y="-227.83" font-family="Helvetica,sans-Serif" font-size="11.00">Ramp down</text>
<polyline fill="none" stroke="#334155" points="3752.69,-214.55 3752.69,-250"/>
<text xml:space="preserve" text-anchor="middle" x="3765.95" y="-227.83" font-family="Helvetica,sans-Serif" font-size="11.00">2m</text>
<polyline fill="none" stroke="#334155" points="3779.21,-214.55 3779.21,-250"/>
<text xml:space="preserve" text-anchor="middle" x="3799.97" y="-227.83" font-family="Helvetica,sans-Serif" font-size="11.00">0 VUs</text>
<polyline fill="none" stroke="#334155" points="3820.73,-214.55 3820.73,-250"/>
<text xml:space="preserve" text-anchor="middle" x="3845.99" y="-228.95" font-family="Helvetica,sans-Serif" font-size="11.00">→ 0 req</text>
</g>
<!-- regional -->
<g id="node18" class="node">
<title>regional</title>
<path fill="#ecfdf5" stroke="#334155" d="M1314.47,-74C1314.47,-74 1521.53,-74 1521.53,-74 1527.53,-74 1533.53,-80 1533.53,-86 1533.53,-86 1533.53,-98 1533.53,-98 1533.53,-104 1527.53,-110 1521.53,-110 1521.53,-110 1314.47,-110 1314.47,-110 1308.47,-110 1302.47,-104 1302.47,-98 1302.47,-98 1302.47,-86 1302.47,-86 1302.47,-80 1308.47,-74 1314.47,-74"/>
<text xml:space="preserve" text-anchor="middle" x="1352.48" y="-87.95" font-family="Helvetica,sans-Serif" font-size="11.00">regional_shoppers</text>
<polyline fill="none" stroke="#334155" points="1402.49,-74.8 1402.49,-110"/>
<text xml:space="preserve" text-anchor="middle" x="1426.25" y="-87.95" font-family="Helvetica,sans-Serif" font-size="11.00">30 VUs</text>
<polyline fill="none" stroke="#334155" points="1450.01,-74.8 1450.01,-110"/>
<text xml:space="preserve" text-anchor="middle" x="1491.77" y="-87.95" font-family="Helvetica,sans-Serif" font-size="11.00">~120 req/wave</text>
</g>
<!-- api_rate -->
<g id="node19" class="node">
<title>api_rate</title>
<path fill="#e0f2fe" stroke="#334155" d="M1275.1,-17C1275.1,-17 1560.9,-17 1560.9,-17 1566.9,-17 1572.9,-23 1572.9,-29 1572.9,-29 1572.9,-41 1572.9,-41 1572.9,-47 1566.9,-53 1560.9,-53 1560.9,-53 1275.1,-53 1275.1,-53 1269.1,-53 1263.1,-47 1263.1,-41 1263.1,-41 1263.1,-29 1263.1,-29 1263.1,-23 1269.1,-17 1275.1,-17"/>
<text xml:space="preserve" text-anchor="middle" x="1309.36" y="-30.95" font-family="Helvetica,sans-Serif" font-size="11.00">api_request_rate</text>
<polyline fill="none" stroke="#334155" points="1355.62,-17.8 1355.62,-53"/>
<text xml:space="preserve" text-anchor="middle" x="1402.25" y="-30.95" font-family="Helvetica,sans-Serif" font-size="11.00">120 requests/sec</text>
<polyline fill="none" stroke="#334155" points="1448.88,-17.8 1448.88,-53"/>
<text xml:space="preserve" text-anchor="middle" x="1510.89" y="-30.95" font-family="Helvetica,sans-Serif" font-size="11.00">constant arrival for 10m</text>
</g>
<!-- browser_actions -->
<g id="node20" class="node">
<title>browser_actions</title>
<path fill="#faf5ff" stroke="#334155" d="M1189.97,-131C1189.97,-131 1646.03,-131 1646.03,-131 1652.03,-131 1658.03,-137 1658.03,-143 1658.03,-143 1658.03,-155 1658.03,-155 1658.03,-161 1652.03,-167 1646.03,-167 1646.03,-167 1189.97,-167 1189.97,-167 1183.97,-167 1177.97,-161 1177.97,-155 1177.97,-155 1177.97,-143 1177.97,-143 1177.97,-137 1183.97,-131 1189.97,-131"/>
<text xml:space="preserve" text-anchor="middle" x="1226.48" y="-144.95" font-family="Helvetica,sans-Serif" font-size="11.00">storefront_actions</text>
<polyline fill="none" stroke="#334155" points="1274.99,-131.8 1274.99,-167"/>
<text xml:space="preserve" text-anchor="middle" x="1353.5" y="-144.95" font-family="Helvetica,sans-Serif" font-size="11.00">ramp to 5 browser VUs × 10m</text>
<polyline fill="none" stroke="#334155" points="1432.01,-131.8 1432.01,-167"/>
<text xml:space="preserve" text-anchor="middle" x="1545.02" y="-144.95" font-family="Helvetica,sans-Serif" font-size="11.00">browser requests vary; Faro actions targeted</text>
</g>
</g>
</svg>
