<?xml version="1.0" encoding="UTF-8" standalone="no"?>
<!DOCTYPE svg PUBLIC "-//W3C//DTD SVG 1.1//EN"
 "http://www.w3.org/Graphics/SVG/1.1/DTD/svg11.dtd">
<!-- Generated by graphviz version 15.0.0 (20260523.1842)
 -->
<!-- Title: traffic_spike_target_heatmap Pages: 1 -->
<svg width="871pt" height="271pt"
 viewBox="0.00 0.00 871.00 271.00" xmlns="http://www.w3.org/2000/svg" xmlns:xlink="http://www.w3.org/1999/xlink">
<g id="graph0" class="graph" transform="scale(1 1) rotate(0) translate(4 266.5)">
<title>traffic_spike_target_heatmap</title>
<polygon fill="white" stroke="none" points="-4,4 -4,-266.5 867,-266.5 867,4 -4,4"/>
<text xml:space="preserve" text-anchor="middle" x="431.5" y="-237.6" font-family="Helvetica,sans-Serif" font-size="22.00">Traffic Spike Test Targets</text>
<!-- target_heatmap -->
<g id="node1" class="node">
<title>target_heatmap</title>
<polygon fill="#e0f2fe" stroke="none" points="103,-200 103,-231 239,-231 239,-200 103,-200"/>
<polygon fill="none" stroke="#334155" points="103,-200 103,-231 239,-231 239,-200 103,-200"/>
<text xml:space="preserve" text-anchor="start" x="152.62" y="-210.7" font-family="Helvetica,sans-Serif" font-weight="bold" font-size="14.00">Stage</text>
<polygon fill="#e0f2fe" stroke="none" points="239,-200 239,-231 281.25,-231 281.25,-200 239,-200"/>
<polygon fill="none" stroke="#334155" points="239,-200 239,-231 281.25,-231 281.25,-200 239,-200"/>
<text xml:space="preserve" text-anchor="start" x="247" y="-210.7" font-family="Helvetica,sans-Serif" font-weight="bold" font-size="14.00">VUs</text>
<polygon fill="#e0f2fe" stroke="none" points="281.25,-200 281.25,-231 403,-231 403,-200 281.25,-200"/>
<polygon fill="none" stroke="#334155" points="281.25,-200 281.25,-231 403,-231 403,-200 281.25,-200"/>
<text xml:space="preserve" text-anchor="start" x="289.25" y="-210.7" font-family="Helvetica,sans-Serif" font-weight="bold" font-size="14.00">Requests / wave</text>
<polygon fill="#dcfce7" stroke="none" points="403,-200 403,-231 501.5,-231 501.5,-200 403,-200"/>
<polygon fill="none" stroke="#334155" points="403,-200 403,-231 501.5,-231 501.5,-200 403,-200"/>
<text xml:space="preserve" text-anchor="start" x="411" y="-210.7" font-family="Helvetica,sans-Serif" font-weight="bold" font-size="14.00">Cart updates</text>
<polygon fill="#fef3c7" stroke="none" points="501.5,-200 501.5,-231 639.75,-231 639.75,-200 501.5,-200"/>
<polygon fill="none" stroke="#334155" points="501.5,-200 501.5,-231 639.75,-231 639.75,-200 501.5,-200"/>
<text xml:space="preserve" text-anchor="start" x="509.5" y="-210.7" font-family="Helvetica,sans-Serif" font-weight="bold" font-size="14.00">Checkout attempts</text>
<polygon fill="#dbeafe" stroke="none" points="639.75,-200 639.75,-231 760,-231 760,-200 639.75,-200"/>
<polygon fill="none" stroke="#334155" points="639.75,-200 639.75,-231 760,-231 760,-200 639.75,-200"/>
<text xml:space="preserve" text-anchor="start" x="647.75" y="-210.7" font-family="Helvetica,sans-Serif" font-weight="bold" font-size="14.00">Region changes</text>
<polygon fill="none" stroke="#334155" points="103,-169 103,-200 239,-200 239,-169 103,-169"/>
<text xml:space="preserve" text-anchor="start" x="111" y="-180.75" font-family="Helvetica,sans-Serif" font-size="14.00">Warmup / Recovery</text>
<polygon fill="none" stroke="#334155" points="239,-169 239,-200 281.25,-200 281.25,-169 239,-169"/>
<text xml:space="preserve" text-anchor="start" x="252.62" y="-179.7" font-family="Helvetica,sans-Serif" font-weight="bold" font-size="14.00">25</text>
<polygon fill="#e2e8f0" stroke="none" points="281.25,-169 281.25,-200 403,-200 403,-169 281.25,-169"/>
<polygon fill="none" stroke="#334155" points="281.25,-169 281.25,-200 403,-200 403,-169 281.25,-169"/>
<text xml:space="preserve" text-anchor="start" x="330.88" y="-180.75" font-family="Helvetica,sans-Serif" font-size="14.00">100</text>
<polygon fill="#bbf7d0" stroke="none" points="403,-169 403,-200 501.5,-200 501.5,-169 403,-169"/>
<polygon fill="none" stroke="#334155" points="403,-169 403,-200 501.5,-200 501.5,-169 403,-169"/>
<text xml:space="preserve" text-anchor="start" x="444.75" y="-180.75" font-family="Helvetica,sans-Serif" font-size="14.00">15</text>
<polygon fill="#fde68a" stroke="none" points="501.5,-169 501.5,-200 639.75,-200 639.75,-169 501.5,-169"/>
<polygon fill="none" stroke="#334155" points="501.5,-169 501.5,-200 639.75,-200 639.75,-169 501.5,-169"/>
<text xml:space="preserve" text-anchor="start" x="566.88" y="-180.75" font-family="Helvetica,sans-Serif" font-size="14.00">5</text>
<polygon fill="#bfdbfe" stroke="none" points="639.75,-169 639.75,-200 760,-200 760,-169 639.75,-169"/>
<polygon fill="none" stroke="#334155" points="639.75,-169 639.75,-200 760,-200 760,-169 639.75,-169"/>
<text xml:space="preserve" text-anchor="start" x="692.38" y="-180.75" font-family="Helvetica,sans-Serif" font-size="14.00">25</text>
<polygon fill="none" stroke="#334155" points="103,-138 103,-169 239,-169 239,-138 103,-138"/>
<text xml:space="preserve" text-anchor="start" x="111" y="-149.75" font-family="Helvetica,sans-Serif" font-size="14.00">Spike 1</text>
<polygon fill="none" stroke="#334155" points="239,-138 239,-169 281.25,-169 281.25,-138 239,-138"/>
<text xml:space="preserve" text-anchor="start" x="248.88" y="-148.7" font-family="Helvetica,sans-Serif" font-weight="bold" font-size="14.00">100</text>
<polygon fill="#93c5fd" stroke="none" points="281.25,-138 281.25,-169 403,-169 403,-138 281.25,-138"/>
<polygon fill="none" stroke="#334155" points="281.25,-138 281.25,-169 403,-169 403,-138 281.25,-138"/>
<text xml:space="preserve" text-anchor="start" x="330.88" y="-148.7" font-family="Helvetica,sans-Serif" font-weight="bold" font-size="14.00">400</text>
<polygon fill="#4ade80" stroke="none" points="403,-138 403,-169 501.5,-169 501.5,-138 403,-138"/>
<polygon fill="none" stroke="#334155" points="403,-138 403,-169 501.5,-169 501.5,-138 403,-138"/>
<text xml:space="preserve" text-anchor="start" x="444.75" y="-148.7" font-family="Helvetica,sans-Serif" font-weight="bold" font-size="14.00">60</text>
<polygon fill="#facc15" stroke="none" points="501.5,-138 501.5,-169 639.75,-169 639.75,-138 501.5,-138"/>
<polygon fill="none" stroke="#334155" points="501.5,-138 501.5,-169 639.75,-169 639.75,-138 501.5,-138"/>
<text xml:space="preserve" text-anchor="start" x="563.12" y="-148.7" font-family="Helvetica,sans-Serif" font-weight="bold" font-size="14.00">20</text>
<polygon fill="#60a5fa" stroke="none" points="639.75,-138 639.75,-169 760,-169 760,-138 639.75,-138"/>
<polygon fill="none" stroke="#334155" points="639.75,-138 639.75,-169 760,-169 760,-138 639.75,-138"/>
<text xml:space="preserve" text-anchor="start" x="688.62" y="-148.7" font-family="Helvetica,sans-Serif" font-weight="bold" font-size="14.00">100</text>
<polygon fill="none" stroke="#334155" points="103,-107 103,-138 239,-138 239,-107 103,-107"/>
<text xml:space="preserve" text-anchor="start" x="111" y="-118.75" font-family="Helvetica,sans-Serif" font-size="14.00">Spike 2</text>
<polygon fill="none" stroke="#334155" points="239,-107 239,-138 281.25,-138 281.25,-107 239,-107"/>
<text xml:space="preserve" text-anchor="start" x="248.88" y="-117.7" font-family="Helvetica,sans-Serif" font-weight="bold" font-size="14.00">200</text>
<polygon fill="#3b82f6" stroke="none" points="281.25,-107 281.25,-138 403,-138 403,-107 281.25,-107"/>
<polygon fill="none" stroke="#334155" points="281.25,-107 281.25,-138 403,-138 403,-107 281.25,-107"/>
<text xml:space="preserve" text-anchor="start" x="330.88" y="-117.7" font-family="Helvetica,sans-Serif" font-weight="bold" font-size="14.00" fill="white">800</text>
<polygon fill="#22c55e" stroke="none" points="403,-107 403,-138 501.5,-138 501.5,-107 403,-107"/>
<polygon fill="none" stroke="#334155" points="403,-107 403,-138 501.5,-138 501.5,-107 403,-107"/>
<text xml:space="preserve" text-anchor="start" x="441" y="-117.7" font-family="Helvetica,sans-Serif" font-weight="bold" font-size="14.00">120</text>
<polygon fill="#eab308" stroke="none" points="501.5,-107 501.5,-138 639.75,-138 639.75,-107 501.5,-107"/>
<polygon fill="none" stroke="#334155" points="501.5,-107 501.5,-138 639.75,-138 639.75,-107 501.5,-107"/>
<text xml:space="preserve" text-anchor="start" x="563.12" y="-117.7" font-family="Helvetica,sans-Serif" font-weight="bold" font-size="14.00">40</text>
<polygon fill="#3b82f6" stroke="none" points="639.75,-107 639.75,-138 760,-138 760,-107 639.75,-107"/>
<polygon fill="none" stroke="#334155" points="639.75,-107 639.75,-138 760,-138 760,-107 639.75,-107"/>
<text xml:space="preserve" text-anchor="start" x="688.62" y="-117.7" font-family="Helvetica,sans-Serif" font-weight="bold" font-size="14.00" fill="white">200</text>
<polygon fill="none" stroke="#334155" points="103,-76 103,-107 239,-107 239,-76 103,-76"/>
<text xml:space="preserve" text-anchor="start" x="111" y="-87.75" font-family="Helvetica,sans-Serif" font-size="14.00">Spike 3</text>
<polygon fill="none" stroke="#334155" points="239,-76 239,-107 281.25,-107 281.25,-76 239,-76"/>
<text xml:space="preserve" text-anchor="start" x="248.88" y="-86.7" font-family="Helvetica,sans-Serif" font-weight="bold" font-size="14.00">400</text>
<polygon fill="#1d4ed8" stroke="none" points="281.25,-76 281.25,-107 403,-107 403,-76 281.25,-76"/>
<polygon fill="none" stroke="#334155" points="281.25,-76 281.25,-107 403,-107 403,-76 281.25,-76"/>
<text xml:space="preserve" text-anchor="start" x="327.12" y="-86.7" font-family="Helvetica,sans-Serif" font-weight="bold" font-size="14.00" fill="white">1600</text>
<polygon fill="#15803d" stroke="none" points="403,-76 403,-107 501.5,-107 501.5,-76 403,-76"/>
<polygon fill="none" stroke="#334155" points="403,-76 403,-107 501.5,-107 501.5,-76 403,-76"/>
<text xml:space="preserve" text-anchor="start" x="441" y="-86.7" font-family="Helvetica,sans-Serif" font-weight="bold" font-size="14.00" fill="white">240</text>
<polygon fill="#a16207" stroke="none" points="501.5,-76 501.5,-107 639.75,-107 639.75,-76 501.5,-76"/>
<polygon fill="none" stroke="#334155" points="501.5,-76 501.5,-107 639.75,-107 639.75,-76 501.5,-76"/>
<text xml:space="preserve" text-anchor="start" x="563.12" y="-86.7" font-family="Helvetica,sans-Serif" font-weight="bold" font-size="14.00" fill="white">80</text>
<polygon fill="#1d4ed8" stroke="none" points="639.75,-76 639.75,-107 760,-107 760,-76 639.75,-76"/>
<polygon fill="none" stroke="#334155" points="639.75,-76 639.75,-107 760,-107 760,-76 639.75,-76"/>
<text xml:space="preserve" text-anchor="start" x="688.62" y="-86.7" font-family="Helvetica,sans-Serif" font-weight="bold" font-size="14.00" fill="white">400</text>
<polygon fill="none" stroke="#334155" points="102,-75 102,-232 761,-232 761,-75 102,-75"/>
</g>
<!-- target_note -->
<g id="node2" class="node">
<title>target_note</title>
<text xml:space="preserve" text-anchor="start" x="4" y="-29.7" font-family="Helvetica,sans-Serif" font-weight="bold" font-size="14.00">Readout:</text>
<text xml:space="preserve" text-anchor="start" x="62.5" y="-29.7" font-family="Helvetica,sans-Serif" font-size="14.00"> darker cells mean more target pressure per completed wave.</text>
<text xml:space="preserve" text-anchor="start" x="4" y="-7.75" font-family="Helvetica,sans-Serif" font-size="14.00">Current config: BASE_SPIKE_USERS=100, SPIKE_MULTIPLIER=2, regional_shoppers=30 VUs, storefront_actions=60 browser VUs for 10m.</text>
</g>
<!-- target_heatmap&#45;&gt;target_note -->
</g>
</svg>
