<?xml version="1.0" encoding="UTF-8" standalone="no"?>
<!DOCTYPE svg PUBLIC "-//W3C//DTD SVG 1.1//EN"
 "http://www.w3.org/Graphics/SVG/1.1/DTD/svg11.dtd">
<!-- Generated by graphviz version 15.0.0 (20260523.1842)
 -->
<!-- Title: traffic_spike_target_heatmap Pages: 1 -->
<svg width="1086pt" height="271pt"
 viewBox="0.00 0.00 1086.00 271.00" xmlns="http://www.w3.org/2000/svg" xmlns:xlink="http://www.w3.org/1999/xlink">
<g id="graph0" class="graph" transform="scale(1 1) rotate(0) translate(4 266.5)">
<title>traffic_spike_target_heatmap</title>
<polygon fill="white" stroke="none" points="-4,4 -4,-266.5 1082.25,-266.5 1082.25,4 -4,4"/>
<text xml:space="preserve" text-anchor="middle" x="539.12" y="-237.6" font-family="Helvetica,sans-Serif" font-size="22.00">Traffic Spike Test Targets</text>
<!-- target_heatmap -->
<g id="node1" class="node">
<title>target_heatmap</title>
<polygon fill="#e0f2fe" stroke="none" points="210.62,-200 210.62,-231 346.62,-231 346.62,-200 210.62,-200"/>
<polygon fill="none" stroke="#334155" points="210.62,-200 210.62,-231 346.62,-231 346.62,-200 210.62,-200"/>
<text xml:space="preserve" text-anchor="start" x="260.25" y="-210.7" font-family="Helvetica,sans-Serif" font-weight="bold" font-size="14.00">Stage</text>
<polygon fill="#e0f2fe" stroke="none" points="346.62,-200 346.62,-231 388.88,-231 388.88,-200 346.62,-200"/>
<polygon fill="none" stroke="#334155" points="346.62,-200 346.62,-231 388.88,-231 388.88,-200 346.62,-200"/>
<text xml:space="preserve" text-anchor="start" x="354.62" y="-210.7" font-family="Helvetica,sans-Serif" font-weight="bold" font-size="14.00">VUs</text>
<polygon fill="#e0f2fe" stroke="none" points="388.88,-200 388.88,-231 510.62,-231 510.62,-200 388.88,-200"/>
<polygon fill="none" stroke="#334155" points="388.88,-200 388.88,-231 510.62,-231 510.62,-200 388.88,-200"/>
<text xml:space="preserve" text-anchor="start" x="396.88" y="-210.7" font-family="Helvetica,sans-Serif" font-weight="bold" font-size="14.00">Requests / wave</text>
<polygon fill="#dcfce7" stroke="none" points="510.62,-200 510.62,-231 609.12,-231 609.12,-200 510.62,-200"/>
<polygon fill="none" stroke="#334155" points="510.62,-200 510.62,-231 609.12,-231 609.12,-200 510.62,-200"/>
<text xml:space="preserve" text-anchor="start" x="518.62" y="-210.7" font-family="Helvetica,sans-Serif" font-weight="bold" font-size="14.00">Cart updates</text>
<polygon fill="#fef3c7" stroke="none" points="609.12,-200 609.12,-231 747.38,-231 747.38,-200 609.12,-200"/>
<polygon fill="none" stroke="#334155" points="609.12,-200 609.12,-231 747.38,-231 747.38,-200 609.12,-200"/>
<text xml:space="preserve" text-anchor="start" x="617.12" y="-210.7" font-family="Helvetica,sans-Serif" font-weight="bold" font-size="14.00">Checkout attempts</text>
<polygon fill="#dbeafe" stroke="none" points="747.38,-200 747.38,-231 867.62,-231 867.62,-200 747.38,-200"/>
<polygon fill="none" stroke="#334155" points="747.38,-200 747.38,-231 867.62,-231 867.62,-200 747.38,-200"/>
<text xml:space="preserve" text-anchor="start" x="755.38" y="-210.7" font-family="Helvetica,sans-Serif" font-weight="bold" font-size="14.00">Region changes</text>
<polygon fill="none" stroke="#334155" points="210.62,-169 210.62,-200 346.62,-200 346.62,-169 210.62,-169"/>
<text xml:space="preserve" text-anchor="start" x="218.62" y="-180.75" font-family="Helvetica,sans-Serif" font-size="14.00">Warmup / Recovery</text>
<polygon fill="none" stroke="#334155" points="346.62,-169 346.62,-200 388.88,-200 388.88,-169 346.62,-169"/>
<text xml:space="preserve" text-anchor="start" x="360.25" y="-179.7" font-family="Helvetica,sans-Serif" font-weight="bold" font-size="14.00">25</text>
<polygon fill="#e2e8f0" stroke="none" points="388.88,-169 388.88,-200 510.62,-200 510.62,-169 388.88,-169"/>
<polygon fill="none" stroke="#334155" points="388.88,-169 388.88,-200 510.62,-200 510.62,-169 388.88,-169"/>
<text xml:space="preserve" text-anchor="start" x="438.5" y="-180.75" font-family="Helvetica,sans-Serif" font-size="14.00">100</text>
<polygon fill="#bbf7d0" stroke="none" points="510.62,-169 510.62,-200 609.12,-200 609.12,-169 510.62,-169"/>
<polygon fill="none" stroke="#334155" points="510.62,-169 510.62,-200 609.12,-200 609.12,-169 510.62,-169"/>
<text xml:space="preserve" text-anchor="start" x="552.38" y="-180.75" font-family="Helvetica,sans-Serif" font-size="14.00">15</text>
<polygon fill="#fde68a" stroke="none" points="609.12,-169 609.12,-200 747.38,-200 747.38,-169 609.12,-169"/>
<polygon fill="none" stroke="#334155" points="609.12,-169 609.12,-200 747.38,-200 747.38,-169 609.12,-169"/>
<text xml:space="preserve" text-anchor="start" x="674.5" y="-180.75" font-family="Helvetica,sans-Serif" font-size="14.00">5</text>
<polygon fill="#bfdbfe" stroke="none" points="747.38,-169 747.38,-200 867.62,-200 867.62,-169 747.38,-169"/>
<polygon fill="none" stroke="#334155" points="747.38,-169 747.38,-200 867.62,-200 867.62,-169 747.38,-169"/>
<text xml:space="preserve" text-anchor="start" x="800" y="-180.75" font-family="Helvetica,sans-Serif" font-size="14.00">25</text>
<polygon fill="none" stroke="#334155" points="210.62,-138 210.62,-169 346.62,-169 346.62,-138 210.62,-138"/>
<text xml:space="preserve" text-anchor="start" x="218.62" y="-149.75" font-family="Helvetica,sans-Serif" font-size="14.00">Spike 1</text>
<polygon fill="none" stroke="#334155" points="346.62,-138 346.62,-169 388.88,-169 388.88,-138 346.62,-138"/>
<text xml:space="preserve" text-anchor="start" x="356.5" y="-148.7" font-family="Helvetica,sans-Serif" font-weight="bold" font-size="14.00">100</text>
<polygon fill="#93c5fd" stroke="none" points="388.88,-138 388.88,-169 510.62,-169 510.62,-138 388.88,-138"/>
<polygon fill="none" stroke="#334155" points="388.88,-138 388.88,-169 510.62,-169 510.62,-138 388.88,-138"/>
<text xml:space="preserve" text-anchor="start" x="438.5" y="-148.7" font-family="Helvetica,sans-Serif" font-weight="bold" font-size="14.00">400</text>
<polygon fill="#4ade80" stroke="none" points="510.62,-138 510.62,-169 609.12,-169 609.12,-138 510.62,-138"/>
<polygon fill="none" stroke="#334155" points="510.62,-138 510.62,-169 609.12,-169 609.12,-138 510.62,-138"/>
<text xml:space="preserve" text-anchor="start" x="552.38" y="-148.7" font-family="Helvetica,sans-Serif" font-weight="bold" font-size="14.00">60</text>
<polygon fill="#facc15" stroke="none" points="609.12,-138 609.12,-169 747.38,-169 747.38,-138 609.12,-138"/>
<polygon fill="none" stroke="#334155" points="609.12,-138 609.12,-169 747.38,-169 747.38,-138 609.12,-138"/>
<text xml:space="preserve" text-anchor="start" x="670.75" y="-148.7" font-family="Helvetica,sans-Serif" font-weight="bold" font-size="14.00">20</text>
<polygon fill="#60a5fa" stroke="none" points="747.38,-138 747.38,-169 867.62,-169 867.62,-138 747.38,-138"/>
<polygon fill="none" stroke="#334155" points="747.38,-138 747.38,-169 867.62,-169 867.62,-138 747.38,-138"/>
<text xml:space="preserve" text-anchor="start" x="796.25" y="-148.7" font-family="Helvetica,sans-Serif" font-weight="bold" font-size="14.00">100</text>
<polygon fill="none" stroke="#334155" points="210.62,-107 210.62,-138 346.62,-138 346.62,-107 210.62,-107"/>
<text xml:space="preserve" text-anchor="start" x="218.62" y="-118.75" font-family="Helvetica,sans-Serif" font-size="14.00">Spike 2</text>
<polygon fill="none" stroke="#334155" points="346.62,-107 346.62,-138 388.88,-138 388.88,-107 346.62,-107"/>
<text xml:space="preserve" text-anchor="start" x="356.5" y="-117.7" font-family="Helvetica,sans-Serif" font-weight="bold" font-size="14.00">200</text>
<polygon fill="#3b82f6" stroke="none" points="388.88,-107 388.88,-138 510.62,-138 510.62,-107 388.88,-107"/>
<polygon fill="none" stroke="#334155" points="388.88,-107 388.88,-138 510.62,-138 510.62,-107 388.88,-107"/>
<text xml:space="preserve" text-anchor="start" x="438.5" y="-117.7" font-family="Helvetica,sans-Serif" font-weight="bold" font-size="14.00" fill="white">800</text>
<polygon fill="#22c55e" stroke="none" points="510.62,-107 510.62,-138 609.12,-138 609.12,-107 510.62,-107"/>
<polygon fill="none" stroke="#334155" points="510.62,-107 510.62,-138 609.12,-138 609.12,-107 510.62,-107"/>
<text xml:space="preserve" text-anchor="start" x="548.62" y="-117.7" font-family="Helvetica,sans-Serif" font-weight="bold" font-size="14.00">120</text>
<polygon fill="#eab308" stroke="none" points="609.12,-107 609.12,-138 747.38,-138 747.38,-107 609.12,-107"/>
<polygon fill="none" stroke="#334155" points="609.12,-107 609.12,-138 747.38,-138 747.38,-107 609.12,-107"/>
<text xml:space="preserve" text-anchor="start" x="670.75" y="-117.7" font-family="Helvetica,sans-Serif" font-weight="bold" font-size="14.00">40</text>
<polygon fill="#3b82f6" stroke="none" points="747.38,-107 747.38,-138 867.62,-138 867.62,-107 747.38,-107"/>
<polygon fill="none" stroke="#334155" points="747.38,-107 747.38,-138 867.62,-138 867.62,-107 747.38,-107"/>
<text xml:space="preserve" text-anchor="start" x="796.25" y="-117.7" font-family="Helvetica,sans-Serif" font-weight="bold" font-size="14.00" fill="white">200</text>
<polygon fill="none" stroke="#334155" points="210.62,-76 210.62,-107 346.62,-107 346.62,-76 210.62,-76"/>
<text xml:space="preserve" text-anchor="start" x="218.62" y="-87.75" font-family="Helvetica,sans-Serif" font-size="14.00">Spike 3</text>
<polygon fill="none" stroke="#334155" points="346.62,-76 346.62,-107 388.88,-107 388.88,-76 346.62,-76"/>
<text xml:space="preserve" text-anchor="start" x="356.5" y="-86.7" font-family="Helvetica,sans-Serif" font-weight="bold" font-size="14.00">400</text>
<polygon fill="#1d4ed8" stroke="none" points="388.88,-76 388.88,-107 510.62,-107 510.62,-76 388.88,-76"/>
<polygon fill="none" stroke="#334155" points="388.88,-76 388.88,-107 510.62,-107 510.62,-76 388.88,-76"/>
<text xml:space="preserve" text-anchor="start" x="434.75" y="-86.7" font-family="Helvetica,sans-Serif" font-weight="bold" font-size="14.00" fill="white">1600</text>
<polygon fill="#15803d" stroke="none" points="510.62,-76 510.62,-107 609.12,-107 609.12,-76 510.62,-76"/>
<polygon fill="none" stroke="#334155" points="510.62,-76 510.62,-107 609.12,-107 609.12,-76 510.62,-76"/>
<text xml:space="preserve" text-anchor="start" x="548.62" y="-86.7" font-family="Helvetica,sans-Serif" font-weight="bold" font-size="14.00" fill="white">240</text>
<polygon fill="#a16207" stroke="none" points="609.12,-76 609.12,-107 747.38,-107 747.38,-76 609.12,-76"/>
<polygon fill="none" stroke="#334155" points="609.12,-76 609.12,-107 747.38,-107 747.38,-76 609.12,-76"/>
<text xml:space="preserve" text-anchor="start" x="670.75" y="-86.7" font-family="Helvetica,sans-Serif" font-weight="bold" font-size="14.00" fill="white">80</text>
<polygon fill="#1d4ed8" stroke="none" points="747.38,-76 747.38,-107 867.62,-107 867.62,-76 747.38,-76"/>
<polygon fill="none" stroke="#334155" points="747.38,-76 747.38,-107 867.62,-107 867.62,-76 747.38,-76"/>
<text xml:space="preserve" text-anchor="start" x="796.25" y="-86.7" font-family="Helvetica,sans-Serif" font-weight="bold" font-size="14.00" fill="white">400</text>
<polygon fill="none" stroke="#334155" points="209.62,-75 209.62,-232 868.62,-232 868.62,-75 209.62,-75"/>
</g>
<!-- target_note -->
<g id="node2" class="node">
<title>target_note</title>
<text xml:space="preserve" text-anchor="start" x="4" y="-29.7" font-family="Helvetica,sans-Serif" font-weight="bold" font-size="14.00">Readout:</text>
<text xml:space="preserve" text-anchor="start" x="62.5" y="-29.7" font-family="Helvetica,sans-Serif" font-size="14.00"> darker cells mean more target pressure per completed wave.</text>
<text xml:space="preserve" text-anchor="start" x="4" y="-7.75" font-family="Helvetica,sans-Serif" font-size="14.00">Current config: BASE_SPIKE_USERS=100, SPIKE_MULTIPLIER=2, regional_shoppers=30 VUs, storefront_actions=ramp to 60 browser VUs over 3m, hold 10m, ramp down 2m.</text>
</g>
<!-- target_heatmap&#45;&gt;target_note -->
</g>
</svg>
