<?xml version="1.0" encoding="UTF-8" standalone="no"?>
<!DOCTYPE svg PUBLIC "-//W3C//DTD SVG 1.1//EN"
 "http://www.w3.org/Graphics/SVG/1.1/DTD/svg11.dtd">
<!-- Generated by graphviz version 15.0.0 (20260523.1842)
 -->
<!-- Title: traffic_spike_target_heatmap Pages: 1 -->
<svg width="635pt" height="271pt"
 viewBox="0.00 0.00 635.00 271.00" xmlns="http://www.w3.org/2000/svg" xmlns:xlink="http://www.w3.org/1999/xlink">
<g id="graph0" class="graph" transform="scale(1 1) rotate(0) translate(4 266.5)">
<title>traffic_spike_target_heatmap</title>
<polygon fill="white" stroke="none" points="-4,4 -4,-266.5 630.75,-266.5 630.75,4 -4,4"/>
<text xml:space="preserve" text-anchor="middle" x="313.38" y="-237.6" font-family="Helvetica,sans-Serif" font-size="22.00">Traffic Spike Test Targets</text>
<!-- target_heatmap -->
<g id="node1" class="node">
<title>target_heatmap</title>
<polygon fill="#e0f2fe" stroke="none" points="45.75,-200 45.75,-231 181.75,-231 181.75,-200 45.75,-200"/>
<polygon fill="none" stroke="#334155" points="45.75,-200 45.75,-231 181.75,-231 181.75,-200 45.75,-200"/>
<text xml:space="preserve" text-anchor="start" x="95.38" y="-210.7" font-family="Helvetica,sans-Serif" font-weight="bold" font-size="14.00">Stage</text>
<polygon fill="#e0f2fe" stroke="none" points="181.75,-200 181.75,-231 224,-231 224,-200 181.75,-200"/>
<polygon fill="none" stroke="#334155" points="181.75,-200 181.75,-231 224,-231 224,-200 181.75,-200"/>
<text xml:space="preserve" text-anchor="start" x="189.75" y="-210.7" font-family="Helvetica,sans-Serif" font-weight="bold" font-size="14.00">VUs</text>
<polygon fill="#dcfce7" stroke="none" points="224,-200 224,-231 322.5,-231 322.5,-200 224,-200"/>
<polygon fill="none" stroke="#334155" points="224,-200 224,-231 322.5,-231 322.5,-200 224,-200"/>
<text xml:space="preserve" text-anchor="start" x="232" y="-210.7" font-family="Helvetica,sans-Serif" font-weight="bold" font-size="14.00">Cart updates</text>
<polygon fill="#fef3c7" stroke="none" points="322.5,-200 322.5,-231 460.75,-231 460.75,-200 322.5,-200"/>
<polygon fill="none" stroke="#334155" points="322.5,-200 322.5,-231 460.75,-231 460.75,-200 322.5,-200"/>
<text xml:space="preserve" text-anchor="start" x="330.5" y="-210.7" font-family="Helvetica,sans-Serif" font-weight="bold" font-size="14.00">Checkout attempts</text>
<polygon fill="#dbeafe" stroke="none" points="460.75,-200 460.75,-231 581,-231 581,-200 460.75,-200"/>
<polygon fill="none" stroke="#334155" points="460.75,-200 460.75,-231 581,-231 581,-200 460.75,-200"/>
<text xml:space="preserve" text-anchor="start" x="468.75" y="-210.7" font-family="Helvetica,sans-Serif" font-weight="bold" font-size="14.00">Region changes</text>
<polygon fill="none" stroke="#334155" points="45.75,-169 45.75,-200 181.75,-200 181.75,-169 45.75,-169"/>
<text xml:space="preserve" text-anchor="start" x="53.75" y="-180.75" font-family="Helvetica,sans-Serif" font-size="14.00">Warmup / Recovery</text>
<polygon fill="none" stroke="#334155" points="181.75,-169 181.75,-200 224,-200 224,-169 181.75,-169"/>
<text xml:space="preserve" text-anchor="start" x="195.38" y="-179.7" font-family="Helvetica,sans-Serif" font-weight="bold" font-size="14.00">25</text>
<polygon fill="#bbf7d0" stroke="none" points="224,-169 224,-200 322.5,-200 322.5,-169 224,-169"/>
<polygon fill="none" stroke="#334155" points="224,-169 224,-200 322.5,-200 322.5,-169 224,-169"/>
<text xml:space="preserve" text-anchor="start" x="265.75" y="-180.75" font-family="Helvetica,sans-Serif" font-size="14.00">15</text>
<polygon fill="#fde68a" stroke="none" points="322.5,-169 322.5,-200 460.75,-200 460.75,-169 322.5,-169"/>
<polygon fill="none" stroke="#334155" points="322.5,-169 322.5,-200 460.75,-200 460.75,-169 322.5,-169"/>
<text xml:space="preserve" text-anchor="start" x="387.88" y="-180.75" font-family="Helvetica,sans-Serif" font-size="14.00">5</text>
<polygon fill="#bfdbfe" stroke="none" points="460.75,-169 460.75,-200 581,-200 581,-169 460.75,-169"/>
<polygon fill="none" stroke="#334155" points="460.75,-169 460.75,-200 581,-200 581,-169 460.75,-169"/>
<text xml:space="preserve" text-anchor="start" x="513.38" y="-180.75" font-family="Helvetica,sans-Serif" font-size="14.00">25</text>
<polygon fill="none" stroke="#334155" points="45.75,-138 45.75,-169 181.75,-169 181.75,-138 45.75,-138"/>
<text xml:space="preserve" text-anchor="start" x="53.75" y="-149.75" font-family="Helvetica,sans-Serif" font-size="14.00">Spike 1</text>
<polygon fill="none" stroke="#334155" points="181.75,-138 181.75,-169 224,-169 224,-138 181.75,-138"/>
<text xml:space="preserve" text-anchor="start" x="191.62" y="-148.7" font-family="Helvetica,sans-Serif" font-weight="bold" font-size="14.00">100</text>
<polygon fill="#4ade80" stroke="none" points="224,-138 224,-169 322.5,-169 322.5,-138 224,-138"/>
<polygon fill="none" stroke="#334155" points="224,-138 224,-169 322.5,-169 322.5,-138 224,-138"/>
<text xml:space="preserve" text-anchor="start" x="265.75" y="-148.7" font-family="Helvetica,sans-Serif" font-weight="bold" font-size="14.00">60</text>
<polygon fill="#facc15" stroke="none" points="322.5,-138 322.5,-169 460.75,-169 460.75,-138 322.5,-138"/>
<polygon fill="none" stroke="#334155" points="322.5,-138 322.5,-169 460.75,-169 460.75,-138 322.5,-138"/>
<text xml:space="preserve" text-anchor="start" x="384.12" y="-148.7" font-family="Helvetica,sans-Serif" font-weight="bold" font-size="14.00">20</text>
<polygon fill="#60a5fa" stroke="none" points="460.75,-138 460.75,-169 581,-169 581,-138 460.75,-138"/>
<polygon fill="none" stroke="#334155" points="460.75,-138 460.75,-169 581,-169 581,-138 460.75,-138"/>
<text xml:space="preserve" text-anchor="start" x="509.62" y="-148.7" font-family="Helvetica,sans-Serif" font-weight="bold" font-size="14.00">100</text>
<polygon fill="none" stroke="#334155" points="45.75,-107 45.75,-138 181.75,-138 181.75,-107 45.75,-107"/>
<text xml:space="preserve" text-anchor="start" x="53.75" y="-118.75" font-family="Helvetica,sans-Serif" font-size="14.00">Spike 2</text>
<polygon fill="none" stroke="#334155" points="181.75,-107 181.75,-138 224,-138 224,-107 181.75,-107"/>
<text xml:space="preserve" text-anchor="start" x="191.62" y="-117.7" font-family="Helvetica,sans-Serif" font-weight="bold" font-size="14.00">150</text>
<polygon fill="#22c55e" stroke="none" points="224,-107 224,-138 322.5,-138 322.5,-107 224,-107"/>
<polygon fill="none" stroke="#334155" points="224,-107 224,-138 322.5,-138 322.5,-107 224,-107"/>
<text xml:space="preserve" text-anchor="start" x="265.75" y="-117.7" font-family="Helvetica,sans-Serif" font-weight="bold" font-size="14.00">90</text>
<polygon fill="#eab308" stroke="none" points="322.5,-107 322.5,-138 460.75,-138 460.75,-107 322.5,-107"/>
<polygon fill="none" stroke="#334155" points="322.5,-107 322.5,-138 460.75,-138 460.75,-107 322.5,-107"/>
<text xml:space="preserve" text-anchor="start" x="384.12" y="-117.7" font-family="Helvetica,sans-Serif" font-weight="bold" font-size="14.00">30</text>
<polygon fill="#3b82f6" stroke="none" points="460.75,-107 460.75,-138 581,-138 581,-107 460.75,-107"/>
<polygon fill="none" stroke="#334155" points="460.75,-107 460.75,-138 581,-138 581,-107 460.75,-107"/>
<text xml:space="preserve" text-anchor="start" x="509.62" y="-117.7" font-family="Helvetica,sans-Serif" font-weight="bold" font-size="14.00">150</text>
<polygon fill="none" stroke="#334155" points="45.75,-76 45.75,-107 181.75,-107 181.75,-76 45.75,-76"/>
<text xml:space="preserve" text-anchor="start" x="53.75" y="-87.75" font-family="Helvetica,sans-Serif" font-size="14.00">Spike 3</text>
<polygon fill="none" stroke="#334155" points="181.75,-76 181.75,-107 224,-107 224,-76 181.75,-76"/>
<text xml:space="preserve" text-anchor="start" x="191.62" y="-86.7" font-family="Helvetica,sans-Serif" font-weight="bold" font-size="14.00">225</text>
<polygon fill="#15803d" stroke="none" points="224,-76 224,-107 322.5,-107 322.5,-76 224,-76"/>
<polygon fill="none" stroke="#334155" points="224,-76 224,-107 322.5,-107 322.5,-76 224,-76"/>
<text xml:space="preserve" text-anchor="start" x="262" y="-86.7" font-family="Helvetica,sans-Serif" font-weight="bold" font-size="14.00" fill="white">135</text>
<polygon fill="#a16207" stroke="none" points="322.5,-76 322.5,-107 460.75,-107 460.75,-76 322.5,-76"/>
<polygon fill="none" stroke="#334155" points="322.5,-76 322.5,-107 460.75,-107 460.75,-76 322.5,-76"/>
<text xml:space="preserve" text-anchor="start" x="384.12" y="-86.7" font-family="Helvetica,sans-Serif" font-weight="bold" font-size="14.00" fill="white">45</text>
<polygon fill="#1d4ed8" stroke="none" points="460.75,-76 460.75,-107 581,-107 581,-76 460.75,-76"/>
<polygon fill="none" stroke="#334155" points="460.75,-76 460.75,-107 581,-107 581,-76 460.75,-76"/>
<text xml:space="preserve" text-anchor="start" x="509.62" y="-86.7" font-family="Helvetica,sans-Serif" font-weight="bold" font-size="14.00" fill="white">225</text>
<polygon fill="none" stroke="#334155" points="44.75,-75 44.75,-232 582,-232 582,-75 44.75,-75"/>
</g>
<!-- target_note -->
<g id="node2" class="node">
<title>target_note</title>
<text xml:space="preserve" text-anchor="start" x="4" y="-29.7" font-family="Helvetica,sans-Serif" font-weight="bold" font-size="14.00">Readout:</text>
<text xml:space="preserve" text-anchor="start" x="62.5" y="-29.7" font-family="Helvetica,sans-Serif" font-size="14.00"> darker cells mean more target pressure per completed wave.</text>
<text xml:space="preserve" text-anchor="start" x="4" y="-7.75" font-family="Helvetica,sans-Serif" font-size="14.00">Cart and checkout validate transaction paths; region validates localization and request header behavior.</text>
</g>
<!-- target_heatmap&#45;&gt;target_note -->
</g>
</svg>
