<?xml version="1.0" encoding="UTF-8" standalone="no"?>
<!DOCTYPE svg PUBLIC "-//W3C//DTD SVG 1.1//EN"
 "http://www.w3.org/Graphics/SVG/1.1/DTD/svg11.dtd">
<!-- Generated by graphviz version 15.0.0 (20260523.1842)
 -->
<!-- Title: traffic_spike_request_cards Pages: 1 -->
<svg width="2058pt" height="219pt"
 viewBox="0.00 0.00 2058.00 219.00" xmlns="http://www.w3.org/2000/svg" xmlns:xlink="http://www.w3.org/1999/xlink">
<g id="graph0" class="graph" transform="scale(1 1) rotate(0) translate(4 214.62)">
<title>traffic_spike_request_cards</title>
<polygon fill="white" stroke="none" points="-4,4 -4,-214.62 2053.5,-214.62 2053.5,4 -4,4"/>
<text xml:space="preserve" text-anchor="middle" x="1024.75" y="-185.72" font-family="Helvetica,sans-Serif" font-size="22.00">Traffic Spike Request Model</text>
<!-- warmup -->
<g id="node1" class="node">
<title>warmup</title>
<polygon fill="#f8fafc" stroke="none" points="376,-85 376,-112 523.75,-112 523.75,-85 376,-85"/>
<text xml:space="preserve" text-anchor="start" x="422.5" y="-93.7" font-family="Helvetica,sans-Serif" font-weight="bold" font-size="14.00">Warmup</text>
<text xml:space="preserve" text-anchor="start" x="420.25" y="-62.9" font-family="Helvetica,sans-Serif" font-weight="bold" font-size="18.00">25 VUs</text>
<text xml:space="preserve" text-anchor="start" x="405.25" y="-37" font-family="Helvetica,sans-Serif" font-size="14.00">~100 req/wave</text>
<text xml:space="preserve" text-anchor="start" x="382" y="-13" font-family="Helvetica,sans-Serif" font-size="10.00">cart 15 · checkout 5 · region 25</text>
<polygon fill="none" stroke="#64748b" points="375,-3 375,-113 524.75,-113 524.75,-3 375,-3"/>
</g>
<!-- spike1 -->
<g id="node2" class="node">
<title>spike1</title>
<polygon fill="#fee2e2" stroke="none" points="932.75,-86.88 932.75,-113.88 1091,-113.88 1091,-86.88 932.75,-86.88"/>
<text xml:space="preserve" text-anchor="start" x="988.25" y="-95.58" font-family="Helvetica,sans-Serif" font-weight="bold" font-size="14.00">Spike 1</text>
<text xml:space="preserve" text-anchor="start" x="969.5" y="-60.98" font-family="Helvetica,sans-Serif" font-weight="bold" font-size="22.00">100 VUs</text>
<text xml:space="preserve" text-anchor="start" x="965.38" y="-34.08" font-family="Helvetica,sans-Serif" font-weight="bold" font-size="14.00">~400 req/wave</text>
<text xml:space="preserve" text-anchor="start" x="938.75" y="-11.12" font-family="Helvetica,sans-Serif" font-size="10.00">cart 60 · checkout 20 · region 100</text>
<polygon fill="none" stroke="#ef4444" points="931.75,-1.12 931.75,-114.88 1092,-114.88 1092,-1.12 931.75,-1.12"/>
</g>
<!-- warmup&#45;&gt;spike1 -->
<g id="edge1" class="edge">
<title>warmup&#45;&gt;spike1</title>
<path fill="none" stroke="#94a3b8" d="M524.5,-58C524.5,-58 924.43,-58 924.43,-58"/>
<polygon fill="#94a3b8" stroke="#94a3b8" points="924.43,-60.1 930.43,-58 924.43,-55.9 924.43,-60.1"/>
</g>
<!-- recovery1 -->
<g id="node3" class="node">
<title>recovery1</title>
<polygon fill="#f8fafc" stroke="none" points="1125,-85 1125,-112 1272.75,-112 1272.75,-85 1125,-85"/>
<text xml:space="preserve" text-anchor="start" x="1168.5" y="-93.7" font-family="Helvetica,sans-Serif" font-weight="bold" font-size="14.00">Recovery</text>
<text xml:space="preserve" text-anchor="start" x="1169.25" y="-62.9" font-family="Helvetica,sans-Serif" font-weight="bold" font-size="18.00">25 VUs</text>
<text xml:space="preserve" text-anchor="start" x="1154.25" y="-37" font-family="Helvetica,sans-Serif" font-size="14.00">~100 req/wave</text>
<text xml:space="preserve" text-anchor="start" x="1131" y="-13" font-family="Helvetica,sans-Serif" font-size="10.00">cart 15 · checkout 5 · region 25</text>
<polygon fill="none" stroke="#64748b" points="1124,-3 1124,-113 1273.75,-113 1273.75,-3 1124,-3"/>
</g>
<!-- spike1&#45;&gt;recovery1 -->
<g id="edge2" class="edge">
<title>spike1&#45;&gt;recovery1</title>
<path fill="none" stroke="#94a3b8" d="M1091.99,-58C1091.99,-58 1116.74,-58 1116.74,-58"/>
<polygon fill="#94a3b8" stroke="#94a3b8" points="1116.74,-60.1 1122.74,-58 1116.74,-55.9 1116.74,-60.1"/>
</g>
<!-- spike2 -->
<g id="node4" class="node">
<title>spike2</title>
<polygon fill="#fecaca" stroke="none" points="1306.75,-86.88 1306.75,-113.88 1470.25,-113.88 1470.25,-86.88 1306.75,-86.88"/>
<text xml:space="preserve" text-anchor="start" x="1364.88" y="-95.58" font-family="Helvetica,sans-Serif" font-weight="bold" font-size="14.00">Spike 2</text>
<text xml:space="preserve" text-anchor="start" x="1346.12" y="-60.98" font-family="Helvetica,sans-Serif" font-weight="bold" font-size="22.00">200 VUs</text>
<text xml:space="preserve" text-anchor="start" x="1342" y="-34.08" font-family="Helvetica,sans-Serif" font-weight="bold" font-size="14.00">~800 req/wave</text>
<text xml:space="preserve" text-anchor="start" x="1312.75" y="-11.12" font-family="Helvetica,sans-Serif" font-size="10.00">cart 120 · checkout 40 · region 200</text>
<polygon fill="none" stroke="#dc2626" points="1305.75,-1.12 1305.75,-114.88 1471.25,-114.88 1471.25,-1.12 1305.75,-1.12"/>
</g>
<!-- recovery1&#45;&gt;spike2 -->
<g id="edge3" class="edge">
<title>recovery1&#45;&gt;spike2</title>
<path fill="none" stroke="#94a3b8" d="M1273.55,-58C1273.55,-58 1298.24,-58 1298.24,-58"/>
<polygon fill="#94a3b8" stroke="#94a3b8" points="1298.24,-60.1 1304.24,-58 1298.24,-55.9 1298.24,-60.1"/>
</g>
<!-- recovery2 -->
<g id="node5" class="node">
<title>recovery2</title>
<polygon fill="#f8fafc" stroke="none" points="1504.25,-85 1504.25,-112 1652,-112 1652,-85 1504.25,-85"/>
<text xml:space="preserve" text-anchor="start" x="1547.75" y="-93.7" font-family="Helvetica,sans-Serif" font-weight="bold" font-size="14.00">Recovery</text>
<text xml:space="preserve" text-anchor="start" x="1548.5" y="-62.9" font-family="Helvetica,sans-Serif" font-weight="bold" font-size="18.00">25 VUs</text>
<text xml:space="preserve" text-anchor="start" x="1533.5" y="-37" font-family="Helvetica,sans-Serif" font-size="14.00">~100 req/wave</text>
<text xml:space="preserve" text-anchor="start" x="1510.25" y="-13" font-family="Helvetica,sans-Serif" font-size="10.00">cart 15 · checkout 5 · region 25</text>
<polygon fill="none" stroke="#64748b" points="1503.25,-3 1503.25,-113 1653,-113 1653,-3 1503.25,-3"/>
</g>
<!-- spike2&#45;&gt;recovery2 -->
<g id="edge4" class="edge">
<title>spike2&#45;&gt;recovery2</title>
<path fill="none" stroke="#94a3b8" d="M1471.12,-58C1471.12,-58 1496.02,-58 1496.02,-58"/>
<polygon fill="#94a3b8" stroke="#94a3b8" points="1496.02,-60.1 1502.02,-58 1496.02,-55.9 1496.02,-60.1"/>
</g>
<!-- spike3 -->
<g id="node6" class="node">
<title>spike3</title>
<polygon fill="#fca5a5" stroke="none" points="1686,-88 1686,-115 1849.5,-115 1849.5,-88 1686,-88"/>
<text xml:space="preserve" text-anchor="start" x="1744.12" y="-96.7" font-family="Helvetica,sans-Serif" font-weight="bold" font-size="14.00">Spike 3</text>
<text xml:space="preserve" text-anchor="start" x="1720.88" y="-60.2" font-family="Helvetica,sans-Serif" font-weight="bold" font-size="24.00">400 VUs</text>
<text xml:space="preserve" text-anchor="start" x="1717.5" y="-32.95" font-family="Helvetica,sans-Serif" font-weight="bold" font-size="14.00">~1600 req/wave</text>
<text xml:space="preserve" text-anchor="start" x="1692" y="-10" font-family="Helvetica,sans-Serif" font-size="10.00">cart 240 · checkout 80 · region 400</text>
<polygon fill="none" stroke="#991b1b" points="1685,0 1685,-116 1850.5,-116 1850.5,0 1685,0"/>
</g>
<!-- recovery2&#45;&gt;spike3 -->
<g id="edge5" class="edge">
<title>recovery2&#45;&gt;spike3</title>
<path fill="none" stroke="#94a3b8" d="M1652.8,-58C1652.8,-58 1677.49,-58 1677.49,-58"/>
<polygon fill="#94a3b8" stroke="#94a3b8" points="1677.49,-60.1 1683.49,-58 1677.49,-55.9 1677.49,-60.1"/>
</g>
<!-- rampdown -->
<g id="node7" class="node">
<title>rampdown</title>
<polygon fill="#f8fafc" stroke="none" points="1883.5,-85 1883.5,-112 2048.5,-112 2048.5,-85 1883.5,-85"/>
<text xml:space="preserve" text-anchor="start" x="1927" y="-93.7" font-family="Helvetica,sans-Serif" font-weight="bold" font-size="14.00">Ramp down</text>
<text xml:space="preserve" text-anchor="start" x="1941.25" y="-62.9" font-family="Helvetica,sans-Serif" font-weight="bold" font-size="18.00">0 VUs</text>
<text xml:space="preserve" text-anchor="start" x="1933" y="-37" font-family="Helvetica,sans-Serif" font-size="14.00">decreasing</text>
<text xml:space="preserve" text-anchor="start" x="1889.5" y="-13" font-family="Helvetica,sans-Serif" font-size="10.00">counters decrease with active VUs</text>
<polygon fill="none" stroke="#64748b" points="1882.5,-3 1882.5,-113 2049.5,-113 2049.5,-3 1882.5,-3"/>
</g>
<!-- spike3&#45;&gt;rampdown -->
<g id="edge6" class="edge">
<title>spike3&#45;&gt;rampdown</title>
<path fill="none" stroke="#94a3b8" d="M1850.39,-58C1850.39,-58 1875.02,-58 1875.02,-58"/>
<polygon fill="#94a3b8" stroke="#94a3b8" points="1875.02,-60.1 1881.02,-58 1875.02,-55.9 1875.02,-60.1"/>
</g>
<!-- legend -->
<g id="node8" class="node">
<title>legend</title>
<text xml:space="preserve" text-anchor="start" x="4" y="-163.82" font-family="Helvetica,sans-Serif" font-weight="bold" font-size="14.00">Config:</text>
<text xml:space="preserve" text-anchor="start" x="51.25" y="-163.82" font-family="Helvetica,sans-Serif" font-size="14.00"> base 100, multiplier 2, regional 30 VUs, steady API 120 req/sec, storefront actions ramp to 5 browser VUs over 2m, hold 6m, ramp down 2m</text>
<text xml:space="preserve" text-anchor="start" x="4" y="-144.88" font-family="Helvetica,sans-Serif" font-size="10.00">browser 3 · cart_builder 4 · account_manager 4 · sale_hunter 4 · checkout 5; actual totals depend on completed iterations.</text>
</g>
</g>
</svg>
