<?xml version="1.0" encoding="UTF-8" standalone="no"?>
<!DOCTYPE svg PUBLIC "-//W3C//DTD SVG 1.1//EN"
 "http://www.w3.org/Graphics/SVG/1.1/DTD/svg11.dtd">
<!-- Generated by graphviz version 15.0.0 (20260523.1842)
 -->
<!-- Title: traffic_spike_requests_only Pages: 1 -->
<svg width="3796pt" height="268pt"
 viewBox="0.00 0.00 3796.00 268.00" xmlns="http://www.w3.org/2000/svg" xmlns:xlink="http://www.w3.org/1999/xlink">
<g id="graph0" class="graph" transform="scale(1 1) rotate(0) translate(4 264)">
<title>traffic_spike_requests_only</title>
<polygon fill="white" stroke="none" points="-4,4 -4,-264 3791.5,-264 3791.5,4 -4,4"/>
<text xml:space="preserve" text-anchor="middle" x="1893.75" y="-237" font-family="Helvetica,sans-Serif" font-size="20.00">Traffic Spike Requests per Completed Wave</text>
<g id="clust1" class="cluster">
<title>cluster_persona_math</title>
<path fill="none" stroke="#cbd5e1" stroke-dasharray="5,2" d="M20,-91C20,-91 1054.22,-91 1054.22,-91 1060.22,-91 1066.22,-97 1066.22,-103 1066.22,-103 1066.22,-154 1066.22,-154 1066.22,-160 1060.22,-166 1054.22,-166 1054.22,-166 20,-166 20,-166 14,-166 8,-160 8,-154 8,-154 8,-103 8,-103 8,-97 14,-91 20,-91"/>
<text xml:space="preserve" text-anchor="middle" x="537.11" y="-149.65" font-family="Helvetica,sans-Serif" font-size="13.00">Per iteration request mix</text>
</g>
<g id="clust2" class="cluster">
<title>cluster_stage_flow</title>
<path fill="none" stroke="#cbd5e1" stroke-dasharray="5,2" d="M1282.71,-148C1282.71,-148 3767.5,-148 3767.5,-148 3773.5,-148 3779.5,-154 3779.5,-160 3779.5,-160 3779.5,-211 3779.5,-211 3779.5,-217 3773.5,-223 3767.5,-223 3767.5,-223 1282.71,-223 1282.71,-223 1276.71,-223 1270.71,-217 1270.71,-211 1270.71,-211 1270.71,-160 1270.71,-160 1270.71,-154 1276.71,-148 1282.71,-148"/>
<text xml:space="preserve" text-anchor="middle" x="2525.11" y="-206.65" font-family="Helvetica,sans-Serif" font-size="13.00">traffic_spikes stage model</text>
</g>
<g id="clust3" class="cluster">
<title>cluster_parallel</title>
<path fill="none" stroke="#cbd5e1" stroke-dasharray="5,2" d="M1150.47,-8C1150.47,-8 1588.78,-8 1588.78,-8 1594.78,-8 1600.78,-14 1600.78,-20 1600.78,-20 1600.78,-128 1600.78,-128 1600.78,-134 1594.78,-140 1588.78,-140 1588.78,-140 1150.47,-140 1150.47,-140 1144.47,-140 1138.47,-134 1138.47,-128 1138.47,-128 1138.47,-20 1138.47,-20 1138.47,-14 1144.47,-8 1150.47,-8"/>
<text xml:space="preserve" text-anchor="middle" x="1369.62" y="-123.65" font-family="Helvetica,sans-Serif" font-size="13.00">Parallel request load</text>
</g>
<!-- note&#45;&gt;p_avg -->
<g id="edge15" class="edge">
<title>note&#45;&gt;p_avg</title>
<path fill="none" stroke="#475569" stroke-width="1.2" d="M860.12,-173.53C874.82,-171.42 884.68,-170 884.68,-170 884.68,-170 919.1,-154.21 950.02,-140.04"/>
<polygon fill="#475569" stroke="#475569" stroke-width="1.2" points="950.78,-142.38 956.13,-137.24 948.74,-137.93 950.78,-142.38"/>
<text xml:space="preserve" text-anchor="middle" x="912.3" y="-164.2" font-family="Helvetica,sans-Serif" font-size="10.00">basis</text>
</g>
<!-- p_browser&#45;&gt;p_cart -->
<!-- p_cart&#45;&gt;p_account -->
<!-- p_account&#45;&gt;p_sale -->
<!-- p_sale&#45;&gt;p_checkout -->
<!-- p_checkout&#45;&gt;p_avg -->
<!-- p_avg&#45;&gt;warmup -->
<g id="edge16" class="edge">
<title>p_avg&#45;&gt;warmup</title>
<path fill="none" stroke="#475569" stroke-width="1.2" d="M1058.37,-129.37C1096.19,-136.75 1138.47,-145 1138.47,-145 1138.47,-145 1207.5,-154 1269.96,-162.14"/>
<polygon fill="#475569" stroke="#475569" stroke-width="1.2" points="1269.26,-164.52 1276.52,-162.99 1269.9,-159.66 1269.26,-164.52"/>
<text xml:space="preserve" text-anchor="middle" x="1102.34" y="-144.9" font-family="Helvetica,sans-Serif" font-size="10.00">× target VUs</text>
</g>
<!-- p_avg&#45;&gt;regional -->
<g id="edge17" class="edge">
<title>p_avg&#45;&gt;regional</title>
<path fill="none" stroke="#475569" stroke-width="1.2" d="M1047.32,-99.57C1087.41,-83.92 1138.47,-64 1138.47,-64 1138.47,-64 1190.73,-57.42 1245.45,-50.52"/>
<polygon fill="#475569" stroke="#475569" stroke-width="1.2" points="1245.44,-52.99 1252.08,-49.68 1244.83,-48.13 1245.44,-52.99"/>
<text xml:space="preserve" text-anchor="middle" x="1102.34" y="-89.52" font-family="Helvetica,sans-Serif" font-size="10.00">30 × 4</text>
</g>
<!-- warmup&#45;&gt;ramp1 -->
<g id="edge6" class="edge">
<title>warmup&#45;&gt;ramp1</title>
<path fill="none" stroke="#475569" stroke-width="1.2" d="M1460.84,-175C1508.05,-175 1566.36,-175 1616.78,-175"/>
<polygon fill="#475569" stroke="#475569" stroke-width="1.2" points="1616.63,-177.45 1623.63,-175 1616.63,-172.55 1616.63,-177.45"/>
</g>
<!-- ramp1&#45;&gt;hold1 -->
<g id="edge7" class="edge">
<title>ramp1&#45;&gt;hold1</title>
<path fill="none" stroke="#475569" stroke-width="1.2" d="M1840.02,-175C1847.92,-175 1855.89,-175 1863.82,-175"/>
<polygon fill="#475569" stroke="#475569" stroke-width="1.2" points="1863.57,-177.45 1870.57,-175 1863.57,-172.55 1863.57,-177.45"/>
</g>
<!-- hold1&#45;&gt;rec1 -->
<g id="edge8" class="edge">
<title>hold1&#45;&gt;rec1</title>
<path fill="none" stroke="#475569" stroke-width="1.2" d="M2079.93,-175C2087.65,-175 2095.47,-175 2103.25,-175"/>
<polygon fill="#475569" stroke="#475569" stroke-width="1.2" points="2103.2,-177.45 2110.2,-175 2103.2,-172.55 2103.2,-177.45"/>
</g>
<!-- rec1&#45;&gt;ramp2 -->
<g id="edge9" class="edge">
<title>rec1&#45;&gt;ramp2</title>
<path fill="none" stroke="#475569" stroke-width="1.2" d="M2322.27,-175C2330.03,-175 2337.89,-175 2345.72,-175"/>
<polygon fill="#475569" stroke="#475569" stroke-width="1.2" points="2345.71,-177.45 2352.71,-175 2345.71,-172.55 2345.71,-177.45"/>
</g>
<!-- ramp2&#45;&gt;hold2 -->
<g id="edge10" class="edge">
<title>ramp2&#45;&gt;hold2</title>
<path fill="none" stroke="#475569" stroke-width="1.2" d="M2569.26,-175C2577.16,-175 2585.13,-175 2593.06,-175"/>
<polygon fill="#475569" stroke="#475569" stroke-width="1.2" points="2592.81,-177.45 2599.81,-175 2592.81,-172.55 2592.81,-177.45"/>
</g>
<!-- hold2&#45;&gt;rec2 -->
<g id="edge11" class="edge">
<title>hold2&#45;&gt;rec2</title>
<path fill="none" stroke="#475569" stroke-width="1.2" d="M2809.17,-175C2816.89,-175 2824.71,-175 2832.49,-175"/>
<polygon fill="#475569" stroke="#475569" stroke-width="1.2" points="2832.44,-177.45 2839.44,-175 2832.44,-172.55 2832.44,-177.45"/>
</g>
<!-- rec2&#45;&gt;ramp3 -->
<g id="edge12" class="edge">
<title>rec2&#45;&gt;ramp3</title>
<path fill="none" stroke="#475569" stroke-width="1.2" d="M3051.72,-175C3059.43,-175 3067.23,-175 3075,-175"/>
<polygon fill="#475569" stroke="#475569" stroke-width="1.2" points="3074.95,-177.45 3081.95,-175 3074.95,-172.55 3074.95,-177.45"/>
</g>
<!-- ramp3&#45;&gt;hold3 -->
<g id="edge13" class="edge">
<title>ramp3&#45;&gt;hold3</title>
<path fill="none" stroke="#475569" stroke-width="1.2" d="M3304.5,-175C3312.49,-175 3320.55,-175 3328.56,-175"/>
<polygon fill="#475569" stroke="#475569" stroke-width="1.2" points="3328.41,-177.45 3335.41,-175 3328.41,-172.55 3328.41,-177.45"/>
</g>
<!-- hold3&#45;&gt;down -->
<g id="edge14" class="edge">
<title>hold3&#45;&gt;down</title>
<path fill="none" stroke="#475569" stroke-width="1.2" d="M3550.25,-175C3558.06,-175 3565.92,-175 3573.7,-175"/>
<polygon fill="#475569" stroke="#475569" stroke-width="1.2" points="3573.63,-177.45 3580.63,-175 3573.63,-172.55 3573.63,-177.45"/>
</g>
<!-- note -->
<g id="node1" class="node">
<title>note</title>
<polygon fill="#fff7ed" stroke="#f97316" points="878.68,-210 576.91,-210 576.91,-174 884.68,-174 884.68,-204 878.68,-210"/>
<polyline fill="none" stroke="#f97316" points="878.68,-210 878.68,-204"/>
<polyline fill="none" stroke="#f97316" points="884.68,-204 878.68,-204"/>
<text xml:space="preserve" text-anchor="middle" x="730.8" y="-193.55" font-family="Helvetica,sans-Serif" font-size="11.00">Estimates assume each active VU completes one iteration.</text>
<text xml:space="preserve" text-anchor="middle" x="730.8" y="-181.55" font-family="Helvetica,sans-Serif" font-size="11.00">Actual request totals vary with latency, sleeps, and loop count.</text>
</g>
<!-- p_browser -->
<g id="node2" class="node">
<title>p_browser</title>
<path fill="#f8fafc" stroke="#334155" d="M28,-100C28,-100 90.79,-100 90.79,-100 96.79,-100 102.79,-106 102.79,-112 102.79,-112 102.79,-124 102.79,-124 102.79,-130 96.79,-136 90.79,-136 90.79,-136 28,-136 28,-136 22,-136 16,-130 16,-124 16,-124 16,-112 16,-112 16,-106 22,-100 28,-100"/>
<text xml:space="preserve" text-anchor="middle" x="41.26" y="-113.95" font-family="Helvetica,sans-Serif" font-size="11.00">browser</text>
<polyline fill="none" stroke="#334155" points="66.52,-100.8 66.52,-136"/>
<text xml:space="preserve" text-anchor="middle" x="84.65" y="-113.95" font-family="Helvetica,sans-Serif" font-size="11.00">3 req</text>
</g>
<!-- p_cart -->
<g id="node3" class="node">
<title>p_cart</title>
<path fill="#f8fafc" stroke="#334155" d="M147.79,-100C147.79,-100 227.83,-100 227.83,-100 233.83,-100 239.83,-106 239.83,-112 239.83,-112 239.83,-124 239.83,-124 239.83,-130 233.83,-136 227.83,-136 227.83,-136 147.79,-136 147.79,-136 141.79,-136 135.79,-130 135.79,-124 135.79,-124 135.79,-112 135.79,-112 135.79,-106 141.79,-100 147.79,-100"/>
<text xml:space="preserve" text-anchor="middle" x="169.67" y="-113.95" font-family="Helvetica,sans-Serif" font-size="11.00">cart_builder</text>
<polyline fill="none" stroke="#334155" points="203.56,-100.8 203.56,-136"/>
<text xml:space="preserve" text-anchor="middle" x="221.69" y="-113.95" font-family="Helvetica,sans-Serif" font-size="11.00">4 req</text>
</g>
<!-- p_account -->
<g id="node4" class="node">
<title>p_account</title>
<path fill="#f8fafc" stroke="#334155" d="M284.83,-100C284.83,-100 394.87,-100 394.87,-100 400.87,-100 406.87,-106 406.87,-112 406.87,-112 406.87,-124 406.87,-124 406.87,-130 400.87,-136 394.87,-136 394.87,-136 284.83,-136 284.83,-136 278.83,-136 272.83,-130 272.83,-124 272.83,-124 272.83,-112 272.83,-112 272.83,-106 278.83,-100 284.83,-100"/>
<text xml:space="preserve" text-anchor="middle" x="321.71" y="-113.95" font-family="Helvetica,sans-Serif" font-size="11.00">account_manager</text>
<polyline fill="none" stroke="#334155" points="370.6,-100.8 370.6,-136"/>
<text xml:space="preserve" text-anchor="middle" x="388.73" y="-113.95" font-family="Helvetica,sans-Serif" font-size="11.00">4 req</text>
</g>
<!-- p_sale -->
<g id="node5" class="node">
<title>p_sale</title>
<path fill="#f8fafc" stroke="#334155" d="M451.87,-100C451.87,-100 531.91,-100 531.91,-100 537.91,-100 543.91,-106 543.91,-112 543.91,-112 543.91,-124 543.91,-124 543.91,-130 537.91,-136 531.91,-136 531.91,-136 451.87,-136 451.87,-136 445.87,-136 439.87,-130 439.87,-124 439.87,-124 439.87,-112 439.87,-112 439.87,-106 445.87,-100 451.87,-100"/>
<text xml:space="preserve" text-anchor="middle" x="473.75" y="-113.95" font-family="Helvetica,sans-Serif" font-size="11.00">sale_hunter</text>
<polyline fill="none" stroke="#334155" points="507.64,-100.8 507.64,-136"/>
<text xml:space="preserve" text-anchor="middle" x="525.77" y="-113.95" font-family="Helvetica,sans-Serif" font-size="11.00">4 req</text>
</g>
<!-- p_checkout -->
<g id="node6" class="node">
<title>p_checkout</title>
<path fill="#f8fafc" stroke="#334155" d="M697.53,-100C697.53,-100 764.07,-100 764.07,-100 770.07,-100 776.07,-106 776.07,-112 776.07,-112 776.07,-124 776.07,-124 776.07,-130 770.07,-136 764.07,-136 764.07,-136 697.53,-136 697.53,-136 691.53,-136 685.53,-130 685.53,-124 685.53,-124 685.53,-112 685.53,-112 685.53,-106 691.53,-100 697.53,-100"/>
<text xml:space="preserve" text-anchor="middle" x="712.66" y="-113.95" font-family="Helvetica,sans-Serif" font-size="11.00">checkout</text>
<polyline fill="none" stroke="#334155" points="739.8,-100.8 739.8,-136"/>
<text xml:space="preserve" text-anchor="middle" x="757.93" y="-113.95" font-family="Helvetica,sans-Serif" font-size="11.00">5 req</text>
</g>
<!-- p_avg -->
<g id="node7" class="node">
<title>p_avg</title>
<path fill="#ecfeff" stroke="#0891b2" d="M951.93,-100C951.93,-100 1046.22,-100 1046.22,-100 1052.22,-100 1058.22,-106 1058.22,-112 1058.22,-112 1058.22,-124 1058.22,-124 1058.22,-130 1052.22,-136 1046.22,-136 1046.22,-136 951.93,-136 951.93,-136 945.93,-136 939.93,-130 939.93,-124 939.93,-124 939.93,-112 939.93,-112 939.93,-106 945.93,-100 951.93,-100"/>
<text xml:space="preserve" text-anchor="middle" x="954.31" y="-113.95" font-family="Helvetica,sans-Serif" font-size="11.00">avg</text>
<polyline fill="none" stroke="#0891b2" points="968.7,-100.8 968.7,-136"/>
<text xml:space="preserve" text-anchor="middle" x="1013.46" y="-113.95" font-family="Helvetica,sans-Serif" font-size="11.00">4 req / VU wave</text>
</g>
<!-- warmup -->
<g id="node8" class="node">
<title>warmup</title>
<path fill="#f1f5f9" stroke="#334155" d="M1290.71,-157C1290.71,-157 1448.54,-157 1448.54,-157 1454.54,-157 1460.54,-163 1460.54,-169 1460.54,-169 1460.54,-181 1460.54,-181 1460.54,-187 1454.54,-193 1448.54,-193 1448.54,-193 1290.71,-193 1290.71,-193 1284.71,-193 1278.71,-187 1278.71,-181 1278.71,-181 1278.71,-169 1278.71,-169 1278.71,-163 1284.71,-157 1290.71,-157"/>
<text xml:space="preserve" text-anchor="middle" x="1305.1" y="-170.95" font-family="Helvetica,sans-Serif" font-size="11.00">Warmup</text>
<polyline fill="none" stroke="#334155" points="1331.48,-157.8 1331.48,-193"/>
<text xml:space="preserve" text-anchor="middle" x="1344.74" y="-170.95" font-family="Helvetica,sans-Serif" font-size="11.00">1m</text>
<polyline fill="none" stroke="#334155" points="1358,-157.8 1358,-193"/>
<text xml:space="preserve" text-anchor="middle" x="1381.76" y="-170.95" font-family="Helvetica,sans-Serif" font-size="11.00">25 VUs</text>
<polyline fill="none" stroke="#334155" points="1405.52,-157.8 1405.52,-193"/>
<text xml:space="preserve" text-anchor="middle" x="1433.03" y="-170.95" font-family="Helvetica,sans-Serif" font-size="11.00">~100 req</text>
</g>
<!-- ramp1 -->
<g id="node9" class="node">
<title>ramp1</title>
<path fill="#dbeafe" stroke="#334155" d="M1637.78,-157C1637.78,-157 1827.86,-157 1827.86,-157 1833.86,-157 1839.86,-163 1839.86,-169 1839.86,-169 1839.86,-181 1839.86,-181 1839.86,-187 1833.86,-193 1827.86,-193 1827.86,-193 1637.78,-193 1637.78,-193 1631.78,-193 1625.78,-187 1625.78,-181 1625.78,-181 1625.78,-169 1625.78,-169 1625.78,-163 1631.78,-157 1637.78,-157"/>
<text xml:space="preserve" text-anchor="middle" x="1650.67" y="-170.95" font-family="Helvetica,sans-Serif" font-size="11.00">Ramp 1</text>
<polyline fill="none" stroke="#334155" points="1675.55,-157.8 1675.55,-193"/>
<text xml:space="preserve" text-anchor="middle" x="1689.94" y="-170.95" font-family="Helvetica,sans-Serif" font-size="11.00">30s</text>
<polyline fill="none" stroke="#334155" points="1704.32,-157.8 1704.32,-193"/>
<text xml:space="preserve" text-anchor="middle" x="1731.08" y="-170.95" font-family="Helvetica,sans-Serif" font-size="11.00">100 VUs</text>
<polyline fill="none" stroke="#334155" points="1757.84,-157.8 1757.84,-193"/>
<text xml:space="preserve" text-anchor="middle" x="1798.85" y="-170.95" font-family="Helvetica,sans-Serif" font-size="11.00">up to ~400 req</text>
</g>
<!-- hold1 -->
<g id="node10" class="node">
<title>hold1</title>
<path fill="#bfdbfe" stroke="#334155" d="M1884.86,-157C1884.86,-157 2067.44,-157 2067.44,-157 2073.44,-157 2079.44,-163 2079.44,-169 2079.44,-169 2079.44,-181 2079.44,-181 2079.44,-187 2073.44,-193 2067.44,-193 2067.44,-193 1884.86,-193 1884.86,-193 1878.86,-193 1872.86,-187 1872.86,-181 1872.86,-181 1872.86,-169 1872.86,-169 1872.86,-163 1878.86,-157 1884.86,-157"/>
<text xml:space="preserve" text-anchor="middle" x="1894.37" y="-170.95" font-family="Helvetica,sans-Serif" font-size="11.00">Hold 1</text>
<polyline fill="none" stroke="#334155" points="1915.88,-157.8 1915.88,-193"/>
<text xml:space="preserve" text-anchor="middle" x="1929.14" y="-170.95" font-family="Helvetica,sans-Serif" font-size="11.00">1m</text>
<polyline fill="none" stroke="#334155" points="1942.4,-157.8 1942.4,-193"/>
<text xml:space="preserve" text-anchor="middle" x="1969.16" y="-170.95" font-family="Helvetica,sans-Serif" font-size="11.00">100 VUs</text>
<polyline fill="none" stroke="#334155" points="1995.92,-157.8 1995.92,-193"/>
<text xml:space="preserve" text-anchor="middle" x="2037.68" y="-170.95" font-family="Helvetica,sans-Serif" font-size="11.00">~400 req/wave</text>
</g>
<!-- rec1 -->
<g id="node11" class="node">
<title>rec1</title>
<path fill="#f1f5f9" stroke="#334155" d="M2124.44,-157C2124.44,-157 2310.02,-157 2310.02,-157 2316.02,-157 2322.02,-163 2322.02,-169 2322.02,-169 2322.02,-181 2322.02,-181 2322.02,-187 2316.02,-193 2310.02,-193 2310.02,-193 2124.44,-193 2124.44,-193 2118.44,-193 2112.44,-187 2112.44,-181 2112.44,-181 2112.44,-169 2112.44,-169 2112.44,-163 2118.44,-157 2124.44,-157"/>
<text xml:space="preserve" text-anchor="middle" x="2138.45" y="-170.95" font-family="Helvetica,sans-Serif" font-size="11.00">Recover</text>
<polyline fill="none" stroke="#334155" points="2164.46,-157.8 2164.46,-193"/>
<text xml:space="preserve" text-anchor="middle" x="2177.72" y="-170.95" font-family="Helvetica,sans-Serif" font-size="11.00">1m</text>
<polyline fill="none" stroke="#334155" points="2190.98,-157.8 2190.98,-193"/>
<text xml:space="preserve" text-anchor="middle" x="2214.74" y="-170.95" font-family="Helvetica,sans-Serif" font-size="11.00">25 VUs</text>
<polyline fill="none" stroke="#334155" points="2238.5,-157.8 2238.5,-193"/>
<text xml:space="preserve" text-anchor="middle" x="2280.26" y="-170.95" font-family="Helvetica,sans-Serif" font-size="11.00">~100 req/wave</text>
</g>
<!-- ramp2 -->
<g id="node12" class="node">
<title>ramp2</title>
<path fill="#fde68a" stroke="#334155" d="M2367.02,-157C2367.02,-157 2557.1,-157 2557.1,-157 2563.1,-157 2569.1,-163 2569.1,-169 2569.1,-169 2569.1,-181 2569.1,-181 2569.1,-187 2563.1,-193 2557.1,-193 2557.1,-193 2367.02,-193 2367.02,-193 2361.02,-193 2355.02,-187 2355.02,-181 2355.02,-181 2355.02,-169 2355.02,-169 2355.02,-163 2361.02,-157 2367.02,-157"/>
<text xml:space="preserve" text-anchor="middle" x="2379.91" y="-170.95" font-family="Helvetica,sans-Serif" font-size="11.00">Ramp 2</text>
<polyline fill="none" stroke="#334155" points="2404.79,-157.8 2404.79,-193"/>
<text xml:space="preserve" text-anchor="middle" x="2419.18" y="-170.95" font-family="Helvetica,sans-Serif" font-size="11.00">30s</text>
<polyline fill="none" stroke="#334155" points="2433.56,-157.8 2433.56,-193"/>
<text xml:space="preserve" text-anchor="middle" x="2460.32" y="-170.95" font-family="Helvetica,sans-Serif" font-size="11.00">200 VUs</text>
<polyline fill="none" stroke="#334155" points="2487.08,-157.8 2487.08,-193"/>
<text xml:space="preserve" text-anchor="middle" x="2528.09" y="-170.95" font-family="Helvetica,sans-Serif" font-size="11.00">up to ~800 req</text>
</g>
<!-- hold2 -->
<g id="node13" class="node">
<title>hold2</title>
<path fill="#fcd34d" stroke="#334155" d="M2614.1,-157C2614.1,-157 2796.68,-157 2796.68,-157 2802.68,-157 2808.68,-163 2808.68,-169 2808.68,-169 2808.68,-181 2808.68,-181 2808.68,-187 2802.68,-193 2796.68,-193 2796.68,-193 2614.1,-193 2614.1,-193 2608.1,-193 2602.1,-187 2602.1,-181 2602.1,-181 2602.1,-169 2602.1,-169 2602.1,-163 2608.1,-157 2614.1,-157"/>
<text xml:space="preserve" text-anchor="middle" x="2623.61" y="-170.95" font-family="Helvetica,sans-Serif" font-size="11.00">Hold 2</text>
<polyline fill="none" stroke="#334155" points="2645.12,-157.8 2645.12,-193"/>
<text xml:space="preserve" text-anchor="middle" x="2658.38" y="-170.95" font-family="Helvetica,sans-Serif" font-size="11.00">1m</text>
<polyline fill="none" stroke="#334155" points="2671.64,-157.8 2671.64,-193"/>
<text xml:space="preserve" text-anchor="middle" x="2698.4" y="-170.95" font-family="Helvetica,sans-Serif" font-size="11.00">200 VUs</text>
<polyline fill="none" stroke="#334155" points="2725.16,-157.8 2725.16,-193"/>
<text xml:space="preserve" text-anchor="middle" x="2766.92" y="-170.95" font-family="Helvetica,sans-Serif" font-size="11.00">~800 req/wave</text>
</g>
<!-- rec2 -->
<g id="node14" class="node">
<title>rec2</title>
<path fill="#f1f5f9" stroke="#334155" d="M2853.68,-157C2853.68,-157 3039.26,-157 3039.26,-157 3045.26,-157 3051.26,-163 3051.26,-169 3051.26,-169 3051.26,-181 3051.26,-181 3051.26,-187 3045.26,-193 3039.26,-193 3039.26,-193 2853.68,-193 2853.68,-193 2847.68,-193 2841.68,-187 2841.68,-181 2841.68,-181 2841.68,-169 2841.68,-169 2841.68,-163 2847.68,-157 2853.68,-157"/>
<text xml:space="preserve" text-anchor="middle" x="2867.69" y="-170.95" font-family="Helvetica,sans-Serif" font-size="11.00">Recover</text>
<polyline fill="none" stroke="#334155" points="2893.7,-157.8 2893.7,-193"/>
<text xml:space="preserve" text-anchor="middle" x="2906.96" y="-170.95" font-family="Helvetica,sans-Serif" font-size="11.00">1m</text>
<polyline fill="none" stroke="#334155" points="2920.22,-157.8 2920.22,-193"/>
<text xml:space="preserve" text-anchor="middle" x="2943.98" y="-170.95" font-family="Helvetica,sans-Serif" font-size="11.00">25 VUs</text>
<polyline fill="none" stroke="#334155" points="2967.74,-157.8 2967.74,-193"/>
<text xml:space="preserve" text-anchor="middle" x="3009.5" y="-170.95" font-family="Helvetica,sans-Serif" font-size="11.00">~100 req/wave</text>
</g>
<!-- ramp3 -->
<g id="node15" class="node">
<title>ramp3</title>
<path fill="#fecaca" stroke="#334155" d="M3096.26,-157C3096.26,-157 3292.34,-157 3292.34,-157 3298.34,-157 3304.34,-163 3304.34,-169 3304.34,-169 3304.34,-181 3304.34,-181 3304.34,-187 3298.34,-193 3292.34,-193 3292.34,-193 3096.26,-193 3096.26,-193 3090.26,-193 3084.26,-187 3084.26,-181 3084.26,-181 3084.26,-169 3084.26,-169 3084.26,-163 3090.26,-157 3096.26,-157"/>
<text xml:space="preserve" text-anchor="middle" x="3109.14" y="-170.95" font-family="Helvetica,sans-Serif" font-size="11.00">Ramp 3</text>
<polyline fill="none" stroke="#334155" points="3134.03,-157.8 3134.03,-193"/>
<text xml:space="preserve" text-anchor="middle" x="3148.41" y="-170.95" font-family="Helvetica,sans-Serif" font-size="11.00">30s</text>
<polyline fill="none" stroke="#334155" points="3162.8,-157.8 3162.8,-193"/>
<text xml:space="preserve" text-anchor="middle" x="3189.56" y="-170.95" font-family="Helvetica,sans-Serif" font-size="11.00">400 VUs</text>
<polyline fill="none" stroke="#334155" points="3216.32,-157.8 3216.32,-193"/>
<text xml:space="preserve" text-anchor="middle" x="3260.33" y="-170.95" font-family="Helvetica,sans-Serif" font-size="11.00">up to ~1600 req</text>
</g>
<!-- hold3 -->
<g id="node16" class="node">
<title>hold3</title>
<path fill="#fca5a5" stroke="#334155" d="M3349.34,-157C3349.34,-157 3537.92,-157 3537.92,-157 3543.92,-157 3549.92,-163 3549.92,-169 3549.92,-169 3549.92,-181 3549.92,-181 3549.92,-187 3543.92,-193 3537.92,-193 3537.92,-193 3349.34,-193 3349.34,-193 3343.34,-193 3337.34,-187 3337.34,-181 3337.34,-181 3337.34,-169 3337.34,-169 3337.34,-163 3343.34,-157 3349.34,-157"/>
<text xml:space="preserve" text-anchor="middle" x="3358.85" y="-170.95" font-family="Helvetica,sans-Serif" font-size="11.00">Hold 3</text>
<polyline fill="none" stroke="#334155" points="3380.36,-157.8 3380.36,-193"/>
<text xml:space="preserve" text-anchor="middle" x="3393.62" y="-170.95" font-family="Helvetica,sans-Serif" font-size="11.00">1m</text>
<polyline fill="none" stroke="#334155" points="3406.88,-157.8 3406.88,-193"/>
<text xml:space="preserve" text-anchor="middle" x="3433.64" y="-170.95" font-family="Helvetica,sans-Serif" font-size="11.00">400 VUs</text>
<polyline fill="none" stroke="#334155" points="3460.4,-157.8 3460.4,-193"/>
<text xml:space="preserve" text-anchor="middle" x="3505.16" y="-170.95" font-family="Helvetica,sans-Serif" font-size="11.00">~1600 req/wave</text>
</g>
<!-- down -->
<g id="node17" class="node">
<title>down</title>
<path fill="#e2e8f0" stroke="#334155" d="M3594.92,-157C3594.92,-157 3759.5,-157 3759.5,-157 3765.5,-157 3771.5,-163 3771.5,-169 3771.5,-169 3771.5,-181 3771.5,-181 3771.5,-187 3765.5,-193 3759.5,-193 3759.5,-193 3594.92,-193 3594.92,-193 3588.92,-193 3582.92,-187 3582.92,-181 3582.92,-181 3582.92,-169 3582.92,-169 3582.92,-163 3588.92,-157 3594.92,-157"/>
<text xml:space="preserve" text-anchor="middle" x="3617.93" y="-170.83" font-family="Helvetica,sans-Serif" font-size="11.00">Ramp down</text>
<polyline fill="none" stroke="#334155" points="3652.94,-157.55 3652.94,-193"/>
<text xml:space="preserve" text-anchor="middle" x="3666.2" y="-170.83" font-family="Helvetica,sans-Serif" font-size="11.00">1m</text>
<polyline fill="none" stroke="#334155" points="3679.46,-157.55 3679.46,-193"/>
<text xml:space="preserve" text-anchor="middle" x="3700.22" y="-170.83" font-family="Helvetica,sans-Serif" font-size="11.00">0 VUs</text>
<polyline fill="none" stroke="#334155" points="3720.98,-157.55 3720.98,-193"/>
<text xml:space="preserve" text-anchor="middle" x="3746.24" y="-171.95" font-family="Helvetica,sans-Serif" font-size="11.00">→ 0 req</text>
</g>
<!-- regional -->
<g id="node18" class="node">
<title>regional</title>
<path fill="#ecfdf5" stroke="#334155" d="M1266.1,-17C1266.1,-17 1473.15,-17 1473.15,-17 1479.15,-17 1485.15,-23 1485.15,-29 1485.15,-29 1485.15,-41 1485.15,-41 1485.15,-47 1479.15,-53 1473.15,-53 1473.15,-53 1266.1,-53 1266.1,-53 1260.1,-53 1254.1,-47 1254.1,-41 1254.1,-41 1254.1,-29 1254.1,-29 1254.1,-23 1260.1,-17 1266.1,-17"/>
<text xml:space="preserve" text-anchor="middle" x="1304.11" y="-30.95" font-family="Helvetica,sans-Serif" font-size="11.00">regional_shoppers</text>
<polyline fill="none" stroke="#334155" points="1354.12,-17.8 1354.12,-53"/>
<text xml:space="preserve" text-anchor="middle" x="1377.88" y="-30.95" font-family="Helvetica,sans-Serif" font-size="11.00">30 VUs</text>
<polyline fill="none" stroke="#334155" points="1401.63,-17.8 1401.63,-53"/>
<text xml:space="preserve" text-anchor="middle" x="1443.39" y="-30.95" font-family="Helvetica,sans-Serif" font-size="11.00">~120 req/wave</text>
</g>
<!-- browser_actions -->
<g id="node19" class="node">
<title>browser_actions</title>
<path fill="#faf5ff" stroke="#334155" d="M1158.47,-74C1158.47,-74 1580.78,-74 1580.78,-74 1586.78,-74 1592.78,-80 1592.78,-86 1592.78,-86 1592.78,-98 1592.78,-98 1592.78,-104 1586.78,-110 1580.78,-110 1580.78,-110 1158.47,-110 1158.47,-110 1152.47,-110 1146.47,-104 1146.47,-98 1146.47,-98 1146.47,-86 1146.47,-86 1146.47,-80 1152.47,-74 1158.47,-74"/>
<text xml:space="preserve" text-anchor="middle" x="1194.98" y="-87.95" font-family="Helvetica,sans-Serif" font-size="11.00">storefront_actions</text>
<polyline fill="none" stroke="#334155" points="1243.49,-74.8 1243.49,-110"/>
<text xml:space="preserve" text-anchor="middle" x="1305.12" y="-87.95" font-family="Helvetica,sans-Serif" font-size="11.00">60 browser VUs × 10m</text>
<polyline fill="none" stroke="#334155" points="1366.76,-74.8 1366.76,-110"/>
<text xml:space="preserve" text-anchor="middle" x="1479.77" y="-87.95" font-family="Helvetica,sans-Serif" font-size="11.00">browser requests vary; Faro actions targeted</text>
</g>
</g>
</svg>
