<?xml version="1.0" encoding="UTF-8" standalone="no"?>
<!DOCTYPE svg PUBLIC "-//W3C//DTD SVG 1.1//EN"
 "http://www.w3.org/Graphics/SVG/1.1/DTD/svg11.dtd">
<!-- Generated by graphviz version 15.0.0 (20260523.1842)
 -->
<!-- Title: traffic_spike_target_heatmap Pages: 1 -->
<svg width="864pt" height="271pt"
 viewBox="0.00 0.00 864.00 271.00" xmlns="http://www.w3.org/2000/svg" xmlns:xlink="http://www.w3.org/1999/xlink">
<g id="graph0" class="graph" transform="scale(1 1) rotate(0) translate(4 266.5)">
<title>traffic_spike_target_heatmap</title>
<polygon fill="white" stroke="none" points="-4,4 -4,-266.5 859.5,-266.5 859.5,4 -4,4"/>
<text xml:space="preserve" text-anchor="middle" x="427.75" y="-237.6" font-family="Helvetica,sans-Serif" font-size="22.00">Traffic Spike Test Targets</text>
<!-- target_heatmap -->
<g id="node1" class="node">
<title>target_heatmap</title>
<polygon fill="#e0f2fe" stroke="none" points="99.25,-200 99.25,-231 235.25,-231 235.25,-200 99.25,-200"/>
<polygon fill="none" stroke="#334155" points="99.25,-200 99.25,-231 235.25,-231 235.25,-200 99.25,-200"/>
<text xml:space="preserve" text-anchor="start" x="148.88" y="-210.7" font-family="Helvetica,sans-Serif" font-weight="bold" font-size="14.00">Stage</text>
<polygon fill="#e0f2fe" stroke="none" points="235.25,-200 235.25,-231 277.5,-231 277.5,-200 235.25,-200"/>
<polygon fill="none" stroke="#334155" points="235.25,-200 235.25,-231 277.5,-231 277.5,-200 235.25,-200"/>
<text xml:space="preserve" text-anchor="start" x="243.25" y="-210.7" font-family="Helvetica,sans-Serif" font-weight="bold" font-size="14.00">VUs</text>
<polygon fill="#e0f2fe" stroke="none" points="277.5,-200 277.5,-231 399.25,-231 399.25,-200 277.5,-200"/>
<polygon fill="none" stroke="#334155" points="277.5,-200 277.5,-231 399.25,-231 399.25,-200 277.5,-200"/>
<text xml:space="preserve" text-anchor="start" x="285.5" y="-210.7" font-family="Helvetica,sans-Serif" font-weight="bold" font-size="14.00">Requests / wave</text>
<polygon fill="#dcfce7" stroke="none" points="399.25,-200 399.25,-231 497.75,-231 497.75,-200 399.25,-200"/>
<polygon fill="none" stroke="#334155" points="399.25,-200 399.25,-231 497.75,-231 497.75,-200 399.25,-200"/>
<text xml:space="preserve" text-anchor="start" x="407.25" y="-210.7" font-family="Helvetica,sans-Serif" font-weight="bold" font-size="14.00">Cart updates</text>
<polygon fill="#fef3c7" stroke="none" points="497.75,-200 497.75,-231 636,-231 636,-200 497.75,-200"/>
<polygon fill="none" stroke="#334155" points="497.75,-200 497.75,-231 636,-231 636,-200 497.75,-200"/>
<text xml:space="preserve" text-anchor="start" x="505.75" y="-210.7" font-family="Helvetica,sans-Serif" font-weight="bold" font-size="14.00">Checkout attempts</text>
<polygon fill="#dbeafe" stroke="none" points="636,-200 636,-231 756.25,-231 756.25,-200 636,-200"/>
<polygon fill="none" stroke="#334155" points="636,-200 636,-231 756.25,-231 756.25,-200 636,-200"/>
<text xml:space="preserve" text-anchor="start" x="644" y="-210.7" font-family="Helvetica,sans-Serif" font-weight="bold" font-size="14.00">Region changes</text>
<polygon fill="none" stroke="#334155" points="99.25,-169 99.25,-200 235.25,-200 235.25,-169 99.25,-169"/>
<text xml:space="preserve" text-anchor="start" x="107.25" y="-180.75" font-family="Helvetica,sans-Serif" font-size="14.00">Warmup / Recovery</text>
<polygon fill="none" stroke="#334155" points="235.25,-169 235.25,-200 277.5,-200 277.5,-169 235.25,-169"/>
<text xml:space="preserve" text-anchor="start" x="248.88" y="-179.7" font-family="Helvetica,sans-Serif" font-weight="bold" font-size="14.00">25</text>
<polygon fill="#e2e8f0" stroke="none" points="277.5,-169 277.5,-200 399.25,-200 399.25,-169 277.5,-169"/>
<polygon fill="none" stroke="#334155" points="277.5,-169 277.5,-200 399.25,-200 399.25,-169 277.5,-169"/>
<text xml:space="preserve" text-anchor="start" x="327.12" y="-180.75" font-family="Helvetica,sans-Serif" font-size="14.00">100</text>
<polygon fill="#bbf7d0" stroke="none" points="399.25,-169 399.25,-200 497.75,-200 497.75,-169 399.25,-169"/>
<polygon fill="none" stroke="#334155" points="399.25,-169 399.25,-200 497.75,-200 497.75,-169 399.25,-169"/>
<text xml:space="preserve" text-anchor="start" x="441" y="-180.75" font-family="Helvetica,sans-Serif" font-size="14.00">15</text>
<polygon fill="#fde68a" stroke="none" points="497.75,-169 497.75,-200 636,-200 636,-169 497.75,-169"/>
<polygon fill="none" stroke="#334155" points="497.75,-169 497.75,-200 636,-200 636,-169 497.75,-169"/>
<text xml:space="preserve" text-anchor="start" x="563.12" y="-180.75" font-family="Helvetica,sans-Serif" font-size="14.00">5</text>
<polygon fill="#bfdbfe" stroke="none" points="636,-169 636,-200 756.25,-200 756.25,-169 636,-169"/>
<polygon fill="none" stroke="#334155" points="636,-169 636,-200 756.25,-200 756.25,-169 636,-169"/>
<text xml:space="preserve" text-anchor="start" x="688.62" y="-180.75" font-family="Helvetica,sans-Serif" font-size="14.00">25</text>
<polygon fill="none" stroke="#334155" points="99.25,-138 99.25,-169 235.25,-169 235.25,-138 99.25,-138"/>
<text xml:space="preserve" text-anchor="start" x="107.25" y="-149.75" font-family="Helvetica,sans-Serif" font-size="14.00">Spike 1</text>
<polygon fill="none" stroke="#334155" points="235.25,-138 235.25,-169 277.5,-169 277.5,-138 235.25,-138"/>
<text xml:space="preserve" text-anchor="start" x="245.12" y="-148.7" font-family="Helvetica,sans-Serif" font-weight="bold" font-size="14.00">100</text>
<polygon fill="#93c5fd" stroke="none" points="277.5,-138 277.5,-169 399.25,-169 399.25,-138 277.5,-138"/>
<polygon fill="none" stroke="#334155" points="277.5,-138 277.5,-169 399.25,-169 399.25,-138 277.5,-138"/>
<text xml:space="preserve" text-anchor="start" x="327.12" y="-148.7" font-family="Helvetica,sans-Serif" font-weight="bold" font-size="14.00">400</text>
<polygon fill="#4ade80" stroke="none" points="399.25,-138 399.25,-169 497.75,-169 497.75,-138 399.25,-138"/>
<polygon fill="none" stroke="#334155" points="399.25,-138 399.25,-169 497.75,-169 497.75,-138 399.25,-138"/>
<text xml:space="preserve" text-anchor="start" x="441" y="-148.7" font-family="Helvetica,sans-Serif" font-weight="bold" font-size="14.00">60</text>
<polygon fill="#facc15" stroke="none" points="497.75,-138 497.75,-169 636,-169 636,-138 497.75,-138"/>
<polygon fill="none" stroke="#334155" points="497.75,-138 497.75,-169 636,-169 636,-138 497.75,-138"/>
<text xml:space="preserve" text-anchor="start" x="559.38" y="-148.7" font-family="Helvetica,sans-Serif" font-weight="bold" font-size="14.00">20</text>
<polygon fill="#60a5fa" stroke="none" points="636,-138 636,-169 756.25,-169 756.25,-138 636,-138"/>
<polygon fill="none" stroke="#334155" points="636,-138 636,-169 756.25,-169 756.25,-138 636,-138"/>
<text xml:space="preserve" text-anchor="start" x="684.88" y="-148.7" font-family="Helvetica,sans-Serif" font-weight="bold" font-size="14.00">100</text>
<polygon fill="none" stroke="#334155" points="99.25,-107 99.25,-138 235.25,-138 235.25,-107 99.25,-107"/>
<text xml:space="preserve" text-anchor="start" x="107.25" y="-118.75" font-family="Helvetica,sans-Serif" font-size="14.00">Spike 2</text>
<polygon fill="none" stroke="#334155" points="235.25,-107 235.25,-138 277.5,-138 277.5,-107 235.25,-107"/>
<text xml:space="preserve" text-anchor="start" x="245.12" y="-117.7" font-family="Helvetica,sans-Serif" font-weight="bold" font-size="14.00">200</text>
<polygon fill="#3b82f6" stroke="none" points="277.5,-107 277.5,-138 399.25,-138 399.25,-107 277.5,-107"/>
<polygon fill="none" stroke="#334155" points="277.5,-107 277.5,-138 399.25,-138 399.25,-107 277.5,-107"/>
<text xml:space="preserve" text-anchor="start" x="327.12" y="-117.7" font-family="Helvetica,sans-Serif" font-weight="bold" font-size="14.00" fill="white">800</text>
<polygon fill="#22c55e" stroke="none" points="399.25,-107 399.25,-138 497.75,-138 497.75,-107 399.25,-107"/>
<polygon fill="none" stroke="#334155" points="399.25,-107 399.25,-138 497.75,-138 497.75,-107 399.25,-107"/>
<text xml:space="preserve" text-anchor="start" x="437.25" y="-117.7" font-family="Helvetica,sans-Serif" font-weight="bold" font-size="14.00">120</text>
<polygon fill="#eab308" stroke="none" points="497.75,-107 497.75,-138 636,-138 636,-107 497.75,-107"/>
<polygon fill="none" stroke="#334155" points="497.75,-107 497.75,-138 636,-138 636,-107 497.75,-107"/>
<text xml:space="preserve" text-anchor="start" x="559.38" y="-117.7" font-family="Helvetica,sans-Serif" font-weight="bold" font-size="14.00">40</text>
<polygon fill="#3b82f6" stroke="none" points="636,-107 636,-138 756.25,-138 756.25,-107 636,-107"/>
<polygon fill="none" stroke="#334155" points="636,-107 636,-138 756.25,-138 756.25,-107 636,-107"/>
<text xml:space="preserve" text-anchor="start" x="684.88" y="-117.7" font-family="Helvetica,sans-Serif" font-weight="bold" font-size="14.00" fill="white">200</text>
<polygon fill="none" stroke="#334155" points="99.25,-76 99.25,-107 235.25,-107 235.25,-76 99.25,-76"/>
<text xml:space="preserve" text-anchor="start" x="107.25" y="-87.75" font-family="Helvetica,sans-Serif" font-size="14.00">Spike 3</text>
<polygon fill="none" stroke="#334155" points="235.25,-76 235.25,-107 277.5,-107 277.5,-76 235.25,-76"/>
<text xml:space="preserve" text-anchor="start" x="245.12" y="-86.7" font-family="Helvetica,sans-Serif" font-weight="bold" font-size="14.00">400</text>
<polygon fill="#1d4ed8" stroke="none" points="277.5,-76 277.5,-107 399.25,-107 399.25,-76 277.5,-76"/>
<polygon fill="none" stroke="#334155" points="277.5,-76 277.5,-107 399.25,-107 399.25,-76 277.5,-76"/>
<text xml:space="preserve" text-anchor="start" x="323.38" y="-86.7" font-family="Helvetica,sans-Serif" font-weight="bold" font-size="14.00" fill="white">1600</text>
<polygon fill="#15803d" stroke="none" points="399.25,-76 399.25,-107 497.75,-107 497.75,-76 399.25,-76"/>
<polygon fill="none" stroke="#334155" points="399.25,-76 399.25,-107 497.75,-107 497.75,-76 399.25,-76"/>
<text xml:space="preserve" text-anchor="start" x="437.25" y="-86.7" font-family="Helvetica,sans-Serif" font-weight="bold" font-size="14.00" fill="white">240</text>
<polygon fill="#a16207" stroke="none" points="497.75,-76 497.75,-107 636,-107 636,-76 497.75,-76"/>
<polygon fill="none" stroke="#334155" points="497.75,-76 497.75,-107 636,-107 636,-76 497.75,-76"/>
<text xml:space="preserve" text-anchor="start" x="559.38" y="-86.7" font-family="Helvetica,sans-Serif" font-weight="bold" font-size="14.00" fill="white">80</text>
<polygon fill="#1d4ed8" stroke="none" points="636,-76 636,-107 756.25,-107 756.25,-76 636,-76"/>
<polygon fill="none" stroke="#334155" points="636,-76 636,-107 756.25,-107 756.25,-76 636,-76"/>
<text xml:space="preserve" text-anchor="start" x="684.88" y="-86.7" font-family="Helvetica,sans-Serif" font-weight="bold" font-size="14.00" fill="white">400</text>
<polygon fill="none" stroke="#334155" points="98.25,-75 98.25,-232 757.25,-232 757.25,-75 98.25,-75"/>
</g>
<!-- target_note -->
<g id="node2" class="node">
<title>target_note</title>
<text xml:space="preserve" text-anchor="start" x="4" y="-29.7" font-family="Helvetica,sans-Serif" font-weight="bold" font-size="14.00">Readout:</text>
<text xml:space="preserve" text-anchor="start" x="62.5" y="-29.7" font-family="Helvetica,sans-Serif" font-size="14.00"> darker cells mean more target pressure per completed wave.</text>
<text xml:space="preserve" text-anchor="start" x="4" y="-7.75" font-family="Helvetica,sans-Serif" font-size="14.00">Current config: BASE_SPIKE_USERS=100, SPIKE_MULTIPLIER=2, regional_shoppers=30 VUs, storefront_actions=5 browser VUs for 10m.</text>
</g>
<!-- target_heatmap&#45;&gt;target_note -->
</g>
</svg>
