<?xml version="1.0" encoding="UTF-8" standalone="no"?>
<!DOCTYPE svg PUBLIC "-//W3C//DTD SVG 1.1//EN"
 "http://www.w3.org/Graphics/SVG/1.1/DTD/svg11.dtd">
<!-- Generated by graphviz version 15.0.0 (20260523.1842)
 -->
<!-- Title: traffic_spike_requests_only Pages: 1 -->
<svg width="3790pt" height="268pt"
 viewBox="0.00 0.00 3790.00 268.00" xmlns="http://www.w3.org/2000/svg" xmlns:xlink="http://www.w3.org/1999/xlink">
<g id="graph0" class="graph" transform="scale(1 1) rotate(0) translate(4 264)">
<title>traffic_spike_requests_only</title>
<polygon fill="white" stroke="none" points="-4,4 -4,-264 3785.5,-264 3785.5,4 -4,4"/>
<text xml:space="preserve" text-anchor="middle" x="1890.75" y="-237" font-family="Helvetica,sans-Serif" font-size="20.00">Traffic Spike Requests per Completed Wave</text>
<g id="clust1" class="cluster">
<title>cluster_persona_math</title>
<path fill="none" stroke="#cbd5e1" stroke-dasharray="5,2" d="M20,-91C20,-91 1054.22,-91 1054.22,-91 1060.22,-91 1066.22,-97 1066.22,-103 1066.22,-103 1066.22,-154 1066.22,-154 1066.22,-160 1060.22,-166 1054.22,-166 1054.22,-166 20,-166 20,-166 14,-166 8,-160 8,-154 8,-154 8,-103 8,-103 8,-97 14,-91 20,-91"/>
<text xml:space="preserve" text-anchor="middle" x="537.11" y="-149.65" font-family="Helvetica,sans-Serif" font-size="13.00">Per iteration request mix</text>
</g>
<g id="clust2" class="cluster">
<title>cluster_stage_flow</title>
<path fill="none" stroke="#cbd5e1" stroke-dasharray="5,2" d="M1279.71,-148C1279.71,-148 3761.5,-148 3761.5,-148 3767.5,-148 3773.5,-154 3773.5,-160 3773.5,-160 3773.5,-211 3773.5,-211 3773.5,-217 3767.5,-223 3761.5,-223 3761.5,-223 1279.71,-223 1279.71,-223 1273.71,-223 1267.71,-217 1267.71,-211 1267.71,-211 1267.71,-160 1267.71,-160 1267.71,-154 1273.71,-148 1279.71,-148"/>
<text xml:space="preserve" text-anchor="middle" x="2520.61" y="-206.65" font-family="Helvetica,sans-Serif" font-size="13.00">traffic_spikes stage model</text>
</g>
<g id="clust3" class="cluster">
<title>cluster_parallel</title>
<path fill="none" stroke="#cbd5e1" stroke-dasharray="5,2" d="M1150.47,-8C1150.47,-8 1582.78,-8 1582.78,-8 1588.78,-8 1594.78,-14 1594.78,-20 1594.78,-20 1594.78,-128 1594.78,-128 1594.78,-134 1588.78,-140 1582.78,-140 1582.78,-140 1150.47,-140 1150.47,-140 1144.47,-140 1138.47,-134 1138.47,-128 1138.47,-128 1138.47,-20 1138.47,-20 1138.47,-14 1144.47,-8 1150.47,-8"/>
<text xml:space="preserve" text-anchor="middle" x="1366.62" y="-123.65" font-family="Helvetica,sans-Serif" font-size="13.00">Parallel request load</text>
</g>
<!-- note&#45;&gt;p_avg -->
<g id="edge15" class="edge">
<title>note&#45;&gt;p_avg</title>
<path fill="none" stroke="#475569" stroke-width="1.2" d="M860.12,-173.53C874.82,-171.42 884.68,-170 884.68,-170 884.68,-170 919.1,-154.21 950.02,-140.04"/>
<polygon fill="#475569" stroke="#475569" stroke-width="1.2" points="950.78,-142.38 956.13,-137.24 948.74,-137.93 950.78,-142.38"/>
<text xml:space="preserve" text-anchor="middle" x="912.31" y="-164.2" font-family="Helvetica,sans-Serif" font-size="10.00">basis</text>
</g>
<!-- p_browser&#45;&gt;p_cart -->
<!-- p_cart&#45;&gt;p_account -->
<!-- p_account&#45;&gt;p_sale -->
<!-- p_sale&#45;&gt;p_checkout -->
<!-- p_checkout&#45;&gt;p_avg -->
<!-- p_avg&#45;&gt;warmup -->
<g id="edge16" class="edge">
<title>p_avg&#45;&gt;warmup</title>
<path fill="none" stroke="#475569" stroke-width="1.2" d="M1058.37,-129.37C1096.19,-136.75 1138.47,-145 1138.47,-145 1138.47,-145 1205.63,-153.87 1266.92,-161.96"/>
<polygon fill="#475569" stroke="#475569" stroke-width="1.2" points="1266.46,-164.37 1273.72,-162.86 1267.1,-159.52 1266.46,-164.37"/>
<text xml:space="preserve" text-anchor="middle" x="1102.35" y="-144.9" font-family="Helvetica,sans-Serif" font-size="10.00">× target VUs</text>
</g>
<!-- p_avg&#45;&gt;regional -->
<g id="edge17" class="edge">
<title>p_avg&#45;&gt;regional</title>
<path fill="none" stroke="#475569" stroke-width="1.2" d="M1047.32,-99.57C1087.41,-83.92 1138.47,-64 1138.47,-64 1138.47,-64 1188.84,-57.57 1242.14,-50.76"/>
<polygon fill="#475569" stroke="#475569" stroke-width="1.2" points="1242.28,-53.22 1248.91,-49.9 1241.66,-48.36 1242.28,-53.22"/>
<text xml:space="preserve" text-anchor="middle" x="1102.35" y="-89.52" font-family="Helvetica,sans-Serif" font-size="10.00">30 × 4</text>
</g>
<!-- warmup&#45;&gt;ramp1 -->
<g id="edge6" class="edge">
<title>warmup&#45;&gt;ramp1</title>
<path fill="none" stroke="#475569" stroke-width="1.2" d="M1458.01,-175C1504.44,-175 1561.52,-175 1611.03,-175"/>
<polygon fill="#475569" stroke="#475569" stroke-width="1.2" points="1610.73,-177.45 1617.73,-175 1610.73,-172.55 1610.73,-177.45"/>
</g>
<!-- ramp1&#45;&gt;hold1 -->
<g id="edge7" class="edge">
<title>ramp1&#45;&gt;hold1</title>
<path fill="none" stroke="#475569" stroke-width="1.2" d="M1834.02,-175C1841.92,-175 1849.89,-175 1857.82,-175"/>
<polygon fill="#475569" stroke="#475569" stroke-width="1.2" points="1857.57,-177.45 1864.57,-175 1857.57,-172.55 1857.57,-177.45"/>
</g>
<!-- hold1&#45;&gt;rec1 -->
<g id="edge8" class="edge">
<title>hold1&#45;&gt;rec1</title>
<path fill="none" stroke="#475569" stroke-width="1.2" d="M2073.93,-175C2081.65,-175 2089.47,-175 2097.25,-175"/>
<polygon fill="#475569" stroke="#475569" stroke-width="1.2" points="2097.2,-177.45 2104.2,-175 2097.2,-172.55 2097.2,-177.45"/>
</g>
<!-- rec1&#45;&gt;ramp2 -->
<g id="edge9" class="edge">
<title>rec1&#45;&gt;ramp2</title>
<path fill="none" stroke="#475569" stroke-width="1.2" d="M2316.27,-175C2324.03,-175 2331.89,-175 2339.72,-175"/>
<polygon fill="#475569" stroke="#475569" stroke-width="1.2" points="2339.71,-177.45 2346.71,-175 2339.71,-172.55 2339.71,-177.45"/>
</g>
<!-- ramp2&#45;&gt;hold2 -->
<g id="edge10" class="edge">
<title>ramp2&#45;&gt;hold2</title>
<path fill="none" stroke="#475569" stroke-width="1.2" d="M2563.26,-175C2571.16,-175 2579.13,-175 2587.06,-175"/>
<polygon fill="#475569" stroke="#475569" stroke-width="1.2" points="2586.81,-177.45 2593.81,-175 2586.81,-172.55 2586.81,-177.45"/>
</g>
<!-- hold2&#45;&gt;rec2 -->
<g id="edge11" class="edge">
<title>hold2&#45;&gt;rec2</title>
<path fill="none" stroke="#475569" stroke-width="1.2" d="M2803.17,-175C2810.89,-175 2818.71,-175 2826.49,-175"/>
<polygon fill="#475569" stroke="#475569" stroke-width="1.2" points="2826.44,-177.45 2833.44,-175 2826.44,-172.55 2826.44,-177.45"/>
</g>
<!-- rec2&#45;&gt;ramp3 -->
<g id="edge12" class="edge">
<title>rec2&#45;&gt;ramp3</title>
<path fill="none" stroke="#475569" stroke-width="1.2" d="M3045.72,-175C3053.43,-175 3061.23,-175 3069,-175"/>
<polygon fill="#475569" stroke="#475569" stroke-width="1.2" points="3068.95,-177.45 3075.95,-175 3068.95,-172.55 3068.95,-177.45"/>
</g>
<!-- ramp3&#45;&gt;hold3 -->
<g id="edge13" class="edge">
<title>ramp3&#45;&gt;hold3</title>
<path fill="none" stroke="#475569" stroke-width="1.2" d="M3298.5,-175C3306.49,-175 3314.55,-175 3322.56,-175"/>
<polygon fill="#475569" stroke="#475569" stroke-width="1.2" points="3322.41,-177.45 3329.41,-175 3322.41,-172.55 3322.41,-177.45"/>
</g>
<!-- hold3&#45;&gt;down -->
<g id="edge14" class="edge">
<title>hold3&#45;&gt;down</title>
<path fill="none" stroke="#475569" stroke-width="1.2" d="M3544.25,-175C3552.06,-175 3559.92,-175 3567.7,-175"/>
<polygon fill="#475569" stroke="#475569" stroke-width="1.2" points="3567.63,-177.45 3574.63,-175 3567.63,-172.55 3567.63,-177.45"/>
</g>
<!-- note -->
<g id="node1" class="node">
<title>note</title>
<polygon fill="#fff7ed" stroke="#f97316" points="878.68,-210 576.91,-210 576.91,-174 884.68,-174 884.68,-204 878.68,-210"/>
<polyline fill="none" stroke="#f97316" points="878.68,-210 878.68,-204"/>
<polyline fill="none" stroke="#f97316" points="884.68,-204 878.68,-204"/>
<text xml:space="preserve" text-anchor="middle" x="730.8" y="-193.55" font-family="Helvetica,sans-Serif" font-size="11.00">Estimates assume each active VU completes one iteration.</text>
<text xml:space="preserve" text-anchor="middle" x="730.8" y="-181.55" font-family="Helvetica,sans-Serif" font-size="11.00">Actual request totals vary with latency, sleeps, and loop count.</text>
</g>
<!-- p_browser -->
<g id="node2" class="node">
<title>p_browser</title>
<path fill="#f8fafc" stroke="#334155" d="M28,-100C28,-100 90.79,-100 90.79,-100 96.79,-100 102.79,-106 102.79,-112 102.79,-112 102.79,-124 102.79,-124 102.79,-130 96.79,-136 90.79,-136 90.79,-136 28,-136 28,-136 22,-136 16,-130 16,-124 16,-124 16,-112 16,-112 16,-106 22,-100 28,-100"/>
<text xml:space="preserve" text-anchor="middle" x="41.26" y="-113.95" font-family="Helvetica,sans-Serif" font-size="11.00">browser</text>
<polyline fill="none" stroke="#334155" points="66.52,-100.8 66.52,-136"/>
<text xml:space="preserve" text-anchor="middle" x="84.65" y="-113.95" font-family="Helvetica,sans-Serif" font-size="11.00">3 req</text>
</g>
<!-- p_cart -->
<g id="node3" class="node">
<title>p_cart</title>
<path fill="#f8fafc" stroke="#334155" d="M147.79,-100C147.79,-100 227.83,-100 227.83,-100 233.83,-100 239.83,-106 239.83,-112 239.83,-112 239.83,-124 239.83,-124 239.83,-130 233.83,-136 227.83,-136 227.83,-136 147.79,-136 147.79,-136 141.79,-136 135.79,-130 135.79,-124 135.79,-124 135.79,-112 135.79,-112 135.79,-106 141.79,-100 147.79,-100"/>
<text xml:space="preserve" text-anchor="middle" x="169.67" y="-113.95" font-family="Helvetica,sans-Serif" font-size="11.00">cart_builder</text>
<polyline fill="none" stroke="#334155" points="203.56,-100.8 203.56,-136"/>
<text xml:space="preserve" text-anchor="middle" x="221.69" y="-113.95" font-family="Helvetica,sans-Serif" font-size="11.00">4 req</text>
</g>
<!-- p_account -->
<g id="node4" class="node">
<title>p_account</title>
<path fill="#f8fafc" stroke="#334155" d="M284.83,-100C284.83,-100 394.87,-100 394.87,-100 400.87,-100 406.87,-106 406.87,-112 406.87,-112 406.87,-124 406.87,-124 406.87,-130 400.87,-136 394.87,-136 394.87,-136 284.83,-136 284.83,-136 278.83,-136 272.83,-130 272.83,-124 272.83,-124 272.83,-112 272.83,-112 272.83,-106 278.83,-100 284.83,-100"/>
<text xml:space="preserve" text-anchor="middle" x="321.71" y="-113.95" font-family="Helvetica,sans-Serif" font-size="11.00">account_manager</text>
<polyline fill="none" stroke="#334155" points="370.6,-100.8 370.6,-136"/>
<text xml:space="preserve" text-anchor="middle" x="388.73" y="-113.95" font-family="Helvetica,sans-Serif" font-size="11.00">4 req</text>
</g>
<!-- p_sale -->
<g id="node5" class="node">
<title>p_sale</title>
<path fill="#f8fafc" stroke="#334155" d="M451.87,-100C451.87,-100 531.91,-100 531.91,-100 537.91,-100 543.91,-106 543.91,-112 543.91,-112 543.91,-124 543.91,-124 543.91,-130 537.91,-136 531.91,-136 531.91,-136 451.87,-136 451.87,-136 445.87,-136 439.87,-130 439.87,-124 439.87,-124 439.87,-112 439.87,-112 439.87,-106 445.87,-100 451.87,-100"/>
<text xml:space="preserve" text-anchor="middle" x="473.75" y="-113.95" font-family="Helvetica,sans-Serif" font-size="11.00">sale_hunter</text>
<polyline fill="none" stroke="#334155" points="507.64,-100.8 507.64,-136"/>
<text xml:space="preserve" text-anchor="middle" x="525.77" y="-113.95" font-family="Helvetica,sans-Serif" font-size="11.00">4 req</text>
</g>
<!-- p_checkout -->
<g id="node6" class="node">
<title>p_checkout</title>
<path fill="#f8fafc" stroke="#334155" d="M697.53,-100C697.53,-100 764.07,-100 764.07,-100 770.07,-100 776.07,-106 776.07,-112 776.07,-112 776.07,-124 776.07,-124 776.07,-130 770.07,-136 764.07,-136 764.07,-136 697.53,-136 697.53,-136 691.53,-136 685.53,-130 685.53,-124 685.53,-124 685.53,-112 685.53,-112 685.53,-106 691.53,-100 697.53,-100"/>
<text xml:space="preserve" text-anchor="middle" x="712.66" y="-113.95" font-family="Helvetica,sans-Serif" font-size="11.00">checkout</text>
<polyline fill="none" stroke="#334155" points="739.8,-100.8 739.8,-136"/>
<text xml:space="preserve" text-anchor="middle" x="757.93" y="-113.95" font-family="Helvetica,sans-Serif" font-size="11.00">5 req</text>
</g>
<!-- p_avg -->
<g id="node7" class="node">
<title>p_avg</title>
<path fill="#ecfeff" stroke="#0891b2" d="M951.93,-100C951.93,-100 1046.22,-100 1046.22,-100 1052.22,-100 1058.22,-106 1058.22,-112 1058.22,-112 1058.22,-124 1058.22,-124 1058.22,-130 1052.22,-136 1046.22,-136 1046.22,-136 951.93,-136 951.93,-136 945.93,-136 939.93,-130 939.93,-124 939.93,-124 939.93,-112 939.93,-112 939.93,-106 945.93,-100 951.93,-100"/>
<text xml:space="preserve" text-anchor="middle" x="954.32" y="-113.95" font-family="Helvetica,sans-Serif" font-size="11.00">avg</text>
<polyline fill="none" stroke="#0891b2" points="968.7,-100.8 968.7,-136"/>
<text xml:space="preserve" text-anchor="middle" x="1013.46" y="-113.95" font-family="Helvetica,sans-Serif" font-size="11.00">4 req / VU wave</text>
</g>
<!-- warmup -->
<g id="node8" class="node">
<title>warmup</title>
<path fill="#f1f5f9" stroke="#334155" d="M1287.71,-157C1287.71,-157 1445.54,-157 1445.54,-157 1451.54,-157 1457.54,-163 1457.54,-169 1457.54,-169 1457.54,-181 1457.54,-181 1457.54,-187 1451.54,-193 1445.54,-193 1445.54,-193 1287.71,-193 1287.71,-193 1281.71,-193 1275.71,-187 1275.71,-181 1275.71,-181 1275.71,-169 1275.71,-169 1275.71,-163 1281.71,-157 1287.71,-157"/>
<text xml:space="preserve" text-anchor="middle" x="1302.1" y="-170.95" font-family="Helvetica,sans-Serif" font-size="11.00">Warmup</text>
<polyline fill="none" stroke="#334155" points="1328.48,-157.8 1328.48,-193"/>
<text xml:space="preserve" text-anchor="middle" x="1341.74" y="-170.95" font-family="Helvetica,sans-Serif" font-size="11.00">1m</text>
<polyline fill="none" stroke="#334155" points="1355,-157.8 1355,-193"/>
<text xml:space="preserve" text-anchor="middle" x="1378.76" y="-170.95" font-family="Helvetica,sans-Serif" font-size="11.00">25 VUs</text>
<polyline fill="none" stroke="#334155" points="1402.52,-157.8 1402.52,-193"/>
<text xml:space="preserve" text-anchor="middle" x="1430.03" y="-170.95" font-family="Helvetica,sans-Serif" font-size="11.00">~100 req</text>
</g>
<!-- ramp1 -->
<g id="node9" class="node">
<title>ramp1</title>
<path fill="#dbeafe" stroke="#334155" d="M1631.78,-157C1631.78,-157 1821.86,-157 1821.86,-157 1827.86,-157 1833.86,-163 1833.86,-169 1833.86,-169 1833.86,-181 1833.86,-181 1833.86,-187 1827.86,-193 1821.86,-193 1821.86,-193 1631.78,-193 1631.78,-193 1625.78,-193 1619.78,-187 1619.78,-181 1619.78,-181 1619.78,-169 1619.78,-169 1619.78,-163 1625.78,-157 1631.78,-157"/>
<text xml:space="preserve" text-anchor="middle" x="1644.67" y="-170.95" font-family="Helvetica,sans-Serif" font-size="11.00">Ramp 1</text>
<polyline fill="none" stroke="#334155" points="1669.55,-157.8 1669.55,-193"/>
<text xml:space="preserve" text-anchor="middle" x="1683.94" y="-170.95" font-family="Helvetica,sans-Serif" font-size="11.00">30s</text>
<polyline fill="none" stroke="#334155" points="1698.32,-157.8 1698.32,-193"/>
<text xml:space="preserve" text-anchor="middle" x="1725.08" y="-170.95" font-family="Helvetica,sans-Serif" font-size="11.00">100 VUs</text>
<polyline fill="none" stroke="#334155" points="1751.84,-157.8 1751.84,-193"/>
<text xml:space="preserve" text-anchor="middle" x="1792.85" y="-170.95" font-family="Helvetica,sans-Serif" font-size="11.00">up to ~400 req</text>
</g>
<!-- hold1 -->
<g id="node10" class="node">
<title>hold1</title>
<path fill="#bfdbfe" stroke="#334155" d="M1878.86,-157C1878.86,-157 2061.44,-157 2061.44,-157 2067.44,-157 2073.44,-163 2073.44,-169 2073.44,-169 2073.44,-181 2073.44,-181 2073.44,-187 2067.44,-193 2061.44,-193 2061.44,-193 1878.86,-193 1878.86,-193 1872.86,-193 1866.86,-187 1866.86,-181 1866.86,-181 1866.86,-169 1866.86,-169 1866.86,-163 1872.86,-157 1878.86,-157"/>
<text xml:space="preserve" text-anchor="middle" x="1888.37" y="-170.95" font-family="Helvetica,sans-Serif" font-size="11.00">Hold 1</text>
<polyline fill="none" stroke="#334155" points="1909.88,-157.8 1909.88,-193"/>
<text xml:space="preserve" text-anchor="middle" x="1923.14" y="-170.95" font-family="Helvetica,sans-Serif" font-size="11.00">1m</text>
<polyline fill="none" stroke="#334155" points="1936.4,-157.8 1936.4,-193"/>
<text xml:space="preserve" text-anchor="middle" x="1963.16" y="-170.95" font-family="Helvetica,sans-Serif" font-size="11.00">100 VUs</text>
<polyline fill="none" stroke="#334155" points="1989.92,-157.8 1989.92,-193"/>
<text xml:space="preserve" text-anchor="middle" x="2031.68" y="-170.95" font-family="Helvetica,sans-Serif" font-size="11.00">~400 req/wave</text>
</g>
<!-- rec1 -->
<g id="node11" class="node">
<title>rec1</title>
<path fill="#f1f5f9" stroke="#334155" d="M2118.44,-157C2118.44,-157 2304.02,-157 2304.02,-157 2310.02,-157 2316.02,-163 2316.02,-169 2316.02,-169 2316.02,-181 2316.02,-181 2316.02,-187 2310.02,-193 2304.02,-193 2304.02,-193 2118.44,-193 2118.44,-193 2112.44,-193 2106.44,-187 2106.44,-181 2106.44,-181 2106.44,-169 2106.44,-169 2106.44,-163 2112.44,-157 2118.44,-157"/>
<text xml:space="preserve" text-anchor="middle" x="2132.45" y="-170.95" font-family="Helvetica,sans-Serif" font-size="11.00">Recover</text>
<polyline fill="none" stroke="#334155" points="2158.46,-157.8 2158.46,-193"/>
<text xml:space="preserve" text-anchor="middle" x="2171.72" y="-170.95" font-family="Helvetica,sans-Serif" font-size="11.00">1m</text>
<polyline fill="none" stroke="#334155" points="2184.98,-157.8 2184.98,-193"/>
<text xml:space="preserve" text-anchor="middle" x="2208.74" y="-170.95" font-family="Helvetica,sans-Serif" font-size="11.00">25 VUs</text>
<polyline fill="none" stroke="#334155" points="2232.5,-157.8 2232.5,-193"/>
<text xml:space="preserve" text-anchor="middle" x="2274.26" y="-170.95" font-family="Helvetica,sans-Serif" font-size="11.00">~100 req/wave</text>
</g>
<!-- ramp2 -->
<g id="node12" class="node">
<title>ramp2</title>
<path fill="#fde68a" stroke="#334155" d="M2361.02,-157C2361.02,-157 2551.1,-157 2551.1,-157 2557.1,-157 2563.1,-163 2563.1,-169 2563.1,-169 2563.1,-181 2563.1,-181 2563.1,-187 2557.1,-193 2551.1,-193 2551.1,-193 2361.02,-193 2361.02,-193 2355.02,-193 2349.02,-187 2349.02,-181 2349.02,-181 2349.02,-169 2349.02,-169 2349.02,-163 2355.02,-157 2361.02,-157"/>
<text xml:space="preserve" text-anchor="middle" x="2373.91" y="-170.95" font-family="Helvetica,sans-Serif" font-size="11.00">Ramp 2</text>
<polyline fill="none" stroke="#334155" points="2398.79,-157.8 2398.79,-193"/>
<text xml:space="preserve" text-anchor="middle" x="2413.18" y="-170.95" font-family="Helvetica,sans-Serif" font-size="11.00">30s</text>
<polyline fill="none" stroke="#334155" points="2427.56,-157.8 2427.56,-193"/>
<text xml:space="preserve" text-anchor="middle" x="2454.32" y="-170.95" font-family="Helvetica,sans-Serif" font-size="11.00">200 VUs</text>
<polyline fill="none" stroke="#334155" points="2481.08,-157.8 2481.08,-193"/>
<text xml:space="preserve" text-anchor="middle" x="2522.09" y="-170.95" font-family="Helvetica,sans-Serif" font-size="11.00">up to ~800 req</text>
</g>
<!-- hold2 -->
<g id="node13" class="node">
<title>hold2</title>
<path fill="#fcd34d" stroke="#334155" d="M2608.1,-157C2608.1,-157 2790.68,-157 2790.68,-157 2796.68,-157 2802.68,-163 2802.68,-169 2802.68,-169 2802.68,-181 2802.68,-181 2802.68,-187 2796.68,-193 2790.68,-193 2790.68,-193 2608.1,-193 2608.1,-193 2602.1,-193 2596.1,-187 2596.1,-181 2596.1,-181 2596.1,-169 2596.1,-169 2596.1,-163 2602.1,-157 2608.1,-157"/>
<text xml:space="preserve" text-anchor="middle" x="2617.61" y="-170.95" font-family="Helvetica,sans-Serif" font-size="11.00">Hold 2</text>
<polyline fill="none" stroke="#334155" points="2639.12,-157.8 2639.12,-193"/>
<text xml:space="preserve" text-anchor="middle" x="2652.38" y="-170.95" font-family="Helvetica,sans-Serif" font-size="11.00">1m</text>
<polyline fill="none" stroke="#334155" points="2665.64,-157.8 2665.64,-193"/>
<text xml:space="preserve" text-anchor="middle" x="2692.4" y="-170.95" font-family="Helvetica,sans-Serif" font-size="11.00">200 VUs</text>
<polyline fill="none" stroke="#334155" points="2719.16,-157.8 2719.16,-193"/>
<text xml:space="preserve" text-anchor="middle" x="2760.92" y="-170.95" font-family="Helvetica,sans-Serif" font-size="11.00">~800 req/wave</text>
</g>
<!-- rec2 -->
<g id="node14" class="node">
<title>rec2</title>
<path fill="#f1f5f9" stroke="#334155" d="M2847.68,-157C2847.68,-157 3033.26,-157 3033.26,-157 3039.26,-157 3045.26,-163 3045.26,-169 3045.26,-169 3045.26,-181 3045.26,-181 3045.26,-187 3039.26,-193 3033.26,-193 3033.26,-193 2847.68,-193 2847.68,-193 2841.68,-193 2835.68,-187 2835.68,-181 2835.68,-181 2835.68,-169 2835.68,-169 2835.68,-163 2841.68,-157 2847.68,-157"/>
<text xml:space="preserve" text-anchor="middle" x="2861.69" y="-170.95" font-family="Helvetica,sans-Serif" font-size="11.00">Recover</text>
<polyline fill="none" stroke="#334155" points="2887.7,-157.8 2887.7,-193"/>
<text xml:space="preserve" text-anchor="middle" x="2900.96" y="-170.95" font-family="Helvetica,sans-Serif" font-size="11.00">1m</text>
<polyline fill="none" stroke="#334155" points="2914.22,-157.8 2914.22,-193"/>
<text xml:space="preserve" text-anchor="middle" x="2937.98" y="-170.95" font-family="Helvetica,sans-Serif" font-size="11.00">25 VUs</text>
<polyline fill="none" stroke="#334155" points="2961.74,-157.8 2961.74,-193"/>
<text xml:space="preserve" text-anchor="middle" x="3003.5" y="-170.95" font-family="Helvetica,sans-Serif" font-size="11.00">~100 req/wave</text>
</g>
<!-- ramp3 -->
<g id="node15" class="node">
<title>ramp3</title>
<path fill="#fecaca" stroke="#334155" d="M3090.26,-157C3090.26,-157 3286.34,-157 3286.34,-157 3292.34,-157 3298.34,-163 3298.34,-169 3298.34,-169 3298.34,-181 3298.34,-181 3298.34,-187 3292.34,-193 3286.34,-193 3286.34,-193 3090.26,-193 3090.26,-193 3084.26,-193 3078.26,-187 3078.26,-181 3078.26,-181 3078.26,-169 3078.26,-169 3078.26,-163 3084.26,-157 3090.26,-157"/>
<text xml:space="preserve" text-anchor="middle" x="3103.14" y="-170.95" font-family="Helvetica,sans-Serif" font-size="11.00">Ramp 3</text>
<polyline fill="none" stroke="#334155" points="3128.03,-157.8 3128.03,-193"/>
<text xml:space="preserve" text-anchor="middle" x="3142.41" y="-170.95" font-family="Helvetica,sans-Serif" font-size="11.00">30s</text>
<polyline fill="none" stroke="#334155" points="3156.8,-157.8 3156.8,-193"/>
<text xml:space="preserve" text-anchor="middle" x="3183.56" y="-170.95" font-family="Helvetica,sans-Serif" font-size="11.00">400 VUs</text>
<polyline fill="none" stroke="#334155" points="3210.32,-157.8 3210.32,-193"/>
<text xml:space="preserve" text-anchor="middle" x="3254.33" y="-170.95" font-family="Helvetica,sans-Serif" font-size="11.00">up to ~1600 req</text>
</g>
<!-- hold3 -->
<g id="node16" class="node">
<title>hold3</title>
<path fill="#fca5a5" stroke="#334155" d="M3343.34,-157C3343.34,-157 3531.92,-157 3531.92,-157 3537.92,-157 3543.92,-163 3543.92,-169 3543.92,-169 3543.92,-181 3543.92,-181 3543.92,-187 3537.92,-193 3531.92,-193 3531.92,-193 3343.34,-193 3343.34,-193 3337.34,-193 3331.34,-187 3331.34,-181 3331.34,-181 3331.34,-169 3331.34,-169 3331.34,-163 3337.34,-157 3343.34,-157"/>
<text xml:space="preserve" text-anchor="middle" x="3352.85" y="-170.95" font-family="Helvetica,sans-Serif" font-size="11.00">Hold 3</text>
<polyline fill="none" stroke="#334155" points="3374.36,-157.8 3374.36,-193"/>
<text xml:space="preserve" text-anchor="middle" x="3387.62" y="-170.95" font-family="Helvetica,sans-Serif" font-size="11.00">1m</text>
<polyline fill="none" stroke="#334155" points="3400.88,-157.8 3400.88,-193"/>
<text xml:space="preserve" text-anchor="middle" x="3427.64" y="-170.95" font-family="Helvetica,sans-Serif" font-size="11.00">400 VUs</text>
<polyline fill="none" stroke="#334155" points="3454.4,-157.8 3454.4,-193"/>
<text xml:space="preserve" text-anchor="middle" x="3499.16" y="-170.95" font-family="Helvetica,sans-Serif" font-size="11.00">~1600 req/wave</text>
</g>
<!-- down -->
<g id="node17" class="node">
<title>down</title>
<path fill="#e2e8f0" stroke="#334155" d="M3588.92,-157C3588.92,-157 3753.5,-157 3753.5,-157 3759.5,-157 3765.5,-163 3765.5,-169 3765.5,-169 3765.5,-181 3765.5,-181 3765.5,-187 3759.5,-193 3753.5,-193 3753.5,-193 3588.92,-193 3588.92,-193 3582.92,-193 3576.92,-187 3576.92,-181 3576.92,-181 3576.92,-169 3576.92,-169 3576.92,-163 3582.92,-157 3588.92,-157"/>
<text xml:space="preserve" text-anchor="middle" x="3611.93" y="-170.83" font-family="Helvetica,sans-Serif" font-size="11.00">Ramp down</text>
<polyline fill="none" stroke="#334155" points="3646.94,-157.55 3646.94,-193"/>
<text xml:space="preserve" text-anchor="middle" x="3660.2" y="-170.83" font-family="Helvetica,sans-Serif" font-size="11.00">1m</text>
<polyline fill="none" stroke="#334155" points="3673.46,-157.55 3673.46,-193"/>
<text xml:space="preserve" text-anchor="middle" x="3694.22" y="-170.83" font-family="Helvetica,sans-Serif" font-size="11.00">0 VUs</text>
<polyline fill="none" stroke="#334155" points="3714.98,-157.55 3714.98,-193"/>
<text xml:space="preserve" text-anchor="middle" x="3740.24" y="-171.95" font-family="Helvetica,sans-Serif" font-size="11.00">→ 0 req</text>
</g>
<!-- regional -->
<g id="node18" class="node">
<title>regional</title>
<path fill="#ecfdf5" stroke="#334155" d="M1263.1,-17C1263.1,-17 1470.15,-17 1470.15,-17 1476.15,-17 1482.15,-23 1482.15,-29 1482.15,-29 1482.15,-41 1482.15,-41 1482.15,-47 1476.15,-53 1470.15,-53 1470.15,-53 1263.1,-53 1263.1,-53 1257.1,-53 1251.1,-47 1251.1,-41 1251.1,-41 1251.1,-29 1251.1,-29 1251.1,-23 1257.1,-17 1263.1,-17"/>
<text xml:space="preserve" text-anchor="middle" x="1301.11" y="-30.95" font-family="Helvetica,sans-Serif" font-size="11.00">regional_shoppers</text>
<polyline fill="none" stroke="#334155" points="1351.12,-17.8 1351.12,-53"/>
<text xml:space="preserve" text-anchor="middle" x="1374.88" y="-30.95" font-family="Helvetica,sans-Serif" font-size="11.00">30 VUs</text>
<polyline fill="none" stroke="#334155" points="1398.63,-17.8 1398.63,-53"/>
<text xml:space="preserve" text-anchor="middle" x="1440.39" y="-30.95" font-family="Helvetica,sans-Serif" font-size="11.00">~120 req/wave</text>
</g>
<!-- browser_actions -->
<g id="node19" class="node">
<title>browser_actions</title>
<path fill="#faf5ff" stroke="#334155" d="M1158.47,-74C1158.47,-74 1574.78,-74 1574.78,-74 1580.78,-74 1586.78,-80 1586.78,-86 1586.78,-86 1586.78,-98 1586.78,-98 1586.78,-104 1580.78,-110 1574.78,-110 1574.78,-110 1158.47,-110 1158.47,-110 1152.47,-110 1146.47,-104 1146.47,-98 1146.47,-98 1146.47,-86 1146.47,-86 1146.47,-80 1152.47,-74 1158.47,-74"/>
<text xml:space="preserve" text-anchor="middle" x="1194.98" y="-87.95" font-family="Helvetica,sans-Serif" font-size="11.00">storefront_actions</text>
<polyline fill="none" stroke="#334155" points="1243.49,-74.8 1243.49,-110"/>
<text xml:space="preserve" text-anchor="middle" x="1302.12" y="-87.95" font-family="Helvetica,sans-Serif" font-size="11.00">5 browser VUs × 10m</text>
<polyline fill="none" stroke="#334155" points="1360.76,-74.8 1360.76,-110"/>
<text xml:space="preserve" text-anchor="middle" x="1473.77" y="-87.95" font-family="Helvetica,sans-Serif" font-size="11.00">browser requests vary; Faro actions targeted</text>
</g>
</g>
</svg>
