<?xml version="1.0" encoding="UTF-8" standalone="no"?>
<!DOCTYPE svg PUBLIC "-//W3C//DTD SVG 1.1//EN"
 "http://www.w3.org/Graphics/SVG/1.1/DTD/svg11.dtd">
<!-- Generated by graphviz version 15.0.0 (20260523.1842)
 -->
<!-- Title: traffic_spike_request_cards Pages: 1 -->
<svg width="1703pt" height="219pt"
 viewBox="0.00 0.00 1703.00 219.00" xmlns="http://www.w3.org/2000/svg" xmlns:xlink="http://www.w3.org/1999/xlink">
<g id="graph0" class="graph" transform="scale(1 1) rotate(0) translate(4 214.62)">
<title>traffic_spike_request_cards</title>
<polygon fill="white" stroke="none" points="-4,4 -4,-214.62 1698.75,-214.62 1698.75,4 -4,4"/>
<text xml:space="preserve" text-anchor="middle" x="847.38" y="-185.72" font-family="Helvetica,sans-Serif" font-size="22.00">Traffic Spike Request Model</text>
<!-- warmup -->
<g id="node1" class="node">
<title>warmup</title>
<polygon fill="#f8fafc" stroke="none" points="198.62,-85 198.62,-112 346.38,-112 346.38,-85 198.62,-85"/>
<text xml:space="preserve" text-anchor="start" x="245.12" y="-93.7" font-family="Helvetica,sans-Serif" font-weight="bold" font-size="14.00">Warmup</text>
<text xml:space="preserve" text-anchor="start" x="242.88" y="-62.9" font-family="Helvetica,sans-Serif" font-weight="bold" font-size="18.00">25 VUs</text>
<text xml:space="preserve" text-anchor="start" x="227.88" y="-37" font-family="Helvetica,sans-Serif" font-size="14.00">~100 req/wave</text>
<text xml:space="preserve" text-anchor="start" x="204.62" y="-13" font-family="Helvetica,sans-Serif" font-size="10.00">cart 15 · checkout 5 · region 25</text>
<polygon fill="none" stroke="#64748b" points="197.62,-3 197.62,-113 347.38,-113 347.38,-3 197.62,-3"/>
</g>
<!-- spike1 -->
<g id="node2" class="node">
<title>spike1</title>
<polygon fill="#fee2e2" stroke="none" points="578,-86.88 578,-113.88 736.25,-113.88 736.25,-86.88 578,-86.88"/>
<text xml:space="preserve" text-anchor="start" x="633.5" y="-95.58" font-family="Helvetica,sans-Serif" font-weight="bold" font-size="14.00">Spike 1</text>
<text xml:space="preserve" text-anchor="start" x="614.75" y="-60.98" font-family="Helvetica,sans-Serif" font-weight="bold" font-size="22.00">100 VUs</text>
<text xml:space="preserve" text-anchor="start" x="610.62" y="-34.08" font-family="Helvetica,sans-Serif" font-weight="bold" font-size="14.00">~400 req/wave</text>
<text xml:space="preserve" text-anchor="start" x="584" y="-11.12" font-family="Helvetica,sans-Serif" font-size="10.00">cart 60 · checkout 20 · region 100</text>
<polygon fill="none" stroke="#ef4444" points="577,-1.12 577,-114.88 737.25,-114.88 737.25,-1.12 577,-1.12"/>
</g>
<!-- warmup&#45;&gt;spike1 -->
<g id="edge1" class="edge">
<title>warmup&#45;&gt;spike1</title>
<path fill="none" stroke="#94a3b8" d="M347.12,-58C347.12,-58 569.57,-58 569.57,-58"/>
<polygon fill="#94a3b8" stroke="#94a3b8" points="569.57,-60.1 575.57,-58 569.57,-55.9 569.57,-60.1"/>
</g>
<!-- recovery1 -->
<g id="node3" class="node">
<title>recovery1</title>
<polygon fill="#f8fafc" stroke="none" points="770.25,-85 770.25,-112 918,-112 918,-85 770.25,-85"/>
<text xml:space="preserve" text-anchor="start" x="813.75" y="-93.7" font-family="Helvetica,sans-Serif" font-weight="bold" font-size="14.00">Recovery</text>
<text xml:space="preserve" text-anchor="start" x="814.5" y="-62.9" font-family="Helvetica,sans-Serif" font-weight="bold" font-size="18.00">25 VUs</text>
<text xml:space="preserve" text-anchor="start" x="799.5" y="-37" font-family="Helvetica,sans-Serif" font-size="14.00">~100 req/wave</text>
<text xml:space="preserve" text-anchor="start" x="776.25" y="-13" font-family="Helvetica,sans-Serif" font-size="10.00">cart 15 · checkout 5 · region 25</text>
<polygon fill="none" stroke="#64748b" points="769.25,-3 769.25,-113 919,-113 919,-3 769.25,-3"/>
</g>
<!-- spike1&#45;&gt;recovery1 -->
<g id="edge2" class="edge">
<title>spike1&#45;&gt;recovery1</title>
<path fill="none" stroke="#94a3b8" d="M737.24,-58C737.24,-58 761.99,-58 761.99,-58"/>
<polygon fill="#94a3b8" stroke="#94a3b8" points="761.99,-60.1 767.99,-58 761.99,-55.9 761.99,-60.1"/>
</g>
<!-- spike2 -->
<g id="node4" class="node">
<title>spike2</title>
<polygon fill="#fecaca" stroke="none" points="952,-86.88 952,-113.88 1115.5,-113.88 1115.5,-86.88 952,-86.88"/>
<text xml:space="preserve" text-anchor="start" x="1010.12" y="-95.58" font-family="Helvetica,sans-Serif" font-weight="bold" font-size="14.00">Spike 2</text>
<text xml:space="preserve" text-anchor="start" x="991.38" y="-60.98" font-family="Helvetica,sans-Serif" font-weight="bold" font-size="22.00">200 VUs</text>
<text xml:space="preserve" text-anchor="start" x="987.25" y="-34.08" font-family="Helvetica,sans-Serif" font-weight="bold" font-size="14.00">~800 req/wave</text>
<text xml:space="preserve" text-anchor="start" x="958" y="-11.12" font-family="Helvetica,sans-Serif" font-size="10.00">cart 120 · checkout 40 · region 200</text>
<polygon fill="none" stroke="#dc2626" points="951,-1.12 951,-114.88 1116.5,-114.88 1116.5,-1.12 951,-1.12"/>
</g>
<!-- recovery1&#45;&gt;spike2 -->
<g id="edge3" class="edge">
<title>recovery1&#45;&gt;spike2</title>
<path fill="none" stroke="#94a3b8" d="M918.8,-58C918.8,-58 943.49,-58 943.49,-58"/>
<polygon fill="#94a3b8" stroke="#94a3b8" points="943.49,-60.1 949.49,-58 943.49,-55.9 943.49,-60.1"/>
</g>
<!-- recovery2 -->
<g id="node5" class="node">
<title>recovery2</title>
<polygon fill="#f8fafc" stroke="none" points="1149.5,-85 1149.5,-112 1297.25,-112 1297.25,-85 1149.5,-85"/>
<text xml:space="preserve" text-anchor="start" x="1193" y="-93.7" font-family="Helvetica,sans-Serif" font-weight="bold" font-size="14.00">Recovery</text>
<text xml:space="preserve" text-anchor="start" x="1193.75" y="-62.9" font-family="Helvetica,sans-Serif" font-weight="bold" font-size="18.00">25 VUs</text>
<text xml:space="preserve" text-anchor="start" x="1178.75" y="-37" font-family="Helvetica,sans-Serif" font-size="14.00">~100 req/wave</text>
<text xml:space="preserve" text-anchor="start" x="1155.5" y="-13" font-family="Helvetica,sans-Serif" font-size="10.00">cart 15 · checkout 5 · region 25</text>
<polygon fill="none" stroke="#64748b" points="1148.5,-3 1148.5,-113 1298.25,-113 1298.25,-3 1148.5,-3"/>
</g>
<!-- spike2&#45;&gt;recovery2 -->
<g id="edge4" class="edge">
<title>spike2&#45;&gt;recovery2</title>
<path fill="none" stroke="#94a3b8" d="M1116.37,-58C1116.37,-58 1141.27,-58 1141.27,-58"/>
<polygon fill="#94a3b8" stroke="#94a3b8" points="1141.27,-60.1 1147.27,-58 1141.27,-55.9 1141.27,-60.1"/>
</g>
<!-- spike3 -->
<g id="node6" class="node">
<title>spike3</title>
<polygon fill="#fca5a5" stroke="none" points="1331.25,-88 1331.25,-115 1494.75,-115 1494.75,-88 1331.25,-88"/>
<text xml:space="preserve" text-anchor="start" x="1389.38" y="-96.7" font-family="Helvetica,sans-Serif" font-weight="bold" font-size="14.00">Spike 3</text>
<text xml:space="preserve" text-anchor="start" x="1366.12" y="-60.2" font-family="Helvetica,sans-Serif" font-weight="bold" font-size="24.00">400 VUs</text>
<text xml:space="preserve" text-anchor="start" x="1362.75" y="-32.95" font-family="Helvetica,sans-Serif" font-weight="bold" font-size="14.00">~1600 req/wave</text>
<text xml:space="preserve" text-anchor="start" x="1337.25" y="-10" font-family="Helvetica,sans-Serif" font-size="10.00">cart 240 · checkout 80 · region 400</text>
<polygon fill="none" stroke="#991b1b" points="1330.25,0 1330.25,-116 1495.75,-116 1495.75,0 1330.25,0"/>
</g>
<!-- recovery2&#45;&gt;spike3 -->
<g id="edge5" class="edge">
<title>recovery2&#45;&gt;spike3</title>
<path fill="none" stroke="#94a3b8" d="M1298.05,-58C1298.05,-58 1322.74,-58 1322.74,-58"/>
<polygon fill="#94a3b8" stroke="#94a3b8" points="1322.74,-60.1 1328.74,-58 1322.74,-55.9 1322.74,-60.1"/>
</g>
<!-- rampdown -->
<g id="node7" class="node">
<title>rampdown</title>
<polygon fill="#f8fafc" stroke="none" points="1528.75,-85 1528.75,-112 1693.75,-112 1693.75,-85 1528.75,-85"/>
<text xml:space="preserve" text-anchor="start" x="1572.25" y="-93.7" font-family="Helvetica,sans-Serif" font-weight="bold" font-size="14.00">Ramp down</text>
<text xml:space="preserve" text-anchor="start" x="1586.5" y="-62.9" font-family="Helvetica,sans-Serif" font-weight="bold" font-size="18.00">0 VUs</text>
<text xml:space="preserve" text-anchor="start" x="1578.25" y="-37" font-family="Helvetica,sans-Serif" font-size="14.00">decreasing</text>
<text xml:space="preserve" text-anchor="start" x="1534.75" y="-13" font-family="Helvetica,sans-Serif" font-size="10.00">counters decrease with active VUs</text>
<polygon fill="none" stroke="#64748b" points="1527.75,-3 1527.75,-113 1694.75,-113 1694.75,-3 1527.75,-3"/>
</g>
<!-- spike3&#45;&gt;rampdown -->
<g id="edge6" class="edge">
<title>spike3&#45;&gt;rampdown</title>
<path fill="none" stroke="#94a3b8" d="M1495.64,-58C1495.64,-58 1520.27,-58 1520.27,-58"/>
<polygon fill="#94a3b8" stroke="#94a3b8" points="1520.27,-60.1 1526.27,-58 1520.27,-55.9 1520.27,-60.1"/>
</g>
<!-- legend -->
<g id="node8" class="node">
<title>legend</title>
<text xml:space="preserve" text-anchor="start" x="4" y="-163.82" font-family="Helvetica,sans-Serif" font-weight="bold" font-size="14.00">Config:</text>
<text xml:space="preserve" text-anchor="start" x="51.25" y="-163.82" font-family="Helvetica,sans-Serif" font-size="14.00"> base 100, multiplier 2, regional 30 VUs, storefront actions 5 browser VUs for 10m</text>
<text xml:space="preserve" text-anchor="start" x="4" y="-144.88" font-family="Helvetica,sans-Serif" font-size="10.00">browser 3 · cart_builder 4 · account_manager 4 · sale_hunter 4 · checkout 5; actual totals depend on completed iterations.</text>
</g>
</g>
</svg>
