<?xml version="1.0" encoding="UTF-8" standalone="no"?>
<!DOCTYPE svg PUBLIC "-//W3C//DTD SVG 1.1//EN"
 "http://www.w3.org/Graphics/SVG/1.1/DTD/svg11.dtd">
<!-- Generated by graphviz version 15.0.0 (20260523.1842)
 -->
<!-- Title: traffic_spike_request_model Pages: 1 -->
<svg width="3235pt" height="396pt"
 viewBox="0.00 0.00 3235.00 396.00" xmlns="http://www.w3.org/2000/svg" xmlns:xlink="http://www.w3.org/1999/xlink">
<g id="graph0" class="graph" transform="scale(1 1) rotate(0) translate(4 391.5)">
<title>traffic_spike_request_model</title>
<polygon fill="white" stroke="none" points="-4,4 -4,-391.5 3231.25,-391.5 3231.25,4 -4,4"/>
<text xml:space="preserve" text-anchor="middle" x="1613.62" y="-362.6" font-family="Helvetica,sans-Serif" font-size="22.00">Traffic Spike Request and Counter Model</text>
<g id="clust1" class="cluster">
<title>cluster_personas</title>
<path fill="none" stroke="#cbd5e1" stroke-dasharray="5,2" d="M20,-8C20,-8 803.62,-8 803.62,-8 809.62,-8 815.62,-14 815.62,-20 815.62,-20 815.62,-108 815.62,-108 815.62,-114 809.62,-120 803.62,-120 803.62,-120 20,-120 20,-120 14,-120 8,-114 8,-108 8,-108 8,-20 8,-20 8,-14 14,-8 20,-8"/>
<text xml:space="preserve" text-anchor="middle" x="411.81" y="-100.8" font-family="Helvetica,sans-Serif" font-size="16.00">Per Completed User Iteration</text>
</g>
<g id="clust2" class="cluster">
<title>cluster_stages</title>
<path fill="none" stroke="#cbd5e1" stroke-dasharray="5,2" d="M1354.25,-224C1354.25,-224 3207.25,-224 3207.25,-224 3213.25,-224 3219.25,-230 3219.25,-236 3219.25,-236 3219.25,-337 3219.25,-337 3219.25,-343 3213.25,-349 3207.25,-349 3207.25,-349 1354.25,-349 1354.25,-349 1348.25,-349 1342.25,-343 1342.25,-337 1342.25,-337 1342.25,-236 1342.25,-236 1342.25,-230 1348.25,-224 1354.25,-224"/>
<text xml:space="preserve" text-anchor="middle" x="2280.75" y="-329.8" font-family="Helvetica,sans-Serif" font-size="16.00">Expected Per Completed Wave</text>
</g>
<g id="clust3" class="cluster">
<title>cluster_parallel</title>
<path fill="none" stroke="#cbd5e1" stroke-dasharray="5,2" d="M1279.5,-38C1279.5,-38 1543.75,-38 1543.75,-38 1549.75,-38 1555.75,-44 1555.75,-50 1555.75,-50 1555.75,-204 1555.75,-204 1555.75,-210 1549.75,-216 1543.75,-216 1543.75,-216 1279.5,-216 1279.5,-216 1273.5,-216 1267.5,-210 1267.5,-204 1267.5,-204 1267.5,-50 1267.5,-50 1267.5,-44 1273.5,-38 1279.5,-38"/>
<text xml:space="preserve" text-anchor="middle" x="1411.62" y="-196.8" font-family="Helvetica,sans-Serif" font-size="16.00">Parallel Scenarios In Combined Script</text>
</g>
<!-- note -->
<g id="node1" class="node">
<title>note</title>
<polygon fill="#fff7ed" stroke="#f97316" points="865.75,-187.5 615,-187.5 615,-128.5 871.75,-128.5 871.75,-181.5 865.75,-187.5"/>
<polyline fill="none" stroke="#f97316" points="865.75,-187.5 865.75,-181.5"/>
<polyline fill="none" stroke="#f97316" points="871.75,-181.5 865.75,-181.5"/>
<text xml:space="preserve" text-anchor="middle" x="743.38" y="-172.1" font-family="Helvetica,sans-Serif" font-size="12.00">Totals are not fixed per stage.</text>
<text xml:space="preserve" text-anchor="middle" x="743.38" y="-159.35" font-family="Helvetica,sans-Serif" font-size="12.00">ramping&#45;vus loops each active VU.</text>
<text xml:space="preserve" text-anchor="middle" x="743.38" y="-146.6" font-family="Helvetica,sans-Serif" font-size="12.00">Actual totals depend on response time,</text>
<text xml:space="preserve" text-anchor="middle" x="743.38" y="-133.85" font-family="Helvetica,sans-Serif" font-size="12.00">persona sleep time, and completed iterations.</text>
</g>
<!-- avg -->
<g id="node2" class="node">
<title>avg</title>
<polygon fill="#ecfeff" stroke="#0891b2" points="1146.5,-146.12 1006.75,-146.12 1006.75,-142.12 1002.75,-142.12 1002.75,-138.12 1006.75,-138.12 1006.75,-107.88 1002.75,-107.88 1002.75,-103.88 1006.75,-103.88 1006.75,-99.88 1146.5,-99.88 1146.5,-146.12"/>
<polyline fill="none" stroke="#0891b2" points="1006.75,-142.12 1010.75,-142.12 1010.75,-138.12 1006.75,-138.12"/>
<polyline fill="none" stroke="#0891b2" points="1006.75,-107.88 1010.75,-107.88 1010.75,-103.88 1006.75,-103.88"/>
<text xml:space="preserve" text-anchor="middle" x="1076.62" y="-130.72" font-family="Helvetica,sans-Serif" font-size="12.00">Average per completed</text>
<text xml:space="preserve" text-anchor="middle" x="1076.62" y="-117.97" font-family="Helvetica,sans-Serif" font-size="12.00">traffic&#45;spike iteration</text>
<text xml:space="preserve" text-anchor="middle" x="1076.62" y="-105.22" font-family="Helvetica,sans-Serif" font-size="12.00">4 requests / wave</text>
</g>
<!-- note&#45;&gt;avg -->
<g id="edge14" class="edge">
<title>note&#45;&gt;avg</title>
<path fill="none" stroke="#475569" d="M871.97,-144.52C914.14,-140.06 959.79,-135.24 997.16,-131.29"/>
<polygon fill="#475569" stroke="#475569" points="997.31,-134.09 1004.97,-130.47 996.72,-128.52 997.31,-134.09"/>
</g>
<!-- warmup -->
<g id="node8" class="node">
<title>warmup</title>
<path fill="#f1f5f9" stroke="#334155" d="M1460,-316.25C1460,-316.25 1362.25,-316.25 1362.25,-316.25 1356.25,-316.25 1350.25,-310.25 1350.25,-304.25 1350.25,-304.25 1350.25,-243.75 1350.25,-243.75 1350.25,-237.75 1356.25,-231.75 1362.25,-231.75 1362.25,-231.75 1460,-231.75 1460,-231.75 1466,-231.75 1472,-237.75 1472,-243.75 1472,-243.75 1472,-304.25 1472,-304.25 1472,-310.25 1466,-316.25 1460,-316.25"/>
<text xml:space="preserve" text-anchor="middle" x="1411.12" y="-300.85" font-family="Helvetica,sans-Serif" font-size="12.00">Warmup / Recovery</text>
<text xml:space="preserve" text-anchor="middle" x="1411.12" y="-288.1" font-family="Helvetica,sans-Serif" font-size="12.00">1m, 25 VUs</text>
<text xml:space="preserve" text-anchor="middle" x="1411.12" y="-275.35" font-family="Helvetica,sans-Serif" font-size="12.00">~100 requests</text>
<text xml:space="preserve" text-anchor="middle" x="1411.12" y="-262.6" font-family="Helvetica,sans-Serif" font-size="12.00">15 cart updates</text>
<text xml:space="preserve" text-anchor="middle" x="1411.12" y="-249.85" font-family="Helvetica,sans-Serif" font-size="12.00">5 checkout attempts</text>
<text xml:space="preserve" text-anchor="middle" x="1411.12" y="-237.1" font-family="Helvetica,sans-Serif" font-size="12.00">25 region changes</text>
</g>
<!-- avg&#45;&gt;warmup -->
<g id="edge15" class="edge">
<title>avg&#45;&gt;warmup</title>
<path fill="none" stroke="#475569" d="M1117.49,-146.49C1155.31,-168.23 1214.15,-200.62 1267.5,-224 1291.05,-234.32 1317.46,-244.06 1341.1,-252.16"/>
<polygon fill="#475569" stroke="#475569" points="1340.11,-254.78 1348.58,-254.7 1341.9,-249.48 1340.11,-254.78"/>
<text xml:space="preserve" text-anchor="middle" x="1211" y="-215.92" font-family="Helvetica,sans-Serif" font-size="11.00">stage estimates</text>
</g>
<!-- regional -->
<g id="node18" class="node">
<title>regional</title>
<path fill="#ecfdf5" stroke="#334155" d="M1500.5,-92.12C1500.5,-92.12 1321.75,-92.12 1321.75,-92.12 1315.75,-92.12 1309.75,-86.12 1309.75,-80.12 1309.75,-80.12 1309.75,-57.88 1309.75,-57.88 1309.75,-51.88 1315.75,-45.88 1321.75,-45.88 1321.75,-45.88 1500.5,-45.88 1500.5,-45.88 1506.5,-45.88 1512.5,-51.88 1512.5,-57.88 1512.5,-57.88 1512.5,-80.12 1512.5,-80.12 1512.5,-86.12 1506.5,-92.12 1500.5,-92.12"/>
<text xml:space="preserve" text-anchor="middle" x="1411.12" y="-76.72" font-family="Helvetica,sans-Serif" font-size="12.00">regional_shoppers</text>
<text xml:space="preserve" text-anchor="middle" x="1411.12" y="-63.98" font-family="Helvetica,sans-Serif" font-size="12.00">30 VUs</text>
<text xml:space="preserve" text-anchor="middle" x="1411.12" y="-51.23" font-family="Helvetica,sans-Serif" font-size="12.00">~4 requests per completed iteration</text>
</g>
<!-- avg&#45;&gt;regional -->
<g id="edge16" class="edge">
<title>avg&#45;&gt;regional</title>
<path fill="none" stroke="#475569" d="M1146.92,-111.75C1191.18,-104.56 1249.52,-95.08 1300.03,-86.88"/>
<polygon fill="#475569" stroke="#475569" points="1300.43,-89.65 1307.87,-85.61 1299.53,-84.13 1300.43,-89.65"/>
<text xml:space="preserve" text-anchor="middle" x="1211" y="-108.59" font-family="Helvetica,sans-Serif" font-size="11.00">parallel load</text>
</g>
<!-- browser -->
<g id="node3" class="node">
<title>browser</title>
<path fill="#eef2ff" stroke="#334155" d="M75.5,-75.12C75.5,-75.12 28,-75.12 28,-75.12 22,-75.12 16,-69.12 16,-63.12 16,-63.12 16,-40.88 16,-40.88 16,-34.88 22,-28.88 28,-28.88 28,-28.88 75.5,-28.88 75.5,-28.88 81.5,-28.88 87.5,-34.88 87.5,-40.88 87.5,-40.88 87.5,-63.12 87.5,-63.12 87.5,-69.12 81.5,-75.12 75.5,-75.12"/>
<text xml:space="preserve" text-anchor="middle" x="51.75" y="-59.73" font-family="Helvetica,sans-Serif" font-size="12.00">browser</text>
<text xml:space="preserve" text-anchor="middle" x="51.75" y="-46.98" font-family="Helvetica,sans-Serif" font-size="12.00">3 requests</text>
<text xml:space="preserve" text-anchor="middle" x="51.75" y="-34.23" font-family="Helvetica,sans-Serif" font-size="12.00">region +1</text>
</g>
<!-- cart_builder -->
<g id="node4" class="node">
<title>cart_builder</title>
<path fill="#f0fdf4" stroke="#334155" d="M228.25,-81.5C228.25,-81.5 154.5,-81.5 154.5,-81.5 148.5,-81.5 142.5,-75.5 142.5,-69.5 142.5,-69.5 142.5,-34.5 142.5,-34.5 142.5,-28.5 148.5,-22.5 154.5,-22.5 154.5,-22.5 228.25,-22.5 228.25,-22.5 234.25,-22.5 240.25,-28.5 240.25,-34.5 240.25,-34.5 240.25,-69.5 240.25,-69.5 240.25,-75.5 234.25,-81.5 228.25,-81.5"/>
<text xml:space="preserve" text-anchor="middle" x="191.38" y="-66.1" font-family="Helvetica,sans-Serif" font-size="12.00">cart_builder</text>
<text xml:space="preserve" text-anchor="middle" x="191.38" y="-53.35" font-family="Helvetica,sans-Serif" font-size="12.00">4 requests</text>
<text xml:space="preserve" text-anchor="middle" x="191.38" y="-40.6" font-family="Helvetica,sans-Serif" font-size="12.00">region +1</text>
<text xml:space="preserve" text-anchor="middle" x="191.38" y="-27.85" font-family="Helvetica,sans-Serif" font-size="12.00">cart updates +1</text>
</g>
<!-- browser&#45;&gt;cart_builder -->
<!-- account_manager -->
<g id="node5" class="node">
<title>account_manager</title>
<path fill="#f8fafc" stroke="#334155" d="M395.25,-75.12C395.25,-75.12 307.25,-75.12 307.25,-75.12 301.25,-75.12 295.25,-69.12 295.25,-63.12 295.25,-63.12 295.25,-40.88 295.25,-40.88 295.25,-34.88 301.25,-28.88 307.25,-28.88 307.25,-28.88 395.25,-28.88 395.25,-28.88 401.25,-28.88 407.25,-34.88 407.25,-40.88 407.25,-40.88 407.25,-63.12 407.25,-63.12 407.25,-69.12 401.25,-75.12 395.25,-75.12"/>
<text xml:space="preserve" text-anchor="middle" x="351.25" y="-59.73" font-family="Helvetica,sans-Serif" font-size="12.00">account_manager</text>
<text xml:space="preserve" text-anchor="middle" x="351.25" y="-46.98" font-family="Helvetica,sans-Serif" font-size="12.00">4 requests</text>
<text xml:space="preserve" text-anchor="middle" x="351.25" y="-34.23" font-family="Helvetica,sans-Serif" font-size="12.00">region +1</text>
</g>
<!-- cart_builder&#45;&gt;account_manager -->
<!-- sale_hunter -->
<g id="node6" class="node">
<title>sale_hunter</title>
<path fill="#fefce8" stroke="#334155" d="M548,-81.5C548,-81.5 474.25,-81.5 474.25,-81.5 468.25,-81.5 462.25,-75.5 462.25,-69.5 462.25,-69.5 462.25,-34.5 462.25,-34.5 462.25,-28.5 468.25,-22.5 474.25,-22.5 474.25,-22.5 548,-22.5 548,-22.5 554,-22.5 560,-28.5 560,-34.5 560,-34.5 560,-69.5 560,-69.5 560,-75.5 554,-81.5 548,-81.5"/>
<text xml:space="preserve" text-anchor="middle" x="511.12" y="-66.1" font-family="Helvetica,sans-Serif" font-size="12.00">sale_hunter</text>
<text xml:space="preserve" text-anchor="middle" x="511.12" y="-53.35" font-family="Helvetica,sans-Serif" font-size="12.00">4 requests</text>
<text xml:space="preserve" text-anchor="middle" x="511.12" y="-40.6" font-family="Helvetica,sans-Serif" font-size="12.00">region +1</text>
<text xml:space="preserve" text-anchor="middle" x="511.12" y="-27.85" font-family="Helvetica,sans-Serif" font-size="12.00">cart updates +1</text>
</g>
<!-- account_manager&#45;&gt;sale_hunter -->
<!-- checkout -->
<g id="node7" class="node">
<title>checkout</title>
<path fill="#fef2f2" stroke="#334155" d="M795.62,-87.88C795.62,-87.88 691.12,-87.88 691.12,-87.88 685.12,-87.88 679.12,-81.88 679.12,-75.88 679.12,-75.88 679.12,-28.12 679.12,-28.12 679.12,-22.12 685.12,-16.12 691.12,-16.12 691.12,-16.12 795.62,-16.12 795.62,-16.12 801.62,-16.12 807.62,-22.12 807.62,-28.12 807.62,-28.12 807.62,-75.88 807.62,-75.88 807.62,-81.88 801.62,-87.88 795.62,-87.88"/>
<text xml:space="preserve" text-anchor="middle" x="743.38" y="-72.47" font-family="Helvetica,sans-Serif" font-size="12.00">checkout</text>
<text xml:space="preserve" text-anchor="middle" x="743.38" y="-59.73" font-family="Helvetica,sans-Serif" font-size="12.00">5 requests</text>
<text xml:space="preserve" text-anchor="middle" x="743.38" y="-46.98" font-family="Helvetica,sans-Serif" font-size="12.00">region +1</text>
<text xml:space="preserve" text-anchor="middle" x="743.38" y="-34.23" font-family="Helvetica,sans-Serif" font-size="12.00">cart updates +1</text>
<text xml:space="preserve" text-anchor="middle" x="743.38" y="-21.48" font-family="Helvetica,sans-Serif" font-size="12.00">checkout attempts +1</text>
</g>
<!-- sale_hunter&#45;&gt;checkout -->
<!-- checkout&#45;&gt;avg -->
<g id="edge17" class="edge">
<title>checkout&#45;&gt;avg</title>
<path fill="none" stroke="#475569" d="M807.85,-65.61C861.79,-77.17 939.45,-93.81 997.26,-106.2"/>
<polygon fill="#475569" stroke="#475569" points="996.47,-108.9 1004.88,-107.84 997.64,-103.42 996.47,-108.9"/>
<text xml:space="preserve" text-anchor="middle" x="939.25" y="-103.57" font-family="Helvetica,sans-Serif" font-size="11.00">persona average</text>
</g>
<!-- ramp1 -->
<g id="node9" class="node">
<title>ramp1</title>
<path fill="#dbeafe" stroke="#334155" d="M1719.25,-316.25C1719.25,-316.25 1614.75,-316.25 1614.75,-316.25 1608.75,-316.25 1602.75,-310.25 1602.75,-304.25 1602.75,-304.25 1602.75,-243.75 1602.75,-243.75 1602.75,-237.75 1608.75,-231.75 1614.75,-231.75 1614.75,-231.75 1719.25,-231.75 1719.25,-231.75 1725.25,-231.75 1731.25,-237.75 1731.25,-243.75 1731.25,-243.75 1731.25,-304.25 1731.25,-304.25 1731.25,-310.25 1725.25,-316.25 1719.25,-316.25"/>
<text xml:space="preserve" text-anchor="middle" x="1667" y="-300.85" font-family="Helvetica,sans-Serif" font-size="12.00">Ramp to Spike 1</text>
<text xml:space="preserve" text-anchor="middle" x="1667" y="-288.1" font-family="Helvetica,sans-Serif" font-size="12.00">30s, 100 VUs</text>
<text xml:space="preserve" text-anchor="middle" x="1667" y="-275.35" font-family="Helvetica,sans-Serif" font-size="12.00">up to ~400 requests</text>
<text xml:space="preserve" text-anchor="middle" x="1667" y="-262.6" font-family="Helvetica,sans-Serif" font-size="12.00">60 cart updates</text>
<text xml:space="preserve" text-anchor="middle" x="1667" y="-249.85" font-family="Helvetica,sans-Serif" font-size="12.00">20 checkout attempts</text>
<text xml:space="preserve" text-anchor="middle" x="1667" y="-237.1" font-family="Helvetica,sans-Serif" font-size="12.00">100 region changes</text>
</g>
<!-- warmup&#45;&gt;ramp1 -->
<g id="edge5" class="edge">
<title>warmup&#45;&gt;ramp1</title>
<path fill="none" stroke="#475569" d="M1472.29,-274C1508.53,-274 1554.93,-274 1593.23,-274"/>
<polygon fill="#475569" stroke="#475569" points="1592.76,-276.8 1600.76,-274 1592.76,-271.2 1592.76,-276.8"/>
</g>
<!-- hold1 -->
<g id="node10" class="node">
<title>hold1</title>
<path fill="#bfdbfe" stroke="#334155" d="M1903.5,-316.25C1903.5,-316.25 1798.25,-316.25 1798.25,-316.25 1792.25,-316.25 1786.25,-310.25 1786.25,-304.25 1786.25,-304.25 1786.25,-243.75 1786.25,-243.75 1786.25,-237.75 1792.25,-231.75 1798.25,-231.75 1798.25,-231.75 1903.5,-231.75 1903.5,-231.75 1909.5,-231.75 1915.5,-237.75 1915.5,-243.75 1915.5,-243.75 1915.5,-304.25 1915.5,-304.25 1915.5,-310.25 1909.5,-316.25 1903.5,-316.25"/>
<text xml:space="preserve" text-anchor="middle" x="1850.88" y="-300.85" font-family="Helvetica,sans-Serif" font-size="12.00">Hold Spike 1</text>
<text xml:space="preserve" text-anchor="middle" x="1850.88" y="-288.1" font-family="Helvetica,sans-Serif" font-size="12.00">1m, 100 VUs</text>
<text xml:space="preserve" text-anchor="middle" x="1850.88" y="-275.35" font-family="Helvetica,sans-Serif" font-size="12.00">~400 requests / wave</text>
<text xml:space="preserve" text-anchor="middle" x="1850.88" y="-262.6" font-family="Helvetica,sans-Serif" font-size="12.00">60 cart updates</text>
<text xml:space="preserve" text-anchor="middle" x="1850.88" y="-249.85" font-family="Helvetica,sans-Serif" font-size="12.00">20 checkout attempts</text>
<text xml:space="preserve" text-anchor="middle" x="1850.88" y="-237.1" font-family="Helvetica,sans-Serif" font-size="12.00">100 region changes</text>
</g>
<!-- ramp1&#45;&gt;hold1 -->
<g id="edge6" class="edge">
<title>ramp1&#45;&gt;hold1</title>
<path fill="none" stroke="#475569" d="M1731.61,-274C1746.2,-274 1761.83,-274 1776.78,-274"/>
<polygon fill="#475569" stroke="#475569" points="1776.48,-276.8 1784.48,-274 1776.48,-271.2 1776.48,-276.8"/>
</g>
<!-- recovery1 -->
<g id="node11" class="node">
<title>recovery1</title>
<path fill="#f1f5f9" stroke="#334155" d="M2087.75,-316.25C2087.75,-316.25 1982.5,-316.25 1982.5,-316.25 1976.5,-316.25 1970.5,-310.25 1970.5,-304.25 1970.5,-304.25 1970.5,-243.75 1970.5,-243.75 1970.5,-237.75 1976.5,-231.75 1982.5,-231.75 1982.5,-231.75 2087.75,-231.75 2087.75,-231.75 2093.75,-231.75 2099.75,-237.75 2099.75,-243.75 2099.75,-243.75 2099.75,-304.25 2099.75,-304.25 2099.75,-310.25 2093.75,-316.25 2087.75,-316.25"/>
<text xml:space="preserve" text-anchor="middle" x="2035.12" y="-300.85" font-family="Helvetica,sans-Serif" font-size="12.00">Recovery</text>
<text xml:space="preserve" text-anchor="middle" x="2035.12" y="-288.1" font-family="Helvetica,sans-Serif" font-size="12.00">1m, 25 VUs</text>
<text xml:space="preserve" text-anchor="middle" x="2035.12" y="-275.35" font-family="Helvetica,sans-Serif" font-size="12.00">~100 requests / wave</text>
<text xml:space="preserve" text-anchor="middle" x="2035.12" y="-262.6" font-family="Helvetica,sans-Serif" font-size="12.00">15 cart updates</text>
<text xml:space="preserve" text-anchor="middle" x="2035.12" y="-249.85" font-family="Helvetica,sans-Serif" font-size="12.00">5 checkout attempts</text>
<text xml:space="preserve" text-anchor="middle" x="2035.12" y="-237.1" font-family="Helvetica,sans-Serif" font-size="12.00">25 region changes</text>
</g>
<!-- hold1&#45;&gt;recovery1 -->
<g id="edge7" class="edge">
<title>hold1&#45;&gt;recovery1</title>
<path fill="none" stroke="#475569" d="M1915.87,-274C1930.48,-274 1946.12,-274 1961.07,-274"/>
<polygon fill="#475569" stroke="#475569" points="1960.77,-276.8 1968.77,-274 1960.77,-271.2 1960.77,-276.8"/>
</g>
<!-- ramp2 -->
<g id="node12" class="node">
<title>ramp2</title>
<path fill="#fde68a" stroke="#334155" d="M2271.25,-316.25C2271.25,-316.25 2166.75,-316.25 2166.75,-316.25 2160.75,-316.25 2154.75,-310.25 2154.75,-304.25 2154.75,-304.25 2154.75,-243.75 2154.75,-243.75 2154.75,-237.75 2160.75,-231.75 2166.75,-231.75 2166.75,-231.75 2271.25,-231.75 2271.25,-231.75 2277.25,-231.75 2283.25,-237.75 2283.25,-243.75 2283.25,-243.75 2283.25,-304.25 2283.25,-304.25 2283.25,-310.25 2277.25,-316.25 2271.25,-316.25"/>
<text xml:space="preserve" text-anchor="middle" x="2219" y="-300.85" font-family="Helvetica,sans-Serif" font-size="12.00">Ramp to Spike 2</text>
<text xml:space="preserve" text-anchor="middle" x="2219" y="-288.1" font-family="Helvetica,sans-Serif" font-size="12.00">30s, 150 VUs</text>
<text xml:space="preserve" text-anchor="middle" x="2219" y="-275.35" font-family="Helvetica,sans-Serif" font-size="12.00">up to ~600 requests</text>
<text xml:space="preserve" text-anchor="middle" x="2219" y="-262.6" font-family="Helvetica,sans-Serif" font-size="12.00">90 cart updates</text>
<text xml:space="preserve" text-anchor="middle" x="2219" y="-249.85" font-family="Helvetica,sans-Serif" font-size="12.00">30 checkout attempts</text>
<text xml:space="preserve" text-anchor="middle" x="2219" y="-237.1" font-family="Helvetica,sans-Serif" font-size="12.00">150 region changes</text>
</g>
<!-- recovery1&#45;&gt;ramp2 -->
<g id="edge8" class="edge">
<title>recovery1&#45;&gt;ramp2</title>
<path fill="none" stroke="#475569" d="M2100.25,-274C2114.81,-274 2130.39,-274 2145.29,-274"/>
<polygon fill="#475569" stroke="#475569" points="2144.94,-276.8 2152.94,-274 2144.94,-271.2 2144.94,-276.8"/>
</g>
<!-- hold2 -->
<g id="node13" class="node">
<title>hold2</title>
<path fill="#fcd34d" stroke="#334155" d="M2455.5,-316.25C2455.5,-316.25 2350.25,-316.25 2350.25,-316.25 2344.25,-316.25 2338.25,-310.25 2338.25,-304.25 2338.25,-304.25 2338.25,-243.75 2338.25,-243.75 2338.25,-237.75 2344.25,-231.75 2350.25,-231.75 2350.25,-231.75 2455.5,-231.75 2455.5,-231.75 2461.5,-231.75 2467.5,-237.75 2467.5,-243.75 2467.5,-243.75 2467.5,-304.25 2467.5,-304.25 2467.5,-310.25 2461.5,-316.25 2455.5,-316.25"/>
<text xml:space="preserve" text-anchor="middle" x="2402.88" y="-300.85" font-family="Helvetica,sans-Serif" font-size="12.00">Hold Spike 2</text>
<text xml:space="preserve" text-anchor="middle" x="2402.88" y="-288.1" font-family="Helvetica,sans-Serif" font-size="12.00">1m, 150 VUs</text>
<text xml:space="preserve" text-anchor="middle" x="2402.88" y="-275.35" font-family="Helvetica,sans-Serif" font-size="12.00">~600 requests / wave</text>
<text xml:space="preserve" text-anchor="middle" x="2402.88" y="-262.6" font-family="Helvetica,sans-Serif" font-size="12.00">90 cart updates</text>
<text xml:space="preserve" text-anchor="middle" x="2402.88" y="-249.85" font-family="Helvetica,sans-Serif" font-size="12.00">30 checkout attempts</text>
<text xml:space="preserve" text-anchor="middle" x="2402.88" y="-237.1" font-family="Helvetica,sans-Serif" font-size="12.00">150 region changes</text>
</g>
<!-- ramp2&#45;&gt;hold2 -->
<g id="edge9" class="edge">
<title>ramp2&#45;&gt;hold2</title>
<path fill="none" stroke="#475569" d="M2283.61,-274C2298.2,-274 2313.83,-274 2328.78,-274"/>
<polygon fill="#475569" stroke="#475569" points="2328.48,-276.8 2336.48,-274 2328.48,-271.2 2328.48,-276.8"/>
</g>
<!-- recovery2 -->
<g id="node14" class="node">
<title>recovery2</title>
<path fill="#f1f5f9" stroke="#334155" d="M2639.75,-316.25C2639.75,-316.25 2534.5,-316.25 2534.5,-316.25 2528.5,-316.25 2522.5,-310.25 2522.5,-304.25 2522.5,-304.25 2522.5,-243.75 2522.5,-243.75 2522.5,-237.75 2528.5,-231.75 2534.5,-231.75 2534.5,-231.75 2639.75,-231.75 2639.75,-231.75 2645.75,-231.75 2651.75,-237.75 2651.75,-243.75 2651.75,-243.75 2651.75,-304.25 2651.75,-304.25 2651.75,-310.25 2645.75,-316.25 2639.75,-316.25"/>
<text xml:space="preserve" text-anchor="middle" x="2587.12" y="-300.85" font-family="Helvetica,sans-Serif" font-size="12.00">Recovery</text>
<text xml:space="preserve" text-anchor="middle" x="2587.12" y="-288.1" font-family="Helvetica,sans-Serif" font-size="12.00">1m, 25 VUs</text>
<text xml:space="preserve" text-anchor="middle" x="2587.12" y="-275.35" font-family="Helvetica,sans-Serif" font-size="12.00">~100 requests / wave</text>
<text xml:space="preserve" text-anchor="middle" x="2587.12" y="-262.6" font-family="Helvetica,sans-Serif" font-size="12.00">15 cart updates</text>
<text xml:space="preserve" text-anchor="middle" x="2587.12" y="-249.85" font-family="Helvetica,sans-Serif" font-size="12.00">5 checkout attempts</text>
<text xml:space="preserve" text-anchor="middle" x="2587.12" y="-237.1" font-family="Helvetica,sans-Serif" font-size="12.00">25 region changes</text>
</g>
<!-- hold2&#45;&gt;recovery2 -->
<g id="edge10" class="edge">
<title>hold2&#45;&gt;recovery2</title>
<path fill="none" stroke="#475569" d="M2467.87,-274C2482.48,-274 2498.12,-274 2513.07,-274"/>
<polygon fill="#475569" stroke="#475569" points="2512.77,-276.8 2520.77,-274 2512.77,-271.2 2512.77,-276.8"/>
</g>
<!-- ramp3 -->
<g id="node15" class="node">
<title>ramp3</title>
<path fill="#fecaca" stroke="#334155" d="M2823.25,-316.25C2823.25,-316.25 2718.75,-316.25 2718.75,-316.25 2712.75,-316.25 2706.75,-310.25 2706.75,-304.25 2706.75,-304.25 2706.75,-243.75 2706.75,-243.75 2706.75,-237.75 2712.75,-231.75 2718.75,-231.75 2718.75,-231.75 2823.25,-231.75 2823.25,-231.75 2829.25,-231.75 2835.25,-237.75 2835.25,-243.75 2835.25,-243.75 2835.25,-304.25 2835.25,-304.25 2835.25,-310.25 2829.25,-316.25 2823.25,-316.25"/>
<text xml:space="preserve" text-anchor="middle" x="2771" y="-300.85" font-family="Helvetica,sans-Serif" font-size="12.00">Ramp to Spike 3</text>
<text xml:space="preserve" text-anchor="middle" x="2771" y="-288.1" font-family="Helvetica,sans-Serif" font-size="12.00">30s, 225 VUs</text>
<text xml:space="preserve" text-anchor="middle" x="2771" y="-275.35" font-family="Helvetica,sans-Serif" font-size="12.00">up to ~900 requests</text>
<text xml:space="preserve" text-anchor="middle" x="2771" y="-262.6" font-family="Helvetica,sans-Serif" font-size="12.00">135 cart updates</text>
<text xml:space="preserve" text-anchor="middle" x="2771" y="-249.85" font-family="Helvetica,sans-Serif" font-size="12.00">45 checkout attempts</text>
<text xml:space="preserve" text-anchor="middle" x="2771" y="-237.1" font-family="Helvetica,sans-Serif" font-size="12.00">225 region changes</text>
</g>
<!-- recovery2&#45;&gt;ramp3 -->
<g id="edge11" class="edge">
<title>recovery2&#45;&gt;ramp3</title>
<path fill="none" stroke="#475569" d="M2652.25,-274C2666.81,-274 2682.39,-274 2697.29,-274"/>
<polygon fill="#475569" stroke="#475569" points="2696.94,-276.8 2704.94,-274 2696.94,-271.2 2696.94,-276.8"/>
</g>
<!-- hold3 -->
<g id="node16" class="node">
<title>hold3</title>
<path fill="#fca5a5" stroke="#334155" d="M3007.5,-316.25C3007.5,-316.25 2902.25,-316.25 2902.25,-316.25 2896.25,-316.25 2890.25,-310.25 2890.25,-304.25 2890.25,-304.25 2890.25,-243.75 2890.25,-243.75 2890.25,-237.75 2896.25,-231.75 2902.25,-231.75 2902.25,-231.75 3007.5,-231.75 3007.5,-231.75 3013.5,-231.75 3019.5,-237.75 3019.5,-243.75 3019.5,-243.75 3019.5,-304.25 3019.5,-304.25 3019.5,-310.25 3013.5,-316.25 3007.5,-316.25"/>
<text xml:space="preserve" text-anchor="middle" x="2954.88" y="-300.85" font-family="Helvetica,sans-Serif" font-size="12.00">Hold Spike 3</text>
<text xml:space="preserve" text-anchor="middle" x="2954.88" y="-288.1" font-family="Helvetica,sans-Serif" font-size="12.00">1m, 225 VUs</text>
<text xml:space="preserve" text-anchor="middle" x="2954.88" y="-275.35" font-family="Helvetica,sans-Serif" font-size="12.00">~900 requests / wave</text>
<text xml:space="preserve" text-anchor="middle" x="2954.88" y="-262.6" font-family="Helvetica,sans-Serif" font-size="12.00">135 cart updates</text>
<text xml:space="preserve" text-anchor="middle" x="2954.88" y="-249.85" font-family="Helvetica,sans-Serif" font-size="12.00">45 checkout attempts</text>
<text xml:space="preserve" text-anchor="middle" x="2954.88" y="-237.1" font-family="Helvetica,sans-Serif" font-size="12.00">225 region changes</text>
</g>
<!-- ramp3&#45;&gt;hold3 -->
<g id="edge12" class="edge">
<title>ramp3&#45;&gt;hold3</title>
<path fill="none" stroke="#475569" d="M2835.61,-274C2850.2,-274 2865.83,-274 2880.78,-274"/>
<polygon fill="#475569" stroke="#475569" points="2880.48,-276.8 2888.48,-274 2880.48,-271.2 2880.48,-276.8"/>
</g>
<!-- rampdown -->
<g id="node17" class="node">
<title>rampdown</title>
<path fill="#e2e8f0" stroke="#334155" d="M3199.25,-303.5C3199.25,-303.5 3086.5,-303.5 3086.5,-303.5 3080.5,-303.5 3074.5,-297.5 3074.5,-291.5 3074.5,-291.5 3074.5,-256.5 3074.5,-256.5 3074.5,-250.5 3080.5,-244.5 3086.5,-244.5 3086.5,-244.5 3199.25,-244.5 3199.25,-244.5 3205.25,-244.5 3211.25,-250.5 3211.25,-256.5 3211.25,-256.5 3211.25,-291.5 3211.25,-291.5 3211.25,-297.5 3205.25,-303.5 3199.25,-303.5"/>
<text xml:space="preserve" text-anchor="middle" x="3142.88" y="-288.1" font-family="Helvetica,sans-Serif" font-size="12.00">Ramp down</text>
<text xml:space="preserve" text-anchor="middle" x="3142.88" y="-275.35" font-family="Helvetica,sans-Serif" font-size="12.00">1m, 0 VUs</text>
<text xml:space="preserve" text-anchor="middle" x="3142.88" y="-262.6" font-family="Helvetica,sans-Serif" font-size="12.00">requests decrease to 0</text>
<text xml:space="preserve" text-anchor="middle" x="3142.88" y="-249.85" font-family="Helvetica,sans-Serif" font-size="12.00">counters decrease to 0</text>
</g>
<!-- hold3&#45;&gt;rampdown -->
<g id="edge13" class="edge">
<title>hold3&#45;&gt;rampdown</title>
<path fill="none" stroke="#475569" d="M3019.89,-274C3034.42,-274 3050,-274 3065.01,-274"/>
<polygon fill="#475569" stroke="#475569" points="3064.74,-276.8 3072.74,-274 3064.74,-271.2 3064.74,-276.8"/>
</g>
<!-- storefront -->
<g id="node19" class="node">
<title>storefront</title>
<path fill="#faf5ff" stroke="#334155" d="M1485.88,-183.5C1485.88,-183.5 1336.38,-183.5 1336.38,-183.5 1330.38,-183.5 1324.38,-177.5 1324.38,-171.5 1324.38,-171.5 1324.38,-136.5 1324.38,-136.5 1324.38,-130.5 1330.38,-124.5 1336.38,-124.5 1336.38,-124.5 1485.88,-124.5 1485.88,-124.5 1491.88,-124.5 1497.88,-130.5 1497.88,-136.5 1497.88,-136.5 1497.88,-171.5 1497.88,-171.5 1497.88,-177.5 1491.88,-183.5 1485.88,-183.5"/>
<text xml:space="preserve" text-anchor="middle" x="1411.12" y="-168.1" font-family="Helvetica,sans-Serif" font-size="12.00">storefront_actions</text>
<text xml:space="preserve" text-anchor="middle" x="1411.12" y="-155.35" font-family="Helvetica,sans-Serif" font-size="12.00">1 browser iteration</text>
<text xml:space="preserve" text-anchor="middle" x="1411.12" y="-142.6" font-family="Helvetica,sans-Serif" font-size="12.00">Faro UI actions</text>
<text xml:space="preserve" text-anchor="middle" x="1411.12" y="-129.85" font-family="Helvetica,sans-Serif" font-size="12.00">not simple API request counts</text>
</g>
</g>
</svg>
