<?xml version="1.0" encoding="UTF-8" standalone="no"?>
<!DOCTYPE svg PUBLIC "-//W3C//DTD SVG 1.1//EN"
 "http://www.w3.org/Graphics/SVG/1.1/DTD/svg11.dtd">
<!-- Generated by graphviz version 15.0.0 (20260523.1842)
 -->
<!-- Title: traffic_spike_requests_only Pages: 1 -->
<svg width="3667pt" height="268pt"
 viewBox="0.00 0.00 3667.00 268.00" xmlns="http://www.w3.org/2000/svg" xmlns:xlink="http://www.w3.org/1999/xlink">
<g id="graph0" class="graph" transform="scale(1 1) rotate(0) translate(4 264)">
<title>traffic_spike_requests_only</title>
<polygon fill="white" stroke="none" points="-4,4 -4,-264 3663.25,-264 3663.25,4 -4,4"/>
<text xml:space="preserve" text-anchor="middle" x="1829.62" y="-237" font-family="Helvetica,sans-Serif" font-size="20.00">Traffic Spike Requests per Completed Wave</text>
<g id="clust1" class="cluster">
<title>cluster_persona_math</title>
<path fill="none" stroke="#cbd5e1" stroke-dasharray="5,2" d="M20,-91C20,-91 1054.22,-91 1054.22,-91 1060.22,-91 1066.22,-97 1066.22,-103 1066.22,-103 1066.22,-154 1066.22,-154 1066.22,-160 1060.22,-166 1054.22,-166 1054.22,-166 20,-166 20,-166 14,-166 8,-160 8,-154 8,-154 8,-103 8,-103 8,-97 14,-91 20,-91"/>
<text xml:space="preserve" text-anchor="middle" x="537.11" y="-149.65" font-family="Helvetica,sans-Serif" font-size="13.00">Per iteration request mix</text>
</g>
<g id="clust2" class="cluster">
<title>cluster_stage_flow</title>
<path fill="none" stroke="#cbd5e1" stroke-dasharray="5,2" d="M1224.59,-148C1224.59,-148 3639.25,-148 3639.25,-148 3645.25,-148 3651.25,-154 3651.25,-160 3651.25,-160 3651.25,-211 3651.25,-211 3651.25,-217 3645.25,-223 3639.25,-223 3639.25,-223 1224.59,-223 1224.59,-223 1218.59,-223 1212.59,-217 1212.59,-211 1212.59,-211 1212.59,-160 1212.59,-160 1212.59,-154 1218.59,-148 1224.59,-148"/>
<text xml:space="preserve" text-anchor="middle" x="2431.92" y="-206.65" font-family="Helvetica,sans-Serif" font-size="13.00">Stage request model</text>
</g>
<g id="clust3" class="cluster">
<title>cluster_parallel</title>
<path fill="none" stroke="#cbd5e1" stroke-dasharray="5,2" d="M1150.47,-8C1150.47,-8 1472.53,-8 1472.53,-8 1478.53,-8 1484.53,-14 1484.53,-20 1484.53,-20 1484.53,-128 1484.53,-128 1484.53,-134 1478.53,-140 1472.53,-140 1472.53,-140 1150.47,-140 1150.47,-140 1144.47,-140 1138.47,-134 1138.47,-128 1138.47,-128 1138.47,-20 1138.47,-20 1138.47,-14 1144.47,-8 1150.47,-8"/>
<text xml:space="preserve" text-anchor="middle" x="1311.5" y="-123.65" font-family="Helvetica,sans-Serif" font-size="13.00">Parallel request load</text>
</g>
<!-- note&#45;&gt;p_avg -->
<g id="edge15" class="edge">
<title>note&#45;&gt;p_avg</title>
<path fill="none" stroke="#475569" stroke-width="1.2" d="M860.12,-173.53C874.82,-171.42 884.68,-170 884.68,-170 884.68,-170 919.1,-154.21 950.02,-140.04"/>
<polygon fill="#475569" stroke="#475569" stroke-width="1.2" points="950.78,-142.38 956.13,-137.24 948.74,-137.93 950.78,-142.38"/>
<text xml:space="preserve" text-anchor="middle" x="912.3" y="-164.2" font-family="Helvetica,sans-Serif" font-size="10.00">basis</text>
</g>
<!-- p_browser&#45;&gt;p_cart -->
<!-- p_cart&#45;&gt;p_account -->
<!-- p_account&#45;&gt;p_sale -->
<!-- p_sale&#45;&gt;p_checkout -->
<!-- p_checkout&#45;&gt;p_avg -->
<!-- p_avg&#45;&gt;warmup -->
<g id="edge16" class="edge">
<title>p_avg&#45;&gt;warmup</title>
<path fill="none" stroke="#475569" stroke-width="1.2" d="M1058.37,-129.37C1096.19,-136.75 1138.47,-145 1138.47,-145 1138.47,-145 1173.51,-151.11 1211.96,-157.82"/>
<polygon fill="#475569" stroke="#475569" stroke-width="1.2" points="1211.1,-160.15 1218.41,-158.94 1211.94,-155.32 1211.1,-160.15"/>
<text xml:space="preserve" text-anchor="middle" x="1102.34" y="-144.9" font-family="Helvetica,sans-Serif" font-size="10.00">× target VUs</text>
</g>
<!-- p_avg&#45;&gt;regional -->
<g id="edge17" class="edge">
<title>p_avg&#45;&gt;regional</title>
<path fill="none" stroke="#475569" stroke-width="1.2" d="M1047.32,-99.57C1087.41,-83.92 1138.47,-64 1138.47,-64 1138.47,-64 1162.42,-59.96 1192.45,-54.9"/>
<polygon fill="#475569" stroke="#475569" stroke-width="1.2" points="1192.78,-57.33 1199.27,-53.75 1191.96,-52.5 1192.78,-57.33"/>
<text xml:space="preserve" text-anchor="middle" x="1102.34" y="-89.52" font-family="Helvetica,sans-Serif" font-size="10.00">30 × 4</text>
</g>
<!-- warmup&#45;&gt;ramp1 -->
<g id="edge6" class="edge">
<title>warmup&#45;&gt;ramp1</title>
<path fill="none" stroke="#475569" stroke-width="1.2" d="M1402.61,-175C1433.36,-175 1468.18,-175 1500.62,-175"/>
<polygon fill="#475569" stroke="#475569" stroke-width="1.2" points="1500.44,-177.45 1507.44,-175 1500.44,-172.55 1500.44,-177.45"/>
</g>
<!-- ramp1&#45;&gt;hold1 -->
<g id="edge7" class="edge">
<title>ramp1&#45;&gt;hold1</title>
<path fill="none" stroke="#475569" stroke-width="1.2" d="M1723.77,-175C1731.67,-175 1739.64,-175 1747.57,-175"/>
<polygon fill="#475569" stroke="#475569" stroke-width="1.2" points="1747.32,-177.45 1754.32,-175 1747.32,-172.55 1747.32,-177.45"/>
</g>
<!-- hold1&#45;&gt;rec1 -->
<g id="edge8" class="edge">
<title>hold1&#45;&gt;rec1</title>
<path fill="none" stroke="#475569" stroke-width="1.2" d="M1963.68,-175C1971.4,-175 1979.22,-175 1987,-175"/>
<polygon fill="#475569" stroke="#475569" stroke-width="1.2" points="1986.95,-177.45 1993.95,-175 1986.95,-172.55 1986.95,-177.45"/>
</g>
<!-- rec1&#45;&gt;ramp2 -->
<g id="edge9" class="edge">
<title>rec1&#45;&gt;ramp2</title>
<path fill="none" stroke="#475569" stroke-width="1.2" d="M2206.02,-175C2213.78,-175 2221.64,-175 2229.47,-175"/>
<polygon fill="#475569" stroke="#475569" stroke-width="1.2" points="2229.46,-177.45 2236.46,-175 2229.46,-172.55 2229.46,-177.45"/>
</g>
<!-- ramp2&#45;&gt;hold2 -->
<g id="edge10" class="edge">
<title>ramp2&#45;&gt;hold2</title>
<path fill="none" stroke="#475569" stroke-width="1.2" d="M2453.01,-175C2460.91,-175 2468.88,-175 2476.81,-175"/>
<polygon fill="#475569" stroke="#475569" stroke-width="1.2" points="2476.56,-177.45 2483.56,-175 2476.56,-172.55 2476.56,-177.45"/>
</g>
<!-- hold2&#45;&gt;rec2 -->
<g id="edge11" class="edge">
<title>hold2&#45;&gt;rec2</title>
<path fill="none" stroke="#475569" stroke-width="1.2" d="M2692.92,-175C2700.64,-175 2708.46,-175 2716.24,-175"/>
<polygon fill="#475569" stroke="#475569" stroke-width="1.2" points="2716.19,-177.45 2723.19,-175 2716.19,-172.55 2716.19,-177.45"/>
</g>
<!-- rec2&#45;&gt;ramp3 -->
<g id="edge12" class="edge">
<title>rec2&#45;&gt;ramp3</title>
<path fill="none" stroke="#475569" stroke-width="1.2" d="M2935.26,-175C2943.02,-175 2950.88,-175 2958.71,-175"/>
<polygon fill="#475569" stroke="#475569" stroke-width="1.2" points="2958.7,-177.45 2965.7,-175 2958.7,-172.55 2958.7,-177.45"/>
</g>
<!-- ramp3&#45;&gt;hold3 -->
<g id="edge13" class="edge">
<title>ramp3&#45;&gt;hold3</title>
<path fill="none" stroke="#475569" stroke-width="1.2" d="M3182.25,-175C3190.15,-175 3198.12,-175 3206.05,-175"/>
<polygon fill="#475569" stroke="#475569" stroke-width="1.2" points="3205.8,-177.45 3212.8,-175 3205.8,-172.55 3205.8,-177.45"/>
</g>
<!-- hold3&#45;&gt;down -->
<g id="edge14" class="edge">
<title>hold3&#45;&gt;down</title>
<path fill="none" stroke="#475569" stroke-width="1.2" d="M3421.97,-175C3429.9,-175 3437.91,-175 3445.84,-175"/>
<polygon fill="#475569" stroke="#475569" stroke-width="1.2" points="3445.58,-177.45 3452.58,-175 3445.58,-172.55 3445.58,-177.45"/>
</g>
<!-- note -->
<g id="node1" class="node">
<title>note</title>
<polygon fill="#fff7ed" stroke="#f97316" points="878.68,-210 576.91,-210 576.91,-174 884.68,-174 884.68,-204 878.68,-210"/>
<polyline fill="none" stroke="#f97316" points="878.68,-210 878.68,-204"/>
<polyline fill="none" stroke="#f97316" points="884.68,-204 878.68,-204"/>
<text xml:space="preserve" text-anchor="middle" x="730.8" y="-193.55" font-family="Helvetica,sans-Serif" font-size="11.00">Estimates assume each active VU completes one iteration.</text>
<text xml:space="preserve" text-anchor="middle" x="730.8" y="-181.55" font-family="Helvetica,sans-Serif" font-size="11.00">Actual request totals vary with latency, sleeps, and loop count.</text>
</g>
<!-- p_browser -->
<g id="node2" class="node">
<title>p_browser</title>
<path fill="#f8fafc" stroke="#334155" d="M28,-100C28,-100 90.79,-100 90.79,-100 96.79,-100 102.79,-106 102.79,-112 102.79,-112 102.79,-124 102.79,-124 102.79,-130 96.79,-136 90.79,-136 90.79,-136 28,-136 28,-136 22,-136 16,-130 16,-124 16,-124 16,-112 16,-112 16,-106 22,-100 28,-100"/>
<text xml:space="preserve" text-anchor="middle" x="41.26" y="-113.95" font-family="Helvetica,sans-Serif" font-size="11.00">browser</text>
<polyline fill="none" stroke="#334155" points="66.52,-100.8 66.52,-136"/>
<text xml:space="preserve" text-anchor="middle" x="84.65" y="-113.95" font-family="Helvetica,sans-Serif" font-size="11.00">3 req</text>
</g>
<!-- p_cart -->
<g id="node3" class="node">
<title>p_cart</title>
<path fill="#f8fafc" stroke="#334155" d="M147.79,-100C147.79,-100 227.83,-100 227.83,-100 233.83,-100 239.83,-106 239.83,-112 239.83,-112 239.83,-124 239.83,-124 239.83,-130 233.83,-136 227.83,-136 227.83,-136 147.79,-136 147.79,-136 141.79,-136 135.79,-130 135.79,-124 135.79,-124 135.79,-112 135.79,-112 135.79,-106 141.79,-100 147.79,-100"/>
<text xml:space="preserve" text-anchor="middle" x="169.67" y="-113.95" font-family="Helvetica,sans-Serif" font-size="11.00">cart_builder</text>
<polyline fill="none" stroke="#334155" points="203.56,-100.8 203.56,-136"/>
<text xml:space="preserve" text-anchor="middle" x="221.69" y="-113.95" font-family="Helvetica,sans-Serif" font-size="11.00">4 req</text>
</g>
<!-- p_account -->
<g id="node4" class="node">
<title>p_account</title>
<path fill="#f8fafc" stroke="#334155" d="M284.83,-100C284.83,-100 394.87,-100 394.87,-100 400.87,-100 406.87,-106 406.87,-112 406.87,-112 406.87,-124 406.87,-124 406.87,-130 400.87,-136 394.87,-136 394.87,-136 284.83,-136 284.83,-136 278.83,-136 272.83,-130 272.83,-124 272.83,-124 272.83,-112 272.83,-112 272.83,-106 278.83,-100 284.83,-100"/>
<text xml:space="preserve" text-anchor="middle" x="321.71" y="-113.95" font-family="Helvetica,sans-Serif" font-size="11.00">account_manager</text>
<polyline fill="none" stroke="#334155" points="370.6,-100.8 370.6,-136"/>
<text xml:space="preserve" text-anchor="middle" x="388.73" y="-113.95" font-family="Helvetica,sans-Serif" font-size="11.00">4 req</text>
</g>
<!-- p_sale -->
<g id="node5" class="node">
<title>p_sale</title>
<path fill="#f8fafc" stroke="#334155" d="M451.87,-100C451.87,-100 531.91,-100 531.91,-100 537.91,-100 543.91,-106 543.91,-112 543.91,-112 543.91,-124 543.91,-124 543.91,-130 537.91,-136 531.91,-136 531.91,-136 451.87,-136 451.87,-136 445.87,-136 439.87,-130 439.87,-124 439.87,-124 439.87,-112 439.87,-112 439.87,-106 445.87,-100 451.87,-100"/>
<text xml:space="preserve" text-anchor="middle" x="473.75" y="-113.95" font-family="Helvetica,sans-Serif" font-size="11.00">sale_hunter</text>
<polyline fill="none" stroke="#334155" points="507.64,-100.8 507.64,-136"/>
<text xml:space="preserve" text-anchor="middle" x="525.77" y="-113.95" font-family="Helvetica,sans-Serif" font-size="11.00">4 req</text>
</g>
<!-- p_checkout -->
<g id="node6" class="node">
<title>p_checkout</title>
<path fill="#f8fafc" stroke="#334155" d="M697.53,-100C697.53,-100 764.07,-100 764.07,-100 770.07,-100 776.07,-106 776.07,-112 776.07,-112 776.07,-124 776.07,-124 776.07,-130 770.07,-136 764.07,-136 764.07,-136 697.53,-136 697.53,-136 691.53,-136 685.53,-130 685.53,-124 685.53,-124 685.53,-112 685.53,-112 685.53,-106 691.53,-100 697.53,-100"/>
<text xml:space="preserve" text-anchor="middle" x="712.66" y="-113.95" font-family="Helvetica,sans-Serif" font-size="11.00">checkout</text>
<polyline fill="none" stroke="#334155" points="739.8,-100.8 739.8,-136"/>
<text xml:space="preserve" text-anchor="middle" x="757.93" y="-113.95" font-family="Helvetica,sans-Serif" font-size="11.00">5 req</text>
</g>
<!-- p_avg -->
<g id="node7" class="node">
<title>p_avg</title>
<path fill="#ecfeff" stroke="#0891b2" d="M951.93,-100C951.93,-100 1046.22,-100 1046.22,-100 1052.22,-100 1058.22,-106 1058.22,-112 1058.22,-112 1058.22,-124 1058.22,-124 1058.22,-130 1052.22,-136 1046.22,-136 1046.22,-136 951.93,-136 951.93,-136 945.93,-136 939.93,-130 939.93,-124 939.93,-124 939.93,-112 939.93,-112 939.93,-106 945.93,-100 951.93,-100"/>
<text xml:space="preserve" text-anchor="middle" x="954.31" y="-113.95" font-family="Helvetica,sans-Serif" font-size="11.00">avg</text>
<polyline fill="none" stroke="#0891b2" points="968.7,-100.8 968.7,-136"/>
<text xml:space="preserve" text-anchor="middle" x="1013.46" y="-113.95" font-family="Helvetica,sans-Serif" font-size="11.00">4 req / VU wave</text>
</g>
<!-- warmup -->
<g id="node8" class="node">
<title>warmup</title>
<path fill="#f1f5f9" stroke="#334155" d="M1232.59,-157C1232.59,-157 1390.41,-157 1390.41,-157 1396.41,-157 1402.41,-163 1402.41,-169 1402.41,-169 1402.41,-181 1402.41,-181 1402.41,-187 1396.41,-193 1390.41,-193 1390.41,-193 1232.59,-193 1232.59,-193 1226.59,-193 1220.59,-187 1220.59,-181 1220.59,-181 1220.59,-169 1220.59,-169 1220.59,-163 1226.59,-157 1232.59,-157"/>
<text xml:space="preserve" text-anchor="middle" x="1246.97" y="-170.95" font-family="Helvetica,sans-Serif" font-size="11.00">Warmup</text>
<polyline fill="none" stroke="#334155" points="1273.36,-157.8 1273.36,-193"/>
<text xml:space="preserve" text-anchor="middle" x="1286.62" y="-170.95" font-family="Helvetica,sans-Serif" font-size="11.00">1m</text>
<polyline fill="none" stroke="#334155" points="1299.88,-157.8 1299.88,-193"/>
<text xml:space="preserve" text-anchor="middle" x="1323.63" y="-170.95" font-family="Helvetica,sans-Serif" font-size="11.00">25 VUs</text>
<polyline fill="none" stroke="#334155" points="1347.39,-157.8 1347.39,-193"/>
<text xml:space="preserve" text-anchor="middle" x="1374.9" y="-170.95" font-family="Helvetica,sans-Serif" font-size="11.00">~100 req</text>
</g>
<!-- ramp1 -->
<g id="node9" class="node">
<title>ramp1</title>
<path fill="#dbeafe" stroke="#334155" d="M1521.53,-157C1521.53,-157 1711.61,-157 1711.61,-157 1717.61,-157 1723.61,-163 1723.61,-169 1723.61,-169 1723.61,-181 1723.61,-181 1723.61,-187 1717.61,-193 1711.61,-193 1711.61,-193 1521.53,-193 1521.53,-193 1515.53,-193 1509.53,-187 1509.53,-181 1509.53,-181 1509.53,-169 1509.53,-169 1509.53,-163 1515.53,-157 1521.53,-157"/>
<text xml:space="preserve" text-anchor="middle" x="1534.42" y="-170.95" font-family="Helvetica,sans-Serif" font-size="11.00">Ramp 1</text>
<polyline fill="none" stroke="#334155" points="1559.3,-157.8 1559.3,-193"/>
<text xml:space="preserve" text-anchor="middle" x="1573.69" y="-170.95" font-family="Helvetica,sans-Serif" font-size="11.00">30s</text>
<polyline fill="none" stroke="#334155" points="1588.07,-157.8 1588.07,-193"/>
<text xml:space="preserve" text-anchor="middle" x="1614.83" y="-170.95" font-family="Helvetica,sans-Serif" font-size="11.00">100 VUs</text>
<polyline fill="none" stroke="#334155" points="1641.59,-157.8 1641.59,-193"/>
<text xml:space="preserve" text-anchor="middle" x="1682.6" y="-170.95" font-family="Helvetica,sans-Serif" font-size="11.00">up to ~400 req</text>
</g>
<!-- hold1 -->
<g id="node10" class="node">
<title>hold1</title>
<path fill="#bfdbfe" stroke="#334155" d="M1768.61,-157C1768.61,-157 1951.19,-157 1951.19,-157 1957.19,-157 1963.19,-163 1963.19,-169 1963.19,-169 1963.19,-181 1963.19,-181 1963.19,-187 1957.19,-193 1951.19,-193 1951.19,-193 1768.61,-193 1768.61,-193 1762.61,-193 1756.61,-187 1756.61,-181 1756.61,-181 1756.61,-169 1756.61,-169 1756.61,-163 1762.61,-157 1768.61,-157"/>
<text xml:space="preserve" text-anchor="middle" x="1778.12" y="-170.95" font-family="Helvetica,sans-Serif" font-size="11.00">Hold 1</text>
<polyline fill="none" stroke="#334155" points="1799.63,-157.8 1799.63,-193"/>
<text xml:space="preserve" text-anchor="middle" x="1812.89" y="-170.95" font-family="Helvetica,sans-Serif" font-size="11.00">1m</text>
<polyline fill="none" stroke="#334155" points="1826.15,-157.8 1826.15,-193"/>
<text xml:space="preserve" text-anchor="middle" x="1852.91" y="-170.95" font-family="Helvetica,sans-Serif" font-size="11.00">100 VUs</text>
<polyline fill="none" stroke="#334155" points="1879.67,-157.8 1879.67,-193"/>
<text xml:space="preserve" text-anchor="middle" x="1921.43" y="-170.95" font-family="Helvetica,sans-Serif" font-size="11.00">~400 req/wave</text>
</g>
<!-- rec1 -->
<g id="node11" class="node">
<title>rec1</title>
<path fill="#f1f5f9" stroke="#334155" d="M2008.19,-157C2008.19,-157 2193.77,-157 2193.77,-157 2199.77,-157 2205.77,-163 2205.77,-169 2205.77,-169 2205.77,-181 2205.77,-181 2205.77,-187 2199.77,-193 2193.77,-193 2193.77,-193 2008.19,-193 2008.19,-193 2002.19,-193 1996.19,-187 1996.19,-181 1996.19,-181 1996.19,-169 1996.19,-169 1996.19,-163 2002.19,-157 2008.19,-157"/>
<text xml:space="preserve" text-anchor="middle" x="2022.2" y="-170.95" font-family="Helvetica,sans-Serif" font-size="11.00">Recover</text>
<polyline fill="none" stroke="#334155" points="2048.21,-157.8 2048.21,-193"/>
<text xml:space="preserve" text-anchor="middle" x="2061.47" y="-170.95" font-family="Helvetica,sans-Serif" font-size="11.00">1m</text>
<polyline fill="none" stroke="#334155" points="2074.73,-157.8 2074.73,-193"/>
<text xml:space="preserve" text-anchor="middle" x="2098.49" y="-170.95" font-family="Helvetica,sans-Serif" font-size="11.00">25 VUs</text>
<polyline fill="none" stroke="#334155" points="2122.25,-157.8 2122.25,-193"/>
<text xml:space="preserve" text-anchor="middle" x="2164.01" y="-170.95" font-family="Helvetica,sans-Serif" font-size="11.00">~100 req/wave</text>
</g>
<!-- ramp2 -->
<g id="node12" class="node">
<title>ramp2</title>
<path fill="#fde68a" stroke="#334155" d="M2250.77,-157C2250.77,-157 2440.85,-157 2440.85,-157 2446.85,-157 2452.85,-163 2452.85,-169 2452.85,-169 2452.85,-181 2452.85,-181 2452.85,-187 2446.85,-193 2440.85,-193 2440.85,-193 2250.77,-193 2250.77,-193 2244.77,-193 2238.77,-187 2238.77,-181 2238.77,-181 2238.77,-169 2238.77,-169 2238.77,-163 2244.77,-157 2250.77,-157"/>
<text xml:space="preserve" text-anchor="middle" x="2263.66" y="-170.95" font-family="Helvetica,sans-Serif" font-size="11.00">Ramp 2</text>
<polyline fill="none" stroke="#334155" points="2288.54,-157.8 2288.54,-193"/>
<text xml:space="preserve" text-anchor="middle" x="2302.93" y="-170.95" font-family="Helvetica,sans-Serif" font-size="11.00">30s</text>
<polyline fill="none" stroke="#334155" points="2317.31,-157.8 2317.31,-193"/>
<text xml:space="preserve" text-anchor="middle" x="2344.07" y="-170.95" font-family="Helvetica,sans-Serif" font-size="11.00">150 VUs</text>
<polyline fill="none" stroke="#334155" points="2370.83,-157.8 2370.83,-193"/>
<text xml:space="preserve" text-anchor="middle" x="2411.84" y="-170.95" font-family="Helvetica,sans-Serif" font-size="11.00">up to ~600 req</text>
</g>
<!-- hold2 -->
<g id="node13" class="node">
<title>hold2</title>
<path fill="#fcd34d" stroke="#334155" d="M2497.85,-157C2497.85,-157 2680.43,-157 2680.43,-157 2686.43,-157 2692.43,-163 2692.43,-169 2692.43,-169 2692.43,-181 2692.43,-181 2692.43,-187 2686.43,-193 2680.43,-193 2680.43,-193 2497.85,-193 2497.85,-193 2491.85,-193 2485.85,-187 2485.85,-181 2485.85,-181 2485.85,-169 2485.85,-169 2485.85,-163 2491.85,-157 2497.85,-157"/>
<text xml:space="preserve" text-anchor="middle" x="2507.36" y="-170.95" font-family="Helvetica,sans-Serif" font-size="11.00">Hold 2</text>
<polyline fill="none" stroke="#334155" points="2528.87,-157.8 2528.87,-193"/>
<text xml:space="preserve" text-anchor="middle" x="2542.13" y="-170.95" font-family="Helvetica,sans-Serif" font-size="11.00">1m</text>
<polyline fill="none" stroke="#334155" points="2555.39,-157.8 2555.39,-193"/>
<text xml:space="preserve" text-anchor="middle" x="2582.15" y="-170.95" font-family="Helvetica,sans-Serif" font-size="11.00">150 VUs</text>
<polyline fill="none" stroke="#334155" points="2608.91,-157.8 2608.91,-193"/>
<text xml:space="preserve" text-anchor="middle" x="2650.67" y="-170.95" font-family="Helvetica,sans-Serif" font-size="11.00">~600 req/wave</text>
</g>
<!-- rec2 -->
<g id="node14" class="node">
<title>rec2</title>
<path fill="#f1f5f9" stroke="#334155" d="M2737.43,-157C2737.43,-157 2923.01,-157 2923.01,-157 2929.01,-157 2935.01,-163 2935.01,-169 2935.01,-169 2935.01,-181 2935.01,-181 2935.01,-187 2929.01,-193 2923.01,-193 2923.01,-193 2737.43,-193 2737.43,-193 2731.43,-193 2725.43,-187 2725.43,-181 2725.43,-181 2725.43,-169 2725.43,-169 2725.43,-163 2731.43,-157 2737.43,-157"/>
<text xml:space="preserve" text-anchor="middle" x="2751.44" y="-170.95" font-family="Helvetica,sans-Serif" font-size="11.00">Recover</text>
<polyline fill="none" stroke="#334155" points="2777.45,-157.8 2777.45,-193"/>
<text xml:space="preserve" text-anchor="middle" x="2790.71" y="-170.95" font-family="Helvetica,sans-Serif" font-size="11.00">1m</text>
<polyline fill="none" stroke="#334155" points="2803.97,-157.8 2803.97,-193"/>
<text xml:space="preserve" text-anchor="middle" x="2827.73" y="-170.95" font-family="Helvetica,sans-Serif" font-size="11.00">25 VUs</text>
<polyline fill="none" stroke="#334155" points="2851.49,-157.8 2851.49,-193"/>
<text xml:space="preserve" text-anchor="middle" x="2893.25" y="-170.95" font-family="Helvetica,sans-Serif" font-size="11.00">~100 req/wave</text>
</g>
<!-- ramp3 -->
<g id="node15" class="node">
<title>ramp3</title>
<path fill="#fecaca" stroke="#334155" d="M2980.01,-157C2980.01,-157 3170.09,-157 3170.09,-157 3176.09,-157 3182.09,-163 3182.09,-169 3182.09,-169 3182.09,-181 3182.09,-181 3182.09,-187 3176.09,-193 3170.09,-193 3170.09,-193 2980.01,-193 2980.01,-193 2974.01,-193 2968.01,-187 2968.01,-181 2968.01,-181 2968.01,-169 2968.01,-169 2968.01,-163 2974.01,-157 2980.01,-157"/>
<text xml:space="preserve" text-anchor="middle" x="2992.89" y="-170.95" font-family="Helvetica,sans-Serif" font-size="11.00">Ramp 3</text>
<polyline fill="none" stroke="#334155" points="3017.78,-157.8 3017.78,-193"/>
<text xml:space="preserve" text-anchor="middle" x="3032.16" y="-170.95" font-family="Helvetica,sans-Serif" font-size="11.00">30s</text>
<polyline fill="none" stroke="#334155" points="3046.55,-157.8 3046.55,-193"/>
<text xml:space="preserve" text-anchor="middle" x="3073.31" y="-170.95" font-family="Helvetica,sans-Serif" font-size="11.00">225 VUs</text>
<polyline fill="none" stroke="#334155" points="3100.07,-157.8 3100.07,-193"/>
<text xml:space="preserve" text-anchor="middle" x="3141.08" y="-170.95" font-family="Helvetica,sans-Serif" font-size="11.00">up to ~900 req</text>
</g>
<!-- hold3 -->
<g id="node16" class="node">
<title>hold3</title>
<path fill="#fca5a5" stroke="#334155" d="M3227.09,-157C3227.09,-157 3409.67,-157 3409.67,-157 3415.67,-157 3421.67,-163 3421.67,-169 3421.67,-169 3421.67,-181 3421.67,-181 3421.67,-187 3415.67,-193 3409.67,-193 3409.67,-193 3227.09,-193 3227.09,-193 3221.09,-193 3215.09,-187 3215.09,-181 3215.09,-181 3215.09,-169 3215.09,-169 3215.09,-163 3221.09,-157 3227.09,-157"/>
<text xml:space="preserve" text-anchor="middle" x="3236.6" y="-170.95" font-family="Helvetica,sans-Serif" font-size="11.00">Hold 3</text>
<polyline fill="none" stroke="#334155" points="3258.11,-157.8 3258.11,-193"/>
<text xml:space="preserve" text-anchor="middle" x="3271.37" y="-170.95" font-family="Helvetica,sans-Serif" font-size="11.00">1m</text>
<polyline fill="none" stroke="#334155" points="3284.63,-157.8 3284.63,-193"/>
<text xml:space="preserve" text-anchor="middle" x="3311.39" y="-170.95" font-family="Helvetica,sans-Serif" font-size="11.00">225 VUs</text>
<polyline fill="none" stroke="#334155" points="3338.15,-157.8 3338.15,-193"/>
<text xml:space="preserve" text-anchor="middle" x="3379.91" y="-170.95" font-family="Helvetica,sans-Serif" font-size="11.00">~900 req/wave</text>
</g>
<!-- down -->
<g id="node17" class="node">
<title>down</title>
<path fill="#e2e8f0" stroke="#334155" d="M3466.67,-157C3466.67,-157 3631.25,-157 3631.25,-157 3637.25,-157 3643.25,-163 3643.25,-169 3643.25,-169 3643.25,-181 3643.25,-181 3643.25,-187 3637.25,-193 3631.25,-193 3631.25,-193 3466.67,-193 3466.67,-193 3460.67,-193 3454.67,-187 3454.67,-181 3454.67,-181 3454.67,-169 3454.67,-169 3454.67,-163 3460.67,-157 3466.67,-157"/>
<text xml:space="preserve" text-anchor="middle" x="3489.68" y="-170.83" font-family="Helvetica,sans-Serif" font-size="11.00">Ramp down</text>
<polyline fill="none" stroke="#334155" points="3524.69,-157.55 3524.69,-193"/>
<text xml:space="preserve" text-anchor="middle" x="3537.95" y="-170.83" font-family="Helvetica,sans-Serif" font-size="11.00">1m</text>
<polyline fill="none" stroke="#334155" points="3551.21,-157.55 3551.21,-193"/>
<text xml:space="preserve" text-anchor="middle" x="3571.97" y="-170.83" font-family="Helvetica,sans-Serif" font-size="11.00">0 VUs</text>
<polyline fill="none" stroke="#334155" points="3592.73,-157.55 3592.73,-193"/>
<text xml:space="preserve" text-anchor="middle" x="3617.99" y="-171.95" font-family="Helvetica,sans-Serif" font-size="11.00">→ 0 req</text>
</g>
<!-- regional -->
<g id="node18" class="node">
<title>regional</title>
<path fill="#ecfdf5" stroke="#334155" d="M1207.97,-17C1207.97,-17 1415.03,-17 1415.03,-17 1421.03,-17 1427.03,-23 1427.03,-29 1427.03,-29 1427.03,-41 1427.03,-41 1427.03,-47 1421.03,-53 1415.03,-53 1415.03,-53 1207.97,-53 1207.97,-53 1201.97,-53 1195.97,-47 1195.97,-41 1195.97,-41 1195.97,-29 1195.97,-29 1195.97,-23 1201.97,-17 1207.97,-17"/>
<text xml:space="preserve" text-anchor="middle" x="1245.98" y="-30.95" font-family="Helvetica,sans-Serif" font-size="11.00">regional_shoppers</text>
<polyline fill="none" stroke="#334155" points="1295.99,-17.8 1295.99,-53"/>
<text xml:space="preserve" text-anchor="middle" x="1319.75" y="-30.95" font-family="Helvetica,sans-Serif" font-size="11.00">30 VUs</text>
<polyline fill="none" stroke="#334155" points="1343.51,-17.8 1343.51,-53"/>
<text xml:space="preserve" text-anchor="middle" x="1385.27" y="-30.95" font-family="Helvetica,sans-Serif" font-size="11.00">~120 req/wave</text>
</g>
<!-- browser_actions -->
<g id="node19" class="node">
<title>browser_actions</title>
<path fill="#faf5ff" stroke="#334155" d="M1158.47,-74C1158.47,-74 1464.53,-74 1464.53,-74 1470.53,-74 1476.53,-80 1476.53,-86 1476.53,-86 1476.53,-98 1476.53,-98 1476.53,-104 1470.53,-110 1464.53,-110 1464.53,-110 1158.47,-110 1158.47,-110 1152.47,-110 1146.47,-104 1146.47,-98 1146.47,-98 1146.47,-86 1146.47,-86 1146.47,-80 1152.47,-74 1158.47,-74"/>
<text xml:space="preserve" text-anchor="middle" x="1194.98" y="-87.95" font-family="Helvetica,sans-Serif" font-size="11.00">storefront_actions</text>
<polyline fill="none" stroke="#334155" points="1243.49,-74.8 1243.49,-110"/>
<text xml:space="preserve" text-anchor="middle" x="1293.88" y="-87.95" font-family="Helvetica,sans-Serif" font-size="11.00">1 browser iteration</text>
<polyline fill="none" stroke="#334155" points="1344.26,-74.8 1344.26,-110"/>
<text xml:space="preserve" text-anchor="middle" x="1410.39" y="-87.95" font-family="Helvetica,sans-Serif" font-size="11.00">UI/browser requests vary</text>
</g>
</g>
</svg>
