<?xml version="1.0" encoding="UTF-8" standalone="no"?>
<!DOCTYPE svg PUBLIC "-//W3C//DTD SVG 1.1//EN"
 "http://www.w3.org/Graphics/SVG/1.1/DTD/svg11.dtd">
<!-- Generated by graphviz version 15.0.0 (20260523.1842)
 -->
<!-- Title: traffic_spike Pages: 1 -->
<svg width="1155pt" height="108pt"
 viewBox="0.00 0.00 1155.00 108.00" xmlns="http://www.w3.org/2000/svg" xmlns:xlink="http://www.w3.org/1999/xlink">
<g id="graph0" class="graph" transform="scale(1 1) rotate(0) translate(4 104)">
<title>traffic_spike</title>
<polygon fill="white" stroke="none" points="-4,4 -4,-104 1151,-104 1151,4 -4,4"/>
<text xml:space="preserve" text-anchor="middle" x="573.5" y="-77" font-family="Helvetica,sans-Serif" font-size="20.00">Traffic Spike Config: BASE_SPIKE_USERS=100, SPIKE_MULTIPLIER=2</text>
<!-- warmup -->
<g id="node1" class="node">
<title>warmup</title>
<path fill="#f1f5f9" stroke="#334155" d="M93.25,-63.5C93.25,-63.5 12,-63.5 12,-63.5 6,-63.5 0,-57.5 0,-51.5 0,-51.5 0,-19.5 0,-19.5 0,-13.5 6,-7.5 12,-7.5 12,-7.5 93.25,-7.5 93.25,-7.5 99.25,-7.5 105.25,-13.5 105.25,-19.5 105.25,-19.5 105.25,-51.5 105.25,-51.5 105.25,-57.5 99.25,-63.5 93.25,-63.5"/>
<text xml:space="preserve" text-anchor="middle" x="52.62" y="-46.2" font-family="Helvetica,sans-Serif" font-size="14.00">Warmup</text>
<text xml:space="preserve" text-anchor="middle" x="52.62" y="-31.2" font-family="Helvetica,sans-Serif" font-size="14.00">2m → 25 VUs</text>
<text xml:space="preserve" text-anchor="middle" x="52.62" y="-13.2" font-family="Helvetica,sans-Serif" font-size="14.00">~100 req/wave</text>
</g>
<!-- spike1 -->
<g id="node2" class="node">
<title>spike1</title>
<path fill="#bfdbfe" stroke="#334155" d="M279.75,-71C279.75,-71 157.25,-71 157.25,-71 151.25,-71 145.25,-65 145.25,-59 145.25,-59 145.25,-12 145.25,-12 145.25,-6 151.25,0 157.25,0 157.25,0 279.75,0 279.75,0 285.75,0 291.75,-6 291.75,-12 291.75,-12 291.75,-59 291.75,-59 291.75,-65 285.75,-71 279.75,-71"/>
<text xml:space="preserve" text-anchor="middle" x="218.5" y="-53.7" font-family="Helvetica,sans-Serif" font-size="14.00">Spike 1</text>
<text xml:space="preserve" text-anchor="middle" x="218.5" y="-38.7" font-family="Helvetica,sans-Serif" font-size="14.00">30s ramp → 100 VUs</text>
<text xml:space="preserve" text-anchor="middle" x="218.5" y="-20.7" font-family="Helvetica,sans-Serif" font-size="14.00">2m hold</text>
<text xml:space="preserve" text-anchor="middle" x="218.5" y="-5.7" font-family="Helvetica,sans-Serif" font-size="14.00">~400 req/wave</text>
</g>
<!-- warmup&#45;&gt;spike1 -->
<g id="edge1" class="edge">
<title>warmup&#45;&gt;spike1</title>
<path fill="none" stroke="#475569" d="M105.48,-35.5C115.1,-35.5 125.36,-35.5 135.62,-35.5"/>
<polygon fill="#475569" stroke="#475569" points="135.51,-38.3 143.51,-35.5 135.51,-32.7 135.51,-38.3"/>
</g>
<!-- recovery1 -->
<g id="node3" class="node">
<title>recovery1</title>
<path fill="#f1f5f9" stroke="#334155" d="M443,-63.5C443,-63.5 343.75,-63.5 343.75,-63.5 337.75,-63.5 331.75,-57.5 331.75,-51.5 331.75,-51.5 331.75,-19.5 331.75,-19.5 331.75,-13.5 337.75,-7.5 343.75,-7.5 343.75,-7.5 443,-7.5 443,-7.5 449,-7.5 455,-13.5 455,-19.5 455,-19.5 455,-51.5 455,-51.5 455,-57.5 449,-63.5 443,-63.5"/>
<text xml:space="preserve" text-anchor="middle" x="393.38" y="-46.2" font-family="Helvetica,sans-Serif" font-size="14.00">Recovery</text>
<text xml:space="preserve" text-anchor="middle" x="393.38" y="-31.2" font-family="Helvetica,sans-Serif" font-size="14.00">1m30s → 25 VUs</text>
<text xml:space="preserve" text-anchor="middle" x="393.38" y="-13.2" font-family="Helvetica,sans-Serif" font-size="14.00">~100 req/wave</text>
</g>
<!-- spike1&#45;&gt;recovery1 -->
<g id="edge2" class="edge">
<title>spike1&#45;&gt;recovery1</title>
<path fill="none" stroke="#475569" d="M292.06,-35.5C302.01,-35.5 312.2,-35.5 322.1,-35.5"/>
<polygon fill="#475569" stroke="#475569" points="321.97,-38.3 329.97,-35.5 321.97,-32.7 321.97,-38.3"/>
</g>
<!-- spike2 -->
<g id="node4" class="node">
<title>spike2</title>
<path fill="#fde68a" stroke="#334155" d="M629.5,-71C629.5,-71 507,-71 507,-71 501,-71 495,-65 495,-59 495,-59 495,-12 495,-12 495,-6 501,0 507,0 507,0 629.5,0 629.5,0 635.5,0 641.5,-6 641.5,-12 641.5,-12 641.5,-59 641.5,-59 641.5,-65 635.5,-71 629.5,-71"/>
<text xml:space="preserve" text-anchor="middle" x="568.25" y="-53.7" font-family="Helvetica,sans-Serif" font-size="14.00">Spike 2</text>
<text xml:space="preserve" text-anchor="middle" x="568.25" y="-38.7" font-family="Helvetica,sans-Serif" font-size="14.00">30s ramp → 200 VUs</text>
<text xml:space="preserve" text-anchor="middle" x="568.25" y="-20.7" font-family="Helvetica,sans-Serif" font-size="14.00">2m hold</text>
<text xml:space="preserve" text-anchor="middle" x="568.25" y="-5.7" font-family="Helvetica,sans-Serif" font-size="14.00">~800 req/wave</text>
</g>
<!-- recovery1&#45;&gt;spike2 -->
<g id="edge3" class="edge">
<title>recovery1&#45;&gt;spike2</title>
<path fill="none" stroke="#475569" d="M455.32,-35.5C465.07,-35.5 475.3,-35.5 485.44,-35.5"/>
<polygon fill="#475569" stroke="#475569" points="485.2,-38.3 493.2,-35.5 485.2,-32.7 485.2,-38.3"/>
</g>
<!-- recovery2 -->
<g id="node5" class="node">
<title>recovery2</title>
<path fill="#f1f5f9" stroke="#334155" d="M792.75,-63.5C792.75,-63.5 693.5,-63.5 693.5,-63.5 687.5,-63.5 681.5,-57.5 681.5,-51.5 681.5,-51.5 681.5,-19.5 681.5,-19.5 681.5,-13.5 687.5,-7.5 693.5,-7.5 693.5,-7.5 792.75,-7.5 792.75,-7.5 798.75,-7.5 804.75,-13.5 804.75,-19.5 804.75,-19.5 804.75,-51.5 804.75,-51.5 804.75,-57.5 798.75,-63.5 792.75,-63.5"/>
<text xml:space="preserve" text-anchor="middle" x="743.12" y="-46.2" font-family="Helvetica,sans-Serif" font-size="14.00">Recovery</text>
<text xml:space="preserve" text-anchor="middle" x="743.12" y="-31.2" font-family="Helvetica,sans-Serif" font-size="14.00">1m30s → 25 VUs</text>
<text xml:space="preserve" text-anchor="middle" x="743.12" y="-13.2" font-family="Helvetica,sans-Serif" font-size="14.00">~100 req/wave</text>
</g>
<!-- spike2&#45;&gt;recovery2 -->
<g id="edge4" class="edge">
<title>spike2&#45;&gt;recovery2</title>
<path fill="none" stroke="#475569" d="M641.81,-35.5C651.76,-35.5 661.95,-35.5 671.85,-35.5"/>
<polygon fill="#475569" stroke="#475569" points="671.72,-38.3 679.72,-35.5 671.72,-32.7 671.72,-38.3"/>
</g>
<!-- spike3 -->
<g id="node6" class="node">
<title>spike3</title>
<path fill="#fecaca" stroke="#334155" d="M979.25,-71C979.25,-71 856.75,-71 856.75,-71 850.75,-71 844.75,-65 844.75,-59 844.75,-59 844.75,-12 844.75,-12 844.75,-6 850.75,0 856.75,0 856.75,0 979.25,0 979.25,0 985.25,0 991.25,-6 991.25,-12 991.25,-12 991.25,-59 991.25,-59 991.25,-65 985.25,-71 979.25,-71"/>
<text xml:space="preserve" text-anchor="middle" x="918" y="-53.7" font-family="Helvetica,sans-Serif" font-size="14.00">Spike 3</text>
<text xml:space="preserve" text-anchor="middle" x="918" y="-38.7" font-family="Helvetica,sans-Serif" font-size="14.00">30s ramp → 400 VUs</text>
<text xml:space="preserve" text-anchor="middle" x="918" y="-20.7" font-family="Helvetica,sans-Serif" font-size="14.00">2m hold</text>
<text xml:space="preserve" text-anchor="middle" x="918" y="-5.7" font-family="Helvetica,sans-Serif" font-size="14.00">~1600 req/wave</text>
</g>
<!-- recovery2&#45;&gt;spike3 -->
<g id="edge5" class="edge">
<title>recovery2&#45;&gt;spike3</title>
<path fill="none" stroke="#475569" d="M805.07,-35.5C814.82,-35.5 825.05,-35.5 835.19,-35.5"/>
<polygon fill="#475569" stroke="#475569" points="834.95,-38.3 842.95,-35.5 834.95,-32.7 834.95,-38.3"/>
</g>
<!-- rampdown -->
<g id="node7" class="node">
<title>rampdown</title>
<path fill="#e2e8f0" stroke="#334155" d="M1135,-56C1135,-56 1043.25,-56 1043.25,-56 1037.25,-56 1031.25,-50 1031.25,-44 1031.25,-44 1031.25,-27 1031.25,-27 1031.25,-21 1037.25,-15 1043.25,-15 1043.25,-15 1135,-15 1135,-15 1141,-15 1147,-21 1147,-27 1147,-27 1147,-44 1147,-44 1147,-50 1141,-56 1135,-56"/>
<text xml:space="preserve" text-anchor="middle" x="1089.12" y="-38.7" font-family="Helvetica,sans-Serif" font-size="14.00">Ramp down</text>
<text xml:space="preserve" text-anchor="middle" x="1089.12" y="-23.7" font-family="Helvetica,sans-Serif" font-size="14.00">2m30s → 0 VUs</text>
</g>
<!-- spike3&#45;&gt;rampdown -->
<g id="edge6" class="edge">
<title>spike3&#45;&gt;rampdown</title>
<path fill="none" stroke="#475569" d="M991.71,-35.5C1001.61,-35.5 1011.74,-35.5 1021.53,-35.5"/>
<polygon fill="#475569" stroke="#475569" points="1021.28,-38.3 1029.28,-35.5 1021.28,-32.7 1021.28,-38.3"/>
</g>
</g>
</svg>
