<?xml version="1.0" encoding="UTF-8" standalone="no"?>
<!DOCTYPE svg PUBLIC "-//W3C//DTD SVG 1.1//EN"
 "http://www.w3.org/Graphics/SVG/1.1/DTD/svg11.dtd">
<!-- Generated by graphviz version 15.0.0 (20260523.1842)
 -->
<!-- Title: traffic_spike_target_heatmap Pages: 1 -->
<svg width="1284pt" height="271pt"
 viewBox="0.00 0.00 1284.00 271.00" xmlns="http://www.w3.org/2000/svg" xmlns:xlink="http://www.w3.org/1999/xlink">
<g id="graph0" class="graph" transform="scale(1 1) rotate(0) translate(4 266.5)">
<title>traffic_spike_target_heatmap</title>
<polygon fill="white" stroke="none" points="-4,4 -4,-266.5 1279.5,-266.5 1279.5,4 -4,4"/>
<text xml:space="preserve" text-anchor="middle" x="637.75" y="-237.6" font-family="Helvetica,sans-Serif" font-size="22.00">Traffic Spike Test Targets</text>
<!-- target_heatmap -->
<g id="node1" class="node">
<title>target_heatmap</title>
<polygon fill="#e0f2fe" stroke="none" points="309.25,-200 309.25,-231 445.25,-231 445.25,-200 309.25,-200"/>
<polygon fill="none" stroke="#334155" points="309.25,-200 309.25,-231 445.25,-231 445.25,-200 309.25,-200"/>
<text xml:space="preserve" text-anchor="start" x="358.88" y="-210.7" font-family="Helvetica,sans-Serif" font-weight="bold" font-size="14.00">Stage</text>
<polygon fill="#e0f2fe" stroke="none" points="445.25,-200 445.25,-231 487.5,-231 487.5,-200 445.25,-200"/>
<polygon fill="none" stroke="#334155" points="445.25,-200 445.25,-231 487.5,-231 487.5,-200 445.25,-200"/>
<text xml:space="preserve" text-anchor="start" x="453.25" y="-210.7" font-family="Helvetica,sans-Serif" font-weight="bold" font-size="14.00">VUs</text>
<polygon fill="#e0f2fe" stroke="none" points="487.5,-200 487.5,-231 609.25,-231 609.25,-200 487.5,-200"/>
<polygon fill="none" stroke="#334155" points="487.5,-200 487.5,-231 609.25,-231 609.25,-200 487.5,-200"/>
<text xml:space="preserve" text-anchor="start" x="495.5" y="-210.7" font-family="Helvetica,sans-Serif" font-weight="bold" font-size="14.00">Requests / wave</text>
<polygon fill="#dcfce7" stroke="none" points="609.25,-200 609.25,-231 707.75,-231 707.75,-200 609.25,-200"/>
<polygon fill="none" stroke="#334155" points="609.25,-200 609.25,-231 707.75,-231 707.75,-200 609.25,-200"/>
<text xml:space="preserve" text-anchor="start" x="617.25" y="-210.7" font-family="Helvetica,sans-Serif" font-weight="bold" font-size="14.00">Cart updates</text>
<polygon fill="#fef3c7" stroke="none" points="707.75,-200 707.75,-231 846,-231 846,-200 707.75,-200"/>
<polygon fill="none" stroke="#334155" points="707.75,-200 707.75,-231 846,-231 846,-200 707.75,-200"/>
<text xml:space="preserve" text-anchor="start" x="715.75" y="-210.7" font-family="Helvetica,sans-Serif" font-weight="bold" font-size="14.00">Checkout attempts</text>
<polygon fill="#dbeafe" stroke="none" points="846,-200 846,-231 966.25,-231 966.25,-200 846,-200"/>
<polygon fill="none" stroke="#334155" points="846,-200 846,-231 966.25,-231 966.25,-200 846,-200"/>
<text xml:space="preserve" text-anchor="start" x="854" y="-210.7" font-family="Helvetica,sans-Serif" font-weight="bold" font-size="14.00">Region changes</text>
<polygon fill="none" stroke="#334155" points="309.25,-169 309.25,-200 445.25,-200 445.25,-169 309.25,-169"/>
<text xml:space="preserve" text-anchor="start" x="317.25" y="-180.75" font-family="Helvetica,sans-Serif" font-size="14.00">Warmup / Recovery</text>
<polygon fill="none" stroke="#334155" points="445.25,-169 445.25,-200 487.5,-200 487.5,-169 445.25,-169"/>
<text xml:space="preserve" text-anchor="start" x="458.88" y="-179.7" font-family="Helvetica,sans-Serif" font-weight="bold" font-size="14.00">25</text>
<polygon fill="#e2e8f0" stroke="none" points="487.5,-169 487.5,-200 609.25,-200 609.25,-169 487.5,-169"/>
<polygon fill="none" stroke="#334155" points="487.5,-169 487.5,-200 609.25,-200 609.25,-169 487.5,-169"/>
<text xml:space="preserve" text-anchor="start" x="537.12" y="-180.75" font-family="Helvetica,sans-Serif" font-size="14.00">100</text>
<polygon fill="#bbf7d0" stroke="none" points="609.25,-169 609.25,-200 707.75,-200 707.75,-169 609.25,-169"/>
<polygon fill="none" stroke="#334155" points="609.25,-169 609.25,-200 707.75,-200 707.75,-169 609.25,-169"/>
<text xml:space="preserve" text-anchor="start" x="651" y="-180.75" font-family="Helvetica,sans-Serif" font-size="14.00">15</text>
<polygon fill="#fde68a" stroke="none" points="707.75,-169 707.75,-200 846,-200 846,-169 707.75,-169"/>
<polygon fill="none" stroke="#334155" points="707.75,-169 707.75,-200 846,-200 846,-169 707.75,-169"/>
<text xml:space="preserve" text-anchor="start" x="773.12" y="-180.75" font-family="Helvetica,sans-Serif" font-size="14.00">5</text>
<polygon fill="#bfdbfe" stroke="none" points="846,-169 846,-200 966.25,-200 966.25,-169 846,-169"/>
<polygon fill="none" stroke="#334155" points="846,-169 846,-200 966.25,-200 966.25,-169 846,-169"/>
<text xml:space="preserve" text-anchor="start" x="898.62" y="-180.75" font-family="Helvetica,sans-Serif" font-size="14.00">25</text>
<polygon fill="none" stroke="#334155" points="309.25,-138 309.25,-169 445.25,-169 445.25,-138 309.25,-138"/>
<text xml:space="preserve" text-anchor="start" x="317.25" y="-149.75" font-family="Helvetica,sans-Serif" font-size="14.00">Spike 1</text>
<polygon fill="none" stroke="#334155" points="445.25,-138 445.25,-169 487.5,-169 487.5,-138 445.25,-138"/>
<text xml:space="preserve" text-anchor="start" x="455.12" y="-148.7" font-family="Helvetica,sans-Serif" font-weight="bold" font-size="14.00">100</text>
<polygon fill="#93c5fd" stroke="none" points="487.5,-138 487.5,-169 609.25,-169 609.25,-138 487.5,-138"/>
<polygon fill="none" stroke="#334155" points="487.5,-138 487.5,-169 609.25,-169 609.25,-138 487.5,-138"/>
<text xml:space="preserve" text-anchor="start" x="537.12" y="-148.7" font-family="Helvetica,sans-Serif" font-weight="bold" font-size="14.00">400</text>
<polygon fill="#4ade80" stroke="none" points="609.25,-138 609.25,-169 707.75,-169 707.75,-138 609.25,-138"/>
<polygon fill="none" stroke="#334155" points="609.25,-138 609.25,-169 707.75,-169 707.75,-138 609.25,-138"/>
<text xml:space="preserve" text-anchor="start" x="651" y="-148.7" font-family="Helvetica,sans-Serif" font-weight="bold" font-size="14.00">60</text>
<polygon fill="#facc15" stroke="none" points="707.75,-138 707.75,-169 846,-169 846,-138 707.75,-138"/>
<polygon fill="none" stroke="#334155" points="707.75,-138 707.75,-169 846,-169 846,-138 707.75,-138"/>
<text xml:space="preserve" text-anchor="start" x="769.38" y="-148.7" font-family="Helvetica,sans-Serif" font-weight="bold" font-size="14.00">20</text>
<polygon fill="#60a5fa" stroke="none" points="846,-138 846,-169 966.25,-169 966.25,-138 846,-138"/>
<polygon fill="none" stroke="#334155" points="846,-138 846,-169 966.25,-169 966.25,-138 846,-138"/>
<text xml:space="preserve" text-anchor="start" x="894.88" y="-148.7" font-family="Helvetica,sans-Serif" font-weight="bold" font-size="14.00">100</text>
<polygon fill="none" stroke="#334155" points="309.25,-107 309.25,-138 445.25,-138 445.25,-107 309.25,-107"/>
<text xml:space="preserve" text-anchor="start" x="317.25" y="-118.75" font-family="Helvetica,sans-Serif" font-size="14.00">Spike 2</text>
<polygon fill="none" stroke="#334155" points="445.25,-107 445.25,-138 487.5,-138 487.5,-107 445.25,-107"/>
<text xml:space="preserve" text-anchor="start" x="455.12" y="-117.7" font-family="Helvetica,sans-Serif" font-weight="bold" font-size="14.00">200</text>
<polygon fill="#3b82f6" stroke="none" points="487.5,-107 487.5,-138 609.25,-138 609.25,-107 487.5,-107"/>
<polygon fill="none" stroke="#334155" points="487.5,-107 487.5,-138 609.25,-138 609.25,-107 487.5,-107"/>
<text xml:space="preserve" text-anchor="start" x="537.12" y="-117.7" font-family="Helvetica,sans-Serif" font-weight="bold" font-size="14.00" fill="white">800</text>
<polygon fill="#22c55e" stroke="none" points="609.25,-107 609.25,-138 707.75,-138 707.75,-107 609.25,-107"/>
<polygon fill="none" stroke="#334155" points="609.25,-107 609.25,-138 707.75,-138 707.75,-107 609.25,-107"/>
<text xml:space="preserve" text-anchor="start" x="647.25" y="-117.7" font-family="Helvetica,sans-Serif" font-weight="bold" font-size="14.00">120</text>
<polygon fill="#eab308" stroke="none" points="707.75,-107 707.75,-138 846,-138 846,-107 707.75,-107"/>
<polygon fill="none" stroke="#334155" points="707.75,-107 707.75,-138 846,-138 846,-107 707.75,-107"/>
<text xml:space="preserve" text-anchor="start" x="769.38" y="-117.7" font-family="Helvetica,sans-Serif" font-weight="bold" font-size="14.00">40</text>
<polygon fill="#3b82f6" stroke="none" points="846,-107 846,-138 966.25,-138 966.25,-107 846,-107"/>
<polygon fill="none" stroke="#334155" points="846,-107 846,-138 966.25,-138 966.25,-107 846,-107"/>
<text xml:space="preserve" text-anchor="start" x="894.88" y="-117.7" font-family="Helvetica,sans-Serif" font-weight="bold" font-size="14.00" fill="white">200</text>
<polygon fill="none" stroke="#334155" points="309.25,-76 309.25,-107 445.25,-107 445.25,-76 309.25,-76"/>
<text xml:space="preserve" text-anchor="start" x="317.25" y="-87.75" font-family="Helvetica,sans-Serif" font-size="14.00">Spike 3</text>
<polygon fill="none" stroke="#334155" points="445.25,-76 445.25,-107 487.5,-107 487.5,-76 445.25,-76"/>
<text xml:space="preserve" text-anchor="start" x="455.12" y="-86.7" font-family="Helvetica,sans-Serif" font-weight="bold" font-size="14.00">400</text>
<polygon fill="#1d4ed8" stroke="none" points="487.5,-76 487.5,-107 609.25,-107 609.25,-76 487.5,-76"/>
<polygon fill="none" stroke="#334155" points="487.5,-76 487.5,-107 609.25,-107 609.25,-76 487.5,-76"/>
<text xml:space="preserve" text-anchor="start" x="533.38" y="-86.7" font-family="Helvetica,sans-Serif" font-weight="bold" font-size="14.00" fill="white">1600</text>
<polygon fill="#15803d" stroke="none" points="609.25,-76 609.25,-107 707.75,-107 707.75,-76 609.25,-76"/>
<polygon fill="none" stroke="#334155" points="609.25,-76 609.25,-107 707.75,-107 707.75,-76 609.25,-76"/>
<text xml:space="preserve" text-anchor="start" x="647.25" y="-86.7" font-family="Helvetica,sans-Serif" font-weight="bold" font-size="14.00" fill="white">240</text>
<polygon fill="#a16207" stroke="none" points="707.75,-76 707.75,-107 846,-107 846,-76 707.75,-76"/>
<polygon fill="none" stroke="#334155" points="707.75,-76 707.75,-107 846,-107 846,-76 707.75,-76"/>
<text xml:space="preserve" text-anchor="start" x="769.38" y="-86.7" font-family="Helvetica,sans-Serif" font-weight="bold" font-size="14.00" fill="white">80</text>
<polygon fill="#1d4ed8" stroke="none" points="846,-76 846,-107 966.25,-107 966.25,-76 846,-76"/>
<polygon fill="none" stroke="#334155" points="846,-76 846,-107 966.25,-107 966.25,-76 846,-76"/>
<text xml:space="preserve" text-anchor="start" x="894.88" y="-86.7" font-family="Helvetica,sans-Serif" font-weight="bold" font-size="14.00" fill="white">400</text>
<polygon fill="none" stroke="#334155" points="308.25,-75 308.25,-232 967.25,-232 967.25,-75 308.25,-75"/>
</g>
<!-- target_note -->
<g id="node2" class="node">
<title>target_note</title>
<text xml:space="preserve" text-anchor="start" x="4" y="-29.7" font-family="Helvetica,sans-Serif" font-weight="bold" font-size="14.00">Readout:</text>
<text xml:space="preserve" text-anchor="start" x="62.5" y="-29.7" font-family="Helvetica,sans-Serif" font-size="14.00"> darker cells mean more target pressure per completed wave.</text>
<text xml:space="preserve" text-anchor="start" x="4" y="-7.75" font-family="Helvetica,sans-Serif" font-size="14.00">Current config: BASE_SPIKE_USERS=100, SPIKE_MULTIPLIER=2, regional_shoppers=30 VUs, api_request_rate=8 requests/sec, storefront_actions=ramp to 5 browser VUs over 3m, hold 10m, ramp down 2m.</text>
</g>
<!-- target_heatmap&#45;&gt;target_note -->
</g>
</svg>
