<?xml version="1.0" encoding="UTF-8" standalone="no"?>
<!DOCTYPE svg PUBLIC "-//W3C//DTD SVG 1.1//EN"
 "http://www.w3.org/Graphics/SVG/1.1/DTD/svg11.dtd">
<!-- Generated by graphviz version 15.0.0 (20260523.1842)
 -->
<!-- Title: traffic_spike_request_model Pages: 1 -->
<svg width="3458pt" height="394pt"
 viewBox="0.00 0.00 3458.00 394.00" xmlns="http://www.w3.org/2000/svg" xmlns:xlink="http://www.w3.org/1999/xlink">
<g id="graph0" class="graph" transform="scale(1 1) rotate(0) translate(4 389.5)">
<title>traffic_spike_request_model</title>
<polygon fill="white" stroke="none" points="-4,4 -4,-389.5 3453.5,-389.5 3453.5,4 -4,4"/>
<text xml:space="preserve" text-anchor="middle" x="1724.75" y="-360.6" font-family="Helvetica,sans-Serif" font-size="22.00">Traffic Spike Request and Counter Model</text>
<g id="clust1" class="cluster">
<title>cluster_personas</title>
<path fill="none" stroke="#cbd5e1" stroke-dasharray="5,2" d="M20,-8C20,-8 855,-8 855,-8 861,-8 867,-14 867,-20 867,-20 867,-108 867,-108 867,-114 861,-120 855,-120 855,-120 20,-120 20,-120 14,-120 8,-114 8,-108 8,-108 8,-20 8,-20 8,-14 14,-8 20,-8"/>
<text xml:space="preserve" text-anchor="middle" x="437.5" y="-100.8" font-family="Helvetica,sans-Serif" font-size="16.00">traffic_spikes persona mix</text>
</g>
<g id="clust2" class="cluster">
<title>cluster_stages</title>
<path fill="none" stroke="#cbd5e1" stroke-dasharray="5,2" d="M1541.25,-222C1541.25,-222 3429.5,-222 3429.5,-222 3435.5,-222 3441.5,-228 3441.5,-234 3441.5,-234 3441.5,-335 3441.5,-335 3441.5,-341 3435.5,-347 3429.5,-347 3429.5,-347 1541.25,-347 1541.25,-347 1535.25,-347 1529.25,-341 1529.25,-335 1529.25,-335 1529.25,-234 1529.25,-234 1529.25,-228 1535.25,-222 1541.25,-222"/>
<text xml:space="preserve" text-anchor="middle" x="2485.38" y="-327.8" font-family="Helvetica,sans-Serif" font-size="16.00">Current k6 stages from grafana&#45;cloud&#45;traffic&#45;spikes.js</text>
</g>
<g id="clust3" class="cluster">
<title>cluster_parallel</title>
<path fill="none" stroke="#cbd5e1" stroke-dasharray="5,2" d="M1437,-36C1437,-36 1759.25,-36 1759.25,-36 1765.25,-36 1771.25,-42 1771.25,-48 1771.25,-48 1771.25,-202 1771.25,-202 1771.25,-208 1765.25,-214 1759.25,-214 1759.25,-214 1437,-214 1437,-214 1431,-214 1425,-208 1425,-202 1425,-202 1425,-48 1425,-48 1425,-42 1431,-36 1437,-36"/>
<text xml:space="preserve" text-anchor="middle" x="1598.12" y="-194.8" font-family="Helvetica,sans-Serif" font-size="16.00">Parallel scenarios in combined script</text>
</g>
<!-- note -->
<g id="node1" class="node">
<title>note</title>
<polygon fill="#fff7ed" stroke="#f97316" points="968.5,-174.12 615,-174.12 615,-127.88 974.5,-127.88 974.5,-168.12 968.5,-174.12"/>
<polyline fill="none" stroke="#f97316" points="968.5,-174.12 968.5,-168.12"/>
<polyline fill="none" stroke="#f97316" points="974.5,-168.12 968.5,-168.12"/>
<text xml:space="preserve" text-anchor="middle" x="794.75" y="-158.72" font-family="Helvetica,sans-Serif" font-size="12.00">ramping&#45;vus loops each active VU.</text>
<text xml:space="preserve" text-anchor="middle" x="794.75" y="-145.97" font-family="Helvetica,sans-Serif" font-size="12.00">Counts below are per completed VU wave.</text>
<text xml:space="preserve" text-anchor="middle" x="794.75" y="-133.22" font-family="Helvetica,sans-Serif" font-size="12.00">Actual totals depend on latency, sleeps, and iteration completion.</text>
</g>
<!-- avg -->
<g id="node2" class="node">
<title>avg</title>
<polygon fill="#ecfeff" stroke="#0891b2" points="1289,-136 1109.5,-136 1109.5,-132 1105.5,-132 1105.5,-128 1109.5,-128 1109.5,-108 1105.5,-108 1105.5,-104 1109.5,-104 1109.5,-100 1289,-100 1289,-136"/>
<polyline fill="none" stroke="#0891b2" points="1109.5,-132 1113.5,-132 1113.5,-128 1109.5,-128"/>
<polyline fill="none" stroke="#0891b2" points="1109.5,-108 1113.5,-108 1113.5,-104 1109.5,-104"/>
<text xml:space="preserve" text-anchor="middle" x="1199.25" y="-119.35" font-family="Helvetica,sans-Serif" font-size="12.00">Average traffic_spikes iteration</text>
<text xml:space="preserve" text-anchor="middle" x="1199.25" y="-106.6" font-family="Helvetica,sans-Serif" font-size="12.00">4 requests / VU wave</text>
</g>
<!-- note&#45;&gt;avg -->
<g id="edge14" class="edge">
<title>note&#45;&gt;avg</title>
<path fill="none" stroke="#475569" d="M974.93,-136.31C1017.77,-132.8 1061.96,-129.17 1099.61,-126.09"/>
<polygon fill="#475569" stroke="#475569" points="1099.78,-128.88 1107.53,-125.44 1099.32,-123.3 1099.78,-128.88"/>
</g>
<!-- warmup -->
<g id="node8" class="node">
<title>warmup</title>
<path fill="#f1f5f9" stroke="#334155" d="M1647,-314.25C1647,-314.25 1549.25,-314.25 1549.25,-314.25 1543.25,-314.25 1537.25,-308.25 1537.25,-302.25 1537.25,-302.25 1537.25,-241.75 1537.25,-241.75 1537.25,-235.75 1543.25,-229.75 1549.25,-229.75 1549.25,-229.75 1647,-229.75 1647,-229.75 1653,-229.75 1659,-235.75 1659,-241.75 1659,-241.75 1659,-302.25 1659,-302.25 1659,-308.25 1653,-314.25 1647,-314.25"/>
<text xml:space="preserve" text-anchor="middle" x="1598.12" y="-298.85" font-family="Helvetica,sans-Serif" font-size="12.00">Warmup</text>
<text xml:space="preserve" text-anchor="middle" x="1598.12" y="-286.1" font-family="Helvetica,sans-Serif" font-size="12.00">2m, 25 VUs</text>
<text xml:space="preserve" text-anchor="middle" x="1598.12" y="-273.35" font-family="Helvetica,sans-Serif" font-size="12.00">~100 requests</text>
<text xml:space="preserve" text-anchor="middle" x="1598.12" y="-260.6" font-family="Helvetica,sans-Serif" font-size="12.00">15 cart updates</text>
<text xml:space="preserve" text-anchor="middle" x="1598.12" y="-247.85" font-family="Helvetica,sans-Serif" font-size="12.00">5 checkout attempts</text>
<text xml:space="preserve" text-anchor="middle" x="1598.12" y="-235.1" font-family="Helvetica,sans-Serif" font-size="12.00">25 region changes</text>
</g>
<!-- avg&#45;&gt;warmup -->
<g id="edge15" class="edge">
<title>avg&#45;&gt;warmup</title>
<path fill="none" stroke="#475569" d="M1235.74,-136.46C1279.45,-158.71 1356.34,-196.31 1425,-222 1458.43,-234.51 1496.47,-245.85 1528.26,-254.55"/>
<polygon fill="#475569" stroke="#475569" points="1527.14,-257.15 1535.6,-256.54 1528.61,-251.75 1527.14,-257.15"/>
<text xml:space="preserve" text-anchor="middle" x="1361" y="-213.82" font-family="Helvetica,sans-Serif" font-size="11.00">stage estimates</text>
</g>
<!-- regional -->
<g id="node18" class="node">
<title>regional</title>
<path fill="#ecfdf5" stroke="#334155" d="M1706.62,-90.12C1706.62,-90.12 1489.62,-90.12 1489.62,-90.12 1483.62,-90.12 1477.62,-84.12 1477.62,-78.12 1477.62,-78.12 1477.62,-55.88 1477.62,-55.88 1477.62,-49.88 1483.62,-43.88 1489.62,-43.88 1489.62,-43.88 1706.62,-43.88 1706.62,-43.88 1712.62,-43.88 1718.62,-49.88 1718.62,-55.88 1718.62,-55.88 1718.62,-78.12 1718.62,-78.12 1718.62,-84.12 1712.62,-90.12 1706.62,-90.12"/>
<text xml:space="preserve" text-anchor="middle" x="1598.12" y="-74.72" font-family="Helvetica,sans-Serif" font-size="12.00">regional_shoppers</text>
<text xml:space="preserve" text-anchor="middle" x="1598.12" y="-61.98" font-family="Helvetica,sans-Serif" font-size="12.00">30 VUs for TEST_DURATION/default 15m</text>
<text xml:space="preserve" text-anchor="middle" x="1598.12" y="-49.23" font-family="Helvetica,sans-Serif" font-size="12.00">~120 requests per completed wave</text>
</g>
<!-- avg&#45;&gt;regional -->
<g id="edge16" class="edge">
<title>avg&#45;&gt;regional</title>
<path fill="none" stroke="#475569" d="M1289.32,-106.55C1342.03,-99.78 1409.72,-91.08 1468.19,-83.57"/>
<polygon fill="#475569" stroke="#475569" points="1468.42,-86.36 1476,-82.57 1467.7,-80.81 1468.42,-86.36"/>
<text xml:space="preserve" text-anchor="middle" x="1361" y="-104.48" font-family="Helvetica,sans-Serif" font-size="11.00">parallel HTTP load</text>
</g>
<!-- browser -->
<g id="node3" class="node">
<title>browser</title>
<path fill="#eef2ff" stroke="#334155" d="M75.5,-75.12C75.5,-75.12 28,-75.12 28,-75.12 22,-75.12 16,-69.12 16,-63.12 16,-63.12 16,-40.88 16,-40.88 16,-34.88 22,-28.88 28,-28.88 28,-28.88 75.5,-28.88 75.5,-28.88 81.5,-28.88 87.5,-34.88 87.5,-40.88 87.5,-40.88 87.5,-63.12 87.5,-63.12 87.5,-69.12 81.5,-75.12 75.5,-75.12"/>
<text xml:space="preserve" text-anchor="middle" x="51.75" y="-59.73" font-family="Helvetica,sans-Serif" font-size="12.00">browser</text>
<text xml:space="preserve" text-anchor="middle" x="51.75" y="-46.98" font-family="Helvetica,sans-Serif" font-size="12.00">3 requests</text>
<text xml:space="preserve" text-anchor="middle" x="51.75" y="-34.23" font-family="Helvetica,sans-Serif" font-size="12.00">region +1</text>
</g>
<!-- cart_builder -->
<g id="node4" class="node">
<title>cart_builder</title>
<path fill="#f0fdf4" stroke="#334155" d="M228.25,-81.5C228.25,-81.5 154.5,-81.5 154.5,-81.5 148.5,-81.5 142.5,-75.5 142.5,-69.5 142.5,-69.5 142.5,-34.5 142.5,-34.5 142.5,-28.5 148.5,-22.5 154.5,-22.5 154.5,-22.5 228.25,-22.5 228.25,-22.5 234.25,-22.5 240.25,-28.5 240.25,-34.5 240.25,-34.5 240.25,-69.5 240.25,-69.5 240.25,-75.5 234.25,-81.5 228.25,-81.5"/>
<text xml:space="preserve" text-anchor="middle" x="191.38" y="-66.1" font-family="Helvetica,sans-Serif" font-size="12.00">cart_builder</text>
<text xml:space="preserve" text-anchor="middle" x="191.38" y="-53.35" font-family="Helvetica,sans-Serif" font-size="12.00">4 requests</text>
<text xml:space="preserve" text-anchor="middle" x="191.38" y="-40.6" font-family="Helvetica,sans-Serif" font-size="12.00">region +1</text>
<text xml:space="preserve" text-anchor="middle" x="191.38" y="-27.85" font-family="Helvetica,sans-Serif" font-size="12.00">cart updates +1</text>
</g>
<!-- browser&#45;&gt;cart_builder -->
<!-- account_manager -->
<g id="node5" class="node">
<title>account_manager</title>
<path fill="#f8fafc" stroke="#334155" d="M395.25,-75.12C395.25,-75.12 307.25,-75.12 307.25,-75.12 301.25,-75.12 295.25,-69.12 295.25,-63.12 295.25,-63.12 295.25,-40.88 295.25,-40.88 295.25,-34.88 301.25,-28.88 307.25,-28.88 307.25,-28.88 395.25,-28.88 395.25,-28.88 401.25,-28.88 407.25,-34.88 407.25,-40.88 407.25,-40.88 407.25,-63.12 407.25,-63.12 407.25,-69.12 401.25,-75.12 395.25,-75.12"/>
<text xml:space="preserve" text-anchor="middle" x="351.25" y="-59.73" font-family="Helvetica,sans-Serif" font-size="12.00">account_manager</text>
<text xml:space="preserve" text-anchor="middle" x="351.25" y="-46.98" font-family="Helvetica,sans-Serif" font-size="12.00">4 requests</text>
<text xml:space="preserve" text-anchor="middle" x="351.25" y="-34.23" font-family="Helvetica,sans-Serif" font-size="12.00">region +1</text>
</g>
<!-- cart_builder&#45;&gt;account_manager -->
<!-- sale_hunter -->
<g id="node6" class="node">
<title>sale_hunter</title>
<path fill="#fefce8" stroke="#334155" d="M548,-81.5C548,-81.5 474.25,-81.5 474.25,-81.5 468.25,-81.5 462.25,-75.5 462.25,-69.5 462.25,-69.5 462.25,-34.5 462.25,-34.5 462.25,-28.5 468.25,-22.5 474.25,-22.5 474.25,-22.5 548,-22.5 548,-22.5 554,-22.5 560,-28.5 560,-34.5 560,-34.5 560,-69.5 560,-69.5 560,-75.5 554,-81.5 548,-81.5"/>
<text xml:space="preserve" text-anchor="middle" x="511.12" y="-66.1" font-family="Helvetica,sans-Serif" font-size="12.00">sale_hunter</text>
<text xml:space="preserve" text-anchor="middle" x="511.12" y="-53.35" font-family="Helvetica,sans-Serif" font-size="12.00">4 requests</text>
<text xml:space="preserve" text-anchor="middle" x="511.12" y="-40.6" font-family="Helvetica,sans-Serif" font-size="12.00">region +1</text>
<text xml:space="preserve" text-anchor="middle" x="511.12" y="-27.85" font-family="Helvetica,sans-Serif" font-size="12.00">cart updates +1</text>
</g>
<!-- account_manager&#45;&gt;sale_hunter -->
<!-- checkout -->
<g id="node7" class="node">
<title>checkout</title>
<path fill="#fef2f2" stroke="#334155" d="M847,-87.88C847,-87.88 742.5,-87.88 742.5,-87.88 736.5,-87.88 730.5,-81.88 730.5,-75.88 730.5,-75.88 730.5,-28.12 730.5,-28.12 730.5,-22.12 736.5,-16.12 742.5,-16.12 742.5,-16.12 847,-16.12 847,-16.12 853,-16.12 859,-22.12 859,-28.12 859,-28.12 859,-75.88 859,-75.88 859,-81.88 853,-87.88 847,-87.88"/>
<text xml:space="preserve" text-anchor="middle" x="794.75" y="-72.47" font-family="Helvetica,sans-Serif" font-size="12.00">checkout</text>
<text xml:space="preserve" text-anchor="middle" x="794.75" y="-59.73" font-family="Helvetica,sans-Serif" font-size="12.00">5 requests</text>
<text xml:space="preserve" text-anchor="middle" x="794.75" y="-46.98" font-family="Helvetica,sans-Serif" font-size="12.00">region +1</text>
<text xml:space="preserve" text-anchor="middle" x="794.75" y="-34.23" font-family="Helvetica,sans-Serif" font-size="12.00">cart updates +1</text>
<text xml:space="preserve" text-anchor="middle" x="794.75" y="-21.48" font-family="Helvetica,sans-Serif" font-size="12.00">checkout attempts +1</text>
</g>
<!-- sale_hunter&#45;&gt;checkout -->
<!-- checkout&#45;&gt;avg -->
<g id="edge17" class="edge">
<title>checkout&#45;&gt;avg</title>
<path fill="none" stroke="#475569" d="M859.08,-62.39C923.76,-72.99 1025.04,-89.6 1100.11,-101.91"/>
<polygon fill="#475569" stroke="#475569" points="1099.28,-104.61 1107.63,-103.14 1100.19,-99.08 1099.28,-104.61"/>
<text xml:space="preserve" text-anchor="middle" x="1042" y="-100.05" font-family="Helvetica,sans-Serif" font-size="11.00">persona average</text>
</g>
<!-- ramp1 -->
<g id="node9" class="node">
<title>ramp1</title>
<path fill="#dbeafe" stroke="#334155" d="M1934.75,-314.25C1934.75,-314.25 1830.25,-314.25 1830.25,-314.25 1824.25,-314.25 1818.25,-308.25 1818.25,-302.25 1818.25,-302.25 1818.25,-241.75 1818.25,-241.75 1818.25,-235.75 1824.25,-229.75 1830.25,-229.75 1830.25,-229.75 1934.75,-229.75 1934.75,-229.75 1940.75,-229.75 1946.75,-235.75 1946.75,-241.75 1946.75,-241.75 1946.75,-302.25 1946.75,-302.25 1946.75,-308.25 1940.75,-314.25 1934.75,-314.25"/>
<text xml:space="preserve" text-anchor="middle" x="1882.5" y="-298.85" font-family="Helvetica,sans-Serif" font-size="12.00">Ramp to Spike 1</text>
<text xml:space="preserve" text-anchor="middle" x="1882.5" y="-286.1" font-family="Helvetica,sans-Serif" font-size="12.00">30s, 100 VUs</text>
<text xml:space="preserve" text-anchor="middle" x="1882.5" y="-273.35" font-family="Helvetica,sans-Serif" font-size="12.00">up to ~400 requests</text>
<text xml:space="preserve" text-anchor="middle" x="1882.5" y="-260.6" font-family="Helvetica,sans-Serif" font-size="12.00">60 cart updates</text>
<text xml:space="preserve" text-anchor="middle" x="1882.5" y="-247.85" font-family="Helvetica,sans-Serif" font-size="12.00">20 checkout attempts</text>
<text xml:space="preserve" text-anchor="middle" x="1882.5" y="-235.1" font-family="Helvetica,sans-Serif" font-size="12.00">100 region changes</text>
</g>
<!-- warmup&#45;&gt;ramp1 -->
<g id="edge5" class="edge">
<title>warmup&#45;&gt;ramp1</title>
<path fill="none" stroke="#475569" d="M1659.36,-272C1703,-272 1762.23,-272 1808.55,-272"/>
<polygon fill="#475569" stroke="#475569" points="1808.42,-274.8 1816.42,-272 1808.42,-269.2 1808.42,-274.8"/>
</g>
<!-- hold1 -->
<g id="node10" class="node">
<title>hold1</title>
<path fill="#bfdbfe" stroke="#334155" d="M2119,-314.25C2119,-314.25 2013.75,-314.25 2013.75,-314.25 2007.75,-314.25 2001.75,-308.25 2001.75,-302.25 2001.75,-302.25 2001.75,-241.75 2001.75,-241.75 2001.75,-235.75 2007.75,-229.75 2013.75,-229.75 2013.75,-229.75 2119,-229.75 2119,-229.75 2125,-229.75 2131,-235.75 2131,-241.75 2131,-241.75 2131,-302.25 2131,-302.25 2131,-308.25 2125,-314.25 2119,-314.25"/>
<text xml:space="preserve" text-anchor="middle" x="2066.38" y="-298.85" font-family="Helvetica,sans-Serif" font-size="12.00">Hold Spike 1</text>
<text xml:space="preserve" text-anchor="middle" x="2066.38" y="-286.1" font-family="Helvetica,sans-Serif" font-size="12.00">2m, 100 VUs</text>
<text xml:space="preserve" text-anchor="middle" x="2066.38" y="-273.35" font-family="Helvetica,sans-Serif" font-size="12.00">~400 requests / wave</text>
<text xml:space="preserve" text-anchor="middle" x="2066.38" y="-260.6" font-family="Helvetica,sans-Serif" font-size="12.00">60 cart updates</text>
<text xml:space="preserve" text-anchor="middle" x="2066.38" y="-247.85" font-family="Helvetica,sans-Serif" font-size="12.00">20 checkout attempts</text>
<text xml:space="preserve" text-anchor="middle" x="2066.38" y="-235.1" font-family="Helvetica,sans-Serif" font-size="12.00">100 region changes</text>
</g>
<!-- ramp1&#45;&gt;hold1 -->
<g id="edge6" class="edge">
<title>ramp1&#45;&gt;hold1</title>
<path fill="none" stroke="#475569" d="M1947.11,-272C1961.7,-272 1977.33,-272 1992.28,-272"/>
<polygon fill="#475569" stroke="#475569" points="1991.98,-274.8 1999.98,-272 1991.98,-269.2 1991.98,-274.8"/>
</g>
<!-- recovery1 -->
<g id="node11" class="node">
<title>recovery1</title>
<path fill="#f1f5f9" stroke="#334155" d="M2303.25,-314.25C2303.25,-314.25 2198,-314.25 2198,-314.25 2192,-314.25 2186,-308.25 2186,-302.25 2186,-302.25 2186,-241.75 2186,-241.75 2186,-235.75 2192,-229.75 2198,-229.75 2198,-229.75 2303.25,-229.75 2303.25,-229.75 2309.25,-229.75 2315.25,-235.75 2315.25,-241.75 2315.25,-241.75 2315.25,-302.25 2315.25,-302.25 2315.25,-308.25 2309.25,-314.25 2303.25,-314.25"/>
<text xml:space="preserve" text-anchor="middle" x="2250.62" y="-298.85" font-family="Helvetica,sans-Serif" font-size="12.00">Recovery</text>
<text xml:space="preserve" text-anchor="middle" x="2250.62" y="-286.1" font-family="Helvetica,sans-Serif" font-size="12.00">1m30s, 25 VUs</text>
<text xml:space="preserve" text-anchor="middle" x="2250.62" y="-273.35" font-family="Helvetica,sans-Serif" font-size="12.00">~100 requests / wave</text>
<text xml:space="preserve" text-anchor="middle" x="2250.62" y="-260.6" font-family="Helvetica,sans-Serif" font-size="12.00">15 cart updates</text>
<text xml:space="preserve" text-anchor="middle" x="2250.62" y="-247.85" font-family="Helvetica,sans-Serif" font-size="12.00">5 checkout attempts</text>
<text xml:space="preserve" text-anchor="middle" x="2250.62" y="-235.1" font-family="Helvetica,sans-Serif" font-size="12.00">25 region changes</text>
</g>
<!-- hold1&#45;&gt;recovery1 -->
<g id="edge7" class="edge">
<title>hold1&#45;&gt;recovery1</title>
<path fill="none" stroke="#475569" d="M2131.37,-272C2145.98,-272 2161.62,-272 2176.57,-272"/>
<polygon fill="#475569" stroke="#475569" points="2176.27,-274.8 2184.27,-272 2176.27,-269.2 2176.27,-274.8"/>
</g>
<!-- ramp2 -->
<g id="node12" class="node">
<title>ramp2</title>
<path fill="#fde68a" stroke="#334155" d="M2486.75,-314.25C2486.75,-314.25 2382.25,-314.25 2382.25,-314.25 2376.25,-314.25 2370.25,-308.25 2370.25,-302.25 2370.25,-302.25 2370.25,-241.75 2370.25,-241.75 2370.25,-235.75 2376.25,-229.75 2382.25,-229.75 2382.25,-229.75 2486.75,-229.75 2486.75,-229.75 2492.75,-229.75 2498.75,-235.75 2498.75,-241.75 2498.75,-241.75 2498.75,-302.25 2498.75,-302.25 2498.75,-308.25 2492.75,-314.25 2486.75,-314.25"/>
<text xml:space="preserve" text-anchor="middle" x="2434.5" y="-298.85" font-family="Helvetica,sans-Serif" font-size="12.00">Ramp to Spike 2</text>
<text xml:space="preserve" text-anchor="middle" x="2434.5" y="-286.1" font-family="Helvetica,sans-Serif" font-size="12.00">30s, 200 VUs</text>
<text xml:space="preserve" text-anchor="middle" x="2434.5" y="-273.35" font-family="Helvetica,sans-Serif" font-size="12.00">up to ~800 requests</text>
<text xml:space="preserve" text-anchor="middle" x="2434.5" y="-260.6" font-family="Helvetica,sans-Serif" font-size="12.00">120 cart updates</text>
<text xml:space="preserve" text-anchor="middle" x="2434.5" y="-247.85" font-family="Helvetica,sans-Serif" font-size="12.00">40 checkout attempts</text>
<text xml:space="preserve" text-anchor="middle" x="2434.5" y="-235.1" font-family="Helvetica,sans-Serif" font-size="12.00">200 region changes</text>
</g>
<!-- recovery1&#45;&gt;ramp2 -->
<g id="edge8" class="edge">
<title>recovery1&#45;&gt;ramp2</title>
<path fill="none" stroke="#475569" d="M2315.75,-272C2330.31,-272 2345.89,-272 2360.79,-272"/>
<polygon fill="#475569" stroke="#475569" points="2360.44,-274.8 2368.44,-272 2360.44,-269.2 2360.44,-274.8"/>
</g>
<!-- hold2 -->
<g id="node13" class="node">
<title>hold2</title>
<path fill="#fcd34d" stroke="#334155" d="M2671,-314.25C2671,-314.25 2565.75,-314.25 2565.75,-314.25 2559.75,-314.25 2553.75,-308.25 2553.75,-302.25 2553.75,-302.25 2553.75,-241.75 2553.75,-241.75 2553.75,-235.75 2559.75,-229.75 2565.75,-229.75 2565.75,-229.75 2671,-229.75 2671,-229.75 2677,-229.75 2683,-235.75 2683,-241.75 2683,-241.75 2683,-302.25 2683,-302.25 2683,-308.25 2677,-314.25 2671,-314.25"/>
<text xml:space="preserve" text-anchor="middle" x="2618.38" y="-298.85" font-family="Helvetica,sans-Serif" font-size="12.00">Hold Spike 2</text>
<text xml:space="preserve" text-anchor="middle" x="2618.38" y="-286.1" font-family="Helvetica,sans-Serif" font-size="12.00">2m, 200 VUs</text>
<text xml:space="preserve" text-anchor="middle" x="2618.38" y="-273.35" font-family="Helvetica,sans-Serif" font-size="12.00">~800 requests / wave</text>
<text xml:space="preserve" text-anchor="middle" x="2618.38" y="-260.6" font-family="Helvetica,sans-Serif" font-size="12.00">120 cart updates</text>
<text xml:space="preserve" text-anchor="middle" x="2618.38" y="-247.85" font-family="Helvetica,sans-Serif" font-size="12.00">40 checkout attempts</text>
<text xml:space="preserve" text-anchor="middle" x="2618.38" y="-235.1" font-family="Helvetica,sans-Serif" font-size="12.00">200 region changes</text>
</g>
<!-- ramp2&#45;&gt;hold2 -->
<g id="edge9" class="edge">
<title>ramp2&#45;&gt;hold2</title>
<path fill="none" stroke="#475569" d="M2499.11,-272C2513.7,-272 2529.33,-272 2544.28,-272"/>
<polygon fill="#475569" stroke="#475569" points="2543.98,-274.8 2551.98,-272 2543.98,-269.2 2543.98,-274.8"/>
</g>
<!-- recovery2 -->
<g id="node14" class="node">
<title>recovery2</title>
<path fill="#f1f5f9" stroke="#334155" d="M2855.25,-314.25C2855.25,-314.25 2750,-314.25 2750,-314.25 2744,-314.25 2738,-308.25 2738,-302.25 2738,-302.25 2738,-241.75 2738,-241.75 2738,-235.75 2744,-229.75 2750,-229.75 2750,-229.75 2855.25,-229.75 2855.25,-229.75 2861.25,-229.75 2867.25,-235.75 2867.25,-241.75 2867.25,-241.75 2867.25,-302.25 2867.25,-302.25 2867.25,-308.25 2861.25,-314.25 2855.25,-314.25"/>
<text xml:space="preserve" text-anchor="middle" x="2802.62" y="-298.85" font-family="Helvetica,sans-Serif" font-size="12.00">Recovery</text>
<text xml:space="preserve" text-anchor="middle" x="2802.62" y="-286.1" font-family="Helvetica,sans-Serif" font-size="12.00">1m30s, 25 VUs</text>
<text xml:space="preserve" text-anchor="middle" x="2802.62" y="-273.35" font-family="Helvetica,sans-Serif" font-size="12.00">~100 requests / wave</text>
<text xml:space="preserve" text-anchor="middle" x="2802.62" y="-260.6" font-family="Helvetica,sans-Serif" font-size="12.00">15 cart updates</text>
<text xml:space="preserve" text-anchor="middle" x="2802.62" y="-247.85" font-family="Helvetica,sans-Serif" font-size="12.00">5 checkout attempts</text>
<text xml:space="preserve" text-anchor="middle" x="2802.62" y="-235.1" font-family="Helvetica,sans-Serif" font-size="12.00">25 region changes</text>
</g>
<!-- hold2&#45;&gt;recovery2 -->
<g id="edge10" class="edge">
<title>hold2&#45;&gt;recovery2</title>
<path fill="none" stroke="#475569" d="M2683.37,-272C2697.98,-272 2713.62,-272 2728.57,-272"/>
<polygon fill="#475569" stroke="#475569" points="2728.27,-274.8 2736.27,-272 2728.27,-269.2 2728.27,-274.8"/>
</g>
<!-- ramp3 -->
<g id="node15" class="node">
<title>ramp3</title>
<path fill="#fecaca" stroke="#334155" d="M3038.75,-314.25C3038.75,-314.25 2934.25,-314.25 2934.25,-314.25 2928.25,-314.25 2922.25,-308.25 2922.25,-302.25 2922.25,-302.25 2922.25,-241.75 2922.25,-241.75 2922.25,-235.75 2928.25,-229.75 2934.25,-229.75 2934.25,-229.75 3038.75,-229.75 3038.75,-229.75 3044.75,-229.75 3050.75,-235.75 3050.75,-241.75 3050.75,-241.75 3050.75,-302.25 3050.75,-302.25 3050.75,-308.25 3044.75,-314.25 3038.75,-314.25"/>
<text xml:space="preserve" text-anchor="middle" x="2986.5" y="-298.85" font-family="Helvetica,sans-Serif" font-size="12.00">Ramp to Spike 3</text>
<text xml:space="preserve" text-anchor="middle" x="2986.5" y="-286.1" font-family="Helvetica,sans-Serif" font-size="12.00">30s, 400 VUs</text>
<text xml:space="preserve" text-anchor="middle" x="2986.5" y="-273.35" font-family="Helvetica,sans-Serif" font-size="12.00">up to ~1600 requests</text>
<text xml:space="preserve" text-anchor="middle" x="2986.5" y="-260.6" font-family="Helvetica,sans-Serif" font-size="12.00">240 cart updates</text>
<text xml:space="preserve" text-anchor="middle" x="2986.5" y="-247.85" font-family="Helvetica,sans-Serif" font-size="12.00">80 checkout attempts</text>
<text xml:space="preserve" text-anchor="middle" x="2986.5" y="-235.1" font-family="Helvetica,sans-Serif" font-size="12.00">400 region changes</text>
</g>
<!-- recovery2&#45;&gt;ramp3 -->
<g id="edge11" class="edge">
<title>recovery2&#45;&gt;ramp3</title>
<path fill="none" stroke="#475569" d="M2867.75,-272C2882.31,-272 2897.89,-272 2912.79,-272"/>
<polygon fill="#475569" stroke="#475569" points="2912.44,-274.8 2920.44,-272 2912.44,-269.2 2912.44,-274.8"/>
</g>
<!-- hold3 -->
<g id="node16" class="node">
<title>hold3</title>
<path fill="#fca5a5" stroke="#334155" d="M3229.75,-314.25C3229.75,-314.25 3117.75,-314.25 3117.75,-314.25 3111.75,-314.25 3105.75,-308.25 3105.75,-302.25 3105.75,-302.25 3105.75,-241.75 3105.75,-241.75 3105.75,-235.75 3111.75,-229.75 3117.75,-229.75 3117.75,-229.75 3229.75,-229.75 3229.75,-229.75 3235.75,-229.75 3241.75,-235.75 3241.75,-241.75 3241.75,-241.75 3241.75,-302.25 3241.75,-302.25 3241.75,-308.25 3235.75,-314.25 3229.75,-314.25"/>
<text xml:space="preserve" text-anchor="middle" x="3173.75" y="-298.85" font-family="Helvetica,sans-Serif" font-size="12.00">Hold Spike 3</text>
<text xml:space="preserve" text-anchor="middle" x="3173.75" y="-286.1" font-family="Helvetica,sans-Serif" font-size="12.00">2m, 400 VUs</text>
<text xml:space="preserve" text-anchor="middle" x="3173.75" y="-273.35" font-family="Helvetica,sans-Serif" font-size="12.00">~1600 requests / wave</text>
<text xml:space="preserve" text-anchor="middle" x="3173.75" y="-260.6" font-family="Helvetica,sans-Serif" font-size="12.00">240 cart updates</text>
<text xml:space="preserve" text-anchor="middle" x="3173.75" y="-247.85" font-family="Helvetica,sans-Serif" font-size="12.00">80 checkout attempts</text>
<text xml:space="preserve" text-anchor="middle" x="3173.75" y="-235.1" font-family="Helvetica,sans-Serif" font-size="12.00">400 region changes</text>
</g>
<!-- ramp3&#45;&gt;hold3 -->
<g id="edge12" class="edge">
<title>ramp3&#45;&gt;hold3</title>
<path fill="none" stroke="#475569" d="M3050.99,-272C3065.57,-272 3081.21,-272 3096.26,-272"/>
<polygon fill="#475569" stroke="#475569" points="3096.03,-274.8 3104.03,-272 3096.03,-269.2 3096.03,-274.8"/>
</g>
<!-- rampdown -->
<g id="node17" class="node">
<title>rampdown</title>
<path fill="#e2e8f0" stroke="#334155" d="M3421.5,-295.12C3421.5,-295.12 3308.75,-295.12 3308.75,-295.12 3302.75,-295.12 3296.75,-289.12 3296.75,-283.12 3296.75,-283.12 3296.75,-260.88 3296.75,-260.88 3296.75,-254.88 3302.75,-248.88 3308.75,-248.88 3308.75,-248.88 3421.5,-248.88 3421.5,-248.88 3427.5,-248.88 3433.5,-254.88 3433.5,-260.88 3433.5,-260.88 3433.5,-283.12 3433.5,-283.12 3433.5,-289.12 3427.5,-295.12 3421.5,-295.12"/>
<text xml:space="preserve" text-anchor="middle" x="3365.12" y="-279.73" font-family="Helvetica,sans-Serif" font-size="12.00">Ramp down</text>
<text xml:space="preserve" text-anchor="middle" x="3365.12" y="-266.98" font-family="Helvetica,sans-Serif" font-size="12.00">2m30s, 0 VUs</text>
<text xml:space="preserve" text-anchor="middle" x="3365.12" y="-254.22" font-family="Helvetica,sans-Serif" font-size="12.00">requests decrease to 0</text>
</g>
<!-- hold3&#45;&gt;rampdown -->
<g id="edge13" class="edge">
<title>hold3&#45;&gt;rampdown</title>
<path fill="none" stroke="#475569" d="M3242.05,-272C3256.66,-272 3272.23,-272 3287.19,-272"/>
<polygon fill="#475569" stroke="#475569" points="3286.89,-274.8 3294.89,-272 3286.89,-269.2 3286.89,-274.8"/>
</g>
<!-- storefront -->
<g id="node19" class="node">
<title>storefront</title>
<path fill="#faf5ff" stroke="#334155" d="M1751.25,-181.5C1751.25,-181.5 1445,-181.5 1445,-181.5 1439,-181.5 1433,-175.5 1433,-169.5 1433,-169.5 1433,-134.5 1433,-134.5 1433,-128.5 1439,-122.5 1445,-122.5 1445,-122.5 1751.25,-122.5 1751.25,-122.5 1757.25,-122.5 1763.25,-128.5 1763.25,-134.5 1763.25,-134.5 1763.25,-169.5 1763.25,-169.5 1763.25,-175.5 1757.25,-181.5 1751.25,-181.5"/>
<text xml:space="preserve" text-anchor="middle" x="1598.12" y="-166.1" font-family="Helvetica,sans-Serif" font-size="12.00">storefront_actions</text>
<text xml:space="preserve" text-anchor="middle" x="1598.12" y="-153.35" font-family="Helvetica,sans-Serif" font-size="12.00">ramp to 60 browser VUs over 3m, hold 10m, ramp down 2m</text>
<text xml:space="preserve" text-anchor="middle" x="1598.12" y="-140.6" font-family="Helvetica,sans-Serif" font-size="12.00">Faro UI actions + browser metrics</text>
<text xml:space="preserve" text-anchor="middle" x="1598.12" y="-127.85" font-family="Helvetica,sans-Serif" font-size="12.00">standard http_reqs may be n/a</text>
</g>
</g>
</svg>
