<?xml version="1.0" encoding="UTF-8" standalone="no"?>
<!DOCTYPE svg PUBLIC "-//W3C//DTD SVG 1.1//EN"
 "http://www.w3.org/Graphics/SVG/1.1/DTD/svg11.dtd">
<!-- Generated by graphviz version 15.0.0 (20260523.1842)
 -->
<!-- Title: traffic_spike_target_heatmap Pages: 1 -->
<svg width="1276pt" height="271pt"
 viewBox="0.00 0.00 1276.00 271.00" xmlns="http://www.w3.org/2000/svg" xmlns:xlink="http://www.w3.org/1999/xlink">
<g id="graph0" class="graph" transform="scale(1 1) rotate(0) translate(4 266.5)">
<title>traffic_spike_target_heatmap</title>
<polygon fill="white" stroke="none" points="-4,4 -4,-266.5 1272,-266.5 1272,4 -4,4"/>
<text xml:space="preserve" text-anchor="middle" x="634" y="-237.6" font-family="Helvetica,sans-Serif" font-size="22.00">Traffic Spike Test Targets</text>
<!-- target_heatmap -->
<g id="node1" class="node">
<title>target_heatmap</title>
<polygon fill="#e0f2fe" stroke="none" points="305.5,-200 305.5,-231 441.5,-231 441.5,-200 305.5,-200"/>
<polygon fill="none" stroke="#334155" points="305.5,-200 305.5,-231 441.5,-231 441.5,-200 305.5,-200"/>
<text xml:space="preserve" text-anchor="start" x="355.12" y="-210.7" font-family="Helvetica,sans-Serif" font-weight="bold" font-size="14.00">Stage</text>
<polygon fill="#e0f2fe" stroke="none" points="441.5,-200 441.5,-231 483.75,-231 483.75,-200 441.5,-200"/>
<polygon fill="none" stroke="#334155" points="441.5,-200 441.5,-231 483.75,-231 483.75,-200 441.5,-200"/>
<text xml:space="preserve" text-anchor="start" x="449.5" y="-210.7" font-family="Helvetica,sans-Serif" font-weight="bold" font-size="14.00">VUs</text>
<polygon fill="#e0f2fe" stroke="none" points="483.75,-200 483.75,-231 605.5,-231 605.5,-200 483.75,-200"/>
<polygon fill="none" stroke="#334155" points="483.75,-200 483.75,-231 605.5,-231 605.5,-200 483.75,-200"/>
<text xml:space="preserve" text-anchor="start" x="491.75" y="-210.7" font-family="Helvetica,sans-Serif" font-weight="bold" font-size="14.00">Requests / wave</text>
<polygon fill="#dcfce7" stroke="none" points="605.5,-200 605.5,-231 704,-231 704,-200 605.5,-200"/>
<polygon fill="none" stroke="#334155" points="605.5,-200 605.5,-231 704,-231 704,-200 605.5,-200"/>
<text xml:space="preserve" text-anchor="start" x="613.5" y="-210.7" font-family="Helvetica,sans-Serif" font-weight="bold" font-size="14.00">Cart updates</text>
<polygon fill="#fef3c7" stroke="none" points="704,-200 704,-231 842.25,-231 842.25,-200 704,-200"/>
<polygon fill="none" stroke="#334155" points="704,-200 704,-231 842.25,-231 842.25,-200 704,-200"/>
<text xml:space="preserve" text-anchor="start" x="712" y="-210.7" font-family="Helvetica,sans-Serif" font-weight="bold" font-size="14.00">Checkout attempts</text>
<polygon fill="#dbeafe" stroke="none" points="842.25,-200 842.25,-231 962.5,-231 962.5,-200 842.25,-200"/>
<polygon fill="none" stroke="#334155" points="842.25,-200 842.25,-231 962.5,-231 962.5,-200 842.25,-200"/>
<text xml:space="preserve" text-anchor="start" x="850.25" y="-210.7" font-family="Helvetica,sans-Serif" font-weight="bold" font-size="14.00">Region changes</text>
<polygon fill="none" stroke="#334155" points="305.5,-169 305.5,-200 441.5,-200 441.5,-169 305.5,-169"/>
<text xml:space="preserve" text-anchor="start" x="313.5" y="-180.75" font-family="Helvetica,sans-Serif" font-size="14.00">Warmup / Recovery</text>
<polygon fill="none" stroke="#334155" points="441.5,-169 441.5,-200 483.75,-200 483.75,-169 441.5,-169"/>
<text xml:space="preserve" text-anchor="start" x="455.12" y="-179.7" font-family="Helvetica,sans-Serif" font-weight="bold" font-size="14.00">25</text>
<polygon fill="#e2e8f0" stroke="none" points="483.75,-169 483.75,-200 605.5,-200 605.5,-169 483.75,-169"/>
<polygon fill="none" stroke="#334155" points="483.75,-169 483.75,-200 605.5,-200 605.5,-169 483.75,-169"/>
<text xml:space="preserve" text-anchor="start" x="533.38" y="-180.75" font-family="Helvetica,sans-Serif" font-size="14.00">100</text>
<polygon fill="#bbf7d0" stroke="none" points="605.5,-169 605.5,-200 704,-200 704,-169 605.5,-169"/>
<polygon fill="none" stroke="#334155" points="605.5,-169 605.5,-200 704,-200 704,-169 605.5,-169"/>
<text xml:space="preserve" text-anchor="start" x="647.25" y="-180.75" font-family="Helvetica,sans-Serif" font-size="14.00">15</text>
<polygon fill="#fde68a" stroke="none" points="704,-169 704,-200 842.25,-200 842.25,-169 704,-169"/>
<polygon fill="none" stroke="#334155" points="704,-169 704,-200 842.25,-200 842.25,-169 704,-169"/>
<text xml:space="preserve" text-anchor="start" x="769.38" y="-180.75" font-family="Helvetica,sans-Serif" font-size="14.00">5</text>
<polygon fill="#bfdbfe" stroke="none" points="842.25,-169 842.25,-200 962.5,-200 962.5,-169 842.25,-169"/>
<polygon fill="none" stroke="#334155" points="842.25,-169 842.25,-200 962.5,-200 962.5,-169 842.25,-169"/>
<text xml:space="preserve" text-anchor="start" x="894.88" y="-180.75" font-family="Helvetica,sans-Serif" font-size="14.00">25</text>
<polygon fill="none" stroke="#334155" points="305.5,-138 305.5,-169 441.5,-169 441.5,-138 305.5,-138"/>
<text xml:space="preserve" text-anchor="start" x="313.5" y="-149.75" font-family="Helvetica,sans-Serif" font-size="14.00">Spike 1</text>
<polygon fill="none" stroke="#334155" points="441.5,-138 441.5,-169 483.75,-169 483.75,-138 441.5,-138"/>
<text xml:space="preserve" text-anchor="start" x="451.38" y="-148.7" font-family="Helvetica,sans-Serif" font-weight="bold" font-size="14.00">100</text>
<polygon fill="#93c5fd" stroke="none" points="483.75,-138 483.75,-169 605.5,-169 605.5,-138 483.75,-138"/>
<polygon fill="none" stroke="#334155" points="483.75,-138 483.75,-169 605.5,-169 605.5,-138 483.75,-138"/>
<text xml:space="preserve" text-anchor="start" x="533.38" y="-148.7" font-family="Helvetica,sans-Serif" font-weight="bold" font-size="14.00">400</text>
<polygon fill="#4ade80" stroke="none" points="605.5,-138 605.5,-169 704,-169 704,-138 605.5,-138"/>
<polygon fill="none" stroke="#334155" points="605.5,-138 605.5,-169 704,-169 704,-138 605.5,-138"/>
<text xml:space="preserve" text-anchor="start" x="647.25" y="-148.7" font-family="Helvetica,sans-Serif" font-weight="bold" font-size="14.00">60</text>
<polygon fill="#facc15" stroke="none" points="704,-138 704,-169 842.25,-169 842.25,-138 704,-138"/>
<polygon fill="none" stroke="#334155" points="704,-138 704,-169 842.25,-169 842.25,-138 704,-138"/>
<text xml:space="preserve" text-anchor="start" x="765.62" y="-148.7" font-family="Helvetica,sans-Serif" font-weight="bold" font-size="14.00">20</text>
<polygon fill="#60a5fa" stroke="none" points="842.25,-138 842.25,-169 962.5,-169 962.5,-138 842.25,-138"/>
<polygon fill="none" stroke="#334155" points="842.25,-138 842.25,-169 962.5,-169 962.5,-138 842.25,-138"/>
<text xml:space="preserve" text-anchor="start" x="891.12" y="-148.7" font-family="Helvetica,sans-Serif" font-weight="bold" font-size="14.00">100</text>
<polygon fill="none" stroke="#334155" points="305.5,-107 305.5,-138 441.5,-138 441.5,-107 305.5,-107"/>
<text xml:space="preserve" text-anchor="start" x="313.5" y="-118.75" font-family="Helvetica,sans-Serif" font-size="14.00">Spike 2</text>
<polygon fill="none" stroke="#334155" points="441.5,-107 441.5,-138 483.75,-138 483.75,-107 441.5,-107"/>
<text xml:space="preserve" text-anchor="start" x="451.38" y="-117.7" font-family="Helvetica,sans-Serif" font-weight="bold" font-size="14.00">200</text>
<polygon fill="#3b82f6" stroke="none" points="483.75,-107 483.75,-138 605.5,-138 605.5,-107 483.75,-107"/>
<polygon fill="none" stroke="#334155" points="483.75,-107 483.75,-138 605.5,-138 605.5,-107 483.75,-107"/>
<text xml:space="preserve" text-anchor="start" x="533.38" y="-117.7" font-family="Helvetica,sans-Serif" font-weight="bold" font-size="14.00" fill="white">800</text>
<polygon fill="#22c55e" stroke="none" points="605.5,-107 605.5,-138 704,-138 704,-107 605.5,-107"/>
<polygon fill="none" stroke="#334155" points="605.5,-107 605.5,-138 704,-138 704,-107 605.5,-107"/>
<text xml:space="preserve" text-anchor="start" x="643.5" y="-117.7" font-family="Helvetica,sans-Serif" font-weight="bold" font-size="14.00">120</text>
<polygon fill="#eab308" stroke="none" points="704,-107 704,-138 842.25,-138 842.25,-107 704,-107"/>
<polygon fill="none" stroke="#334155" points="704,-107 704,-138 842.25,-138 842.25,-107 704,-107"/>
<text xml:space="preserve" text-anchor="start" x="765.62" y="-117.7" font-family="Helvetica,sans-Serif" font-weight="bold" font-size="14.00">40</text>
<polygon fill="#3b82f6" stroke="none" points="842.25,-107 842.25,-138 962.5,-138 962.5,-107 842.25,-107"/>
<polygon fill="none" stroke="#334155" points="842.25,-107 842.25,-138 962.5,-138 962.5,-107 842.25,-107"/>
<text xml:space="preserve" text-anchor="start" x="891.12" y="-117.7" font-family="Helvetica,sans-Serif" font-weight="bold" font-size="14.00" fill="white">200</text>
<polygon fill="none" stroke="#334155" points="305.5,-76 305.5,-107 441.5,-107 441.5,-76 305.5,-76"/>
<text xml:space="preserve" text-anchor="start" x="313.5" y="-87.75" font-family="Helvetica,sans-Serif" font-size="14.00">Spike 3</text>
<polygon fill="none" stroke="#334155" points="441.5,-76 441.5,-107 483.75,-107 483.75,-76 441.5,-76"/>
<text xml:space="preserve" text-anchor="start" x="451.38" y="-86.7" font-family="Helvetica,sans-Serif" font-weight="bold" font-size="14.00">400</text>
<polygon fill="#1d4ed8" stroke="none" points="483.75,-76 483.75,-107 605.5,-107 605.5,-76 483.75,-76"/>
<polygon fill="none" stroke="#334155" points="483.75,-76 483.75,-107 605.5,-107 605.5,-76 483.75,-76"/>
<text xml:space="preserve" text-anchor="start" x="529.62" y="-86.7" font-family="Helvetica,sans-Serif" font-weight="bold" font-size="14.00" fill="white">1600</text>
<polygon fill="#15803d" stroke="none" points="605.5,-76 605.5,-107 704,-107 704,-76 605.5,-76"/>
<polygon fill="none" stroke="#334155" points="605.5,-76 605.5,-107 704,-107 704,-76 605.5,-76"/>
<text xml:space="preserve" text-anchor="start" x="643.5" y="-86.7" font-family="Helvetica,sans-Serif" font-weight="bold" font-size="14.00" fill="white">240</text>
<polygon fill="#a16207" stroke="none" points="704,-76 704,-107 842.25,-107 842.25,-76 704,-76"/>
<polygon fill="none" stroke="#334155" points="704,-76 704,-107 842.25,-107 842.25,-76 704,-76"/>
<text xml:space="preserve" text-anchor="start" x="765.62" y="-86.7" font-family="Helvetica,sans-Serif" font-weight="bold" font-size="14.00" fill="white">80</text>
<polygon fill="#1d4ed8" stroke="none" points="842.25,-76 842.25,-107 962.5,-107 962.5,-76 842.25,-76"/>
<polygon fill="none" stroke="#334155" points="842.25,-76 842.25,-107 962.5,-107 962.5,-76 842.25,-76"/>
<text xml:space="preserve" text-anchor="start" x="891.12" y="-86.7" font-family="Helvetica,sans-Serif" font-weight="bold" font-size="14.00" fill="white">400</text>
<polygon fill="none" stroke="#334155" points="304.5,-75 304.5,-232 963.5,-232 963.5,-75 304.5,-75"/>
</g>
<!-- target_note -->
<g id="node2" class="node">
<title>target_note</title>
<text xml:space="preserve" text-anchor="start" x="4" y="-29.7" font-family="Helvetica,sans-Serif" font-weight="bold" font-size="14.00">Readout:</text>
<text xml:space="preserve" text-anchor="start" x="62.5" y="-29.7" font-family="Helvetica,sans-Serif" font-size="14.00"> darker cells mean more target pressure per completed wave.</text>
<text xml:space="preserve" text-anchor="start" x="4" y="-7.75" font-family="Helvetica,sans-Serif" font-size="14.00">Current config: BASE_SPIKE_USERS=100, SPIKE_MULTIPLIER=2, regional_shoppers=30 VUs, api_request_rate=5 requests/sec, storefront_actions=ramp to 5 browser VUs over 2m, hold 6m, ramp down 2m.</text>
</g>
<!-- target_heatmap&#45;&gt;target_note -->
</g>
</svg>
