<?xml version="1.0" encoding="UTF-8" standalone="no"?>
<!DOCTYPE svg PUBLIC "-//W3C//DTD SVG 1.1//EN"
 "http://www.w3.org/Graphics/SVG/1.1/DTD/svg11.dtd">
<!-- Generated by graphviz version 15.0.0 (20260523.1842)
 -->
<!-- Title: traffic_spike_request_tables Pages: 1 -->
<svg width="867pt" height="1017pt"
 viewBox="0.00 0.00 867.00 1017.00" xmlns="http://www.w3.org/2000/svg" xmlns:xlink="http://www.w3.org/1999/xlink">
<g id="graph0" class="graph" transform="scale(1 1) rotate(0) translate(4 1013)">
<title>traffic_spike_request_tables</title>
<polygon fill="white" stroke="none" points="-4,4 -4,-1013 863.25,-1013 863.25,4 -4,4"/>
<text xml:space="preserve" text-anchor="middle" x="429.62" y="-984.1" font-family="Helvetica,sans-Serif" font-size="22.00">Traffic Spike Request Model</text>
<!-- caveat -->
<g id="node1" class="node">
<title>caveat</title>
<polygon fill="#fff7ed" stroke="none" points="100.25,-946.5 100.25,-977.5 759,-977.5 759,-946.5 100.25,-946.5"/>
<text xml:space="preserve" text-anchor="start" x="375.25" y="-957.2" font-family="Helvetica,sans-Serif" font-weight="bold" font-size="14.00">Important caveat</text>
<text xml:space="preserve" text-anchor="start" x="108.25" y="-926.2" font-family="Helvetica,sans-Serif" font-size="14.00">Requests per stage are not fixed. </text>
<text xml:space="preserve" text-anchor="start" x="310.75" y="-926.2" font-family="Helvetica,sans-Serif" font-weight="bold" font-size="14.00">ramping&#45;vus</text>
<text xml:space="preserve" text-anchor="start" x="392.5" y="-926.2" font-family="Helvetica,sans-Serif" font-size="14.00"> keeps each active VU looping as fast as the journey allows.</text>
<text xml:space="preserve" text-anchor="start" x="175.75" y="-912.2" font-family="Helvetica,sans-Serif" font-size="14.00">Exact totals depend on response time, persona sleep time, and completed iterations.</text>
<polygon fill="none" stroke="#f97316" points="99.25,-901.5 99.25,-978.5 760,-978.5 760,-901.5 99.25,-901.5"/>
</g>
<!-- persona_table -->
<g id="node2" class="node">
<title>persona_table</title>
<polygon fill="#e0f2fe" stroke="none" points="17.12,-822.5 17.12,-853.5 842.12,-853.5 842.12,-822.5 17.12,-822.5"/>
<polygon fill="none" stroke="#334155" points="17.12,-822.5 17.12,-853.5 842.12,-853.5 842.12,-822.5 17.12,-822.5"/>
<text xml:space="preserve" text-anchor="start" x="298" y="-833.2" font-family="Helvetica,sans-Serif" font-weight="bold" font-size="14.00">Per completed traffic&#45;spike user iteration</text>
<polygon fill="#f1f5f9" stroke="none" points="17.12,-791.5 17.12,-822.5 156.88,-822.5 156.88,-791.5 17.12,-791.5"/>
<polygon fill="none" stroke="#334155" points="17.12,-791.5 17.12,-822.5 156.88,-822.5 156.88,-791.5 17.12,-791.5"/>
<text xml:space="preserve" text-anchor="start" x="60.38" y="-802.2" font-family="Helvetica,sans-Serif" font-weight="bold" font-size="14.00">Persona</text>
<polygon fill="#f1f5f9" stroke="none" points="156.88,-791.5 156.88,-822.5 233.62,-822.5 233.62,-791.5 156.88,-791.5"/>
<polygon fill="none" stroke="#334155" points="156.88,-791.5 156.88,-822.5 233.62,-822.5 233.62,-791.5 156.88,-791.5"/>
<text xml:space="preserve" text-anchor="start" x="164.88" y="-802.2" font-family="Helvetica,sans-Serif" font-weight="bold" font-size="14.00">Requests</text>
<polygon fill="#f1f5f9" stroke="none" points="233.62,-791.5 233.62,-822.5 842.12,-822.5 842.12,-791.5 233.62,-791.5"/>
<polygon fill="none" stroke="#334155" points="233.62,-791.5 233.62,-822.5 842.12,-822.5 842.12,-791.5 233.62,-791.5"/>
<text xml:space="preserve" text-anchor="start" x="479" y="-802.2" font-family="Helvetica,sans-Serif" font-weight="bold" font-size="14.00">Counters / actions</text>
<polygon fill="none" stroke="#334155" points="17.12,-759 17.12,-791.5 156.88,-791.5 156.88,-759 17.12,-759"/>
<text xml:space="preserve" text-anchor="start" x="25.12" y="-771.5" font-family="Courier,monospace" font-size="14.00">browser</text>
<polygon fill="none" stroke="#334155" points="156.88,-759 156.88,-791.5 233.62,-791.5 233.62,-759 156.88,-759"/>
<text xml:space="preserve" text-anchor="start" x="218.12" y="-771.5" font-family="Helvetica,sans-Serif" font-size="14.00">3</text>
<polygon fill="none" stroke="#334155" points="233.62,-759 233.62,-791.5 842.12,-791.5 842.12,-759 233.62,-759"/>
<text xml:space="preserve" text-anchor="start" x="241.62" y="-771.5" font-family="Courier,monospace" font-size="14.00">spike_region_changes +1</text>
<polygon fill="none" stroke="#334155" points="17.12,-726.5 17.12,-759 156.88,-759 156.88,-726.5 17.12,-726.5"/>
<text xml:space="preserve" text-anchor="start" x="25.12" y="-739" font-family="Courier,monospace" font-size="14.00">cart_builder</text>
<polygon fill="none" stroke="#334155" points="156.88,-726.5 156.88,-759 233.62,-759 233.62,-726.5 156.88,-726.5"/>
<text xml:space="preserve" text-anchor="start" x="218.12" y="-739" font-family="Helvetica,sans-Serif" font-size="14.00">4</text>
<polygon fill="none" stroke="#334155" points="233.62,-726.5 233.62,-759 842.12,-759 842.12,-726.5 233.62,-726.5"/>
<text xml:space="preserve" text-anchor="start" x="241.62" y="-738.7" font-family="Courier,monospace" font-size="14.00">spike_region_changes +1</text>
<text xml:space="preserve" text-anchor="start" x="431.38" y="-738.7" font-family="Helvetica,sans-Serif" font-size="14.00">, </text>
<text xml:space="preserve" text-anchor="start" x="438.88" y="-738.7" font-family="Courier,monospace" font-size="14.00">spike_cart_updates +1</text>
<polygon fill="none" stroke="#334155" points="17.12,-694 17.12,-726.5 156.88,-726.5 156.88,-694 17.12,-694"/>
<text xml:space="preserve" text-anchor="start" x="25.12" y="-706.5" font-family="Courier,monospace" font-size="14.00">account_manager</text>
<polygon fill="none" stroke="#334155" points="156.88,-694 156.88,-726.5 233.62,-726.5 233.62,-694 156.88,-694"/>
<text xml:space="preserve" text-anchor="start" x="218.12" y="-706.5" font-family="Helvetica,sans-Serif" font-size="14.00">4</text>
<polygon fill="none" stroke="#334155" points="233.62,-694 233.62,-726.5 842.12,-726.5 842.12,-694 233.62,-694"/>
<text xml:space="preserve" text-anchor="start" x="241.62" y="-706.5" font-family="Courier,monospace" font-size="14.00">spike_region_changes +1</text>
<polygon fill="none" stroke="#334155" points="17.12,-661.5 17.12,-694 156.88,-694 156.88,-661.5 17.12,-661.5"/>
<text xml:space="preserve" text-anchor="start" x="25.12" y="-674" font-family="Courier,monospace" font-size="14.00">sale_hunter</text>
<polygon fill="none" stroke="#334155" points="156.88,-661.5 156.88,-694 233.62,-694 233.62,-661.5 156.88,-661.5"/>
<text xml:space="preserve" text-anchor="start" x="218.12" y="-674" font-family="Helvetica,sans-Serif" font-size="14.00">4</text>
<polygon fill="none" stroke="#334155" points="233.62,-661.5 233.62,-694 842.12,-694 842.12,-661.5 233.62,-661.5"/>
<text xml:space="preserve" text-anchor="start" x="241.62" y="-673.7" font-family="Courier,monospace" font-size="14.00">spike_region_changes +1</text>
<text xml:space="preserve" text-anchor="start" x="431.38" y="-673.7" font-family="Helvetica,sans-Serif" font-size="14.00">, </text>
<text xml:space="preserve" text-anchor="start" x="438.88" y="-673.7" font-family="Courier,monospace" font-size="14.00">spike_cart_updates +1</text>
<polygon fill="none" stroke="#334155" points="17.12,-629 17.12,-661.5 156.88,-661.5 156.88,-629 17.12,-629"/>
<text xml:space="preserve" text-anchor="start" x="25.12" y="-641.5" font-family="Courier,monospace" font-size="14.00">checkout</text>
<polygon fill="none" stroke="#334155" points="156.88,-629 156.88,-661.5 233.62,-661.5 233.62,-629 156.88,-629"/>
<text xml:space="preserve" text-anchor="start" x="218.12" y="-641.5" font-family="Helvetica,sans-Serif" font-size="14.00">5</text>
<polygon fill="none" stroke="#334155" points="233.62,-629 233.62,-661.5 842.12,-661.5 842.12,-629 233.62,-629"/>
<text xml:space="preserve" text-anchor="start" x="241.62" y="-641.2" font-family="Courier,monospace" font-size="14.00">spike_region_changes +1</text>
<text xml:space="preserve" text-anchor="start" x="431.38" y="-641.2" font-family="Helvetica,sans-Serif" font-size="14.00">, </text>
<text xml:space="preserve" text-anchor="start" x="438.88" y="-641.2" font-family="Courier,monospace" font-size="14.00">spike_cart_updates +1</text>
<text xml:space="preserve" text-anchor="start" x="612.12" y="-641.2" font-family="Helvetica,sans-Serif" font-size="14.00">, </text>
<text xml:space="preserve" text-anchor="start" x="619.62" y="-641.2" font-family="Courier,monospace" font-size="14.00">spike_checkout_attempts +1</text>
<polygon fill="#ecfeff" stroke="none" points="17.12,-598 17.12,-629 156.88,-629 156.88,-598 17.12,-598"/>
<polygon fill="none" stroke="#334155" points="17.12,-598 17.12,-629 156.88,-629 156.88,-598 17.12,-598"/>
<text xml:space="preserve" text-anchor="start" x="25.12" y="-608.7" font-family="Helvetica,sans-Serif" font-weight="bold" font-size="14.00">Average</text>
<polygon fill="#ecfeff" stroke="none" points="156.88,-598 156.88,-629 233.62,-629 233.62,-598 156.88,-598"/>
<polygon fill="none" stroke="#334155" points="156.88,-598 156.88,-629 233.62,-629 233.62,-598 156.88,-598"/>
<text xml:space="preserve" text-anchor="start" x="218.12" y="-608.7" font-family="Helvetica,sans-Serif" font-weight="bold" font-size="14.00">4</text>
<polygon fill="#ecfeff" stroke="none" points="233.62,-598 233.62,-629 842.12,-629 842.12,-598 233.62,-598"/>
<polygon fill="none" stroke="#334155" points="233.62,-598 233.62,-629 842.12,-629 842.12,-598 233.62,-598"/>
<text xml:space="preserve" text-anchor="start" x="241.62" y="-608.7" font-family="Helvetica,sans-Serif" font-weight="bold" font-size="14.00">requests per completed user iteration</text>
<polygon fill="none" stroke="#334155" points="16.12,-597 16.12,-854.5 843.12,-854.5 843.12,-597 16.12,-597"/>
</g>
<!-- caveat&#45;&gt;persona_table -->
<g id="edge1" class="edge">
<title>caveat&#45;&gt;persona_table</title>
<path fill="none" stroke="#94a3b8" d="M429.62,-901.54C429.62,-890.1 429.62,-876.8 429.62,-862.73"/>
<polygon fill="#94a3b8" stroke="#94a3b8" points="432.08,-862.88 429.63,-855.88 427.18,-862.88 432.08,-862.88"/>
</g>
<!-- stage_table -->
<g id="node3" class="node">
<title>stage_table</title>
<polygon fill="#dcfce7" stroke="none" points="39.88,-518 39.88,-549 819.38,-549 819.38,-518 39.88,-518"/>
<polygon fill="none" stroke="#334155" points="39.88,-518 39.88,-549 819.38,-549 819.38,-518 39.88,-518"/>
<text xml:space="preserve" text-anchor="start" x="285.25" y="-528.7" font-family="Helvetica,sans-Serif" font-weight="bold" font-size="14.00">Current stage estimates per completed wave</text>
<polygon fill="#f1f5f9" stroke="none" points="39.88,-487 39.88,-518 170.62,-518 170.62,-487 39.88,-487"/>
<polygon fill="none" stroke="#334155" points="39.88,-487 39.88,-518 170.62,-518 170.62,-487 39.88,-487"/>
<text xml:space="preserve" text-anchor="start" x="86.88" y="-497.7" font-family="Helvetica,sans-Serif" font-weight="bold" font-size="14.00">Stage</text>
<polygon fill="#f1f5f9" stroke="none" points="170.62,-487 170.62,-518 242.12,-518 242.12,-487 170.62,-487"/>
<polygon fill="none" stroke="#334155" points="170.62,-487 170.62,-518 242.12,-518 242.12,-487 170.62,-487"/>
<text xml:space="preserve" text-anchor="start" x="178.62" y="-497.7" font-family="Helvetica,sans-Serif" font-weight="bold" font-size="14.00">Duration</text>
<polygon fill="#f1f5f9" stroke="none" points="242.12,-487 242.12,-518 329.38,-518 329.38,-487 242.12,-487"/>
<polygon fill="none" stroke="#334155" points="242.12,-487 242.12,-518 329.38,-518 329.38,-487 242.12,-487"/>
<text xml:space="preserve" text-anchor="start" x="250.12" y="-497.7" font-family="Helvetica,sans-Serif" font-weight="bold" font-size="14.00">Target VUs</text>
<polygon fill="#f1f5f9" stroke="none" points="329.38,-487 329.38,-518 462.38,-518 462.38,-487 329.38,-487"/>
<polygon fill="none" stroke="#334155" points="329.38,-487 329.38,-518 462.38,-518 462.38,-487 329.38,-487"/>
<text xml:space="preserve" text-anchor="start" x="342.25" y="-497.7" font-family="Helvetica,sans-Serif" font-weight="bold" font-size="14.00">Approx requests</text>
<polygon fill="#f1f5f9" stroke="none" points="462.38,-487 462.38,-518 560.88,-518 560.88,-487 462.38,-487"/>
<polygon fill="none" stroke="#334155" points="462.38,-487 462.38,-518 560.88,-518 560.88,-487 462.38,-487"/>
<text xml:space="preserve" text-anchor="start" x="470.38" y="-497.7" font-family="Helvetica,sans-Serif" font-weight="bold" font-size="14.00">Cart updates</text>
<polygon fill="#f1f5f9" stroke="none" points="560.88,-487 560.88,-518 699.12,-518 699.12,-487 560.88,-487"/>
<polygon fill="none" stroke="#334155" points="560.88,-487 560.88,-518 699.12,-518 699.12,-487 560.88,-487"/>
<text xml:space="preserve" text-anchor="start" x="568.88" y="-497.7" font-family="Helvetica,sans-Serif" font-weight="bold" font-size="14.00">Checkout attempts</text>
<polygon fill="#f1f5f9" stroke="none" points="699.12,-487 699.12,-518 819.38,-518 819.38,-487 699.12,-487"/>
<polygon fill="none" stroke="#334155" points="699.12,-487 699.12,-518 819.38,-518 819.38,-487 699.12,-487"/>
<text xml:space="preserve" text-anchor="start" x="707.12" y="-497.7" font-family="Helvetica,sans-Serif" font-weight="bold" font-size="14.00">Region changes</text>
<polygon fill="none" stroke="#334155" points="39.88,-456 39.88,-487 170.62,-487 170.62,-456 39.88,-456"/>
<text xml:space="preserve" text-anchor="start" x="47.88" y="-467.75" font-family="Helvetica,sans-Serif" font-size="14.00">Warmup / recovery</text>
<polygon fill="none" stroke="#334155" points="170.62,-456 170.62,-487 242.12,-487 242.12,-456 170.62,-456"/>
<text xml:space="preserve" text-anchor="start" x="214.62" y="-467.75" font-family="Helvetica,sans-Serif" font-size="14.00">2m</text>
<polygon fill="none" stroke="#334155" points="242.12,-456 242.12,-487 329.38,-487 329.38,-456 242.12,-456"/>
<text xml:space="preserve" text-anchor="start" x="306.38" y="-467.75" font-family="Helvetica,sans-Serif" font-size="14.00">25</text>
<polygon fill="none" stroke="#334155" points="329.38,-456 329.38,-487 462.38,-487 462.38,-456 329.38,-456"/>
<text xml:space="preserve" text-anchor="start" x="431.88" y="-467.75" font-family="Helvetica,sans-Serif" font-size="14.00">100</text>
<polygon fill="none" stroke="#334155" points="462.38,-456 462.38,-487 560.88,-487 560.88,-456 462.38,-456"/>
<text xml:space="preserve" text-anchor="start" x="537.88" y="-467.75" font-family="Helvetica,sans-Serif" font-size="14.00">15</text>
<polygon fill="none" stroke="#334155" points="560.88,-456 560.88,-487 699.12,-487 699.12,-456 560.88,-456"/>
<text xml:space="preserve" text-anchor="start" x="683.62" y="-467.75" font-family="Helvetica,sans-Serif" font-size="14.00">5</text>
<polygon fill="none" stroke="#334155" points="699.12,-456 699.12,-487 819.38,-487 819.38,-456 699.12,-456"/>
<text xml:space="preserve" text-anchor="start" x="796.38" y="-467.75" font-family="Helvetica,sans-Serif" font-size="14.00">25</text>
<polygon fill="none" stroke="#334155" points="39.88,-425 39.88,-456 170.62,-456 170.62,-425 39.88,-425"/>
<text xml:space="preserve" text-anchor="start" x="47.88" y="-436.75" font-family="Helvetica,sans-Serif" font-size="14.00">Ramp to spike 1</text>
<polygon fill="none" stroke="#334155" points="170.62,-425 170.62,-456 242.12,-456 242.12,-425 170.62,-425"/>
<text xml:space="preserve" text-anchor="start" x="212.38" y="-436.75" font-family="Helvetica,sans-Serif" font-size="14.00">30s</text>
<polygon fill="none" stroke="#334155" points="242.12,-425 242.12,-456 329.38,-456 329.38,-425 242.12,-425"/>
<text xml:space="preserve" text-anchor="start" x="298.88" y="-436.75" font-family="Helvetica,sans-Serif" font-size="14.00">100</text>
<polygon fill="none" stroke="#334155" points="329.38,-425 329.38,-456 462.38,-456 462.38,-425 329.38,-425"/>
<text xml:space="preserve" text-anchor="start" x="344.88" y="-436.75" font-family="Helvetica,sans-Serif" font-size="14.00">up to 400 at target</text>
<polygon fill="none" stroke="#334155" points="462.38,-425 462.38,-456 560.88,-456 560.88,-425 462.38,-425"/>
<text xml:space="preserve" text-anchor="start" x="537.88" y="-436.75" font-family="Helvetica,sans-Serif" font-size="14.00">60</text>
<polygon fill="none" stroke="#334155" points="560.88,-425 560.88,-456 699.12,-456 699.12,-425 560.88,-425"/>
<text xml:space="preserve" text-anchor="start" x="676.12" y="-436.75" font-family="Helvetica,sans-Serif" font-size="14.00">20</text>
<polygon fill="none" stroke="#334155" points="699.12,-425 699.12,-456 819.38,-456 819.38,-425 699.12,-425"/>
<text xml:space="preserve" text-anchor="start" x="788.88" y="-436.75" font-family="Helvetica,sans-Serif" font-size="14.00">100</text>
<polygon fill="none" stroke="#334155" points="39.88,-394 39.88,-425 170.62,-425 170.62,-394 39.88,-394"/>
<text xml:space="preserve" text-anchor="start" x="47.88" y="-405.75" font-family="Helvetica,sans-Serif" font-size="14.00">Hold spike 1</text>
<polygon fill="none" stroke="#334155" points="170.62,-394 170.62,-425 242.12,-425 242.12,-394 170.62,-394"/>
<text xml:space="preserve" text-anchor="start" x="214.62" y="-405.75" font-family="Helvetica,sans-Serif" font-size="14.00">2m</text>
<polygon fill="none" stroke="#334155" points="242.12,-394 242.12,-425 329.38,-425 329.38,-394 242.12,-394"/>
<text xml:space="preserve" text-anchor="start" x="298.88" y="-405.75" font-family="Helvetica,sans-Serif" font-size="14.00">100</text>
<polygon fill="none" stroke="#334155" points="329.38,-394 329.38,-425 462.38,-425 462.38,-394 329.38,-394"/>
<text xml:space="preserve" text-anchor="start" x="373.38" y="-405.75" font-family="Helvetica,sans-Serif" font-size="14.00">400 per wave</text>
<polygon fill="none" stroke="#334155" points="462.38,-394 462.38,-425 560.88,-425 560.88,-394 462.38,-394"/>
<text xml:space="preserve" text-anchor="start" x="537.88" y="-405.75" font-family="Helvetica,sans-Serif" font-size="14.00">60</text>
<polygon fill="none" stroke="#334155" points="560.88,-394 560.88,-425 699.12,-425 699.12,-394 560.88,-394"/>
<text xml:space="preserve" text-anchor="start" x="676.12" y="-405.75" font-family="Helvetica,sans-Serif" font-size="14.00">20</text>
<polygon fill="none" stroke="#334155" points="699.12,-394 699.12,-425 819.38,-425 819.38,-394 699.12,-394"/>
<text xml:space="preserve" text-anchor="start" x="788.88" y="-405.75" font-family="Helvetica,sans-Serif" font-size="14.00">100</text>
<polygon fill="none" stroke="#334155" points="39.88,-363 39.88,-394 170.62,-394 170.62,-363 39.88,-363"/>
<text xml:space="preserve" text-anchor="start" x="47.88" y="-374.75" font-family="Helvetica,sans-Serif" font-size="14.00">Recovery</text>
<polygon fill="none" stroke="#334155" points="170.62,-363 170.62,-394 242.12,-394 242.12,-363 170.62,-363"/>
<text xml:space="preserve" text-anchor="start" x="192.88" y="-374.75" font-family="Helvetica,sans-Serif" font-size="14.00">1m30s</text>
<polygon fill="none" stroke="#334155" points="242.12,-363 242.12,-394 329.38,-394 329.38,-363 242.12,-363"/>
<text xml:space="preserve" text-anchor="start" x="306.38" y="-374.75" font-family="Helvetica,sans-Serif" font-size="14.00">25</text>
<polygon fill="none" stroke="#334155" points="329.38,-363 329.38,-394 462.38,-394 462.38,-363 329.38,-363"/>
<text xml:space="preserve" text-anchor="start" x="373.38" y="-374.75" font-family="Helvetica,sans-Serif" font-size="14.00">100 per wave</text>
<polygon fill="none" stroke="#334155" points="462.38,-363 462.38,-394 560.88,-394 560.88,-363 462.38,-363"/>
<text xml:space="preserve" text-anchor="start" x="537.88" y="-374.75" font-family="Helvetica,sans-Serif" font-size="14.00">15</text>
<polygon fill="none" stroke="#334155" points="560.88,-363 560.88,-394 699.12,-394 699.12,-363 560.88,-363"/>
<text xml:space="preserve" text-anchor="start" x="683.62" y="-374.75" font-family="Helvetica,sans-Serif" font-size="14.00">5</text>
<polygon fill="none" stroke="#334155" points="699.12,-363 699.12,-394 819.38,-394 819.38,-363 699.12,-363"/>
<text xml:space="preserve" text-anchor="start" x="796.38" y="-374.75" font-family="Helvetica,sans-Serif" font-size="14.00">25</text>
<polygon fill="none" stroke="#334155" points="39.88,-332 39.88,-363 170.62,-363 170.62,-332 39.88,-332"/>
<text xml:space="preserve" text-anchor="start" x="47.88" y="-343.75" font-family="Helvetica,sans-Serif" font-size="14.00">Ramp to spike 2</text>
<polygon fill="none" stroke="#334155" points="170.62,-332 170.62,-363 242.12,-363 242.12,-332 170.62,-332"/>
<text xml:space="preserve" text-anchor="start" x="212.38" y="-343.75" font-family="Helvetica,sans-Serif" font-size="14.00">30s</text>
<polygon fill="none" stroke="#334155" points="242.12,-332 242.12,-363 329.38,-363 329.38,-332 242.12,-332"/>
<text xml:space="preserve" text-anchor="start" x="298.88" y="-343.75" font-family="Helvetica,sans-Serif" font-size="14.00">200</text>
<polygon fill="none" stroke="#334155" points="329.38,-332 329.38,-363 462.38,-363 462.38,-332 329.38,-332"/>
<text xml:space="preserve" text-anchor="start" x="344.88" y="-343.75" font-family="Helvetica,sans-Serif" font-size="14.00">up to 800 at target</text>
<polygon fill="none" stroke="#334155" points="462.38,-332 462.38,-363 560.88,-363 560.88,-332 462.38,-332"/>
<text xml:space="preserve" text-anchor="start" x="530.38" y="-343.75" font-family="Helvetica,sans-Serif" font-size="14.00">120</text>
<polygon fill="none" stroke="#334155" points="560.88,-332 560.88,-363 699.12,-363 699.12,-332 560.88,-332"/>
<text xml:space="preserve" text-anchor="start" x="676.12" y="-343.75" font-family="Helvetica,sans-Serif" font-size="14.00">40</text>
<polygon fill="none" stroke="#334155" points="699.12,-332 699.12,-363 819.38,-363 819.38,-332 699.12,-332"/>
<text xml:space="preserve" text-anchor="start" x="788.88" y="-343.75" font-family="Helvetica,sans-Serif" font-size="14.00">200</text>
<polygon fill="none" stroke="#334155" points="39.88,-301 39.88,-332 170.62,-332 170.62,-301 39.88,-301"/>
<text xml:space="preserve" text-anchor="start" x="47.88" y="-312.75" font-family="Helvetica,sans-Serif" font-size="14.00">Hold spike 2</text>
<polygon fill="none" stroke="#334155" points="170.62,-301 170.62,-332 242.12,-332 242.12,-301 170.62,-301"/>
<text xml:space="preserve" text-anchor="start" x="214.62" y="-312.75" font-family="Helvetica,sans-Serif" font-size="14.00">2m</text>
<polygon fill="none" stroke="#334155" points="242.12,-301 242.12,-332 329.38,-332 329.38,-301 242.12,-301"/>
<text xml:space="preserve" text-anchor="start" x="298.88" y="-312.75" font-family="Helvetica,sans-Serif" font-size="14.00">200</text>
<polygon fill="none" stroke="#334155" points="329.38,-301 329.38,-332 462.38,-332 462.38,-301 329.38,-301"/>
<text xml:space="preserve" text-anchor="start" x="373.38" y="-312.75" font-family="Helvetica,sans-Serif" font-size="14.00">800 per wave</text>
<polygon fill="none" stroke="#334155" points="462.38,-301 462.38,-332 560.88,-332 560.88,-301 462.38,-301"/>
<text xml:space="preserve" text-anchor="start" x="530.38" y="-312.75" font-family="Helvetica,sans-Serif" font-size="14.00">120</text>
<polygon fill="none" stroke="#334155" points="560.88,-301 560.88,-332 699.12,-332 699.12,-301 560.88,-301"/>
<text xml:space="preserve" text-anchor="start" x="676.12" y="-312.75" font-family="Helvetica,sans-Serif" font-size="14.00">40</text>
<polygon fill="none" stroke="#334155" points="699.12,-301 699.12,-332 819.38,-332 819.38,-301 699.12,-301"/>
<text xml:space="preserve" text-anchor="start" x="788.88" y="-312.75" font-family="Helvetica,sans-Serif" font-size="14.00">200</text>
<polygon fill="none" stroke="#334155" points="39.88,-270 39.88,-301 170.62,-301 170.62,-270 39.88,-270"/>
<text xml:space="preserve" text-anchor="start" x="47.88" y="-281.75" font-family="Helvetica,sans-Serif" font-size="14.00">Recovery</text>
<polygon fill="none" stroke="#334155" points="170.62,-270 170.62,-301 242.12,-301 242.12,-270 170.62,-270"/>
<text xml:space="preserve" text-anchor="start" x="192.88" y="-281.75" font-family="Helvetica,sans-Serif" font-size="14.00">1m30s</text>
<polygon fill="none" stroke="#334155" points="242.12,-270 242.12,-301 329.38,-301 329.38,-270 242.12,-270"/>
<text xml:space="preserve" text-anchor="start" x="306.38" y="-281.75" font-family="Helvetica,sans-Serif" font-size="14.00">25</text>
<polygon fill="none" stroke="#334155" points="329.38,-270 329.38,-301 462.38,-301 462.38,-270 329.38,-270"/>
<text xml:space="preserve" text-anchor="start" x="373.38" y="-281.75" font-family="Helvetica,sans-Serif" font-size="14.00">100 per wave</text>
<polygon fill="none" stroke="#334155" points="462.38,-270 462.38,-301 560.88,-301 560.88,-270 462.38,-270"/>
<text xml:space="preserve" text-anchor="start" x="537.88" y="-281.75" font-family="Helvetica,sans-Serif" font-size="14.00">15</text>
<polygon fill="none" stroke="#334155" points="560.88,-270 560.88,-301 699.12,-301 699.12,-270 560.88,-270"/>
<text xml:space="preserve" text-anchor="start" x="683.62" y="-281.75" font-family="Helvetica,sans-Serif" font-size="14.00">5</text>
<polygon fill="none" stroke="#334155" points="699.12,-270 699.12,-301 819.38,-301 819.38,-270 699.12,-270"/>
<text xml:space="preserve" text-anchor="start" x="796.38" y="-281.75" font-family="Helvetica,sans-Serif" font-size="14.00">25</text>
<polygon fill="none" stroke="#334155" points="39.88,-239 39.88,-270 170.62,-270 170.62,-239 39.88,-239"/>
<text xml:space="preserve" text-anchor="start" x="47.88" y="-250.75" font-family="Helvetica,sans-Serif" font-size="14.00">Ramp to spike 3</text>
<polygon fill="none" stroke="#334155" points="170.62,-239 170.62,-270 242.12,-270 242.12,-239 170.62,-239"/>
<text xml:space="preserve" text-anchor="start" x="212.38" y="-250.75" font-family="Helvetica,sans-Serif" font-size="14.00">30s</text>
<polygon fill="none" stroke="#334155" points="242.12,-239 242.12,-270 329.38,-270 329.38,-239 242.12,-239"/>
<text xml:space="preserve" text-anchor="start" x="298.88" y="-250.75" font-family="Helvetica,sans-Serif" font-size="14.00">400</text>
<polygon fill="none" stroke="#334155" points="329.38,-239 329.38,-270 462.38,-270 462.38,-239 329.38,-239"/>
<text xml:space="preserve" text-anchor="start" x="337.38" y="-250.75" font-family="Helvetica,sans-Serif" font-size="14.00">up to 1600 at target</text>
<polygon fill="none" stroke="#334155" points="462.38,-239 462.38,-270 560.88,-270 560.88,-239 462.38,-239"/>
<text xml:space="preserve" text-anchor="start" x="530.38" y="-250.75" font-family="Helvetica,sans-Serif" font-size="14.00">240</text>
<polygon fill="none" stroke="#334155" points="560.88,-239 560.88,-270 699.12,-270 699.12,-239 560.88,-239"/>
<text xml:space="preserve" text-anchor="start" x="676.12" y="-250.75" font-family="Helvetica,sans-Serif" font-size="14.00">80</text>
<polygon fill="none" stroke="#334155" points="699.12,-239 699.12,-270 819.38,-270 819.38,-239 699.12,-239"/>
<text xml:space="preserve" text-anchor="start" x="788.88" y="-250.75" font-family="Helvetica,sans-Serif" font-size="14.00">400</text>
<polygon fill="none" stroke="#334155" points="39.88,-208 39.88,-239 170.62,-239 170.62,-208 39.88,-208"/>
<text xml:space="preserve" text-anchor="start" x="47.88" y="-219.75" font-family="Helvetica,sans-Serif" font-size="14.00">Hold spike 3</text>
<polygon fill="none" stroke="#334155" points="170.62,-208 170.62,-239 242.12,-239 242.12,-208 170.62,-208"/>
<text xml:space="preserve" text-anchor="start" x="214.62" y="-219.75" font-family="Helvetica,sans-Serif" font-size="14.00">2m</text>
<polygon fill="none" stroke="#334155" points="242.12,-208 242.12,-239 329.38,-239 329.38,-208 242.12,-208"/>
<text xml:space="preserve" text-anchor="start" x="298.88" y="-219.75" font-family="Helvetica,sans-Serif" font-size="14.00">400</text>
<polygon fill="none" stroke="#334155" points="329.38,-208 329.38,-239 462.38,-239 462.38,-208 329.38,-208"/>
<text xml:space="preserve" text-anchor="start" x="365.88" y="-219.75" font-family="Helvetica,sans-Serif" font-size="14.00">1600 per wave</text>
<polygon fill="none" stroke="#334155" points="462.38,-208 462.38,-239 560.88,-239 560.88,-208 462.38,-208"/>
<text xml:space="preserve" text-anchor="start" x="530.38" y="-219.75" font-family="Helvetica,sans-Serif" font-size="14.00">240</text>
<polygon fill="none" stroke="#334155" points="560.88,-208 560.88,-239 699.12,-239 699.12,-208 560.88,-208"/>
<text xml:space="preserve" text-anchor="start" x="676.12" y="-219.75" font-family="Helvetica,sans-Serif" font-size="14.00">80</text>
<polygon fill="none" stroke="#334155" points="699.12,-208 699.12,-239 819.38,-239 819.38,-208 699.12,-208"/>
<text xml:space="preserve" text-anchor="start" x="788.88" y="-219.75" font-family="Helvetica,sans-Serif" font-size="14.00">400</text>
<polygon fill="none" stroke="#334155" points="39.88,-177 39.88,-208 170.62,-208 170.62,-177 39.88,-177"/>
<text xml:space="preserve" text-anchor="start" x="47.88" y="-188.75" font-family="Helvetica,sans-Serif" font-size="14.00">Ramp down</text>
<polygon fill="none" stroke="#334155" points="170.62,-177 170.62,-208 242.12,-208 242.12,-177 170.62,-177"/>
<text xml:space="preserve" text-anchor="start" x="192.88" y="-188.75" font-family="Helvetica,sans-Serif" font-size="14.00">2m30s</text>
<polygon fill="none" stroke="#334155" points="242.12,-177 242.12,-208 329.38,-208 329.38,-177 242.12,-177"/>
<text xml:space="preserve" text-anchor="start" x="313.88" y="-188.75" font-family="Helvetica,sans-Serif" font-size="14.00">0</text>
<polygon fill="none" stroke="#334155" points="329.38,-177 329.38,-208 462.38,-208 462.38,-177 329.38,-177"/>
<text xml:space="preserve" text-anchor="start" x="362.12" y="-188.75" font-family="Helvetica,sans-Serif" font-size="14.00">decreasing to 0</text>
<polygon fill="none" stroke="#334155" points="462.38,-177 462.38,-208 560.88,-208 560.88,-177 462.38,-177"/>
<text xml:space="preserve" text-anchor="start" x="486.88" y="-188.75" font-family="Helvetica,sans-Serif" font-size="14.00">decreasing</text>
<polygon fill="none" stroke="#334155" points="560.88,-177 560.88,-208 699.12,-208 699.12,-177 560.88,-177"/>
<text xml:space="preserve" text-anchor="start" x="625.12" y="-188.75" font-family="Helvetica,sans-Serif" font-size="14.00">decreasing</text>
<polygon fill="none" stroke="#334155" points="699.12,-177 699.12,-208 819.38,-208 819.38,-177 699.12,-177"/>
<text xml:space="preserve" text-anchor="start" x="745.38" y="-188.75" font-family="Helvetica,sans-Serif" font-size="14.00">decreasing</text>
<polygon fill="none" stroke="#334155" points="38.88,-176 38.88,-550 820.38,-550 820.38,-176 38.88,-176"/>
</g>
<!-- persona_table&#45;&gt;stage_table -->
<g id="edge2" class="edge">
<title>persona_table&#45;&gt;stage_table</title>
<path fill="none" stroke="#94a3b8" d="M429.62,-597.06C429.62,-584.38 429.62,-571.33 429.62,-558.18"/>
<polygon fill="#94a3b8" stroke="#94a3b8" points="432.08,-558.49 429.63,-551.49 427.18,-558.49 432.08,-558.49"/>
</g>
<!-- parallel_table -->
<g id="node4" class="node">
<title>parallel_table</title>
<polygon fill="#f3e8ff" stroke="none" points="1,-97 1,-128 858.25,-128 858.25,-97 1,-97"/>
<polygon fill="none" stroke="#334155" points="1,-97 1,-128 858.25,-128 858.25,-97 1,-97"/>
<text xml:space="preserve" text-anchor="start" x="298" y="-107.7" font-family="Helvetica,sans-Serif" font-weight="bold" font-size="14.00">Parallel scenarios in the combined script</text>
<polygon fill="#f1f5f9" stroke="none" points="1,-66 1,-97 165.5,-97 165.5,-66 1,-66"/>
<polygon fill="none" stroke="#334155" points="1,-66 1,-97 165.5,-97 165.5,-66 1,-66"/>
<text xml:space="preserve" text-anchor="start" x="54.75" y="-76.7" font-family="Helvetica,sans-Serif" font-weight="bold" font-size="14.00">Scenario</text>
<polygon fill="#f1f5f9" stroke="none" points="165.5,-66 165.5,-97 366,-97 366,-66 165.5,-66"/>
<polygon fill="none" stroke="#334155" points="165.5,-66 165.5,-97 366,-97 366,-66 165.5,-66"/>
<text xml:space="preserve" text-anchor="start" x="249.62" y="-76.7" font-family="Helvetica,sans-Serif" font-weight="bold" font-size="14.00">Load</text>
<polygon fill="#f1f5f9" stroke="none" points="366,-66 366,-97 858.25,-97 858.25,-66 366,-66"/>
<polygon fill="none" stroke="#334155" points="366,-66 366,-97 858.25,-97 858.25,-66 366,-66"/>
<text xml:space="preserve" text-anchor="start" x="563.38" y="-76.7" font-family="Helvetica,sans-Serif" font-weight="bold" font-size="14.00">Request model</text>
<polygon fill="none" stroke="#334155" points="1,-33.5 1,-66 165.5,-66 165.5,-33.5 1,-33.5"/>
<text xml:space="preserve" text-anchor="start" x="9" y="-46" font-family="Courier,monospace" font-size="14.00">regional_shoppers</text>
<polygon fill="none" stroke="#334155" points="165.5,-33.5 165.5,-66 366,-66 366,-33.5 165.5,-33.5"/>
<text xml:space="preserve" text-anchor="start" x="313.75" y="-46" font-family="Helvetica,sans-Serif" font-size="14.00">30 VUs</text>
<polygon fill="none" stroke="#334155" points="366,-33.5 366,-66 858.25,-66 858.25,-33.5 366,-33.5"/>
<text xml:space="preserve" text-anchor="start" x="374" y="-46" font-family="Helvetica,sans-Serif" font-size="14.00">About 120 requests per completed wave</text>
<polygon fill="none" stroke="#334155" points="1,-1 1,-33.5 165.5,-33.5 165.5,-1 1,-1"/>
<text xml:space="preserve" text-anchor="start" x="9" y="-13.5" font-family="Courier,monospace" font-size="14.00">storefront_actions</text>
<polygon fill="none" stroke="#334155" points="165.5,-1 165.5,-33.5 366,-33.5 366,-1 165.5,-1"/>
<text xml:space="preserve" text-anchor="start" x="173.5" y="-13.5" font-family="Helvetica,sans-Serif" font-size="14.00">ramp to 60 browser VUs / 15m</text>
<polygon fill="none" stroke="#334155" points="366,-1 366,-33.5 858.25,-33.5 858.25,-1 366,-1"/>
<text xml:space="preserve" text-anchor="start" x="374" y="-13.5" font-family="Helvetica,sans-Serif" font-size="14.00">Generates Faro UI actions and browser metrics; standard http_reqs may be n/a</text>
<polygon fill="none" stroke="#334155" points="0,0 0,-129 859.25,-129 859.25,0 0,0"/>
</g>
<!-- stage_table&#45;&gt;parallel_table -->
<g id="edge3" class="edge">
<title>stage_table&#45;&gt;parallel_table</title>
<path fill="none" stroke="#94a3b8" d="M429.62,-176.33C429.62,-162.67 429.62,-149.47 429.62,-137.23"/>
<polygon fill="#94a3b8" stroke="#94a3b8" points="432.08,-137.43 429.63,-130.43 427.18,-137.43 432.08,-137.43"/>
</g>
</g>
</svg>
