<?xml version="1.0" encoding="UTF-8" standalone="no"?>
<!DOCTYPE svg PUBLIC "-//W3C//DTD SVG 1.1//EN"
 "http://www.w3.org/Graphics/SVG/1.1/DTD/svg11.dtd">
<!-- Generated by graphviz version 15.0.0 (20260523.1842)
 -->
<!-- Title: traffic_spike_request_cards Pages: 1 -->
<svg width="1485pt" height="238pt"
 viewBox="0.00 0.00 1485.00 238.00" xmlns="http://www.w3.org/2000/svg" xmlns:xlink="http://www.w3.org/1999/xlink">
<g id="graph0" class="graph" transform="scale(1 1) rotate(0) translate(4 234.25)">
<title>traffic_spike_request_cards</title>
<polygon fill="white" stroke="none" points="-4,4 -4,-234.25 1480.5,-234.25 1480.5,4 -4,4"/>
<text xml:space="preserve" text-anchor="middle" x="738.25" y="-205.35" font-family="Helvetica,sans-Serif" font-size="22.00">Traffic Spike Request Model</text>
<!-- warmup -->
<g id="node1" class="node">
<title>warmup</title>
<polygon fill="#f8fafc" stroke="none" points="97,-85 97,-112 244.75,-112 244.75,-85 97,-85"/>
<text xml:space="preserve" text-anchor="start" x="143.5" y="-93.7" font-family="Helvetica,sans-Serif" font-weight="bold" font-size="14.00">Warmup</text>
<text xml:space="preserve" text-anchor="start" x="141.25" y="-62.9" font-family="Helvetica,sans-Serif" font-weight="bold" font-size="18.00">25 VUs</text>
<text xml:space="preserve" text-anchor="start" x="126.25" y="-37" font-family="Helvetica,sans-Serif" font-size="14.00">~100 req/wave</text>
<text xml:space="preserve" text-anchor="start" x="103" y="-13" font-family="Helvetica,sans-Serif" font-size="10.00">cart 15 · checkout 5 · region 25</text>
<polygon fill="none" stroke="#64748b" points="96,-3 96,-113 245.75,-113 245.75,-3 96,-3"/>
</g>
<!-- spike1 -->
<g id="node2" class="node">
<title>spike1</title>
<polygon fill="#fee2e2" stroke="none" points="374.75,-86.88 374.75,-113.88 533,-113.88 533,-86.88 374.75,-86.88"/>
<text xml:space="preserve" text-anchor="start" x="430.25" y="-95.58" font-family="Helvetica,sans-Serif" font-weight="bold" font-size="14.00">Spike 1</text>
<text xml:space="preserve" text-anchor="start" x="411.5" y="-60.98" font-family="Helvetica,sans-Serif" font-weight="bold" font-size="22.00">100 VUs</text>
<text xml:space="preserve" text-anchor="start" x="407.38" y="-34.08" font-family="Helvetica,sans-Serif" font-weight="bold" font-size="14.00">~400 req/wave</text>
<text xml:space="preserve" text-anchor="start" x="380.75" y="-11.12" font-family="Helvetica,sans-Serif" font-size="10.00">cart 60 · checkout 20 · region 100</text>
<polygon fill="none" stroke="#ef4444" points="373.75,-1.12 373.75,-114.88 534,-114.88 534,-1.12 373.75,-1.12"/>
</g>
<!-- warmup&#45;&gt;spike1 -->
<g id="edge1" class="edge">
<title>warmup&#45;&gt;spike1</title>
<path fill="none" stroke="#94a3b8" d="M245.6,-58C245.6,-58 366.25,-58 366.25,-58"/>
<polygon fill="#94a3b8" stroke="#94a3b8" points="366.25,-60.1 372.25,-58 366.25,-55.9 366.25,-60.1"/>
</g>
<!-- recovery1 -->
<g id="node3" class="node">
<title>recovery1</title>
<polygon fill="#f8fafc" stroke="none" points="567,-85 567,-112 714.75,-112 714.75,-85 567,-85"/>
<text xml:space="preserve" text-anchor="start" x="610.5" y="-93.7" font-family="Helvetica,sans-Serif" font-weight="bold" font-size="14.00">Recovery</text>
<text xml:space="preserve" text-anchor="start" x="611.25" y="-62.9" font-family="Helvetica,sans-Serif" font-weight="bold" font-size="18.00">25 VUs</text>
<text xml:space="preserve" text-anchor="start" x="596.25" y="-37" font-family="Helvetica,sans-Serif" font-size="14.00">~100 req/wave</text>
<text xml:space="preserve" text-anchor="start" x="573" y="-13" font-family="Helvetica,sans-Serif" font-size="10.00">cart 15 · checkout 5 · region 25</text>
<polygon fill="none" stroke="#64748b" points="566,-3 566,-113 715.75,-113 715.75,-3 566,-3"/>
</g>
<!-- spike1&#45;&gt;recovery1 -->
<g id="edge2" class="edge">
<title>spike1&#45;&gt;recovery1</title>
<path fill="none" stroke="#94a3b8" d="M533.99,-58C533.99,-58 558.74,-58 558.74,-58"/>
<polygon fill="#94a3b8" stroke="#94a3b8" points="558.74,-60.1 564.74,-58 558.74,-55.9 558.74,-60.1"/>
</g>
<!-- spike2 -->
<g id="node4" class="node">
<title>spike2</title>
<polygon fill="#fecaca" stroke="none" points="748.75,-86.88 748.75,-113.88 907,-113.88 907,-86.88 748.75,-86.88"/>
<text xml:space="preserve" text-anchor="start" x="804.25" y="-95.58" font-family="Helvetica,sans-Serif" font-weight="bold" font-size="14.00">Spike 2</text>
<text xml:space="preserve" text-anchor="start" x="785.5" y="-60.98" font-family="Helvetica,sans-Serif" font-weight="bold" font-size="22.00">150 VUs</text>
<text xml:space="preserve" text-anchor="start" x="781.38" y="-34.08" font-family="Helvetica,sans-Serif" font-weight="bold" font-size="14.00">~600 req/wave</text>
<text xml:space="preserve" text-anchor="start" x="754.75" y="-11.12" font-family="Helvetica,sans-Serif" font-size="10.00">cart 90 · checkout 30 · region 150</text>
<polygon fill="none" stroke="#dc2626" points="747.75,-1.12 747.75,-114.88 908,-114.88 908,-1.12 747.75,-1.12"/>
</g>
<!-- recovery1&#45;&gt;spike2 -->
<g id="edge3" class="edge">
<title>recovery1&#45;&gt;spike2</title>
<path fill="none" stroke="#94a3b8" d="M715.59,-58C715.59,-58 740.25,-58 740.25,-58"/>
<polygon fill="#94a3b8" stroke="#94a3b8" points="740.25,-60.1 746.25,-58 740.25,-55.9 740.25,-60.1"/>
</g>
<!-- recovery2 -->
<g id="node5" class="node">
<title>recovery2</title>
<polygon fill="#f8fafc" stroke="none" points="941,-85 941,-112 1088.75,-112 1088.75,-85 941,-85"/>
<text xml:space="preserve" text-anchor="start" x="984.5" y="-93.7" font-family="Helvetica,sans-Serif" font-weight="bold" font-size="14.00">Recovery</text>
<text xml:space="preserve" text-anchor="start" x="985.25" y="-62.9" font-family="Helvetica,sans-Serif" font-weight="bold" font-size="18.00">25 VUs</text>
<text xml:space="preserve" text-anchor="start" x="970.25" y="-37" font-family="Helvetica,sans-Serif" font-size="14.00">~100 req/wave</text>
<text xml:space="preserve" text-anchor="start" x="947" y="-13" font-family="Helvetica,sans-Serif" font-size="10.00">cart 15 · checkout 5 · region 25</text>
<polygon fill="none" stroke="#64748b" points="940,-3 940,-113 1089.75,-113 1089.75,-3 940,-3"/>
</g>
<!-- spike2&#45;&gt;recovery2 -->
<g id="edge4" class="edge">
<title>spike2&#45;&gt;recovery2</title>
<path fill="none" stroke="#94a3b8" d="M907.99,-58C907.99,-58 932.74,-58 932.74,-58"/>
<polygon fill="#94a3b8" stroke="#94a3b8" points="932.74,-60.1 938.74,-58 932.74,-55.9 932.74,-60.1"/>
</g>
<!-- spike3 -->
<g id="node6" class="node">
<title>spike3</title>
<polygon fill="#fca5a5" stroke="none" points="1122.75,-88 1122.75,-115 1286.25,-115 1286.25,-88 1122.75,-88"/>
<text xml:space="preserve" text-anchor="start" x="1180.88" y="-96.7" font-family="Helvetica,sans-Serif" font-weight="bold" font-size="14.00">Spike 3</text>
<text xml:space="preserve" text-anchor="start" x="1157.62" y="-60.2" font-family="Helvetica,sans-Serif" font-weight="bold" font-size="24.00">225 VUs</text>
<text xml:space="preserve" text-anchor="start" x="1158" y="-32.95" font-family="Helvetica,sans-Serif" font-weight="bold" font-size="14.00">~900 req/wave</text>
<text xml:space="preserve" text-anchor="start" x="1128.75" y="-10" font-family="Helvetica,sans-Serif" font-size="10.00">cart 135 · checkout 45 · region 225</text>
<polygon fill="none" stroke="#991b1b" points="1121.75,0 1121.75,-116 1287.25,-116 1287.25,0 1121.75,0"/>
</g>
<!-- recovery2&#45;&gt;spike3 -->
<g id="edge5" class="edge">
<title>recovery2&#45;&gt;spike3</title>
<path fill="none" stroke="#94a3b8" d="M1089.55,-58C1089.55,-58 1114.24,-58 1114.24,-58"/>
<polygon fill="#94a3b8" stroke="#94a3b8" points="1114.24,-60.1 1120.24,-58 1114.24,-55.9 1114.24,-60.1"/>
</g>
<!-- rampdown -->
<g id="node7" class="node">
<title>rampdown</title>
<polygon fill="#f8fafc" stroke="none" points="1320.25,-85 1320.25,-112 1475.5,-112 1475.5,-85 1320.25,-85"/>
<text xml:space="preserve" text-anchor="start" x="1358.88" y="-93.7" font-family="Helvetica,sans-Serif" font-weight="bold" font-size="14.00">Ramp down</text>
<text xml:space="preserve" text-anchor="start" x="1373.12" y="-62.9" font-family="Helvetica,sans-Serif" font-weight="bold" font-size="18.00">0 VUs</text>
<text xml:space="preserve" text-anchor="start" x="1364.88" y="-37" font-family="Helvetica,sans-Serif" font-size="14.00">decreasing</text>
<text xml:space="preserve" text-anchor="start" x="1326.25" y="-13" font-family="Helvetica,sans-Serif" font-size="10.00">cart · checkout · region decrease</text>
<polygon fill="none" stroke="#64748b" points="1319.25,-3 1319.25,-113 1476.5,-113 1476.5,-3 1319.25,-3"/>
</g>
<!-- spike3&#45;&gt;rampdown -->
<g id="edge6" class="edge">
<title>spike3&#45;&gt;rampdown</title>
<path fill="none" stroke="#94a3b8" d="M1287.07,-58C1287.07,-58 1311.75,-58 1311.75,-58"/>
<polygon fill="#94a3b8" stroke="#94a3b8" points="1311.75,-60.1 1317.75,-58 1311.75,-55.9 1311.75,-60.1"/>
</g>
<!-- legend -->
<g id="node8" class="node">
<title>legend</title>
<text xml:space="preserve" text-anchor="start" x="4" y="-183.45" font-family="Helvetica,sans-Serif" font-weight="bold" font-size="14.00">Persona avg:</text>
<text xml:space="preserve" text-anchor="start" x="88.75" y="-183.45" font-family="Helvetica,sans-Serif" font-size="14.00"> 4 requests / completed iteration</text>
<text xml:space="preserve" text-anchor="start" x="4" y="-164.5" font-family="Helvetica,sans-Serif" font-size="10.00">browser 3 · cart_builder 4 · account_manager 4 · sale_hunter 4 · checkout 5</text>
<text xml:space="preserve" text-anchor="start" x="4" y="-145.25" font-family="Helvetica,sans-Serif" font-size="10.00">Actual totals depend on response time, sleep time, and completed iterations.</text>
</g>
</g>
</svg>
