<?xml version="1.0" encoding="UTF-8" standalone="no"?>
<!DOCTYPE svg PUBLIC "-//W3C//DTD SVG 1.1//EN"
 "http://www.w3.org/Graphics/SVG/1.1/DTD/svg11.dtd">
<!-- Generated by graphviz version 15.0.0 (20260523.1842)
 -->
<!-- Title: traffic_spike Pages: 1 -->
<svg width="1097pt" height="108pt"
 viewBox="0.00 0.00 1097.00 108.00" xmlns="http://www.w3.org/2000/svg" xmlns:xlink="http://www.w3.org/1999/xlink">
<g id="graph0" class="graph" transform="scale(1 1) rotate(0) translate(4 104)">
<title>traffic_spike</title>
<polygon fill="white" stroke="none" points="-4,4 -4,-104 1093.25,-104 1093.25,4 -4,4"/>
<text xml:space="preserve" text-anchor="middle" x="544.62" y="-77" font-family="Helvetica,sans-Serif" font-size="20.00">Traffic Spike Config: BASE_SPIKE_USERS=100, SPIKE_MULTIPLIER=2</text>
<!-- warmup -->
<g id="node1" class="node">
<title>warmup</title>
<path fill="#f1f5f9" stroke="#334155" d="M93.25,-63.5C93.25,-63.5 12,-63.5 12,-63.5 6,-63.5 0,-57.5 0,-51.5 0,-51.5 0,-19.5 0,-19.5 0,-13.5 6,-7.5 12,-7.5 12,-7.5 93.25,-7.5 93.25,-7.5 99.25,-7.5 105.25,-13.5 105.25,-19.5 105.25,-19.5 105.25,-51.5 105.25,-51.5 105.25,-57.5 99.25,-63.5 93.25,-63.5"/>
<text xml:space="preserve" text-anchor="middle" x="52.62" y="-46.2" font-family="Helvetica,sans-Serif" font-size="14.00">Warmup</text>
<text xml:space="preserve" text-anchor="middle" x="52.62" y="-31.2" font-family="Helvetica,sans-Serif" font-size="14.00">1m → 25 VUs</text>
<text xml:space="preserve" text-anchor="middle" x="52.62" y="-13.2" font-family="Helvetica,sans-Serif" font-size="14.00">~100 req/wave</text>
</g>
<!-- spike1 -->
<g id="node2" class="node">
<title>spike1</title>
<path fill="#bfdbfe" stroke="#334155" d="M279.75,-71C279.75,-71 157.25,-71 157.25,-71 151.25,-71 145.25,-65 145.25,-59 145.25,-59 145.25,-12 145.25,-12 145.25,-6 151.25,0 157.25,0 157.25,0 279.75,0 279.75,0 285.75,0 291.75,-6 291.75,-12 291.75,-12 291.75,-59 291.75,-59 291.75,-65 285.75,-71 279.75,-71"/>
<text xml:space="preserve" text-anchor="middle" x="218.5" y="-53.7" font-family="Helvetica,sans-Serif" font-size="14.00">Spike 1</text>
<text xml:space="preserve" text-anchor="middle" x="218.5" y="-38.7" font-family="Helvetica,sans-Serif" font-size="14.00">30s ramp → 100 VUs</text>
<text xml:space="preserve" text-anchor="middle" x="218.5" y="-20.7" font-family="Helvetica,sans-Serif" font-size="14.00">1m hold</text>
<text xml:space="preserve" text-anchor="middle" x="218.5" y="-5.7" font-family="Helvetica,sans-Serif" font-size="14.00">~400 req/wave</text>
</g>
<!-- warmup&#45;&gt;spike1 -->
<g id="edge1" class="edge">
<title>warmup&#45;&gt;spike1</title>
<path fill="none" stroke="#475569" d="M105.48,-35.5C115.1,-35.5 125.36,-35.5 135.62,-35.5"/>
<polygon fill="#475569" stroke="#475569" points="135.51,-38.3 143.51,-35.5 135.51,-32.7 135.51,-38.3"/>
</g>
<!-- recovery1 -->
<g id="node3" class="node">
<title>recovery1</title>
<path fill="#f1f5f9" stroke="#334155" d="M425,-63.5C425,-63.5 343.75,-63.5 343.75,-63.5 337.75,-63.5 331.75,-57.5 331.75,-51.5 331.75,-51.5 331.75,-19.5 331.75,-19.5 331.75,-13.5 337.75,-7.5 343.75,-7.5 343.75,-7.5 425,-7.5 425,-7.5 431,-7.5 437,-13.5 437,-19.5 437,-19.5 437,-51.5 437,-51.5 437,-57.5 431,-63.5 425,-63.5"/>
<text xml:space="preserve" text-anchor="middle" x="384.38" y="-46.2" font-family="Helvetica,sans-Serif" font-size="14.00">Recovery</text>
<text xml:space="preserve" text-anchor="middle" x="384.38" y="-31.2" font-family="Helvetica,sans-Serif" font-size="14.00">1m → 25 VUs</text>
<text xml:space="preserve" text-anchor="middle" x="384.38" y="-13.2" font-family="Helvetica,sans-Serif" font-size="14.00">~100 req/wave</text>
</g>
<!-- spike1&#45;&gt;recovery1 -->
<g id="edge2" class="edge">
<title>spike1&#45;&gt;recovery1</title>
<path fill="none" stroke="#475569" d="M291.85,-35.5C301.99,-35.5 312.33,-35.5 322.23,-35.5"/>
<polygon fill="#475569" stroke="#475569" points="322.05,-38.3 330.05,-35.5 322.05,-32.7 322.05,-38.3"/>
</g>
<!-- spike2 -->
<g id="node4" class="node">
<title>spike2</title>
<path fill="#fde68a" stroke="#334155" d="M611.5,-71C611.5,-71 489,-71 489,-71 483,-71 477,-65 477,-59 477,-59 477,-12 477,-12 477,-6 483,0 489,0 489,0 611.5,0 611.5,0 617.5,0 623.5,-6 623.5,-12 623.5,-12 623.5,-59 623.5,-59 623.5,-65 617.5,-71 611.5,-71"/>
<text xml:space="preserve" text-anchor="middle" x="550.25" y="-53.7" font-family="Helvetica,sans-Serif" font-size="14.00">Spike 2</text>
<text xml:space="preserve" text-anchor="middle" x="550.25" y="-38.7" font-family="Helvetica,sans-Serif" font-size="14.00">30s ramp → 200 VUs</text>
<text xml:space="preserve" text-anchor="middle" x="550.25" y="-20.7" font-family="Helvetica,sans-Serif" font-size="14.00">1m hold</text>
<text xml:space="preserve" text-anchor="middle" x="550.25" y="-5.7" font-family="Helvetica,sans-Serif" font-size="14.00">~800 req/wave</text>
</g>
<!-- recovery1&#45;&gt;spike2 -->
<g id="edge3" class="edge">
<title>recovery1&#45;&gt;spike2</title>
<path fill="none" stroke="#475569" d="M437.23,-35.5C446.85,-35.5 457.11,-35.5 467.37,-35.5"/>
<polygon fill="#475569" stroke="#475569" points="467.26,-38.3 475.26,-35.5 467.26,-32.7 467.26,-38.3"/>
</g>
<!-- recovery2 -->
<g id="node5" class="node">
<title>recovery2</title>
<path fill="#f1f5f9" stroke="#334155" d="M756.75,-63.5C756.75,-63.5 675.5,-63.5 675.5,-63.5 669.5,-63.5 663.5,-57.5 663.5,-51.5 663.5,-51.5 663.5,-19.5 663.5,-19.5 663.5,-13.5 669.5,-7.5 675.5,-7.5 675.5,-7.5 756.75,-7.5 756.75,-7.5 762.75,-7.5 768.75,-13.5 768.75,-19.5 768.75,-19.5 768.75,-51.5 768.75,-51.5 768.75,-57.5 762.75,-63.5 756.75,-63.5"/>
<text xml:space="preserve" text-anchor="middle" x="716.12" y="-46.2" font-family="Helvetica,sans-Serif" font-size="14.00">Recovery</text>
<text xml:space="preserve" text-anchor="middle" x="716.12" y="-31.2" font-family="Helvetica,sans-Serif" font-size="14.00">1m → 25 VUs</text>
<text xml:space="preserve" text-anchor="middle" x="716.12" y="-13.2" font-family="Helvetica,sans-Serif" font-size="14.00">~100 req/wave</text>
</g>
<!-- spike2&#45;&gt;recovery2 -->
<g id="edge4" class="edge">
<title>spike2&#45;&gt;recovery2</title>
<path fill="none" stroke="#475569" d="M623.6,-35.5C633.74,-35.5 644.08,-35.5 653.98,-35.5"/>
<polygon fill="#475569" stroke="#475569" points="653.8,-38.3 661.8,-35.5 653.8,-32.7 653.8,-38.3"/>
</g>
<!-- spike3 -->
<g id="node6" class="node">
<title>spike3</title>
<path fill="#fecaca" stroke="#334155" d="M943.25,-71C943.25,-71 820.75,-71 820.75,-71 814.75,-71 808.75,-65 808.75,-59 808.75,-59 808.75,-12 808.75,-12 808.75,-6 814.75,0 820.75,0 820.75,0 943.25,0 943.25,0 949.25,0 955.25,-6 955.25,-12 955.25,-12 955.25,-59 955.25,-59 955.25,-65 949.25,-71 943.25,-71"/>
<text xml:space="preserve" text-anchor="middle" x="882" y="-53.7" font-family="Helvetica,sans-Serif" font-size="14.00">Spike 3</text>
<text xml:space="preserve" text-anchor="middle" x="882" y="-38.7" font-family="Helvetica,sans-Serif" font-size="14.00">30s ramp → 400 VUs</text>
<text xml:space="preserve" text-anchor="middle" x="882" y="-20.7" font-family="Helvetica,sans-Serif" font-size="14.00">1m hold</text>
<text xml:space="preserve" text-anchor="middle" x="882" y="-5.7" font-family="Helvetica,sans-Serif" font-size="14.00">~1600 req/wave</text>
</g>
<!-- recovery2&#45;&gt;spike3 -->
<g id="edge5" class="edge">
<title>recovery2&#45;&gt;spike3</title>
<path fill="none" stroke="#475569" d="M768.98,-35.5C778.6,-35.5 788.86,-35.5 799.12,-35.5"/>
<polygon fill="#475569" stroke="#475569" points="799.01,-38.3 807.01,-35.5 799.01,-32.7 799.01,-38.3"/>
</g>
<!-- rampdown -->
<g id="node7" class="node">
<title>rampdown</title>
<path fill="#e2e8f0" stroke="#334155" d="M1077.25,-56C1077.25,-56 1007.25,-56 1007.25,-56 1001.25,-56 995.25,-50 995.25,-44 995.25,-44 995.25,-27 995.25,-27 995.25,-21 1001.25,-15 1007.25,-15 1007.25,-15 1077.25,-15 1077.25,-15 1083.25,-15 1089.25,-21 1089.25,-27 1089.25,-27 1089.25,-44 1089.25,-44 1089.25,-50 1083.25,-56 1077.25,-56"/>
<text xml:space="preserve" text-anchor="middle" x="1042.25" y="-38.7" font-family="Helvetica,sans-Serif" font-size="14.00">Ramp down</text>
<text xml:space="preserve" text-anchor="middle" x="1042.25" y="-23.7" font-family="Helvetica,sans-Serif" font-size="14.00">1m → 0 VUs</text>
</g>
<!-- spike3&#45;&gt;rampdown -->
<g id="edge6" class="edge">
<title>spike3&#45;&gt;rampdown</title>
<path fill="none" stroke="#475569" d="M955.64,-35.5C965.63,-35.5 975.77,-35.5 985.4,-35.5"/>
<polygon fill="#475569" stroke="#475569" points="985.32,-38.3 993.32,-35.5 985.32,-32.7 985.32,-38.3"/>
</g>
</g>
</svg>
