<?xml version="1.0" encoding="UTF-8" standalone="no"?>
<!DOCTYPE svg PUBLIC "-//W3C//DTD SVG 1.1//EN"
 "http://www.w3.org/Graphics/SVG/1.1/DTD/svg11.dtd">
<!-- Generated by graphviz version 15.0.0 (20260523.1842)
 -->
<!-- Title: traffic_spike_request_cards Pages: 1 -->
<svg width="1710pt" height="219pt"
 viewBox="0.00 0.00 1710.00 219.00" xmlns="http://www.w3.org/2000/svg" xmlns:xlink="http://www.w3.org/1999/xlink">
<g id="graph0" class="graph" transform="scale(1 1) rotate(0) translate(4 214.62)">
<title>traffic_spike_request_cards</title>
<polygon fill="white" stroke="none" points="-4,4 -4,-214.62 1706.25,-214.62 1706.25,4 -4,4"/>
<text xml:space="preserve" text-anchor="middle" x="851.12" y="-185.72" font-family="Helvetica,sans-Serif" font-size="22.00">Traffic Spike Request Model</text>
<!-- warmup -->
<g id="node1" class="node">
<title>warmup</title>
<polygon fill="#f8fafc" stroke="none" points="202.38,-85 202.38,-112 350.12,-112 350.12,-85 202.38,-85"/>
<text xml:space="preserve" text-anchor="start" x="248.88" y="-93.7" font-family="Helvetica,sans-Serif" font-weight="bold" font-size="14.00">Warmup</text>
<text xml:space="preserve" text-anchor="start" x="246.62" y="-62.9" font-family="Helvetica,sans-Serif" font-weight="bold" font-size="18.00">25 VUs</text>
<text xml:space="preserve" text-anchor="start" x="231.62" y="-37" font-family="Helvetica,sans-Serif" font-size="14.00">~100 req/wave</text>
<text xml:space="preserve" text-anchor="start" x="208.38" y="-13" font-family="Helvetica,sans-Serif" font-size="10.00">cart 15 · checkout 5 · region 25</text>
<polygon fill="none" stroke="#64748b" points="201.38,-3 201.38,-113 351.12,-113 351.12,-3 201.38,-3"/>
</g>
<!-- spike1 -->
<g id="node2" class="node">
<title>spike1</title>
<polygon fill="#fee2e2" stroke="none" points="585.5,-86.88 585.5,-113.88 743.75,-113.88 743.75,-86.88 585.5,-86.88"/>
<text xml:space="preserve" text-anchor="start" x="641" y="-95.58" font-family="Helvetica,sans-Serif" font-weight="bold" font-size="14.00">Spike 1</text>
<text xml:space="preserve" text-anchor="start" x="622.25" y="-60.98" font-family="Helvetica,sans-Serif" font-weight="bold" font-size="22.00">100 VUs</text>
<text xml:space="preserve" text-anchor="start" x="618.12" y="-34.08" font-family="Helvetica,sans-Serif" font-weight="bold" font-size="14.00">~400 req/wave</text>
<text xml:space="preserve" text-anchor="start" x="591.5" y="-11.12" font-family="Helvetica,sans-Serif" font-size="10.00">cart 60 · checkout 20 · region 100</text>
<polygon fill="none" stroke="#ef4444" points="584.5,-1.12 584.5,-114.88 744.75,-114.88 744.75,-1.12 584.5,-1.12"/>
</g>
<!-- warmup&#45;&gt;spike1 -->
<g id="edge1" class="edge">
<title>warmup&#45;&gt;spike1</title>
<path fill="none" stroke="#94a3b8" d="M350.67,-58C350.67,-58 577.26,-58 577.26,-58"/>
<polygon fill="#94a3b8" stroke="#94a3b8" points="577.26,-60.1 583.26,-58 577.26,-55.9 577.26,-60.1"/>
</g>
<!-- recovery1 -->
<g id="node3" class="node">
<title>recovery1</title>
<polygon fill="#f8fafc" stroke="none" points="777.75,-85 777.75,-112 925.5,-112 925.5,-85 777.75,-85"/>
<text xml:space="preserve" text-anchor="start" x="821.25" y="-93.7" font-family="Helvetica,sans-Serif" font-weight="bold" font-size="14.00">Recovery</text>
<text xml:space="preserve" text-anchor="start" x="822" y="-62.9" font-family="Helvetica,sans-Serif" font-weight="bold" font-size="18.00">25 VUs</text>
<text xml:space="preserve" text-anchor="start" x="807" y="-37" font-family="Helvetica,sans-Serif" font-size="14.00">~100 req/wave</text>
<text xml:space="preserve" text-anchor="start" x="783.75" y="-13" font-family="Helvetica,sans-Serif" font-size="10.00">cart 15 · checkout 5 · region 25</text>
<polygon fill="none" stroke="#64748b" points="776.75,-3 776.75,-113 926.5,-113 926.5,-3 776.75,-3"/>
</g>
<!-- spike1&#45;&gt;recovery1 -->
<g id="edge2" class="edge">
<title>spike1&#45;&gt;recovery1</title>
<path fill="none" stroke="#94a3b8" d="M744.74,-58C744.74,-58 769.49,-58 769.49,-58"/>
<polygon fill="#94a3b8" stroke="#94a3b8" points="769.49,-60.1 775.49,-58 769.49,-55.9 769.49,-60.1"/>
</g>
<!-- spike2 -->
<g id="node4" class="node">
<title>spike2</title>
<polygon fill="#fecaca" stroke="none" points="959.5,-86.88 959.5,-113.88 1123,-113.88 1123,-86.88 959.5,-86.88"/>
<text xml:space="preserve" text-anchor="start" x="1017.62" y="-95.58" font-family="Helvetica,sans-Serif" font-weight="bold" font-size="14.00">Spike 2</text>
<text xml:space="preserve" text-anchor="start" x="998.88" y="-60.98" font-family="Helvetica,sans-Serif" font-weight="bold" font-size="22.00">200 VUs</text>
<text xml:space="preserve" text-anchor="start" x="994.75" y="-34.08" font-family="Helvetica,sans-Serif" font-weight="bold" font-size="14.00">~800 req/wave</text>
<text xml:space="preserve" text-anchor="start" x="965.5" y="-11.12" font-family="Helvetica,sans-Serif" font-size="10.00">cart 120 · checkout 40 · region 200</text>
<polygon fill="none" stroke="#dc2626" points="958.5,-1.12 958.5,-114.88 1124,-114.88 1124,-1.12 958.5,-1.12"/>
</g>
<!-- recovery1&#45;&gt;spike2 -->
<g id="edge3" class="edge">
<title>recovery1&#45;&gt;spike2</title>
<path fill="none" stroke="#94a3b8" d="M926.3,-58C926.3,-58 950.99,-58 950.99,-58"/>
<polygon fill="#94a3b8" stroke="#94a3b8" points="950.99,-60.1 956.99,-58 950.99,-55.9 950.99,-60.1"/>
</g>
<!-- recovery2 -->
<g id="node5" class="node">
<title>recovery2</title>
<polygon fill="#f8fafc" stroke="none" points="1157,-85 1157,-112 1304.75,-112 1304.75,-85 1157,-85"/>
<text xml:space="preserve" text-anchor="start" x="1200.5" y="-93.7" font-family="Helvetica,sans-Serif" font-weight="bold" font-size="14.00">Recovery</text>
<text xml:space="preserve" text-anchor="start" x="1201.25" y="-62.9" font-family="Helvetica,sans-Serif" font-weight="bold" font-size="18.00">25 VUs</text>
<text xml:space="preserve" text-anchor="start" x="1186.25" y="-37" font-family="Helvetica,sans-Serif" font-size="14.00">~100 req/wave</text>
<text xml:space="preserve" text-anchor="start" x="1163" y="-13" font-family="Helvetica,sans-Serif" font-size="10.00">cart 15 · checkout 5 · region 25</text>
<polygon fill="none" stroke="#64748b" points="1156,-3 1156,-113 1305.75,-113 1305.75,-3 1156,-3"/>
</g>
<!-- spike2&#45;&gt;recovery2 -->
<g id="edge4" class="edge">
<title>spike2&#45;&gt;recovery2</title>
<path fill="none" stroke="#94a3b8" d="M1123.87,-58C1123.87,-58 1148.77,-58 1148.77,-58"/>
<polygon fill="#94a3b8" stroke="#94a3b8" points="1148.77,-60.1 1154.77,-58 1148.77,-55.9 1148.77,-60.1"/>
</g>
<!-- spike3 -->
<g id="node6" class="node">
<title>spike3</title>
<polygon fill="#fca5a5" stroke="none" points="1338.75,-88 1338.75,-115 1502.25,-115 1502.25,-88 1338.75,-88"/>
<text xml:space="preserve" text-anchor="start" x="1396.88" y="-96.7" font-family="Helvetica,sans-Serif" font-weight="bold" font-size="14.00">Spike 3</text>
<text xml:space="preserve" text-anchor="start" x="1373.62" y="-60.2" font-family="Helvetica,sans-Serif" font-weight="bold" font-size="24.00">400 VUs</text>
<text xml:space="preserve" text-anchor="start" x="1370.25" y="-32.95" font-family="Helvetica,sans-Serif" font-weight="bold" font-size="14.00">~1600 req/wave</text>
<text xml:space="preserve" text-anchor="start" x="1344.75" y="-10" font-family="Helvetica,sans-Serif" font-size="10.00">cart 240 · checkout 80 · region 400</text>
<polygon fill="none" stroke="#991b1b" points="1337.75,0 1337.75,-116 1503.25,-116 1503.25,0 1337.75,0"/>
</g>
<!-- recovery2&#45;&gt;spike3 -->
<g id="edge5" class="edge">
<title>recovery2&#45;&gt;spike3</title>
<path fill="none" stroke="#94a3b8" d="M1305.55,-58C1305.55,-58 1330.24,-58 1330.24,-58"/>
<polygon fill="#94a3b8" stroke="#94a3b8" points="1330.24,-60.1 1336.24,-58 1330.24,-55.9 1330.24,-60.1"/>
</g>
<!-- rampdown -->
<g id="node7" class="node">
<title>rampdown</title>
<polygon fill="#f8fafc" stroke="none" points="1536.25,-85 1536.25,-112 1701.25,-112 1701.25,-85 1536.25,-85"/>
<text xml:space="preserve" text-anchor="start" x="1579.75" y="-93.7" font-family="Helvetica,sans-Serif" font-weight="bold" font-size="14.00">Ramp down</text>
<text xml:space="preserve" text-anchor="start" x="1594" y="-62.9" font-family="Helvetica,sans-Serif" font-weight="bold" font-size="18.00">0 VUs</text>
<text xml:space="preserve" text-anchor="start" x="1585.75" y="-37" font-family="Helvetica,sans-Serif" font-size="14.00">decreasing</text>
<text xml:space="preserve" text-anchor="start" x="1542.25" y="-13" font-family="Helvetica,sans-Serif" font-size="10.00">counters decrease with active VUs</text>
<polygon fill="none" stroke="#64748b" points="1535.25,-3 1535.25,-113 1702.25,-113 1702.25,-3 1535.25,-3"/>
</g>
<!-- spike3&#45;&gt;rampdown -->
<g id="edge6" class="edge">
<title>spike3&#45;&gt;rampdown</title>
<path fill="none" stroke="#94a3b8" d="M1503.14,-58C1503.14,-58 1527.77,-58 1527.77,-58"/>
<polygon fill="#94a3b8" stroke="#94a3b8" points="1527.77,-60.1 1533.77,-58 1527.77,-55.9 1527.77,-60.1"/>
</g>
<!-- legend -->
<g id="node8" class="node">
<title>legend</title>
<text xml:space="preserve" text-anchor="start" x="4" y="-163.82" font-family="Helvetica,sans-Serif" font-weight="bold" font-size="14.00">Config:</text>
<text xml:space="preserve" text-anchor="start" x="51.25" y="-163.82" font-family="Helvetica,sans-Serif" font-size="14.00"> base 100, multiplier 2, regional 30 VUs, storefront actions 20 browser VUs for 10m</text>
<text xml:space="preserve" text-anchor="start" x="4" y="-144.88" font-family="Helvetica,sans-Serif" font-size="10.00">browser 3 · cart_builder 4 · account_manager 4 · sale_hunter 4 · checkout 5; actual totals depend on completed iterations.</text>
</g>
</g>
</svg>
