<?xml version="1.0" encoding="UTF-8" standalone="no"?>
<!DOCTYPE svg PUBLIC "-//W3C//DTD SVG 1.1//EN"
 "http://www.w3.org/Graphics/SVG/1.1/DTD/svg11.dtd">
<!-- Generated by graphviz version 15.0.0 (20260523.1842)
 -->
<!-- Title: traffic_spike_request_tables Pages: 1 -->
<svg width="835pt" height="1017pt"
 viewBox="0.00 0.00 835.00 1017.00" xmlns="http://www.w3.org/2000/svg" xmlns:xlink="http://www.w3.org/1999/xlink">
<g id="graph0" class="graph" transform="scale(1 1) rotate(0) translate(4 1013)">
<title>traffic_spike_request_tables</title>
<polygon fill="white" stroke="none" points="-4,4 -4,-1013 831,-1013 831,4 -4,4"/>
<text xml:space="preserve" text-anchor="middle" x="413.5" y="-984.1" font-family="Helvetica,sans-Serif" font-size="22.00">Traffic Spike Request Model</text>
<!-- caveat -->
<g id="node1" class="node">
<title>caveat</title>
<polygon fill="#fff7ed" stroke="none" points="84.12,-946.5 84.12,-977.5 742.88,-977.5 742.88,-946.5 84.12,-946.5"/>
<text xml:space="preserve" text-anchor="start" x="359.12" y="-957.2" font-family="Helvetica,sans-Serif" font-weight="bold" font-size="14.00">Important caveat</text>
<text xml:space="preserve" text-anchor="start" x="92.12" y="-926.2" font-family="Helvetica,sans-Serif" font-size="14.00">Requests per stage are not fixed. </text>
<text xml:space="preserve" text-anchor="start" x="294.62" y="-926.2" font-family="Helvetica,sans-Serif" font-weight="bold" font-size="14.00">ramping&#45;vus</text>
<text xml:space="preserve" text-anchor="start" x="376.38" y="-926.2" font-family="Helvetica,sans-Serif" font-size="14.00"> keeps each active VU looping as fast as the journey allows.</text>
<text xml:space="preserve" text-anchor="start" x="159.62" y="-912.2" font-family="Helvetica,sans-Serif" font-size="14.00">Exact totals depend on response time, persona sleep time, and completed iterations.</text>
<polygon fill="none" stroke="#f97316" points="83.12,-901.5 83.12,-978.5 743.88,-978.5 743.88,-901.5 83.12,-901.5"/>
</g>
<!-- persona_table -->
<g id="node2" class="node">
<title>persona_table</title>
<polygon fill="#e0f2fe" stroke="none" points="1,-822.5 1,-853.5 826,-853.5 826,-822.5 1,-822.5"/>
<polygon fill="none" stroke="#334155" points="1,-822.5 1,-853.5 826,-853.5 826,-822.5 1,-822.5"/>
<text xml:space="preserve" text-anchor="start" x="281.88" y="-833.2" font-family="Helvetica,sans-Serif" font-weight="bold" font-size="14.00">Per completed traffic&#45;spike user iteration</text>
<polygon fill="#f1f5f9" stroke="none" points="1,-791.5 1,-822.5 140.75,-822.5 140.75,-791.5 1,-791.5"/>
<polygon fill="none" stroke="#334155" points="1,-791.5 1,-822.5 140.75,-822.5 140.75,-791.5 1,-791.5"/>
<text xml:space="preserve" text-anchor="start" x="44.25" y="-802.2" font-family="Helvetica,sans-Serif" font-weight="bold" font-size="14.00">Persona</text>
<polygon fill="#f1f5f9" stroke="none" points="140.75,-791.5 140.75,-822.5 217.5,-822.5 217.5,-791.5 140.75,-791.5"/>
<polygon fill="none" stroke="#334155" points="140.75,-791.5 140.75,-822.5 217.5,-822.5 217.5,-791.5 140.75,-791.5"/>
<text xml:space="preserve" text-anchor="start" x="148.75" y="-802.2" font-family="Helvetica,sans-Serif" font-weight="bold" font-size="14.00">Requests</text>
<polygon fill="#f1f5f9" stroke="none" points="217.5,-791.5 217.5,-822.5 826,-822.5 826,-791.5 217.5,-791.5"/>
<polygon fill="none" stroke="#334155" points="217.5,-791.5 217.5,-822.5 826,-822.5 826,-791.5 217.5,-791.5"/>
<text xml:space="preserve" text-anchor="start" x="462.88" y="-802.2" font-family="Helvetica,sans-Serif" font-weight="bold" font-size="14.00">Counters / actions</text>
<polygon fill="none" stroke="#334155" points="1,-759 1,-791.5 140.75,-791.5 140.75,-759 1,-759"/>
<text xml:space="preserve" text-anchor="start" x="9" y="-771.5" font-family="Courier,monospace" font-size="14.00">browser</text>
<polygon fill="none" stroke="#334155" points="140.75,-759 140.75,-791.5 217.5,-791.5 217.5,-759 140.75,-759"/>
<text xml:space="preserve" text-anchor="start" x="202" y="-771.5" font-family="Helvetica,sans-Serif" font-size="14.00">3</text>
<polygon fill="none" stroke="#334155" points="217.5,-759 217.5,-791.5 826,-791.5 826,-759 217.5,-759"/>
<text xml:space="preserve" text-anchor="start" x="225.5" y="-771.5" font-family="Courier,monospace" font-size="14.00">spike_region_changes +1</text>
<polygon fill="none" stroke="#334155" points="1,-726.5 1,-759 140.75,-759 140.75,-726.5 1,-726.5"/>
<text xml:space="preserve" text-anchor="start" x="9" y="-739" font-family="Courier,monospace" font-size="14.00">cart_builder</text>
<polygon fill="none" stroke="#334155" points="140.75,-726.5 140.75,-759 217.5,-759 217.5,-726.5 140.75,-726.5"/>
<text xml:space="preserve" text-anchor="start" x="202" y="-739" font-family="Helvetica,sans-Serif" font-size="14.00">4</text>
<polygon fill="none" stroke="#334155" points="217.5,-726.5 217.5,-759 826,-759 826,-726.5 217.5,-726.5"/>
<text xml:space="preserve" text-anchor="start" x="225.5" y="-738.7" font-family="Courier,monospace" font-size="14.00">spike_region_changes +1</text>
<text xml:space="preserve" text-anchor="start" x="415.25" y="-738.7" font-family="Helvetica,sans-Serif" font-size="14.00">, </text>
<text xml:space="preserve" text-anchor="start" x="422.75" y="-738.7" font-family="Courier,monospace" font-size="14.00">spike_cart_updates +1</text>
<polygon fill="none" stroke="#334155" points="1,-694 1,-726.5 140.75,-726.5 140.75,-694 1,-694"/>
<text xml:space="preserve" text-anchor="start" x="9" y="-706.5" font-family="Courier,monospace" font-size="14.00">account_manager</text>
<polygon fill="none" stroke="#334155" points="140.75,-694 140.75,-726.5 217.5,-726.5 217.5,-694 140.75,-694"/>
<text xml:space="preserve" text-anchor="start" x="202" y="-706.5" font-family="Helvetica,sans-Serif" font-size="14.00">4</text>
<polygon fill="none" stroke="#334155" points="217.5,-694 217.5,-726.5 826,-726.5 826,-694 217.5,-694"/>
<text xml:space="preserve" text-anchor="start" x="225.5" y="-706.5" font-family="Courier,monospace" font-size="14.00">spike_region_changes +1</text>
<polygon fill="none" stroke="#334155" points="1,-661.5 1,-694 140.75,-694 140.75,-661.5 1,-661.5"/>
<text xml:space="preserve" text-anchor="start" x="9" y="-674" font-family="Courier,monospace" font-size="14.00">sale_hunter</text>
<polygon fill="none" stroke="#334155" points="140.75,-661.5 140.75,-694 217.5,-694 217.5,-661.5 140.75,-661.5"/>
<text xml:space="preserve" text-anchor="start" x="202" y="-674" font-family="Helvetica,sans-Serif" font-size="14.00">4</text>
<polygon fill="none" stroke="#334155" points="217.5,-661.5 217.5,-694 826,-694 826,-661.5 217.5,-661.5"/>
<text xml:space="preserve" text-anchor="start" x="225.5" y="-673.7" font-family="Courier,monospace" font-size="14.00">spike_region_changes +1</text>
<text xml:space="preserve" text-anchor="start" x="415.25" y="-673.7" font-family="Helvetica,sans-Serif" font-size="14.00">, </text>
<text xml:space="preserve" text-anchor="start" x="422.75" y="-673.7" font-family="Courier,monospace" font-size="14.00">spike_cart_updates +1</text>
<polygon fill="none" stroke="#334155" points="1,-629 1,-661.5 140.75,-661.5 140.75,-629 1,-629"/>
<text xml:space="preserve" text-anchor="start" x="9" y="-641.5" font-family="Courier,monospace" font-size="14.00">checkout</text>
<polygon fill="none" stroke="#334155" points="140.75,-629 140.75,-661.5 217.5,-661.5 217.5,-629 140.75,-629"/>
<text xml:space="preserve" text-anchor="start" x="202" y="-641.5" font-family="Helvetica,sans-Serif" font-size="14.00">5</text>
<polygon fill="none" stroke="#334155" points="217.5,-629 217.5,-661.5 826,-661.5 826,-629 217.5,-629"/>
<text xml:space="preserve" text-anchor="start" x="225.5" y="-641.2" font-family="Courier,monospace" font-size="14.00">spike_region_changes +1</text>
<text xml:space="preserve" text-anchor="start" x="415.25" y="-641.2" font-family="Helvetica,sans-Serif" font-size="14.00">, </text>
<text xml:space="preserve" text-anchor="start" x="422.75" y="-641.2" font-family="Courier,monospace" font-size="14.00">spike_cart_updates +1</text>
<text xml:space="preserve" text-anchor="start" x="596" y="-641.2" font-family="Helvetica,sans-Serif" font-size="14.00">, </text>
<text xml:space="preserve" text-anchor="start" x="603.5" y="-641.2" font-family="Courier,monospace" font-size="14.00">spike_checkout_attempts +1</text>
<polygon fill="#ecfeff" stroke="none" points="1,-598 1,-629 140.75,-629 140.75,-598 1,-598"/>
<polygon fill="none" stroke="#334155" points="1,-598 1,-629 140.75,-629 140.75,-598 1,-598"/>
<text xml:space="preserve" text-anchor="start" x="9" y="-608.7" font-family="Helvetica,sans-Serif" font-weight="bold" font-size="14.00">Average</text>
<polygon fill="#ecfeff" stroke="none" points="140.75,-598 140.75,-629 217.5,-629 217.5,-598 140.75,-598"/>
<polygon fill="none" stroke="#334155" points="140.75,-598 140.75,-629 217.5,-629 217.5,-598 140.75,-598"/>
<text xml:space="preserve" text-anchor="start" x="202" y="-608.7" font-family="Helvetica,sans-Serif" font-weight="bold" font-size="14.00">4</text>
<polygon fill="#ecfeff" stroke="none" points="217.5,-598 217.5,-629 826,-629 826,-598 217.5,-598"/>
<polygon fill="none" stroke="#334155" points="217.5,-598 217.5,-629 826,-629 826,-598 217.5,-598"/>
<text xml:space="preserve" text-anchor="start" x="225.5" y="-608.7" font-family="Helvetica,sans-Serif" font-weight="bold" font-size="14.00">requests per completed user iteration</text>
<polygon fill="none" stroke="#334155" points="0,-597 0,-854.5 827,-854.5 827,-597 0,-597"/>
</g>
<!-- caveat&#45;&gt;persona_table -->
<g id="edge1" class="edge">
<title>caveat&#45;&gt;persona_table</title>
<path fill="none" stroke="#94a3b8" d="M413.5,-901.54C413.5,-890.1 413.5,-876.8 413.5,-862.73"/>
<polygon fill="#94a3b8" stroke="#94a3b8" points="415.95,-862.88 413.5,-855.88 411.05,-862.88 415.95,-862.88"/>
</g>
<!-- stage_table -->
<g id="node3" class="node">
<title>stage_table</title>
<polygon fill="#dcfce7" stroke="none" points="23.75,-518 23.75,-549 803.25,-549 803.25,-518 23.75,-518"/>
<polygon fill="none" stroke="#334155" points="23.75,-518 23.75,-549 803.25,-549 803.25,-518 23.75,-518"/>
<text xml:space="preserve" text-anchor="start" x="269.12" y="-528.7" font-family="Helvetica,sans-Serif" font-weight="bold" font-size="14.00">Current stage estimates per completed wave</text>
<polygon fill="#f1f5f9" stroke="none" points="23.75,-487 23.75,-518 154.5,-518 154.5,-487 23.75,-487"/>
<polygon fill="none" stroke="#334155" points="23.75,-487 23.75,-518 154.5,-518 154.5,-487 23.75,-487"/>
<text xml:space="preserve" text-anchor="start" x="70.75" y="-497.7" font-family="Helvetica,sans-Serif" font-weight="bold" font-size="14.00">Stage</text>
<polygon fill="#f1f5f9" stroke="none" points="154.5,-487 154.5,-518 226,-518 226,-487 154.5,-487"/>
<polygon fill="none" stroke="#334155" points="154.5,-487 154.5,-518 226,-518 226,-487 154.5,-487"/>
<text xml:space="preserve" text-anchor="start" x="162.5" y="-497.7" font-family="Helvetica,sans-Serif" font-weight="bold" font-size="14.00">Duration</text>
<polygon fill="#f1f5f9" stroke="none" points="226,-487 226,-518 313.25,-518 313.25,-487 226,-487"/>
<polygon fill="none" stroke="#334155" points="226,-487 226,-518 313.25,-518 313.25,-487 226,-487"/>
<text xml:space="preserve" text-anchor="start" x="234" y="-497.7" font-family="Helvetica,sans-Serif" font-weight="bold" font-size="14.00">Target VUs</text>
<polygon fill="#f1f5f9" stroke="none" points="313.25,-487 313.25,-518 446.25,-518 446.25,-487 313.25,-487"/>
<polygon fill="none" stroke="#334155" points="313.25,-487 313.25,-518 446.25,-518 446.25,-487 313.25,-487"/>
<text xml:space="preserve" text-anchor="start" x="326.12" y="-497.7" font-family="Helvetica,sans-Serif" font-weight="bold" font-size="14.00">Approx requests</text>
<polygon fill="#f1f5f9" stroke="none" points="446.25,-487 446.25,-518 544.75,-518 544.75,-487 446.25,-487"/>
<polygon fill="none" stroke="#334155" points="446.25,-487 446.25,-518 544.75,-518 544.75,-487 446.25,-487"/>
<text xml:space="preserve" text-anchor="start" x="454.25" y="-497.7" font-family="Helvetica,sans-Serif" font-weight="bold" font-size="14.00">Cart updates</text>
<polygon fill="#f1f5f9" stroke="none" points="544.75,-487 544.75,-518 683,-518 683,-487 544.75,-487"/>
<polygon fill="none" stroke="#334155" points="544.75,-487 544.75,-518 683,-518 683,-487 544.75,-487"/>
<text xml:space="preserve" text-anchor="start" x="552.75" y="-497.7" font-family="Helvetica,sans-Serif" font-weight="bold" font-size="14.00">Checkout attempts</text>
<polygon fill="#f1f5f9" stroke="none" points="683,-487 683,-518 803.25,-518 803.25,-487 683,-487"/>
<polygon fill="none" stroke="#334155" points="683,-487 683,-518 803.25,-518 803.25,-487 683,-487"/>
<text xml:space="preserve" text-anchor="start" x="691" y="-497.7" font-family="Helvetica,sans-Serif" font-weight="bold" font-size="14.00">Region changes</text>
<polygon fill="none" stroke="#334155" points="23.75,-456 23.75,-487 154.5,-487 154.5,-456 23.75,-456"/>
<text xml:space="preserve" text-anchor="start" x="31.75" y="-467.75" font-family="Helvetica,sans-Serif" font-size="14.00">Warmup / recovery</text>
<polygon fill="none" stroke="#334155" points="154.5,-456 154.5,-487 226,-487 226,-456 154.5,-456"/>
<text xml:space="preserve" text-anchor="start" x="198.5" y="-467.75" font-family="Helvetica,sans-Serif" font-size="14.00">1m</text>
<polygon fill="none" stroke="#334155" points="226,-456 226,-487 313.25,-487 313.25,-456 226,-456"/>
<text xml:space="preserve" text-anchor="start" x="290.25" y="-467.75" font-family="Helvetica,sans-Serif" font-size="14.00">25</text>
<polygon fill="none" stroke="#334155" points="313.25,-456 313.25,-487 446.25,-487 446.25,-456 313.25,-456"/>
<text xml:space="preserve" text-anchor="start" x="415.75" y="-467.75" font-family="Helvetica,sans-Serif" font-size="14.00">100</text>
<polygon fill="none" stroke="#334155" points="446.25,-456 446.25,-487 544.75,-487 544.75,-456 446.25,-456"/>
<text xml:space="preserve" text-anchor="start" x="521.75" y="-467.75" font-family="Helvetica,sans-Serif" font-size="14.00">15</text>
<polygon fill="none" stroke="#334155" points="544.75,-456 544.75,-487 683,-487 683,-456 544.75,-456"/>
<text xml:space="preserve" text-anchor="start" x="667.5" y="-467.75" font-family="Helvetica,sans-Serif" font-size="14.00">5</text>
<polygon fill="none" stroke="#334155" points="683,-456 683,-487 803.25,-487 803.25,-456 683,-456"/>
<text xml:space="preserve" text-anchor="start" x="780.25" y="-467.75" font-family="Helvetica,sans-Serif" font-size="14.00">25</text>
<polygon fill="none" stroke="#334155" points="23.75,-425 23.75,-456 154.5,-456 154.5,-425 23.75,-425"/>
<text xml:space="preserve" text-anchor="start" x="31.75" y="-436.75" font-family="Helvetica,sans-Serif" font-size="14.00">Ramp to spike 1</text>
<polygon fill="none" stroke="#334155" points="154.5,-425 154.5,-456 226,-456 226,-425 154.5,-425"/>
<text xml:space="preserve" text-anchor="start" x="196.25" y="-436.75" font-family="Helvetica,sans-Serif" font-size="14.00">30s</text>
<polygon fill="none" stroke="#334155" points="226,-425 226,-456 313.25,-456 313.25,-425 226,-425"/>
<text xml:space="preserve" text-anchor="start" x="282.75" y="-436.75" font-family="Helvetica,sans-Serif" font-size="14.00">100</text>
<polygon fill="none" stroke="#334155" points="313.25,-425 313.25,-456 446.25,-456 446.25,-425 313.25,-425"/>
<text xml:space="preserve" text-anchor="start" x="328.75" y="-436.75" font-family="Helvetica,sans-Serif" font-size="14.00">up to 400 at target</text>
<polygon fill="none" stroke="#334155" points="446.25,-425 446.25,-456 544.75,-456 544.75,-425 446.25,-425"/>
<text xml:space="preserve" text-anchor="start" x="521.75" y="-436.75" font-family="Helvetica,sans-Serif" font-size="14.00">60</text>
<polygon fill="none" stroke="#334155" points="544.75,-425 544.75,-456 683,-456 683,-425 544.75,-425"/>
<text xml:space="preserve" text-anchor="start" x="660" y="-436.75" font-family="Helvetica,sans-Serif" font-size="14.00">20</text>
<polygon fill="none" stroke="#334155" points="683,-425 683,-456 803.25,-456 803.25,-425 683,-425"/>
<text xml:space="preserve" text-anchor="start" x="772.75" y="-436.75" font-family="Helvetica,sans-Serif" font-size="14.00">100</text>
<polygon fill="none" stroke="#334155" points="23.75,-394 23.75,-425 154.5,-425 154.5,-394 23.75,-394"/>
<text xml:space="preserve" text-anchor="start" x="31.75" y="-405.75" font-family="Helvetica,sans-Serif" font-size="14.00">Hold spike 1</text>
<polygon fill="none" stroke="#334155" points="154.5,-394 154.5,-425 226,-425 226,-394 154.5,-394"/>
<text xml:space="preserve" text-anchor="start" x="198.5" y="-405.75" font-family="Helvetica,sans-Serif" font-size="14.00">1m</text>
<polygon fill="none" stroke="#334155" points="226,-394 226,-425 313.25,-425 313.25,-394 226,-394"/>
<text xml:space="preserve" text-anchor="start" x="282.75" y="-405.75" font-family="Helvetica,sans-Serif" font-size="14.00">100</text>
<polygon fill="none" stroke="#334155" points="313.25,-394 313.25,-425 446.25,-425 446.25,-394 313.25,-394"/>
<text xml:space="preserve" text-anchor="start" x="357.25" y="-405.75" font-family="Helvetica,sans-Serif" font-size="14.00">400 per wave</text>
<polygon fill="none" stroke="#334155" points="446.25,-394 446.25,-425 544.75,-425 544.75,-394 446.25,-394"/>
<text xml:space="preserve" text-anchor="start" x="521.75" y="-405.75" font-family="Helvetica,sans-Serif" font-size="14.00">60</text>
<polygon fill="none" stroke="#334155" points="544.75,-394 544.75,-425 683,-425 683,-394 544.75,-394"/>
<text xml:space="preserve" text-anchor="start" x="660" y="-405.75" font-family="Helvetica,sans-Serif" font-size="14.00">20</text>
<polygon fill="none" stroke="#334155" points="683,-394 683,-425 803.25,-425 803.25,-394 683,-394"/>
<text xml:space="preserve" text-anchor="start" x="772.75" y="-405.75" font-family="Helvetica,sans-Serif" font-size="14.00">100</text>
<polygon fill="none" stroke="#334155" points="23.75,-363 23.75,-394 154.5,-394 154.5,-363 23.75,-363"/>
<text xml:space="preserve" text-anchor="start" x="31.75" y="-374.75" font-family="Helvetica,sans-Serif" font-size="14.00">Recovery</text>
<polygon fill="none" stroke="#334155" points="154.5,-363 154.5,-394 226,-394 226,-363 154.5,-363"/>
<text xml:space="preserve" text-anchor="start" x="198.5" y="-374.75" font-family="Helvetica,sans-Serif" font-size="14.00">1m</text>
<polygon fill="none" stroke="#334155" points="226,-363 226,-394 313.25,-394 313.25,-363 226,-363"/>
<text xml:space="preserve" text-anchor="start" x="290.25" y="-374.75" font-family="Helvetica,sans-Serif" font-size="14.00">25</text>
<polygon fill="none" stroke="#334155" points="313.25,-363 313.25,-394 446.25,-394 446.25,-363 313.25,-363"/>
<text xml:space="preserve" text-anchor="start" x="357.25" y="-374.75" font-family="Helvetica,sans-Serif" font-size="14.00">100 per wave</text>
<polygon fill="none" stroke="#334155" points="446.25,-363 446.25,-394 544.75,-394 544.75,-363 446.25,-363"/>
<text xml:space="preserve" text-anchor="start" x="521.75" y="-374.75" font-family="Helvetica,sans-Serif" font-size="14.00">15</text>
<polygon fill="none" stroke="#334155" points="544.75,-363 544.75,-394 683,-394 683,-363 544.75,-363"/>
<text xml:space="preserve" text-anchor="start" x="667.5" y="-374.75" font-family="Helvetica,sans-Serif" font-size="14.00">5</text>
<polygon fill="none" stroke="#334155" points="683,-363 683,-394 803.25,-394 803.25,-363 683,-363"/>
<text xml:space="preserve" text-anchor="start" x="780.25" y="-374.75" font-family="Helvetica,sans-Serif" font-size="14.00">25</text>
<polygon fill="none" stroke="#334155" points="23.75,-332 23.75,-363 154.5,-363 154.5,-332 23.75,-332"/>
<text xml:space="preserve" text-anchor="start" x="31.75" y="-343.75" font-family="Helvetica,sans-Serif" font-size="14.00">Ramp to spike 2</text>
<polygon fill="none" stroke="#334155" points="154.5,-332 154.5,-363 226,-363 226,-332 154.5,-332"/>
<text xml:space="preserve" text-anchor="start" x="196.25" y="-343.75" font-family="Helvetica,sans-Serif" font-size="14.00">30s</text>
<polygon fill="none" stroke="#334155" points="226,-332 226,-363 313.25,-363 313.25,-332 226,-332"/>
<text xml:space="preserve" text-anchor="start" x="282.75" y="-343.75" font-family="Helvetica,sans-Serif" font-size="14.00">200</text>
<polygon fill="none" stroke="#334155" points="313.25,-332 313.25,-363 446.25,-363 446.25,-332 313.25,-332"/>
<text xml:space="preserve" text-anchor="start" x="328.75" y="-343.75" font-family="Helvetica,sans-Serif" font-size="14.00">up to 800 at target</text>
<polygon fill="none" stroke="#334155" points="446.25,-332 446.25,-363 544.75,-363 544.75,-332 446.25,-332"/>
<text xml:space="preserve" text-anchor="start" x="514.25" y="-343.75" font-family="Helvetica,sans-Serif" font-size="14.00">120</text>
<polygon fill="none" stroke="#334155" points="544.75,-332 544.75,-363 683,-363 683,-332 544.75,-332"/>
<text xml:space="preserve" text-anchor="start" x="660" y="-343.75" font-family="Helvetica,sans-Serif" font-size="14.00">40</text>
<polygon fill="none" stroke="#334155" points="683,-332 683,-363 803.25,-363 803.25,-332 683,-332"/>
<text xml:space="preserve" text-anchor="start" x="772.75" y="-343.75" font-family="Helvetica,sans-Serif" font-size="14.00">200</text>
<polygon fill="none" stroke="#334155" points="23.75,-301 23.75,-332 154.5,-332 154.5,-301 23.75,-301"/>
<text xml:space="preserve" text-anchor="start" x="31.75" y="-312.75" font-family="Helvetica,sans-Serif" font-size="14.00">Hold spike 2</text>
<polygon fill="none" stroke="#334155" points="154.5,-301 154.5,-332 226,-332 226,-301 154.5,-301"/>
<text xml:space="preserve" text-anchor="start" x="198.5" y="-312.75" font-family="Helvetica,sans-Serif" font-size="14.00">1m</text>
<polygon fill="none" stroke="#334155" points="226,-301 226,-332 313.25,-332 313.25,-301 226,-301"/>
<text xml:space="preserve" text-anchor="start" x="282.75" y="-312.75" font-family="Helvetica,sans-Serif" font-size="14.00">200</text>
<polygon fill="none" stroke="#334155" points="313.25,-301 313.25,-332 446.25,-332 446.25,-301 313.25,-301"/>
<text xml:space="preserve" text-anchor="start" x="357.25" y="-312.75" font-family="Helvetica,sans-Serif" font-size="14.00">800 per wave</text>
<polygon fill="none" stroke="#334155" points="446.25,-301 446.25,-332 544.75,-332 544.75,-301 446.25,-301"/>
<text xml:space="preserve" text-anchor="start" x="514.25" y="-312.75" font-family="Helvetica,sans-Serif" font-size="14.00">120</text>
<polygon fill="none" stroke="#334155" points="544.75,-301 544.75,-332 683,-332 683,-301 544.75,-301"/>
<text xml:space="preserve" text-anchor="start" x="660" y="-312.75" font-family="Helvetica,sans-Serif" font-size="14.00">40</text>
<polygon fill="none" stroke="#334155" points="683,-301 683,-332 803.25,-332 803.25,-301 683,-301"/>
<text xml:space="preserve" text-anchor="start" x="772.75" y="-312.75" font-family="Helvetica,sans-Serif" font-size="14.00">200</text>
<polygon fill="none" stroke="#334155" points="23.75,-270 23.75,-301 154.5,-301 154.5,-270 23.75,-270"/>
<text xml:space="preserve" text-anchor="start" x="31.75" y="-281.75" font-family="Helvetica,sans-Serif" font-size="14.00">Recovery</text>
<polygon fill="none" stroke="#334155" points="154.5,-270 154.5,-301 226,-301 226,-270 154.5,-270"/>
<text xml:space="preserve" text-anchor="start" x="198.5" y="-281.75" font-family="Helvetica,sans-Serif" font-size="14.00">1m</text>
<polygon fill="none" stroke="#334155" points="226,-270 226,-301 313.25,-301 313.25,-270 226,-270"/>
<text xml:space="preserve" text-anchor="start" x="290.25" y="-281.75" font-family="Helvetica,sans-Serif" font-size="14.00">25</text>
<polygon fill="none" stroke="#334155" points="313.25,-270 313.25,-301 446.25,-301 446.25,-270 313.25,-270"/>
<text xml:space="preserve" text-anchor="start" x="357.25" y="-281.75" font-family="Helvetica,sans-Serif" font-size="14.00">100 per wave</text>
<polygon fill="none" stroke="#334155" points="446.25,-270 446.25,-301 544.75,-301 544.75,-270 446.25,-270"/>
<text xml:space="preserve" text-anchor="start" x="521.75" y="-281.75" font-family="Helvetica,sans-Serif" font-size="14.00">15</text>
<polygon fill="none" stroke="#334155" points="544.75,-270 544.75,-301 683,-301 683,-270 544.75,-270"/>
<text xml:space="preserve" text-anchor="start" x="667.5" y="-281.75" font-family="Helvetica,sans-Serif" font-size="14.00">5</text>
<polygon fill="none" stroke="#334155" points="683,-270 683,-301 803.25,-301 803.25,-270 683,-270"/>
<text xml:space="preserve" text-anchor="start" x="780.25" y="-281.75" font-family="Helvetica,sans-Serif" font-size="14.00">25</text>
<polygon fill="none" stroke="#334155" points="23.75,-239 23.75,-270 154.5,-270 154.5,-239 23.75,-239"/>
<text xml:space="preserve" text-anchor="start" x="31.75" y="-250.75" font-family="Helvetica,sans-Serif" font-size="14.00">Ramp to spike 3</text>
<polygon fill="none" stroke="#334155" points="154.5,-239 154.5,-270 226,-270 226,-239 154.5,-239"/>
<text xml:space="preserve" text-anchor="start" x="196.25" y="-250.75" font-family="Helvetica,sans-Serif" font-size="14.00">30s</text>
<polygon fill="none" stroke="#334155" points="226,-239 226,-270 313.25,-270 313.25,-239 226,-239"/>
<text xml:space="preserve" text-anchor="start" x="282.75" y="-250.75" font-family="Helvetica,sans-Serif" font-size="14.00">400</text>
<polygon fill="none" stroke="#334155" points="313.25,-239 313.25,-270 446.25,-270 446.25,-239 313.25,-239"/>
<text xml:space="preserve" text-anchor="start" x="321.25" y="-250.75" font-family="Helvetica,sans-Serif" font-size="14.00">up to 1600 at target</text>
<polygon fill="none" stroke="#334155" points="446.25,-239 446.25,-270 544.75,-270 544.75,-239 446.25,-239"/>
<text xml:space="preserve" text-anchor="start" x="514.25" y="-250.75" font-family="Helvetica,sans-Serif" font-size="14.00">240</text>
<polygon fill="none" stroke="#334155" points="544.75,-239 544.75,-270 683,-270 683,-239 544.75,-239"/>
<text xml:space="preserve" text-anchor="start" x="660" y="-250.75" font-family="Helvetica,sans-Serif" font-size="14.00">80</text>
<polygon fill="none" stroke="#334155" points="683,-239 683,-270 803.25,-270 803.25,-239 683,-239"/>
<text xml:space="preserve" text-anchor="start" x="772.75" y="-250.75" font-family="Helvetica,sans-Serif" font-size="14.00">400</text>
<polygon fill="none" stroke="#334155" points="23.75,-208 23.75,-239 154.5,-239 154.5,-208 23.75,-208"/>
<text xml:space="preserve" text-anchor="start" x="31.75" y="-219.75" font-family="Helvetica,sans-Serif" font-size="14.00">Hold spike 3</text>
<polygon fill="none" stroke="#334155" points="154.5,-208 154.5,-239 226,-239 226,-208 154.5,-208"/>
<text xml:space="preserve" text-anchor="start" x="198.5" y="-219.75" font-family="Helvetica,sans-Serif" font-size="14.00">1m</text>
<polygon fill="none" stroke="#334155" points="226,-208 226,-239 313.25,-239 313.25,-208 226,-208"/>
<text xml:space="preserve" text-anchor="start" x="282.75" y="-219.75" font-family="Helvetica,sans-Serif" font-size="14.00">400</text>
<polygon fill="none" stroke="#334155" points="313.25,-208 313.25,-239 446.25,-239 446.25,-208 313.25,-208"/>
<text xml:space="preserve" text-anchor="start" x="349.75" y="-219.75" font-family="Helvetica,sans-Serif" font-size="14.00">1600 per wave</text>
<polygon fill="none" stroke="#334155" points="446.25,-208 446.25,-239 544.75,-239 544.75,-208 446.25,-208"/>
<text xml:space="preserve" text-anchor="start" x="514.25" y="-219.75" font-family="Helvetica,sans-Serif" font-size="14.00">240</text>
<polygon fill="none" stroke="#334155" points="544.75,-208 544.75,-239 683,-239 683,-208 544.75,-208"/>
<text xml:space="preserve" text-anchor="start" x="660" y="-219.75" font-family="Helvetica,sans-Serif" font-size="14.00">80</text>
<polygon fill="none" stroke="#334155" points="683,-208 683,-239 803.25,-239 803.25,-208 683,-208"/>
<text xml:space="preserve" text-anchor="start" x="772.75" y="-219.75" font-family="Helvetica,sans-Serif" font-size="14.00">400</text>
<polygon fill="none" stroke="#334155" points="23.75,-177 23.75,-208 154.5,-208 154.5,-177 23.75,-177"/>
<text xml:space="preserve" text-anchor="start" x="31.75" y="-188.75" font-family="Helvetica,sans-Serif" font-size="14.00">Ramp down</text>
<polygon fill="none" stroke="#334155" points="154.5,-177 154.5,-208 226,-208 226,-177 154.5,-177"/>
<text xml:space="preserve" text-anchor="start" x="198.5" y="-188.75" font-family="Helvetica,sans-Serif" font-size="14.00">1m</text>
<polygon fill="none" stroke="#334155" points="226,-177 226,-208 313.25,-208 313.25,-177 226,-177"/>
<text xml:space="preserve" text-anchor="start" x="297.75" y="-188.75" font-family="Helvetica,sans-Serif" font-size="14.00">0</text>
<polygon fill="none" stroke="#334155" points="313.25,-177 313.25,-208 446.25,-208 446.25,-177 313.25,-177"/>
<text xml:space="preserve" text-anchor="start" x="346" y="-188.75" font-family="Helvetica,sans-Serif" font-size="14.00">decreasing to 0</text>
<polygon fill="none" stroke="#334155" points="446.25,-177 446.25,-208 544.75,-208 544.75,-177 446.25,-177"/>
<text xml:space="preserve" text-anchor="start" x="470.75" y="-188.75" font-family="Helvetica,sans-Serif" font-size="14.00">decreasing</text>
<polygon fill="none" stroke="#334155" points="544.75,-177 544.75,-208 683,-208 683,-177 544.75,-177"/>
<text xml:space="preserve" text-anchor="start" x="609" y="-188.75" font-family="Helvetica,sans-Serif" font-size="14.00">decreasing</text>
<polygon fill="none" stroke="#334155" points="683,-177 683,-208 803.25,-208 803.25,-177 683,-177"/>
<text xml:space="preserve" text-anchor="start" x="729.25" y="-188.75" font-family="Helvetica,sans-Serif" font-size="14.00">decreasing</text>
<polygon fill="none" stroke="#334155" points="22.75,-176 22.75,-550 804.25,-550 804.25,-176 22.75,-176"/>
</g>
<!-- persona_table&#45;&gt;stage_table -->
<g id="edge2" class="edge">
<title>persona_table&#45;&gt;stage_table</title>
<path fill="none" stroke="#94a3b8" d="M413.5,-597.06C413.5,-584.38 413.5,-571.33 413.5,-558.18"/>
<polygon fill="#94a3b8" stroke="#94a3b8" points="415.95,-558.49 413.5,-551.49 411.05,-558.49 415.95,-558.49"/>
</g>
<!-- parallel_table -->
<g id="node4" class="node">
<title>parallel_table</title>
<polygon fill="#f3e8ff" stroke="none" points="13.75,-97 13.75,-128 813.25,-128 813.25,-97 13.75,-97"/>
<polygon fill="none" stroke="#334155" points="13.75,-97 13.75,-128 813.25,-128 813.25,-97 13.75,-97"/>
<text xml:space="preserve" text-anchor="start" x="281.88" y="-107.7" font-family="Helvetica,sans-Serif" font-weight="bold" font-size="14.00">Parallel scenarios in the combined script</text>
<polygon fill="#f1f5f9" stroke="none" points="13.75,-66 13.75,-97 178.25,-97 178.25,-66 13.75,-66"/>
<polygon fill="none" stroke="#334155" points="13.75,-66 13.75,-97 178.25,-97 178.25,-66 13.75,-66"/>
<text xml:space="preserve" text-anchor="start" x="67.5" y="-76.7" font-family="Helvetica,sans-Serif" font-weight="bold" font-size="14.00">Scenario</text>
<polygon fill="#f1f5f9" stroke="none" points="178.25,-66 178.25,-97 321,-97 321,-66 178.25,-66"/>
<polygon fill="none" stroke="#334155" points="178.25,-66 178.25,-97 321,-97 321,-66 178.25,-66"/>
<text xml:space="preserve" text-anchor="start" x="233.5" y="-76.7" font-family="Helvetica,sans-Serif" font-weight="bold" font-size="14.00">Load</text>
<polygon fill="#f1f5f9" stroke="none" points="321,-66 321,-97 813.25,-97 813.25,-66 321,-66"/>
<polygon fill="none" stroke="#334155" points="321,-66 321,-97 813.25,-97 813.25,-66 321,-66"/>
<text xml:space="preserve" text-anchor="start" x="518.38" y="-76.7" font-family="Helvetica,sans-Serif" font-weight="bold" font-size="14.00">Request model</text>
<polygon fill="none" stroke="#334155" points="13.75,-33.5 13.75,-66 178.25,-66 178.25,-33.5 13.75,-33.5"/>
<text xml:space="preserve" text-anchor="start" x="21.75" y="-46" font-family="Courier,monospace" font-size="14.00">regional_shoppers</text>
<polygon fill="none" stroke="#334155" points="178.25,-33.5 178.25,-66 321,-66 321,-33.5 178.25,-33.5"/>
<text xml:space="preserve" text-anchor="start" x="268.75" y="-46" font-family="Helvetica,sans-Serif" font-size="14.00">30 VUs</text>
<polygon fill="none" stroke="#334155" points="321,-33.5 321,-66 813.25,-66 813.25,-33.5 321,-33.5"/>
<text xml:space="preserve" text-anchor="start" x="329" y="-46" font-family="Helvetica,sans-Serif" font-size="14.00">About 120 requests per completed wave</text>
<polygon fill="none" stroke="#334155" points="13.75,-1 13.75,-33.5 178.25,-33.5 178.25,-1 13.75,-1"/>
<text xml:space="preserve" text-anchor="start" x="21.75" y="-13.5" font-family="Courier,monospace" font-size="14.00">storefront_actions</text>
<polygon fill="none" stroke="#334155" points="178.25,-1 178.25,-33.5 321,-33.5 321,-1 178.25,-1"/>
<text xml:space="preserve" text-anchor="start" x="186.25" y="-13.5" font-family="Helvetica,sans-Serif" font-size="14.00">5 browser VUs / 10m</text>
<polygon fill="none" stroke="#334155" points="321,-1 321,-33.5 813.25,-33.5 813.25,-1 321,-1"/>
<text xml:space="preserve" text-anchor="start" x="329" y="-13.5" font-family="Helvetica,sans-Serif" font-size="14.00">Generates Faro UI actions and browser metrics; standard http_reqs may be n/a</text>
<polygon fill="none" stroke="#334155" points="12.75,0 12.75,-129 814.25,-129 814.25,0 12.75,0"/>
</g>
<!-- stage_table&#45;&gt;parallel_table -->
<g id="edge3" class="edge">
<title>stage_table&#45;&gt;parallel_table</title>
<path fill="none" stroke="#94a3b8" d="M413.5,-176.33C413.5,-162.67 413.5,-149.47 413.5,-137.23"/>
<polygon fill="#94a3b8" stroke="#94a3b8" points="415.95,-137.43 413.5,-130.43 411.05,-137.43 415.95,-137.43"/>
</g>
</g>
</svg>
