<?xml version="1.0" encoding="UTF-8" standalone="no"?>
<!DOCTYPE svg PUBLIC "-//W3C//DTD SVG 1.1//EN"
 "http://www.w3.org/Graphics/SVG/1.1/DTD/svg11.dtd">
<!-- Generated by graphviz version 15.0.0 (20260523.1842)
 -->
<!-- Title: traffic_spike_request_model Pages: 1 -->
<svg width="3451pt" height="444pt"
 viewBox="0.00 0.00 3451.00 444.00" xmlns="http://www.w3.org/2000/svg" xmlns:xlink="http://www.w3.org/1999/xlink">
<g id="graph0" class="graph" transform="scale(1 1) rotate(0) translate(4 439.5)">
<title>traffic_spike_request_model</title>
<polygon fill="white" stroke="none" points="-4,4 -4,-439.5 3446.75,-439.5 3446.75,4 -4,4"/>
<text xml:space="preserve" text-anchor="middle" x="1721.38" y="-410.6" font-family="Helvetica,sans-Serif" font-size="22.00">Traffic Spike Request and Counter Model</text>
<g id="clust1" class="cluster">
<title>cluster_personas</title>
<path fill="none" stroke="#cbd5e1" stroke-dasharray="5,2" d="M20,-24C20,-24 855,-24 855,-24 861,-24 867,-30 867,-36 867,-36 867,-124 867,-124 867,-130 861,-136 855,-136 855,-136 20,-136 20,-136 14,-136 8,-130 8,-124 8,-124 8,-36 8,-36 8,-30 14,-24 20,-24"/>
<text xml:space="preserve" text-anchor="middle" x="437.5" y="-116.8" font-family="Helvetica,sans-Serif" font-size="16.00">traffic_spikes persona mix</text>
</g>
<g id="clust2" class="cluster">
<title>cluster_stages</title>
<path fill="none" stroke="#cbd5e1" stroke-dasharray="5,2" d="M1541.25,-272C1541.25,-272 3422.75,-272 3422.75,-272 3428.75,-272 3434.75,-278 3434.75,-284 3434.75,-284 3434.75,-385 3434.75,-385 3434.75,-391 3428.75,-397 3422.75,-397 3422.75,-397 1541.25,-397 1541.25,-397 1535.25,-397 1529.25,-391 1529.25,-385 1529.25,-385 1529.25,-284 1529.25,-284 1529.25,-278 1535.25,-272 1541.25,-272"/>
<text xml:space="preserve" text-anchor="middle" x="2482" y="-377.8" font-family="Helvetica,sans-Serif" font-size="16.00">Current k6 stages from grafana&#45;cloud&#45;traffic&#45;spikes.js</text>
</g>
<g id="clust3" class="cluster">
<title>cluster_parallel</title>
<path fill="none" stroke="#cbd5e1" stroke-dasharray="5,2" d="M1443.75,-8C1443.75,-8 1752.5,-8 1752.5,-8 1758.5,-8 1764.5,-14 1764.5,-20 1764.5,-20 1764.5,-252 1764.5,-252 1764.5,-258 1758.5,-264 1752.5,-264 1752.5,-264 1443.75,-264 1443.75,-264 1437.75,-264 1431.75,-258 1431.75,-252 1431.75,-252 1431.75,-20 1431.75,-20 1431.75,-14 1437.75,-8 1443.75,-8"/>
<text xml:space="preserve" text-anchor="middle" x="1598.12" y="-244.8" font-family="Helvetica,sans-Serif" font-size="16.00">Parallel scenarios in combined script</text>
</g>
<!-- note -->
<g id="node1" class="node">
<title>note</title>
<polygon fill="#fff7ed" stroke="#f97316" points="968.5,-190.12 615,-190.12 615,-143.88 974.5,-143.88 974.5,-184.12 968.5,-190.12"/>
<polyline fill="none" stroke="#f97316" points="968.5,-190.12 968.5,-184.12"/>
<polyline fill="none" stroke="#f97316" points="974.5,-184.12 968.5,-184.12"/>
<text xml:space="preserve" text-anchor="middle" x="794.75" y="-174.72" font-family="Helvetica,sans-Serif" font-size="12.00">ramping&#45;vus loops each active VU.</text>
<text xml:space="preserve" text-anchor="middle" x="794.75" y="-161.97" font-family="Helvetica,sans-Serif" font-size="12.00">Counts below are per completed VU wave.</text>
<text xml:space="preserve" text-anchor="middle" x="794.75" y="-149.22" font-family="Helvetica,sans-Serif" font-size="12.00">Actual totals depend on latency, sleeps, and iteration completion.</text>
</g>
<!-- avg -->
<g id="node2" class="node">
<title>avg</title>
<polygon fill="#ecfeff" stroke="#0891b2" points="1289,-135 1109.5,-135 1109.5,-131 1105.5,-131 1105.5,-127 1109.5,-127 1109.5,-107 1105.5,-107 1105.5,-103 1109.5,-103 1109.5,-99 1289,-99 1289,-135"/>
<polyline fill="none" stroke="#0891b2" points="1109.5,-131 1113.5,-131 1113.5,-127 1109.5,-127"/>
<polyline fill="none" stroke="#0891b2" points="1109.5,-107 1113.5,-107 1113.5,-103 1109.5,-103"/>
<text xml:space="preserve" text-anchor="middle" x="1199.25" y="-118.35" font-family="Helvetica,sans-Serif" font-size="12.00">Average traffic_spikes iteration</text>
<text xml:space="preserve" text-anchor="middle" x="1199.25" y="-105.6" font-family="Helvetica,sans-Serif" font-size="12.00">4 requests / VU wave</text>
</g>
<!-- note&#45;&gt;avg -->
<g id="edge14" class="edge">
<title>note&#45;&gt;avg</title>
<path fill="none" stroke="#475569" d="M974.93,-144.74C1017.77,-139.42 1061.96,-133.93 1099.61,-129.25"/>
<polygon fill="#475569" stroke="#475569" points="1099.94,-132.03 1107.53,-128.27 1099.25,-126.48 1099.94,-132.03"/>
</g>
<!-- warmup -->
<g id="node8" class="node">
<title>warmup</title>
<path fill="#f1f5f9" stroke="#334155" d="M1647,-364.25C1647,-364.25 1549.25,-364.25 1549.25,-364.25 1543.25,-364.25 1537.25,-358.25 1537.25,-352.25 1537.25,-352.25 1537.25,-291.75 1537.25,-291.75 1537.25,-285.75 1543.25,-279.75 1549.25,-279.75 1549.25,-279.75 1647,-279.75 1647,-279.75 1653,-279.75 1659,-285.75 1659,-291.75 1659,-291.75 1659,-352.25 1659,-352.25 1659,-358.25 1653,-364.25 1647,-364.25"/>
<text xml:space="preserve" text-anchor="middle" x="1598.12" y="-348.85" font-family="Helvetica,sans-Serif" font-size="12.00">Warmup</text>
<text xml:space="preserve" text-anchor="middle" x="1598.12" y="-336.1" font-family="Helvetica,sans-Serif" font-size="12.00">1m, 25 VUs</text>
<text xml:space="preserve" text-anchor="middle" x="1598.12" y="-323.35" font-family="Helvetica,sans-Serif" font-size="12.00">~100 requests</text>
<text xml:space="preserve" text-anchor="middle" x="1598.12" y="-310.6" font-family="Helvetica,sans-Serif" font-size="12.00">15 cart updates</text>
<text xml:space="preserve" text-anchor="middle" x="1598.12" y="-297.85" font-family="Helvetica,sans-Serif" font-size="12.00">5 checkout attempts</text>
<text xml:space="preserve" text-anchor="middle" x="1598.12" y="-285.1" font-family="Helvetica,sans-Serif" font-size="12.00">25 region changes</text>
</g>
<!-- avg&#45;&gt;warmup -->
<g id="edge15" class="edge">
<title>avg&#45;&gt;warmup</title>
<path fill="none" stroke="#475569" d="M1222.54,-135.26C1262.31,-167.06 1349.11,-232.91 1431.75,-272 1462.23,-286.42 1497.82,-297.81 1528.17,-306.06"/>
<polygon fill="#475569" stroke="#475569" points="1527.08,-308.67 1535.53,-308.02 1528.52,-303.26 1527.08,-308.67"/>
<text xml:space="preserve" text-anchor="middle" x="1364.38" y="-263.52" font-family="Helvetica,sans-Serif" font-size="11.00">stage estimates</text>
</g>
<!-- regional -->
<g id="node18" class="node">
<title>regional</title>
<path fill="#ecfdf5" stroke="#334155" d="M1706.62,-140.12C1706.62,-140.12 1489.62,-140.12 1489.62,-140.12 1483.62,-140.12 1477.62,-134.12 1477.62,-128.12 1477.62,-128.12 1477.62,-105.88 1477.62,-105.88 1477.62,-99.88 1483.62,-93.88 1489.62,-93.88 1489.62,-93.88 1706.62,-93.88 1706.62,-93.88 1712.62,-93.88 1718.62,-99.88 1718.62,-105.88 1718.62,-105.88 1718.62,-128.12 1718.62,-128.12 1718.62,-134.12 1712.62,-140.12 1706.62,-140.12"/>
<text xml:space="preserve" text-anchor="middle" x="1598.12" y="-124.72" font-family="Helvetica,sans-Serif" font-size="12.00">regional_shoppers</text>
<text xml:space="preserve" text-anchor="middle" x="1598.12" y="-111.97" font-family="Helvetica,sans-Serif" font-size="12.00">30 VUs for TEST_DURATION/default 10m</text>
<text xml:space="preserve" text-anchor="middle" x="1598.12" y="-99.22" font-family="Helvetica,sans-Serif" font-size="12.00">~120 requests per completed wave</text>
</g>
<!-- avg&#45;&gt;regional -->
<g id="edge16" class="edge">
<title>avg&#45;&gt;regional</title>
<path fill="none" stroke="#475569" d="M1289.32,-117C1342.03,-117 1409.72,-117 1468.19,-117"/>
<polygon fill="#475569" stroke="#475569" points="1467.98,-119.8 1475.98,-117 1467.98,-114.2 1467.98,-119.8"/>
<text xml:space="preserve" text-anchor="middle" x="1364.38" y="-118.55" font-family="Helvetica,sans-Serif" font-size="11.00">parallel HTTP load</text>
</g>
<!-- api_rate -->
<g id="node19" class="node">
<title>api_rate</title>
<path fill="#e0f2fe" stroke="#334155" d="M1657.5,-62.12C1657.5,-62.12 1538.75,-62.12 1538.75,-62.12 1532.75,-62.12 1526.75,-56.12 1526.75,-50.12 1526.75,-50.12 1526.75,-27.88 1526.75,-27.88 1526.75,-21.88 1532.75,-15.88 1538.75,-15.88 1538.75,-15.88 1657.5,-15.88 1657.5,-15.88 1663.5,-15.88 1669.5,-21.88 1669.5,-27.88 1669.5,-27.88 1669.5,-50.12 1669.5,-50.12 1669.5,-56.12 1663.5,-62.12 1657.5,-62.12"/>
<text xml:space="preserve" text-anchor="middle" x="1598.12" y="-46.73" font-family="Helvetica,sans-Serif" font-size="12.00">api_request_rate</text>
<text xml:space="preserve" text-anchor="middle" x="1598.12" y="-33.98" font-family="Helvetica,sans-Serif" font-size="12.00">constant arrival rate</text>
<text xml:space="preserve" text-anchor="middle" x="1598.12" y="-21.23" font-family="Helvetica,sans-Serif" font-size="12.00">60 requests/sec for 10m</text>
</g>
<!-- avg&#45;&gt;api_rate -->
<g id="edge17" class="edge">
<title>avg&#45;&gt;api_rate</title>
<path fill="none" stroke="#475569" d="M1289.32,-99.5C1357.74,-86.05 1451.41,-67.64 1517.39,-54.67"/>
<polygon fill="#475569" stroke="#475569" points="1517.71,-57.46 1525.02,-53.17 1516.63,-51.97 1517.71,-57.46"/>
<text xml:space="preserve" text-anchor="middle" x="1364.38" y="-95.5" font-family="Helvetica,sans-Serif" font-size="11.00">steady API pressure</text>
</g>
<!-- browser -->
<g id="node3" class="node">
<title>browser</title>
<path fill="#eef2ff" stroke="#334155" d="M75.5,-91.12C75.5,-91.12 28,-91.12 28,-91.12 22,-91.12 16,-85.12 16,-79.12 16,-79.12 16,-56.88 16,-56.88 16,-50.88 22,-44.88 28,-44.88 28,-44.88 75.5,-44.88 75.5,-44.88 81.5,-44.88 87.5,-50.88 87.5,-56.88 87.5,-56.88 87.5,-79.12 87.5,-79.12 87.5,-85.12 81.5,-91.12 75.5,-91.12"/>
<text xml:space="preserve" text-anchor="middle" x="51.75" y="-75.72" font-family="Helvetica,sans-Serif" font-size="12.00">browser</text>
<text xml:space="preserve" text-anchor="middle" x="51.75" y="-62.98" font-family="Helvetica,sans-Serif" font-size="12.00">3 requests</text>
<text xml:space="preserve" text-anchor="middle" x="51.75" y="-50.23" font-family="Helvetica,sans-Serif" font-size="12.00">region +1</text>
</g>
<!-- cart_builder -->
<g id="node4" class="node">
<title>cart_builder</title>
<path fill="#f0fdf4" stroke="#334155" d="M228.25,-97.5C228.25,-97.5 154.5,-97.5 154.5,-97.5 148.5,-97.5 142.5,-91.5 142.5,-85.5 142.5,-85.5 142.5,-50.5 142.5,-50.5 142.5,-44.5 148.5,-38.5 154.5,-38.5 154.5,-38.5 228.25,-38.5 228.25,-38.5 234.25,-38.5 240.25,-44.5 240.25,-50.5 240.25,-50.5 240.25,-85.5 240.25,-85.5 240.25,-91.5 234.25,-97.5 228.25,-97.5"/>
<text xml:space="preserve" text-anchor="middle" x="191.38" y="-82.1" font-family="Helvetica,sans-Serif" font-size="12.00">cart_builder</text>
<text xml:space="preserve" text-anchor="middle" x="191.38" y="-69.35" font-family="Helvetica,sans-Serif" font-size="12.00">4 requests</text>
<text xml:space="preserve" text-anchor="middle" x="191.38" y="-56.6" font-family="Helvetica,sans-Serif" font-size="12.00">region +1</text>
<text xml:space="preserve" text-anchor="middle" x="191.38" y="-43.85" font-family="Helvetica,sans-Serif" font-size="12.00">cart updates +1</text>
</g>
<!-- browser&#45;&gt;cart_builder -->
<!-- account_manager -->
<g id="node5" class="node">
<title>account_manager</title>
<path fill="#f8fafc" stroke="#334155" d="M395.25,-91.12C395.25,-91.12 307.25,-91.12 307.25,-91.12 301.25,-91.12 295.25,-85.12 295.25,-79.12 295.25,-79.12 295.25,-56.88 295.25,-56.88 295.25,-50.88 301.25,-44.88 307.25,-44.88 307.25,-44.88 395.25,-44.88 395.25,-44.88 401.25,-44.88 407.25,-50.88 407.25,-56.88 407.25,-56.88 407.25,-79.12 407.25,-79.12 407.25,-85.12 401.25,-91.12 395.25,-91.12"/>
<text xml:space="preserve" text-anchor="middle" x="351.25" y="-75.72" font-family="Helvetica,sans-Serif" font-size="12.00">account_manager</text>
<text xml:space="preserve" text-anchor="middle" x="351.25" y="-62.98" font-family="Helvetica,sans-Serif" font-size="12.00">4 requests</text>
<text xml:space="preserve" text-anchor="middle" x="351.25" y="-50.23" font-family="Helvetica,sans-Serif" font-size="12.00">region +1</text>
</g>
<!-- cart_builder&#45;&gt;account_manager -->
<!-- sale_hunter -->
<g id="node6" class="node">
<title>sale_hunter</title>
<path fill="#fefce8" stroke="#334155" d="M548,-97.5C548,-97.5 474.25,-97.5 474.25,-97.5 468.25,-97.5 462.25,-91.5 462.25,-85.5 462.25,-85.5 462.25,-50.5 462.25,-50.5 462.25,-44.5 468.25,-38.5 474.25,-38.5 474.25,-38.5 548,-38.5 548,-38.5 554,-38.5 560,-44.5 560,-50.5 560,-50.5 560,-85.5 560,-85.5 560,-91.5 554,-97.5 548,-97.5"/>
<text xml:space="preserve" text-anchor="middle" x="511.12" y="-82.1" font-family="Helvetica,sans-Serif" font-size="12.00">sale_hunter</text>
<text xml:space="preserve" text-anchor="middle" x="511.12" y="-69.35" font-family="Helvetica,sans-Serif" font-size="12.00">4 requests</text>
<text xml:space="preserve" text-anchor="middle" x="511.12" y="-56.6" font-family="Helvetica,sans-Serif" font-size="12.00">region +1</text>
<text xml:space="preserve" text-anchor="middle" x="511.12" y="-43.85" font-family="Helvetica,sans-Serif" font-size="12.00">cart updates +1</text>
</g>
<!-- account_manager&#45;&gt;sale_hunter -->
<!-- checkout -->
<g id="node7" class="node">
<title>checkout</title>
<path fill="#fef2f2" stroke="#334155" d="M847,-103.88C847,-103.88 742.5,-103.88 742.5,-103.88 736.5,-103.88 730.5,-97.88 730.5,-91.88 730.5,-91.88 730.5,-44.12 730.5,-44.12 730.5,-38.12 736.5,-32.12 742.5,-32.12 742.5,-32.12 847,-32.12 847,-32.12 853,-32.12 859,-38.12 859,-44.12 859,-44.12 859,-91.88 859,-91.88 859,-97.88 853,-103.88 847,-103.88"/>
<text xml:space="preserve" text-anchor="middle" x="794.75" y="-88.47" font-family="Helvetica,sans-Serif" font-size="12.00">checkout</text>
<text xml:space="preserve" text-anchor="middle" x="794.75" y="-75.72" font-family="Helvetica,sans-Serif" font-size="12.00">5 requests</text>
<text xml:space="preserve" text-anchor="middle" x="794.75" y="-62.98" font-family="Helvetica,sans-Serif" font-size="12.00">region +1</text>
<text xml:space="preserve" text-anchor="middle" x="794.75" y="-50.23" font-family="Helvetica,sans-Serif" font-size="12.00">cart updates +1</text>
<text xml:space="preserve" text-anchor="middle" x="794.75" y="-37.48" font-family="Helvetica,sans-Serif" font-size="12.00">checkout attempts +1</text>
</g>
<!-- sale_hunter&#45;&gt;checkout -->
<!-- checkout&#45;&gt;avg -->
<g id="edge18" class="edge">
<title>checkout&#45;&gt;avg</title>
<path fill="none" stroke="#475569" d="M859.08,-75.71C923.76,-83.58 1025.04,-95.91 1100.11,-105.05"/>
<polygon fill="#475569" stroke="#475569" points="1099.34,-107.78 1107.62,-105.97 1100.02,-102.22 1099.34,-107.78"/>
<text xml:space="preserve" text-anchor="middle" x="1042" y="-104.07" font-family="Helvetica,sans-Serif" font-size="11.00">persona average</text>
</g>
<!-- ramp1 -->
<g id="node9" class="node">
<title>ramp1</title>
<path fill="#dbeafe" stroke="#334155" d="M1928,-364.25C1928,-364.25 1823.5,-364.25 1823.5,-364.25 1817.5,-364.25 1811.5,-358.25 1811.5,-352.25 1811.5,-352.25 1811.5,-291.75 1811.5,-291.75 1811.5,-285.75 1817.5,-279.75 1823.5,-279.75 1823.5,-279.75 1928,-279.75 1928,-279.75 1934,-279.75 1940,-285.75 1940,-291.75 1940,-291.75 1940,-352.25 1940,-352.25 1940,-358.25 1934,-364.25 1928,-364.25"/>
<text xml:space="preserve" text-anchor="middle" x="1875.75" y="-348.85" font-family="Helvetica,sans-Serif" font-size="12.00">Ramp to Spike 1</text>
<text xml:space="preserve" text-anchor="middle" x="1875.75" y="-336.1" font-family="Helvetica,sans-Serif" font-size="12.00">20s, 100 VUs</text>
<text xml:space="preserve" text-anchor="middle" x="1875.75" y="-323.35" font-family="Helvetica,sans-Serif" font-size="12.00">up to ~400 requests</text>
<text xml:space="preserve" text-anchor="middle" x="1875.75" y="-310.6" font-family="Helvetica,sans-Serif" font-size="12.00">60 cart updates</text>
<text xml:space="preserve" text-anchor="middle" x="1875.75" y="-297.85" font-family="Helvetica,sans-Serif" font-size="12.00">20 checkout attempts</text>
<text xml:space="preserve" text-anchor="middle" x="1875.75" y="-285.1" font-family="Helvetica,sans-Serif" font-size="12.00">100 region changes</text>
</g>
<!-- warmup&#45;&gt;ramp1 -->
<g id="edge5" class="edge">
<title>warmup&#45;&gt;ramp1</title>
<path fill="none" stroke="#475569" d="M1659.27,-322C1701.27,-322 1757.55,-322 1802.07,-322"/>
<polygon fill="#475569" stroke="#475569" points="1801.86,-324.8 1809.86,-322 1801.86,-319.2 1801.86,-324.8"/>
</g>
<!-- hold1 -->
<g id="node10" class="node">
<title>hold1</title>
<path fill="#bfdbfe" stroke="#334155" d="M2112.25,-364.25C2112.25,-364.25 2007,-364.25 2007,-364.25 2001,-364.25 1995,-358.25 1995,-352.25 1995,-352.25 1995,-291.75 1995,-291.75 1995,-285.75 2001,-279.75 2007,-279.75 2007,-279.75 2112.25,-279.75 2112.25,-279.75 2118.25,-279.75 2124.25,-285.75 2124.25,-291.75 2124.25,-291.75 2124.25,-352.25 2124.25,-352.25 2124.25,-358.25 2118.25,-364.25 2112.25,-364.25"/>
<text xml:space="preserve" text-anchor="middle" x="2059.62" y="-348.85" font-family="Helvetica,sans-Serif" font-size="12.00">Hold Spike 1</text>
<text xml:space="preserve" text-anchor="middle" x="2059.62" y="-336.1" font-family="Helvetica,sans-Serif" font-size="12.00">1m20s, 100 VUs</text>
<text xml:space="preserve" text-anchor="middle" x="2059.62" y="-323.35" font-family="Helvetica,sans-Serif" font-size="12.00">~400 requests / wave</text>
<text xml:space="preserve" text-anchor="middle" x="2059.62" y="-310.6" font-family="Helvetica,sans-Serif" font-size="12.00">60 cart updates</text>
<text xml:space="preserve" text-anchor="middle" x="2059.62" y="-297.85" font-family="Helvetica,sans-Serif" font-size="12.00">20 checkout attempts</text>
<text xml:space="preserve" text-anchor="middle" x="2059.62" y="-285.1" font-family="Helvetica,sans-Serif" font-size="12.00">100 region changes</text>
</g>
<!-- ramp1&#45;&gt;hold1 -->
<g id="edge6" class="edge">
<title>ramp1&#45;&gt;hold1</title>
<path fill="none" stroke="#475569" d="M1940.36,-322C1954.95,-322 1970.58,-322 1985.53,-322"/>
<polygon fill="#475569" stroke="#475569" points="1985.23,-324.8 1993.23,-322 1985.23,-319.2 1985.23,-324.8"/>
</g>
<!-- recovery1 -->
<g id="node11" class="node">
<title>recovery1</title>
<path fill="#f1f5f9" stroke="#334155" d="M2296.5,-364.25C2296.5,-364.25 2191.25,-364.25 2191.25,-364.25 2185.25,-364.25 2179.25,-358.25 2179.25,-352.25 2179.25,-352.25 2179.25,-291.75 2179.25,-291.75 2179.25,-285.75 2185.25,-279.75 2191.25,-279.75 2191.25,-279.75 2296.5,-279.75 2296.5,-279.75 2302.5,-279.75 2308.5,-285.75 2308.5,-291.75 2308.5,-291.75 2308.5,-352.25 2308.5,-352.25 2308.5,-358.25 2302.5,-364.25 2296.5,-364.25"/>
<text xml:space="preserve" text-anchor="middle" x="2243.88" y="-348.85" font-family="Helvetica,sans-Serif" font-size="12.00">Recovery</text>
<text xml:space="preserve" text-anchor="middle" x="2243.88" y="-336.1" font-family="Helvetica,sans-Serif" font-size="12.00">1m, 25 VUs</text>
<text xml:space="preserve" text-anchor="middle" x="2243.88" y="-323.35" font-family="Helvetica,sans-Serif" font-size="12.00">~100 requests / wave</text>
<text xml:space="preserve" text-anchor="middle" x="2243.88" y="-310.6" font-family="Helvetica,sans-Serif" font-size="12.00">15 cart updates</text>
<text xml:space="preserve" text-anchor="middle" x="2243.88" y="-297.85" font-family="Helvetica,sans-Serif" font-size="12.00">5 checkout attempts</text>
<text xml:space="preserve" text-anchor="middle" x="2243.88" y="-285.1" font-family="Helvetica,sans-Serif" font-size="12.00">25 region changes</text>
</g>
<!-- hold1&#45;&gt;recovery1 -->
<g id="edge7" class="edge">
<title>hold1&#45;&gt;recovery1</title>
<path fill="none" stroke="#475569" d="M2124.62,-322C2139.23,-322 2154.87,-322 2169.82,-322"/>
<polygon fill="#475569" stroke="#475569" points="2169.52,-324.8 2177.52,-322 2169.52,-319.2 2169.52,-324.8"/>
</g>
<!-- ramp2 -->
<g id="node12" class="node">
<title>ramp2</title>
<path fill="#fde68a" stroke="#334155" d="M2480,-364.25C2480,-364.25 2375.5,-364.25 2375.5,-364.25 2369.5,-364.25 2363.5,-358.25 2363.5,-352.25 2363.5,-352.25 2363.5,-291.75 2363.5,-291.75 2363.5,-285.75 2369.5,-279.75 2375.5,-279.75 2375.5,-279.75 2480,-279.75 2480,-279.75 2486,-279.75 2492,-285.75 2492,-291.75 2492,-291.75 2492,-352.25 2492,-352.25 2492,-358.25 2486,-364.25 2480,-364.25"/>
<text xml:space="preserve" text-anchor="middle" x="2427.75" y="-348.85" font-family="Helvetica,sans-Serif" font-size="12.00">Ramp to Spike 2</text>
<text xml:space="preserve" text-anchor="middle" x="2427.75" y="-336.1" font-family="Helvetica,sans-Serif" font-size="12.00">20s, 200 VUs</text>
<text xml:space="preserve" text-anchor="middle" x="2427.75" y="-323.35" font-family="Helvetica,sans-Serif" font-size="12.00">up to ~800 requests</text>
<text xml:space="preserve" text-anchor="middle" x="2427.75" y="-310.6" font-family="Helvetica,sans-Serif" font-size="12.00">120 cart updates</text>
<text xml:space="preserve" text-anchor="middle" x="2427.75" y="-297.85" font-family="Helvetica,sans-Serif" font-size="12.00">40 checkout attempts</text>
<text xml:space="preserve" text-anchor="middle" x="2427.75" y="-285.1" font-family="Helvetica,sans-Serif" font-size="12.00">200 region changes</text>
</g>
<!-- recovery1&#45;&gt;ramp2 -->
<g id="edge8" class="edge">
<title>recovery1&#45;&gt;ramp2</title>
<path fill="none" stroke="#475569" d="M2309,-322C2323.56,-322 2339.14,-322 2354.04,-322"/>
<polygon fill="#475569" stroke="#475569" points="2353.69,-324.8 2361.69,-322 2353.69,-319.2 2353.69,-324.8"/>
</g>
<!-- hold2 -->
<g id="node13" class="node">
<title>hold2</title>
<path fill="#fcd34d" stroke="#334155" d="M2664.25,-364.25C2664.25,-364.25 2559,-364.25 2559,-364.25 2553,-364.25 2547,-358.25 2547,-352.25 2547,-352.25 2547,-291.75 2547,-291.75 2547,-285.75 2553,-279.75 2559,-279.75 2559,-279.75 2664.25,-279.75 2664.25,-279.75 2670.25,-279.75 2676.25,-285.75 2676.25,-291.75 2676.25,-291.75 2676.25,-352.25 2676.25,-352.25 2676.25,-358.25 2670.25,-364.25 2664.25,-364.25"/>
<text xml:space="preserve" text-anchor="middle" x="2611.62" y="-348.85" font-family="Helvetica,sans-Serif" font-size="12.00">Hold Spike 2</text>
<text xml:space="preserve" text-anchor="middle" x="2611.62" y="-336.1" font-family="Helvetica,sans-Serif" font-size="12.00">1m20s, 200 VUs</text>
<text xml:space="preserve" text-anchor="middle" x="2611.62" y="-323.35" font-family="Helvetica,sans-Serif" font-size="12.00">~800 requests / wave</text>
<text xml:space="preserve" text-anchor="middle" x="2611.62" y="-310.6" font-family="Helvetica,sans-Serif" font-size="12.00">120 cart updates</text>
<text xml:space="preserve" text-anchor="middle" x="2611.62" y="-297.85" font-family="Helvetica,sans-Serif" font-size="12.00">40 checkout attempts</text>
<text xml:space="preserve" text-anchor="middle" x="2611.62" y="-285.1" font-family="Helvetica,sans-Serif" font-size="12.00">200 region changes</text>
</g>
<!-- ramp2&#45;&gt;hold2 -->
<g id="edge9" class="edge">
<title>ramp2&#45;&gt;hold2</title>
<path fill="none" stroke="#475569" d="M2492.36,-322C2506.95,-322 2522.58,-322 2537.53,-322"/>
<polygon fill="#475569" stroke="#475569" points="2537.23,-324.8 2545.23,-322 2537.23,-319.2 2537.23,-324.8"/>
</g>
<!-- recovery2 -->
<g id="node14" class="node">
<title>recovery2</title>
<path fill="#f1f5f9" stroke="#334155" d="M2848.5,-364.25C2848.5,-364.25 2743.25,-364.25 2743.25,-364.25 2737.25,-364.25 2731.25,-358.25 2731.25,-352.25 2731.25,-352.25 2731.25,-291.75 2731.25,-291.75 2731.25,-285.75 2737.25,-279.75 2743.25,-279.75 2743.25,-279.75 2848.5,-279.75 2848.5,-279.75 2854.5,-279.75 2860.5,-285.75 2860.5,-291.75 2860.5,-291.75 2860.5,-352.25 2860.5,-352.25 2860.5,-358.25 2854.5,-364.25 2848.5,-364.25"/>
<text xml:space="preserve" text-anchor="middle" x="2795.88" y="-348.85" font-family="Helvetica,sans-Serif" font-size="12.00">Recovery</text>
<text xml:space="preserve" text-anchor="middle" x="2795.88" y="-336.1" font-family="Helvetica,sans-Serif" font-size="12.00">1m, 25 VUs</text>
<text xml:space="preserve" text-anchor="middle" x="2795.88" y="-323.35" font-family="Helvetica,sans-Serif" font-size="12.00">~100 requests / wave</text>
<text xml:space="preserve" text-anchor="middle" x="2795.88" y="-310.6" font-family="Helvetica,sans-Serif" font-size="12.00">15 cart updates</text>
<text xml:space="preserve" text-anchor="middle" x="2795.88" y="-297.85" font-family="Helvetica,sans-Serif" font-size="12.00">5 checkout attempts</text>
<text xml:space="preserve" text-anchor="middle" x="2795.88" y="-285.1" font-family="Helvetica,sans-Serif" font-size="12.00">25 region changes</text>
</g>
<!-- hold2&#45;&gt;recovery2 -->
<g id="edge10" class="edge">
<title>hold2&#45;&gt;recovery2</title>
<path fill="none" stroke="#475569" d="M2676.62,-322C2691.23,-322 2706.87,-322 2721.82,-322"/>
<polygon fill="#475569" stroke="#475569" points="2721.52,-324.8 2729.52,-322 2721.52,-319.2 2721.52,-324.8"/>
</g>
<!-- ramp3 -->
<g id="node15" class="node">
<title>ramp3</title>
<path fill="#fecaca" stroke="#334155" d="M3032,-364.25C3032,-364.25 2927.5,-364.25 2927.5,-364.25 2921.5,-364.25 2915.5,-358.25 2915.5,-352.25 2915.5,-352.25 2915.5,-291.75 2915.5,-291.75 2915.5,-285.75 2921.5,-279.75 2927.5,-279.75 2927.5,-279.75 3032,-279.75 3032,-279.75 3038,-279.75 3044,-285.75 3044,-291.75 3044,-291.75 3044,-352.25 3044,-352.25 3044,-358.25 3038,-364.25 3032,-364.25"/>
<text xml:space="preserve" text-anchor="middle" x="2979.75" y="-348.85" font-family="Helvetica,sans-Serif" font-size="12.00">Ramp to Spike 3</text>
<text xml:space="preserve" text-anchor="middle" x="2979.75" y="-336.1" font-family="Helvetica,sans-Serif" font-size="12.00">20s, 400 VUs</text>
<text xml:space="preserve" text-anchor="middle" x="2979.75" y="-323.35" font-family="Helvetica,sans-Serif" font-size="12.00">up to ~1600 requests</text>
<text xml:space="preserve" text-anchor="middle" x="2979.75" y="-310.6" font-family="Helvetica,sans-Serif" font-size="12.00">240 cart updates</text>
<text xml:space="preserve" text-anchor="middle" x="2979.75" y="-297.85" font-family="Helvetica,sans-Serif" font-size="12.00">80 checkout attempts</text>
<text xml:space="preserve" text-anchor="middle" x="2979.75" y="-285.1" font-family="Helvetica,sans-Serif" font-size="12.00">400 region changes</text>
</g>
<!-- recovery2&#45;&gt;ramp3 -->
<g id="edge11" class="edge">
<title>recovery2&#45;&gt;ramp3</title>
<path fill="none" stroke="#475569" d="M2861,-322C2875.56,-322 2891.14,-322 2906.04,-322"/>
<polygon fill="#475569" stroke="#475569" points="2905.69,-324.8 2913.69,-322 2905.69,-319.2 2905.69,-324.8"/>
</g>
<!-- hold3 -->
<g id="node16" class="node">
<title>hold3</title>
<path fill="#fca5a5" stroke="#334155" d="M3223,-364.25C3223,-364.25 3111,-364.25 3111,-364.25 3105,-364.25 3099,-358.25 3099,-352.25 3099,-352.25 3099,-291.75 3099,-291.75 3099,-285.75 3105,-279.75 3111,-279.75 3111,-279.75 3223,-279.75 3223,-279.75 3229,-279.75 3235,-285.75 3235,-291.75 3235,-291.75 3235,-352.25 3235,-352.25 3235,-358.25 3229,-364.25 3223,-364.25"/>
<text xml:space="preserve" text-anchor="middle" x="3167" y="-348.85" font-family="Helvetica,sans-Serif" font-size="12.00">Hold Spike 3</text>
<text xml:space="preserve" text-anchor="middle" x="3167" y="-336.1" font-family="Helvetica,sans-Serif" font-size="12.00">1m20s, 400 VUs</text>
<text xml:space="preserve" text-anchor="middle" x="3167" y="-323.35" font-family="Helvetica,sans-Serif" font-size="12.00">~1600 requests / wave</text>
<text xml:space="preserve" text-anchor="middle" x="3167" y="-310.6" font-family="Helvetica,sans-Serif" font-size="12.00">240 cart updates</text>
<text xml:space="preserve" text-anchor="middle" x="3167" y="-297.85" font-family="Helvetica,sans-Serif" font-size="12.00">80 checkout attempts</text>
<text xml:space="preserve" text-anchor="middle" x="3167" y="-285.1" font-family="Helvetica,sans-Serif" font-size="12.00">400 region changes</text>
</g>
<!-- ramp3&#45;&gt;hold3 -->
<g id="edge12" class="edge">
<title>ramp3&#45;&gt;hold3</title>
<path fill="none" stroke="#475569" d="M3044.24,-322C3058.82,-322 3074.46,-322 3089.51,-322"/>
<polygon fill="#475569" stroke="#475569" points="3089.28,-324.8 3097.28,-322 3089.28,-319.2 3089.28,-324.8"/>
</g>
<!-- rampdown -->
<g id="node17" class="node">
<title>rampdown</title>
<path fill="#e2e8f0" stroke="#334155" d="M3414.75,-345.12C3414.75,-345.12 3302,-345.12 3302,-345.12 3296,-345.12 3290,-339.12 3290,-333.12 3290,-333.12 3290,-310.88 3290,-310.88 3290,-304.88 3296,-298.88 3302,-298.88 3302,-298.88 3414.75,-298.88 3414.75,-298.88 3420.75,-298.88 3426.75,-304.88 3426.75,-310.88 3426.75,-310.88 3426.75,-333.12 3426.75,-333.12 3426.75,-339.12 3420.75,-345.12 3414.75,-345.12"/>
<text xml:space="preserve" text-anchor="middle" x="3358.38" y="-329.73" font-family="Helvetica,sans-Serif" font-size="12.00">Ramp down</text>
<text xml:space="preserve" text-anchor="middle" x="3358.38" y="-316.98" font-family="Helvetica,sans-Serif" font-size="12.00">2m, 0 VUs</text>
<text xml:space="preserve" text-anchor="middle" x="3358.38" y="-304.23" font-family="Helvetica,sans-Serif" font-size="12.00">requests decrease to 0</text>
</g>
<!-- hold3&#45;&gt;rampdown -->
<g id="edge13" class="edge">
<title>hold3&#45;&gt;rampdown</title>
<path fill="none" stroke="#475569" d="M3235.3,-322C3249.91,-322 3265.48,-322 3280.44,-322"/>
<polygon fill="#475569" stroke="#475569" points="3280.14,-324.8 3288.14,-322 3280.14,-319.2 3280.14,-324.8"/>
</g>
<!-- storefront -->
<g id="node20" class="node">
<title>storefront</title>
<path fill="#faf5ff" stroke="#334155" d="M1744.5,-231.5C1744.5,-231.5 1451.75,-231.5 1451.75,-231.5 1445.75,-231.5 1439.75,-225.5 1439.75,-219.5 1439.75,-219.5 1439.75,-184.5 1439.75,-184.5 1439.75,-178.5 1445.75,-172.5 1451.75,-172.5 1451.75,-172.5 1744.5,-172.5 1744.5,-172.5 1750.5,-172.5 1756.5,-178.5 1756.5,-184.5 1756.5,-184.5 1756.5,-219.5 1756.5,-219.5 1756.5,-225.5 1750.5,-231.5 1744.5,-231.5"/>
<text xml:space="preserve" text-anchor="middle" x="1598.12" y="-216.1" font-family="Helvetica,sans-Serif" font-size="12.00">storefront_actions</text>
<text xml:space="preserve" text-anchor="middle" x="1598.12" y="-203.35" font-family="Helvetica,sans-Serif" font-size="12.00">ramp to 5 browser VUs over 2m, hold 6m, ramp down 2m</text>
<text xml:space="preserve" text-anchor="middle" x="1598.12" y="-190.6" font-family="Helvetica,sans-Serif" font-size="12.00">Faro UI actions + browser metrics</text>
<text xml:space="preserve" text-anchor="middle" x="1598.12" y="-177.85" font-family="Helvetica,sans-Serif" font-size="12.00">standard http_reqs may be n/a</text>
</g>
</g>
</svg>
