<?xml version="1.0" encoding="UTF-8" standalone="no"?>
<!DOCTYPE svg PUBLIC "-//W3C//DTD SVG 1.1//EN"
 "http://www.w3.org/Graphics/SVG/1.1/DTD/svg11.dtd">
<!-- Generated by graphviz version 15.0.0 (20260523.1842)
 -->
<!-- Title: traffic_spike_requests_only Pages: 1 -->
<svg width="3887pt" height="268pt"
 viewBox="0.00 0.00 3887.00 268.00" xmlns="http://www.w3.org/2000/svg" xmlns:xlink="http://www.w3.org/1999/xlink">
<g id="graph0" class="graph" transform="scale(1 1) rotate(0) translate(4 264)">
<title>traffic_spike_requests_only</title>
<polygon fill="white" stroke="none" points="-4,4 -4,-264 3883,-264 3883,4 -4,4"/>
<text xml:space="preserve" text-anchor="middle" x="1939.5" y="-237" font-family="Helvetica,sans-Serif" font-size="20.00">Traffic Spike Requests per Completed Wave</text>
<g id="clust1" class="cluster">
<title>cluster_persona_math</title>
<path fill="none" stroke="#cbd5e1" stroke-dasharray="5,2" d="M20,-91C20,-91 1054.22,-91 1054.22,-91 1060.22,-91 1066.22,-97 1066.22,-103 1066.22,-103 1066.22,-154 1066.22,-154 1066.22,-160 1060.22,-166 1054.22,-166 1054.22,-166 20,-166 20,-166 14,-166 8,-160 8,-154 8,-154 8,-103 8,-103 8,-97 14,-91 20,-91"/>
<text xml:space="preserve" text-anchor="middle" x="537.11" y="-149.65" font-family="Helvetica,sans-Serif" font-size="13.00">Per iteration request mix</text>
</g>
<g id="clust2" class="cluster">
<title>cluster_stage_flow</title>
<path fill="none" stroke="#cbd5e1" stroke-dasharray="5,2" d="M1302.59,-148C1302.59,-148 3859,-148 3859,-148 3865,-148 3871,-154 3871,-160 3871,-160 3871,-211 3871,-211 3871,-217 3865,-223 3859,-223 3859,-223 1302.59,-223 1302.59,-223 1296.59,-223 1290.59,-217 1290.59,-211 1290.59,-211 1290.59,-160 1290.59,-160 1290.59,-154 1296.59,-148 1302.59,-148"/>
<text xml:space="preserve" text-anchor="middle" x="2580.79" y="-206.65" font-family="Helvetica,sans-Serif" font-size="13.00">traffic_spikes stage model</text>
</g>
<g id="clust3" class="cluster">
<title>cluster_parallel</title>
<path fill="none" stroke="#cbd5e1" stroke-dasharray="5,2" d="M1150.47,-8C1150.47,-8 1628.53,-8 1628.53,-8 1634.53,-8 1640.53,-14 1640.53,-20 1640.53,-20 1640.53,-128 1640.53,-128 1640.53,-134 1634.53,-140 1628.53,-140 1628.53,-140 1150.47,-140 1150.47,-140 1144.47,-140 1138.47,-134 1138.47,-128 1138.47,-128 1138.47,-20 1138.47,-20 1138.47,-14 1144.47,-8 1150.47,-8"/>
<text xml:space="preserve" text-anchor="middle" x="1389.5" y="-123.65" font-family="Helvetica,sans-Serif" font-size="13.00">Parallel request load</text>
</g>
<!-- note&#45;&gt;p_avg -->
<g id="edge15" class="edge">
<title>note&#45;&gt;p_avg</title>
<path fill="none" stroke="#475569" stroke-width="1.2" d="M860.12,-173.53C874.82,-171.42 884.68,-170 884.68,-170 884.68,-170 919.1,-154.21 950.02,-140.04"/>
<polygon fill="#475569" stroke="#475569" stroke-width="1.2" points="950.78,-142.38 956.13,-137.24 948.74,-137.93 950.78,-142.38"/>
<text xml:space="preserve" text-anchor="middle" x="912.3" y="-164.2" font-family="Helvetica,sans-Serif" font-size="10.00">basis</text>
</g>
<!-- p_browser&#45;&gt;p_cart -->
<!-- p_cart&#45;&gt;p_account -->
<!-- p_account&#45;&gt;p_sale -->
<!-- p_sale&#45;&gt;p_checkout -->
<!-- p_checkout&#45;&gt;p_avg -->
<!-- p_avg&#45;&gt;warmup -->
<g id="edge16" class="edge">
<title>p_avg&#45;&gt;warmup</title>
<path fill="none" stroke="#475569" stroke-width="1.2" d="M1058.37,-129.37C1096.19,-136.75 1138.47,-145 1138.47,-145 1138.47,-145 1219.86,-154.77 1289.77,-163.15"/>
<polygon fill="#475569" stroke="#475569" stroke-width="1.2" points="1289.19,-165.55 1296.43,-163.95 1289.77,-160.69 1289.19,-165.55"/>
<text xml:space="preserve" text-anchor="middle" x="1102.34" y="-144.9" font-family="Helvetica,sans-Serif" font-size="10.00">× target VUs</text>
</g>
<!-- p_avg&#45;&gt;regional -->
<g id="edge17" class="edge">
<title>p_avg&#45;&gt;regional</title>
<path fill="none" stroke="#475569" stroke-width="1.2" d="M1047.32,-99.57C1087.41,-83.92 1138.47,-64 1138.47,-64 1138.47,-64 1202.15,-56.61 1265.24,-49.3"/>
<polygon fill="#475569" stroke="#475569" stroke-width="1.2" points="1265.25,-51.76 1271.93,-48.52 1264.69,-46.89 1265.25,-51.76"/>
<text xml:space="preserve" text-anchor="middle" x="1102.34" y="-89.52" font-family="Helvetica,sans-Serif" font-size="10.00">30 × 4</text>
</g>
<!-- warmup&#45;&gt;ramp1 -->
<g id="edge6" class="edge">
<title>warmup&#45;&gt;ramp1</title>
<path fill="none" stroke="#475569" stroke-width="1.2" d="M1480.81,-175C1533.46,-175 1600.38,-175 1656.75,-175"/>
<polygon fill="#475569" stroke="#475569" stroke-width="1.2" points="1656.53,-177.45 1663.53,-175 1656.53,-172.55 1656.53,-177.45"/>
</g>
<!-- ramp1&#45;&gt;hold1 -->
<g id="edge7" class="edge">
<title>ramp1&#45;&gt;hold1</title>
<path fill="none" stroke="#475569" stroke-width="1.2" d="M1879.77,-175C1887.67,-175 1895.64,-175 1903.57,-175"/>
<polygon fill="#475569" stroke="#475569" stroke-width="1.2" points="1903.32,-177.45 1910.32,-175 1903.32,-172.55 1903.32,-177.45"/>
</g>
<!-- hold1&#45;&gt;rec1 -->
<g id="edge8" class="edge">
<title>hold1&#45;&gt;rec1</title>
<path fill="none" stroke="#475569" stroke-width="1.2" d="M2119.44,-175C2127.26,-175 2135.19,-175 2143.12,-175"/>
<polygon fill="#475569" stroke="#475569" stroke-width="1.2" points="2142.89,-177.45 2149.89,-175 2142.89,-172.55 2142.89,-177.45"/>
</g>
<!-- rec1&#45;&gt;ramp2 -->
<g id="edge9" class="edge">
<title>rec1&#45;&gt;ramp2</title>
<path fill="none" stroke="#475569" stroke-width="1.2" d="M2379.46,-175C2387.24,-175 2395.08,-175 2402.87,-175"/>
<polygon fill="#475569" stroke="#475569" stroke-width="1.2" points="2402.82,-177.45 2409.82,-175 2402.82,-172.55 2402.82,-177.45"/>
</g>
<!-- ramp2&#45;&gt;hold2 -->
<g id="edge10" class="edge">
<title>ramp2&#45;&gt;hold2</title>
<path fill="none" stroke="#475569" stroke-width="1.2" d="M2626.26,-175C2634.16,-175 2642.13,-175 2650.06,-175"/>
<polygon fill="#475569" stroke="#475569" stroke-width="1.2" points="2649.81,-177.45 2656.81,-175 2649.81,-172.55 2649.81,-177.45"/>
</g>
<!-- hold2&#45;&gt;rec2 -->
<g id="edge11" class="edge">
<title>hold2&#45;&gt;rec2</title>
<path fill="none" stroke="#475569" stroke-width="1.2" d="M2865.93,-175C2873.75,-175 2881.68,-175 2889.61,-175"/>
<polygon fill="#475569" stroke="#475569" stroke-width="1.2" points="2889.38,-177.45 2896.38,-175 2889.38,-172.55 2889.38,-177.45"/>
</g>
<!-- rec2&#45;&gt;ramp3 -->
<g id="edge12" class="edge">
<title>rec2&#45;&gt;ramp3</title>
<path fill="none" stroke="#475569" stroke-width="1.2" d="M3125.81,-175C3133.72,-175 3141.7,-175 3149.64,-175"/>
<polygon fill="#475569" stroke="#475569" stroke-width="1.2" points="3149.41,-177.45 3156.41,-175 3149.41,-172.55 3149.41,-177.45"/>
</g>
<!-- ramp3&#45;&gt;hold3 -->
<g id="edge13" class="edge">
<title>ramp3&#45;&gt;hold3</title>
<path fill="none" stroke="#475569" stroke-width="1.2" d="M3378.75,-175C3386.74,-175 3394.8,-175 3402.81,-175"/>
<polygon fill="#475569" stroke="#475569" stroke-width="1.2" points="3402.66,-177.45 3409.66,-175 3402.66,-172.55 3402.66,-177.45"/>
</g>
<!-- hold3&#45;&gt;down -->
<g id="edge14" class="edge">
<title>hold3&#45;&gt;down</title>
<path fill="none" stroke="#475569" stroke-width="1.2" d="M3624.59,-175C3632.36,-175 3640.22,-175 3648.02,-175"/>
<polygon fill="#475569" stroke="#475569" stroke-width="1.2" points="3647.98,-177.45 3654.98,-175 3647.98,-172.55 3647.98,-177.45"/>
</g>
<!-- note -->
<g id="node1" class="node">
<title>note</title>
<polygon fill="#fff7ed" stroke="#f97316" points="878.68,-210 576.91,-210 576.91,-174 884.68,-174 884.68,-204 878.68,-210"/>
<polyline fill="none" stroke="#f97316" points="878.68,-210 878.68,-204"/>
<polyline fill="none" stroke="#f97316" points="884.68,-204 878.68,-204"/>
<text xml:space="preserve" text-anchor="middle" x="730.8" y="-193.55" font-family="Helvetica,sans-Serif" font-size="11.00">Estimates assume each active VU completes one iteration.</text>
<text xml:space="preserve" text-anchor="middle" x="730.8" y="-181.55" font-family="Helvetica,sans-Serif" font-size="11.00">Actual request totals vary with latency, sleeps, and loop count.</text>
</g>
<!-- p_browser -->
<g id="node2" class="node">
<title>p_browser</title>
<path fill="#f8fafc" stroke="#334155" d="M28,-100C28,-100 90.79,-100 90.79,-100 96.79,-100 102.79,-106 102.79,-112 102.79,-112 102.79,-124 102.79,-124 102.79,-130 96.79,-136 90.79,-136 90.79,-136 28,-136 28,-136 22,-136 16,-130 16,-124 16,-124 16,-112 16,-112 16,-106 22,-100 28,-100"/>
<text xml:space="preserve" text-anchor="middle" x="41.26" y="-113.95" font-family="Helvetica,sans-Serif" font-size="11.00">browser</text>
<polyline fill="none" stroke="#334155" points="66.52,-100.8 66.52,-136"/>
<text xml:space="preserve" text-anchor="middle" x="84.65" y="-113.95" font-family="Helvetica,sans-Serif" font-size="11.00">3 req</text>
</g>
<!-- p_cart -->
<g id="node3" class="node">
<title>p_cart</title>
<path fill="#f8fafc" stroke="#334155" d="M147.79,-100C147.79,-100 227.83,-100 227.83,-100 233.83,-100 239.83,-106 239.83,-112 239.83,-112 239.83,-124 239.83,-124 239.83,-130 233.83,-136 227.83,-136 227.83,-136 147.79,-136 147.79,-136 141.79,-136 135.79,-130 135.79,-124 135.79,-124 135.79,-112 135.79,-112 135.79,-106 141.79,-100 147.79,-100"/>
<text xml:space="preserve" text-anchor="middle" x="169.67" y="-113.95" font-family="Helvetica,sans-Serif" font-size="11.00">cart_builder</text>
<polyline fill="none" stroke="#334155" points="203.56,-100.8 203.56,-136"/>
<text xml:space="preserve" text-anchor="middle" x="221.69" y="-113.95" font-family="Helvetica,sans-Serif" font-size="11.00">4 req</text>
</g>
<!-- p_account -->
<g id="node4" class="node">
<title>p_account</title>
<path fill="#f8fafc" stroke="#334155" d="M284.83,-100C284.83,-100 394.87,-100 394.87,-100 400.87,-100 406.87,-106 406.87,-112 406.87,-112 406.87,-124 406.87,-124 406.87,-130 400.87,-136 394.87,-136 394.87,-136 284.83,-136 284.83,-136 278.83,-136 272.83,-130 272.83,-124 272.83,-124 272.83,-112 272.83,-112 272.83,-106 278.83,-100 284.83,-100"/>
<text xml:space="preserve" text-anchor="middle" x="321.71" y="-113.95" font-family="Helvetica,sans-Serif" font-size="11.00">account_manager</text>
<polyline fill="none" stroke="#334155" points="370.6,-100.8 370.6,-136"/>
<text xml:space="preserve" text-anchor="middle" x="388.73" y="-113.95" font-family="Helvetica,sans-Serif" font-size="11.00">4 req</text>
</g>
<!-- p_sale -->
<g id="node5" class="node">
<title>p_sale</title>
<path fill="#f8fafc" stroke="#334155" d="M451.87,-100C451.87,-100 531.91,-100 531.91,-100 537.91,-100 543.91,-106 543.91,-112 543.91,-112 543.91,-124 543.91,-124 543.91,-130 537.91,-136 531.91,-136 531.91,-136 451.87,-136 451.87,-136 445.87,-136 439.87,-130 439.87,-124 439.87,-124 439.87,-112 439.87,-112 439.87,-106 445.87,-100 451.87,-100"/>
<text xml:space="preserve" text-anchor="middle" x="473.75" y="-113.95" font-family="Helvetica,sans-Serif" font-size="11.00">sale_hunter</text>
<polyline fill="none" stroke="#334155" points="507.64,-100.8 507.64,-136"/>
<text xml:space="preserve" text-anchor="middle" x="525.77" y="-113.95" font-family="Helvetica,sans-Serif" font-size="11.00">4 req</text>
</g>
<!-- p_checkout -->
<g id="node6" class="node">
<title>p_checkout</title>
<path fill="#f8fafc" stroke="#334155" d="M697.53,-100C697.53,-100 764.07,-100 764.07,-100 770.07,-100 776.07,-106 776.07,-112 776.07,-112 776.07,-124 776.07,-124 776.07,-130 770.07,-136 764.07,-136 764.07,-136 697.53,-136 697.53,-136 691.53,-136 685.53,-130 685.53,-124 685.53,-124 685.53,-112 685.53,-112 685.53,-106 691.53,-100 697.53,-100"/>
<text xml:space="preserve" text-anchor="middle" x="712.66" y="-113.95" font-family="Helvetica,sans-Serif" font-size="11.00">checkout</text>
<polyline fill="none" stroke="#334155" points="739.8,-100.8 739.8,-136"/>
<text xml:space="preserve" text-anchor="middle" x="757.93" y="-113.95" font-family="Helvetica,sans-Serif" font-size="11.00">5 req</text>
</g>
<!-- p_avg -->
<g id="node7" class="node">
<title>p_avg</title>
<path fill="#ecfeff" stroke="#0891b2" d="M951.93,-100C951.93,-100 1046.22,-100 1046.22,-100 1052.22,-100 1058.22,-106 1058.22,-112 1058.22,-112 1058.22,-124 1058.22,-124 1058.22,-130 1052.22,-136 1046.22,-136 1046.22,-136 951.93,-136 951.93,-136 945.93,-136 939.93,-130 939.93,-124 939.93,-124 939.93,-112 939.93,-112 939.93,-106 945.93,-100 951.93,-100"/>
<text xml:space="preserve" text-anchor="middle" x="954.31" y="-113.95" font-family="Helvetica,sans-Serif" font-size="11.00">avg</text>
<polyline fill="none" stroke="#0891b2" points="968.7,-100.8 968.7,-136"/>
<text xml:space="preserve" text-anchor="middle" x="1013.46" y="-113.95" font-family="Helvetica,sans-Serif" font-size="11.00">4 req / VU wave</text>
</g>
<!-- warmup -->
<g id="node8" class="node">
<title>warmup</title>
<path fill="#f1f5f9" stroke="#334155" d="M1310.59,-157C1310.59,-157 1468.41,-157 1468.41,-157 1474.41,-157 1480.41,-163 1480.41,-169 1480.41,-169 1480.41,-181 1480.41,-181 1480.41,-187 1474.41,-193 1468.41,-193 1468.41,-193 1310.59,-193 1310.59,-193 1304.59,-193 1298.59,-187 1298.59,-181 1298.59,-181 1298.59,-169 1298.59,-169 1298.59,-163 1304.59,-157 1310.59,-157"/>
<text xml:space="preserve" text-anchor="middle" x="1324.97" y="-170.95" font-family="Helvetica,sans-Serif" font-size="11.00">Warmup</text>
<polyline fill="none" stroke="#334155" points="1351.36,-157.8 1351.36,-193"/>
<text xml:space="preserve" text-anchor="middle" x="1364.62" y="-170.95" font-family="Helvetica,sans-Serif" font-size="11.00">2m</text>
<polyline fill="none" stroke="#334155" points="1377.88,-157.8 1377.88,-193"/>
<text xml:space="preserve" text-anchor="middle" x="1401.63" y="-170.95" font-family="Helvetica,sans-Serif" font-size="11.00">25 VUs</text>
<polyline fill="none" stroke="#334155" points="1425.39,-157.8 1425.39,-193"/>
<text xml:space="preserve" text-anchor="middle" x="1452.9" y="-170.95" font-family="Helvetica,sans-Serif" font-size="11.00">~100 req</text>
</g>
<!-- ramp1 -->
<g id="node9" class="node">
<title>ramp1</title>
<path fill="#dbeafe" stroke="#334155" d="M1677.53,-157C1677.53,-157 1867.61,-157 1867.61,-157 1873.61,-157 1879.61,-163 1879.61,-169 1879.61,-169 1879.61,-181 1879.61,-181 1879.61,-187 1873.61,-193 1867.61,-193 1867.61,-193 1677.53,-193 1677.53,-193 1671.53,-193 1665.53,-187 1665.53,-181 1665.53,-181 1665.53,-169 1665.53,-169 1665.53,-163 1671.53,-157 1677.53,-157"/>
<text xml:space="preserve" text-anchor="middle" x="1690.42" y="-170.95" font-family="Helvetica,sans-Serif" font-size="11.00">Ramp 1</text>
<polyline fill="none" stroke="#334155" points="1715.3,-157.8 1715.3,-193"/>
<text xml:space="preserve" text-anchor="middle" x="1729.69" y="-170.95" font-family="Helvetica,sans-Serif" font-size="11.00">30s</text>
<polyline fill="none" stroke="#334155" points="1744.07,-157.8 1744.07,-193"/>
<text xml:space="preserve" text-anchor="middle" x="1770.83" y="-170.95" font-family="Helvetica,sans-Serif" font-size="11.00">100 VUs</text>
<polyline fill="none" stroke="#334155" points="1797.59,-157.8 1797.59,-193"/>
<text xml:space="preserve" text-anchor="middle" x="1838.6" y="-170.95" font-family="Helvetica,sans-Serif" font-size="11.00">up to ~400 req</text>
</g>
<!-- hold1 -->
<g id="node10" class="node">
<title>hold1</title>
<path fill="#bfdbfe" stroke="#334155" d="M1924.61,-157C1924.61,-157 2107.19,-157 2107.19,-157 2113.19,-157 2119.19,-163 2119.19,-169 2119.19,-169 2119.19,-181 2119.19,-181 2119.19,-187 2113.19,-193 2107.19,-193 2107.19,-193 1924.61,-193 1924.61,-193 1918.61,-193 1912.61,-187 1912.61,-181 1912.61,-181 1912.61,-169 1912.61,-169 1912.61,-163 1918.61,-157 1924.61,-157"/>
<text xml:space="preserve" text-anchor="middle" x="1934.12" y="-170.95" font-family="Helvetica,sans-Serif" font-size="11.00">Hold 1</text>
<polyline fill="none" stroke="#334155" points="1955.63,-157.8 1955.63,-193"/>
<text xml:space="preserve" text-anchor="middle" x="1968.89" y="-170.95" font-family="Helvetica,sans-Serif" font-size="11.00">2m</text>
<polyline fill="none" stroke="#334155" points="1982.15,-157.8 1982.15,-193"/>
<text xml:space="preserve" text-anchor="middle" x="2008.91" y="-170.95" font-family="Helvetica,sans-Serif" font-size="11.00">100 VUs</text>
<polyline fill="none" stroke="#334155" points="2035.67,-157.8 2035.67,-193"/>
<text xml:space="preserve" text-anchor="middle" x="2077.43" y="-170.95" font-family="Helvetica,sans-Serif" font-size="11.00">~400 req/wave</text>
</g>
<!-- rec1 -->
<g id="node11" class="node">
<title>rec1</title>
<path fill="#f1f5f9" stroke="#334155" d="M2164.19,-157C2164.19,-157 2367.02,-157 2367.02,-157 2373.02,-157 2379.02,-163 2379.02,-169 2379.02,-169 2379.02,-181 2379.02,-181 2379.02,-187 2373.02,-193 2367.02,-193 2367.02,-193 2164.19,-193 2164.19,-193 2158.19,-193 2152.19,-187 2152.19,-181 2152.19,-181 2152.19,-169 2152.19,-169 2152.19,-163 2158.19,-157 2164.19,-157"/>
<text xml:space="preserve" text-anchor="middle" x="2178.2" y="-170.95" font-family="Helvetica,sans-Serif" font-size="11.00">Recover</text>
<polyline fill="none" stroke="#334155" points="2204.21,-157.8 2204.21,-193"/>
<text xml:space="preserve" text-anchor="middle" x="2226.1" y="-170.95" font-family="Helvetica,sans-Serif" font-size="11.00">1m30s</text>
<polyline fill="none" stroke="#334155" points="2247.98,-157.8 2247.98,-193"/>
<text xml:space="preserve" text-anchor="middle" x="2271.74" y="-170.95" font-family="Helvetica,sans-Serif" font-size="11.00">25 VUs</text>
<polyline fill="none" stroke="#334155" points="2295.5,-157.8 2295.5,-193"/>
<text xml:space="preserve" text-anchor="middle" x="2337.26" y="-170.95" font-family="Helvetica,sans-Serif" font-size="11.00">~100 req/wave</text>
</g>
<!-- ramp2 -->
<g id="node12" class="node">
<title>ramp2</title>
<path fill="#fde68a" stroke="#334155" d="M2424.02,-157C2424.02,-157 2614.1,-157 2614.1,-157 2620.1,-157 2626.1,-163 2626.1,-169 2626.1,-169 2626.1,-181 2626.1,-181 2626.1,-187 2620.1,-193 2614.1,-193 2614.1,-193 2424.02,-193 2424.02,-193 2418.02,-193 2412.02,-187 2412.02,-181 2412.02,-181 2412.02,-169 2412.02,-169 2412.02,-163 2418.02,-157 2424.02,-157"/>
<text xml:space="preserve" text-anchor="middle" x="2436.91" y="-170.95" font-family="Helvetica,sans-Serif" font-size="11.00">Ramp 2</text>
<polyline fill="none" stroke="#334155" points="2461.79,-157.8 2461.79,-193"/>
<text xml:space="preserve" text-anchor="middle" x="2476.18" y="-170.95" font-family="Helvetica,sans-Serif" font-size="11.00">30s</text>
<polyline fill="none" stroke="#334155" points="2490.56,-157.8 2490.56,-193"/>
<text xml:space="preserve" text-anchor="middle" x="2517.32" y="-170.95" font-family="Helvetica,sans-Serif" font-size="11.00">200 VUs</text>
<polyline fill="none" stroke="#334155" points="2544.08,-157.8 2544.08,-193"/>
<text xml:space="preserve" text-anchor="middle" x="2585.09" y="-170.95" font-family="Helvetica,sans-Serif" font-size="11.00">up to ~800 req</text>
</g>
<!-- hold2 -->
<g id="node13" class="node">
<title>hold2</title>
<path fill="#fcd34d" stroke="#334155" d="M2671.1,-157C2671.1,-157 2853.68,-157 2853.68,-157 2859.68,-157 2865.68,-163 2865.68,-169 2865.68,-169 2865.68,-181 2865.68,-181 2865.68,-187 2859.68,-193 2853.68,-193 2853.68,-193 2671.1,-193 2671.1,-193 2665.1,-193 2659.1,-187 2659.1,-181 2659.1,-181 2659.1,-169 2659.1,-169 2659.1,-163 2665.1,-157 2671.1,-157"/>
<text xml:space="preserve" text-anchor="middle" x="2680.61" y="-170.95" font-family="Helvetica,sans-Serif" font-size="11.00">Hold 2</text>
<polyline fill="none" stroke="#334155" points="2702.12,-157.8 2702.12,-193"/>
<text xml:space="preserve" text-anchor="middle" x="2715.38" y="-170.95" font-family="Helvetica,sans-Serif" font-size="11.00">2m</text>
<polyline fill="none" stroke="#334155" points="2728.64,-157.8 2728.64,-193"/>
<text xml:space="preserve" text-anchor="middle" x="2755.4" y="-170.95" font-family="Helvetica,sans-Serif" font-size="11.00">200 VUs</text>
<polyline fill="none" stroke="#334155" points="2782.16,-157.8 2782.16,-193"/>
<text xml:space="preserve" text-anchor="middle" x="2823.92" y="-170.95" font-family="Helvetica,sans-Serif" font-size="11.00">~800 req/wave</text>
</g>
<!-- rec2 -->
<g id="node14" class="node">
<title>rec2</title>
<path fill="#f1f5f9" stroke="#334155" d="M2910.68,-157C2910.68,-157 3113.51,-157 3113.51,-157 3119.51,-157 3125.51,-163 3125.51,-169 3125.51,-169 3125.51,-181 3125.51,-181 3125.51,-187 3119.51,-193 3113.51,-193 3113.51,-193 2910.68,-193 2910.68,-193 2904.68,-193 2898.68,-187 2898.68,-181 2898.68,-181 2898.68,-169 2898.68,-169 2898.68,-163 2904.68,-157 2910.68,-157"/>
<text xml:space="preserve" text-anchor="middle" x="2924.69" y="-170.95" font-family="Helvetica,sans-Serif" font-size="11.00">Recover</text>
<polyline fill="none" stroke="#334155" points="2950.7,-157.8 2950.7,-193"/>
<text xml:space="preserve" text-anchor="middle" x="2972.59" y="-170.95" font-family="Helvetica,sans-Serif" font-size="11.00">1m30s</text>
<polyline fill="none" stroke="#334155" points="2994.47,-157.8 2994.47,-193"/>
<text xml:space="preserve" text-anchor="middle" x="3018.23" y="-170.95" font-family="Helvetica,sans-Serif" font-size="11.00">25 VUs</text>
<polyline fill="none" stroke="#334155" points="3041.99,-157.8 3041.99,-193"/>
<text xml:space="preserve" text-anchor="middle" x="3083.75" y="-170.95" font-family="Helvetica,sans-Serif" font-size="11.00">~100 req/wave</text>
</g>
<!-- ramp3 -->
<g id="node15" class="node">
<title>ramp3</title>
<path fill="#fecaca" stroke="#334155" d="M3170.51,-157C3170.51,-157 3366.59,-157 3366.59,-157 3372.59,-157 3378.59,-163 3378.59,-169 3378.59,-169 3378.59,-181 3378.59,-181 3378.59,-187 3372.59,-193 3366.59,-193 3366.59,-193 3170.51,-193 3170.51,-193 3164.51,-193 3158.51,-187 3158.51,-181 3158.51,-181 3158.51,-169 3158.51,-169 3158.51,-163 3164.51,-157 3170.51,-157"/>
<text xml:space="preserve" text-anchor="middle" x="3183.39" y="-170.95" font-family="Helvetica,sans-Serif" font-size="11.00">Ramp 3</text>
<polyline fill="none" stroke="#334155" points="3208.28,-157.8 3208.28,-193"/>
<text xml:space="preserve" text-anchor="middle" x="3222.66" y="-170.95" font-family="Helvetica,sans-Serif" font-size="11.00">30s</text>
<polyline fill="none" stroke="#334155" points="3237.05,-157.8 3237.05,-193"/>
<text xml:space="preserve" text-anchor="middle" x="3263.81" y="-170.95" font-family="Helvetica,sans-Serif" font-size="11.00">400 VUs</text>
<polyline fill="none" stroke="#334155" points="3290.57,-157.8 3290.57,-193"/>
<text xml:space="preserve" text-anchor="middle" x="3334.58" y="-170.95" font-family="Helvetica,sans-Serif" font-size="11.00">up to ~1600 req</text>
</g>
<!-- hold3 -->
<g id="node16" class="node">
<title>hold3</title>
<path fill="#fca5a5" stroke="#334155" d="M3423.59,-157C3423.59,-157 3612.17,-157 3612.17,-157 3618.17,-157 3624.17,-163 3624.17,-169 3624.17,-169 3624.17,-181 3624.17,-181 3624.17,-187 3618.17,-193 3612.17,-193 3612.17,-193 3423.59,-193 3423.59,-193 3417.59,-193 3411.59,-187 3411.59,-181 3411.59,-181 3411.59,-169 3411.59,-169 3411.59,-163 3417.59,-157 3423.59,-157"/>
<text xml:space="preserve" text-anchor="middle" x="3433.1" y="-170.95" font-family="Helvetica,sans-Serif" font-size="11.00">Hold 3</text>
<polyline fill="none" stroke="#334155" points="3454.61,-157.8 3454.61,-193"/>
<text xml:space="preserve" text-anchor="middle" x="3467.87" y="-170.95" font-family="Helvetica,sans-Serif" font-size="11.00">2m</text>
<polyline fill="none" stroke="#334155" points="3481.13,-157.8 3481.13,-193"/>
<text xml:space="preserve" text-anchor="middle" x="3507.89" y="-170.95" font-family="Helvetica,sans-Serif" font-size="11.00">400 VUs</text>
<polyline fill="none" stroke="#334155" points="3534.65,-157.8 3534.65,-193"/>
<text xml:space="preserve" text-anchor="middle" x="3579.41" y="-170.95" font-family="Helvetica,sans-Serif" font-size="11.00">~1600 req/wave</text>
</g>
<!-- down -->
<g id="node17" class="node">
<title>down</title>
<path fill="#e2e8f0" stroke="#334155" d="M3669.17,-157C3669.17,-157 3851,-157 3851,-157 3857,-157 3863,-163 3863,-169 3863,-169 3863,-181 3863,-181 3863,-187 3857,-193 3851,-193 3851,-193 3669.17,-193 3669.17,-193 3663.17,-193 3657.17,-187 3657.17,-181 3657.17,-181 3657.17,-169 3657.17,-169 3657.17,-163 3663.17,-157 3669.17,-157"/>
<text xml:space="preserve" text-anchor="middle" x="3692.18" y="-170.83" font-family="Helvetica,sans-Serif" font-size="11.00">Ramp down</text>
<polyline fill="none" stroke="#334155" points="3727.19,-157.55 3727.19,-193"/>
<text xml:space="preserve" text-anchor="middle" x="3749.07" y="-170.83" font-family="Helvetica,sans-Serif" font-size="11.00">2m30s</text>
<polyline fill="none" stroke="#334155" points="3770.96,-157.55 3770.96,-193"/>
<text xml:space="preserve" text-anchor="middle" x="3791.72" y="-170.83" font-family="Helvetica,sans-Serif" font-size="11.00">0 VUs</text>
<polyline fill="none" stroke="#334155" points="3812.48,-157.55 3812.48,-193"/>
<text xml:space="preserve" text-anchor="middle" x="3837.74" y="-171.95" font-family="Helvetica,sans-Serif" font-size="11.00">→ 0 req</text>
</g>
<!-- regional -->
<g id="node18" class="node">
<title>regional</title>
<path fill="#ecfdf5" stroke="#334155" d="M1285.97,-17C1285.97,-17 1493.03,-17 1493.03,-17 1499.03,-17 1505.03,-23 1505.03,-29 1505.03,-29 1505.03,-41 1505.03,-41 1505.03,-47 1499.03,-53 1493.03,-53 1493.03,-53 1285.97,-53 1285.97,-53 1279.97,-53 1273.97,-47 1273.97,-41 1273.97,-41 1273.97,-29 1273.97,-29 1273.97,-23 1279.97,-17 1285.97,-17"/>
<text xml:space="preserve" text-anchor="middle" x="1323.98" y="-30.95" font-family="Helvetica,sans-Serif" font-size="11.00">regional_shoppers</text>
<polyline fill="none" stroke="#334155" points="1373.99,-17.8 1373.99,-53"/>
<text xml:space="preserve" text-anchor="middle" x="1397.75" y="-30.95" font-family="Helvetica,sans-Serif" font-size="11.00">30 VUs</text>
<polyline fill="none" stroke="#334155" points="1421.51,-17.8 1421.51,-53"/>
<text xml:space="preserve" text-anchor="middle" x="1463.27" y="-30.95" font-family="Helvetica,sans-Serif" font-size="11.00">~120 req/wave</text>
</g>
<!-- browser_actions -->
<g id="node19" class="node">
<title>browser_actions</title>
<path fill="#faf5ff" stroke="#334155" d="M1158.47,-74C1158.47,-74 1620.53,-74 1620.53,-74 1626.53,-74 1632.53,-80 1632.53,-86 1632.53,-86 1632.53,-98 1632.53,-98 1632.53,-104 1626.53,-110 1620.53,-110 1620.53,-110 1158.47,-110 1158.47,-110 1152.47,-110 1146.47,-104 1146.47,-98 1146.47,-98 1146.47,-86 1146.47,-86 1146.47,-80 1152.47,-74 1158.47,-74"/>
<text xml:space="preserve" text-anchor="middle" x="1194.98" y="-87.95" font-family="Helvetica,sans-Serif" font-size="11.00">storefront_actions</text>
<polyline fill="none" stroke="#334155" points="1243.49,-74.8 1243.49,-110"/>
<text xml:space="preserve" text-anchor="middle" x="1325" y="-87.95" font-family="Helvetica,sans-Serif" font-size="11.00">ramp to 60 browser VUs × 15m</text>
<polyline fill="none" stroke="#334155" points="1406.51,-74.8 1406.51,-110"/>
<text xml:space="preserve" text-anchor="middle" x="1519.52" y="-87.95" font-family="Helvetica,sans-Serif" font-size="11.00">browser requests vary; Faro actions targeted</text>
</g>
</g>
</svg>
