<?xml version="1.0" encoding="UTF-8" standalone="no"?>
<!DOCTYPE svg PUBLIC "-//W3C//DTD SVG 1.1//EN"
 "http://www.w3.org/Graphics/SVG/1.1/DTD/svg11.dtd">
<!-- Generated by graphviz version 15.0.0 (20260523.1842)
 -->
<!-- Title: traffic_spike_request_tables Pages: 1 -->
<svg width="835pt" height="1017pt"
 viewBox="0.00 0.00 835.00 1017.00" xmlns="http://www.w3.org/2000/svg" xmlns:xlink="http://www.w3.org/1999/xlink">
<g id="graph0" class="graph" transform="scale(1 1) rotate(0) translate(4 1013)">
<title>traffic_spike_request_tables</title>
<polygon fill="white" stroke="none" points="-4,4 -4,-1013 831,-1013 831,4 -4,4"/>
<text xml:space="preserve" text-anchor="middle" x="413.5" y="-984.1" font-family="Helvetica,sans-Serif" font-size="22.00">Traffic Spike Request Model</text>
<!-- caveat -->
<g id="node1" class="node">
<title>caveat</title>
<polygon fill="#fff7ed" stroke="none" points="61.62,-946.5 61.62,-977.5 765.38,-977.5 765.38,-946.5 61.62,-946.5"/>
<text xml:space="preserve" text-anchor="start" x="359.12" y="-957.2" font-family="Helvetica,sans-Serif" font-weight="bold" font-size="14.00">Important caveat</text>
<text xml:space="preserve" text-anchor="start" x="69.62" y="-926.2" font-family="Helvetica,sans-Serif" font-size="14.00"> &#160;&#160;&#160;&#160;&#160;&#160;&#160;&#160;&#160;&#160;&#160;Requests per stage are not fixed. </text>
<text xml:space="preserve" text-anchor="start" x="317.12" y="-926.2" font-family="Helvetica,sans-Serif" font-weight="bold" font-size="14.00">ramping&#45;vus</text>
<text xml:space="preserve" text-anchor="start" x="398.88" y="-926.2" font-family="Helvetica,sans-Serif" font-size="14.00"> keeps each active VU looping as fast as the journey allows.</text>
<text xml:space="preserve" text-anchor="start" x="118.38" y="-912.2" font-family="Helvetica,sans-Serif" font-size="14.00"> &#160;&#160;&#160;&#160;&#160;&#160;&#160;&#160;&#160;&#160;&#160;Exact totals depend on response time, persona sleep time, and completed iterations. &#160;&#160;&#160;&#160;&#160;&#160;&#160;&#160;&#160;</text>
<polygon fill="none" stroke="#f97316" points="60.62,-901.5 60.62,-978.5 766.38,-978.5 766.38,-901.5 60.62,-901.5"/>
</g>
<!-- persona_table -->
<g id="node2" class="node">
<title>persona_table</title>
<polygon fill="#e0f2fe" stroke="none" points="1,-822.5 1,-853.5 826,-853.5 826,-822.5 1,-822.5"/>
<polygon fill="none" stroke="#334155" points="1,-822.5 1,-853.5 826,-853.5 826,-822.5 1,-822.5"/>
<text xml:space="preserve" text-anchor="start" x="281.88" y="-833.2" font-family="Helvetica,sans-Serif" font-weight="bold" font-size="14.00">Per completed traffic&#45;spike user iteration</text>
<polygon fill="#f1f5f9" stroke="none" points="1,-791.5 1,-822.5 140.75,-822.5 140.75,-791.5 1,-791.5"/>
<polygon fill="none" stroke="#334155" points="1,-791.5 1,-822.5 140.75,-822.5 140.75,-791.5 1,-791.5"/>
<text xml:space="preserve" text-anchor="start" x="44.25" y="-802.2" font-family="Helvetica,sans-Serif" font-weight="bold" font-size="14.00">Persona</text>
<polygon fill="#f1f5f9" stroke="none" points="140.75,-791.5 140.75,-822.5 217.5,-822.5 217.5,-791.5 140.75,-791.5"/>
<polygon fill="none" stroke="#334155" points="140.75,-791.5 140.75,-822.5 217.5,-822.5 217.5,-791.5 140.75,-791.5"/>
<text xml:space="preserve" text-anchor="start" x="148.75" y="-802.2" font-family="Helvetica,sans-Serif" font-weight="bold" font-size="14.00">Requests</text>
<polygon fill="#f1f5f9" stroke="none" points="217.5,-791.5 217.5,-822.5 826,-822.5 826,-791.5 217.5,-791.5"/>
<polygon fill="none" stroke="#334155" points="217.5,-791.5 217.5,-822.5 826,-822.5 826,-791.5 217.5,-791.5"/>
<text xml:space="preserve" text-anchor="start" x="462.88" y="-802.2" font-family="Helvetica,sans-Serif" font-weight="bold" font-size="14.00">Counters / actions</text>
<polygon fill="none" stroke="#334155" points="1,-759 1,-791.5 140.75,-791.5 140.75,-759 1,-759"/>
<text xml:space="preserve" text-anchor="start" x="9" y="-771.5" font-family="Courier,monospace" font-size="14.00">browser</text>
<polygon fill="none" stroke="#334155" points="140.75,-759 140.75,-791.5 217.5,-791.5 217.5,-759 140.75,-759"/>
<text xml:space="preserve" text-anchor="start" x="202" y="-771.5" font-family="Helvetica,sans-Serif" font-size="14.00">3</text>
<polygon fill="none" stroke="#334155" points="217.5,-759 217.5,-791.5 826,-791.5 826,-759 217.5,-759"/>
<text xml:space="preserve" text-anchor="start" x="225.5" y="-771.5" font-family="Courier,monospace" font-size="14.00">spike_region_changes +1</text>
<polygon fill="none" stroke="#334155" points="1,-726.5 1,-759 140.75,-759 140.75,-726.5 1,-726.5"/>
<text xml:space="preserve" text-anchor="start" x="9" y="-739" font-family="Courier,monospace" font-size="14.00">cart_builder</text>
<polygon fill="none" stroke="#334155" points="140.75,-726.5 140.75,-759 217.5,-759 217.5,-726.5 140.75,-726.5"/>
<text xml:space="preserve" text-anchor="start" x="202" y="-739" font-family="Helvetica,sans-Serif" font-size="14.00">4</text>
<polygon fill="none" stroke="#334155" points="217.5,-726.5 217.5,-759 826,-759 826,-726.5 217.5,-726.5"/>
<text xml:space="preserve" text-anchor="start" x="225.5" y="-738.7" font-family="Courier,monospace" font-size="14.00">spike_region_changes +1</text>
<text xml:space="preserve" text-anchor="start" x="415.25" y="-738.7" font-family="Helvetica,sans-Serif" font-size="14.00">, </text>
<text xml:space="preserve" text-anchor="start" x="422.75" y="-738.7" font-family="Courier,monospace" font-size="14.00">spike_cart_updates +1</text>
<polygon fill="none" stroke="#334155" points="1,-694 1,-726.5 140.75,-726.5 140.75,-694 1,-694"/>
<text xml:space="preserve" text-anchor="start" x="9" y="-706.5" font-family="Courier,monospace" font-size="14.00">account_manager</text>
<polygon fill="none" stroke="#334155" points="140.75,-694 140.75,-726.5 217.5,-726.5 217.5,-694 140.75,-694"/>
<text xml:space="preserve" text-anchor="start" x="202" y="-706.5" font-family="Helvetica,sans-Serif" font-size="14.00">4</text>
<polygon fill="none" stroke="#334155" points="217.5,-694 217.5,-726.5 826,-726.5 826,-694 217.5,-694"/>
<text xml:space="preserve" text-anchor="start" x="225.5" y="-706.5" font-family="Courier,monospace" font-size="14.00">spike_region_changes +1</text>
<polygon fill="none" stroke="#334155" points="1,-661.5 1,-694 140.75,-694 140.75,-661.5 1,-661.5"/>
<text xml:space="preserve" text-anchor="start" x="9" y="-674" font-family="Courier,monospace" font-size="14.00">sale_hunter</text>
<polygon fill="none" stroke="#334155" points="140.75,-661.5 140.75,-694 217.5,-694 217.5,-661.5 140.75,-661.5"/>
<text xml:space="preserve" text-anchor="start" x="202" y="-674" font-family="Helvetica,sans-Serif" font-size="14.00">4</text>
<polygon fill="none" stroke="#334155" points="217.5,-661.5 217.5,-694 826,-694 826,-661.5 217.5,-661.5"/>
<text xml:space="preserve" text-anchor="start" x="225.5" y="-673.7" font-family="Courier,monospace" font-size="14.00">spike_region_changes +1</text>
<text xml:space="preserve" text-anchor="start" x="415.25" y="-673.7" font-family="Helvetica,sans-Serif" font-size="14.00">, </text>
<text xml:space="preserve" text-anchor="start" x="422.75" y="-673.7" font-family="Courier,monospace" font-size="14.00">spike_cart_updates +1</text>
<polygon fill="none" stroke="#334155" points="1,-629 1,-661.5 140.75,-661.5 140.75,-629 1,-629"/>
<text xml:space="preserve" text-anchor="start" x="9" y="-641.5" font-family="Courier,monospace" font-size="14.00">checkout</text>
<polygon fill="none" stroke="#334155" points="140.75,-629 140.75,-661.5 217.5,-661.5 217.5,-629 140.75,-629"/>
<text xml:space="preserve" text-anchor="start" x="202" y="-641.5" font-family="Helvetica,sans-Serif" font-size="14.00">5</text>
<polygon fill="none" stroke="#334155" points="217.5,-629 217.5,-661.5 826,-661.5 826,-629 217.5,-629"/>
<text xml:space="preserve" text-anchor="start" x="225.5" y="-641.2" font-family="Courier,monospace" font-size="14.00">spike_region_changes +1</text>
<text xml:space="preserve" text-anchor="start" x="415.25" y="-641.2" font-family="Helvetica,sans-Serif" font-size="14.00">, </text>
<text xml:space="preserve" text-anchor="start" x="422.75" y="-641.2" font-family="Courier,monospace" font-size="14.00">spike_cart_updates +1</text>
<text xml:space="preserve" text-anchor="start" x="596" y="-641.2" font-family="Helvetica,sans-Serif" font-size="14.00">, </text>
<text xml:space="preserve" text-anchor="start" x="603.5" y="-641.2" font-family="Courier,monospace" font-size="14.00">spike_checkout_attempts +1</text>
<polygon fill="#ecfeff" stroke="none" points="1,-598 1,-629 140.75,-629 140.75,-598 1,-598"/>
<polygon fill="none" stroke="#334155" points="1,-598 1,-629 140.75,-629 140.75,-598 1,-598"/>
<text xml:space="preserve" text-anchor="start" x="9" y="-608.7" font-family="Helvetica,sans-Serif" font-weight="bold" font-size="14.00">Average</text>
<polygon fill="#ecfeff" stroke="none" points="140.75,-598 140.75,-629 217.5,-629 217.5,-598 140.75,-598"/>
<polygon fill="none" stroke="#334155" points="140.75,-598 140.75,-629 217.5,-629 217.5,-598 140.75,-598"/>
<text xml:space="preserve" text-anchor="start" x="202" y="-608.7" font-family="Helvetica,sans-Serif" font-weight="bold" font-size="14.00">4</text>
<polygon fill="#ecfeff" stroke="none" points="217.5,-598 217.5,-629 826,-629 826,-598 217.5,-598"/>
<polygon fill="none" stroke="#334155" points="217.5,-598 217.5,-629 826,-629 826,-598 217.5,-598"/>
<text xml:space="preserve" text-anchor="start" x="225.5" y="-608.7" font-family="Helvetica,sans-Serif" font-weight="bold" font-size="14.00">requests per completed user iteration</text>
<polygon fill="none" stroke="#334155" points="0,-597 0,-854.5 827,-854.5 827,-597 0,-597"/>
</g>
<!-- caveat&#45;&gt;persona_table -->
<g id="edge1" class="edge">
<title>caveat&#45;&gt;persona_table</title>
<path fill="none" stroke="#94a3b8" d="M413.5,-901.54C413.5,-890.1 413.5,-876.8 413.5,-862.73"/>
<polygon fill="#94a3b8" stroke="#94a3b8" points="415.95,-862.88 413.5,-855.88 411.05,-862.88 415.95,-862.88"/>
</g>
<!-- stage_table -->
<g id="node3" class="node">
<title>stage_table</title>
<polygon fill="#dcfce7" stroke="none" points="27.5,-518 27.5,-549 799.5,-549 799.5,-518 27.5,-518"/>
<polygon fill="none" stroke="#334155" points="27.5,-518 27.5,-549 799.5,-549 799.5,-518 27.5,-518"/>
<text xml:space="preserve" text-anchor="start" x="269.12" y="-528.7" font-family="Helvetica,sans-Serif" font-weight="bold" font-size="14.00">Current stage estimates per completed wave</text>
<polygon fill="#f1f5f9" stroke="none" points="27.5,-487 27.5,-518 158.25,-518 158.25,-487 27.5,-487"/>
<polygon fill="none" stroke="#334155" points="27.5,-487 27.5,-518 158.25,-518 158.25,-487 27.5,-487"/>
<text xml:space="preserve" text-anchor="start" x="74.5" y="-497.7" font-family="Helvetica,sans-Serif" font-weight="bold" font-size="14.00">Stage</text>
<polygon fill="#f1f5f9" stroke="none" points="158.25,-487 158.25,-518 229.75,-518 229.75,-487 158.25,-487"/>
<polygon fill="none" stroke="#334155" points="158.25,-487 158.25,-518 229.75,-518 229.75,-487 158.25,-487"/>
<text xml:space="preserve" text-anchor="start" x="166.25" y="-497.7" font-family="Helvetica,sans-Serif" font-weight="bold" font-size="14.00">Duration</text>
<polygon fill="#f1f5f9" stroke="none" points="229.75,-487 229.75,-518 317,-518 317,-487 229.75,-487"/>
<polygon fill="none" stroke="#334155" points="229.75,-487 229.75,-518 317,-518 317,-487 229.75,-487"/>
<text xml:space="preserve" text-anchor="start" x="237.75" y="-497.7" font-family="Helvetica,sans-Serif" font-weight="bold" font-size="14.00">Target VUs</text>
<polygon fill="#f1f5f9" stroke="none" points="317,-487 317,-518 442.5,-518 442.5,-487 317,-487"/>
<polygon fill="none" stroke="#334155" points="317,-487 317,-518 442.5,-518 442.5,-487 317,-487"/>
<text xml:space="preserve" text-anchor="start" x="326.12" y="-497.7" font-family="Helvetica,sans-Serif" font-weight="bold" font-size="14.00">Approx requests</text>
<polygon fill="#f1f5f9" stroke="none" points="442.5,-487 442.5,-518 541,-518 541,-487 442.5,-487"/>
<polygon fill="none" stroke="#334155" points="442.5,-487 442.5,-518 541,-518 541,-487 442.5,-487"/>
<text xml:space="preserve" text-anchor="start" x="450.5" y="-497.7" font-family="Helvetica,sans-Serif" font-weight="bold" font-size="14.00">Cart updates</text>
<polygon fill="#f1f5f9" stroke="none" points="541,-487 541,-518 679.25,-518 679.25,-487 541,-487"/>
<polygon fill="none" stroke="#334155" points="541,-487 541,-518 679.25,-518 679.25,-487 541,-487"/>
<text xml:space="preserve" text-anchor="start" x="549" y="-497.7" font-family="Helvetica,sans-Serif" font-weight="bold" font-size="14.00">Checkout attempts</text>
<polygon fill="#f1f5f9" stroke="none" points="679.25,-487 679.25,-518 799.5,-518 799.5,-487 679.25,-487"/>
<polygon fill="none" stroke="#334155" points="679.25,-487 679.25,-518 799.5,-518 799.5,-487 679.25,-487"/>
<text xml:space="preserve" text-anchor="start" x="687.25" y="-497.7" font-family="Helvetica,sans-Serif" font-weight="bold" font-size="14.00">Region changes</text>
<polygon fill="none" stroke="#334155" points="27.5,-456 27.5,-487 158.25,-487 158.25,-456 27.5,-456"/>
<text xml:space="preserve" text-anchor="start" x="35.5" y="-467.75" font-family="Helvetica,sans-Serif" font-size="14.00">Warmup / recovery</text>
<polygon fill="none" stroke="#334155" points="158.25,-456 158.25,-487 229.75,-487 229.75,-456 158.25,-456"/>
<text xml:space="preserve" text-anchor="start" x="202.25" y="-467.75" font-family="Helvetica,sans-Serif" font-size="14.00">1m</text>
<polygon fill="none" stroke="#334155" points="229.75,-456 229.75,-487 317,-487 317,-456 229.75,-456"/>
<text xml:space="preserve" text-anchor="start" x="294" y="-467.75" font-family="Helvetica,sans-Serif" font-size="14.00">25</text>
<polygon fill="none" stroke="#334155" points="317,-456 317,-487 442.5,-487 442.5,-456 317,-456"/>
<text xml:space="preserve" text-anchor="start" x="412" y="-467.75" font-family="Helvetica,sans-Serif" font-size="14.00">100</text>
<polygon fill="none" stroke="#334155" points="442.5,-456 442.5,-487 541,-487 541,-456 442.5,-456"/>
<text xml:space="preserve" text-anchor="start" x="518" y="-467.75" font-family="Helvetica,sans-Serif" font-size="14.00">15</text>
<polygon fill="none" stroke="#334155" points="541,-456 541,-487 679.25,-487 679.25,-456 541,-456"/>
<text xml:space="preserve" text-anchor="start" x="663.75" y="-467.75" font-family="Helvetica,sans-Serif" font-size="14.00">5</text>
<polygon fill="none" stroke="#334155" points="679.25,-456 679.25,-487 799.5,-487 799.5,-456 679.25,-456"/>
<text xml:space="preserve" text-anchor="start" x="776.5" y="-467.75" font-family="Helvetica,sans-Serif" font-size="14.00">25</text>
<polygon fill="none" stroke="#334155" points="27.5,-425 27.5,-456 158.25,-456 158.25,-425 27.5,-425"/>
<text xml:space="preserve" text-anchor="start" x="35.5" y="-436.75" font-family="Helvetica,sans-Serif" font-size="14.00">Ramp to spike 1</text>
<polygon fill="none" stroke="#334155" points="158.25,-425 158.25,-456 229.75,-456 229.75,-425 158.25,-425"/>
<text xml:space="preserve" text-anchor="start" x="200" y="-436.75" font-family="Helvetica,sans-Serif" font-size="14.00">30s</text>
<polygon fill="none" stroke="#334155" points="229.75,-425 229.75,-456 317,-456 317,-425 229.75,-425"/>
<text xml:space="preserve" text-anchor="start" x="286.5" y="-436.75" font-family="Helvetica,sans-Serif" font-size="14.00">100</text>
<polygon fill="none" stroke="#334155" points="317,-425 317,-456 442.5,-456 442.5,-425 317,-425"/>
<text xml:space="preserve" text-anchor="start" x="325" y="-436.75" font-family="Helvetica,sans-Serif" font-size="14.00">up to 400 at target</text>
<polygon fill="none" stroke="#334155" points="442.5,-425 442.5,-456 541,-456 541,-425 442.5,-425"/>
<text xml:space="preserve" text-anchor="start" x="518" y="-436.75" font-family="Helvetica,sans-Serif" font-size="14.00">60</text>
<polygon fill="none" stroke="#334155" points="541,-425 541,-456 679.25,-456 679.25,-425 541,-425"/>
<text xml:space="preserve" text-anchor="start" x="656.25" y="-436.75" font-family="Helvetica,sans-Serif" font-size="14.00">20</text>
<polygon fill="none" stroke="#334155" points="679.25,-425 679.25,-456 799.5,-456 799.5,-425 679.25,-425"/>
<text xml:space="preserve" text-anchor="start" x="769" y="-436.75" font-family="Helvetica,sans-Serif" font-size="14.00">100</text>
<polygon fill="none" stroke="#334155" points="27.5,-394 27.5,-425 158.25,-425 158.25,-394 27.5,-394"/>
<text xml:space="preserve" text-anchor="start" x="35.5" y="-405.75" font-family="Helvetica,sans-Serif" font-size="14.00">Hold spike 1</text>
<polygon fill="none" stroke="#334155" points="158.25,-394 158.25,-425 229.75,-425 229.75,-394 158.25,-394"/>
<text xml:space="preserve" text-anchor="start" x="202.25" y="-405.75" font-family="Helvetica,sans-Serif" font-size="14.00">1m</text>
<polygon fill="none" stroke="#334155" points="229.75,-394 229.75,-425 317,-425 317,-394 229.75,-394"/>
<text xml:space="preserve" text-anchor="start" x="286.5" y="-405.75" font-family="Helvetica,sans-Serif" font-size="14.00">100</text>
<polygon fill="none" stroke="#334155" points="317,-394 317,-425 442.5,-425 442.5,-394 317,-394"/>
<text xml:space="preserve" text-anchor="start" x="353.5" y="-405.75" font-family="Helvetica,sans-Serif" font-size="14.00">400 per wave</text>
<polygon fill="none" stroke="#334155" points="442.5,-394 442.5,-425 541,-425 541,-394 442.5,-394"/>
<text xml:space="preserve" text-anchor="start" x="518" y="-405.75" font-family="Helvetica,sans-Serif" font-size="14.00">60</text>
<polygon fill="none" stroke="#334155" points="541,-394 541,-425 679.25,-425 679.25,-394 541,-394"/>
<text xml:space="preserve" text-anchor="start" x="656.25" y="-405.75" font-family="Helvetica,sans-Serif" font-size="14.00">20</text>
<polygon fill="none" stroke="#334155" points="679.25,-394 679.25,-425 799.5,-425 799.5,-394 679.25,-394"/>
<text xml:space="preserve" text-anchor="start" x="769" y="-405.75" font-family="Helvetica,sans-Serif" font-size="14.00">100</text>
<polygon fill="none" stroke="#334155" points="27.5,-363 27.5,-394 158.25,-394 158.25,-363 27.5,-363"/>
<text xml:space="preserve" text-anchor="start" x="35.5" y="-374.75" font-family="Helvetica,sans-Serif" font-size="14.00">Recovery</text>
<polygon fill="none" stroke="#334155" points="158.25,-363 158.25,-394 229.75,-394 229.75,-363 158.25,-363"/>
<text xml:space="preserve" text-anchor="start" x="202.25" y="-374.75" font-family="Helvetica,sans-Serif" font-size="14.00">1m</text>
<polygon fill="none" stroke="#334155" points="229.75,-363 229.75,-394 317,-394 317,-363 229.75,-363"/>
<text xml:space="preserve" text-anchor="start" x="294" y="-374.75" font-family="Helvetica,sans-Serif" font-size="14.00">25</text>
<polygon fill="none" stroke="#334155" points="317,-363 317,-394 442.5,-394 442.5,-363 317,-363"/>
<text xml:space="preserve" text-anchor="start" x="353.5" y="-374.75" font-family="Helvetica,sans-Serif" font-size="14.00">100 per wave</text>
<polygon fill="none" stroke="#334155" points="442.5,-363 442.5,-394 541,-394 541,-363 442.5,-363"/>
<text xml:space="preserve" text-anchor="start" x="518" y="-374.75" font-family="Helvetica,sans-Serif" font-size="14.00">15</text>
<polygon fill="none" stroke="#334155" points="541,-363 541,-394 679.25,-394 679.25,-363 541,-363"/>
<text xml:space="preserve" text-anchor="start" x="663.75" y="-374.75" font-family="Helvetica,sans-Serif" font-size="14.00">5</text>
<polygon fill="none" stroke="#334155" points="679.25,-363 679.25,-394 799.5,-394 799.5,-363 679.25,-363"/>
<text xml:space="preserve" text-anchor="start" x="776.5" y="-374.75" font-family="Helvetica,sans-Serif" font-size="14.00">25</text>
<polygon fill="none" stroke="#334155" points="27.5,-332 27.5,-363 158.25,-363 158.25,-332 27.5,-332"/>
<text xml:space="preserve" text-anchor="start" x="35.5" y="-343.75" font-family="Helvetica,sans-Serif" font-size="14.00">Ramp to spike 2</text>
<polygon fill="none" stroke="#334155" points="158.25,-332 158.25,-363 229.75,-363 229.75,-332 158.25,-332"/>
<text xml:space="preserve" text-anchor="start" x="200" y="-343.75" font-family="Helvetica,sans-Serif" font-size="14.00">30s</text>
<polygon fill="none" stroke="#334155" points="229.75,-332 229.75,-363 317,-363 317,-332 229.75,-332"/>
<text xml:space="preserve" text-anchor="start" x="286.5" y="-343.75" font-family="Helvetica,sans-Serif" font-size="14.00">150</text>
<polygon fill="none" stroke="#334155" points="317,-332 317,-363 442.5,-363 442.5,-332 317,-332"/>
<text xml:space="preserve" text-anchor="start" x="325" y="-343.75" font-family="Helvetica,sans-Serif" font-size="14.00">up to 600 at target</text>
<polygon fill="none" stroke="#334155" points="442.5,-332 442.5,-363 541,-363 541,-332 442.5,-332"/>
<text xml:space="preserve" text-anchor="start" x="518" y="-343.75" font-family="Helvetica,sans-Serif" font-size="14.00">90</text>
<polygon fill="none" stroke="#334155" points="541,-332 541,-363 679.25,-363 679.25,-332 541,-332"/>
<text xml:space="preserve" text-anchor="start" x="656.25" y="-343.75" font-family="Helvetica,sans-Serif" font-size="14.00">30</text>
<polygon fill="none" stroke="#334155" points="679.25,-332 679.25,-363 799.5,-363 799.5,-332 679.25,-332"/>
<text xml:space="preserve" text-anchor="start" x="769" y="-343.75" font-family="Helvetica,sans-Serif" font-size="14.00">150</text>
<polygon fill="none" stroke="#334155" points="27.5,-301 27.5,-332 158.25,-332 158.25,-301 27.5,-301"/>
<text xml:space="preserve" text-anchor="start" x="35.5" y="-312.75" font-family="Helvetica,sans-Serif" font-size="14.00">Hold spike 2</text>
<polygon fill="none" stroke="#334155" points="158.25,-301 158.25,-332 229.75,-332 229.75,-301 158.25,-301"/>
<text xml:space="preserve" text-anchor="start" x="202.25" y="-312.75" font-family="Helvetica,sans-Serif" font-size="14.00">1m</text>
<polygon fill="none" stroke="#334155" points="229.75,-301 229.75,-332 317,-332 317,-301 229.75,-301"/>
<text xml:space="preserve" text-anchor="start" x="286.5" y="-312.75" font-family="Helvetica,sans-Serif" font-size="14.00">150</text>
<polygon fill="none" stroke="#334155" points="317,-301 317,-332 442.5,-332 442.5,-301 317,-301"/>
<text xml:space="preserve" text-anchor="start" x="353.5" y="-312.75" font-family="Helvetica,sans-Serif" font-size="14.00">600 per wave</text>
<polygon fill="none" stroke="#334155" points="442.5,-301 442.5,-332 541,-332 541,-301 442.5,-301"/>
<text xml:space="preserve" text-anchor="start" x="518" y="-312.75" font-family="Helvetica,sans-Serif" font-size="14.00">90</text>
<polygon fill="none" stroke="#334155" points="541,-301 541,-332 679.25,-332 679.25,-301 541,-301"/>
<text xml:space="preserve" text-anchor="start" x="656.25" y="-312.75" font-family="Helvetica,sans-Serif" font-size="14.00">30</text>
<polygon fill="none" stroke="#334155" points="679.25,-301 679.25,-332 799.5,-332 799.5,-301 679.25,-301"/>
<text xml:space="preserve" text-anchor="start" x="769" y="-312.75" font-family="Helvetica,sans-Serif" font-size="14.00">150</text>
<polygon fill="none" stroke="#334155" points="27.5,-270 27.5,-301 158.25,-301 158.25,-270 27.5,-270"/>
<text xml:space="preserve" text-anchor="start" x="35.5" y="-281.75" font-family="Helvetica,sans-Serif" font-size="14.00">Recovery</text>
<polygon fill="none" stroke="#334155" points="158.25,-270 158.25,-301 229.75,-301 229.75,-270 158.25,-270"/>
<text xml:space="preserve" text-anchor="start" x="202.25" y="-281.75" font-family="Helvetica,sans-Serif" font-size="14.00">1m</text>
<polygon fill="none" stroke="#334155" points="229.75,-270 229.75,-301 317,-301 317,-270 229.75,-270"/>
<text xml:space="preserve" text-anchor="start" x="294" y="-281.75" font-family="Helvetica,sans-Serif" font-size="14.00">25</text>
<polygon fill="none" stroke="#334155" points="317,-270 317,-301 442.5,-301 442.5,-270 317,-270"/>
<text xml:space="preserve" text-anchor="start" x="353.5" y="-281.75" font-family="Helvetica,sans-Serif" font-size="14.00">100 per wave</text>
<polygon fill="none" stroke="#334155" points="442.5,-270 442.5,-301 541,-301 541,-270 442.5,-270"/>
<text xml:space="preserve" text-anchor="start" x="518" y="-281.75" font-family="Helvetica,sans-Serif" font-size="14.00">15</text>
<polygon fill="none" stroke="#334155" points="541,-270 541,-301 679.25,-301 679.25,-270 541,-270"/>
<text xml:space="preserve" text-anchor="start" x="663.75" y="-281.75" font-family="Helvetica,sans-Serif" font-size="14.00">5</text>
<polygon fill="none" stroke="#334155" points="679.25,-270 679.25,-301 799.5,-301 799.5,-270 679.25,-270"/>
<text xml:space="preserve" text-anchor="start" x="776.5" y="-281.75" font-family="Helvetica,sans-Serif" font-size="14.00">25</text>
<polygon fill="none" stroke="#334155" points="27.5,-239 27.5,-270 158.25,-270 158.25,-239 27.5,-239"/>
<text xml:space="preserve" text-anchor="start" x="35.5" y="-250.75" font-family="Helvetica,sans-Serif" font-size="14.00">Ramp to spike 3</text>
<polygon fill="none" stroke="#334155" points="158.25,-239 158.25,-270 229.75,-270 229.75,-239 158.25,-239"/>
<text xml:space="preserve" text-anchor="start" x="200" y="-250.75" font-family="Helvetica,sans-Serif" font-size="14.00">30s</text>
<polygon fill="none" stroke="#334155" points="229.75,-239 229.75,-270 317,-270 317,-239 229.75,-239"/>
<text xml:space="preserve" text-anchor="start" x="286.5" y="-250.75" font-family="Helvetica,sans-Serif" font-size="14.00">225</text>
<polygon fill="none" stroke="#334155" points="317,-239 317,-270 442.5,-270 442.5,-239 317,-239"/>
<text xml:space="preserve" text-anchor="start" x="325" y="-250.75" font-family="Helvetica,sans-Serif" font-size="14.00">up to 900 at target</text>
<polygon fill="none" stroke="#334155" points="442.5,-239 442.5,-270 541,-270 541,-239 442.5,-239"/>
<text xml:space="preserve" text-anchor="start" x="510.5" y="-250.75" font-family="Helvetica,sans-Serif" font-size="14.00">135</text>
<polygon fill="none" stroke="#334155" points="541,-239 541,-270 679.25,-270 679.25,-239 541,-239"/>
<text xml:space="preserve" text-anchor="start" x="656.25" y="-250.75" font-family="Helvetica,sans-Serif" font-size="14.00">45</text>
<polygon fill="none" stroke="#334155" points="679.25,-239 679.25,-270 799.5,-270 799.5,-239 679.25,-239"/>
<text xml:space="preserve" text-anchor="start" x="769" y="-250.75" font-family="Helvetica,sans-Serif" font-size="14.00">225</text>
<polygon fill="none" stroke="#334155" points="27.5,-208 27.5,-239 158.25,-239 158.25,-208 27.5,-208"/>
<text xml:space="preserve" text-anchor="start" x="35.5" y="-219.75" font-family="Helvetica,sans-Serif" font-size="14.00">Hold spike 3</text>
<polygon fill="none" stroke="#334155" points="158.25,-208 158.25,-239 229.75,-239 229.75,-208 158.25,-208"/>
<text xml:space="preserve" text-anchor="start" x="202.25" y="-219.75" font-family="Helvetica,sans-Serif" font-size="14.00">1m</text>
<polygon fill="none" stroke="#334155" points="229.75,-208 229.75,-239 317,-239 317,-208 229.75,-208"/>
<text xml:space="preserve" text-anchor="start" x="286.5" y="-219.75" font-family="Helvetica,sans-Serif" font-size="14.00">225</text>
<polygon fill="none" stroke="#334155" points="317,-208 317,-239 442.5,-239 442.5,-208 317,-208"/>
<text xml:space="preserve" text-anchor="start" x="353.5" y="-219.75" font-family="Helvetica,sans-Serif" font-size="14.00">900 per wave</text>
<polygon fill="none" stroke="#334155" points="442.5,-208 442.5,-239 541,-239 541,-208 442.5,-208"/>
<text xml:space="preserve" text-anchor="start" x="510.5" y="-219.75" font-family="Helvetica,sans-Serif" font-size="14.00">135</text>
<polygon fill="none" stroke="#334155" points="541,-208 541,-239 679.25,-239 679.25,-208 541,-208"/>
<text xml:space="preserve" text-anchor="start" x="656.25" y="-219.75" font-family="Helvetica,sans-Serif" font-size="14.00">45</text>
<polygon fill="none" stroke="#334155" points="679.25,-208 679.25,-239 799.5,-239 799.5,-208 679.25,-208"/>
<text xml:space="preserve" text-anchor="start" x="769" y="-219.75" font-family="Helvetica,sans-Serif" font-size="14.00">225</text>
<polygon fill="none" stroke="#334155" points="27.5,-177 27.5,-208 158.25,-208 158.25,-177 27.5,-177"/>
<text xml:space="preserve" text-anchor="start" x="35.5" y="-188.75" font-family="Helvetica,sans-Serif" font-size="14.00">Ramp down</text>
<polygon fill="none" stroke="#334155" points="158.25,-177 158.25,-208 229.75,-208 229.75,-177 158.25,-177"/>
<text xml:space="preserve" text-anchor="start" x="202.25" y="-188.75" font-family="Helvetica,sans-Serif" font-size="14.00">1m</text>
<polygon fill="none" stroke="#334155" points="229.75,-177 229.75,-208 317,-208 317,-177 229.75,-177"/>
<text xml:space="preserve" text-anchor="start" x="301.5" y="-188.75" font-family="Helvetica,sans-Serif" font-size="14.00">0</text>
<polygon fill="none" stroke="#334155" points="317,-177 317,-208 442.5,-208 442.5,-177 317,-177"/>
<text xml:space="preserve" text-anchor="start" x="342.25" y="-188.75" font-family="Helvetica,sans-Serif" font-size="14.00">decreasing to 0</text>
<polygon fill="none" stroke="#334155" points="442.5,-177 442.5,-208 541,-208 541,-177 442.5,-177"/>
<text xml:space="preserve" text-anchor="start" x="467" y="-188.75" font-family="Helvetica,sans-Serif" font-size="14.00">decreasing</text>
<polygon fill="none" stroke="#334155" points="541,-177 541,-208 679.25,-208 679.25,-177 541,-177"/>
<text xml:space="preserve" text-anchor="start" x="605.25" y="-188.75" font-family="Helvetica,sans-Serif" font-size="14.00">decreasing</text>
<polygon fill="none" stroke="#334155" points="679.25,-177 679.25,-208 799.5,-208 799.5,-177 679.25,-177"/>
<text xml:space="preserve" text-anchor="start" x="725.5" y="-188.75" font-family="Helvetica,sans-Serif" font-size="14.00">decreasing</text>
<polygon fill="none" stroke="#334155" points="26.5,-176 26.5,-550 800.5,-550 800.5,-176 26.5,-176"/>
</g>
<!-- persona_table&#45;&gt;stage_table -->
<g id="edge2" class="edge">
<title>persona_table&#45;&gt;stage_table</title>
<path fill="none" stroke="#94a3b8" d="M413.5,-597.06C413.5,-584.38 413.5,-571.33 413.5,-558.18"/>
<polygon fill="#94a3b8" stroke="#94a3b8" points="415.95,-558.49 413.5,-551.49 411.05,-558.49 415.95,-558.49"/>
</g>
<!-- parallel_table -->
<g id="node4" class="node">
<title>parallel_table</title>
<polygon fill="#f3e8ff" stroke="none" points="65.12,-97 65.12,-128 761.88,-128 761.88,-97 65.12,-97"/>
<polygon fill="none" stroke="#334155" points="65.12,-97 65.12,-128 761.88,-128 761.88,-97 65.12,-97"/>
<text xml:space="preserve" text-anchor="start" x="281.88" y="-107.7" font-family="Helvetica,sans-Serif" font-weight="bold" font-size="14.00">Parallel scenarios in the combined script</text>
<polygon fill="#f1f5f9" stroke="none" points="65.12,-66 65.12,-97 229.62,-97 229.62,-66 65.12,-66"/>
<polygon fill="none" stroke="#334155" points="65.12,-66 65.12,-97 229.62,-97 229.62,-66 65.12,-66"/>
<text xml:space="preserve" text-anchor="start" x="118.88" y="-76.7" font-family="Helvetica,sans-Serif" font-weight="bold" font-size="14.00">Scenario</text>
<polygon fill="#f1f5f9" stroke="none" points="229.62,-66 229.62,-97 356.62,-97 356.62,-66 229.62,-66"/>
<polygon fill="none" stroke="#334155" points="229.62,-66 229.62,-97 356.62,-97 356.62,-66 229.62,-66"/>
<text xml:space="preserve" text-anchor="start" x="277" y="-76.7" font-family="Helvetica,sans-Serif" font-weight="bold" font-size="14.00">Load</text>
<polygon fill="#f1f5f9" stroke="none" points="356.62,-66 356.62,-97 761.88,-97 761.88,-66 356.62,-66"/>
<polygon fill="none" stroke="#334155" points="356.62,-66 356.62,-97 761.88,-97 761.88,-66 356.62,-66"/>
<text xml:space="preserve" text-anchor="start" x="510.5" y="-76.7" font-family="Helvetica,sans-Serif" font-weight="bold" font-size="14.00">Request model</text>
<polygon fill="none" stroke="#334155" points="65.12,-33.5 65.12,-66 229.62,-66 229.62,-33.5 65.12,-33.5"/>
<text xml:space="preserve" text-anchor="start" x="73.12" y="-46" font-family="Courier,monospace" font-size="14.00">regional_shoppers</text>
<polygon fill="none" stroke="#334155" points="229.62,-33.5 229.62,-66 356.62,-66 356.62,-33.5 229.62,-33.5"/>
<text xml:space="preserve" text-anchor="start" x="304.38" y="-46" font-family="Helvetica,sans-Serif" font-size="14.00">30 VUs</text>
<polygon fill="none" stroke="#334155" points="356.62,-33.5 356.62,-66 761.88,-66 761.88,-33.5 356.62,-33.5"/>
<text xml:space="preserve" text-anchor="start" x="364.62" y="-46" font-family="Helvetica,sans-Serif" font-size="14.00">About 4 requests per completed iteration</text>
<polygon fill="none" stroke="#334155" points="65.12,-1 65.12,-33.5 229.62,-33.5 229.62,-1 65.12,-1"/>
<text xml:space="preserve" text-anchor="start" x="73.12" y="-13.5" font-family="Courier,monospace" font-size="14.00">storefront_actions</text>
<polygon fill="none" stroke="#334155" points="229.62,-1 229.62,-33.5 356.62,-33.5 356.62,-1 229.62,-1"/>
<text xml:space="preserve" text-anchor="start" x="237.62" y="-13.5" font-family="Helvetica,sans-Serif" font-size="14.00">1 browser iteration</text>
<polygon fill="none" stroke="#334155" points="356.62,-1 356.62,-33.5 761.88,-33.5 761.88,-1 356.62,-1"/>
<text xml:space="preserve" text-anchor="start" x="364.62" y="-13.5" font-family="Helvetica,sans-Serif" font-size="14.00">Generates Faro UI actions rather than simple API request counts</text>
<polygon fill="none" stroke="#334155" points="64.12,0 64.12,-129 762.88,-129 762.88,0 64.12,0"/>
</g>
<!-- stage_table&#45;&gt;parallel_table -->
<g id="edge3" class="edge">
<title>stage_table&#45;&gt;parallel_table</title>
<path fill="none" stroke="#94a3b8" d="M413.5,-176.33C413.5,-162.67 413.5,-149.47 413.5,-137.23"/>
<polygon fill="#94a3b8" stroke="#94a3b8" points="415.95,-137.43 413.5,-130.43 411.05,-137.43 415.95,-137.43"/>
</g>
</g>
</svg>
