<?xml version="1.0" encoding="UTF-8" standalone="no"?>
<!DOCTYPE svg PUBLIC "-//W3C//DTD SVG 1.1//EN"
 "http://www.w3.org/Graphics/SVG/1.1/DTD/svg11.dtd">
<!-- Generated by graphviz version 15.0.0 (20260523.1842)
 -->
<!-- Title: traffic_spike_request_cards Pages: 1 -->
<svg width="1926pt" height="219pt"
 viewBox="0.00 0.00 1926.00 219.00" xmlns="http://www.w3.org/2000/svg" xmlns:xlink="http://www.w3.org/1999/xlink">
<g id="graph0" class="graph" transform="scale(1 1) rotate(0) translate(4 214.62)">
<title>traffic_spike_request_cards</title>
<polygon fill="white" stroke="none" points="-4,4 -4,-214.62 1921.5,-214.62 1921.5,4 -4,4"/>
<text xml:space="preserve" text-anchor="middle" x="958.75" y="-185.72" font-family="Helvetica,sans-Serif" font-size="22.00">Traffic Spike Request Model</text>
<!-- warmup -->
<g id="node1" class="node">
<title>warmup</title>
<polygon fill="#f8fafc" stroke="none" points="310,-85 310,-112 457.75,-112 457.75,-85 310,-85"/>
<text xml:space="preserve" text-anchor="start" x="356.5" y="-93.7" font-family="Helvetica,sans-Serif" font-weight="bold" font-size="14.00">Warmup</text>
<text xml:space="preserve" text-anchor="start" x="354.25" y="-62.9" font-family="Helvetica,sans-Serif" font-weight="bold" font-size="18.00">25 VUs</text>
<text xml:space="preserve" text-anchor="start" x="339.25" y="-37" font-family="Helvetica,sans-Serif" font-size="14.00">~100 req/wave</text>
<text xml:space="preserve" text-anchor="start" x="316" y="-13" font-family="Helvetica,sans-Serif" font-size="10.00">cart 15 · checkout 5 · region 25</text>
<polygon fill="none" stroke="#64748b" points="309,-3 309,-113 458.75,-113 458.75,-3 309,-3"/>
</g>
<!-- spike1 -->
<g id="node2" class="node">
<title>spike1</title>
<polygon fill="#fee2e2" stroke="none" points="800.75,-86.88 800.75,-113.88 959,-113.88 959,-86.88 800.75,-86.88"/>
<text xml:space="preserve" text-anchor="start" x="856.25" y="-95.58" font-family="Helvetica,sans-Serif" font-weight="bold" font-size="14.00">Spike 1</text>
<text xml:space="preserve" text-anchor="start" x="837.5" y="-60.98" font-family="Helvetica,sans-Serif" font-weight="bold" font-size="22.00">100 VUs</text>
<text xml:space="preserve" text-anchor="start" x="833.38" y="-34.08" font-family="Helvetica,sans-Serif" font-weight="bold" font-size="14.00">~400 req/wave</text>
<text xml:space="preserve" text-anchor="start" x="806.75" y="-11.12" font-family="Helvetica,sans-Serif" font-size="10.00">cart 60 · checkout 20 · region 100</text>
<polygon fill="none" stroke="#ef4444" points="799.75,-1.12 799.75,-114.88 960,-114.88 960,-1.12 799.75,-1.12"/>
</g>
<!-- warmup&#45;&gt;spike1 -->
<g id="edge1" class="edge">
<title>warmup&#45;&gt;spike1</title>
<path fill="none" stroke="#94a3b8" d="M458.67,-58C458.67,-58 792.43,-58 792.43,-58"/>
<polygon fill="#94a3b8" stroke="#94a3b8" points="792.43,-60.1 798.43,-58 792.43,-55.9 792.43,-60.1"/>
</g>
<!-- recovery1 -->
<g id="node3" class="node">
<title>recovery1</title>
<polygon fill="#f8fafc" stroke="none" points="993,-85 993,-112 1140.75,-112 1140.75,-85 993,-85"/>
<text xml:space="preserve" text-anchor="start" x="1036.5" y="-93.7" font-family="Helvetica,sans-Serif" font-weight="bold" font-size="14.00">Recovery</text>
<text xml:space="preserve" text-anchor="start" x="1037.25" y="-62.9" font-family="Helvetica,sans-Serif" font-weight="bold" font-size="18.00">25 VUs</text>
<text xml:space="preserve" text-anchor="start" x="1022.25" y="-37" font-family="Helvetica,sans-Serif" font-size="14.00">~100 req/wave</text>
<text xml:space="preserve" text-anchor="start" x="999" y="-13" font-family="Helvetica,sans-Serif" font-size="10.00">cart 15 · checkout 5 · region 25</text>
<polygon fill="none" stroke="#64748b" points="992,-3 992,-113 1141.75,-113 1141.75,-3 992,-3"/>
</g>
<!-- spike1&#45;&gt;recovery1 -->
<g id="edge2" class="edge">
<title>spike1&#45;&gt;recovery1</title>
<path fill="none" stroke="#94a3b8" d="M959.99,-58C959.99,-58 984.74,-58 984.74,-58"/>
<polygon fill="#94a3b8" stroke="#94a3b8" points="984.74,-60.1 990.74,-58 984.74,-55.9 984.74,-60.1"/>
</g>
<!-- spike2 -->
<g id="node4" class="node">
<title>spike2</title>
<polygon fill="#fecaca" stroke="none" points="1174.75,-86.88 1174.75,-113.88 1338.25,-113.88 1338.25,-86.88 1174.75,-86.88"/>
<text xml:space="preserve" text-anchor="start" x="1232.88" y="-95.58" font-family="Helvetica,sans-Serif" font-weight="bold" font-size="14.00">Spike 2</text>
<text xml:space="preserve" text-anchor="start" x="1214.12" y="-60.98" font-family="Helvetica,sans-Serif" font-weight="bold" font-size="22.00">200 VUs</text>
<text xml:space="preserve" text-anchor="start" x="1210" y="-34.08" font-family="Helvetica,sans-Serif" font-weight="bold" font-size="14.00">~800 req/wave</text>
<text xml:space="preserve" text-anchor="start" x="1180.75" y="-11.12" font-family="Helvetica,sans-Serif" font-size="10.00">cart 120 · checkout 40 · region 200</text>
<polygon fill="none" stroke="#dc2626" points="1173.75,-1.12 1173.75,-114.88 1339.25,-114.88 1339.25,-1.12 1173.75,-1.12"/>
</g>
<!-- recovery1&#45;&gt;spike2 -->
<g id="edge3" class="edge">
<title>recovery1&#45;&gt;spike2</title>
<path fill="none" stroke="#94a3b8" d="M1141.55,-58C1141.55,-58 1166.24,-58 1166.24,-58"/>
<polygon fill="#94a3b8" stroke="#94a3b8" points="1166.24,-60.1 1172.24,-58 1166.24,-55.9 1166.24,-60.1"/>
</g>
<!-- recovery2 -->
<g id="node5" class="node">
<title>recovery2</title>
<polygon fill="#f8fafc" stroke="none" points="1372.25,-85 1372.25,-112 1520,-112 1520,-85 1372.25,-85"/>
<text xml:space="preserve" text-anchor="start" x="1415.75" y="-93.7" font-family="Helvetica,sans-Serif" font-weight="bold" font-size="14.00">Recovery</text>
<text xml:space="preserve" text-anchor="start" x="1416.5" y="-62.9" font-family="Helvetica,sans-Serif" font-weight="bold" font-size="18.00">25 VUs</text>
<text xml:space="preserve" text-anchor="start" x="1401.5" y="-37" font-family="Helvetica,sans-Serif" font-size="14.00">~100 req/wave</text>
<text xml:space="preserve" text-anchor="start" x="1378.25" y="-13" font-family="Helvetica,sans-Serif" font-size="10.00">cart 15 · checkout 5 · region 25</text>
<polygon fill="none" stroke="#64748b" points="1371.25,-3 1371.25,-113 1521,-113 1521,-3 1371.25,-3"/>
</g>
<!-- spike2&#45;&gt;recovery2 -->
<g id="edge4" class="edge">
<title>spike2&#45;&gt;recovery2</title>
<path fill="none" stroke="#94a3b8" d="M1339.12,-58C1339.12,-58 1364.02,-58 1364.02,-58"/>
<polygon fill="#94a3b8" stroke="#94a3b8" points="1364.02,-60.1 1370.02,-58 1364.02,-55.9 1364.02,-60.1"/>
</g>
<!-- spike3 -->
<g id="node6" class="node">
<title>spike3</title>
<polygon fill="#fca5a5" stroke="none" points="1554,-88 1554,-115 1717.5,-115 1717.5,-88 1554,-88"/>
<text xml:space="preserve" text-anchor="start" x="1612.12" y="-96.7" font-family="Helvetica,sans-Serif" font-weight="bold" font-size="14.00">Spike 3</text>
<text xml:space="preserve" text-anchor="start" x="1588.88" y="-60.2" font-family="Helvetica,sans-Serif" font-weight="bold" font-size="24.00">400 VUs</text>
<text xml:space="preserve" text-anchor="start" x="1585.5" y="-32.95" font-family="Helvetica,sans-Serif" font-weight="bold" font-size="14.00">~1600 req/wave</text>
<text xml:space="preserve" text-anchor="start" x="1560" y="-10" font-family="Helvetica,sans-Serif" font-size="10.00">cart 240 · checkout 80 · region 400</text>
<polygon fill="none" stroke="#991b1b" points="1553,0 1553,-116 1718.5,-116 1718.5,0 1553,0"/>
</g>
<!-- recovery2&#45;&gt;spike3 -->
<g id="edge5" class="edge">
<title>recovery2&#45;&gt;spike3</title>
<path fill="none" stroke="#94a3b8" d="M1520.8,-58C1520.8,-58 1545.49,-58 1545.49,-58"/>
<polygon fill="#94a3b8" stroke="#94a3b8" points="1545.49,-60.1 1551.49,-58 1545.49,-55.9 1545.49,-60.1"/>
</g>
<!-- rampdown -->
<g id="node7" class="node">
<title>rampdown</title>
<polygon fill="#f8fafc" stroke="none" points="1751.5,-85 1751.5,-112 1916.5,-112 1916.5,-85 1751.5,-85"/>
<text xml:space="preserve" text-anchor="start" x="1795" y="-93.7" font-family="Helvetica,sans-Serif" font-weight="bold" font-size="14.00">Ramp down</text>
<text xml:space="preserve" text-anchor="start" x="1809.25" y="-62.9" font-family="Helvetica,sans-Serif" font-weight="bold" font-size="18.00">0 VUs</text>
<text xml:space="preserve" text-anchor="start" x="1801" y="-37" font-family="Helvetica,sans-Serif" font-size="14.00">decreasing</text>
<text xml:space="preserve" text-anchor="start" x="1757.5" y="-13" font-family="Helvetica,sans-Serif" font-size="10.00">counters decrease with active VUs</text>
<polygon fill="none" stroke="#64748b" points="1750.5,-3 1750.5,-113 1917.5,-113 1917.5,-3 1750.5,-3"/>
</g>
<!-- spike3&#45;&gt;rampdown -->
<g id="edge6" class="edge">
<title>spike3&#45;&gt;rampdown</title>
<path fill="none" stroke="#94a3b8" d="M1718.39,-58C1718.39,-58 1743.02,-58 1743.02,-58"/>
<polygon fill="#94a3b8" stroke="#94a3b8" points="1743.02,-60.1 1749.02,-58 1743.02,-55.9 1743.02,-60.1"/>
</g>
<!-- legend -->
<g id="node8" class="node">
<title>legend</title>
<text xml:space="preserve" text-anchor="start" x="4" y="-163.82" font-family="Helvetica,sans-Serif" font-weight="bold" font-size="14.00">Config:</text>
<text xml:space="preserve" text-anchor="start" x="51.25" y="-163.82" font-family="Helvetica,sans-Serif" font-size="14.00"> base 100, multiplier 2, regional 30 VUs, storefront actions ramp to 60 browser VUs over 3m, hold 10m, ramp down 2m</text>
<text xml:space="preserve" text-anchor="start" x="4" y="-144.88" font-family="Helvetica,sans-Serif" font-size="10.00">browser 3 · cart_builder 4 · account_manager 4 · sale_hunter 4 · checkout 5; actual totals depend on completed iterations.</text>
</g>
</g>
</svg>
