<?xml version="1.0" encoding="UTF-8" standalone="no"?>
<!DOCTYPE svg PUBLIC "-//W3C//DTD SVG 1.1//EN"
 "http://www.w3.org/Graphics/SVG/1.1/DTD/svg11.dtd">
<!-- Generated by graphviz version 15.0.0 (20260523.1842)
 -->
<!-- Title: traffic_spike_requests_only Pages: 1 -->
<svg width="3847pt" height="268pt"
 viewBox="0.00 0.00 3847.00 268.00" xmlns="http://www.w3.org/2000/svg" xmlns:xlink="http://www.w3.org/1999/xlink">
<g id="graph0" class="graph" transform="scale(1 1) rotate(0) translate(4 264)">
<title>traffic_spike_requests_only</title>
<polygon fill="white" stroke="none" points="-4,4 -4,-264 3843.25,-264 3843.25,4 -4,4"/>
<text xml:space="preserve" text-anchor="middle" x="1919.62" y="-237" font-family="Helvetica,sans-Serif" font-size="20.00">Traffic Spike Requests per Completed Wave</text>
<g id="clust1" class="cluster">
<title>cluster_persona_math</title>
<path fill="none" stroke="#cbd5e1" stroke-dasharray="5,2" d="M20,-91C20,-91 1054.22,-91 1054.22,-91 1060.22,-91 1066.22,-97 1066.22,-103 1066.22,-103 1066.22,-154 1066.22,-154 1066.22,-160 1060.22,-166 1054.22,-166 1054.22,-166 20,-166 20,-166 14,-166 8,-160 8,-154 8,-154 8,-103 8,-103 8,-97 14,-91 20,-91"/>
<text xml:space="preserve" text-anchor="middle" x="537.11" y="-149.65" font-family="Helvetica,sans-Serif" font-size="13.00">Per iteration request mix</text>
</g>
<g id="clust2" class="cluster">
<title>cluster_stage_flow</title>
<path fill="none" stroke="#cbd5e1" stroke-dasharray="5,2" d="M1282.71,-148C1282.71,-148 3819.25,-148 3819.25,-148 3825.25,-148 3831.25,-154 3831.25,-160 3831.25,-160 3831.25,-211 3831.25,-211 3831.25,-217 3825.25,-223 3819.25,-223 3819.25,-223 1282.71,-223 1282.71,-223 1276.71,-223 1270.71,-217 1270.71,-211 1270.71,-211 1270.71,-160 1270.71,-160 1270.71,-154 1276.71,-148 1282.71,-148"/>
<text xml:space="preserve" text-anchor="middle" x="2550.98" y="-206.65" font-family="Helvetica,sans-Serif" font-size="13.00">traffic_spikes stage model</text>
</g>
<g id="clust3" class="cluster">
<title>cluster_parallel</title>
<path fill="none" stroke="#cbd5e1" stroke-dasharray="5,2" d="M1150.47,-8C1150.47,-8 1588.78,-8 1588.78,-8 1594.78,-8 1600.78,-14 1600.78,-20 1600.78,-20 1600.78,-128 1600.78,-128 1600.78,-134 1594.78,-140 1588.78,-140 1588.78,-140 1150.47,-140 1150.47,-140 1144.47,-140 1138.47,-134 1138.47,-128 1138.47,-128 1138.47,-20 1138.47,-20 1138.47,-14 1144.47,-8 1150.47,-8"/>
<text xml:space="preserve" text-anchor="middle" x="1369.62" y="-123.65" font-family="Helvetica,sans-Serif" font-size="13.00">Parallel request load</text>
</g>
<!-- note&#45;&gt;p_avg -->
<g id="edge15" class="edge">
<title>note&#45;&gt;p_avg</title>
<path fill="none" stroke="#475569" stroke-width="1.2" d="M860.12,-173.53C874.82,-171.42 884.68,-170 884.68,-170 884.68,-170 919.1,-154.21 950.02,-140.04"/>
<polygon fill="#475569" stroke="#475569" stroke-width="1.2" points="950.78,-142.38 956.13,-137.24 948.74,-137.93 950.78,-142.38"/>
<text xml:space="preserve" text-anchor="middle" x="912.3" y="-164.2" font-family="Helvetica,sans-Serif" font-size="10.00">basis</text>
</g>
<!-- p_browser&#45;&gt;p_cart -->
<!-- p_cart&#45;&gt;p_account -->
<!-- p_account&#45;&gt;p_sale -->
<!-- p_sale&#45;&gt;p_checkout -->
<!-- p_checkout&#45;&gt;p_avg -->
<!-- p_avg&#45;&gt;warmup -->
<g id="edge16" class="edge">
<title>p_avg&#45;&gt;warmup</title>
<path fill="none" stroke="#475569" stroke-width="1.2" d="M1058.37,-129.37C1096.19,-136.75 1138.47,-145 1138.47,-145 1138.47,-145 1207.5,-154 1269.96,-162.14"/>
<polygon fill="#475569" stroke="#475569" stroke-width="1.2" points="1269.26,-164.52 1276.52,-162.99 1269.9,-159.66 1269.26,-164.52"/>
<text xml:space="preserve" text-anchor="middle" x="1102.34" y="-144.9" font-family="Helvetica,sans-Serif" font-size="10.00">× target VUs</text>
</g>
<!-- p_avg&#45;&gt;regional -->
<g id="edge17" class="edge">
<title>p_avg&#45;&gt;regional</title>
<path fill="none" stroke="#475569" stroke-width="1.2" d="M1047.32,-99.57C1087.41,-83.92 1138.47,-64 1138.47,-64 1138.47,-64 1190.73,-57.42 1245.45,-50.52"/>
<polygon fill="#475569" stroke="#475569" stroke-width="1.2" points="1245.44,-52.99 1252.08,-49.68 1244.83,-48.13 1245.44,-52.99"/>
<text xml:space="preserve" text-anchor="middle" x="1102.34" y="-89.52" font-family="Helvetica,sans-Serif" font-size="10.00">30 × 4</text>
</g>
<!-- warmup&#45;&gt;ramp1 -->
<g id="edge6" class="edge">
<title>warmup&#45;&gt;ramp1</title>
<path fill="none" stroke="#475569" stroke-width="1.2" d="M1460.84,-175C1508.05,-175 1566.36,-175 1616.78,-175"/>
<polygon fill="#475569" stroke="#475569" stroke-width="1.2" points="1616.63,-177.45 1623.63,-175 1616.63,-172.55 1616.63,-177.45"/>
</g>
<!-- ramp1&#45;&gt;hold1 -->
<g id="edge7" class="edge">
<title>ramp1&#45;&gt;hold1</title>
<path fill="none" stroke="#475569" stroke-width="1.2" d="M1840.02,-175C1847.92,-175 1855.89,-175 1863.82,-175"/>
<polygon fill="#475569" stroke="#475569" stroke-width="1.2" points="1863.57,-177.45 1870.57,-175 1863.57,-172.55 1863.57,-177.45"/>
</g>
<!-- hold1&#45;&gt;rec1 -->
<g id="edge8" class="edge">
<title>hold1&#45;&gt;rec1</title>
<path fill="none" stroke="#475569" stroke-width="1.2" d="M2079.69,-175C2087.51,-175 2095.44,-175 2103.37,-175"/>
<polygon fill="#475569" stroke="#475569" stroke-width="1.2" points="2103.14,-177.45 2110.14,-175 2103.14,-172.55 2103.14,-177.45"/>
</g>
<!-- rec1&#45;&gt;ramp2 -->
<g id="edge9" class="edge">
<title>rec1&#45;&gt;ramp2</title>
<path fill="none" stroke="#475569" stroke-width="1.2" d="M2339.71,-175C2347.49,-175 2355.33,-175 2363.12,-175"/>
<polygon fill="#475569" stroke="#475569" stroke-width="1.2" points="2363.07,-177.45 2370.07,-175 2363.07,-172.55 2363.07,-177.45"/>
</g>
<!-- ramp2&#45;&gt;hold2 -->
<g id="edge10" class="edge">
<title>ramp2&#45;&gt;hold2</title>
<path fill="none" stroke="#475569" stroke-width="1.2" d="M2586.51,-175C2594.41,-175 2602.38,-175 2610.31,-175"/>
<polygon fill="#475569" stroke="#475569" stroke-width="1.2" points="2610.06,-177.45 2617.06,-175 2610.06,-172.55 2610.06,-177.45"/>
</g>
<!-- hold2&#45;&gt;rec2 -->
<g id="edge11" class="edge">
<title>hold2&#45;&gt;rec2</title>
<path fill="none" stroke="#475569" stroke-width="1.2" d="M2826.18,-175C2834,-175 2841.93,-175 2849.86,-175"/>
<polygon fill="#475569" stroke="#475569" stroke-width="1.2" points="2849.63,-177.45 2856.63,-175 2849.63,-172.55 2849.63,-177.45"/>
</g>
<!-- rec2&#45;&gt;ramp3 -->
<g id="edge12" class="edge">
<title>rec2&#45;&gt;ramp3</title>
<path fill="none" stroke="#475569" stroke-width="1.2" d="M3086.06,-175C3093.97,-175 3101.95,-175 3109.89,-175"/>
<polygon fill="#475569" stroke="#475569" stroke-width="1.2" points="3109.66,-177.45 3116.66,-175 3109.66,-172.55 3109.66,-177.45"/>
</g>
<!-- ramp3&#45;&gt;hold3 -->
<g id="edge13" class="edge">
<title>ramp3&#45;&gt;hold3</title>
<path fill="none" stroke="#475569" stroke-width="1.2" d="M3339,-175C3346.99,-175 3355.05,-175 3363.06,-175"/>
<polygon fill="#475569" stroke="#475569" stroke-width="1.2" points="3362.91,-177.45 3369.91,-175 3362.91,-172.55 3362.91,-177.45"/>
</g>
<!-- hold3&#45;&gt;down -->
<g id="edge14" class="edge">
<title>hold3&#45;&gt;down</title>
<path fill="none" stroke="#475569" stroke-width="1.2" d="M3584.84,-175C3592.61,-175 3600.47,-175 3608.27,-175"/>
<polygon fill="#475569" stroke="#475569" stroke-width="1.2" points="3608.23,-177.45 3615.23,-175 3608.23,-172.55 3608.23,-177.45"/>
</g>
<!-- note -->
<g id="node1" class="node">
<title>note</title>
<polygon fill="#fff7ed" stroke="#f97316" points="878.68,-210 576.91,-210 576.91,-174 884.68,-174 884.68,-204 878.68,-210"/>
<polyline fill="none" stroke="#f97316" points="878.68,-210 878.68,-204"/>
<polyline fill="none" stroke="#f97316" points="884.68,-204 878.68,-204"/>
<text xml:space="preserve" text-anchor="middle" x="730.8" y="-193.55" font-family="Helvetica,sans-Serif" font-size="11.00">Estimates assume each active VU completes one iteration.</text>
<text xml:space="preserve" text-anchor="middle" x="730.8" y="-181.55" font-family="Helvetica,sans-Serif" font-size="11.00">Actual request totals vary with latency, sleeps, and loop count.</text>
</g>
<!-- p_browser -->
<g id="node2" class="node">
<title>p_browser</title>
<path fill="#f8fafc" stroke="#334155" d="M28,-100C28,-100 90.79,-100 90.79,-100 96.79,-100 102.79,-106 102.79,-112 102.79,-112 102.79,-124 102.79,-124 102.79,-130 96.79,-136 90.79,-136 90.79,-136 28,-136 28,-136 22,-136 16,-130 16,-124 16,-124 16,-112 16,-112 16,-106 22,-100 28,-100"/>
<text xml:space="preserve" text-anchor="middle" x="41.26" y="-113.95" font-family="Helvetica,sans-Serif" font-size="11.00">browser</text>
<polyline fill="none" stroke="#334155" points="66.52,-100.8 66.52,-136"/>
<text xml:space="preserve" text-anchor="middle" x="84.65" y="-113.95" font-family="Helvetica,sans-Serif" font-size="11.00">3 req</text>
</g>
<!-- p_cart -->
<g id="node3" class="node">
<title>p_cart</title>
<path fill="#f8fafc" stroke="#334155" d="M147.79,-100C147.79,-100 227.83,-100 227.83,-100 233.83,-100 239.83,-106 239.83,-112 239.83,-112 239.83,-124 239.83,-124 239.83,-130 233.83,-136 227.83,-136 227.83,-136 147.79,-136 147.79,-136 141.79,-136 135.79,-130 135.79,-124 135.79,-124 135.79,-112 135.79,-112 135.79,-106 141.79,-100 147.79,-100"/>
<text xml:space="preserve" text-anchor="middle" x="169.67" y="-113.95" font-family="Helvetica,sans-Serif" font-size="11.00">cart_builder</text>
<polyline fill="none" stroke="#334155" points="203.56,-100.8 203.56,-136"/>
<text xml:space="preserve" text-anchor="middle" x="221.69" y="-113.95" font-family="Helvetica,sans-Serif" font-size="11.00">4 req</text>
</g>
<!-- p_account -->
<g id="node4" class="node">
<title>p_account</title>
<path fill="#f8fafc" stroke="#334155" d="M284.83,-100C284.83,-100 394.87,-100 394.87,-100 400.87,-100 406.87,-106 406.87,-112 406.87,-112 406.87,-124 406.87,-124 406.87,-130 400.87,-136 394.87,-136 394.87,-136 284.83,-136 284.83,-136 278.83,-136 272.83,-130 272.83,-124 272.83,-124 272.83,-112 272.83,-112 272.83,-106 278.83,-100 284.83,-100"/>
<text xml:space="preserve" text-anchor="middle" x="321.71" y="-113.95" font-family="Helvetica,sans-Serif" font-size="11.00">account_manager</text>
<polyline fill="none" stroke="#334155" points="370.6,-100.8 370.6,-136"/>
<text xml:space="preserve" text-anchor="middle" x="388.73" y="-113.95" font-family="Helvetica,sans-Serif" font-size="11.00">4 req</text>
</g>
<!-- p_sale -->
<g id="node5" class="node">
<title>p_sale</title>
<path fill="#f8fafc" stroke="#334155" d="M451.87,-100C451.87,-100 531.91,-100 531.91,-100 537.91,-100 543.91,-106 543.91,-112 543.91,-112 543.91,-124 543.91,-124 543.91,-130 537.91,-136 531.91,-136 531.91,-136 451.87,-136 451.87,-136 445.87,-136 439.87,-130 439.87,-124 439.87,-124 439.87,-112 439.87,-112 439.87,-106 445.87,-100 451.87,-100"/>
<text xml:space="preserve" text-anchor="middle" x="473.75" y="-113.95" font-family="Helvetica,sans-Serif" font-size="11.00">sale_hunter</text>
<polyline fill="none" stroke="#334155" points="507.64,-100.8 507.64,-136"/>
<text xml:space="preserve" text-anchor="middle" x="525.77" y="-113.95" font-family="Helvetica,sans-Serif" font-size="11.00">4 req</text>
</g>
<!-- p_checkout -->
<g id="node6" class="node">
<title>p_checkout</title>
<path fill="#f8fafc" stroke="#334155" d="M697.53,-100C697.53,-100 764.07,-100 764.07,-100 770.07,-100 776.07,-106 776.07,-112 776.07,-112 776.07,-124 776.07,-124 776.07,-130 770.07,-136 764.07,-136 764.07,-136 697.53,-136 697.53,-136 691.53,-136 685.53,-130 685.53,-124 685.53,-124 685.53,-112 685.53,-112 685.53,-106 691.53,-100 697.53,-100"/>
<text xml:space="preserve" text-anchor="middle" x="712.66" y="-113.95" font-family="Helvetica,sans-Serif" font-size="11.00">checkout</text>
<polyline fill="none" stroke="#334155" points="739.8,-100.8 739.8,-136"/>
<text xml:space="preserve" text-anchor="middle" x="757.93" y="-113.95" font-family="Helvetica,sans-Serif" font-size="11.00">5 req</text>
</g>
<!-- p_avg -->
<g id="node7" class="node">
<title>p_avg</title>
<path fill="#ecfeff" stroke="#0891b2" d="M951.93,-100C951.93,-100 1046.22,-100 1046.22,-100 1052.22,-100 1058.22,-106 1058.22,-112 1058.22,-112 1058.22,-124 1058.22,-124 1058.22,-130 1052.22,-136 1046.22,-136 1046.22,-136 951.93,-136 951.93,-136 945.93,-136 939.93,-130 939.93,-124 939.93,-124 939.93,-112 939.93,-112 939.93,-106 945.93,-100 951.93,-100"/>
<text xml:space="preserve" text-anchor="middle" x="954.31" y="-113.95" font-family="Helvetica,sans-Serif" font-size="11.00">avg</text>
<polyline fill="none" stroke="#0891b2" points="968.7,-100.8 968.7,-136"/>
<text xml:space="preserve" text-anchor="middle" x="1013.46" y="-113.95" font-family="Helvetica,sans-Serif" font-size="11.00">4 req / VU wave</text>
</g>
<!-- warmup -->
<g id="node8" class="node">
<title>warmup</title>
<path fill="#f1f5f9" stroke="#334155" d="M1290.71,-157C1290.71,-157 1448.54,-157 1448.54,-157 1454.54,-157 1460.54,-163 1460.54,-169 1460.54,-169 1460.54,-181 1460.54,-181 1460.54,-187 1454.54,-193 1448.54,-193 1448.54,-193 1290.71,-193 1290.71,-193 1284.71,-193 1278.71,-187 1278.71,-181 1278.71,-181 1278.71,-169 1278.71,-169 1278.71,-163 1284.71,-157 1290.71,-157"/>
<text xml:space="preserve" text-anchor="middle" x="1305.1" y="-170.95" font-family="Helvetica,sans-Serif" font-size="11.00">Warmup</text>
<polyline fill="none" stroke="#334155" points="1331.48,-157.8 1331.48,-193"/>
<text xml:space="preserve" text-anchor="middle" x="1344.74" y="-170.95" font-family="Helvetica,sans-Serif" font-size="11.00">2m</text>
<polyline fill="none" stroke="#334155" points="1358,-157.8 1358,-193"/>
<text xml:space="preserve" text-anchor="middle" x="1381.76" y="-170.95" font-family="Helvetica,sans-Serif" font-size="11.00">25 VUs</text>
<polyline fill="none" stroke="#334155" points="1405.52,-157.8 1405.52,-193"/>
<text xml:space="preserve" text-anchor="middle" x="1433.03" y="-170.95" font-family="Helvetica,sans-Serif" font-size="11.00">~100 req</text>
</g>
<!-- ramp1 -->
<g id="node9" class="node">
<title>ramp1</title>
<path fill="#dbeafe" stroke="#334155" d="M1637.78,-157C1637.78,-157 1827.86,-157 1827.86,-157 1833.86,-157 1839.86,-163 1839.86,-169 1839.86,-169 1839.86,-181 1839.86,-181 1839.86,-187 1833.86,-193 1827.86,-193 1827.86,-193 1637.78,-193 1637.78,-193 1631.78,-193 1625.78,-187 1625.78,-181 1625.78,-181 1625.78,-169 1625.78,-169 1625.78,-163 1631.78,-157 1637.78,-157"/>
<text xml:space="preserve" text-anchor="middle" x="1650.67" y="-170.95" font-family="Helvetica,sans-Serif" font-size="11.00">Ramp 1</text>
<polyline fill="none" stroke="#334155" points="1675.55,-157.8 1675.55,-193"/>
<text xml:space="preserve" text-anchor="middle" x="1689.94" y="-170.95" font-family="Helvetica,sans-Serif" font-size="11.00">30s</text>
<polyline fill="none" stroke="#334155" points="1704.32,-157.8 1704.32,-193"/>
<text xml:space="preserve" text-anchor="middle" x="1731.08" y="-170.95" font-family="Helvetica,sans-Serif" font-size="11.00">100 VUs</text>
<polyline fill="none" stroke="#334155" points="1757.84,-157.8 1757.84,-193"/>
<text xml:space="preserve" text-anchor="middle" x="1798.85" y="-170.95" font-family="Helvetica,sans-Serif" font-size="11.00">up to ~400 req</text>
</g>
<!-- hold1 -->
<g id="node10" class="node">
<title>hold1</title>
<path fill="#bfdbfe" stroke="#334155" d="M1884.86,-157C1884.86,-157 2067.44,-157 2067.44,-157 2073.44,-157 2079.44,-163 2079.44,-169 2079.44,-169 2079.44,-181 2079.44,-181 2079.44,-187 2073.44,-193 2067.44,-193 2067.44,-193 1884.86,-193 1884.86,-193 1878.86,-193 1872.86,-187 1872.86,-181 1872.86,-181 1872.86,-169 1872.86,-169 1872.86,-163 1878.86,-157 1884.86,-157"/>
<text xml:space="preserve" text-anchor="middle" x="1894.37" y="-170.95" font-family="Helvetica,sans-Serif" font-size="11.00">Hold 1</text>
<polyline fill="none" stroke="#334155" points="1915.88,-157.8 1915.88,-193"/>
<text xml:space="preserve" text-anchor="middle" x="1929.14" y="-170.95" font-family="Helvetica,sans-Serif" font-size="11.00">2m</text>
<polyline fill="none" stroke="#334155" points="1942.4,-157.8 1942.4,-193"/>
<text xml:space="preserve" text-anchor="middle" x="1969.16" y="-170.95" font-family="Helvetica,sans-Serif" font-size="11.00">100 VUs</text>
<polyline fill="none" stroke="#334155" points="1995.92,-157.8 1995.92,-193"/>
<text xml:space="preserve" text-anchor="middle" x="2037.68" y="-170.95" font-family="Helvetica,sans-Serif" font-size="11.00">~400 req/wave</text>
</g>
<!-- rec1 -->
<g id="node11" class="node">
<title>rec1</title>
<path fill="#f1f5f9" stroke="#334155" d="M2124.44,-157C2124.44,-157 2327.27,-157 2327.27,-157 2333.27,-157 2339.27,-163 2339.27,-169 2339.27,-169 2339.27,-181 2339.27,-181 2339.27,-187 2333.27,-193 2327.27,-193 2327.27,-193 2124.44,-193 2124.44,-193 2118.44,-193 2112.44,-187 2112.44,-181 2112.44,-181 2112.44,-169 2112.44,-169 2112.44,-163 2118.44,-157 2124.44,-157"/>
<text xml:space="preserve" text-anchor="middle" x="2138.45" y="-170.95" font-family="Helvetica,sans-Serif" font-size="11.00">Recover</text>
<polyline fill="none" stroke="#334155" points="2164.46,-157.8 2164.46,-193"/>
<text xml:space="preserve" text-anchor="middle" x="2186.35" y="-170.95" font-family="Helvetica,sans-Serif" font-size="11.00">1m30s</text>
<polyline fill="none" stroke="#334155" points="2208.23,-157.8 2208.23,-193"/>
<text xml:space="preserve" text-anchor="middle" x="2231.99" y="-170.95" font-family="Helvetica,sans-Serif" font-size="11.00">25 VUs</text>
<polyline fill="none" stroke="#334155" points="2255.75,-157.8 2255.75,-193"/>
<text xml:space="preserve" text-anchor="middle" x="2297.51" y="-170.95" font-family="Helvetica,sans-Serif" font-size="11.00">~100 req/wave</text>
</g>
<!-- ramp2 -->
<g id="node12" class="node">
<title>ramp2</title>
<path fill="#fde68a" stroke="#334155" d="M2384.27,-157C2384.27,-157 2574.35,-157 2574.35,-157 2580.35,-157 2586.35,-163 2586.35,-169 2586.35,-169 2586.35,-181 2586.35,-181 2586.35,-187 2580.35,-193 2574.35,-193 2574.35,-193 2384.27,-193 2384.27,-193 2378.27,-193 2372.27,-187 2372.27,-181 2372.27,-181 2372.27,-169 2372.27,-169 2372.27,-163 2378.27,-157 2384.27,-157"/>
<text xml:space="preserve" text-anchor="middle" x="2397.16" y="-170.95" font-family="Helvetica,sans-Serif" font-size="11.00">Ramp 2</text>
<polyline fill="none" stroke="#334155" points="2422.04,-157.8 2422.04,-193"/>
<text xml:space="preserve" text-anchor="middle" x="2436.43" y="-170.95" font-family="Helvetica,sans-Serif" font-size="11.00">30s</text>
<polyline fill="none" stroke="#334155" points="2450.81,-157.8 2450.81,-193"/>
<text xml:space="preserve" text-anchor="middle" x="2477.57" y="-170.95" font-family="Helvetica,sans-Serif" font-size="11.00">200 VUs</text>
<polyline fill="none" stroke="#334155" points="2504.33,-157.8 2504.33,-193"/>
<text xml:space="preserve" text-anchor="middle" x="2545.34" y="-170.95" font-family="Helvetica,sans-Serif" font-size="11.00">up to ~800 req</text>
</g>
<!-- hold2 -->
<g id="node13" class="node">
<title>hold2</title>
<path fill="#fcd34d" stroke="#334155" d="M2631.35,-157C2631.35,-157 2813.93,-157 2813.93,-157 2819.93,-157 2825.93,-163 2825.93,-169 2825.93,-169 2825.93,-181 2825.93,-181 2825.93,-187 2819.93,-193 2813.93,-193 2813.93,-193 2631.35,-193 2631.35,-193 2625.35,-193 2619.35,-187 2619.35,-181 2619.35,-181 2619.35,-169 2619.35,-169 2619.35,-163 2625.35,-157 2631.35,-157"/>
<text xml:space="preserve" text-anchor="middle" x="2640.86" y="-170.95" font-family="Helvetica,sans-Serif" font-size="11.00">Hold 2</text>
<polyline fill="none" stroke="#334155" points="2662.37,-157.8 2662.37,-193"/>
<text xml:space="preserve" text-anchor="middle" x="2675.63" y="-170.95" font-family="Helvetica,sans-Serif" font-size="11.00">2m</text>
<polyline fill="none" stroke="#334155" points="2688.89,-157.8 2688.89,-193"/>
<text xml:space="preserve" text-anchor="middle" x="2715.65" y="-170.95" font-family="Helvetica,sans-Serif" font-size="11.00">200 VUs</text>
<polyline fill="none" stroke="#334155" points="2742.41,-157.8 2742.41,-193"/>
<text xml:space="preserve" text-anchor="middle" x="2784.17" y="-170.95" font-family="Helvetica,sans-Serif" font-size="11.00">~800 req/wave</text>
</g>
<!-- rec2 -->
<g id="node14" class="node">
<title>rec2</title>
<path fill="#f1f5f9" stroke="#334155" d="M2870.93,-157C2870.93,-157 3073.76,-157 3073.76,-157 3079.76,-157 3085.76,-163 3085.76,-169 3085.76,-169 3085.76,-181 3085.76,-181 3085.76,-187 3079.76,-193 3073.76,-193 3073.76,-193 2870.93,-193 2870.93,-193 2864.93,-193 2858.93,-187 2858.93,-181 2858.93,-181 2858.93,-169 2858.93,-169 2858.93,-163 2864.93,-157 2870.93,-157"/>
<text xml:space="preserve" text-anchor="middle" x="2884.94" y="-170.95" font-family="Helvetica,sans-Serif" font-size="11.00">Recover</text>
<polyline fill="none" stroke="#334155" points="2910.95,-157.8 2910.95,-193"/>
<text xml:space="preserve" text-anchor="middle" x="2932.84" y="-170.95" font-family="Helvetica,sans-Serif" font-size="11.00">1m30s</text>
<polyline fill="none" stroke="#334155" points="2954.72,-157.8 2954.72,-193"/>
<text xml:space="preserve" text-anchor="middle" x="2978.48" y="-170.95" font-family="Helvetica,sans-Serif" font-size="11.00">25 VUs</text>
<polyline fill="none" stroke="#334155" points="3002.24,-157.8 3002.24,-193"/>
<text xml:space="preserve" text-anchor="middle" x="3044" y="-170.95" font-family="Helvetica,sans-Serif" font-size="11.00">~100 req/wave</text>
</g>
<!-- ramp3 -->
<g id="node15" class="node">
<title>ramp3</title>
<path fill="#fecaca" stroke="#334155" d="M3130.76,-157C3130.76,-157 3326.84,-157 3326.84,-157 3332.84,-157 3338.84,-163 3338.84,-169 3338.84,-169 3338.84,-181 3338.84,-181 3338.84,-187 3332.84,-193 3326.84,-193 3326.84,-193 3130.76,-193 3130.76,-193 3124.76,-193 3118.76,-187 3118.76,-181 3118.76,-181 3118.76,-169 3118.76,-169 3118.76,-163 3124.76,-157 3130.76,-157"/>
<text xml:space="preserve" text-anchor="middle" x="3143.64" y="-170.95" font-family="Helvetica,sans-Serif" font-size="11.00">Ramp 3</text>
<polyline fill="none" stroke="#334155" points="3168.53,-157.8 3168.53,-193"/>
<text xml:space="preserve" text-anchor="middle" x="3182.91" y="-170.95" font-family="Helvetica,sans-Serif" font-size="11.00">30s</text>
<polyline fill="none" stroke="#334155" points="3197.3,-157.8 3197.3,-193"/>
<text xml:space="preserve" text-anchor="middle" x="3224.06" y="-170.95" font-family="Helvetica,sans-Serif" font-size="11.00">400 VUs</text>
<polyline fill="none" stroke="#334155" points="3250.82,-157.8 3250.82,-193"/>
<text xml:space="preserve" text-anchor="middle" x="3294.83" y="-170.95" font-family="Helvetica,sans-Serif" font-size="11.00">up to ~1600 req</text>
</g>
<!-- hold3 -->
<g id="node16" class="node">
<title>hold3</title>
<path fill="#fca5a5" stroke="#334155" d="M3383.84,-157C3383.84,-157 3572.42,-157 3572.42,-157 3578.42,-157 3584.42,-163 3584.42,-169 3584.42,-169 3584.42,-181 3584.42,-181 3584.42,-187 3578.42,-193 3572.42,-193 3572.42,-193 3383.84,-193 3383.84,-193 3377.84,-193 3371.84,-187 3371.84,-181 3371.84,-181 3371.84,-169 3371.84,-169 3371.84,-163 3377.84,-157 3383.84,-157"/>
<text xml:space="preserve" text-anchor="middle" x="3393.35" y="-170.95" font-family="Helvetica,sans-Serif" font-size="11.00">Hold 3</text>
<polyline fill="none" stroke="#334155" points="3414.86,-157.8 3414.86,-193"/>
<text xml:space="preserve" text-anchor="middle" x="3428.12" y="-170.95" font-family="Helvetica,sans-Serif" font-size="11.00">2m</text>
<polyline fill="none" stroke="#334155" points="3441.38,-157.8 3441.38,-193"/>
<text xml:space="preserve" text-anchor="middle" x="3468.14" y="-170.95" font-family="Helvetica,sans-Serif" font-size="11.00">400 VUs</text>
<polyline fill="none" stroke="#334155" points="3494.9,-157.8 3494.9,-193"/>
<text xml:space="preserve" text-anchor="middle" x="3539.66" y="-170.95" font-family="Helvetica,sans-Serif" font-size="11.00">~1600 req/wave</text>
</g>
<!-- down -->
<g id="node17" class="node">
<title>down</title>
<path fill="#e2e8f0" stroke="#334155" d="M3629.42,-157C3629.42,-157 3811.25,-157 3811.25,-157 3817.25,-157 3823.25,-163 3823.25,-169 3823.25,-169 3823.25,-181 3823.25,-181 3823.25,-187 3817.25,-193 3811.25,-193 3811.25,-193 3629.42,-193 3629.42,-193 3623.42,-193 3617.42,-187 3617.42,-181 3617.42,-181 3617.42,-169 3617.42,-169 3617.42,-163 3623.42,-157 3629.42,-157"/>
<text xml:space="preserve" text-anchor="middle" x="3652.43" y="-170.83" font-family="Helvetica,sans-Serif" font-size="11.00">Ramp down</text>
<polyline fill="none" stroke="#334155" points="3687.44,-157.55 3687.44,-193"/>
<text xml:space="preserve" text-anchor="middle" x="3709.32" y="-170.83" font-family="Helvetica,sans-Serif" font-size="11.00">2m30s</text>
<polyline fill="none" stroke="#334155" points="3731.21,-157.55 3731.21,-193"/>
<text xml:space="preserve" text-anchor="middle" x="3751.97" y="-170.83" font-family="Helvetica,sans-Serif" font-size="11.00">0 VUs</text>
<polyline fill="none" stroke="#334155" points="3772.73,-157.55 3772.73,-193"/>
<text xml:space="preserve" text-anchor="middle" x="3797.99" y="-171.95" font-family="Helvetica,sans-Serif" font-size="11.00">→ 0 req</text>
</g>
<!-- regional -->
<g id="node18" class="node">
<title>regional</title>
<path fill="#ecfdf5" stroke="#334155" d="M1266.1,-17C1266.1,-17 1473.15,-17 1473.15,-17 1479.15,-17 1485.15,-23 1485.15,-29 1485.15,-29 1485.15,-41 1485.15,-41 1485.15,-47 1479.15,-53 1473.15,-53 1473.15,-53 1266.1,-53 1266.1,-53 1260.1,-53 1254.1,-47 1254.1,-41 1254.1,-41 1254.1,-29 1254.1,-29 1254.1,-23 1260.1,-17 1266.1,-17"/>
<text xml:space="preserve" text-anchor="middle" x="1304.11" y="-30.95" font-family="Helvetica,sans-Serif" font-size="11.00">regional_shoppers</text>
<polyline fill="none" stroke="#334155" points="1354.12,-17.8 1354.12,-53"/>
<text xml:space="preserve" text-anchor="middle" x="1377.88" y="-30.95" font-family="Helvetica,sans-Serif" font-size="11.00">30 VUs</text>
<polyline fill="none" stroke="#334155" points="1401.63,-17.8 1401.63,-53"/>
<text xml:space="preserve" text-anchor="middle" x="1443.39" y="-30.95" font-family="Helvetica,sans-Serif" font-size="11.00">~120 req/wave</text>
</g>
<!-- browser_actions -->
<g id="node19" class="node">
<title>browser_actions</title>
<path fill="#faf5ff" stroke="#334155" d="M1158.47,-74C1158.47,-74 1580.78,-74 1580.78,-74 1586.78,-74 1592.78,-80 1592.78,-86 1592.78,-86 1592.78,-98 1592.78,-98 1592.78,-104 1586.78,-110 1580.78,-110 1580.78,-110 1158.47,-110 1158.47,-110 1152.47,-110 1146.47,-104 1146.47,-98 1146.47,-98 1146.47,-86 1146.47,-86 1146.47,-80 1152.47,-74 1158.47,-74"/>
<text xml:space="preserve" text-anchor="middle" x="1194.98" y="-87.95" font-family="Helvetica,sans-Serif" font-size="11.00">storefront_actions</text>
<polyline fill="none" stroke="#334155" points="1243.49,-74.8 1243.49,-110"/>
<text xml:space="preserve" text-anchor="middle" x="1305.12" y="-87.95" font-family="Helvetica,sans-Serif" font-size="11.00">60 browser VUs × 15m</text>
<polyline fill="none" stroke="#334155" points="1366.76,-74.8 1366.76,-110"/>
<text xml:space="preserve" text-anchor="middle" x="1479.77" y="-87.95" font-family="Helvetica,sans-Serif" font-size="11.00">browser requests vary; Faro actions targeted</text>
</g>
</g>
</svg>
