<?xml version="1.0" encoding="UTF-8" standalone="no"?>
<!DOCTYPE svg PUBLIC "-//W3C//DTD SVG 1.1//EN"
 "http://www.w3.org/Graphics/SVG/1.1/DTD/svg11.dtd">
<!-- Generated by graphviz version 15.0.0 (20260523.1842)
 -->
<!-- Title: traffic_spike_target_heatmap_dark Pages: 1 -->
<svg width="667pt" height="294pt"
 viewBox="0.00 0.00 667.00 294.00" xmlns="http://www.w3.org/2000/svg" xmlns:xlink="http://www.w3.org/1999/xlink">
<g id="graph0" class="graph" transform="scale(1 1) rotate(0) translate(4 289.5)">
<title>traffic_spike_target_heatmap_dark</title>
<polygon fill="#0b1220" stroke="none" points="-4,4 -4,-289.5 663,-289.5 663,4 -4,4"/>
<text xml:space="preserve" text-anchor="middle" x="329.5" y="-260.6" font-family="Helvetica,sans-Serif" font-size="22.00" fill="#f8fafc">Traffic Spike Test Targets</text>
<!-- target_heatmap -->
<g id="node1" class="node">
<title>target_heatmap</title>
<polygon fill="#1e3a5f" stroke="none" points="1,-223 1,-254 137,-254 137,-223 1,-223"/>
<polygon fill="none" stroke="#475569" points="1,-223 1,-254 137,-254 137,-223 1,-223"/>
<text xml:space="preserve" text-anchor="start" x="50.62" y="-233.7" font-family="Helvetica,sans-Serif" font-weight="bold" font-size="14.00" fill="#f8fafc">Stage</text>
<polygon fill="#1e3a5f" stroke="none" points="137,-223 137,-254 179.25,-254 179.25,-223 137,-223"/>
<polygon fill="none" stroke="#475569" points="137,-223 137,-254 179.25,-254 179.25,-223 137,-223"/>
<text xml:space="preserve" text-anchor="start" x="145" y="-233.7" font-family="Helvetica,sans-Serif" font-weight="bold" font-size="14.00" fill="#f8fafc">VUs</text>
<polygon fill="#1e3a5f" stroke="none" points="179.25,-223 179.25,-254 301,-254 301,-223 179.25,-223"/>
<polygon fill="none" stroke="#475569" points="179.25,-223 179.25,-254 301,-254 301,-223 179.25,-223"/>
<text xml:space="preserve" text-anchor="start" x="187.25" y="-233.7" font-family="Helvetica,sans-Serif" font-weight="bold" font-size="14.00" fill="#f8fafc">Requests / wave</text>
<polygon fill="#14532d" stroke="none" points="301,-223 301,-254 399.5,-254 399.5,-223 301,-223"/>
<polygon fill="none" stroke="#475569" points="301,-223 301,-254 399.5,-254 399.5,-223 301,-223"/>
<text xml:space="preserve" text-anchor="start" x="309" y="-233.7" font-family="Helvetica,sans-Serif" font-weight="bold" font-size="14.00" fill="#f8fafc">Cart updates</text>
<polygon fill="#713f12" stroke="none" points="399.5,-223 399.5,-254 537.75,-254 537.75,-223 399.5,-223"/>
<polygon fill="none" stroke="#475569" points="399.5,-223 399.5,-254 537.75,-254 537.75,-223 399.5,-223"/>
<text xml:space="preserve" text-anchor="start" x="407.5" y="-233.7" font-family="Helvetica,sans-Serif" font-weight="bold" font-size="14.00" fill="#f8fafc">Checkout attempts</text>
<polygon fill="#1e40af" stroke="none" points="537.75,-223 537.75,-254 658,-254 658,-223 537.75,-223"/>
<polygon fill="none" stroke="#475569" points="537.75,-223 537.75,-254 658,-254 658,-223 537.75,-223"/>
<text xml:space="preserve" text-anchor="start" x="545.75" y="-233.7" font-family="Helvetica,sans-Serif" font-weight="bold" font-size="14.00" fill="#f8fafc">Region changes</text>
<polygon fill="#111827" stroke="none" points="1,-192 1,-223 137,-223 137,-192 1,-192"/>
<polygon fill="none" stroke="#475569" points="1,-192 1,-223 137,-223 137,-192 1,-192"/>
<text xml:space="preserve" text-anchor="start" x="9" y="-203.75" font-family="Helvetica,sans-Serif" font-size="14.00" fill="#f8fafc">Warmup / Recovery</text>
<polygon fill="#111827" stroke="none" points="137,-192 137,-223 179.25,-223 179.25,-192 137,-192"/>
<polygon fill="none" stroke="#475569" points="137,-192 137,-223 179.25,-223 179.25,-192 137,-192"/>
<text xml:space="preserve" text-anchor="start" x="150.62" y="-202.7" font-family="Helvetica,sans-Serif" font-weight="bold" font-size="14.00" fill="#f8fafc">25</text>
<polygon fill="#334155" stroke="none" points="179.25,-192 179.25,-223 301,-223 301,-192 179.25,-192"/>
<polygon fill="none" stroke="#475569" points="179.25,-192 179.25,-223 301,-223 301,-192 179.25,-192"/>
<text xml:space="preserve" text-anchor="start" x="228.88" y="-203.75" font-family="Helvetica,sans-Serif" font-size="14.00" fill="#f8fafc">100</text>
<polygon fill="#166534" stroke="none" points="301,-192 301,-223 399.5,-223 399.5,-192 301,-192"/>
<polygon fill="none" stroke="#475569" points="301,-192 301,-223 399.5,-223 399.5,-192 301,-192"/>
<text xml:space="preserve" text-anchor="start" x="342.75" y="-203.75" font-family="Helvetica,sans-Serif" font-size="14.00" fill="#f8fafc">15</text>
<polygon fill="#854d0e" stroke="none" points="399.5,-192 399.5,-223 537.75,-223 537.75,-192 399.5,-192"/>
<polygon fill="none" stroke="#475569" points="399.5,-192 399.5,-223 537.75,-223 537.75,-192 399.5,-192"/>
<text xml:space="preserve" text-anchor="start" x="464.88" y="-203.75" font-family="Helvetica,sans-Serif" font-size="14.00" fill="#f8fafc">5</text>
<polygon fill="#1d4ed8" stroke="none" points="537.75,-192 537.75,-223 658,-223 658,-192 537.75,-192"/>
<polygon fill="none" stroke="#475569" points="537.75,-192 537.75,-223 658,-223 658,-192 537.75,-192"/>
<text xml:space="preserve" text-anchor="start" x="590.38" y="-203.75" font-family="Helvetica,sans-Serif" font-size="14.00" fill="#f8fafc">25</text>
<polygon fill="#111827" stroke="none" points="1,-161 1,-192 137,-192 137,-161 1,-161"/>
<polygon fill="none" stroke="#475569" points="1,-161 1,-192 137,-192 137,-161 1,-161"/>
<text xml:space="preserve" text-anchor="start" x="9" y="-172.75" font-family="Helvetica,sans-Serif" font-size="14.00" fill="#f8fafc">Spike 1</text>
<polygon fill="#111827" stroke="none" points="137,-161 137,-192 179.25,-192 179.25,-161 137,-161"/>
<polygon fill="none" stroke="#475569" points="137,-161 137,-192 179.25,-192 179.25,-161 137,-161"/>
<text xml:space="preserve" text-anchor="start" x="146.88" y="-171.7" font-family="Helvetica,sans-Serif" font-weight="bold" font-size="14.00" fill="#f8fafc">100</text>
<polygon fill="#2563eb" stroke="none" points="179.25,-161 179.25,-192 301,-192 301,-161 179.25,-161"/>
<polygon fill="none" stroke="#475569" points="179.25,-161 179.25,-192 301,-192 301,-161 179.25,-161"/>
<text xml:space="preserve" text-anchor="start" x="228.88" y="-171.7" font-family="Helvetica,sans-Serif" font-weight="bold" font-size="14.00" fill="#f8fafc">400</text>
<polygon fill="#15803d" stroke="none" points="301,-161 301,-192 399.5,-192 399.5,-161 301,-161"/>
<polygon fill="none" stroke="#475569" points="301,-161 301,-192 399.5,-192 399.5,-161 301,-161"/>
<text xml:space="preserve" text-anchor="start" x="342.75" y="-171.7" font-family="Helvetica,sans-Serif" font-weight="bold" font-size="14.00" fill="#f8fafc">60</text>
<polygon fill="#a16207" stroke="none" points="399.5,-161 399.5,-192 537.75,-192 537.75,-161 399.5,-161"/>
<polygon fill="none" stroke="#475569" points="399.5,-161 399.5,-192 537.75,-192 537.75,-161 399.5,-161"/>
<text xml:space="preserve" text-anchor="start" x="461.12" y="-171.7" font-family="Helvetica,sans-Serif" font-weight="bold" font-size="14.00" fill="#f8fafc">20</text>
<polygon fill="#2563eb" stroke="none" points="537.75,-161 537.75,-192 658,-192 658,-161 537.75,-161"/>
<polygon fill="none" stroke="#475569" points="537.75,-161 537.75,-192 658,-192 658,-161 537.75,-161"/>
<text xml:space="preserve" text-anchor="start" x="586.62" y="-171.7" font-family="Helvetica,sans-Serif" font-weight="bold" font-size="14.00" fill="#f8fafc">100</text>
<polygon fill="#111827" stroke="none" points="1,-130 1,-161 137,-161 137,-130 1,-130"/>
<polygon fill="none" stroke="#475569" points="1,-130 1,-161 137,-161 137,-130 1,-130"/>
<text xml:space="preserve" text-anchor="start" x="9" y="-141.75" font-family="Helvetica,sans-Serif" font-size="14.00" fill="#f8fafc">Spike 2</text>
<polygon fill="#111827" stroke="none" points="137,-130 137,-161 179.25,-161 179.25,-130 137,-130"/>
<polygon fill="none" stroke="#475569" points="137,-130 137,-161 179.25,-161 179.25,-130 137,-130"/>
<text xml:space="preserve" text-anchor="start" x="146.88" y="-140.7" font-family="Helvetica,sans-Serif" font-weight="bold" font-size="14.00" fill="#f8fafc">200</text>
<polygon fill="#1e40af" stroke="none" points="179.25,-130 179.25,-161 301,-161 301,-130 179.25,-130"/>
<polygon fill="none" stroke="#475569" points="179.25,-130 179.25,-161 301,-161 301,-130 179.25,-130"/>
<text xml:space="preserve" text-anchor="start" x="228.88" y="-140.7" font-family="Helvetica,sans-Serif" font-weight="bold" font-size="14.00" fill="#f8fafc">800</text>
<polygon fill="#15803d" stroke="none" points="301,-130 301,-161 399.5,-161 399.5,-130 301,-130"/>
<polygon fill="none" stroke="#475569" points="301,-130 301,-161 399.5,-161 399.5,-130 301,-130"/>
<text xml:space="preserve" text-anchor="start" x="339" y="-140.7" font-family="Helvetica,sans-Serif" font-weight="bold" font-size="14.00" fill="#f8fafc">120</text>
<polygon fill="#92400e" stroke="none" points="399.5,-130 399.5,-161 537.75,-161 537.75,-130 399.5,-130"/>
<polygon fill="none" stroke="#475569" points="399.5,-130 399.5,-161 537.75,-161 537.75,-130 399.5,-130"/>
<text xml:space="preserve" text-anchor="start" x="461.12" y="-140.7" font-family="Helvetica,sans-Serif" font-weight="bold" font-size="14.00" fill="#f8fafc">40</text>
<polygon fill="#1e40af" stroke="none" points="537.75,-130 537.75,-161 658,-161 658,-130 537.75,-130"/>
<polygon fill="none" stroke="#475569" points="537.75,-130 537.75,-161 658,-161 658,-130 537.75,-130"/>
<text xml:space="preserve" text-anchor="start" x="586.62" y="-140.7" font-family="Helvetica,sans-Serif" font-weight="bold" font-size="14.00" fill="#f8fafc">200</text>
<polygon fill="#111827" stroke="none" points="1,-99 1,-130 137,-130 137,-99 1,-99"/>
<polygon fill="none" stroke="#475569" points="1,-99 1,-130 137,-130 137,-99 1,-99"/>
<text xml:space="preserve" text-anchor="start" x="9" y="-110.75" font-family="Helvetica,sans-Serif" font-size="14.00" fill="#f8fafc">Spike 3</text>
<polygon fill="#111827" stroke="none" points="137,-99 137,-130 179.25,-130 179.25,-99 137,-99"/>
<polygon fill="none" stroke="#475569" points="137,-99 137,-130 179.25,-130 179.25,-99 137,-99"/>
<text xml:space="preserve" text-anchor="start" x="146.88" y="-109.7" font-family="Helvetica,sans-Serif" font-weight="bold" font-size="14.00" fill="#f8fafc">400</text>
<polygon fill="#1e3a8a" stroke="none" points="179.25,-99 179.25,-130 301,-130 301,-99 179.25,-99"/>
<polygon fill="none" stroke="#475569" points="179.25,-99 179.25,-130 301,-130 301,-99 179.25,-99"/>
<text xml:space="preserve" text-anchor="start" x="225.12" y="-109.7" font-family="Helvetica,sans-Serif" font-weight="bold" font-size="14.00" fill="#f8fafc">1600</text>
<polygon fill="#166534" stroke="none" points="301,-99 301,-130 399.5,-130 399.5,-99 301,-99"/>
<polygon fill="none" stroke="#475569" points="301,-99 301,-130 399.5,-130 399.5,-99 301,-99"/>
<text xml:space="preserve" text-anchor="start" x="339" y="-109.7" font-family="Helvetica,sans-Serif" font-weight="bold" font-size="14.00" fill="#f8fafc">240</text>
<polygon fill="#713f12" stroke="none" points="399.5,-99 399.5,-130 537.75,-130 537.75,-99 399.5,-99"/>
<polygon fill="none" stroke="#475569" points="399.5,-99 399.5,-130 537.75,-130 537.75,-99 399.5,-99"/>
<text xml:space="preserve" text-anchor="start" x="461.12" y="-109.7" font-family="Helvetica,sans-Serif" font-weight="bold" font-size="14.00" fill="#f8fafc">80</text>
<polygon fill="#1e3a8a" stroke="none" points="537.75,-99 537.75,-130 658,-130 658,-99 537.75,-99"/>
<polygon fill="none" stroke="#475569" points="537.75,-99 537.75,-130 658,-130 658,-99 537.75,-99"/>
<text xml:space="preserve" text-anchor="start" x="586.62" y="-109.7" font-family="Helvetica,sans-Serif" font-weight="bold" font-size="14.00" fill="#f8fafc">400</text>
<polygon fill="none" stroke="#475569" points="0,-98 0,-255 659,-255 659,-98 0,-98"/>
</g>
<!-- target_note -->
<g id="node2" class="node">
<title>target_note</title>
<text xml:space="preserve" text-anchor="start" x="36.62" y="-52.7" font-family="Helvetica,sans-Serif" font-weight="bold" font-size="14.00" fill="#f8fafc">Readout:</text>
<text xml:space="preserve" text-anchor="start" x="95.12" y="-52.7" font-family="Helvetica,sans-Serif" font-size="14.00" fill="#f8fafc"> brighter cells mean more target pressure per completed wave.</text>
<text xml:space="preserve" text-anchor="start" x="36.62" y="-30.75" font-family="Helvetica,sans-Serif" font-size="14.00" fill="#f8fafc">Current config: BASE_SPIKE_USERS=100, SPIKE_MULTIPLIER=2, regional_shoppers=30 VUs.</text>
<text xml:space="preserve" text-anchor="start" x="36.62" y="-7.75" font-family="Helvetica,sans-Serif" font-size="14.00" fill="#f8fafc">storefront_actions=60 browser VUs for 10m.</text>
</g>
<!-- target_heatmap&#45;&gt;target_note -->
</g>
</svg>
