<?xml version="1.0" encoding="UTF-8" standalone="no"?>
<!DOCTYPE svg PUBLIC "-//W3C//DTD SVG 1.1//EN"
 "http://www.w3.org/Graphics/SVG/1.1/DTD/svg11.dtd">
<!-- Generated by graphviz version 15.0.0 (20260523.1842)
 -->
<!-- Title: traffic_spike Pages: 1 -->
<svg width="1035pt" height="89pt"
 viewBox="0.00 0.00 1035.00 89.00" xmlns="http://www.w3.org/2000/svg" xmlns:xlink="http://www.w3.org/1999/xlink">
<g id="graph0" class="graph" transform="scale(1 1) rotate(0) translate(4 85.32)">
<title>traffic_spike</title>
<polygon fill="white" stroke="none" points="-4,4 -4,-85.32 1030.7,-85.32 1030.7,4 -4,4"/>
<!-- warmup -->
<g id="node1" class="node">
<title>warmup</title>
<ellipse fill="none" stroke="black" cx="45.25" cy="-40.66" rx="45.25" ry="28.99"/>
<text xml:space="preserve" text-anchor="middle" x="45.25" y="-43.86" font-family="Times,serif" font-size="14.00">Warmup</text>
<text xml:space="preserve" text-anchor="middle" x="45.25" y="-27.36" font-family="Times,serif" font-size="14.00">25 VUs</text>
</g>
<!-- spike1 -->
<g id="node2" class="node">
<title>spike1</title>
<ellipse fill="none" stroke="black" cx="195.1" cy="-40.66" rx="68.59" ry="40.66"/>
<text xml:space="preserve" text-anchor="middle" x="195.1" y="-52.11" font-family="Times,serif" font-size="14.00">Spike 1</text>
<text xml:space="preserve" text-anchor="middle" x="195.1" y="-35.61" font-family="Times,serif" font-size="14.00">100 VUs</text>
<text xml:space="preserve" text-anchor="middle" x="195.1" y="-19.11" font-family="Times,serif" font-size="14.00">~400 req/wave</text>
</g>
<!-- warmup&#45;&gt;spike1 -->
<g id="edge1" class="edge">
<title>warmup&#45;&gt;spike1</title>
<path fill="none" stroke="black" d="M90.61,-40.66C98.33,-40.66 106.57,-40.66 114.89,-40.66"/>
<polygon fill="black" stroke="black" points="114.74,-44.16 124.74,-40.66 114.74,-37.16 114.74,-44.16"/>
</g>
<!-- recovery1 -->
<g id="node3" class="node">
<title>recovery1</title>
<ellipse fill="none" stroke="black" cx="347.59" cy="-40.66" rx="47.91" ry="28.99"/>
<text xml:space="preserve" text-anchor="middle" x="347.59" y="-43.86" font-family="Times,serif" font-size="14.00">Recovery</text>
<text xml:space="preserve" text-anchor="middle" x="347.59" y="-27.36" font-family="Times,serif" font-size="14.00">25 VUs</text>
</g>
<!-- spike1&#45;&gt;recovery1 -->
<g id="edge2" class="edge">
<title>spike1&#45;&gt;recovery1</title>
<path fill="none" stroke="black" d="M263.86,-40.66C271.94,-40.66 280.12,-40.66 288.05,-40.66"/>
<polygon fill="black" stroke="black" points="287.92,-44.16 297.92,-40.66 287.92,-37.16 287.92,-44.16"/>
</g>
<!-- spike2 -->
<g id="node4" class="node">
<title>spike2</title>
<ellipse fill="none" stroke="black" cx="500.09" cy="-40.66" rx="68.59" ry="40.66"/>
<text xml:space="preserve" text-anchor="middle" x="500.09" y="-52.11" font-family="Times,serif" font-size="14.00">Spike 2</text>
<text xml:space="preserve" text-anchor="middle" x="500.09" y="-35.61" font-family="Times,serif" font-size="14.00">150 VUs</text>
<text xml:space="preserve" text-anchor="middle" x="500.09" y="-19.11" font-family="Times,serif" font-size="14.00">~600 req/wave</text>
</g>
<!-- recovery1&#45;&gt;spike2 -->
<g id="edge3" class="edge">
<title>recovery1&#45;&gt;spike2</title>
<path fill="none" stroke="black" d="M395.8,-40.66C403.42,-40.66 411.48,-40.66 419.61,-40.66"/>
<polygon fill="black" stroke="black" points="419.6,-44.16 429.6,-40.66 419.6,-37.16 419.6,-44.16"/>
</g>
<!-- recovery2 -->
<g id="node5" class="node">
<title>recovery2</title>
<ellipse fill="none" stroke="black" cx="652.59" cy="-40.66" rx="47.91" ry="28.99"/>
<text xml:space="preserve" text-anchor="middle" x="652.59" y="-43.86" font-family="Times,serif" font-size="14.00">Recovery</text>
<text xml:space="preserve" text-anchor="middle" x="652.59" y="-27.36" font-family="Times,serif" font-size="14.00">25 VUs</text>
</g>
<!-- spike2&#45;&gt;recovery2 -->
<g id="edge4" class="edge">
<title>spike2&#45;&gt;recovery2</title>
<path fill="none" stroke="black" d="M568.85,-40.66C576.93,-40.66 585.12,-40.66 593.04,-40.66"/>
<polygon fill="black" stroke="black" points="592.91,-44.16 602.91,-40.66 592.91,-37.16 592.91,-44.16"/>
</g>
<!-- spike3 -->
<g id="node6" class="node">
<title>spike3</title>
<ellipse fill="none" stroke="black" cx="805.08" cy="-40.66" rx="68.59" ry="40.66"/>
<text xml:space="preserve" text-anchor="middle" x="805.08" y="-52.11" font-family="Times,serif" font-size="14.00">Spike 3</text>
<text xml:space="preserve" text-anchor="middle" x="805.08" y="-35.61" font-family="Times,serif" font-size="14.00">225 VUs</text>
<text xml:space="preserve" text-anchor="middle" x="805.08" y="-19.11" font-family="Times,serif" font-size="14.00">~900 req/wave</text>
</g>
<!-- recovery2&#45;&gt;spike3 -->
<g id="edge5" class="edge">
<title>recovery2&#45;&gt;spike3</title>
<path fill="none" stroke="black" d="M700.79,-40.66C708.41,-40.66 716.47,-40.66 724.6,-40.66"/>
<polygon fill="black" stroke="black" points="724.59,-44.16 734.59,-40.66 724.59,-37.16 724.59,-44.16"/>
</g>
<!-- rampdown -->
<g id="node7" class="node">
<title>rampdown</title>
<ellipse fill="none" stroke="black" cx="968.18" cy="-40.66" rx="58.51" ry="28.99"/>
<text xml:space="preserve" text-anchor="middle" x="968.18" y="-43.86" font-family="Times,serif" font-size="14.00">Ramp down</text>
<text xml:space="preserve" text-anchor="middle" x="968.18" y="-27.36" font-family="Times,serif" font-size="14.00">0 VUs</text>
</g>
<!-- spike3&#45;&gt;rampdown -->
<g id="edge6" class="edge">
<title>spike3&#45;&gt;rampdown</title>
<path fill="none" stroke="black" d="M873.94,-40.66C881.85,-40.66 889.94,-40.66 897.87,-40.66"/>
<polygon fill="black" stroke="black" points="897.84,-44.16 907.84,-40.66 897.84,-37.16 897.84,-44.16"/>
</g>
</g>
</svg>
