<?xml version="1.0" encoding="UTF-8" standalone="no"?>
<!DOCTYPE svg PUBLIC "-//W3C//DTD SVG 1.1//EN"
 "http://www.w3.org/Graphics/SVG/1.1/DTD/svg11.dtd">
<!-- Generated by graphviz version 15.0.0 (20260523.1842)
 -->
<!-- Title: traffic_spike_request_model Pages: 1 -->
<svg width="3391pt" height="394pt"
 viewBox="0.00 0.00 3391.00 394.00" xmlns="http://www.w3.org/2000/svg" xmlns:xlink="http://www.w3.org/1999/xlink">
<g id="graph0" class="graph" transform="scale(1 1) rotate(0) translate(4 389.5)">
<title>traffic_spike_request_model</title>
<polygon fill="white" stroke="none" points="-4,4 -4,-389.5 3387.25,-389.5 3387.25,4 -4,4"/>
<text xml:space="preserve" text-anchor="middle" x="1691.62" y="-360.6" font-family="Helvetica,sans-Serif" font-size="22.00">Traffic Spike Request and Counter Model</text>
<g id="clust1" class="cluster">
<title>cluster_personas</title>
<path fill="none" stroke="#cbd5e1" stroke-dasharray="5,2" d="M20,-8C20,-8 855,-8 855,-8 861,-8 867,-14 867,-20 867,-20 867,-108 867,-108 867,-114 861,-120 855,-120 855,-120 20,-120 20,-120 14,-120 8,-114 8,-108 8,-108 8,-20 8,-20 8,-14 14,-8 20,-8"/>
<text xml:space="preserve" text-anchor="middle" x="437.5" y="-100.8" font-family="Helvetica,sans-Serif" font-size="16.00">traffic_spikes persona mix</text>
</g>
<g id="clust2" class="cluster">
<title>cluster_stages</title>
<path fill="none" stroke="#cbd5e1" stroke-dasharray="5,2" d="M1507.62,-222C1507.62,-222 3363.25,-222 3363.25,-222 3369.25,-222 3375.25,-228 3375.25,-234 3375.25,-234 3375.25,-335 3375.25,-335 3375.25,-341 3369.25,-347 3363.25,-347 3363.25,-347 1507.62,-347 1507.62,-347 1501.62,-347 1495.62,-341 1495.62,-335 1495.62,-335 1495.62,-234 1495.62,-234 1495.62,-228 1501.62,-222 1507.62,-222"/>
<text xml:space="preserve" text-anchor="middle" x="2435.44" y="-327.8" font-family="Helvetica,sans-Serif" font-size="16.00">Current k6 stages from grafana&#45;cloud&#45;traffic&#45;spikes.js</text>
</g>
<g id="clust3" class="cluster">
<title>cluster_parallel</title>
<path fill="none" stroke="#cbd5e1" stroke-dasharray="5,2" d="M1437,-36C1437,-36 1693,-36 1693,-36 1699,-36 1705,-42 1705,-48 1705,-48 1705,-202 1705,-202 1705,-208 1699,-214 1693,-214 1693,-214 1437,-214 1437,-214 1431,-214 1425,-208 1425,-202 1425,-202 1425,-48 1425,-48 1425,-42 1431,-36 1437,-36"/>
<text xml:space="preserve" text-anchor="middle" x="1565" y="-194.8" font-family="Helvetica,sans-Serif" font-size="16.00">Parallel scenarios in combined script</text>
</g>
<!-- note -->
<g id="node1" class="node">
<title>note</title>
<polygon fill="#fff7ed" stroke="#f97316" points="968.5,-174.12 615,-174.12 615,-127.88 974.5,-127.88 974.5,-168.12 968.5,-174.12"/>
<polyline fill="none" stroke="#f97316" points="968.5,-174.12 968.5,-168.12"/>
<polyline fill="none" stroke="#f97316" points="974.5,-168.12 968.5,-168.12"/>
<text xml:space="preserve" text-anchor="middle" x="794.75" y="-158.72" font-family="Helvetica,sans-Serif" font-size="12.00">ramping&#45;vus loops each active VU.</text>
<text xml:space="preserve" text-anchor="middle" x="794.75" y="-145.97" font-family="Helvetica,sans-Serif" font-size="12.00">Counts below are per completed VU wave.</text>
<text xml:space="preserve" text-anchor="middle" x="794.75" y="-133.22" font-family="Helvetica,sans-Serif" font-size="12.00">Actual totals depend on latency, sleeps, and iteration completion.</text>
</g>
<!-- avg -->
<g id="node2" class="node">
<title>avg</title>
<polygon fill="#ecfeff" stroke="#0891b2" points="1289,-136 1109.5,-136 1109.5,-132 1105.5,-132 1105.5,-128 1109.5,-128 1109.5,-108 1105.5,-108 1105.5,-104 1109.5,-104 1109.5,-100 1289,-100 1289,-136"/>
<polyline fill="none" stroke="#0891b2" points="1109.5,-132 1113.5,-132 1113.5,-128 1109.5,-128"/>
<polyline fill="none" stroke="#0891b2" points="1109.5,-108 1113.5,-108 1113.5,-104 1109.5,-104"/>
<text xml:space="preserve" text-anchor="middle" x="1199.25" y="-119.35" font-family="Helvetica,sans-Serif" font-size="12.00">Average traffic_spikes iteration</text>
<text xml:space="preserve" text-anchor="middle" x="1199.25" y="-106.6" font-family="Helvetica,sans-Serif" font-size="12.00">4 requests / VU wave</text>
</g>
<!-- note&#45;&gt;avg -->
<g id="edge14" class="edge">
<title>note&#45;&gt;avg</title>
<path fill="none" stroke="#475569" d="M974.93,-136.31C1017.77,-132.8 1061.96,-129.17 1099.61,-126.09"/>
<polygon fill="#475569" stroke="#475569" points="1099.78,-128.88 1107.53,-125.44 1099.32,-123.3 1099.78,-128.88"/>
</g>
<!-- warmup -->
<g id="node8" class="node">
<title>warmup</title>
<path fill="#f1f5f9" stroke="#334155" d="M1613.38,-314.25C1613.38,-314.25 1515.62,-314.25 1515.62,-314.25 1509.62,-314.25 1503.62,-308.25 1503.62,-302.25 1503.62,-302.25 1503.62,-241.75 1503.62,-241.75 1503.62,-235.75 1509.62,-229.75 1515.62,-229.75 1515.62,-229.75 1613.38,-229.75 1613.38,-229.75 1619.38,-229.75 1625.38,-235.75 1625.38,-241.75 1625.38,-241.75 1625.38,-302.25 1625.38,-302.25 1625.38,-308.25 1619.38,-314.25 1613.38,-314.25"/>
<text xml:space="preserve" text-anchor="middle" x="1564.5" y="-298.85" font-family="Helvetica,sans-Serif" font-size="12.00">Warmup</text>
<text xml:space="preserve" text-anchor="middle" x="1564.5" y="-286.1" font-family="Helvetica,sans-Serif" font-size="12.00">2m, 25 VUs</text>
<text xml:space="preserve" text-anchor="middle" x="1564.5" y="-273.35" font-family="Helvetica,sans-Serif" font-size="12.00">~100 requests</text>
<text xml:space="preserve" text-anchor="middle" x="1564.5" y="-260.6" font-family="Helvetica,sans-Serif" font-size="12.00">15 cart updates</text>
<text xml:space="preserve" text-anchor="middle" x="1564.5" y="-247.85" font-family="Helvetica,sans-Serif" font-size="12.00">5 checkout attempts</text>
<text xml:space="preserve" text-anchor="middle" x="1564.5" y="-235.1" font-family="Helvetica,sans-Serif" font-size="12.00">25 region changes</text>
</g>
<!-- avg&#45;&gt;warmup -->
<g id="edge15" class="edge">
<title>avg&#45;&gt;warmup</title>
<path fill="none" stroke="#475569" d="M1237.59,-136.49C1281.83,-158.12 1357.99,-194.46 1425,-222 1447.44,-231.22 1472.28,-240.48 1494.65,-248.48"/>
<polygon fill="#475569" stroke="#475569" points="1493.51,-251.04 1501.99,-251.08 1495.39,-245.77 1493.51,-251.04"/>
<text xml:space="preserve" text-anchor="middle" x="1361" y="-213.16" font-family="Helvetica,sans-Serif" font-size="11.00">stage estimates</text>
</g>
<!-- regional -->
<g id="node18" class="node">
<title>regional</title>
<path fill="#ecfdf5" stroke="#334155" d="M1673,-90.12C1673,-90.12 1456,-90.12 1456,-90.12 1450,-90.12 1444,-84.12 1444,-78.12 1444,-78.12 1444,-55.88 1444,-55.88 1444,-49.88 1450,-43.88 1456,-43.88 1456,-43.88 1673,-43.88 1673,-43.88 1679,-43.88 1685,-49.88 1685,-55.88 1685,-55.88 1685,-78.12 1685,-78.12 1685,-84.12 1679,-90.12 1673,-90.12"/>
<text xml:space="preserve" text-anchor="middle" x="1564.5" y="-74.72" font-family="Helvetica,sans-Serif" font-size="12.00">regional_shoppers</text>
<text xml:space="preserve" text-anchor="middle" x="1564.5" y="-61.98" font-family="Helvetica,sans-Serif" font-size="12.00">30 VUs for TEST_DURATION/default 15m</text>
<text xml:space="preserve" text-anchor="middle" x="1564.5" y="-49.23" font-family="Helvetica,sans-Serif" font-size="12.00">~120 requests per completed wave</text>
</g>
<!-- avg&#45;&gt;regional -->
<g id="edge16" class="edge">
<title>avg&#45;&gt;regional</title>
<path fill="none" stroke="#475569" d="M1289.11,-105.52C1332.82,-99.39 1386.32,-91.88 1434.44,-85.12"/>
<polygon fill="#475569" stroke="#475569" points="1434.64,-87.92 1442.17,-84.03 1433.86,-82.37 1434.64,-87.92"/>
<text xml:space="preserve" text-anchor="middle" x="1361" y="-103.05" font-family="Helvetica,sans-Serif" font-size="11.00">parallel HTTP load</text>
</g>
<!-- browser -->
<g id="node3" class="node">
<title>browser</title>
<path fill="#eef2ff" stroke="#334155" d="M75.5,-75.12C75.5,-75.12 28,-75.12 28,-75.12 22,-75.12 16,-69.12 16,-63.12 16,-63.12 16,-40.88 16,-40.88 16,-34.88 22,-28.88 28,-28.88 28,-28.88 75.5,-28.88 75.5,-28.88 81.5,-28.88 87.5,-34.88 87.5,-40.88 87.5,-40.88 87.5,-63.12 87.5,-63.12 87.5,-69.12 81.5,-75.12 75.5,-75.12"/>
<text xml:space="preserve" text-anchor="middle" x="51.75" y="-59.73" font-family="Helvetica,sans-Serif" font-size="12.00">browser</text>
<text xml:space="preserve" text-anchor="middle" x="51.75" y="-46.98" font-family="Helvetica,sans-Serif" font-size="12.00">3 requests</text>
<text xml:space="preserve" text-anchor="middle" x="51.75" y="-34.23" font-family="Helvetica,sans-Serif" font-size="12.00">region +1</text>
</g>
<!-- cart_builder -->
<g id="node4" class="node">
<title>cart_builder</title>
<path fill="#f0fdf4" stroke="#334155" d="M228.25,-81.5C228.25,-81.5 154.5,-81.5 154.5,-81.5 148.5,-81.5 142.5,-75.5 142.5,-69.5 142.5,-69.5 142.5,-34.5 142.5,-34.5 142.5,-28.5 148.5,-22.5 154.5,-22.5 154.5,-22.5 228.25,-22.5 228.25,-22.5 234.25,-22.5 240.25,-28.5 240.25,-34.5 240.25,-34.5 240.25,-69.5 240.25,-69.5 240.25,-75.5 234.25,-81.5 228.25,-81.5"/>
<text xml:space="preserve" text-anchor="middle" x="191.38" y="-66.1" font-family="Helvetica,sans-Serif" font-size="12.00">cart_builder</text>
<text xml:space="preserve" text-anchor="middle" x="191.38" y="-53.35" font-family="Helvetica,sans-Serif" font-size="12.00">4 requests</text>
<text xml:space="preserve" text-anchor="middle" x="191.38" y="-40.6" font-family="Helvetica,sans-Serif" font-size="12.00">region +1</text>
<text xml:space="preserve" text-anchor="middle" x="191.38" y="-27.85" font-family="Helvetica,sans-Serif" font-size="12.00">cart updates +1</text>
</g>
<!-- browser&#45;&gt;cart_builder -->
<!-- account_manager -->
<g id="node5" class="node">
<title>account_manager</title>
<path fill="#f8fafc" stroke="#334155" d="M395.25,-75.12C395.25,-75.12 307.25,-75.12 307.25,-75.12 301.25,-75.12 295.25,-69.12 295.25,-63.12 295.25,-63.12 295.25,-40.88 295.25,-40.88 295.25,-34.88 301.25,-28.88 307.25,-28.88 307.25,-28.88 395.25,-28.88 395.25,-28.88 401.25,-28.88 407.25,-34.88 407.25,-40.88 407.25,-40.88 407.25,-63.12 407.25,-63.12 407.25,-69.12 401.25,-75.12 395.25,-75.12"/>
<text xml:space="preserve" text-anchor="middle" x="351.25" y="-59.73" font-family="Helvetica,sans-Serif" font-size="12.00">account_manager</text>
<text xml:space="preserve" text-anchor="middle" x="351.25" y="-46.98" font-family="Helvetica,sans-Serif" font-size="12.00">4 requests</text>
<text xml:space="preserve" text-anchor="middle" x="351.25" y="-34.23" font-family="Helvetica,sans-Serif" font-size="12.00">region +1</text>
</g>
<!-- cart_builder&#45;&gt;account_manager -->
<!-- sale_hunter -->
<g id="node6" class="node">
<title>sale_hunter</title>
<path fill="#fefce8" stroke="#334155" d="M548,-81.5C548,-81.5 474.25,-81.5 474.25,-81.5 468.25,-81.5 462.25,-75.5 462.25,-69.5 462.25,-69.5 462.25,-34.5 462.25,-34.5 462.25,-28.5 468.25,-22.5 474.25,-22.5 474.25,-22.5 548,-22.5 548,-22.5 554,-22.5 560,-28.5 560,-34.5 560,-34.5 560,-69.5 560,-69.5 560,-75.5 554,-81.5 548,-81.5"/>
<text xml:space="preserve" text-anchor="middle" x="511.12" y="-66.1" font-family="Helvetica,sans-Serif" font-size="12.00">sale_hunter</text>
<text xml:space="preserve" text-anchor="middle" x="511.12" y="-53.35" font-family="Helvetica,sans-Serif" font-size="12.00">4 requests</text>
<text xml:space="preserve" text-anchor="middle" x="511.12" y="-40.6" font-family="Helvetica,sans-Serif" font-size="12.00">region +1</text>
<text xml:space="preserve" text-anchor="middle" x="511.12" y="-27.85" font-family="Helvetica,sans-Serif" font-size="12.00">cart updates +1</text>
</g>
<!-- account_manager&#45;&gt;sale_hunter -->
<!-- checkout -->
<g id="node7" class="node">
<title>checkout</title>
<path fill="#fef2f2" stroke="#334155" d="M847,-87.88C847,-87.88 742.5,-87.88 742.5,-87.88 736.5,-87.88 730.5,-81.88 730.5,-75.88 730.5,-75.88 730.5,-28.12 730.5,-28.12 730.5,-22.12 736.5,-16.12 742.5,-16.12 742.5,-16.12 847,-16.12 847,-16.12 853,-16.12 859,-22.12 859,-28.12 859,-28.12 859,-75.88 859,-75.88 859,-81.88 853,-87.88 847,-87.88"/>
<text xml:space="preserve" text-anchor="middle" x="794.75" y="-72.47" font-family="Helvetica,sans-Serif" font-size="12.00">checkout</text>
<text xml:space="preserve" text-anchor="middle" x="794.75" y="-59.73" font-family="Helvetica,sans-Serif" font-size="12.00">5 requests</text>
<text xml:space="preserve" text-anchor="middle" x="794.75" y="-46.98" font-family="Helvetica,sans-Serif" font-size="12.00">region +1</text>
<text xml:space="preserve" text-anchor="middle" x="794.75" y="-34.23" font-family="Helvetica,sans-Serif" font-size="12.00">cart updates +1</text>
<text xml:space="preserve" text-anchor="middle" x="794.75" y="-21.48" font-family="Helvetica,sans-Serif" font-size="12.00">checkout attempts +1</text>
</g>
<!-- sale_hunter&#45;&gt;checkout -->
<!-- checkout&#45;&gt;avg -->
<g id="edge17" class="edge">
<title>checkout&#45;&gt;avg</title>
<path fill="none" stroke="#475569" d="M859.08,-62.39C923.76,-72.99 1025.04,-89.6 1100.11,-101.91"/>
<polygon fill="#475569" stroke="#475569" points="1099.28,-104.61 1107.63,-103.14 1100.19,-99.08 1099.28,-104.61"/>
<text xml:space="preserve" text-anchor="middle" x="1042" y="-100.05" font-family="Helvetica,sans-Serif" font-size="11.00">persona average</text>
</g>
<!-- ramp1 -->
<g id="node9" class="node">
<title>ramp1</title>
<path fill="#dbeafe" stroke="#334155" d="M1868.5,-314.25C1868.5,-314.25 1764,-314.25 1764,-314.25 1758,-314.25 1752,-308.25 1752,-302.25 1752,-302.25 1752,-241.75 1752,-241.75 1752,-235.75 1758,-229.75 1764,-229.75 1764,-229.75 1868.5,-229.75 1868.5,-229.75 1874.5,-229.75 1880.5,-235.75 1880.5,-241.75 1880.5,-241.75 1880.5,-302.25 1880.5,-302.25 1880.5,-308.25 1874.5,-314.25 1868.5,-314.25"/>
<text xml:space="preserve" text-anchor="middle" x="1816.25" y="-298.85" font-family="Helvetica,sans-Serif" font-size="12.00">Ramp to Spike 1</text>
<text xml:space="preserve" text-anchor="middle" x="1816.25" y="-286.1" font-family="Helvetica,sans-Serif" font-size="12.00">30s, 100 VUs</text>
<text xml:space="preserve" text-anchor="middle" x="1816.25" y="-273.35" font-family="Helvetica,sans-Serif" font-size="12.00">up to ~400 requests</text>
<text xml:space="preserve" text-anchor="middle" x="1816.25" y="-260.6" font-family="Helvetica,sans-Serif" font-size="12.00">60 cart updates</text>
<text xml:space="preserve" text-anchor="middle" x="1816.25" y="-247.85" font-family="Helvetica,sans-Serif" font-size="12.00">20 checkout attempts</text>
<text xml:space="preserve" text-anchor="middle" x="1816.25" y="-235.1" font-family="Helvetica,sans-Serif" font-size="12.00">100 region changes</text>
</g>
<!-- warmup&#45;&gt;ramp1 -->
<g id="edge5" class="edge">
<title>warmup&#45;&gt;ramp1</title>
<path fill="none" stroke="#475569" d="M1625.64,-272C1660.77,-272 1705.34,-272 1742.45,-272"/>
<polygon fill="#475569" stroke="#475569" points="1742.19,-274.8 1750.19,-272 1742.19,-269.2 1742.19,-274.8"/>
</g>
<!-- hold1 -->
<g id="node10" class="node">
<title>hold1</title>
<path fill="#bfdbfe" stroke="#334155" d="M2052.75,-314.25C2052.75,-314.25 1947.5,-314.25 1947.5,-314.25 1941.5,-314.25 1935.5,-308.25 1935.5,-302.25 1935.5,-302.25 1935.5,-241.75 1935.5,-241.75 1935.5,-235.75 1941.5,-229.75 1947.5,-229.75 1947.5,-229.75 2052.75,-229.75 2052.75,-229.75 2058.75,-229.75 2064.75,-235.75 2064.75,-241.75 2064.75,-241.75 2064.75,-302.25 2064.75,-302.25 2064.75,-308.25 2058.75,-314.25 2052.75,-314.25"/>
<text xml:space="preserve" text-anchor="middle" x="2000.12" y="-298.85" font-family="Helvetica,sans-Serif" font-size="12.00">Hold Spike 1</text>
<text xml:space="preserve" text-anchor="middle" x="2000.12" y="-286.1" font-family="Helvetica,sans-Serif" font-size="12.00">2m, 100 VUs</text>
<text xml:space="preserve" text-anchor="middle" x="2000.12" y="-273.35" font-family="Helvetica,sans-Serif" font-size="12.00">~400 requests / wave</text>
<text xml:space="preserve" text-anchor="middle" x="2000.12" y="-260.6" font-family="Helvetica,sans-Serif" font-size="12.00">60 cart updates</text>
<text xml:space="preserve" text-anchor="middle" x="2000.12" y="-247.85" font-family="Helvetica,sans-Serif" font-size="12.00">20 checkout attempts</text>
<text xml:space="preserve" text-anchor="middle" x="2000.12" y="-235.1" font-family="Helvetica,sans-Serif" font-size="12.00">100 region changes</text>
</g>
<!-- ramp1&#45;&gt;hold1 -->
<g id="edge6" class="edge">
<title>ramp1&#45;&gt;hold1</title>
<path fill="none" stroke="#475569" d="M1880.86,-272C1895.45,-272 1911.08,-272 1926.03,-272"/>
<polygon fill="#475569" stroke="#475569" points="1925.73,-274.8 1933.73,-272 1925.73,-269.2 1925.73,-274.8"/>
</g>
<!-- recovery1 -->
<g id="node11" class="node">
<title>recovery1</title>
<path fill="#f1f5f9" stroke="#334155" d="M2237,-314.25C2237,-314.25 2131.75,-314.25 2131.75,-314.25 2125.75,-314.25 2119.75,-308.25 2119.75,-302.25 2119.75,-302.25 2119.75,-241.75 2119.75,-241.75 2119.75,-235.75 2125.75,-229.75 2131.75,-229.75 2131.75,-229.75 2237,-229.75 2237,-229.75 2243,-229.75 2249,-235.75 2249,-241.75 2249,-241.75 2249,-302.25 2249,-302.25 2249,-308.25 2243,-314.25 2237,-314.25"/>
<text xml:space="preserve" text-anchor="middle" x="2184.38" y="-298.85" font-family="Helvetica,sans-Serif" font-size="12.00">Recovery</text>
<text xml:space="preserve" text-anchor="middle" x="2184.38" y="-286.1" font-family="Helvetica,sans-Serif" font-size="12.00">1m30s, 25 VUs</text>
<text xml:space="preserve" text-anchor="middle" x="2184.38" y="-273.35" font-family="Helvetica,sans-Serif" font-size="12.00">~100 requests / wave</text>
<text xml:space="preserve" text-anchor="middle" x="2184.38" y="-260.6" font-family="Helvetica,sans-Serif" font-size="12.00">15 cart updates</text>
<text xml:space="preserve" text-anchor="middle" x="2184.38" y="-247.85" font-family="Helvetica,sans-Serif" font-size="12.00">5 checkout attempts</text>
<text xml:space="preserve" text-anchor="middle" x="2184.38" y="-235.1" font-family="Helvetica,sans-Serif" font-size="12.00">25 region changes</text>
</g>
<!-- hold1&#45;&gt;recovery1 -->
<g id="edge7" class="edge">
<title>hold1&#45;&gt;recovery1</title>
<path fill="none" stroke="#475569" d="M2065.12,-272C2079.73,-272 2095.37,-272 2110.32,-272"/>
<polygon fill="#475569" stroke="#475569" points="2110.02,-274.8 2118.02,-272 2110.02,-269.2 2110.02,-274.8"/>
</g>
<!-- ramp2 -->
<g id="node12" class="node">
<title>ramp2</title>
<path fill="#fde68a" stroke="#334155" d="M2420.5,-314.25C2420.5,-314.25 2316,-314.25 2316,-314.25 2310,-314.25 2304,-308.25 2304,-302.25 2304,-302.25 2304,-241.75 2304,-241.75 2304,-235.75 2310,-229.75 2316,-229.75 2316,-229.75 2420.5,-229.75 2420.5,-229.75 2426.5,-229.75 2432.5,-235.75 2432.5,-241.75 2432.5,-241.75 2432.5,-302.25 2432.5,-302.25 2432.5,-308.25 2426.5,-314.25 2420.5,-314.25"/>
<text xml:space="preserve" text-anchor="middle" x="2368.25" y="-298.85" font-family="Helvetica,sans-Serif" font-size="12.00">Ramp to Spike 2</text>
<text xml:space="preserve" text-anchor="middle" x="2368.25" y="-286.1" font-family="Helvetica,sans-Serif" font-size="12.00">30s, 200 VUs</text>
<text xml:space="preserve" text-anchor="middle" x="2368.25" y="-273.35" font-family="Helvetica,sans-Serif" font-size="12.00">up to ~800 requests</text>
<text xml:space="preserve" text-anchor="middle" x="2368.25" y="-260.6" font-family="Helvetica,sans-Serif" font-size="12.00">120 cart updates</text>
<text xml:space="preserve" text-anchor="middle" x="2368.25" y="-247.85" font-family="Helvetica,sans-Serif" font-size="12.00">40 checkout attempts</text>
<text xml:space="preserve" text-anchor="middle" x="2368.25" y="-235.1" font-family="Helvetica,sans-Serif" font-size="12.00">200 region changes</text>
</g>
<!-- recovery1&#45;&gt;ramp2 -->
<g id="edge8" class="edge">
<title>recovery1&#45;&gt;ramp2</title>
<path fill="none" stroke="#475569" d="M2249.5,-272C2264.06,-272 2279.64,-272 2294.54,-272"/>
<polygon fill="#475569" stroke="#475569" points="2294.19,-274.8 2302.19,-272 2294.19,-269.2 2294.19,-274.8"/>
</g>
<!-- hold2 -->
<g id="node13" class="node">
<title>hold2</title>
<path fill="#fcd34d" stroke="#334155" d="M2604.75,-314.25C2604.75,-314.25 2499.5,-314.25 2499.5,-314.25 2493.5,-314.25 2487.5,-308.25 2487.5,-302.25 2487.5,-302.25 2487.5,-241.75 2487.5,-241.75 2487.5,-235.75 2493.5,-229.75 2499.5,-229.75 2499.5,-229.75 2604.75,-229.75 2604.75,-229.75 2610.75,-229.75 2616.75,-235.75 2616.75,-241.75 2616.75,-241.75 2616.75,-302.25 2616.75,-302.25 2616.75,-308.25 2610.75,-314.25 2604.75,-314.25"/>
<text xml:space="preserve" text-anchor="middle" x="2552.12" y="-298.85" font-family="Helvetica,sans-Serif" font-size="12.00">Hold Spike 2</text>
<text xml:space="preserve" text-anchor="middle" x="2552.12" y="-286.1" font-family="Helvetica,sans-Serif" font-size="12.00">2m, 200 VUs</text>
<text xml:space="preserve" text-anchor="middle" x="2552.12" y="-273.35" font-family="Helvetica,sans-Serif" font-size="12.00">~800 requests / wave</text>
<text xml:space="preserve" text-anchor="middle" x="2552.12" y="-260.6" font-family="Helvetica,sans-Serif" font-size="12.00">120 cart updates</text>
<text xml:space="preserve" text-anchor="middle" x="2552.12" y="-247.85" font-family="Helvetica,sans-Serif" font-size="12.00">40 checkout attempts</text>
<text xml:space="preserve" text-anchor="middle" x="2552.12" y="-235.1" font-family="Helvetica,sans-Serif" font-size="12.00">200 region changes</text>
</g>
<!-- ramp2&#45;&gt;hold2 -->
<g id="edge9" class="edge">
<title>ramp2&#45;&gt;hold2</title>
<path fill="none" stroke="#475569" d="M2432.86,-272C2447.45,-272 2463.08,-272 2478.03,-272"/>
<polygon fill="#475569" stroke="#475569" points="2477.73,-274.8 2485.73,-272 2477.73,-269.2 2477.73,-274.8"/>
</g>
<!-- recovery2 -->
<g id="node14" class="node">
<title>recovery2</title>
<path fill="#f1f5f9" stroke="#334155" d="M2789,-314.25C2789,-314.25 2683.75,-314.25 2683.75,-314.25 2677.75,-314.25 2671.75,-308.25 2671.75,-302.25 2671.75,-302.25 2671.75,-241.75 2671.75,-241.75 2671.75,-235.75 2677.75,-229.75 2683.75,-229.75 2683.75,-229.75 2789,-229.75 2789,-229.75 2795,-229.75 2801,-235.75 2801,-241.75 2801,-241.75 2801,-302.25 2801,-302.25 2801,-308.25 2795,-314.25 2789,-314.25"/>
<text xml:space="preserve" text-anchor="middle" x="2736.38" y="-298.85" font-family="Helvetica,sans-Serif" font-size="12.00">Recovery</text>
<text xml:space="preserve" text-anchor="middle" x="2736.38" y="-286.1" font-family="Helvetica,sans-Serif" font-size="12.00">1m30s, 25 VUs</text>
<text xml:space="preserve" text-anchor="middle" x="2736.38" y="-273.35" font-family="Helvetica,sans-Serif" font-size="12.00">~100 requests / wave</text>
<text xml:space="preserve" text-anchor="middle" x="2736.38" y="-260.6" font-family="Helvetica,sans-Serif" font-size="12.00">15 cart updates</text>
<text xml:space="preserve" text-anchor="middle" x="2736.38" y="-247.85" font-family="Helvetica,sans-Serif" font-size="12.00">5 checkout attempts</text>
<text xml:space="preserve" text-anchor="middle" x="2736.38" y="-235.1" font-family="Helvetica,sans-Serif" font-size="12.00">25 region changes</text>
</g>
<!-- hold2&#45;&gt;recovery2 -->
<g id="edge10" class="edge">
<title>hold2&#45;&gt;recovery2</title>
<path fill="none" stroke="#475569" d="M2617.12,-272C2631.73,-272 2647.37,-272 2662.32,-272"/>
<polygon fill="#475569" stroke="#475569" points="2662.02,-274.8 2670.02,-272 2662.02,-269.2 2662.02,-274.8"/>
</g>
<!-- ramp3 -->
<g id="node15" class="node">
<title>ramp3</title>
<path fill="#fecaca" stroke="#334155" d="M2972.5,-314.25C2972.5,-314.25 2868,-314.25 2868,-314.25 2862,-314.25 2856,-308.25 2856,-302.25 2856,-302.25 2856,-241.75 2856,-241.75 2856,-235.75 2862,-229.75 2868,-229.75 2868,-229.75 2972.5,-229.75 2972.5,-229.75 2978.5,-229.75 2984.5,-235.75 2984.5,-241.75 2984.5,-241.75 2984.5,-302.25 2984.5,-302.25 2984.5,-308.25 2978.5,-314.25 2972.5,-314.25"/>
<text xml:space="preserve" text-anchor="middle" x="2920.25" y="-298.85" font-family="Helvetica,sans-Serif" font-size="12.00">Ramp to Spike 3</text>
<text xml:space="preserve" text-anchor="middle" x="2920.25" y="-286.1" font-family="Helvetica,sans-Serif" font-size="12.00">30s, 400 VUs</text>
<text xml:space="preserve" text-anchor="middle" x="2920.25" y="-273.35" font-family="Helvetica,sans-Serif" font-size="12.00">up to ~1600 requests</text>
<text xml:space="preserve" text-anchor="middle" x="2920.25" y="-260.6" font-family="Helvetica,sans-Serif" font-size="12.00">240 cart updates</text>
<text xml:space="preserve" text-anchor="middle" x="2920.25" y="-247.85" font-family="Helvetica,sans-Serif" font-size="12.00">80 checkout attempts</text>
<text xml:space="preserve" text-anchor="middle" x="2920.25" y="-235.1" font-family="Helvetica,sans-Serif" font-size="12.00">400 region changes</text>
</g>
<!-- recovery2&#45;&gt;ramp3 -->
<g id="edge11" class="edge">
<title>recovery2&#45;&gt;ramp3</title>
<path fill="none" stroke="#475569" d="M2801.5,-272C2816.06,-272 2831.64,-272 2846.54,-272"/>
<polygon fill="#475569" stroke="#475569" points="2846.19,-274.8 2854.19,-272 2846.19,-269.2 2846.19,-274.8"/>
</g>
<!-- hold3 -->
<g id="node16" class="node">
<title>hold3</title>
<path fill="#fca5a5" stroke="#334155" d="M3163.5,-314.25C3163.5,-314.25 3051.5,-314.25 3051.5,-314.25 3045.5,-314.25 3039.5,-308.25 3039.5,-302.25 3039.5,-302.25 3039.5,-241.75 3039.5,-241.75 3039.5,-235.75 3045.5,-229.75 3051.5,-229.75 3051.5,-229.75 3163.5,-229.75 3163.5,-229.75 3169.5,-229.75 3175.5,-235.75 3175.5,-241.75 3175.5,-241.75 3175.5,-302.25 3175.5,-302.25 3175.5,-308.25 3169.5,-314.25 3163.5,-314.25"/>
<text xml:space="preserve" text-anchor="middle" x="3107.5" y="-298.85" font-family="Helvetica,sans-Serif" font-size="12.00">Hold Spike 3</text>
<text xml:space="preserve" text-anchor="middle" x="3107.5" y="-286.1" font-family="Helvetica,sans-Serif" font-size="12.00">2m, 400 VUs</text>
<text xml:space="preserve" text-anchor="middle" x="3107.5" y="-273.35" font-family="Helvetica,sans-Serif" font-size="12.00">~1600 requests / wave</text>
<text xml:space="preserve" text-anchor="middle" x="3107.5" y="-260.6" font-family="Helvetica,sans-Serif" font-size="12.00">240 cart updates</text>
<text xml:space="preserve" text-anchor="middle" x="3107.5" y="-247.85" font-family="Helvetica,sans-Serif" font-size="12.00">80 checkout attempts</text>
<text xml:space="preserve" text-anchor="middle" x="3107.5" y="-235.1" font-family="Helvetica,sans-Serif" font-size="12.00">400 region changes</text>
</g>
<!-- ramp3&#45;&gt;hold3 -->
<g id="edge12" class="edge">
<title>ramp3&#45;&gt;hold3</title>
<path fill="none" stroke="#475569" d="M2984.74,-272C2999.32,-272 3014.96,-272 3030.01,-272"/>
<polygon fill="#475569" stroke="#475569" points="3029.78,-274.8 3037.78,-272 3029.78,-269.2 3029.78,-274.8"/>
</g>
<!-- rampdown -->
<g id="node17" class="node">
<title>rampdown</title>
<path fill="#e2e8f0" stroke="#334155" d="M3355.25,-295.12C3355.25,-295.12 3242.5,-295.12 3242.5,-295.12 3236.5,-295.12 3230.5,-289.12 3230.5,-283.12 3230.5,-283.12 3230.5,-260.88 3230.5,-260.88 3230.5,-254.88 3236.5,-248.88 3242.5,-248.88 3242.5,-248.88 3355.25,-248.88 3355.25,-248.88 3361.25,-248.88 3367.25,-254.88 3367.25,-260.88 3367.25,-260.88 3367.25,-283.12 3367.25,-283.12 3367.25,-289.12 3361.25,-295.12 3355.25,-295.12"/>
<text xml:space="preserve" text-anchor="middle" x="3298.88" y="-279.73" font-family="Helvetica,sans-Serif" font-size="12.00">Ramp down</text>
<text xml:space="preserve" text-anchor="middle" x="3298.88" y="-266.98" font-family="Helvetica,sans-Serif" font-size="12.00">2m30s, 0 VUs</text>
<text xml:space="preserve" text-anchor="middle" x="3298.88" y="-254.22" font-family="Helvetica,sans-Serif" font-size="12.00">requests decrease to 0</text>
</g>
<!-- hold3&#45;&gt;rampdown -->
<g id="edge13" class="edge">
<title>hold3&#45;&gt;rampdown</title>
<path fill="none" stroke="#475569" d="M3175.8,-272C3190.41,-272 3205.98,-272 3220.94,-272"/>
<polygon fill="#475569" stroke="#475569" points="3220.64,-274.8 3228.64,-272 3220.64,-269.2 3220.64,-274.8"/>
</g>
<!-- storefront -->
<g id="node19" class="node">
<title>storefront</title>
<path fill="#faf5ff" stroke="#334155" d="M1649.38,-181.5C1649.38,-181.5 1479.62,-181.5 1479.62,-181.5 1473.62,-181.5 1467.62,-175.5 1467.62,-169.5 1467.62,-169.5 1467.62,-134.5 1467.62,-134.5 1467.62,-128.5 1473.62,-122.5 1479.62,-122.5 1479.62,-122.5 1649.38,-122.5 1649.38,-122.5 1655.38,-122.5 1661.38,-128.5 1661.38,-134.5 1661.38,-134.5 1661.38,-169.5 1661.38,-169.5 1661.38,-175.5 1655.38,-181.5 1649.38,-181.5"/>
<text xml:space="preserve" text-anchor="middle" x="1564.5" y="-166.1" font-family="Helvetica,sans-Serif" font-size="12.00">storefront_actions</text>
<text xml:space="preserve" text-anchor="middle" x="1564.5" y="-153.35" font-family="Helvetica,sans-Serif" font-size="12.00">60 browser VUs for 15m</text>
<text xml:space="preserve" text-anchor="middle" x="1564.5" y="-140.6" font-family="Helvetica,sans-Serif" font-size="12.00">Faro UI actions + browser metrics</text>
<text xml:space="preserve" text-anchor="middle" x="1564.5" y="-127.85" font-family="Helvetica,sans-Serif" font-size="12.00">standard http_reqs may be n/a</text>
</g>
</g>
</svg>
