<?xml version="1.0" encoding="UTF-8" standalone="no"?>
<!DOCTYPE svg PUBLIC "-//W3C//DTD SVG 1.1//EN"
 "http://www.w3.org/Graphics/SVG/1.1/DTD/svg11.dtd">
<!-- Generated by graphviz version 15.0.0 (20260523.1842)
 -->
<!-- Title: traffic_spike_request_cards Pages: 1 -->
<svg width="2050pt" height="219pt"
 viewBox="0.00 0.00 2050.00 219.00" xmlns="http://www.w3.org/2000/svg" xmlns:xlink="http://www.w3.org/1999/xlink">
<g id="graph0" class="graph" transform="scale(1 1) rotate(0) translate(4 214.62)">
<title>traffic_spike_request_cards</title>
<polygon fill="white" stroke="none" points="-4,4 -4,-214.62 2046,-214.62 2046,4 -4,4"/>
<text xml:space="preserve" text-anchor="middle" x="1021" y="-185.72" font-family="Helvetica,sans-Serif" font-size="22.00">Traffic Spike Request Model</text>
<!-- warmup -->
<g id="node1" class="node">
<title>warmup</title>
<polygon fill="#f8fafc" stroke="none" points="372.25,-85 372.25,-112 520,-112 520,-85 372.25,-85"/>
<text xml:space="preserve" text-anchor="start" x="418.75" y="-93.7" font-family="Helvetica,sans-Serif" font-weight="bold" font-size="14.00">Warmup</text>
<text xml:space="preserve" text-anchor="start" x="416.5" y="-62.9" font-family="Helvetica,sans-Serif" font-weight="bold" font-size="18.00">25 VUs</text>
<text xml:space="preserve" text-anchor="start" x="401.5" y="-37" font-family="Helvetica,sans-Serif" font-size="14.00">~100 req/wave</text>
<text xml:space="preserve" text-anchor="start" x="378.25" y="-13" font-family="Helvetica,sans-Serif" font-size="10.00">cart 15 · checkout 5 · region 25</text>
<polygon fill="none" stroke="#64748b" points="371.25,-3 371.25,-113 521,-113 521,-3 371.25,-3"/>
</g>
<!-- spike1 -->
<g id="node2" class="node">
<title>spike1</title>
<polygon fill="#fee2e2" stroke="none" points="925.25,-86.88 925.25,-113.88 1083.5,-113.88 1083.5,-86.88 925.25,-86.88"/>
<text xml:space="preserve" text-anchor="start" x="980.75" y="-95.58" font-family="Helvetica,sans-Serif" font-weight="bold" font-size="14.00">Spike 1</text>
<text xml:space="preserve" text-anchor="start" x="962" y="-60.98" font-family="Helvetica,sans-Serif" font-weight="bold" font-size="22.00">100 VUs</text>
<text xml:space="preserve" text-anchor="start" x="957.88" y="-34.08" font-family="Helvetica,sans-Serif" font-weight="bold" font-size="14.00">~400 req/wave</text>
<text xml:space="preserve" text-anchor="start" x="931.25" y="-11.12" font-family="Helvetica,sans-Serif" font-size="10.00">cart 60 · checkout 20 · region 100</text>
<polygon fill="none" stroke="#ef4444" points="924.25,-1.12 924.25,-114.88 1084.5,-114.88 1084.5,-1.12 924.25,-1.12"/>
</g>
<!-- warmup&#45;&gt;spike1 -->
<g id="edge1" class="edge">
<title>warmup&#45;&gt;spike1</title>
<path fill="none" stroke="#94a3b8" d="M520.83,-58C520.83,-58 917.19,-58 917.19,-58"/>
<polygon fill="#94a3b8" stroke="#94a3b8" points="917.19,-60.1 923.19,-58 917.19,-55.9 917.19,-60.1"/>
</g>
<!-- recovery1 -->
<g id="node3" class="node">
<title>recovery1</title>
<polygon fill="#f8fafc" stroke="none" points="1117.5,-85 1117.5,-112 1265.25,-112 1265.25,-85 1117.5,-85"/>
<text xml:space="preserve" text-anchor="start" x="1161" y="-93.7" font-family="Helvetica,sans-Serif" font-weight="bold" font-size="14.00">Recovery</text>
<text xml:space="preserve" text-anchor="start" x="1161.75" y="-62.9" font-family="Helvetica,sans-Serif" font-weight="bold" font-size="18.00">25 VUs</text>
<text xml:space="preserve" text-anchor="start" x="1146.75" y="-37" font-family="Helvetica,sans-Serif" font-size="14.00">~100 req/wave</text>
<text xml:space="preserve" text-anchor="start" x="1123.5" y="-13" font-family="Helvetica,sans-Serif" font-size="10.00">cart 15 · checkout 5 · region 25</text>
<polygon fill="none" stroke="#64748b" points="1116.5,-3 1116.5,-113 1266.25,-113 1266.25,-3 1116.5,-3"/>
</g>
<!-- spike1&#45;&gt;recovery1 -->
<g id="edge2" class="edge">
<title>spike1&#45;&gt;recovery1</title>
<path fill="none" stroke="#94a3b8" d="M1084.49,-58C1084.49,-58 1109.24,-58 1109.24,-58"/>
<polygon fill="#94a3b8" stroke="#94a3b8" points="1109.24,-60.1 1115.24,-58 1109.24,-55.9 1109.24,-60.1"/>
</g>
<!-- spike2 -->
<g id="node4" class="node">
<title>spike2</title>
<polygon fill="#fecaca" stroke="none" points="1299.25,-86.88 1299.25,-113.88 1462.75,-113.88 1462.75,-86.88 1299.25,-86.88"/>
<text xml:space="preserve" text-anchor="start" x="1357.38" y="-95.58" font-family="Helvetica,sans-Serif" font-weight="bold" font-size="14.00">Spike 2</text>
<text xml:space="preserve" text-anchor="start" x="1338.62" y="-60.98" font-family="Helvetica,sans-Serif" font-weight="bold" font-size="22.00">200 VUs</text>
<text xml:space="preserve" text-anchor="start" x="1334.5" y="-34.08" font-family="Helvetica,sans-Serif" font-weight="bold" font-size="14.00">~800 req/wave</text>
<text xml:space="preserve" text-anchor="start" x="1305.25" y="-11.12" font-family="Helvetica,sans-Serif" font-size="10.00">cart 120 · checkout 40 · region 200</text>
<polygon fill="none" stroke="#dc2626" points="1298.25,-1.12 1298.25,-114.88 1463.75,-114.88 1463.75,-1.12 1298.25,-1.12"/>
</g>
<!-- recovery1&#45;&gt;spike2 -->
<g id="edge3" class="edge">
<title>recovery1&#45;&gt;spike2</title>
<path fill="none" stroke="#94a3b8" d="M1266.05,-58C1266.05,-58 1290.74,-58 1290.74,-58"/>
<polygon fill="#94a3b8" stroke="#94a3b8" points="1290.74,-60.1 1296.74,-58 1290.74,-55.9 1290.74,-60.1"/>
</g>
<!-- recovery2 -->
<g id="node5" class="node">
<title>recovery2</title>
<polygon fill="#f8fafc" stroke="none" points="1496.75,-85 1496.75,-112 1644.5,-112 1644.5,-85 1496.75,-85"/>
<text xml:space="preserve" text-anchor="start" x="1540.25" y="-93.7" font-family="Helvetica,sans-Serif" font-weight="bold" font-size="14.00">Recovery</text>
<text xml:space="preserve" text-anchor="start" x="1541" y="-62.9" font-family="Helvetica,sans-Serif" font-weight="bold" font-size="18.00">25 VUs</text>
<text xml:space="preserve" text-anchor="start" x="1526" y="-37" font-family="Helvetica,sans-Serif" font-size="14.00">~100 req/wave</text>
<text xml:space="preserve" text-anchor="start" x="1502.75" y="-13" font-family="Helvetica,sans-Serif" font-size="10.00">cart 15 · checkout 5 · region 25</text>
<polygon fill="none" stroke="#64748b" points="1495.75,-3 1495.75,-113 1645.5,-113 1645.5,-3 1495.75,-3"/>
</g>
<!-- spike2&#45;&gt;recovery2 -->
<g id="edge4" class="edge">
<title>spike2&#45;&gt;recovery2</title>
<path fill="none" stroke="#94a3b8" d="M1463.62,-58C1463.62,-58 1488.52,-58 1488.52,-58"/>
<polygon fill="#94a3b8" stroke="#94a3b8" points="1488.52,-60.1 1494.52,-58 1488.52,-55.9 1488.52,-60.1"/>
</g>
<!-- spike3 -->
<g id="node6" class="node">
<title>spike3</title>
<polygon fill="#fca5a5" stroke="none" points="1678.5,-88 1678.5,-115 1842,-115 1842,-88 1678.5,-88"/>
<text xml:space="preserve" text-anchor="start" x="1736.62" y="-96.7" font-family="Helvetica,sans-Serif" font-weight="bold" font-size="14.00">Spike 3</text>
<text xml:space="preserve" text-anchor="start" x="1713.38" y="-60.2" font-family="Helvetica,sans-Serif" font-weight="bold" font-size="24.00">400 VUs</text>
<text xml:space="preserve" text-anchor="start" x="1710" y="-32.95" font-family="Helvetica,sans-Serif" font-weight="bold" font-size="14.00">~1600 req/wave</text>
<text xml:space="preserve" text-anchor="start" x="1684.5" y="-10" font-family="Helvetica,sans-Serif" font-size="10.00">cart 240 · checkout 80 · region 400</text>
<polygon fill="none" stroke="#991b1b" points="1677.5,0 1677.5,-116 1843,-116 1843,0 1677.5,0"/>
</g>
<!-- recovery2&#45;&gt;spike3 -->
<g id="edge5" class="edge">
<title>recovery2&#45;&gt;spike3</title>
<path fill="none" stroke="#94a3b8" d="M1645.3,-58C1645.3,-58 1669.99,-58 1669.99,-58"/>
<polygon fill="#94a3b8" stroke="#94a3b8" points="1669.99,-60.1 1675.99,-58 1669.99,-55.9 1669.99,-60.1"/>
</g>
<!-- rampdown -->
<g id="node7" class="node">
<title>rampdown</title>
<polygon fill="#f8fafc" stroke="none" points="1876,-85 1876,-112 2041,-112 2041,-85 1876,-85"/>
<text xml:space="preserve" text-anchor="start" x="1919.5" y="-93.7" font-family="Helvetica,sans-Serif" font-weight="bold" font-size="14.00">Ramp down</text>
<text xml:space="preserve" text-anchor="start" x="1933.75" y="-62.9" font-family="Helvetica,sans-Serif" font-weight="bold" font-size="18.00">0 VUs</text>
<text xml:space="preserve" text-anchor="start" x="1925.5" y="-37" font-family="Helvetica,sans-Serif" font-size="14.00">decreasing</text>
<text xml:space="preserve" text-anchor="start" x="1882" y="-13" font-family="Helvetica,sans-Serif" font-size="10.00">counters decrease with active VUs</text>
<polygon fill="none" stroke="#64748b" points="1875,-3 1875,-113 2042,-113 2042,-3 1875,-3"/>
</g>
<!-- spike3&#45;&gt;rampdown -->
<g id="edge6" class="edge">
<title>spike3&#45;&gt;rampdown</title>
<path fill="none" stroke="#94a3b8" d="M1842.89,-58C1842.89,-58 1867.52,-58 1867.52,-58"/>
<polygon fill="#94a3b8" stroke="#94a3b8" points="1867.52,-60.1 1873.52,-58 1867.52,-55.9 1867.52,-60.1"/>
</g>
<!-- legend -->
<g id="node8" class="node">
<title>legend</title>
<text xml:space="preserve" text-anchor="start" x="4" y="-163.82" font-family="Helvetica,sans-Serif" font-weight="bold" font-size="14.00">Config:</text>
<text xml:space="preserve" text-anchor="start" x="51.25" y="-163.82" font-family="Helvetica,sans-Serif" font-size="14.00"> base 100, multiplier 2, regional 30 VUs, steady API 8 req/sec, storefront actions ramp to 5 browser VUs over 3m, hold 10m, ramp down 2m</text>
<text xml:space="preserve" text-anchor="start" x="4" y="-144.88" font-family="Helvetica,sans-Serif" font-size="10.00">browser 3 · cart_builder 4 · account_manager 4 · sale_hunter 4 · checkout 5; actual totals depend on completed iterations.</text>
</g>
</g>
</svg>
