<?xml version="1.0" encoding="UTF-8" standalone="no"?>
<!DOCTYPE svg PUBLIC "-//W3C//DTD SVG 1.1//EN"
 "http://www.w3.org/Graphics/SVG/1.1/DTD/svg11.dtd">
<!-- Generated by graphviz version 15.0.0 (20260523.1842)
 -->
<!-- Title: network_diagram Pages: 1 -->
<svg width="2157pt" height="886pt"
 viewBox="0.00 0.00 2157.00 886.00" xmlns="http://www.w3.org/2000/svg" xmlns:xlink="http://www.w3.org/1999/xlink">
<g id="graph0" class="graph" transform="scale(1 1) rotate(0) translate(18 868.17)">
<title>network_diagram</title>
<polygon fill="#0b1220" stroke="none" points="-18,18 -18,-868.17 2138.99,-868.17 2138.99,18 -18,18"/>
<text xml:space="preserve" text-anchor="middle" x="1060.49" y="-827.17" font-family="Helvetica,sans-Serif" font-size="20.00" fill="#f8fafc">Ensemble&#45;Grafana Network Diagram</text>
<g id="clust1" class="cluster">
<title>cluster_eks</title>
<path fill="#0b1220" stroke="#64748b" stroke-dasharray="5,2" d="M1406.52,-192.42C1406.52,-192.42 1779.71,-192.42 1779.71,-192.42 1785.71,-192.42 1791.71,-198.42 1791.71,-204.42 1791.71,-204.42 1791.71,-465.42 1791.71,-465.42 1791.71,-471.42 1785.71,-477.42 1779.71,-477.42 1779.71,-477.42 1406.52,-477.42 1406.52,-477.42 1400.52,-477.42 1394.52,-471.42 1394.52,-465.42 1394.52,-465.42 1394.52,-204.42 1394.52,-204.42 1394.52,-198.42 1400.52,-192.42 1406.52,-192.42"/>
<text xml:space="preserve" text-anchor="middle" x="1593.12" y="-454.42" font-family="Helvetica,sans-Serif" font-size="20.00" fill="#f8fafc">EKS cluster</text>
</g>
<!-- shopper -->
<g id="node1" class="node">
<title>shopper</title>
<path fill="#1e3a8a" stroke="#64748b" d="M88.53,-762.42C88.53,-762.42 12,-762.42 12,-762.42 6,-762.42 0,-756.42 0,-750.42 0,-750.42 0,-738.42 0,-738.42 0,-732.42 6,-726.42 12,-726.42 12,-726.42 88.53,-726.42 88.53,-726.42 94.53,-726.42 100.53,-732.42 100.53,-738.42 100.53,-738.42 100.53,-750.42 100.53,-750.42 100.53,-756.42 94.53,-762.42 88.53,-762.42"/>
<text xml:space="preserve" text-anchor="middle" x="50.26" y="-739.97" font-family="Helvetica,sans-Serif" font-size="11.00" fill="#f8fafc">Shopper browser</text>
</g>
<!-- edgeWaf -->
<g id="node5" class="node">
<title>edgeWaf</title>
<path fill="#7f1d1d" stroke="#64748b" d="M351.56,-614.42C351.56,-614.42 272.78,-614.42 272.78,-614.42 266.78,-614.42 260.78,-608.42 260.78,-602.42 260.78,-602.42 260.78,-590.42 260.78,-590.42 260.78,-584.42 266.78,-578.42 272.78,-578.42 272.78,-578.42 351.56,-578.42 351.56,-578.42 357.56,-578.42 363.56,-584.42 363.56,-590.42 363.56,-590.42 363.56,-602.42 363.56,-602.42 363.56,-608.42 357.56,-614.42 351.56,-614.42"/>
<text xml:space="preserve" text-anchor="middle" x="312.17" y="-597.97" font-family="Helvetica,sans-Serif" font-size="11.00" fill="#f8fafc">AWS WAF</text>
<text xml:space="preserve" text-anchor="middle" x="312.17" y="-585.97" font-family="Helvetica,sans-Serif" font-size="11.00" fill="#f8fafc">CloudFront scope</text>
</g>
<!-- shopper&#45;&gt;edgeWaf -->
<g id="edge4" class="edge">
<title>shopper&#45;&gt;edgeWaf</title>
<path fill="none" stroke="#94a3b8" d="M74.78,-725.92C106.45,-701.64 165.22,-658.78 220.28,-630.42 230.52,-625.14 241.78,-620.26 252.78,-615.93"/>
<polygon fill="#94a3b8" stroke="#94a3b8" points="253.66,-618.22 259.31,-613.43 251.9,-613.65 253.66,-618.22"/>
<text xml:space="preserve" text-anchor="middle" x="160.4" y="-689.67" font-family="Helvetica,sans-Serif" font-size="9.00" fill="#f8fafc">HTTPS storefront</text>
</g>
<!-- cognito -->
<g id="node12" class="node">
<title>cognito</title>
<path fill="#4c1d95" stroke="#64748b" d="M351.56,-762.42C351.56,-762.42 272.78,-762.42 272.78,-762.42 266.78,-762.42 260.78,-756.42 260.78,-750.42 260.78,-750.42 260.78,-738.42 260.78,-738.42 260.78,-732.42 266.78,-726.42 272.78,-726.42 272.78,-726.42 351.56,-726.42 351.56,-726.42 357.56,-726.42 363.56,-732.42 363.56,-738.42 363.56,-738.42 363.56,-750.42 363.56,-750.42 363.56,-756.42 357.56,-762.42 351.56,-762.42"/>
<text xml:space="preserve" text-anchor="middle" x="312.17" y="-745.97" font-family="Helvetica,sans-Serif" font-size="11.00" fill="#f8fafc">AWS Cognito</text>
<text xml:space="preserve" text-anchor="middle" x="312.17" y="-733.97" font-family="Helvetica,sans-Serif" font-size="11.00" fill="#f8fafc">Google federation</text>
</g>
<!-- shopper&#45;&gt;cognito -->
<g id="edge6" class="edge">
<title>shopper&#45;&gt;cognito</title>
<path fill="none" stroke="#94a3b8" d="M100.76,-744.42C143.88,-744.42 206.49,-744.42 252.2,-744.42"/>
<polygon fill="#94a3b8" stroke="#94a3b8" points="252.01,-746.87 259.01,-744.42 252.01,-741.97 252.01,-746.87"/>
<text xml:space="preserve" text-anchor="middle" x="160.4" y="-745.62" font-family="Helvetica,sans-Serif" font-size="9.00" fill="#f8fafc">Google sign&#45;in</text>
</g>
<!-- grafana -->
<g id="node18" class="node">
<title>grafana</title>
<path fill="#6b21a8" stroke="#64748b" d="M2108.99,-602.42C2108.99,-602.42 1951.46,-602.42 1951.46,-602.42 1945.46,-602.42 1939.46,-596.42 1939.46,-590.42 1939.46,-590.42 1939.46,-578.42 1939.46,-578.42 1939.46,-572.42 1945.46,-566.42 1951.46,-566.42 1951.46,-566.42 2108.99,-566.42 2108.99,-566.42 2114.99,-566.42 2120.99,-572.42 2120.99,-578.42 2120.99,-578.42 2120.99,-590.42 2120.99,-590.42 2120.99,-596.42 2114.99,-602.42 2108.99,-602.42"/>
<text xml:space="preserve" text-anchor="middle" x="2030.22" y="-585.97" font-family="Helvetica,sans-Serif" font-size="11.00" fill="#f8fafc">Grafana Cloud</text>
<text xml:space="preserve" text-anchor="middle" x="2030.22" y="-573.97" font-family="Helvetica,sans-Serif" font-size="11.00" fill="#f8fafc">Faro, metrics, logs, traces, profiles</text>
</g>
<!-- shopper&#45;&gt;grafana -->
<g id="edge23" class="edge">
<title>shopper&#45;&gt;grafana</title>
<path fill="none" stroke="#94a3b8" d="M94.99,-762.91C145.94,-782.74 233.12,-811.42 311.17,-811.42 311.17,-811.42 311.17,-811.42 1743.82,-811.42 1872.23,-811.42 1976.32,-668.93 2014.02,-609.73"/>
<polygon fill="#94a3b8" stroke="#94a3b8" points="2016.04,-611.13 2017.68,-603.89 2011.89,-608.52 2016.04,-611.13"/>
<text xml:space="preserve" text-anchor="middle" x="994.49" y="-812.62" font-family="Helvetica,sans-Serif" font-size="9.00" fill="#f8fafc">Faro web telemetry</text>
</g>
<!-- registrar -->
<g id="node2" class="node">
<title>registrar</title>
<path fill="#111827" stroke="#64748b" d="M87.03,-546.42C87.03,-546.42 13.5,-546.42 13.5,-546.42 7.5,-546.42 1.5,-540.42 1.5,-534.42 1.5,-534.42 1.5,-522.42 1.5,-522.42 1.5,-516.42 7.5,-510.42 13.5,-510.42 13.5,-510.42 87.03,-510.42 87.03,-510.42 93.03,-510.42 99.03,-516.42 99.03,-522.42 99.03,-522.42 99.03,-534.42 99.03,-534.42 99.03,-540.42 93.03,-546.42 87.03,-546.42"/>
<text xml:space="preserve" text-anchor="middle" x="50.26" y="-523.97" font-family="Helvetica,sans-Serif" font-size="11.00" fill="#f8fafc">Domain registrar</text>
</g>
<!-- route53 -->
<g id="node3" class="node">
<title>route53</title>
<path fill="#164e63" stroke="#64748b" d="M363.93,-546.42C363.93,-546.42 260.4,-546.42 260.4,-546.42 254.4,-546.42 248.4,-540.42 248.4,-534.42 248.4,-534.42 248.4,-522.42 248.4,-522.42 248.4,-516.42 254.4,-510.42 260.4,-510.42 260.4,-510.42 363.93,-510.42 363.93,-510.42 369.93,-510.42 375.93,-516.42 375.93,-522.42 375.93,-522.42 375.93,-534.42 375.93,-534.42 375.93,-540.42 369.93,-546.42 363.93,-546.42"/>
<text xml:space="preserve" text-anchor="middle" x="312.17" y="-529.97" font-family="Helvetica,sans-Serif" font-size="11.00" fill="#f8fafc">Route53 hosted zone</text>
<text xml:space="preserve" text-anchor="middle" x="312.17" y="-517.97" font-family="Helvetica,sans-Serif" font-size="11.00" fill="#f8fafc">ensemble&#45;grafana.com</text>
</g>
<!-- registrar&#45;&gt;route53 -->
<g id="edge1" class="edge">
<title>registrar&#45;&gt;route53</title>
<path fill="none" stroke="#94a3b8" d="M99.24,-528.42C138.65,-528.42 195.06,-528.42 239.77,-528.42"/>
<polygon fill="#94a3b8" stroke="#94a3b8" points="239.75,-530.87 246.75,-528.42 239.75,-525.97 239.75,-530.87"/>
<text xml:space="preserve" text-anchor="middle" x="160.4" y="-529.62" font-family="Helvetica,sans-Serif" font-size="9.00" fill="#f8fafc">NS delegation</text>
</g>
<!-- cloudfront -->
<g id="node6" class="node">
<title>cloudfront</title>
<path fill="#1e3a8a" stroke="#64748b" d="M642.72,-553.42C642.72,-553.42 539.19,-553.42 539.19,-553.42 533.19,-553.42 527.19,-547.42 527.19,-541.42 527.19,-541.42 527.19,-529.42 527.19,-529.42 527.19,-523.42 533.19,-517.42 539.19,-517.42 539.19,-517.42 642.72,-517.42 642.72,-517.42 648.72,-517.42 654.72,-523.42 654.72,-529.42 654.72,-529.42 654.72,-541.42 654.72,-541.42 654.72,-547.42 648.72,-553.42 642.72,-553.42"/>
<text xml:space="preserve" text-anchor="middle" x="590.95" y="-536.97" font-family="Helvetica,sans-Serif" font-size="11.00" fill="#f8fafc">CloudFront distribution</text>
<text xml:space="preserve" text-anchor="middle" x="590.95" y="-524.97" font-family="Helvetica,sans-Serif" font-size="11.00" fill="#f8fafc">ensemble&#45;grafana.com</text>
</g>
<!-- route53&#45;&gt;cloudfront -->
<g id="edge2" class="edge">
<title>route53&#45;&gt;cloudfront</title>
<path fill="none" stroke="#94a3b8" d="M376.17,-527.36C412.3,-527.04 458.49,-527.11 499.56,-528.67 505.75,-528.91 512.18,-529.23 518.62,-529.6"/>
<polygon fill="#94a3b8" stroke="#94a3b8" points="518.12,-532.03 525.26,-530.02 518.42,-527.14 518.12,-532.03"/>
<text xml:space="preserve" text-anchor="middle" x="464.31" y="-529.87" font-family="Helvetica,sans-Serif" font-size="9.00" fill="#f8fafc">A / AAAA alias</text>
</g>
<!-- acm -->
<g id="node4" class="node">
<title>acm</title>
<path fill="#155e75" stroke="#64748b" d="M356.81,-478.42C356.81,-478.42 267.53,-478.42 267.53,-478.42 261.53,-478.42 255.53,-472.42 255.53,-466.42 255.53,-466.42 255.53,-454.42 255.53,-454.42 255.53,-448.42 261.53,-442.42 267.53,-442.42 267.53,-442.42 356.81,-442.42 356.81,-442.42 362.81,-442.42 368.81,-448.42 368.81,-454.42 368.81,-454.42 368.81,-466.42 368.81,-466.42 368.81,-472.42 362.81,-478.42 356.81,-478.42"/>
<text xml:space="preserve" text-anchor="middle" x="312.17" y="-461.97" font-family="Helvetica,sans-Serif" font-size="11.00" fill="#f8fafc">ACM certificate</text>
<text xml:space="preserve" text-anchor="middle" x="312.17" y="-449.97" font-family="Helvetica,sans-Serif" font-size="11.00" fill="#f8fafc">us&#45;east&#45;1 / ISSUED</text>
</g>
<!-- acm&#45;&gt;cloudfront -->
<g id="edge3" class="edge">
<title>acm&#45;&gt;cloudfront</title>
<path fill="none" stroke="#94a3b8" d="M369.11,-474.9C406.17,-484.57 455.83,-497.66 499.56,-509.67 505.76,-511.37 512.18,-513.16 518.63,-514.96"/>
<polygon fill="#94a3b8" stroke="#94a3b8" points="517.92,-517.31 525.32,-516.85 519.25,-512.59 517.92,-517.31"/>
<text xml:space="preserve" text-anchor="middle" x="464.31" y="-510.87" font-family="Helvetica,sans-Serif" font-size="9.00" fill="#f8fafc">TLS certificate</text>
</g>
<!-- edgeWaf&#45;&gt;cloudfront -->
<g id="edge5" class="edge">
<title>edgeWaf&#45;&gt;cloudfront</title>
<path fill="none" stroke="#94a3b8" d="M363.94,-585.23C407.31,-575.67 470.19,-561.81 518.62,-551.14"/>
<polygon fill="#94a3b8" stroke="#94a3b8" points="519.09,-553.55 525.4,-549.65 518.03,-548.76 519.09,-553.55"/>
</g>
<!-- staticS3 -->
<g id="node7" class="node">
<title>staticS3</title>
<path fill="#713f12" stroke="#64748b" d="M893.75,-627.42C893.75,-627.42 809.72,-627.42 809.72,-627.42 803.72,-627.42 797.72,-621.42 797.72,-615.42 797.72,-615.42 797.72,-603.42 797.72,-603.42 797.72,-597.42 803.72,-591.42 809.72,-591.42 809.72,-591.42 893.75,-591.42 893.75,-591.42 899.75,-591.42 905.75,-597.42 905.75,-603.42 905.75,-603.42 905.75,-615.42 905.75,-615.42 905.75,-621.42 899.75,-627.42 893.75,-627.42"/>
<text xml:space="preserve" text-anchor="middle" x="851.73" y="-610.97" font-family="Helvetica,sans-Serif" font-size="11.00" fill="#f8fafc">S3 frontend bucket</text>
<text xml:space="preserve" text-anchor="middle" x="851.73" y="-598.97" font-family="Helvetica,sans-Serif" font-size="11.00" fill="#f8fafc">private origin</text>
</g>
<!-- cloudfront&#45;&gt;staticS3 -->
<g id="edge8" class="edge">
<title>cloudfront&#45;&gt;staticS3</title>
<path fill="none" stroke="#94a3b8" d="M654.92,-553.43C695.88,-565.14 749.01,-580.33 789.6,-591.94"/>
<polygon fill="#94a3b8" stroke="#94a3b8" points="788.68,-594.22 796.08,-593.79 790.03,-589.51 788.68,-594.22"/>
<text xml:space="preserve" text-anchor="middle" x="717.22" y="-580.25" font-family="Helvetica,sans-Serif" font-size="9.00" fill="#f8fafc">static assets</text>
</g>
<!-- imageS3 -->
<g id="node8" class="node">
<title>imageS3</title>
<path fill="#713f12" stroke="#64748b" d="M914.37,-559.42C914.37,-559.42 789.09,-559.42 789.09,-559.42 783.09,-559.42 777.09,-553.42 777.09,-547.42 777.09,-547.42 777.09,-535.42 777.09,-535.42 777.09,-529.42 783.09,-523.42 789.09,-523.42 789.09,-523.42 914.37,-523.42 914.37,-523.42 920.37,-523.42 926.37,-529.42 926.37,-535.42 926.37,-535.42 926.37,-547.42 926.37,-547.42 926.37,-553.42 920.37,-559.42 914.37,-559.42"/>
<text xml:space="preserve" text-anchor="middle" x="851.73" y="-536.97" font-family="Helvetica,sans-Serif" font-size="11.00" fill="#f8fafc">S3 inventory images bucket</text>
</g>
<!-- cloudfront&#45;&gt;imageS3 -->
<g id="edge9" class="edge">
<title>cloudfront&#45;&gt;imageS3</title>
<path fill="none" stroke="#94a3b8" d="M654.92,-536.88C689.14,-537.67 731.86,-538.66 768.65,-539.52"/>
<polygon fill="#94a3b8" stroke="#94a3b8" points="768.33,-541.96 775.38,-539.67 768.44,-537.06 768.33,-541.96"/>
<text xml:space="preserve" text-anchor="middle" x="717.22" y="-540.16" font-family="Helvetica,sans-Serif" font-size="9.00" fill="#f8fafc">inventory images</text>
</g>
<!-- logsS3 -->
<g id="node9" class="node">
<title>logsS3</title>
<path fill="#713f12" stroke="#64748b" d="M1508.68,-521.42C1508.68,-521.42 1396.9,-521.42 1396.9,-521.42 1390.9,-521.42 1384.9,-515.42 1384.9,-509.42 1384.9,-509.42 1384.9,-497.42 1384.9,-497.42 1384.9,-491.42 1390.9,-485.42 1396.9,-485.42 1396.9,-485.42 1508.68,-485.42 1508.68,-485.42 1514.68,-485.42 1520.68,-491.42 1520.68,-497.42 1520.68,-497.42 1520.68,-509.42 1520.68,-509.42 1520.68,-515.42 1514.68,-521.42 1508.68,-521.42"/>
<text xml:space="preserve" text-anchor="middle" x="1452.79" y="-504.97" font-family="Helvetica,sans-Serif" font-size="11.00" fill="#f8fafc">S3 edge/API logs bucket</text>
<text xml:space="preserve" text-anchor="middle" x="1452.79" y="-492.97" font-family="Helvetica,sans-Serif" font-size="11.00" fill="#f8fafc">CloudFront + ALB logs</text>
</g>
<!-- cloudfront&#45;&gt;logsS3 -->
<g id="edge10" class="edge">
<title>cloudfront&#45;&gt;logsS3</title>
<path fill="none" stroke="#94a3b8" d="M655.1,-523.56C690.77,-517.45 736.25,-510.61 777.09,-507.42 993.99,-490.46 1251.31,-496.01 1376.22,-500.33"/>
<polygon fill="#94a3b8" stroke="#94a3b8" points="1376.03,-502.77 1383.11,-500.57 1376.2,-497.87 1376.03,-502.77"/>
<text xml:space="preserve" text-anchor="middle" x="994.49" y="-499.44" font-family="Helvetica,sans-Serif" font-size="9.00" fill="#f8fafc">standard access logs</text>
</g>
<!-- regionalWaf -->
<g id="node10" class="node">
<title>regionalWaf</title>
<path fill="#7f1d1d" stroke="#64748b" d="M893.37,-404.42C893.37,-404.42 810.09,-404.42 810.09,-404.42 804.09,-404.42 798.09,-398.42 798.09,-392.42 798.09,-392.42 798.09,-380.42 798.09,-380.42 798.09,-374.42 804.09,-368.42 810.09,-368.42 810.09,-368.42 893.37,-368.42 893.37,-368.42 899.37,-368.42 905.37,-374.42 905.37,-380.42 905.37,-380.42 905.37,-392.42 905.37,-392.42 905.37,-398.42 899.37,-404.42 893.37,-404.42"/>
<text xml:space="preserve" text-anchor="middle" x="851.73" y="-387.97" font-family="Helvetica,sans-Serif" font-size="11.00" fill="#f8fafc">AWS WAF</text>
<text xml:space="preserve" text-anchor="middle" x="851.73" y="-375.97" font-family="Helvetica,sans-Serif" font-size="11.00" fill="#f8fafc">regional API scope</text>
</g>
<!-- cloudfront&#45;&gt;regionalWaf -->
<g id="edge11" class="edge">
<title>cloudfront&#45;&gt;regionalWaf</title>
<path fill="none" stroke="#94a3b8" d="M604.55,-517.25C620.36,-495.77 649.42,-460.32 682.34,-439.67 715.04,-419.16 756.31,-405.94 789.81,-397.81"/>
<polygon fill="#94a3b8" stroke="#94a3b8" points="789.98,-400.28 796.23,-396.29 788.85,-395.51 789.98,-400.28"/>
<text xml:space="preserve" text-anchor="middle" x="717.22" y="-440.87" font-family="Helvetica,sans-Serif" font-size="9.00" fill="#f8fafc">/api/*</text>
</g>
<!-- apiAlb -->
<g id="node11" class="node">
<title>apiAlb</title>
<path fill="#3730a3" stroke="#64748b" d="M1210.77,-341.42C1210.77,-341.42 1089.99,-341.42 1089.99,-341.42 1083.99,-341.42 1077.99,-335.42 1077.99,-329.42 1077.99,-329.42 1077.99,-317.42 1077.99,-317.42 1077.99,-311.42 1083.99,-305.42 1089.99,-305.42 1089.99,-305.42 1210.77,-305.42 1210.77,-305.42 1216.77,-305.42 1222.77,-311.42 1222.77,-317.42 1222.77,-317.42 1222.77,-329.42 1222.77,-329.42 1222.77,-335.42 1216.77,-341.42 1210.77,-341.42"/>
<text xml:space="preserve" text-anchor="middle" x="1150.38" y="-324.97" font-family="Helvetica,sans-Serif" font-size="11.00" fill="#f8fafc">API ingress / ALB</text>
<text xml:space="preserve" text-anchor="middle" x="1150.38" y="-312.97" font-family="Helvetica,sans-Serif" font-size="11.00" fill="#f8fafc">api.ensemble&#45;grafana.com</text>
</g>
<!-- regionalWaf&#45;&gt;apiAlb -->
<g id="edge12" class="edge">
<title>regionalWaf&#45;&gt;apiAlb</title>
<path fill="none" stroke="#94a3b8" d="M905.77,-375.16C951.25,-365.5 1017.46,-351.44 1069.38,-340.41"/>
<polygon fill="#94a3b8" stroke="#94a3b8" points="1069.76,-342.83 1076.1,-338.98 1068.74,-338.04 1069.76,-342.83"/>
</g>
<!-- apiAlb&#45;&gt;logsS3 -->
<g id="edge13" class="edge">
<title>apiAlb&#45;&gt;logsS3</title>
<path fill="none" stroke="#94a3b8" d="M1223.12,-340.75C1275.51,-354.76 1340.62,-375.41 1359.9,-395.67 1385.44,-422.52 1361.04,-449.1 1383.43,-478.76"/>
<polygon fill="#94a3b8" stroke="#94a3b8" points="1381.53,-480.31 1387.96,-484 1385.23,-477.1 1381.53,-480.31"/>
<text xml:space="preserve" text-anchor="middle" x="1311.52" y="-396.87" font-family="Helvetica,sans-Serif" font-size="9.00" fill="#f8fafc">ALB access logs</text>
</g>
<!-- inventory -->
<g id="node23" class="node">
<title>inventory</title>
<path fill="#14532d" stroke="#64748b" d="M1491.06,-372.42C1491.06,-372.42 1414.52,-372.42 1414.52,-372.42 1408.52,-372.42 1402.52,-366.42 1402.52,-360.42 1402.52,-360.42 1402.52,-348.42 1402.52,-348.42 1402.52,-342.42 1408.52,-336.42 1414.52,-336.42 1414.52,-336.42 1491.06,-336.42 1491.06,-336.42 1497.06,-336.42 1503.06,-342.42 1503.06,-348.42 1503.06,-348.42 1503.06,-360.42 1503.06,-360.42 1503.06,-366.42 1497.06,-372.42 1491.06,-372.42"/>
<text xml:space="preserve" text-anchor="middle" x="1452.79" y="-355.97" font-family="Helvetica,sans-Serif" font-size="11.00" fill="#f8fafc">inventory&#45;service</text>
<text xml:space="preserve" text-anchor="middle" x="1452.79" y="-343.97" font-family="Helvetica,sans-Serif" font-size="11.00" fill="#f8fafc">Spring Boot pods</text>
</g>
<!-- apiAlb&#45;&gt;inventory -->
<g id="edge14" class="edge">
<title>apiAlb&#45;&gt;inventory</title>
<path fill="none" stroke="#94a3b8" d="M1222.81,-330.47C1263.08,-334.48 1314.31,-339.64 1359.9,-344.42 1370.94,-345.58 1382.73,-346.84 1394.06,-348.07"/>
<polygon fill="#94a3b8" stroke="#94a3b8" points="1393.47,-350.47 1400.7,-348.79 1394,-345.6 1393.47,-350.47"/>
</g>
<!-- cart -->
<g id="node24" class="node">
<title>cart</title>
<path fill="#14532d" stroke="#64748b" d="M1491.06,-304.42C1491.06,-304.42 1414.52,-304.42 1414.52,-304.42 1408.52,-304.42 1402.52,-298.42 1402.52,-292.42 1402.52,-292.42 1402.52,-280.42 1402.52,-280.42 1402.52,-274.42 1408.52,-268.42 1414.52,-268.42 1414.52,-268.42 1491.06,-268.42 1491.06,-268.42 1497.06,-268.42 1503.06,-274.42 1503.06,-280.42 1503.06,-280.42 1503.06,-292.42 1503.06,-292.42 1503.06,-298.42 1497.06,-304.42 1491.06,-304.42"/>
<text xml:space="preserve" text-anchor="middle" x="1452.79" y="-287.97" font-family="Helvetica,sans-Serif" font-size="11.00" fill="#f8fafc">cart&#45;service</text>
<text xml:space="preserve" text-anchor="middle" x="1452.79" y="-275.97" font-family="Helvetica,sans-Serif" font-size="11.00" fill="#f8fafc">Spring Boot pods</text>
</g>
<!-- apiAlb&#45;&gt;cart -->
<g id="edge15" class="edge">
<title>apiAlb&#45;&gt;cart</title>
<path fill="none" stroke="#94a3b8" d="M1222.96,-314.6C1275.29,-308.16 1345.36,-299.53 1394.12,-293.52"/>
<polygon fill="#94a3b8" stroke="#94a3b8" points="1394.21,-295.98 1400.85,-292.69 1393.61,-291.12 1394.21,-295.98"/>
</g>
<!-- account -->
<g id="node25" class="node">
<title>account</title>
<path fill="#14532d" stroke="#64748b" d="M1491.06,-236.42C1491.06,-236.42 1414.52,-236.42 1414.52,-236.42 1408.52,-236.42 1402.52,-230.42 1402.52,-224.42 1402.52,-224.42 1402.52,-212.42 1402.52,-212.42 1402.52,-206.42 1408.52,-200.42 1414.52,-200.42 1414.52,-200.42 1491.06,-200.42 1491.06,-200.42 1497.06,-200.42 1503.06,-206.42 1503.06,-212.42 1503.06,-212.42 1503.06,-224.42 1503.06,-224.42 1503.06,-230.42 1497.06,-236.42 1491.06,-236.42"/>
<text xml:space="preserve" text-anchor="middle" x="1452.79" y="-219.97" font-family="Helvetica,sans-Serif" font-size="11.00" fill="#f8fafc">account&#45;service</text>
<text xml:space="preserve" text-anchor="middle" x="1452.79" y="-207.97" font-family="Helvetica,sans-Serif" font-size="11.00" fill="#f8fafc">Spring Boot pods</text>
</g>
<!-- apiAlb&#45;&gt;account -->
<g id="edge16" class="edge">
<title>apiAlb&#45;&gt;account</title>
<path fill="none" stroke="#94a3b8" d="M1204.06,-305.01C1257.3,-286.4 1339.36,-257.72 1394.28,-238.52"/>
<polygon fill="#94a3b8" stroke="#94a3b8" points="1394.95,-240.88 1400.75,-236.26 1393.33,-236.26 1394.95,-240.88"/>
</g>
<!-- google -->
<g id="node13" class="node">
<title>google</title>
<path fill="#4c1d95" stroke="#64748b" d="M645.34,-762.42C645.34,-762.42 536.56,-762.42 536.56,-762.42 530.56,-762.42 524.56,-756.42 524.56,-750.42 524.56,-750.42 524.56,-738.42 524.56,-738.42 524.56,-732.42 530.56,-726.42 536.56,-726.42 536.56,-726.42 645.34,-726.42 645.34,-726.42 651.34,-726.42 657.34,-732.42 657.34,-738.42 657.34,-738.42 657.34,-750.42 657.34,-750.42 657.34,-756.42 651.34,-762.42 645.34,-762.42"/>
<text xml:space="preserve" text-anchor="middle" x="590.95" y="-739.97" font-family="Helvetica,sans-Serif" font-size="11.00" fill="#f8fafc">Google Identity Provider</text>
</g>
<!-- cognito&#45;&gt;google -->
<g id="edge7" class="edge">
<title>cognito&#45;&gt;google</title>
<path fill="none" stroke="#94a3b8" d="M363.94,-744.42C406.41,-744.42 467.59,-744.42 515.59,-744.42"/>
<polygon fill="#94a3b8" stroke="#94a3b8" points="515.57,-746.87 522.57,-744.42 515.57,-741.97 515.57,-746.87"/>
</g>
<!-- postgres -->
<g id="node14" class="node">
<title>postgres</title>
<path fill="#14532d" stroke="#64748b" d="M1805.46,-113.15C1805.46,-114.95 1777.38,-116.42 1742.82,-116.42 1708.26,-116.42 1680.18,-114.95 1680.18,-113.15 1680.18,-113.15 1680.18,-83.69 1680.18,-83.69 1680.18,-81.89 1708.26,-80.42 1742.82,-80.42 1777.38,-80.42 1805.46,-81.89 1805.46,-83.69 1805.46,-83.69 1805.46,-113.15 1805.46,-113.15"/>
<path fill="none" stroke="#64748b" d="M1805.46,-113.15C1805.46,-111.34 1777.38,-109.87 1742.82,-109.87 1708.26,-109.87 1680.18,-111.34 1680.18,-113.15"/>
<text xml:space="preserve" text-anchor="middle" x="1742.82" y="-93.97" font-family="Helvetica,sans-Serif" font-size="11.00" fill="#f8fafc">Postgres inventory DB</text>
</g>
<!-- cloudwatch -->
<g id="node16" class="node">
<title>cloudwatch</title>
<path fill="#334155" stroke="#64748b" d="M2070.74,-148.42C2070.74,-148.42 1989.71,-148.42 1989.71,-148.42 1983.71,-148.42 1977.71,-142.42 1977.71,-136.42 1977.71,-136.42 1977.71,-124.42 1977.71,-124.42 1977.71,-118.42 1983.71,-112.42 1989.71,-112.42 1989.71,-112.42 2070.74,-112.42 2070.74,-112.42 2076.74,-112.42 2082.74,-118.42 2082.74,-124.42 2082.74,-124.42 2082.74,-136.42 2082.74,-136.42 2082.74,-142.42 2076.74,-148.42 2070.74,-148.42"/>
<text xml:space="preserve" text-anchor="middle" x="2030.22" y="-131.97" font-family="Helvetica,sans-Serif" font-size="11.00" fill="#f8fafc">AWS CloudWatch</text>
<text xml:space="preserve" text-anchor="middle" x="2030.22" y="-119.97" font-family="Helvetica,sans-Serif" font-size="11.00" fill="#f8fafc">RDS metrics</text>
</g>
<!-- postgres&#45;&gt;cloudwatch -->
<g id="edge20" class="edge">
<title>postgres&#45;&gt;cloudwatch</title>
<path fill="none" stroke="#94a3b8" d="M1805.63,-99.09C1838.13,-100.03 1878.56,-102.12 1914.46,-106.67 1932.4,-108.95 1951.72,-112.5 1969.3,-116.18"/>
<polygon fill="#94a3b8" stroke="#94a3b8" points="1968.4,-118.5 1975.76,-117.56 1969.42,-113.7 1968.4,-118.5"/>
<text xml:space="preserve" text-anchor="middle" x="1873.96" y="-107.87" font-family="Helvetica,sans-Serif" font-size="9.00" fill="#f8fafc">RDS metrics</text>
</g>
<!-- dynamodb -->
<g id="node15" class="node">
<title>dynamodb</title>
<path fill="#14532d" stroke="#64748b" d="M1793.83,-44.4C1793.83,-46.85 1770.97,-48.84 1742.82,-48.84 1714.67,-48.84 1691.8,-46.85 1691.8,-44.4 1691.8,-44.4 1691.8,-4.44 1691.8,-4.44 1691.8,-1.99 1714.67,0 1742.82,0 1770.97,0 1793.83,-1.99 1793.83,-4.44 1793.83,-4.44 1793.83,-44.4 1793.83,-44.4"/>
<path fill="none" stroke="#64748b" d="M1793.83,-44.4C1793.83,-41.95 1770.97,-39.96 1742.82,-39.96 1714.67,-39.96 1691.8,-41.95 1691.8,-44.4"/>
<text xml:space="preserve" text-anchor="middle" x="1742.82" y="-25.97" font-family="Helvetica,sans-Serif" font-size="11.00" fill="#f8fafc">DynamoDB</text>
<text xml:space="preserve" text-anchor="middle" x="1742.82" y="-13.97" font-family="Helvetica,sans-Serif" font-size="11.00" fill="#f8fafc">cart/account state</text>
</g>
<!-- cloudwatchScrape -->
<g id="node17" class="node">
<title>cloudwatchScrape</title>
<path fill="#581c87" stroke="#64748b" d="M1796.46,-184.42C1796.46,-184.42 1689.18,-184.42 1689.18,-184.42 1683.18,-184.42 1677.18,-178.42 1677.18,-172.42 1677.18,-172.42 1677.18,-160.42 1677.18,-160.42 1677.18,-154.42 1683.18,-148.42 1689.18,-148.42 1689.18,-148.42 1796.46,-148.42 1796.46,-148.42 1802.46,-148.42 1808.46,-154.42 1808.46,-160.42 1808.46,-160.42 1808.46,-172.42 1808.46,-172.42 1808.46,-178.42 1802.46,-184.42 1796.46,-184.42"/>
<text xml:space="preserve" text-anchor="middle" x="1742.82" y="-167.97" font-family="Helvetica,sans-Serif" font-size="11.00" fill="#f8fafc">Grafana Cloud Provider</text>
<text xml:space="preserve" text-anchor="middle" x="1742.82" y="-155.97" font-family="Helvetica,sans-Serif" font-size="11.00" fill="#f8fafc">AWS/RDS scrape job</text>
</g>
<!-- cloudwatchScrape&#45;&gt;cloudwatch -->
<g id="edge21" class="edge">
<title>cloudwatchScrape&#45;&gt;cloudwatch</title>
<path fill="none" stroke="#94a3b8" d="M1808.94,-158.21C1857.05,-152.14 1922.07,-143.94 1968.98,-138.02"/>
<polygon fill="#94a3b8" stroke="#94a3b8" points="1969.09,-140.47 1975.73,-137.17 1968.48,-135.61 1969.09,-140.47"/>
<text xml:space="preserve" text-anchor="middle" x="1873.96" y="-165.73" font-family="Helvetica,sans-Serif" font-size="9.00" fill="#f8fafc">assume AWS role</text>
<text xml:space="preserve" text-anchor="middle" x="1873.96" y="-155.98" font-family="Helvetica,sans-Serif" font-size="9.00" fill="#f8fafc">and scrape metrics</text>
</g>
<!-- cloudwatchScrape&#45;&gt;grafana -->
<g id="edge22" class="edge">
<title>cloudwatchScrape&#45;&gt;grafana</title>
<path fill="none" stroke="#94a3b8" d="M1803.6,-184.77C1805.29,-185.91 1806.91,-187.13 1808.46,-188.42 1933.64,-292.82 2000.75,-487.44 2021.83,-558"/>
<polygon fill="#94a3b8" stroke="#94a3b8" points="2019.43,-558.5 2023.75,-564.53 2024.13,-557.12 2019.43,-558.5"/>
<text xml:space="preserve" text-anchor="middle" x="1873.96" y="-311.13" font-family="Helvetica,sans-Serif" font-size="9.00" fill="#f8fafc">CloudWatch metrics</text>
</g>
<!-- k6 -->
<g id="node19" class="node">
<title>k6</title>
<path fill="#6b21a8" stroke="#64748b" d="M392.06,-694.18C392.06,-694.18 232.28,-694.18 232.28,-694.18 226.28,-694.18 220.28,-688.18 220.28,-682.18 220.28,-682.18 220.28,-658.66 220.28,-658.66 220.28,-652.66 226.28,-646.66 232.28,-646.66 232.28,-646.66 392.06,-646.66 392.06,-646.66 398.06,-646.66 404.06,-652.66 404.06,-658.66 404.06,-658.66 404.06,-682.18 404.06,-682.18 404.06,-688.18 398.06,-694.18 392.06,-694.18"/>
<text xml:space="preserve" text-anchor="middle" x="312.17" y="-677.97" font-family="Helvetica,sans-Serif" font-size="11.00" fill="#f8fafc">Grafana Cloud k6</text>
<text xml:space="preserve" text-anchor="middle" x="312.17" y="-665.97" font-family="Helvetica,sans-Serif" font-size="11.00" fill="#f8fafc">load tests</text>
<text xml:space="preserve" text-anchor="middle" x="312.17" y="-653.97" font-family="Helvetica,sans-Serif" font-size="11.00" fill="#f8fafc">100 rps baseline + browser checks</text>
</g>
<!-- k6&#45;&gt;cloudfront -->
<g id="edge25" class="edge">
<title>k6&#45;&gt;cloudfront</title>
<path fill="none" stroke="#94a3b8" d="M372.73,-646.36C383.36,-641.46 394.18,-636.07 404.06,-630.42 415.95,-623.63 417.25,-619.35 429.06,-612.42 458.89,-594.9 468.34,-594.32 499.56,-579.42 514.45,-572.31 530.66,-564.46 545.2,-557.37"/>
<polygon fill="#94a3b8" stroke="#94a3b8" points="546.05,-559.68 551.27,-554.41 543.91,-555.28 546.05,-559.68"/>
<text xml:space="preserve" text-anchor="middle" x="464.31" y="-642.87" font-family="Helvetica,sans-Serif" font-size="9.00" fill="#f8fafc">regional, spike,</text>
<text xml:space="preserve" text-anchor="middle" x="464.31" y="-633.12" font-family="Helvetica,sans-Serif" font-size="9.00" fill="#f8fafc">100 rps baseline,</text>
<text xml:space="preserve" text-anchor="middle" x="464.31" y="-623.37" font-family="Helvetica,sans-Serif" font-size="9.00" fill="#f8fafc">browser checks</text>
<text xml:space="preserve" text-anchor="middle" x="464.31" y="-613.62" font-family="Helvetica,sans-Serif" font-size="9.00" fill="#f8fafc">with traceparent</text>
</g>
<!-- k6&#45;&gt;grafana -->
<g id="edge26" class="edge">
<title>k6&#45;&gt;grafana</title>
<path fill="none" stroke="#94a3b8" d="M404.47,-673.39C458.42,-674.9 528.07,-676.42 589.95,-676.42 589.95,-676.42 589.95,-676.42 1743.82,-676.42 1834.56,-676.42 1934.05,-633.77 1988.3,-606.55"/>
<polygon fill="#94a3b8" stroke="#94a3b8" points="1989.17,-608.86 1994.3,-603.5 1986.95,-604.49 1989.17,-608.86"/>
<text xml:space="preserve" text-anchor="middle" x="1150.38" y="-677.62" font-family="Helvetica,sans-Serif" font-size="9.00" fill="#f8fafc">test results + trace correlation</text>
</g>
<!-- accountBaseline -->
<g id="node20" class="node">
<title>accountBaseline</title>
<path fill="#334155" stroke="#64748b" d="M1226.15,-425.42C1226.15,-425.42 1074.62,-425.42 1074.62,-425.42 1068.62,-425.42 1062.62,-419.42 1062.62,-413.42 1062.62,-413.42 1062.62,-401.42 1062.62,-401.42 1062.62,-395.42 1068.62,-389.42 1074.62,-389.42 1074.62,-389.42 1226.15,-389.42 1226.15,-389.42 1232.15,-389.42 1238.15,-395.42 1238.15,-401.42 1238.15,-401.42 1238.15,-413.42 1238.15,-413.42 1238.15,-419.42 1232.15,-425.42 1226.15,-425.42"/>
<text xml:space="preserve" text-anchor="middle" x="1150.38" y="-408.97" font-family="Helvetica,sans-Serif" font-size="11.00" fill="#f8fafc">Terraform account&#45;baseline stack</text>
<text xml:space="preserve" text-anchor="middle" x="1150.38" y="-396.97" font-family="Helvetica,sans-Serif" font-size="11.00" fill="#f8fafc">SSM host&#45;management setting</text>
</g>
<!-- beyla -->
<g id="node21" class="node">
<title>beyla</title>
<path fill="#581c87" stroke="#64748b" d="M1483.93,-440.42C1483.93,-440.42 1421.65,-440.42 1421.65,-440.42 1415.65,-440.42 1409.65,-434.42 1409.65,-428.42 1409.65,-428.42 1409.65,-416.42 1409.65,-416.42 1409.65,-410.42 1415.65,-404.42 1421.65,-404.42 1421.65,-404.42 1483.93,-404.42 1483.93,-404.42 1489.93,-404.42 1495.93,-410.42 1495.93,-416.42 1495.93,-416.42 1495.93,-428.42 1495.93,-428.42 1495.93,-434.42 1489.93,-440.42 1483.93,-440.42"/>
<text xml:space="preserve" text-anchor="middle" x="1452.79" y="-417.97" font-family="Helvetica,sans-Serif" font-size="11.00" fill="#f8fafc">Grafana Beyla</text>
</g>
<!-- accountBaseline&#45;&gt;beyla -->
<g id="edge24" class="edge">
<title>accountBaseline&#45;&gt;beyla</title>
<path fill="none" stroke="#94a3b8" d="M1238.27,-411.76C1291.02,-414.39 1356.51,-417.66 1400.96,-419.88"/>
<polygon fill="#94a3b8" stroke="#94a3b8" points="1400.65,-422.32 1407.77,-420.22 1400.9,-417.43 1400.65,-422.32"/>
<text xml:space="preserve" text-anchor="middle" x="1311.52" y="-418.77" font-family="Helvetica,sans-Serif" font-size="9.00" fill="#f8fafc">SSM default role setting</text>
</g>
<!-- alloy -->
<g id="node22" class="node">
<title>alloy</title>
<path fill="#581c87" stroke="#64748b" d="M1771.71,-372.42C1771.71,-372.42 1713.93,-372.42 1713.93,-372.42 1707.93,-372.42 1701.93,-366.42 1701.93,-360.42 1701.93,-360.42 1701.93,-348.42 1701.93,-348.42 1701.93,-342.42 1707.93,-336.42 1713.93,-336.42 1713.93,-336.42 1771.71,-336.42 1771.71,-336.42 1777.71,-336.42 1783.71,-342.42 1783.71,-348.42 1783.71,-348.42 1783.71,-360.42 1783.71,-360.42 1783.71,-366.42 1777.71,-372.42 1771.71,-372.42"/>
<text xml:space="preserve" text-anchor="middle" x="1742.82" y="-355.97" font-family="Helvetica,sans-Serif" font-size="11.00" fill="#f8fafc">Grafana Alloy</text>
<text xml:space="preserve" text-anchor="middle" x="1742.82" y="-343.97" font-family="Helvetica,sans-Serif" font-size="11.00" fill="#f8fafc">OTel collector</text>
</g>
<!-- beyla&#45;&gt;alloy -->
<g id="edge27" class="edge">
<title>beyla&#45;&gt;alloy</title>
<path fill="none" stroke="#94a3b8" d="M1496.29,-412.39C1548.83,-399.98 1638.05,-378.92 1693.25,-365.89"/>
<polygon fill="#94a3b8" stroke="#94a3b8" points="1693.75,-368.29 1700,-364.29 1692.62,-363.52 1693.75,-368.29"/>
<text xml:space="preserve" text-anchor="middle" x="1598.93" y="-401.62" font-family="Helvetica,sans-Serif" font-size="9.00" fill="#f8fafc">zero&#45;code HTTP telemetry</text>
</g>
<!-- alloy&#45;&gt;grafana -->
<g id="edge31" class="edge">
<title>alloy&#45;&gt;grafana</title>
<path fill="none" stroke="#94a3b8" d="M1766.69,-372.85C1818.17,-414.34 1943.08,-515 2000.04,-560.9"/>
<polygon fill="#94a3b8" stroke="#94a3b8" points="1998.47,-562.78 2005.46,-565.27 2001.55,-558.97 1998.47,-562.78"/>
</g>
<!-- inventory&#45;&gt;postgres -->
<g id="edge17" class="edge">
<title>inventory&#45;&gt;postgres</title>
<path fill="none" stroke="#94a3b8" d="M1501.86,-336.1C1508.89,-331.79 1515.49,-326.61 1520.68,-320.42 1545.17,-291.24 1523.05,-269.07 1545.68,-238.42 1579.62,-192.46 1610.99,-206.01 1652.18,-166.42 1665.7,-153.42 1662.96,-144.65 1677.18,-132.42 1682.11,-128.18 1687.67,-124.27 1693.39,-120.73"/>
<polygon fill="#94a3b8" stroke="#94a3b8" points="1694.6,-122.86 1699.4,-117.21 1692.12,-118.63 1694.6,-122.86"/>
</g>
<!-- inventory&#45;&gt;alloy -->
<g id="edge28" class="edge">
<title>inventory&#45;&gt;alloy</title>
<path fill="none" stroke="#94a3b8" d="M1503.3,-354.42C1556.59,-354.42 1640.77,-354.42 1693.56,-354.42"/>
<polygon fill="#94a3b8" stroke="#94a3b8" points="1693.24,-356.87 1700.24,-354.42 1693.24,-351.97 1693.24,-356.87"/>
<text xml:space="preserve" text-anchor="middle" x="1598.93" y="-355.62" font-family="Helvetica,sans-Serif" font-size="9.00" fill="#f8fafc">OTel + Prometheus</text>
</g>
<!-- cart&#45;&gt;dynamodb -->
<g id="edge18" class="edge">
<title>cart&#45;&gt;dynamodb</title>
<path fill="none" stroke="#94a3b8" d="M1502.34,-268C1509.22,-263.72 1515.65,-258.57 1520.68,-252.42 1546.97,-220.29 1518.89,-194.13 1545.68,-162.42 1579.42,-122.47 1614.45,-148.62 1652.18,-112.42 1669.54,-95.77 1660.81,-82.05 1677.18,-64.42 1681.13,-60.17 1685.63,-56.19 1690.38,-52.53"/>
<polygon fill="#94a3b8" stroke="#94a3b8" points="1691.54,-54.72 1695.76,-48.62 1688.65,-50.75 1691.54,-54.72"/>
</g>
<!-- cart&#45;&gt;alloy -->
<g id="edge29" class="edge">
<title>cart&#45;&gt;alloy</title>
<path fill="none" stroke="#94a3b8" d="M1503.3,-298.11C1556.59,-310.69 1640.77,-330.56 1693.56,-343.03"/>
<polygon fill="#94a3b8" stroke="#94a3b8" points="1692.91,-345.39 1700.28,-344.61 1694.03,-340.62 1692.91,-345.39"/>
<text xml:space="preserve" text-anchor="middle" x="1598.93" y="-333.62" font-family="Helvetica,sans-Serif" font-size="9.00" fill="#f8fafc">OTel + Prometheus</text>
</g>
<!-- account&#45;&gt;dynamodb -->
<g id="edge19" class="edge">
<title>account&#45;&gt;dynamodb</title>
<path fill="none" stroke="#94a3b8" d="M1466.63,-200.18C1482.94,-178.05 1512.94,-140.7 1545.68,-116.42 1588.11,-84.96 1643.02,-60.32 1683.95,-44.5"/>
<polygon fill="#94a3b8" stroke="#94a3b8" points="1684.6,-46.87 1690.26,-42.09 1682.85,-42.3 1684.6,-46.87"/>
</g>
<!-- account&#45;&gt;alloy -->
<g id="edge30" class="edge">
<title>account&#45;&gt;alloy</title>
<path fill="none" stroke="#94a3b8" d="M1503.45,-232.42C1544.56,-244.96 1603.83,-265.27 1652.18,-290.67 1673.82,-302.04 1696.23,-317.98 1713.23,-331.07"/>
<polygon fill="#94a3b8" stroke="#94a3b8" points="1711.48,-332.82 1718.51,-335.19 1714.5,-328.95 1711.48,-332.82"/>
<text xml:space="preserve" text-anchor="middle" x="1598.93" y="-291.87" font-family="Helvetica,sans-Serif" font-size="9.00" fill="#f8fafc">OTel + Prometheus</text>
</g>
</g>
</svg>
