<?xml version="1.0" encoding="UTF-8" standalone="no"?>
<!DOCTYPE svg PUBLIC "-//W3C//DTD SVG 1.1//EN"
 "http://www.w3.org/Graphics/SVG/1.1/DTD/svg11.dtd">
<!-- Generated by graphviz version 15.0.0 (20260523.1842)
 -->
<!-- Title: network_diagram Pages: 1 -->
<svg width="2193pt" height="885pt"
 viewBox="0.00 0.00 2193.00 885.00" xmlns="http://www.w3.org/2000/svg" xmlns:xlink="http://www.w3.org/1999/xlink">
<g id="graph0" class="graph" transform="scale(1 1) rotate(0) translate(18 867.17)">
<title>network_diagram</title>
<polygon fill="white" stroke="none" points="-18,18 -18,-867.17 2174.99,-867.17 2174.99,18 -18,18"/>
<text xml:space="preserve" text-anchor="middle" x="1078.49" y="-826.17" font-family="Helvetica,sans-Serif" font-size="20.00">Ensemble&#45;Grafana Network Diagram</text>
<g id="clust1" class="cluster">
<title>cluster_eks</title>
<path fill="white" stroke="#94a3b8" stroke-dasharray="5,2" d="M1442.52,-192.42C1442.52,-192.42 1815.71,-192.42 1815.71,-192.42 1821.71,-192.42 1827.71,-198.42 1827.71,-204.42 1827.71,-204.42 1827.71,-465.42 1827.71,-465.42 1827.71,-471.42 1821.71,-477.42 1815.71,-477.42 1815.71,-477.42 1442.52,-477.42 1442.52,-477.42 1436.52,-477.42 1430.52,-471.42 1430.52,-465.42 1430.52,-465.42 1430.52,-204.42 1430.52,-204.42 1430.52,-198.42 1436.52,-192.42 1442.52,-192.42"/>
<text xml:space="preserve" text-anchor="middle" x="1629.12" y="-454.42" font-family="Helvetica,sans-Serif" font-size="20.00">EKS cluster</text>
</g>
<!-- shopper -->
<g id="node1" class="node">
<title>shopper</title>
<path fill="#dbeafe" stroke="#334155" d="M88.53,-761.42C88.53,-761.42 12,-761.42 12,-761.42 6,-761.42 0,-755.42 0,-749.42 0,-749.42 0,-737.42 0,-737.42 0,-731.42 6,-725.42 12,-725.42 12,-725.42 88.53,-725.42 88.53,-725.42 94.53,-725.42 100.53,-731.42 100.53,-737.42 100.53,-737.42 100.53,-749.42 100.53,-749.42 100.53,-755.42 94.53,-761.42 88.53,-761.42"/>
<text xml:space="preserve" text-anchor="middle" x="50.26" y="-738.97" font-family="Helvetica,sans-Serif" font-size="11.00">Shopper browser</text>
</g>
<!-- edgeWaf -->
<g id="node5" class="node">
<title>edgeWaf</title>
<path fill="#fee2e2" stroke="#334155" d="M340.68,-625.42C340.68,-625.42 261.9,-625.42 261.9,-625.42 255.9,-625.42 249.9,-619.42 249.9,-613.42 249.9,-613.42 249.9,-601.42 249.9,-601.42 249.9,-595.42 255.9,-589.42 261.9,-589.42 261.9,-589.42 340.68,-589.42 340.68,-589.42 346.68,-589.42 352.68,-595.42 352.68,-601.42 352.68,-601.42 352.68,-613.42 352.68,-613.42 352.68,-619.42 346.68,-625.42 340.68,-625.42"/>
<text xml:space="preserve" text-anchor="middle" x="301.29" y="-608.97" font-family="Helvetica,sans-Serif" font-size="11.00">AWS WAF</text>
<text xml:space="preserve" text-anchor="middle" x="301.29" y="-596.97" font-family="Helvetica,sans-Serif" font-size="11.00">CloudFront scope</text>
</g>
<!-- shopper&#45;&gt;edgeWaf -->
<g id="edge4" class="edge">
<title>shopper&#45;&gt;edgeWaf</title>
<path fill="none" stroke="#475569" d="M78.98,-725.03C111.9,-703.57 168.86,-667.7 220.28,-641.42 228.6,-637.17 237.57,-632.99 246.39,-629.09"/>
<polygon fill="#475569" stroke="#475569" points="247.26,-631.39 252.7,-626.35 245.3,-626.89 247.26,-631.39"/>
<text xml:space="preserve" text-anchor="middle" x="160.4" y="-695.77" font-family="Helvetica,sans-Serif" font-size="9.00" fill="#334155">HTTPS storefront</text>
</g>
<!-- cognito -->
<g id="node12" class="node">
<title>cognito</title>
<path fill="#ede9fe" stroke="#334155" d="M340.68,-761.42C340.68,-761.42 261.9,-761.42 261.9,-761.42 255.9,-761.42 249.9,-755.42 249.9,-749.42 249.9,-749.42 249.9,-737.42 249.9,-737.42 249.9,-731.42 255.9,-725.42 261.9,-725.42 261.9,-725.42 340.68,-725.42 340.68,-725.42 346.68,-725.42 352.68,-731.42 352.68,-737.42 352.68,-737.42 352.68,-749.42 352.68,-749.42 352.68,-755.42 346.68,-761.42 340.68,-761.42"/>
<text xml:space="preserve" text-anchor="middle" x="301.29" y="-744.97" font-family="Helvetica,sans-Serif" font-size="11.00">AWS Cognito</text>
<text xml:space="preserve" text-anchor="middle" x="301.29" y="-732.97" font-family="Helvetica,sans-Serif" font-size="11.00">Google federation</text>
</g>
<!-- shopper&#45;&gt;cognito -->
<g id="edge6" class="edge">
<title>shopper&#45;&gt;cognito</title>
<path fill="none" stroke="#475569" d="M100.76,-743.42C141.19,-743.42 198.43,-743.42 241.25,-743.42"/>
<polygon fill="#475569" stroke="#475569" points="241.1,-745.87 248.1,-743.42 241.1,-740.97 241.1,-745.87"/>
<text xml:space="preserve" text-anchor="middle" x="160.4" y="-744.62" font-family="Helvetica,sans-Serif" font-size="9.00" fill="#334155">Google sign&#45;in</text>
</g>
<!-- grafana -->
<g id="node18" class="node">
<title>grafana</title>
<path fill="#f3e8ff" stroke="#334155" d="M2144.99,-602.42C2144.99,-602.42 1987.46,-602.42 1987.46,-602.42 1981.46,-602.42 1975.46,-596.42 1975.46,-590.42 1975.46,-590.42 1975.46,-578.42 1975.46,-578.42 1975.46,-572.42 1981.46,-566.42 1987.46,-566.42 1987.46,-566.42 2144.99,-566.42 2144.99,-566.42 2150.99,-566.42 2156.99,-572.42 2156.99,-578.42 2156.99,-578.42 2156.99,-590.42 2156.99,-590.42 2156.99,-596.42 2150.99,-602.42 2144.99,-602.42"/>
<text xml:space="preserve" text-anchor="middle" x="2066.22" y="-585.97" font-family="Helvetica,sans-Serif" font-size="11.00">Grafana Cloud</text>
<text xml:space="preserve" text-anchor="middle" x="2066.22" y="-573.97" font-family="Helvetica,sans-Serif" font-size="11.00">Faro, metrics, logs, traces, profiles</text>
</g>
<!-- shopper&#45;&gt;grafana -->
<g id="edge23" class="edge">
<title>shopper&#45;&gt;grafana</title>
<path fill="none" stroke="#475569" d="M93.09,-761.91C141.83,-781.74 225.3,-810.42 300.29,-810.42 300.29,-810.42 300.29,-810.42 1779.82,-810.42 1907.71,-810.42 2011.74,-669.23 2049.72,-610.04"/>
<polygon fill="#475569" stroke="#475569" points="2051.75,-611.42 2053.42,-604.19 2047.61,-608.8 2051.75,-611.42"/>
<text xml:space="preserve" text-anchor="middle" x="1030.49" y="-811.62" font-family="Helvetica,sans-Serif" font-size="9.00" fill="#334155">Faro web telemetry</text>
</g>
<!-- registrar -->
<g id="node2" class="node">
<title>registrar</title>
<path fill="#f8fafc" stroke="#334155" d="M87.03,-557.42C87.03,-557.42 13.5,-557.42 13.5,-557.42 7.5,-557.42 1.5,-551.42 1.5,-545.42 1.5,-545.42 1.5,-533.42 1.5,-533.42 1.5,-527.42 7.5,-521.42 13.5,-521.42 13.5,-521.42 87.03,-521.42 87.03,-521.42 93.03,-521.42 99.03,-527.42 99.03,-533.42 99.03,-533.42 99.03,-545.42 99.03,-545.42 99.03,-551.42 93.03,-557.42 87.03,-557.42"/>
<text xml:space="preserve" text-anchor="middle" x="50.26" y="-534.97" font-family="Helvetica,sans-Serif" font-size="11.00">Domain registrar</text>
</g>
<!-- route53 -->
<g id="node3" class="node">
<title>route53</title>
<path fill="#e0f2fe" stroke="#334155" d="M353.06,-557.42C353.06,-557.42 249.53,-557.42 249.53,-557.42 243.53,-557.42 237.53,-551.42 237.53,-545.42 237.53,-545.42 237.53,-533.42 237.53,-533.42 237.53,-527.42 243.53,-521.42 249.53,-521.42 249.53,-521.42 353.06,-521.42 353.06,-521.42 359.06,-521.42 365.06,-527.42 365.06,-533.42 365.06,-533.42 365.06,-545.42 365.06,-545.42 365.06,-551.42 359.06,-557.42 353.06,-557.42"/>
<text xml:space="preserve" text-anchor="middle" x="301.29" y="-540.97" font-family="Helvetica,sans-Serif" font-size="11.00">Route53 hosted zone</text>
<text xml:space="preserve" text-anchor="middle" x="301.29" y="-528.97" font-family="Helvetica,sans-Serif" font-size="11.00">ensemble&#45;grafana.com</text>
</g>
<!-- registrar&#45;&gt;route53 -->
<g id="edge1" class="edge">
<title>registrar&#45;&gt;route53</title>
<path fill="none" stroke="#475569" d="M99.28,-539.42C136.04,-539.42 187.32,-539.42 228.89,-539.42"/>
<polygon fill="#475569" stroke="#475569" points="228.82,-541.87 235.82,-539.42 228.82,-536.97 228.82,-541.87"/>
<text xml:space="preserve" text-anchor="middle" x="160.4" y="-540.62" font-family="Helvetica,sans-Serif" font-size="9.00" fill="#334155">NS delegation</text>
</g>
<!-- cloudfront -->
<g id="node6" class="node">
<title>cloudfront</title>
<path fill="#dbeafe" stroke="#334155" d="M678.71,-558.42C678.71,-558.42 575.18,-558.42 575.18,-558.42 569.18,-558.42 563.18,-552.42 563.18,-546.42 563.18,-546.42 563.18,-534.42 563.18,-534.42 563.18,-528.42 569.18,-522.42 575.18,-522.42 575.18,-522.42 678.71,-522.42 678.71,-522.42 684.71,-522.42 690.71,-528.42 690.71,-534.42 690.71,-534.42 690.71,-546.42 690.71,-546.42 690.71,-552.42 684.71,-558.42 678.71,-558.42"/>
<text xml:space="preserve" text-anchor="middle" x="626.95" y="-541.97" font-family="Helvetica,sans-Serif" font-size="11.00">CloudFront distribution</text>
<text xml:space="preserve" text-anchor="middle" x="626.95" y="-529.97" font-family="Helvetica,sans-Serif" font-size="11.00">ensemble&#45;grafana.com</text>
</g>
<!-- route53&#45;&gt;cloudfront -->
<g id="edge2" class="edge">
<title>route53&#45;&gt;cloudfront</title>
<path fill="none" stroke="#475569" d="M365.16,-539.36C412.11,-539.35 477.85,-539.4 535.56,-539.67 541.74,-539.7 548.16,-539.74 554.59,-539.78"/>
<polygon fill="#475569" stroke="#475569" points="554.2,-542.23 561.22,-539.83 554.24,-537.33 554.2,-542.23"/>
<text xml:space="preserve" text-anchor="middle" x="471.43" y="-540.87" font-family="Helvetica,sans-Serif" font-size="9.00" fill="#334155">A / AAAA alias</text>
</g>
<!-- acm -->
<g id="node4" class="node">
<title>acm</title>
<path fill="#ecfeff" stroke="#334155" d="M345.93,-489.42C345.93,-489.42 256.65,-489.42 256.65,-489.42 250.65,-489.42 244.65,-483.42 244.65,-477.42 244.65,-477.42 244.65,-465.42 244.65,-465.42 244.65,-459.42 250.65,-453.42 256.65,-453.42 256.65,-453.42 345.93,-453.42 345.93,-453.42 351.93,-453.42 357.93,-459.42 357.93,-465.42 357.93,-465.42 357.93,-477.42 357.93,-477.42 357.93,-483.42 351.93,-489.42 345.93,-489.42"/>
<text xml:space="preserve" text-anchor="middle" x="301.29" y="-472.97" font-family="Helvetica,sans-Serif" font-size="11.00">ACM certificate</text>
<text xml:space="preserve" text-anchor="middle" x="301.29" y="-460.97" font-family="Helvetica,sans-Serif" font-size="11.00">us&#45;east&#45;1 / ISSUED</text>
</g>
<!-- acm&#45;&gt;cloudfront -->
<g id="edge3" class="edge">
<title>acm&#45;&gt;cloudfront</title>
<path fill="none" stroke="#475569" d="M358.3,-483.36C412.73,-494.96 495.61,-512.63 554.71,-525.23"/>
<polygon fill="#475569" stroke="#475569" points="554.04,-527.6 561.4,-526.66 555.07,-522.8 554.04,-527.6"/>
<text xml:space="preserve" text-anchor="middle" x="471.43" y="-521.23" font-family="Helvetica,sans-Serif" font-size="9.00" fill="#334155">TLS certificate</text>
</g>
<!-- edgeWaf&#45;&gt;cloudfront -->
<g id="edge5" class="edge">
<title>edgeWaf&#45;&gt;cloudfront</title>
<path fill="none" stroke="#475569" d="M352.87,-596.95C407.14,-585.72 493.79,-567.78 554.9,-555.13"/>
<polygon fill="#475569" stroke="#475569" points="555.13,-557.58 561.49,-553.76 554.14,-552.78 555.13,-557.58"/>
</g>
<!-- staticS3 -->
<g id="node7" class="node">
<title>staticS3</title>
<path fill="#fef3c7" stroke="#334155" d="M929.74,-627.42C929.74,-627.42 845.71,-627.42 845.71,-627.42 839.71,-627.42 833.71,-621.42 833.71,-615.42 833.71,-615.42 833.71,-603.42 833.71,-603.42 833.71,-597.42 839.71,-591.42 845.71,-591.42 845.71,-591.42 929.74,-591.42 929.74,-591.42 935.74,-591.42 941.74,-597.42 941.74,-603.42 941.74,-603.42 941.74,-615.42 941.74,-615.42 941.74,-621.42 935.74,-627.42 929.74,-627.42"/>
<text xml:space="preserve" text-anchor="middle" x="887.73" y="-610.97" font-family="Helvetica,sans-Serif" font-size="11.00">S3 frontend bucket</text>
<text xml:space="preserve" text-anchor="middle" x="887.73" y="-598.97" font-family="Helvetica,sans-Serif" font-size="11.00">private origin</text>
</g>
<!-- cloudfront&#45;&gt;staticS3 -->
<g id="edge8" class="edge">
<title>cloudfront&#45;&gt;staticS3</title>
<path fill="none" stroke="#475569" d="M690.92,-557.21C731.79,-568.11 784.79,-582.24 825.34,-593.05"/>
<polygon fill="#475569" stroke="#475569" points="824.68,-595.41 832.08,-594.85 825.94,-590.68 824.68,-595.41"/>
<text xml:space="preserve" text-anchor="middle" x="753.21" y="-582.3" font-family="Helvetica,sans-Serif" font-size="9.00" fill="#334155">static assets</text>
</g>
<!-- imageS3 -->
<g id="node8" class="node">
<title>imageS3</title>
<path fill="#fef3c7" stroke="#334155" d="M950.37,-559.42C950.37,-559.42 825.09,-559.42 825.09,-559.42 819.09,-559.42 813.09,-553.42 813.09,-547.42 813.09,-547.42 813.09,-535.42 813.09,-535.42 813.09,-529.42 819.09,-523.42 825.09,-523.42 825.09,-523.42 950.37,-523.42 950.37,-523.42 956.37,-523.42 962.37,-529.42 962.37,-535.42 962.37,-535.42 962.37,-547.42 962.37,-547.42 962.37,-553.42 956.37,-559.42 950.37,-559.42"/>
<text xml:space="preserve" text-anchor="middle" x="887.73" y="-536.97" font-family="Helvetica,sans-Serif" font-size="11.00">S3 inventory images bucket</text>
</g>
<!-- cloudfront&#45;&gt;imageS3 -->
<g id="edge9" class="edge">
<title>cloudfront&#45;&gt;imageS3</title>
<path fill="none" stroke="#475569" d="M690.92,-540.66C725.14,-540.8 767.86,-540.96 804.65,-541.1"/>
<polygon fill="#475569" stroke="#475569" points="804.37,-543.55 811.38,-541.13 804.39,-538.65 804.37,-543.55"/>
<text xml:space="preserve" text-anchor="middle" x="753.21" y="-542.21" font-family="Helvetica,sans-Serif" font-size="9.00" fill="#334155">inventory images</text>
</g>
<!-- logsS3 -->
<g id="node9" class="node">
<title>logsS3</title>
<path fill="#fef3c7" stroke="#334155" d="M1544.68,-521.42C1544.68,-521.42 1432.9,-521.42 1432.9,-521.42 1426.9,-521.42 1420.9,-515.42 1420.9,-509.42 1420.9,-509.42 1420.9,-497.42 1420.9,-497.42 1420.9,-491.42 1426.9,-485.42 1432.9,-485.42 1432.9,-485.42 1544.68,-485.42 1544.68,-485.42 1550.68,-485.42 1556.68,-491.42 1556.68,-497.42 1556.68,-497.42 1556.68,-509.42 1556.68,-509.42 1556.68,-515.42 1550.68,-521.42 1544.68,-521.42"/>
<text xml:space="preserve" text-anchor="middle" x="1488.79" y="-504.97" font-family="Helvetica,sans-Serif" font-size="11.00">S3 edge/API logs bucket</text>
<text xml:space="preserve" text-anchor="middle" x="1488.79" y="-492.97" font-family="Helvetica,sans-Serif" font-size="11.00">CloudFront + ALB logs</text>
</g>
<!-- cloudfront&#45;&gt;logsS3 -->
<g id="edge10" class="edge">
<title>cloudfront&#45;&gt;logsS3</title>
<path fill="none" stroke="#475569" d="M691,-526.43C726.63,-519.22 772.12,-511.16 813.09,-507.42 1029.75,-487.61 1287.17,-494.44 1412.17,-499.68"/>
<polygon fill="#475569" stroke="#475569" points="1411.96,-502.13 1419.06,-499.98 1412.17,-497.23 1411.96,-502.13"/>
<text xml:space="preserve" text-anchor="middle" x="1030.49" y="-497.96" font-family="Helvetica,sans-Serif" font-size="9.00" fill="#334155">standard access logs</text>
</g>
<!-- regionalWaf -->
<g id="node10" class="node">
<title>regionalWaf</title>
<path fill="#fee2e2" stroke="#334155" d="M929.37,-380.42C929.37,-380.42 846.09,-380.42 846.09,-380.42 840.09,-380.42 834.09,-374.42 834.09,-368.42 834.09,-368.42 834.09,-356.42 834.09,-356.42 834.09,-350.42 840.09,-344.42 846.09,-344.42 846.09,-344.42 929.37,-344.42 929.37,-344.42 935.37,-344.42 941.37,-350.42 941.37,-356.42 941.37,-356.42 941.37,-368.42 941.37,-368.42 941.37,-374.42 935.37,-380.42 929.37,-380.42"/>
<text xml:space="preserve" text-anchor="middle" x="887.73" y="-363.97" font-family="Helvetica,sans-Serif" font-size="11.00">AWS WAF</text>
<text xml:space="preserve" text-anchor="middle" x="887.73" y="-351.97" font-family="Helvetica,sans-Serif" font-size="11.00">regional API scope</text>
</g>
<!-- cloudfront&#45;&gt;regionalWaf -->
<g id="edge11" class="edge">
<title>cloudfront&#45;&gt;regionalWaf</title>
<path fill="none" stroke="#475569" d="M640.81,-521.97C656.87,-500.02 686.17,-463.36 718.34,-439.67 750.95,-415.65 792.21,-396.58 825.73,-383.39"/>
<polygon fill="#475569" stroke="#475569" points="826.58,-385.69 832.22,-380.87 824.81,-381.12 826.58,-385.69"/>
<text xml:space="preserve" text-anchor="middle" x="753.21" y="-440.87" font-family="Helvetica,sans-Serif" font-size="9.00" fill="#334155">/api/*</text>
</g>
<!-- apiAlb -->
<g id="node11" class="node">
<title>apiAlb</title>
<path fill="#e0e7ff" stroke="#334155" d="M1246.77,-341.42C1246.77,-341.42 1125.99,-341.42 1125.99,-341.42 1119.99,-341.42 1113.99,-335.42 1113.99,-329.42 1113.99,-329.42 1113.99,-317.42 1113.99,-317.42 1113.99,-311.42 1119.99,-305.42 1125.99,-305.42 1125.99,-305.42 1246.77,-305.42 1246.77,-305.42 1252.77,-305.42 1258.77,-311.42 1258.77,-317.42 1258.77,-317.42 1258.77,-329.42 1258.77,-329.42 1258.77,-335.42 1252.77,-341.42 1246.77,-341.42"/>
<text xml:space="preserve" text-anchor="middle" x="1186.38" y="-324.97" font-family="Helvetica,sans-Serif" font-size="11.00">API ingress / ALB</text>
<text xml:space="preserve" text-anchor="middle" x="1186.38" y="-312.97" font-family="Helvetica,sans-Serif" font-size="11.00">api.ensemble&#45;grafana.com</text>
</g>
<!-- regionalWaf&#45;&gt;apiAlb -->
<g id="edge12" class="edge">
<title>regionalWaf&#45;&gt;apiAlb</title>
<path fill="none" stroke="#475569" d="M941.77,-355.45C987.25,-349.47 1053.46,-340.76 1105.38,-333.94"/>
<polygon fill="#475569" stroke="#475569" points="1105.46,-336.4 1112.08,-333.06 1104.82,-331.54 1105.46,-336.4"/>
</g>
<!-- apiAlb&#45;&gt;logsS3 -->
<g id="edge13" class="edge">
<title>apiAlb&#45;&gt;logsS3</title>
<path fill="none" stroke="#475569" d="M1259.12,-340.75C1311.51,-354.76 1376.62,-375.41 1395.9,-395.67 1421.44,-422.52 1397.04,-449.1 1419.43,-478.76"/>
<polygon fill="#475569" stroke="#475569" points="1417.53,-480.31 1423.96,-484 1421.23,-477.1 1417.53,-480.31"/>
<text xml:space="preserve" text-anchor="middle" x="1347.52" y="-396.87" font-family="Helvetica,sans-Serif" font-size="9.00" fill="#334155">ALB access logs</text>
</g>
<!-- inventory -->
<g id="node23" class="node">
<title>inventory</title>
<path fill="#dcfce7" stroke="#334155" d="M1527.05,-372.42C1527.05,-372.42 1450.52,-372.42 1450.52,-372.42 1444.52,-372.42 1438.52,-366.42 1438.52,-360.42 1438.52,-360.42 1438.52,-348.42 1438.52,-348.42 1438.52,-342.42 1444.52,-336.42 1450.52,-336.42 1450.52,-336.42 1527.05,-336.42 1527.05,-336.42 1533.05,-336.42 1539.05,-342.42 1539.05,-348.42 1539.05,-348.42 1539.05,-360.42 1539.05,-360.42 1539.05,-366.42 1533.05,-372.42 1527.05,-372.42"/>
<text xml:space="preserve" text-anchor="middle" x="1488.79" y="-355.97" font-family="Helvetica,sans-Serif" font-size="11.00">inventory&#45;service</text>
<text xml:space="preserve" text-anchor="middle" x="1488.79" y="-343.97" font-family="Helvetica,sans-Serif" font-size="11.00">Spring Boot pods</text>
</g>
<!-- apiAlb&#45;&gt;inventory -->
<g id="edge14" class="edge">
<title>apiAlb&#45;&gt;inventory</title>
<path fill="none" stroke="#475569" d="M1258.81,-330.47C1299.08,-334.48 1350.31,-339.64 1395.9,-344.42 1406.94,-345.58 1418.73,-346.84 1430.06,-348.07"/>
<polygon fill="#475569" stroke="#475569" points="1429.47,-350.47 1436.7,-348.79 1430,-345.6 1429.47,-350.47"/>
</g>
<!-- cart -->
<g id="node24" class="node">
<title>cart</title>
<path fill="#dcfce7" stroke="#334155" d="M1527.05,-304.42C1527.05,-304.42 1450.52,-304.42 1450.52,-304.42 1444.52,-304.42 1438.52,-298.42 1438.52,-292.42 1438.52,-292.42 1438.52,-280.42 1438.52,-280.42 1438.52,-274.42 1444.52,-268.42 1450.52,-268.42 1450.52,-268.42 1527.05,-268.42 1527.05,-268.42 1533.05,-268.42 1539.05,-274.42 1539.05,-280.42 1539.05,-280.42 1539.05,-292.42 1539.05,-292.42 1539.05,-298.42 1533.05,-304.42 1527.05,-304.42"/>
<text xml:space="preserve" text-anchor="middle" x="1488.79" y="-287.97" font-family="Helvetica,sans-Serif" font-size="11.00">cart&#45;service</text>
<text xml:space="preserve" text-anchor="middle" x="1488.79" y="-275.97" font-family="Helvetica,sans-Serif" font-size="11.00">Spring Boot pods</text>
</g>
<!-- apiAlb&#45;&gt;cart -->
<g id="edge15" class="edge">
<title>apiAlb&#45;&gt;cart</title>
<path fill="none" stroke="#475569" d="M1258.96,-314.6C1311.29,-308.16 1381.36,-299.53 1430.12,-293.52"/>
<polygon fill="#475569" stroke="#475569" points="1430.21,-295.98 1436.85,-292.69 1429.61,-291.12 1430.21,-295.98"/>
</g>
<!-- account -->
<g id="node25" class="node">
<title>account</title>
<path fill="#dcfce7" stroke="#334155" d="M1527.05,-236.42C1527.05,-236.42 1450.52,-236.42 1450.52,-236.42 1444.52,-236.42 1438.52,-230.42 1438.52,-224.42 1438.52,-224.42 1438.52,-212.42 1438.52,-212.42 1438.52,-206.42 1444.52,-200.42 1450.52,-200.42 1450.52,-200.42 1527.05,-200.42 1527.05,-200.42 1533.05,-200.42 1539.05,-206.42 1539.05,-212.42 1539.05,-212.42 1539.05,-224.42 1539.05,-224.42 1539.05,-230.42 1533.05,-236.42 1527.05,-236.42"/>
<text xml:space="preserve" text-anchor="middle" x="1488.79" y="-219.97" font-family="Helvetica,sans-Serif" font-size="11.00">account&#45;service</text>
<text xml:space="preserve" text-anchor="middle" x="1488.79" y="-207.97" font-family="Helvetica,sans-Serif" font-size="11.00">Spring Boot pods</text>
</g>
<!-- apiAlb&#45;&gt;account -->
<g id="edge16" class="edge">
<title>apiAlb&#45;&gt;account</title>
<path fill="none" stroke="#475569" d="M1240.06,-305.01C1293.3,-286.4 1375.36,-257.72 1430.28,-238.52"/>
<polygon fill="#475569" stroke="#475569" points="1430.95,-240.88 1436.75,-236.26 1429.33,-236.26 1430.95,-240.88"/>
</g>
<!-- google -->
<g id="node13" class="node">
<title>google</title>
<path fill="#ede9fe" stroke="#334155" d="M681.34,-761.42C681.34,-761.42 572.56,-761.42 572.56,-761.42 566.56,-761.42 560.56,-755.42 560.56,-749.42 560.56,-749.42 560.56,-737.42 560.56,-737.42 560.56,-731.42 566.56,-725.42 572.56,-725.42 572.56,-725.42 681.34,-725.42 681.34,-725.42 687.34,-725.42 693.34,-731.42 693.34,-737.42 693.34,-737.42 693.34,-749.42 693.34,-749.42 693.34,-755.42 687.34,-761.42 681.34,-761.42"/>
<text xml:space="preserve" text-anchor="middle" x="626.95" y="-738.97" font-family="Helvetica,sans-Serif" font-size="11.00">Google Identity Provider</text>
</g>
<!-- cognito&#45;&gt;google -->
<g id="edge7" class="edge">
<title>cognito&#45;&gt;google</title>
<path fill="none" stroke="#475569" d="M352.87,-743.42C406.18,-743.42 490.73,-743.42 551.63,-743.42"/>
<polygon fill="#475569" stroke="#475569" points="551.55,-745.87 558.55,-743.42 551.55,-740.97 551.55,-745.87"/>
</g>
<!-- postgres -->
<g id="node14" class="node">
<title>postgres</title>
<path fill="#dcfce7" stroke="#334155" d="M1841.46,-113.15C1841.46,-114.95 1813.38,-116.42 1778.82,-116.42 1744.26,-116.42 1716.18,-114.95 1716.18,-113.15 1716.18,-113.15 1716.18,-83.69 1716.18,-83.69 1716.18,-81.89 1744.26,-80.42 1778.82,-80.42 1813.38,-80.42 1841.46,-81.89 1841.46,-83.69 1841.46,-83.69 1841.46,-113.15 1841.46,-113.15"/>
<path fill="none" stroke="#334155" d="M1841.46,-113.15C1841.46,-111.34 1813.38,-109.87 1778.82,-109.87 1744.26,-109.87 1716.18,-111.34 1716.18,-113.15"/>
<text xml:space="preserve" text-anchor="middle" x="1778.82" y="-93.97" font-family="Helvetica,sans-Serif" font-size="11.00">Postgres inventory DB</text>
</g>
<!-- cloudwatch -->
<g id="node16" class="node">
<title>cloudwatch</title>
<path fill="#f1f5f9" stroke="#334155" d="M2106.74,-148.42C2106.74,-148.42 2025.71,-148.42 2025.71,-148.42 2019.71,-148.42 2013.71,-142.42 2013.71,-136.42 2013.71,-136.42 2013.71,-124.42 2013.71,-124.42 2013.71,-118.42 2019.71,-112.42 2025.71,-112.42 2025.71,-112.42 2106.74,-112.42 2106.74,-112.42 2112.74,-112.42 2118.74,-118.42 2118.74,-124.42 2118.74,-124.42 2118.74,-136.42 2118.74,-136.42 2118.74,-142.42 2112.74,-148.42 2106.74,-148.42"/>
<text xml:space="preserve" text-anchor="middle" x="2066.22" y="-131.97" font-family="Helvetica,sans-Serif" font-size="11.00">AWS CloudWatch</text>
<text xml:space="preserve" text-anchor="middle" x="2066.22" y="-119.97" font-family="Helvetica,sans-Serif" font-size="11.00">RDS metrics</text>
</g>
<!-- postgres&#45;&gt;cloudwatch -->
<g id="edge20" class="edge">
<title>postgres&#45;&gt;cloudwatch</title>
<path fill="none" stroke="#475569" d="M1841.63,-99.09C1874.13,-100.03 1914.56,-102.12 1950.46,-106.67 1968.4,-108.95 1987.72,-112.5 2005.3,-116.18"/>
<polygon fill="#475569" stroke="#475569" points="2004.4,-118.5 2011.76,-117.56 2005.42,-113.7 2004.4,-118.5"/>
<text xml:space="preserve" text-anchor="middle" x="1909.96" y="-107.87" font-family="Helvetica,sans-Serif" font-size="9.00" fill="#334155">RDS metrics</text>
</g>
<!-- dynamodb -->
<g id="node15" class="node">
<title>dynamodb</title>
<path fill="#dcfce7" stroke="#334155" d="M1829.83,-44.4C1829.83,-46.85 1806.97,-48.84 1778.82,-48.84 1750.67,-48.84 1727.8,-46.85 1727.8,-44.4 1727.8,-44.4 1727.8,-4.44 1727.8,-4.44 1727.8,-1.99 1750.67,0 1778.82,0 1806.97,0 1829.83,-1.99 1829.83,-4.44 1829.83,-4.44 1829.83,-44.4 1829.83,-44.4"/>
<path fill="none" stroke="#334155" d="M1829.83,-44.4C1829.83,-41.95 1806.97,-39.96 1778.82,-39.96 1750.67,-39.96 1727.8,-41.95 1727.8,-44.4"/>
<text xml:space="preserve" text-anchor="middle" x="1778.82" y="-25.97" font-family="Helvetica,sans-Serif" font-size="11.00">DynamoDB</text>
<text xml:space="preserve" text-anchor="middle" x="1778.82" y="-13.97" font-family="Helvetica,sans-Serif" font-size="11.00">cart/account state</text>
</g>
<!-- cloudwatchScrape -->
<g id="node17" class="node">
<title>cloudwatchScrape</title>
<path fill="#faf5ff" stroke="#334155" d="M1832.46,-184.42C1832.46,-184.42 1725.18,-184.42 1725.18,-184.42 1719.18,-184.42 1713.18,-178.42 1713.18,-172.42 1713.18,-172.42 1713.18,-160.42 1713.18,-160.42 1713.18,-154.42 1719.18,-148.42 1725.18,-148.42 1725.18,-148.42 1832.46,-148.42 1832.46,-148.42 1838.46,-148.42 1844.46,-154.42 1844.46,-160.42 1844.46,-160.42 1844.46,-172.42 1844.46,-172.42 1844.46,-178.42 1838.46,-184.42 1832.46,-184.42"/>
<text xml:space="preserve" text-anchor="middle" x="1778.82" y="-167.97" font-family="Helvetica,sans-Serif" font-size="11.00">Grafana Cloud Provider</text>
<text xml:space="preserve" text-anchor="middle" x="1778.82" y="-155.97" font-family="Helvetica,sans-Serif" font-size="11.00">AWS/RDS scrape job</text>
</g>
<!-- cloudwatchScrape&#45;&gt;cloudwatch -->
<g id="edge21" class="edge">
<title>cloudwatchScrape&#45;&gt;cloudwatch</title>
<path fill="none" stroke="#475569" d="M1844.94,-158.21C1893.05,-152.14 1958.07,-143.94 2004.98,-138.02"/>
<polygon fill="#475569" stroke="#475569" points="2005.09,-140.47 2011.73,-137.17 2004.48,-135.61 2005.09,-140.47"/>
<text xml:space="preserve" text-anchor="middle" x="1909.96" y="-165.73" font-family="Helvetica,sans-Serif" font-size="9.00" fill="#334155">assume AWS role</text>
<text xml:space="preserve" text-anchor="middle" x="1909.96" y="-155.98" font-family="Helvetica,sans-Serif" font-size="9.00" fill="#334155">and scrape metrics</text>
</g>
<!-- cloudwatchScrape&#45;&gt;grafana -->
<g id="edge22" class="edge">
<title>cloudwatchScrape&#45;&gt;grafana</title>
<path fill="none" stroke="#475569" d="M1839.6,-184.77C1841.29,-185.91 1842.91,-187.13 1844.46,-188.42 1969.64,-292.82 2036.75,-487.44 2057.83,-558"/>
<polygon fill="#475569" stroke="#475569" points="2055.43,-558.5 2059.75,-564.53 2060.13,-557.12 2055.43,-558.5"/>
<text xml:space="preserve" text-anchor="middle" x="1909.96" y="-311.13" font-family="Helvetica,sans-Serif" font-size="9.00" fill="#334155">CloudWatch metrics</text>
</g>
<!-- k6 -->
<g id="node19" class="node">
<title>k6</title>
<path fill="#f3e8ff" stroke="#334155" d="M370.31,-693.42C370.31,-693.42 232.28,-693.42 232.28,-693.42 226.28,-693.42 220.28,-687.42 220.28,-681.42 220.28,-681.42 220.28,-669.42 220.28,-669.42 220.28,-663.42 226.28,-657.42 232.28,-657.42 232.28,-657.42 370.31,-657.42 370.31,-657.42 376.31,-657.42 382.31,-663.42 382.31,-669.42 382.31,-669.42 382.31,-681.42 382.31,-681.42 382.31,-687.42 376.31,-693.42 370.31,-693.42"/>
<text xml:space="preserve" text-anchor="middle" x="301.29" y="-676.97" font-family="Helvetica,sans-Serif" font-size="11.00">Grafana Cloud k6</text>
<text xml:space="preserve" text-anchor="middle" x="301.29" y="-664.97" font-family="Helvetica,sans-Serif" font-size="11.00">load tests and browser checks</text>
</g>
<!-- k6&#45;&gt;cloudfront -->
<g id="edge25" class="edge">
<title>k6&#45;&gt;cloudfront</title>
<path fill="none" stroke="#475569" d="M345.3,-656.98C368.7,-647.07 395.27,-636.06 407.31,-631.92 463.24,-612.68 481.37,-620.12 535.56,-596.42 555.83,-587.55 576.94,-574.71 593.66,-563.56"/>
<polygon fill="#475569" stroke="#475569" points="594.86,-565.7 599.28,-559.75 592.11,-561.65 594.86,-565.7"/>
<text xml:space="preserve" text-anchor="middle" x="471.43" y="-642.87" font-family="Helvetica,sans-Serif" font-size="9.00" fill="#334155">regional, spike, browser checks</text>
<text xml:space="preserve" text-anchor="middle" x="471.43" y="-633.12" font-family="Helvetica,sans-Serif" font-size="9.00" fill="#334155">with traceparent</text>
</g>
<!-- k6&#45;&gt;grafana -->
<g id="edge26" class="edge">
<title>k6&#45;&gt;grafana</title>
<path fill="none" stroke="#475569" d="M382.76,-675.81C448.25,-676.09 543.07,-676.42 625.95,-676.42 625.95,-676.42 625.95,-676.42 1779.82,-676.42 1870.56,-676.42 1970.05,-633.77 2024.3,-606.55"/>
<polygon fill="#475569" stroke="#475569" points="2025.17,-608.86 2030.3,-603.5 2022.95,-604.49 2025.17,-608.86"/>
<text xml:space="preserve" text-anchor="middle" x="1186.38" y="-677.62" font-family="Helvetica,sans-Serif" font-size="9.00" fill="#334155">test results + trace correlation</text>
</g>
<!-- accountBaseline -->
<g id="node20" class="node">
<title>accountBaseline</title>
<path fill="#e2e8f0" stroke="#334155" d="M1262.15,-425.42C1262.15,-425.42 1110.62,-425.42 1110.62,-425.42 1104.62,-425.42 1098.62,-419.42 1098.62,-413.42 1098.62,-413.42 1098.62,-401.42 1098.62,-401.42 1098.62,-395.42 1104.62,-389.42 1110.62,-389.42 1110.62,-389.42 1262.15,-389.42 1262.15,-389.42 1268.15,-389.42 1274.15,-395.42 1274.15,-401.42 1274.15,-401.42 1274.15,-413.42 1274.15,-413.42 1274.15,-419.42 1268.15,-425.42 1262.15,-425.42"/>
<text xml:space="preserve" text-anchor="middle" x="1186.38" y="-408.97" font-family="Helvetica,sans-Serif" font-size="11.00">Terraform account&#45;baseline stack</text>
<text xml:space="preserve" text-anchor="middle" x="1186.38" y="-396.97" font-family="Helvetica,sans-Serif" font-size="11.00">SSM host&#45;management setting</text>
</g>
<!-- beyla -->
<g id="node21" class="node">
<title>beyla</title>
<path fill="#faf5ff" stroke="#334155" d="M1519.93,-440.42C1519.93,-440.42 1457.65,-440.42 1457.65,-440.42 1451.65,-440.42 1445.65,-434.42 1445.65,-428.42 1445.65,-428.42 1445.65,-416.42 1445.65,-416.42 1445.65,-410.42 1451.65,-404.42 1457.65,-404.42 1457.65,-404.42 1519.93,-404.42 1519.93,-404.42 1525.93,-404.42 1531.93,-410.42 1531.93,-416.42 1531.93,-416.42 1531.93,-428.42 1531.93,-428.42 1531.93,-434.42 1525.93,-440.42 1519.93,-440.42"/>
<text xml:space="preserve" text-anchor="middle" x="1488.79" y="-417.97" font-family="Helvetica,sans-Serif" font-size="11.00">Grafana Beyla</text>
</g>
<!-- accountBaseline&#45;&gt;beyla -->
<g id="edge24" class="edge">
<title>accountBaseline&#45;&gt;beyla</title>
<path fill="none" stroke="#475569" d="M1274.27,-411.76C1327.02,-414.39 1392.51,-417.66 1436.96,-419.88"/>
<polygon fill="#475569" stroke="#475569" points="1436.65,-422.32 1443.77,-420.22 1436.9,-417.43 1436.65,-422.32"/>
<text xml:space="preserve" text-anchor="middle" x="1347.52" y="-418.77" font-family="Helvetica,sans-Serif" font-size="9.00" fill="#334155">SSM default role setting</text>
</g>
<!-- alloy -->
<g id="node22" class="node">
<title>alloy</title>
<path fill="#faf5ff" stroke="#334155" d="M1807.71,-372.42C1807.71,-372.42 1749.93,-372.42 1749.93,-372.42 1743.93,-372.42 1737.93,-366.42 1737.93,-360.42 1737.93,-360.42 1737.93,-348.42 1737.93,-348.42 1737.93,-342.42 1743.93,-336.42 1749.93,-336.42 1749.93,-336.42 1807.71,-336.42 1807.71,-336.42 1813.71,-336.42 1819.71,-342.42 1819.71,-348.42 1819.71,-348.42 1819.71,-360.42 1819.71,-360.42 1819.71,-366.42 1813.71,-372.42 1807.71,-372.42"/>
<text xml:space="preserve" text-anchor="middle" x="1778.82" y="-355.97" font-family="Helvetica,sans-Serif" font-size="11.00">Grafana Alloy</text>
<text xml:space="preserve" text-anchor="middle" x="1778.82" y="-343.97" font-family="Helvetica,sans-Serif" font-size="11.00">OTel collector</text>
</g>
<!-- beyla&#45;&gt;alloy -->
<g id="edge27" class="edge">
<title>beyla&#45;&gt;alloy</title>
<path fill="none" stroke="#475569" d="M1532.29,-412.39C1584.83,-399.98 1674.05,-378.92 1729.25,-365.89"/>
<polygon fill="#475569" stroke="#475569" points="1729.75,-368.29 1736,-364.29 1728.62,-363.52 1729.75,-368.29"/>
<text xml:space="preserve" text-anchor="middle" x="1634.93" y="-401.62" font-family="Helvetica,sans-Serif" font-size="9.00" fill="#334155">zero&#45;code HTTP telemetry</text>
</g>
<!-- alloy&#45;&gt;grafana -->
<g id="edge31" class="edge">
<title>alloy&#45;&gt;grafana</title>
<path fill="none" stroke="#475569" d="M1802.69,-372.85C1854.17,-414.34 1979.08,-515 2036.04,-560.9"/>
<polygon fill="#475569" stroke="#475569" points="2034.47,-562.78 2041.46,-565.27 2037.55,-558.97 2034.47,-562.78"/>
</g>
<!-- inventory&#45;&gt;postgres -->
<g id="edge17" class="edge">
<title>inventory&#45;&gt;postgres</title>
<path fill="none" stroke="#475569" d="M1537.86,-336.1C1544.89,-331.79 1551.49,-326.61 1556.68,-320.42 1581.17,-291.24 1559.05,-269.07 1581.68,-238.42 1615.62,-192.46 1646.99,-206.01 1688.18,-166.42 1701.7,-153.42 1698.96,-144.65 1713.18,-132.42 1718.11,-128.18 1723.67,-124.27 1729.39,-120.73"/>
<polygon fill="#475569" stroke="#475569" points="1730.6,-122.86 1735.4,-117.21 1728.12,-118.63 1730.6,-122.86"/>
</g>
<!-- inventory&#45;&gt;alloy -->
<g id="edge28" class="edge">
<title>inventory&#45;&gt;alloy</title>
<path fill="none" stroke="#475569" d="M1539.3,-354.42C1592.59,-354.42 1676.77,-354.42 1729.56,-354.42"/>
<polygon fill="#475569" stroke="#475569" points="1729.24,-356.87 1736.24,-354.42 1729.24,-351.97 1729.24,-356.87"/>
<text xml:space="preserve" text-anchor="middle" x="1634.93" y="-355.62" font-family="Helvetica,sans-Serif" font-size="9.00" fill="#334155">OTel + Prometheus</text>
</g>
<!-- cart&#45;&gt;dynamodb -->
<g id="edge18" class="edge">
<title>cart&#45;&gt;dynamodb</title>
<path fill="none" stroke="#475569" d="M1538.34,-268C1545.22,-263.72 1551.65,-258.57 1556.68,-252.42 1582.97,-220.29 1554.89,-194.13 1581.68,-162.42 1615.42,-122.47 1650.45,-148.62 1688.18,-112.42 1705.54,-95.77 1696.81,-82.05 1713.18,-64.42 1717.13,-60.17 1721.63,-56.19 1726.38,-52.53"/>
<polygon fill="#475569" stroke="#475569" points="1727.54,-54.72 1731.76,-48.62 1724.65,-50.75 1727.54,-54.72"/>
</g>
<!-- cart&#45;&gt;alloy -->
<g id="edge29" class="edge">
<title>cart&#45;&gt;alloy</title>
<path fill="none" stroke="#475569" d="M1539.3,-298.11C1592.59,-310.69 1676.77,-330.56 1729.56,-343.03"/>
<polygon fill="#475569" stroke="#475569" points="1728.91,-345.39 1736.28,-344.61 1730.03,-340.62 1728.91,-345.39"/>
<text xml:space="preserve" text-anchor="middle" x="1634.93" y="-333.62" font-family="Helvetica,sans-Serif" font-size="9.00" fill="#334155">OTel + Prometheus</text>
</g>
<!-- account&#45;&gt;dynamodb -->
<g id="edge19" class="edge">
<title>account&#45;&gt;dynamodb</title>
<path fill="none" stroke="#475569" d="M1502.63,-200.18C1518.94,-178.05 1548.94,-140.7 1581.68,-116.42 1624.11,-84.96 1679.02,-60.32 1719.95,-44.5"/>
<polygon fill="#475569" stroke="#475569" points="1720.6,-46.87 1726.26,-42.09 1718.85,-42.3 1720.6,-46.87"/>
</g>
<!-- account&#45;&gt;alloy -->
<g id="edge30" class="edge">
<title>account&#45;&gt;alloy</title>
<path fill="none" stroke="#475569" d="M1539.45,-232.42C1580.56,-244.96 1639.83,-265.27 1688.18,-290.67 1709.82,-302.04 1732.23,-317.98 1749.23,-331.07"/>
<polygon fill="#475569" stroke="#475569" points="1747.48,-332.82 1754.51,-335.19 1750.5,-328.95 1747.48,-332.82"/>
<text xml:space="preserve" text-anchor="middle" x="1634.93" y="-291.87" font-family="Helvetica,sans-Serif" font-size="9.00" fill="#334155">OTel + Prometheus</text>
</g>
</g>
</svg>
