<?xml version="1.0" encoding="UTF-8" standalone="no"?>
<!DOCTYPE svg PUBLIC "-//W3C//DTD SVG 1.1//EN"
 "http://www.w3.org/Graphics/SVG/1.1/DTD/svg11.dtd">
<!-- Generated by graphviz version 15.0.0 (20260523.1842)
 -->
<!-- Title: network_diagram Pages: 1 -->
<svg width="2140pt" height="886pt"
 viewBox="0.00 0.00 2140.00 886.00" xmlns="http://www.w3.org/2000/svg" xmlns:xlink="http://www.w3.org/1999/xlink">
<g id="graph0" class="graph" transform="scale(1 1) rotate(0) translate(18 868.17)">
<title>network_diagram</title>
<polygon fill="#0b1220" stroke="none" points="-18,18 -18,-868.17 2121.74,-868.17 2121.74,18 -18,18"/>
<text xml:space="preserve" text-anchor="middle" x="1051.87" y="-827.17" font-family="Helvetica,sans-Serif" font-size="20.00" fill="#f8fafc">Ensemble&#45;Grafana Network Diagram</text>
<g id="clust1" class="cluster">
<title>cluster_eks</title>
<path fill="#0b1220" stroke="#64748b" stroke-dasharray="5,2" d="M1389.27,-192.42C1389.27,-192.42 1762.46,-192.42 1762.46,-192.42 1768.46,-192.42 1774.46,-198.42 1774.46,-204.42 1774.46,-204.42 1774.46,-465.42 1774.46,-465.42 1774.46,-471.42 1768.46,-477.42 1762.46,-477.42 1762.46,-477.42 1389.27,-477.42 1389.27,-477.42 1383.27,-477.42 1377.27,-471.42 1377.27,-465.42 1377.27,-465.42 1377.27,-204.42 1377.27,-204.42 1377.27,-198.42 1383.27,-192.42 1389.27,-192.42"/>
<text xml:space="preserve" text-anchor="middle" x="1575.87" y="-454.42" font-family="Helvetica,sans-Serif" font-size="20.00" fill="#f8fafc">EKS cluster</text>
</g>
<!-- shopper -->
<g id="node1" class="node">
<title>shopper</title>
<path fill="#1e3a8a" stroke="#64748b" d="M88.53,-762.42C88.53,-762.42 12,-762.42 12,-762.42 6,-762.42 0,-756.42 0,-750.42 0,-750.42 0,-738.42 0,-738.42 0,-732.42 6,-726.42 12,-726.42 12,-726.42 88.53,-726.42 88.53,-726.42 94.53,-726.42 100.53,-732.42 100.53,-738.42 100.53,-738.42 100.53,-750.42 100.53,-750.42 100.53,-756.42 94.53,-762.42 88.53,-762.42"/>
<text xml:space="preserve" text-anchor="middle" x="50.26" y="-739.97" font-family="Helvetica,sans-Serif" font-size="11.00" fill="#f8fafc">Shopper browser</text>
</g>
<!-- edgeWaf -->
<g id="node5" class="node">
<title>edgeWaf</title>
<path fill="#7f1d1d" stroke="#64748b" d="M345.56,-614.42C345.56,-614.42 266.78,-614.42 266.78,-614.42 260.78,-614.42 254.78,-608.42 254.78,-602.42 254.78,-602.42 254.78,-590.42 254.78,-590.42 254.78,-584.42 260.78,-578.42 266.78,-578.42 266.78,-578.42 345.56,-578.42 345.56,-578.42 351.56,-578.42 357.56,-584.42 357.56,-590.42 357.56,-590.42 357.56,-602.42 357.56,-602.42 357.56,-608.42 351.56,-614.42 345.56,-614.42"/>
<text xml:space="preserve" text-anchor="middle" x="306.17" y="-597.97" font-family="Helvetica,sans-Serif" font-size="11.00" fill="#f8fafc">AWS WAF</text>
<text xml:space="preserve" text-anchor="middle" x="306.17" y="-585.97" font-family="Helvetica,sans-Serif" font-size="11.00" fill="#f8fafc">CloudFront scope</text>
</g>
<!-- shopper&#45;&gt;edgeWaf -->
<g id="edge4" class="edge">
<title>shopper&#45;&gt;edgeWaf</title>
<path fill="none" stroke="#94a3b8" d="M74.88,-726.11C106.66,-702.04 165.55,-659.42 220.28,-630.42 228.72,-625.95 237.88,-621.7 246.96,-617.82"/>
<polygon fill="#94a3b8" stroke="#94a3b8" points="247.63,-620.19 253.15,-615.23 245.74,-615.67 247.63,-620.19"/>
<text xml:space="preserve" text-anchor="middle" x="160.4" y="-690.07" font-family="Helvetica,sans-Serif" font-size="9.00" fill="#f8fafc">HTTPS storefront</text>
</g>
<!-- cognito -->
<g id="node12" class="node">
<title>cognito</title>
<path fill="#4c1d95" stroke="#64748b" d="M345.56,-762.42C345.56,-762.42 266.78,-762.42 266.78,-762.42 260.78,-762.42 254.78,-756.42 254.78,-750.42 254.78,-750.42 254.78,-738.42 254.78,-738.42 254.78,-732.42 260.78,-726.42 266.78,-726.42 266.78,-726.42 345.56,-726.42 345.56,-726.42 351.56,-726.42 357.56,-732.42 357.56,-738.42 357.56,-738.42 357.56,-750.42 357.56,-750.42 357.56,-756.42 351.56,-762.42 345.56,-762.42"/>
<text xml:space="preserve" text-anchor="middle" x="306.17" y="-745.97" font-family="Helvetica,sans-Serif" font-size="11.00" fill="#f8fafc">AWS Cognito</text>
<text xml:space="preserve" text-anchor="middle" x="306.17" y="-733.97" font-family="Helvetica,sans-Serif" font-size="11.00" fill="#f8fafc">Google federation</text>
</g>
<!-- shopper&#45;&gt;cognito -->
<g id="edge6" class="edge">
<title>shopper&#45;&gt;cognito</title>
<path fill="none" stroke="#94a3b8" d="M100.82,-744.42C142.45,-744.42 202.02,-744.42 246.11,-744.42"/>
<polygon fill="#94a3b8" stroke="#94a3b8" points="245.92,-746.87 252.92,-744.42 245.92,-741.97 245.92,-746.87"/>
<text xml:space="preserve" text-anchor="middle" x="160.4" y="-745.62" font-family="Helvetica,sans-Serif" font-size="9.00" fill="#f8fafc">Google sign&#45;in</text>
</g>
<!-- grafana -->
<g id="node18" class="node">
<title>grafana</title>
<path fill="#6b21a8" stroke="#64748b" d="M2091.74,-602.42C2091.74,-602.42 1934.21,-602.42 1934.21,-602.42 1928.21,-602.42 1922.21,-596.42 1922.21,-590.42 1922.21,-590.42 1922.21,-578.42 1922.21,-578.42 1922.21,-572.42 1928.21,-566.42 1934.21,-566.42 1934.21,-566.42 2091.74,-566.42 2091.74,-566.42 2097.74,-566.42 2103.74,-572.42 2103.74,-578.42 2103.74,-578.42 2103.74,-590.42 2103.74,-590.42 2103.74,-596.42 2097.74,-602.42 2091.74,-602.42"/>
<text xml:space="preserve" text-anchor="middle" x="2012.97" y="-585.97" font-family="Helvetica,sans-Serif" font-size="11.00" fill="#f8fafc">Grafana Cloud</text>
<text xml:space="preserve" text-anchor="middle" x="2012.97" y="-573.97" font-family="Helvetica,sans-Serif" font-size="11.00" fill="#f8fafc">Faro, metrics, logs, traces, profiles</text>
</g>
<!-- shopper&#45;&gt;grafana -->
<g id="edge23" class="edge">
<title>shopper&#45;&gt;grafana</title>
<path fill="none" stroke="#94a3b8" d="M93.94,-762.91C143.67,-782.74 228.81,-811.42 305.17,-811.42 305.17,-811.42 305.17,-811.42 1726.57,-811.42 1854.98,-811.42 1959.07,-668.93 1996.77,-609.73"/>
<polygon fill="#94a3b8" stroke="#94a3b8" points="1998.79,-611.13 2000.43,-603.89 1994.64,-608.52 1998.79,-611.13"/>
<text xml:space="preserve" text-anchor="middle" x="977.24" y="-812.62" font-family="Helvetica,sans-Serif" font-size="9.00" fill="#f8fafc">Faro web telemetry</text>
</g>
<!-- registrar -->
<g id="node2" class="node">
<title>registrar</title>
<path fill="#111827" stroke="#64748b" d="M87.03,-546.42C87.03,-546.42 13.5,-546.42 13.5,-546.42 7.5,-546.42 1.5,-540.42 1.5,-534.42 1.5,-534.42 1.5,-522.42 1.5,-522.42 1.5,-516.42 7.5,-510.42 13.5,-510.42 13.5,-510.42 87.03,-510.42 87.03,-510.42 93.03,-510.42 99.03,-516.42 99.03,-522.42 99.03,-522.42 99.03,-534.42 99.03,-534.42 99.03,-540.42 93.03,-546.42 87.03,-546.42"/>
<text xml:space="preserve" text-anchor="middle" x="50.26" y="-523.97" font-family="Helvetica,sans-Serif" font-size="11.00" fill="#f8fafc">Domain registrar</text>
</g>
<!-- route53 -->
<g id="node3" class="node">
<title>route53</title>
<path fill="#164e63" stroke="#64748b" d="M357.93,-546.42C357.93,-546.42 254.4,-546.42 254.4,-546.42 248.4,-546.42 242.4,-540.42 242.4,-534.42 242.4,-534.42 242.4,-522.42 242.4,-522.42 242.4,-516.42 248.4,-510.42 254.4,-510.42 254.4,-510.42 357.93,-510.42 357.93,-510.42 363.93,-510.42 369.93,-516.42 369.93,-522.42 369.93,-522.42 369.93,-534.42 369.93,-534.42 369.93,-540.42 363.93,-546.42 357.93,-546.42"/>
<text xml:space="preserve" text-anchor="middle" x="306.17" y="-529.97" font-family="Helvetica,sans-Serif" font-size="11.00" fill="#f8fafc">Route53 hosted zone</text>
<text xml:space="preserve" text-anchor="middle" x="306.17" y="-517.97" font-family="Helvetica,sans-Serif" font-size="11.00" fill="#f8fafc">ensemble&#45;grafana.com</text>
</g>
<!-- registrar&#45;&gt;route53 -->
<g id="edge1" class="edge">
<title>registrar&#45;&gt;route53</title>
<path fill="none" stroke="#94a3b8" d="M99.32,-528.42C137.2,-528.42 190.59,-528.42 233.51,-528.42"/>
<polygon fill="#94a3b8" stroke="#94a3b8" points="233.43,-530.87 240.43,-528.42 233.43,-525.97 233.43,-530.87"/>
<text xml:space="preserve" text-anchor="middle" x="160.4" y="-529.62" font-family="Helvetica,sans-Serif" font-size="9.00" fill="#f8fafc">NS delegation</text>
</g>
<!-- cloudfront -->
<g id="node6" class="node">
<title>cloudfront</title>
<path fill="#1e3a8a" stroke="#64748b" d="M625.46,-553.42C625.46,-553.42 521.93,-553.42 521.93,-553.42 515.93,-553.42 509.93,-547.42 509.93,-541.42 509.93,-541.42 509.93,-529.42 509.93,-529.42 509.93,-523.42 515.93,-517.42 521.93,-517.42 521.93,-517.42 625.46,-517.42 625.46,-517.42 631.46,-517.42 637.46,-523.42 637.46,-529.42 637.46,-529.42 637.46,-541.42 637.46,-541.42 637.46,-547.42 631.46,-553.42 625.46,-553.42"/>
<text xml:space="preserve" text-anchor="middle" x="573.7" y="-536.97" font-family="Helvetica,sans-Serif" font-size="11.00" fill="#f8fafc">CloudFront distribution</text>
<text xml:space="preserve" text-anchor="middle" x="573.7" y="-524.97" font-family="Helvetica,sans-Serif" font-size="11.00" fill="#f8fafc">ensemble&#45;grafana.com</text>
</g>
<!-- route53&#45;&gt;cloudfront -->
<g id="edge2" class="edge">
<title>route53&#45;&gt;cloudfront</title>
<path fill="none" stroke="#94a3b8" d="M370.42,-527.4C403.73,-527.14 445.24,-527.26 482.31,-528.67 488.5,-528.91 494.93,-529.23 501.37,-529.61"/>
<polygon fill="#94a3b8" stroke="#94a3b8" points="500.87,-532.03 508.01,-530.02 501.17,-527.14 500.87,-532.03"/>
<text xml:space="preserve" text-anchor="middle" x="449.68" y="-529.87" font-family="Helvetica,sans-Serif" font-size="9.00" fill="#f8fafc">A / AAAA alias</text>
</g>
<!-- acm -->
<g id="node4" class="node">
<title>acm</title>
<path fill="#155e75" stroke="#64748b" d="M350.81,-478.42C350.81,-478.42 261.53,-478.42 261.53,-478.42 255.53,-478.42 249.53,-472.42 249.53,-466.42 249.53,-466.42 249.53,-454.42 249.53,-454.42 249.53,-448.42 255.53,-442.42 261.53,-442.42 261.53,-442.42 350.81,-442.42 350.81,-442.42 356.81,-442.42 362.81,-448.42 362.81,-454.42 362.81,-454.42 362.81,-466.42 362.81,-466.42 362.81,-472.42 356.81,-478.42 350.81,-478.42"/>
<text xml:space="preserve" text-anchor="middle" x="306.17" y="-461.97" font-family="Helvetica,sans-Serif" font-size="11.00" fill="#f8fafc">ACM certificate</text>
<text xml:space="preserve" text-anchor="middle" x="306.17" y="-449.97" font-family="Helvetica,sans-Serif" font-size="11.00" fill="#f8fafc">us&#45;east&#45;1 / ISSUED</text>
</g>
<!-- acm&#45;&gt;cloudfront -->
<g id="edge3" class="edge">
<title>acm&#45;&gt;cloudfront</title>
<path fill="none" stroke="#94a3b8" d="M363.19,-476.12C397.57,-485.77 442.5,-498.4 482.31,-509.67 488.49,-511.42 494.91,-513.24 501.35,-515.07"/>
<polygon fill="#94a3b8" stroke="#94a3b8" points="500.63,-517.41 508.04,-516.97 501.97,-512.7 500.63,-517.41"/>
<text xml:space="preserve" text-anchor="middle" x="449.68" y="-510.87" font-family="Helvetica,sans-Serif" font-size="9.00" fill="#f8fafc">TLS certificate</text>
</g>
<!-- edgeWaf&#45;&gt;cloudfront -->
<g id="edge5" class="edge">
<title>edgeWaf&#45;&gt;cloudfront</title>
<path fill="none" stroke="#94a3b8" d="M358.05,-584.73C398.82,-575.36 456.5,-562.12 501.8,-551.71"/>
<polygon fill="#94a3b8" stroke="#94a3b8" points="502.07,-554.16 508.34,-550.21 500.97,-549.39 502.07,-554.16"/>
</g>
<!-- staticS3 -->
<g id="node7" class="node">
<title>staticS3</title>
<path fill="#713f12" stroke="#64748b" d="M876.49,-627.42C876.49,-627.42 792.46,-627.42 792.46,-627.42 786.46,-627.42 780.46,-621.42 780.46,-615.42 780.46,-615.42 780.46,-603.42 780.46,-603.42 780.46,-597.42 786.46,-591.42 792.46,-591.42 792.46,-591.42 876.49,-591.42 876.49,-591.42 882.49,-591.42 888.49,-597.42 888.49,-603.42 888.49,-603.42 888.49,-615.42 888.49,-615.42 888.49,-621.42 882.49,-627.42 876.49,-627.42"/>
<text xml:space="preserve" text-anchor="middle" x="834.48" y="-610.97" font-family="Helvetica,sans-Serif" font-size="11.00" fill="#f8fafc">S3 frontend bucket</text>
<text xml:space="preserve" text-anchor="middle" x="834.48" y="-598.97" font-family="Helvetica,sans-Serif" font-size="11.00" fill="#f8fafc">private origin</text>
</g>
<!-- cloudfront&#45;&gt;staticS3 -->
<g id="edge8" class="edge">
<title>cloudfront&#45;&gt;staticS3</title>
<path fill="none" stroke="#94a3b8" d="M637.67,-553.43C678.63,-565.14 731.76,-580.33 772.35,-591.94"/>
<polygon fill="#94a3b8" stroke="#94a3b8" points="771.43,-594.22 778.83,-593.79 772.78,-589.51 771.43,-594.22"/>
<text xml:space="preserve" text-anchor="middle" x="699.96" y="-580.25" font-family="Helvetica,sans-Serif" font-size="9.00" fill="#f8fafc">static assets</text>
</g>
<!-- imageS3 -->
<g id="node8" class="node">
<title>imageS3</title>
<path fill="#713f12" stroke="#64748b" d="M897.12,-559.42C897.12,-559.42 771.84,-559.42 771.84,-559.42 765.84,-559.42 759.84,-553.42 759.84,-547.42 759.84,-547.42 759.84,-535.42 759.84,-535.42 759.84,-529.42 765.84,-523.42 771.84,-523.42 771.84,-523.42 897.12,-523.42 897.12,-523.42 903.12,-523.42 909.12,-529.42 909.12,-535.42 909.12,-535.42 909.12,-547.42 909.12,-547.42 909.12,-553.42 903.12,-559.42 897.12,-559.42"/>
<text xml:space="preserve" text-anchor="middle" x="834.48" y="-536.97" font-family="Helvetica,sans-Serif" font-size="11.00" fill="#f8fafc">S3 inventory images bucket</text>
</g>
<!-- cloudfront&#45;&gt;imageS3 -->
<g id="edge9" class="edge">
<title>cloudfront&#45;&gt;imageS3</title>
<path fill="none" stroke="#94a3b8" d="M637.67,-536.88C671.89,-537.67 714.61,-538.66 751.4,-539.52"/>
<polygon fill="#94a3b8" stroke="#94a3b8" points="751.08,-541.96 758.13,-539.67 751.19,-537.06 751.08,-541.96"/>
<text xml:space="preserve" text-anchor="middle" x="699.96" y="-540.16" font-family="Helvetica,sans-Serif" font-size="9.00" fill="#f8fafc">inventory images</text>
</g>
<!-- logsS3 -->
<g id="node9" class="node">
<title>logsS3</title>
<path fill="#713f12" stroke="#64748b" d="M1491.43,-521.42C1491.43,-521.42 1379.65,-521.42 1379.65,-521.42 1373.65,-521.42 1367.65,-515.42 1367.65,-509.42 1367.65,-509.42 1367.65,-497.42 1367.65,-497.42 1367.65,-491.42 1373.65,-485.42 1379.65,-485.42 1379.65,-485.42 1491.43,-485.42 1491.43,-485.42 1497.43,-485.42 1503.43,-491.42 1503.43,-497.42 1503.43,-497.42 1503.43,-509.42 1503.43,-509.42 1503.43,-515.42 1497.43,-521.42 1491.43,-521.42"/>
<text xml:space="preserve" text-anchor="middle" x="1435.54" y="-504.97" font-family="Helvetica,sans-Serif" font-size="11.00" fill="#f8fafc">S3 edge/API logs bucket</text>
<text xml:space="preserve" text-anchor="middle" x="1435.54" y="-492.97" font-family="Helvetica,sans-Serif" font-size="11.00" fill="#f8fafc">CloudFront + ALB logs</text>
</g>
<!-- cloudfront&#45;&gt;logsS3 -->
<g id="edge10" class="edge">
<title>cloudfront&#45;&gt;logsS3</title>
<path fill="none" stroke="#94a3b8" d="M637.85,-523.56C673.52,-517.45 719,-510.61 759.84,-507.42 976.74,-490.46 1234.06,-496.01 1358.97,-500.33"/>
<polygon fill="#94a3b8" stroke="#94a3b8" points="1358.78,-502.77 1365.86,-500.57 1358.95,-497.87 1358.78,-502.77"/>
<text xml:space="preserve" text-anchor="middle" x="977.24" y="-499.44" font-family="Helvetica,sans-Serif" font-size="9.00" fill="#f8fafc">standard access logs</text>
</g>
<!-- regionalWaf -->
<g id="node10" class="node">
<title>regionalWaf</title>
<path fill="#7f1d1d" stroke="#64748b" d="M876.12,-404.42C876.12,-404.42 792.84,-404.42 792.84,-404.42 786.84,-404.42 780.84,-398.42 780.84,-392.42 780.84,-392.42 780.84,-380.42 780.84,-380.42 780.84,-374.42 786.84,-368.42 792.84,-368.42 792.84,-368.42 876.12,-368.42 876.12,-368.42 882.12,-368.42 888.12,-374.42 888.12,-380.42 888.12,-380.42 888.12,-392.42 888.12,-392.42 888.12,-398.42 882.12,-404.42 876.12,-404.42"/>
<text xml:space="preserve" text-anchor="middle" x="834.48" y="-387.97" font-family="Helvetica,sans-Serif" font-size="11.00" fill="#f8fafc">AWS WAF</text>
<text xml:space="preserve" text-anchor="middle" x="834.48" y="-375.97" font-family="Helvetica,sans-Serif" font-size="11.00" fill="#f8fafc">regional API scope</text>
</g>
<!-- cloudfront&#45;&gt;regionalWaf -->
<g id="edge11" class="edge">
<title>cloudfront&#45;&gt;regionalWaf</title>
<path fill="none" stroke="#94a3b8" d="M587.3,-517.25C603.11,-495.77 632.17,-460.32 665.09,-439.67 697.79,-419.16 739.06,-405.94 772.56,-397.81"/>
<polygon fill="#94a3b8" stroke="#94a3b8" points="772.73,-400.28 778.98,-396.29 771.6,-395.51 772.73,-400.28"/>
<text xml:space="preserve" text-anchor="middle" x="699.96" y="-440.87" font-family="Helvetica,sans-Serif" font-size="9.00" fill="#f8fafc">/api/*</text>
</g>
<!-- apiAlb -->
<g id="node11" class="node">
<title>apiAlb</title>
<path fill="#3730a3" stroke="#64748b" d="M1193.52,-341.42C1193.52,-341.42 1072.74,-341.42 1072.74,-341.42 1066.74,-341.42 1060.74,-335.42 1060.74,-329.42 1060.74,-329.42 1060.74,-317.42 1060.74,-317.42 1060.74,-311.42 1066.74,-305.42 1072.74,-305.42 1072.74,-305.42 1193.52,-305.42 1193.52,-305.42 1199.52,-305.42 1205.52,-311.42 1205.52,-317.42 1205.52,-317.42 1205.52,-329.42 1205.52,-329.42 1205.52,-335.42 1199.52,-341.42 1193.52,-341.42"/>
<text xml:space="preserve" text-anchor="middle" x="1133.13" y="-324.97" font-family="Helvetica,sans-Serif" font-size="11.00" fill="#f8fafc">API ingress / ALB</text>
<text xml:space="preserve" text-anchor="middle" x="1133.13" y="-312.97" font-family="Helvetica,sans-Serif" font-size="11.00" fill="#f8fafc">api.ensemble&#45;grafana.com</text>
</g>
<!-- regionalWaf&#45;&gt;apiAlb -->
<g id="edge12" class="edge">
<title>regionalWaf&#45;&gt;apiAlb</title>
<path fill="none" stroke="#94a3b8" d="M888.52,-375.16C934,-365.5 1000.21,-351.44 1052.13,-340.41"/>
<polygon fill="#94a3b8" stroke="#94a3b8" points="1052.51,-342.83 1058.85,-338.98 1051.49,-338.04 1052.51,-342.83"/>
</g>
<!-- apiAlb&#45;&gt;logsS3 -->
<g id="edge13" class="edge">
<title>apiAlb&#45;&gt;logsS3</title>
<path fill="none" stroke="#94a3b8" d="M1205.87,-340.75C1258.26,-354.76 1323.37,-375.41 1342.65,-395.67 1368.19,-422.52 1343.79,-449.1 1366.18,-478.76"/>
<polygon fill="#94a3b8" stroke="#94a3b8" points="1364.28,-480.31 1370.71,-484 1367.98,-477.1 1364.28,-480.31"/>
<text xml:space="preserve" text-anchor="middle" x="1294.27" y="-396.87" font-family="Helvetica,sans-Serif" font-size="9.00" fill="#f8fafc">ALB access logs</text>
</g>
<!-- inventory -->
<g id="node23" class="node">
<title>inventory</title>
<path fill="#14532d" stroke="#64748b" d="M1473.8,-372.42C1473.8,-372.42 1397.27,-372.42 1397.27,-372.42 1391.27,-372.42 1385.27,-366.42 1385.27,-360.42 1385.27,-360.42 1385.27,-348.42 1385.27,-348.42 1385.27,-342.42 1391.27,-336.42 1397.27,-336.42 1397.27,-336.42 1473.8,-336.42 1473.8,-336.42 1479.8,-336.42 1485.8,-342.42 1485.8,-348.42 1485.8,-348.42 1485.8,-360.42 1485.8,-360.42 1485.8,-366.42 1479.8,-372.42 1473.8,-372.42"/>
<text xml:space="preserve" text-anchor="middle" x="1435.54" y="-355.97" font-family="Helvetica,sans-Serif" font-size="11.00" fill="#f8fafc">inventory&#45;service</text>
<text xml:space="preserve" text-anchor="middle" x="1435.54" y="-343.97" font-family="Helvetica,sans-Serif" font-size="11.00" fill="#f8fafc">Spring Boot pods</text>
</g>
<!-- apiAlb&#45;&gt;inventory -->
<g id="edge14" class="edge">
<title>apiAlb&#45;&gt;inventory</title>
<path fill="none" stroke="#94a3b8" d="M1205.56,-330.47C1245.83,-334.48 1297.06,-339.64 1342.65,-344.42 1353.69,-345.58 1365.48,-346.84 1376.81,-348.07"/>
<polygon fill="#94a3b8" stroke="#94a3b8" points="1376.22,-350.47 1383.45,-348.79 1376.75,-345.6 1376.22,-350.47"/>
</g>
<!-- cart -->
<g id="node24" class="node">
<title>cart</title>
<path fill="#14532d" stroke="#64748b" d="M1473.8,-304.42C1473.8,-304.42 1397.27,-304.42 1397.27,-304.42 1391.27,-304.42 1385.27,-298.42 1385.27,-292.42 1385.27,-292.42 1385.27,-280.42 1385.27,-280.42 1385.27,-274.42 1391.27,-268.42 1397.27,-268.42 1397.27,-268.42 1473.8,-268.42 1473.8,-268.42 1479.8,-268.42 1485.8,-274.42 1485.8,-280.42 1485.8,-280.42 1485.8,-292.42 1485.8,-292.42 1485.8,-298.42 1479.8,-304.42 1473.8,-304.42"/>
<text xml:space="preserve" text-anchor="middle" x="1435.54" y="-287.97" font-family="Helvetica,sans-Serif" font-size="11.00" fill="#f8fafc">cart&#45;service</text>
<text xml:space="preserve" text-anchor="middle" x="1435.54" y="-275.97" font-family="Helvetica,sans-Serif" font-size="11.00" fill="#f8fafc">Spring Boot pods</text>
</g>
<!-- apiAlb&#45;&gt;cart -->
<g id="edge15" class="edge">
<title>apiAlb&#45;&gt;cart</title>
<path fill="none" stroke="#94a3b8" d="M1205.71,-314.6C1258.04,-308.16 1328.11,-299.53 1376.87,-293.52"/>
<polygon fill="#94a3b8" stroke="#94a3b8" points="1376.96,-295.98 1383.6,-292.69 1376.36,-291.12 1376.96,-295.98"/>
</g>
<!-- account -->
<g id="node25" class="node">
<title>account</title>
<path fill="#14532d" stroke="#64748b" d="M1473.8,-236.42C1473.8,-236.42 1397.27,-236.42 1397.27,-236.42 1391.27,-236.42 1385.27,-230.42 1385.27,-224.42 1385.27,-224.42 1385.27,-212.42 1385.27,-212.42 1385.27,-206.42 1391.27,-200.42 1397.27,-200.42 1397.27,-200.42 1473.8,-200.42 1473.8,-200.42 1479.8,-200.42 1485.8,-206.42 1485.8,-212.42 1485.8,-212.42 1485.8,-224.42 1485.8,-224.42 1485.8,-230.42 1479.8,-236.42 1473.8,-236.42"/>
<text xml:space="preserve" text-anchor="middle" x="1435.54" y="-219.97" font-family="Helvetica,sans-Serif" font-size="11.00" fill="#f8fafc">account&#45;service</text>
<text xml:space="preserve" text-anchor="middle" x="1435.54" y="-207.97" font-family="Helvetica,sans-Serif" font-size="11.00" fill="#f8fafc">Spring Boot pods</text>
</g>
<!-- apiAlb&#45;&gt;account -->
<g id="edge16" class="edge">
<title>apiAlb&#45;&gt;account</title>
<path fill="none" stroke="#94a3b8" d="M1186.81,-305.01C1240.05,-286.4 1322.11,-257.72 1377.03,-238.52"/>
<polygon fill="#94a3b8" stroke="#94a3b8" points="1377.7,-240.88 1383.5,-236.26 1376.08,-236.26 1377.7,-240.88"/>
</g>
<!-- google -->
<g id="node13" class="node">
<title>google</title>
<path fill="#4c1d95" stroke="#64748b" d="M628.09,-762.42C628.09,-762.42 519.31,-762.42 519.31,-762.42 513.31,-762.42 507.31,-756.42 507.31,-750.42 507.31,-750.42 507.31,-738.42 507.31,-738.42 507.31,-732.42 513.31,-726.42 519.31,-726.42 519.31,-726.42 628.09,-726.42 628.09,-726.42 634.09,-726.42 640.09,-732.42 640.09,-738.42 640.09,-738.42 640.09,-750.42 640.09,-750.42 640.09,-756.42 634.09,-762.42 628.09,-762.42"/>
<text xml:space="preserve" text-anchor="middle" x="573.7" y="-739.97" font-family="Helvetica,sans-Serif" font-size="11.00" fill="#f8fafc">Google Identity Provider</text>
</g>
<!-- cognito&#45;&gt;google -->
<g id="edge7" class="edge">
<title>cognito&#45;&gt;google</title>
<path fill="none" stroke="#94a3b8" d="M358.05,-744.42C397.81,-744.42 453.63,-744.42 498.38,-744.42"/>
<polygon fill="#94a3b8" stroke="#94a3b8" points="498.37,-746.87 505.37,-744.42 498.37,-741.97 498.37,-746.87"/>
</g>
<!-- postgres -->
<g id="node14" class="node">
<title>postgres</title>
<path fill="#14532d" stroke="#64748b" d="M1788.21,-113.15C1788.21,-114.95 1760.13,-116.42 1725.57,-116.42 1691.01,-116.42 1662.93,-114.95 1662.93,-113.15 1662.93,-113.15 1662.93,-83.69 1662.93,-83.69 1662.93,-81.89 1691.01,-80.42 1725.57,-80.42 1760.13,-80.42 1788.21,-81.89 1788.21,-83.69 1788.21,-83.69 1788.21,-113.15 1788.21,-113.15"/>
<path fill="none" stroke="#64748b" d="M1788.21,-113.15C1788.21,-111.34 1760.13,-109.87 1725.57,-109.87 1691.01,-109.87 1662.93,-111.34 1662.93,-113.15"/>
<text xml:space="preserve" text-anchor="middle" x="1725.57" y="-93.97" font-family="Helvetica,sans-Serif" font-size="11.00" fill="#f8fafc">Postgres inventory DB</text>
</g>
<!-- cloudwatch -->
<g id="node16" class="node">
<title>cloudwatch</title>
<path fill="#334155" stroke="#64748b" d="M2053.49,-148.42C2053.49,-148.42 1972.46,-148.42 1972.46,-148.42 1966.46,-148.42 1960.46,-142.42 1960.46,-136.42 1960.46,-136.42 1960.46,-124.42 1960.46,-124.42 1960.46,-118.42 1966.46,-112.42 1972.46,-112.42 1972.46,-112.42 2053.49,-112.42 2053.49,-112.42 2059.49,-112.42 2065.49,-118.42 2065.49,-124.42 2065.49,-124.42 2065.49,-136.42 2065.49,-136.42 2065.49,-142.42 2059.49,-148.42 2053.49,-148.42"/>
<text xml:space="preserve" text-anchor="middle" x="2012.97" y="-131.97" font-family="Helvetica,sans-Serif" font-size="11.00" fill="#f8fafc">AWS CloudWatch</text>
<text xml:space="preserve" text-anchor="middle" x="2012.97" y="-119.97" font-family="Helvetica,sans-Serif" font-size="11.00" fill="#f8fafc">RDS metrics</text>
</g>
<!-- postgres&#45;&gt;cloudwatch -->
<g id="edge20" class="edge">
<title>postgres&#45;&gt;cloudwatch</title>
<path fill="none" stroke="#94a3b8" d="M1788.38,-99.09C1820.88,-100.03 1861.31,-102.12 1897.21,-106.67 1915.15,-108.95 1934.47,-112.5 1952.05,-116.18"/>
<polygon fill="#94a3b8" stroke="#94a3b8" points="1951.15,-118.5 1958.51,-117.56 1952.17,-113.7 1951.15,-118.5"/>
<text xml:space="preserve" text-anchor="middle" x="1856.71" y="-107.87" font-family="Helvetica,sans-Serif" font-size="9.00" fill="#f8fafc">RDS metrics</text>
</g>
<!-- dynamodb -->
<g id="node15" class="node">
<title>dynamodb</title>
<path fill="#14532d" stroke="#64748b" d="M1776.58,-44.4C1776.58,-46.85 1753.72,-48.84 1725.57,-48.84 1697.42,-48.84 1674.55,-46.85 1674.55,-44.4 1674.55,-44.4 1674.55,-4.44 1674.55,-4.44 1674.55,-1.99 1697.42,0 1725.57,0 1753.72,0 1776.58,-1.99 1776.58,-4.44 1776.58,-4.44 1776.58,-44.4 1776.58,-44.4"/>
<path fill="none" stroke="#64748b" d="M1776.58,-44.4C1776.58,-41.95 1753.72,-39.96 1725.57,-39.96 1697.42,-39.96 1674.55,-41.95 1674.55,-44.4"/>
<text xml:space="preserve" text-anchor="middle" x="1725.57" y="-25.97" font-family="Helvetica,sans-Serif" font-size="11.00" fill="#f8fafc">DynamoDB</text>
<text xml:space="preserve" text-anchor="middle" x="1725.57" y="-13.97" font-family="Helvetica,sans-Serif" font-size="11.00" fill="#f8fafc">cart/account state</text>
</g>
<!-- cloudwatchScrape -->
<g id="node17" class="node">
<title>cloudwatchScrape</title>
<path fill="#581c87" stroke="#64748b" d="M1779.21,-184.42C1779.21,-184.42 1671.93,-184.42 1671.93,-184.42 1665.93,-184.42 1659.93,-178.42 1659.93,-172.42 1659.93,-172.42 1659.93,-160.42 1659.93,-160.42 1659.93,-154.42 1665.93,-148.42 1671.93,-148.42 1671.93,-148.42 1779.21,-148.42 1779.21,-148.42 1785.21,-148.42 1791.21,-154.42 1791.21,-160.42 1791.21,-160.42 1791.21,-172.42 1791.21,-172.42 1791.21,-178.42 1785.21,-184.42 1779.21,-184.42"/>
<text xml:space="preserve" text-anchor="middle" x="1725.57" y="-167.97" font-family="Helvetica,sans-Serif" font-size="11.00" fill="#f8fafc">Grafana Cloud Provider</text>
<text xml:space="preserve" text-anchor="middle" x="1725.57" y="-155.97" font-family="Helvetica,sans-Serif" font-size="11.00" fill="#f8fafc">AWS/RDS scrape job</text>
</g>
<!-- cloudwatchScrape&#45;&gt;cloudwatch -->
<g id="edge21" class="edge">
<title>cloudwatchScrape&#45;&gt;cloudwatch</title>
<path fill="none" stroke="#94a3b8" d="M1791.69,-158.21C1839.8,-152.14 1904.82,-143.94 1951.73,-138.02"/>
<polygon fill="#94a3b8" stroke="#94a3b8" points="1951.84,-140.47 1958.48,-137.17 1951.23,-135.61 1951.84,-140.47"/>
<text xml:space="preserve" text-anchor="middle" x="1856.71" y="-165.73" font-family="Helvetica,sans-Serif" font-size="9.00" fill="#f8fafc">assume AWS role</text>
<text xml:space="preserve" text-anchor="middle" x="1856.71" y="-155.98" font-family="Helvetica,sans-Serif" font-size="9.00" fill="#f8fafc">and scrape metrics</text>
</g>
<!-- cloudwatchScrape&#45;&gt;grafana -->
<g id="edge22" class="edge">
<title>cloudwatchScrape&#45;&gt;grafana</title>
<path fill="none" stroke="#94a3b8" d="M1786.35,-184.77C1788.04,-185.91 1789.66,-187.13 1791.21,-188.42 1916.39,-292.82 1983.5,-487.44 2004.58,-558"/>
<polygon fill="#94a3b8" stroke="#94a3b8" points="2002.18,-558.5 2006.5,-564.53 2006.88,-557.12 2002.18,-558.5"/>
<text xml:space="preserve" text-anchor="middle" x="1856.71" y="-311.13" font-family="Helvetica,sans-Serif" font-size="9.00" fill="#f8fafc">CloudWatch metrics</text>
</g>
<!-- k6 -->
<g id="node19" class="node">
<title>k6</title>
<path fill="#6b21a8" stroke="#64748b" d="M380.06,-694.18C380.06,-694.18 232.28,-694.18 232.28,-694.18 226.28,-694.18 220.28,-688.18 220.28,-682.18 220.28,-682.18 220.28,-658.66 220.28,-658.66 220.28,-652.66 226.28,-646.66 232.28,-646.66 232.28,-646.66 380.06,-646.66 380.06,-646.66 386.06,-646.66 392.06,-652.66 392.06,-658.66 392.06,-658.66 392.06,-682.18 392.06,-682.18 392.06,-688.18 386.06,-694.18 380.06,-694.18"/>
<text xml:space="preserve" text-anchor="middle" x="306.17" y="-677.97" font-family="Helvetica,sans-Serif" font-size="11.00" fill="#f8fafc">Grafana Cloud k6</text>
<text xml:space="preserve" text-anchor="middle" x="306.17" y="-665.97" font-family="Helvetica,sans-Serif" font-size="11.00" fill="#f8fafc">load tests</text>
<text xml:space="preserve" text-anchor="middle" x="306.17" y="-653.97" font-family="Helvetica,sans-Serif" font-size="11.00" fill="#f8fafc">5 rps baseline + browser checks</text>
</g>
<!-- k6&#45;&gt;cloudfront -->
<g id="edge25" class="edge">
<title>k6&#45;&gt;cloudfront</title>
<path fill="none" stroke="#94a3b8" d="M362.28,-646.26C372.36,-641.34 382.65,-635.96 392.06,-630.42 403.86,-623.47 405.33,-619.48 417.06,-612.42 422.31,-609.26 483.67,-579.05 527.76,-557.43"/>
<polygon fill="#94a3b8" stroke="#94a3b8" points="528.65,-559.72 533.86,-554.44 526.5,-555.32 528.65,-559.72"/>
<text xml:space="preserve" text-anchor="middle" x="449.68" y="-642.87" font-family="Helvetica,sans-Serif" font-size="9.00" fill="#f8fafc">regional, spike,</text>
<text xml:space="preserve" text-anchor="middle" x="449.68" y="-633.12" font-family="Helvetica,sans-Serif" font-size="9.00" fill="#f8fafc">5 rps baseline,</text>
<text xml:space="preserve" text-anchor="middle" x="449.68" y="-623.37" font-family="Helvetica,sans-Serif" font-size="9.00" fill="#f8fafc">browser checks</text>
<text xml:space="preserve" text-anchor="middle" x="449.68" y="-613.62" font-family="Helvetica,sans-Serif" font-size="9.00" fill="#f8fafc">with traceparent</text>
</g>
<!-- k6&#45;&gt;grafana -->
<g id="edge26" class="edge">
<title>k6&#45;&gt;grafana</title>
<path fill="none" stroke="#94a3b8" d="M392.36,-673.32C444.44,-674.85 512.41,-676.42 572.7,-676.42 572.7,-676.42 572.7,-676.42 1726.57,-676.42 1817.31,-676.42 1916.8,-633.77 1971.05,-606.55"/>
<polygon fill="#94a3b8" stroke="#94a3b8" points="1971.92,-608.86 1977.05,-603.5 1969.7,-604.49 1971.92,-608.86"/>
<text xml:space="preserve" text-anchor="middle" x="1133.13" y="-677.62" font-family="Helvetica,sans-Serif" font-size="9.00" fill="#f8fafc">test results + trace correlation</text>
</g>
<!-- accountBaseline -->
<g id="node20" class="node">
<title>accountBaseline</title>
<path fill="#334155" stroke="#64748b" d="M1208.9,-425.42C1208.9,-425.42 1057.37,-425.42 1057.37,-425.42 1051.37,-425.42 1045.37,-419.42 1045.37,-413.42 1045.37,-413.42 1045.37,-401.42 1045.37,-401.42 1045.37,-395.42 1051.37,-389.42 1057.37,-389.42 1057.37,-389.42 1208.9,-389.42 1208.9,-389.42 1214.9,-389.42 1220.9,-395.42 1220.9,-401.42 1220.9,-401.42 1220.9,-413.42 1220.9,-413.42 1220.9,-419.42 1214.9,-425.42 1208.9,-425.42"/>
<text xml:space="preserve" text-anchor="middle" x="1133.13" y="-408.97" font-family="Helvetica,sans-Serif" font-size="11.00" fill="#f8fafc">Terraform account&#45;baseline stack</text>
<text xml:space="preserve" text-anchor="middle" x="1133.13" y="-396.97" font-family="Helvetica,sans-Serif" font-size="11.00" fill="#f8fafc">SSM host&#45;management setting</text>
</g>
<!-- beyla -->
<g id="node21" class="node">
<title>beyla</title>
<path fill="#581c87" stroke="#64748b" d="M1466.68,-440.42C1466.68,-440.42 1404.4,-440.42 1404.4,-440.42 1398.4,-440.42 1392.4,-434.42 1392.4,-428.42 1392.4,-428.42 1392.4,-416.42 1392.4,-416.42 1392.4,-410.42 1398.4,-404.42 1404.4,-404.42 1404.4,-404.42 1466.68,-404.42 1466.68,-404.42 1472.68,-404.42 1478.68,-410.42 1478.68,-416.42 1478.68,-416.42 1478.68,-428.42 1478.68,-428.42 1478.68,-434.42 1472.68,-440.42 1466.68,-440.42"/>
<text xml:space="preserve" text-anchor="middle" x="1435.54" y="-417.97" font-family="Helvetica,sans-Serif" font-size="11.00" fill="#f8fafc">Grafana Beyla</text>
</g>
<!-- accountBaseline&#45;&gt;beyla -->
<g id="edge24" class="edge">
<title>accountBaseline&#45;&gt;beyla</title>
<path fill="none" stroke="#94a3b8" d="M1221.02,-411.76C1273.77,-414.39 1339.26,-417.66 1383.71,-419.88"/>
<polygon fill="#94a3b8" stroke="#94a3b8" points="1383.4,-422.32 1390.52,-420.22 1383.65,-417.43 1383.4,-422.32"/>
<text xml:space="preserve" text-anchor="middle" x="1294.27" y="-418.77" font-family="Helvetica,sans-Serif" font-size="9.00" fill="#f8fafc">SSM default role setting</text>
</g>
<!-- alloy -->
<g id="node22" class="node">
<title>alloy</title>
<path fill="#581c87" stroke="#64748b" d="M1754.46,-372.42C1754.46,-372.42 1696.68,-372.42 1696.68,-372.42 1690.68,-372.42 1684.68,-366.42 1684.68,-360.42 1684.68,-360.42 1684.68,-348.42 1684.68,-348.42 1684.68,-342.42 1690.68,-336.42 1696.68,-336.42 1696.68,-336.42 1754.46,-336.42 1754.46,-336.42 1760.46,-336.42 1766.46,-342.42 1766.46,-348.42 1766.46,-348.42 1766.46,-360.42 1766.46,-360.42 1766.46,-366.42 1760.46,-372.42 1754.46,-372.42"/>
<text xml:space="preserve" text-anchor="middle" x="1725.57" y="-355.97" font-family="Helvetica,sans-Serif" font-size="11.00" fill="#f8fafc">Grafana Alloy</text>
<text xml:space="preserve" text-anchor="middle" x="1725.57" y="-343.97" font-family="Helvetica,sans-Serif" font-size="11.00" fill="#f8fafc">OTel collector</text>
</g>
<!-- beyla&#45;&gt;alloy -->
<g id="edge27" class="edge">
<title>beyla&#45;&gt;alloy</title>
<path fill="none" stroke="#94a3b8" d="M1479.04,-412.39C1531.58,-399.98 1620.8,-378.92 1676,-365.89"/>
<polygon fill="#94a3b8" stroke="#94a3b8" points="1676.5,-368.29 1682.75,-364.29 1675.37,-363.52 1676.5,-368.29"/>
<text xml:space="preserve" text-anchor="middle" x="1581.68" y="-401.62" font-family="Helvetica,sans-Serif" font-size="9.00" fill="#f8fafc">zero&#45;code HTTP telemetry</text>
</g>
<!-- alloy&#45;&gt;grafana -->
<g id="edge31" class="edge">
<title>alloy&#45;&gt;grafana</title>
<path fill="none" stroke="#94a3b8" d="M1749.44,-372.85C1800.92,-414.34 1925.83,-515 1982.79,-560.9"/>
<polygon fill="#94a3b8" stroke="#94a3b8" points="1981.22,-562.78 1988.21,-565.27 1984.3,-558.97 1981.22,-562.78"/>
</g>
<!-- inventory&#45;&gt;postgres -->
<g id="edge17" class="edge">
<title>inventory&#45;&gt;postgres</title>
<path fill="none" stroke="#94a3b8" d="M1484.61,-336.1C1491.64,-331.79 1498.24,-326.61 1503.43,-320.42 1527.92,-291.24 1505.8,-269.07 1528.43,-238.42 1562.37,-192.46 1593.74,-206.01 1634.93,-166.42 1648.45,-153.42 1645.71,-144.65 1659.93,-132.42 1664.86,-128.18 1670.42,-124.27 1676.14,-120.73"/>
<polygon fill="#94a3b8" stroke="#94a3b8" points="1677.35,-122.86 1682.15,-117.21 1674.87,-118.63 1677.35,-122.86"/>
</g>
<!-- inventory&#45;&gt;alloy -->
<g id="edge28" class="edge">
<title>inventory&#45;&gt;alloy</title>
<path fill="none" stroke="#94a3b8" d="M1486.05,-354.42C1539.34,-354.42 1623.52,-354.42 1676.31,-354.42"/>
<polygon fill="#94a3b8" stroke="#94a3b8" points="1675.99,-356.87 1682.99,-354.42 1675.99,-351.97 1675.99,-356.87"/>
<text xml:space="preserve" text-anchor="middle" x="1581.68" y="-355.62" font-family="Helvetica,sans-Serif" font-size="9.00" fill="#f8fafc">OTel + Prometheus</text>
</g>
<!-- cart&#45;&gt;dynamodb -->
<g id="edge18" class="edge">
<title>cart&#45;&gt;dynamodb</title>
<path fill="none" stroke="#94a3b8" d="M1485.09,-268C1491.97,-263.72 1498.4,-258.57 1503.43,-252.42 1529.72,-220.29 1501.64,-194.13 1528.43,-162.42 1562.17,-122.47 1597.2,-148.62 1634.93,-112.42 1652.29,-95.77 1643.56,-82.05 1659.93,-64.42 1663.88,-60.17 1668.38,-56.19 1673.13,-52.53"/>
<polygon fill="#94a3b8" stroke="#94a3b8" points="1674.29,-54.72 1678.51,-48.62 1671.4,-50.75 1674.29,-54.72"/>
</g>
<!-- cart&#45;&gt;alloy -->
<g id="edge29" class="edge">
<title>cart&#45;&gt;alloy</title>
<path fill="none" stroke="#94a3b8" d="M1486.05,-298.11C1539.34,-310.69 1623.52,-330.56 1676.31,-343.03"/>
<polygon fill="#94a3b8" stroke="#94a3b8" points="1675.66,-345.39 1683.03,-344.61 1676.78,-340.62 1675.66,-345.39"/>
<text xml:space="preserve" text-anchor="middle" x="1581.68" y="-333.62" font-family="Helvetica,sans-Serif" font-size="9.00" fill="#f8fafc">OTel + Prometheus</text>
</g>
<!-- account&#45;&gt;dynamodb -->
<g id="edge19" class="edge">
<title>account&#45;&gt;dynamodb</title>
<path fill="none" stroke="#94a3b8" d="M1449.38,-200.18C1465.69,-178.05 1495.69,-140.7 1528.43,-116.42 1570.86,-84.96 1625.77,-60.32 1666.7,-44.5"/>
<polygon fill="#94a3b8" stroke="#94a3b8" points="1667.35,-46.87 1673.01,-42.09 1665.6,-42.3 1667.35,-46.87"/>
</g>
<!-- account&#45;&gt;alloy -->
<g id="edge30" class="edge">
<title>account&#45;&gt;alloy</title>
<path fill="none" stroke="#94a3b8" d="M1486.2,-232.42C1527.31,-244.96 1586.58,-265.27 1634.93,-290.67 1656.57,-302.04 1678.98,-317.98 1695.98,-331.07"/>
<polygon fill="#94a3b8" stroke="#94a3b8" points="1694.23,-332.82 1701.26,-335.19 1697.25,-328.95 1694.23,-332.82"/>
<text xml:space="preserve" text-anchor="middle" x="1581.68" y="-291.87" font-family="Helvetica,sans-Serif" font-size="9.00" fill="#f8fafc">OTel + Prometheus</text>
</g>
</g>
</svg>
