<?xml version="1.0" encoding="UTF-8" standalone="no"?>
<!DOCTYPE svg PUBLIC "-//W3C//DTD SVG 1.1//EN"
 "http://www.w3.org/Graphics/SVG/1.1/DTD/svg11.dtd">
<!-- Generated by graphviz version 15.0.0 (20260523.1842)
 -->
<!-- Title: network_diagram Pages: 1 -->
<svg width="1565pt" height="664pt"
 viewBox="0.00 0.00 1565.00 664.00" xmlns="http://www.w3.org/2000/svg" xmlns:xlink="http://www.w3.org/1999/xlink">
<g id="graph0" class="graph" transform="scale(1 1) rotate(0) translate(18 646)">
<title>network_diagram</title>
<polygon fill="#0b1220" stroke="none" points="-18,18 -18,-646 1546.62,-646 1546.62,18 -18,18"/>
<text xml:space="preserve" text-anchor="middle" x="764.31" y="-605" font-family="Helvetica,sans-Serif" font-size="20.00" fill="#f8fafc">Ensemble&#45;Retail Network Diagram</text>
<g id="clust1" class="cluster">
<title>cluster_lambda</title>
<path fill="#0b1220" stroke="#64748b" stroke-dasharray="5,2" d="M891.09,-109C891.09,-109 1261.84,-109 1261.84,-109 1267.84,-109 1273.84,-115 1273.84,-121 1273.84,-121 1273.84,-314 1273.84,-314 1273.84,-320 1267.84,-326 1261.84,-326 1261.84,-326 891.09,-326 891.09,-326 885.09,-326 879.09,-320 879.09,-314 879.09,-314 879.09,-121 879.09,-121 879.09,-115 885.09,-109 891.09,-109"/>
<text xml:space="preserve" text-anchor="middle" x="1076.47" y="-303" font-family="Helvetica,sans-Serif" font-size="20.00" fill="#f8fafc">AWS Lambda (Java 21, arm64, SnapStart)</text>
</g>
<!-- shopper -->
<g id="node1" class="node">
<title>shopper</title>
<path fill="#1e3a8a" stroke="#64748b" d="M88.53,-195C88.53,-195 12,-195 12,-195 6,-195 0,-189 0,-183 0,-183 0,-171 0,-171 0,-165 6,-159 12,-159 12,-159 88.53,-159 88.53,-159 94.53,-159 100.53,-165 100.53,-171 100.53,-171 100.53,-183 100.53,-183 100.53,-189 94.53,-195 88.53,-195"/>
<text xml:space="preserve" text-anchor="middle" x="50.27" y="-172.55" font-family="Helvetica,sans-Serif" font-size="11.00" fill="#f8fafc">Shopper browser</text>
</g>
<!-- edgeWaf -->
<g id="node5" class="node">
<title>edgeWaf</title>
<path fill="#7f1d1d" stroke="#64748b" d="M345.56,-564C345.56,-564 266.78,-564 266.78,-564 260.78,-564 254.78,-558 254.78,-552 254.78,-552 254.78,-540 254.78,-540 254.78,-534 260.78,-528 266.78,-528 266.78,-528 345.56,-528 345.56,-528 351.56,-528 357.56,-534 357.56,-540 357.56,-540 357.56,-552 357.56,-552 357.56,-558 351.56,-564 345.56,-564"/>
<text xml:space="preserve" text-anchor="middle" x="306.17" y="-547.55" font-family="Helvetica,sans-Serif" font-size="11.00" fill="#f8fafc">AWS WAF</text>
<text xml:space="preserve" text-anchor="middle" x="306.17" y="-535.55" font-family="Helvetica,sans-Serif" font-size="11.00" fill="#f8fafc">CloudFront scope</text>
</g>
<!-- shopper&#45;&gt;edgeWaf -->
<g id="edge6" class="edge">
<title>shopper&#45;&gt;edgeWaf</title>
<path fill="none" stroke="#94a3b8" d="M64.11,-195.28C78.68,-215.88 103.31,-250.22 125.53,-279 155.45,-317.75 174.97,-319.71 195.28,-364.25 222.55,-424.05 179.48,-458.48 220.28,-510 227.24,-518.79 236.74,-525.46 246.87,-530.52"/>
<polygon fill="#94a3b8" stroke="#94a3b8" points="245.57,-532.62 252.96,-533.29 247.61,-528.16 245.57,-532.62"/>
<text xml:space="preserve" text-anchor="middle" x="160.41" y="-365.45" font-family="Helvetica,sans-Serif" font-size="9.00" fill="#f8fafc">HTTPS storefront</text>
</g>
<!-- apiGateway -->
<g id="node10" class="node">
<title>apiGateway</title>
<path fill="#3730a3" stroke="#64748b" d="M706.84,-279.76C706.84,-279.76 597.31,-279.76 597.31,-279.76 591.31,-279.76 585.31,-273.76 585.31,-267.76 585.31,-267.76 585.31,-244.24 585.31,-244.24 585.31,-238.24 591.31,-232.24 597.31,-232.24 597.31,-232.24 706.84,-232.24 706.84,-232.24 712.84,-232.24 718.84,-238.24 718.84,-244.24 718.84,-244.24 718.84,-267.76 718.84,-267.76 718.84,-273.76 712.84,-279.76 706.84,-279.76"/>
<text xml:space="preserve" text-anchor="middle" x="652.08" y="-263.55" font-family="Helvetica,sans-Serif" font-size="11.00" fill="#f8fafc">API Gateway HTTP API</text>
<text xml:space="preserve" text-anchor="middle" x="652.08" y="-251.55" font-family="Helvetica,sans-Serif" font-size="11.00" fill="#f8fafc">api.ensemble&#45;retail.com</text>
<text xml:space="preserve" text-anchor="middle" x="652.08" y="-239.55" font-family="Helvetica,sans-Serif" font-size="11.00" fill="#f8fafc">stage throttling</text>
</g>
<!-- shopper&#45;&gt;apiGateway -->
<g id="edge8" class="edge">
<title>shopper&#45;&gt;apiGateway</title>
<path fill="none" stroke="#94a3b8" d="M100.74,-185.94C134.4,-191.91 179.97,-199.78 220.28,-206 307.52,-219.47 329.39,-222.68 417.06,-233 470.3,-239.27 530.5,-245.16 576.51,-249.41"/>
<polygon fill="#94a3b8" stroke="#94a3b8" points="576.23,-251.84 583.43,-250.04 576.68,-246.96 576.23,-251.84"/>
<text xml:space="preserve" text-anchor="middle" x="306.17" y="-240.75" font-family="Helvetica,sans-Serif" font-size="9.00" fill="#f8fafc">HTTPS /api/*</text>
<text xml:space="preserve" text-anchor="middle" x="306.17" y="-231" font-family="Helvetica,sans-Serif" font-size="9.00" fill="#f8fafc">X&#45;Api&#45;Key or Bearer JWT</text>
</g>
<!-- cognito -->
<g id="node11" class="node">
<title>cognito</title>
<path fill="#4c1d95" stroke="#64748b" d="M345.56,-36C345.56,-36 266.78,-36 266.78,-36 260.78,-36 254.78,-30 254.78,-24 254.78,-24 254.78,-12 254.78,-12 254.78,-6 260.78,0 266.78,0 266.78,0 345.56,0 345.56,0 351.56,0 357.56,-6 357.56,-12 357.56,-12 357.56,-24 357.56,-24 357.56,-30 351.56,-36 345.56,-36"/>
<text xml:space="preserve" text-anchor="middle" x="306.17" y="-19.55" font-family="Helvetica,sans-Serif" font-size="11.00" fill="#f8fafc">AWS Cognito</text>
<text xml:space="preserve" text-anchor="middle" x="306.17" y="-7.55" font-family="Helvetica,sans-Serif" font-size="11.00" fill="#f8fafc">Google federation</text>
</g>
<!-- shopper&#45;&gt;cognito -->
<g id="edge9" class="edge">
<title>shopper&#45;&gt;cognito</title>
<path fill="none" stroke="#94a3b8" d="M58.35,-158.92C69.07,-133.97 91.8,-89.37 125.53,-65.25 160.89,-39.97 208.82,-28.21 246.28,-22.74"/>
<polygon fill="#94a3b8" stroke="#94a3b8" points="246.49,-25.19 253.09,-21.81 245.83,-20.33 246.49,-25.19"/>
<text xml:space="preserve" text-anchor="middle" x="160.41" y="-66.45" font-family="Helvetica,sans-Serif" font-size="9.00" fill="#f8fafc">Google sign&#45;in</text>
</g>
<!-- grafana -->
<g id="node15" class="node">
<title>grafana</title>
<path fill="#6b21a8" stroke="#64748b" d="M730.84,-147C730.84,-147 573.31,-147 573.31,-147 567.31,-147 561.31,-141 561.31,-135 561.31,-135 561.31,-123 561.31,-123 561.31,-117 567.31,-111 573.31,-111 573.31,-111 730.84,-111 730.84,-111 736.84,-111 742.84,-117 742.84,-123 742.84,-123 742.84,-135 742.84,-135 742.84,-141 736.84,-147 730.84,-147"/>
<text xml:space="preserve" text-anchor="middle" x="652.08" y="-130.55" font-family="Helvetica,sans-Serif" font-size="11.00" fill="#f8fafc">Grafana Cloud</text>
<text xml:space="preserve" text-anchor="middle" x="652.08" y="-118.55" font-family="Helvetica,sans-Serif" font-size="11.00" fill="#f8fafc">Faro, metrics, logs, traces, profiles</text>
</g>
<!-- shopper&#45;&gt;grafana -->
<g id="edge24" class="edge">
<title>shopper&#45;&gt;grafana</title>
<path fill="none" stroke="#94a3b8" d="M90.5,-158.51C124.1,-143.76 174.2,-124.28 220.28,-116.25 333.11,-96.59 465.02,-105 552.86,-114.94"/>
<polygon fill="#94a3b8" stroke="#94a3b8" points="552.48,-117.36 559.72,-115.73 553.04,-112.49 552.48,-117.36"/>
<text xml:space="preserve" text-anchor="middle" x="306.17" y="-117.45" font-family="Helvetica,sans-Serif" font-size="9.00" fill="#f8fafc">Faro web telemetry</text>
</g>
<!-- registrar -->
<g id="node2" class="node">
<title>registrar</title>
<path fill="#111827" stroke="#64748b" d="M87.03,-400C87.03,-400 13.5,-400 13.5,-400 7.5,-400 1.5,-394 1.5,-388 1.5,-388 1.5,-376 1.5,-376 1.5,-370 7.5,-364 13.5,-364 13.5,-364 87.03,-364 87.03,-364 93.03,-364 99.03,-370 99.03,-376 99.03,-376 99.03,-388 99.03,-388 99.03,-394 93.03,-400 87.03,-400"/>
<text xml:space="preserve" text-anchor="middle" x="50.27" y="-377.55" font-family="Helvetica,sans-Serif" font-size="11.00" fill="#f8fafc">Domain registrar</text>
</g>
<!-- route53 -->
<g id="node3" class="node">
<title>route53</title>
<path fill="#164e63" stroke="#64748b" d="M359.81,-405.76C359.81,-405.76 252.53,-405.76 252.53,-405.76 246.53,-405.76 240.53,-399.76 240.53,-393.76 240.53,-393.76 240.53,-370.24 240.53,-370.24 240.53,-364.24 246.53,-358.24 252.53,-358.24 252.53,-358.24 359.81,-358.24 359.81,-358.24 365.81,-358.24 371.81,-364.24 371.81,-370.24 371.81,-370.24 371.81,-393.76 371.81,-393.76 371.81,-399.76 365.81,-405.76 359.81,-405.76"/>
<text xml:space="preserve" text-anchor="middle" x="306.17" y="-389.55" font-family="Helvetica,sans-Serif" font-size="11.00" fill="#f8fafc">Route53 public DNS</text>
<text xml:space="preserve" text-anchor="middle" x="306.17" y="-377.55" font-family="Helvetica,sans-Serif" font-size="11.00" fill="#f8fafc">ensemble&#45;retail.com</text>
<text xml:space="preserve" text-anchor="middle" x="306.17" y="-365.55" font-family="Helvetica,sans-Serif" font-size="11.00" fill="#f8fafc">api.ensemble&#45;retail.com</text>
</g>
<!-- registrar&#45;&gt;route53 -->
<g id="edge1" class="edge">
<title>registrar&#45;&gt;route53</title>
<path fill="none" stroke="#94a3b8" d="M99.32,-382C136.66,-382 189.07,-382 231.67,-382"/>
<polygon fill="#94a3b8" stroke="#94a3b8" points="231.54,-384.45 238.54,-382 231.54,-379.55 231.54,-384.45"/>
<text xml:space="preserve" text-anchor="middle" x="160.41" y="-383.2" font-family="Helvetica,sans-Serif" font-size="9.00" fill="#f8fafc">NS delegation</text>
</g>
<!-- cloudfront -->
<g id="node6" class="node">
<title>cloudfront</title>
<path fill="#1e3a8a" stroke="#64748b" d="M703.09,-531C703.09,-531 601.06,-531 601.06,-531 595.06,-531 589.06,-525 589.06,-519 589.06,-519 589.06,-507 589.06,-507 589.06,-501 595.06,-495 601.06,-495 601.06,-495 703.09,-495 703.09,-495 709.09,-495 715.09,-501 715.09,-507 715.09,-507 715.09,-519 715.09,-519 715.09,-525 709.09,-531 703.09,-531"/>
<text xml:space="preserve" text-anchor="middle" x="652.08" y="-514.55" font-family="Helvetica,sans-Serif" font-size="11.00" fill="#f8fafc">CloudFront distribution</text>
<text xml:space="preserve" text-anchor="middle" x="652.08" y="-502.55" font-family="Helvetica,sans-Serif" font-size="11.00" fill="#f8fafc">ensemble&#45;retail.com</text>
</g>
<!-- route53&#45;&gt;cloudfront -->
<g id="edge2" class="edge">
<title>route53&#45;&gt;cloudfront</title>
<path fill="none" stroke="#94a3b8" d="M372.21,-379.5C419.68,-380.07 484.52,-385.96 536.31,-409.5 575.77,-427.44 611.13,-463.96 631.85,-488.46"/>
<polygon fill="#94a3b8" stroke="#94a3b8" points="629.73,-489.73 636.08,-493.56 633.5,-486.6 629.73,-489.73"/>
<text xml:space="preserve" text-anchor="middle" x="476.69" y="-420.45" font-family="Helvetica,sans-Serif" font-size="9.00" fill="#f8fafc">storefront</text>
<text xml:space="preserve" text-anchor="middle" x="476.69" y="-410.7" font-family="Helvetica,sans-Serif" font-size="9.00" fill="#f8fafc">A / AAAA alias</text>
</g>
<!-- route53&#45;&gt;apiGateway -->
<g id="edge3" class="edge">
<title>route53&#45;&gt;apiGateway</title>
<path fill="none" stroke="#94a3b8" d="M336.66,-357.76C357.84,-341.51 387.71,-320.84 417.06,-308.25 468.12,-286.34 529.56,-273.07 576.67,-265.39"/>
<polygon fill="#94a3b8" stroke="#94a3b8" points="576.97,-267.82 583.5,-264.3 576.2,-262.98 576.97,-267.82"/>
<text xml:space="preserve" text-anchor="middle" x="476.69" y="-309.45" font-family="Helvetica,sans-Serif" font-size="9.00" fill="#f8fafc">api.* A / AAAA alias</text>
</g>
<!-- acm -->
<g id="node4" class="node">
<title>acm</title>
<path fill="#155e75" stroke="#64748b" d="M352.31,-493.76C352.31,-493.76 260.03,-493.76 260.03,-493.76 254.03,-493.76 248.03,-487.76 248.03,-481.76 248.03,-481.76 248.03,-458.24 248.03,-458.24 248.03,-452.24 254.03,-446.24 260.03,-446.24 260.03,-446.24 352.31,-446.24 352.31,-446.24 358.31,-446.24 364.31,-452.24 364.31,-458.24 364.31,-458.24 364.31,-481.76 364.31,-481.76 364.31,-487.76 358.31,-493.76 352.31,-493.76"/>
<text xml:space="preserve" text-anchor="middle" x="306.17" y="-477.55" font-family="Helvetica,sans-Serif" font-size="11.00" fill="#f8fafc">ACM certificate</text>
<text xml:space="preserve" text-anchor="middle" x="306.17" y="-465.55" font-family="Helvetica,sans-Serif" font-size="11.00" fill="#f8fafc">us&#45;east&#45;1 / ISSUED</text>
<text xml:space="preserve" text-anchor="middle" x="306.17" y="-453.55" font-family="Helvetica,sans-Serif" font-size="11.00" fill="#f8fafc">covers both domains</text>
</g>
<!-- acm&#45;&gt;cloudfront -->
<g id="edge4" class="edge">
<title>acm&#45;&gt;cloudfront</title>
<path fill="none" stroke="#94a3b8" d="M364.73,-477.2C424.02,-484.61 516.52,-496.18 580.26,-504.15"/>
<polygon fill="#94a3b8" stroke="#94a3b8" points="579.91,-506.57 587.16,-505.01 580.52,-501.71 579.91,-506.57"/>
<text xml:space="preserve" text-anchor="middle" x="476.69" y="-499.06" font-family="Helvetica,sans-Serif" font-size="9.00" fill="#f8fafc">TLS certificate</text>
</g>
<!-- acm&#45;&gt;apiGateway -->
<g id="edge5" class="edge">
<title>acm&#45;&gt;apiGateway</title>
<path fill="none" stroke="#94a3b8" d="M364.76,-466.02C423.16,-461.06 508.76,-450.97 536.31,-433 589.8,-398.12 623.67,-328.63 639.83,-287.87"/>
<polygon fill="#94a3b8" stroke="#94a3b8" points="642.04,-288.94 642.28,-281.53 637.47,-287.18 642.04,-288.94"/>
<text xml:space="preserve" text-anchor="middle" x="476.69" y="-461.82" font-family="Helvetica,sans-Serif" font-size="9.00" fill="#f8fafc">TLS certificate</text>
</g>
<!-- edgeWaf&#45;&gt;cloudfront -->
<g id="edge7" class="edge">
<title>edgeWaf&#45;&gt;cloudfront</title>
<path fill="none" stroke="#94a3b8" d="M357.74,-542.37C404.2,-538.9 474.96,-533.28 536.31,-527 550.5,-525.55 565.65,-523.82 580.14,-522.09"/>
<polygon fill="#94a3b8" stroke="#94a3b8" points="580.43,-524.52 587.08,-521.25 579.84,-519.66 580.43,-524.52"/>
</g>
<!-- staticS3 -->
<g id="node7" class="node">
<title>staticS3</title>
<path fill="#713f12" stroke="#64748b" d="M1117.98,-599C1117.98,-599 1033.95,-599 1033.95,-599 1027.95,-599 1021.95,-593 1021.95,-587 1021.95,-587 1021.95,-575 1021.95,-575 1021.95,-569 1027.95,-563 1033.95,-563 1033.95,-563 1117.98,-563 1117.98,-563 1123.98,-563 1129.98,-569 1129.98,-575 1129.98,-575 1129.98,-587 1129.98,-587 1129.98,-593 1123.98,-599 1117.98,-599"/>
<text xml:space="preserve" text-anchor="middle" x="1075.97" y="-582.55" font-family="Helvetica,sans-Serif" font-size="11.00" fill="#f8fafc">S3 frontend bucket</text>
<text xml:space="preserve" text-anchor="middle" x="1075.97" y="-570.55" font-family="Helvetica,sans-Serif" font-size="11.00" fill="#f8fafc">private origin</text>
</g>
<!-- cloudfront&#45;&gt;staticS3 -->
<g id="edge11" class="edge">
<title>cloudfront&#45;&gt;staticS3</title>
<path fill="none" stroke="#94a3b8" d="M715.33,-523.03C795.43,-535.95 933.75,-558.24 1013.49,-571.09"/>
<polygon fill="#94a3b8" stroke="#94a3b8" points="1012.69,-573.44 1019.99,-572.14 1013.47,-568.61 1012.69,-573.44"/>
<text xml:space="preserve" text-anchor="middle" x="810.97" y="-546.16" font-family="Helvetica,sans-Serif" font-size="9.00" fill="#f8fafc">static assets</text>
</g>
<!-- imageS3 -->
<g id="node8" class="node">
<title>imageS3</title>
<path fill="#713f12" stroke="#64748b" d="M1138.61,-531C1138.61,-531 1013.33,-531 1013.33,-531 1007.33,-531 1001.33,-525 1001.33,-519 1001.33,-519 1001.33,-507 1001.33,-507 1001.33,-501 1007.33,-495 1013.33,-495 1013.33,-495 1138.61,-495 1138.61,-495 1144.61,-495 1150.61,-501 1150.61,-507 1150.61,-507 1150.61,-519 1150.61,-519 1150.61,-525 1144.61,-531 1138.61,-531"/>
<text xml:space="preserve" text-anchor="middle" x="1075.97" y="-508.55" font-family="Helvetica,sans-Serif" font-size="11.00" fill="#f8fafc">S3 inventory images bucket</text>
</g>
<!-- cloudfront&#45;&gt;imageS3 -->
<g id="edge12" class="edge">
<title>cloudfront&#45;&gt;imageS3</title>
<path fill="none" stroke="#94a3b8" d="M715.33,-513C788.9,-513 911.57,-513 992.86,-513"/>
<polygon fill="#94a3b8" stroke="#94a3b8" points="992.57,-515.45 999.57,-513 992.57,-510.55 992.57,-515.45"/>
<text xml:space="preserve" text-anchor="middle" x="810.97" y="-514.2" font-family="Helvetica,sans-Serif" font-size="9.00" fill="#f8fafc">inventory images</text>
</g>
<!-- logsS3 -->
<g id="node9" class="node">
<title>logsS3</title>
<path fill="#713f12" stroke="#64748b" d="M1128.86,-463C1128.86,-463 1023.08,-463 1023.08,-463 1017.08,-463 1011.08,-457 1011.08,-451 1011.08,-451 1011.08,-439 1011.08,-439 1011.08,-433 1017.08,-427 1023.08,-427 1023.08,-427 1128.86,-427 1128.86,-427 1134.86,-427 1140.86,-433 1140.86,-439 1140.86,-439 1140.86,-451 1140.86,-451 1140.86,-457 1134.86,-463 1128.86,-463"/>
<text xml:space="preserve" text-anchor="middle" x="1075.97" y="-446.55" font-family="Helvetica,sans-Serif" font-size="11.00" fill="#f8fafc">S3 edge logs bucket</text>
<text xml:space="preserve" text-anchor="middle" x="1075.97" y="-434.55" font-family="Helvetica,sans-Serif" font-size="11.00" fill="#f8fafc">CloudFront access logs</text>
</g>
<!-- cloudfront&#45;&gt;logsS3 -->
<g id="edge13" class="edge">
<title>cloudfront&#45;&gt;logsS3</title>
<path fill="none" stroke="#94a3b8" d="M715.33,-502.97C791.89,-490.63 921.62,-469.72 1002.57,-456.67"/>
<polygon fill="#94a3b8" stroke="#94a3b8" points="1002.71,-459.13 1009.23,-455.59 1001.93,-454.29 1002.71,-459.13"/>
<text xml:space="preserve" text-anchor="middle" x="810.97" y="-494.11" font-family="Helvetica,sans-Serif" font-size="9.00" fill="#f8fafc">standard access logs</text>
</g>
<!-- cwLogs -->
<g id="node14" class="node">
<title>cwLogs</title>
<path fill="#334155" stroke="#64748b" d="M1511.75,-289C1511.75,-289 1402.96,-289 1402.96,-289 1396.96,-289 1390.96,-283 1390.96,-277 1390.96,-277 1390.96,-265 1390.96,-265 1390.96,-259 1396.96,-253 1402.96,-253 1402.96,-253 1511.75,-253 1511.75,-253 1517.75,-253 1523.75,-259 1523.75,-265 1523.75,-265 1523.75,-277 1523.75,-277 1523.75,-283 1517.75,-289 1511.75,-289"/>
<text xml:space="preserve" text-anchor="middle" x="1457.36" y="-272.55" font-family="Helvetica,sans-Serif" font-size="11.00" fill="#f8fafc">AWS CloudWatch Logs</text>
<text xml:space="preserve" text-anchor="middle" x="1457.36" y="-260.55" font-family="Helvetica,sans-Serif" font-size="11.00" fill="#f8fafc">API Gateway + Lambda</text>
</g>
<!-- apiGateway&#45;&gt;cwLogs -->
<g id="edge17" class="edge">
<title>apiGateway&#45;&gt;cwLogs</title>
<path fill="none" stroke="#94a3b8" d="M709.89,-280.17C754.87,-297.93 819.77,-320.54 879.09,-330 1052.34,-357.64 1100.54,-357.32 1273.84,-330 1319.25,-322.84 1368.77,-306.25 1404.75,-292.47"/>
<polygon fill="#94a3b8" stroke="#94a3b8" points="1405.62,-294.76 1411.26,-289.95 1403.85,-290.19 1405.62,-294.76"/>
<text xml:space="preserve" text-anchor="middle" x="1075.97" y="-351.81" font-family="Helvetica,sans-Serif" font-size="9.00" fill="#f8fafc">access logs</text>
</g>
<!-- inventory -->
<g id="node17" class="node">
<title>inventory</title>
<path fill="#14532d" stroke="#64748b" d="M1118.73,-289C1118.73,-289 1033.2,-289 1033.2,-289 1027.2,-289 1021.2,-283 1021.2,-277 1021.2,-277 1021.2,-265 1021.2,-265 1021.2,-259 1027.2,-253 1033.2,-253 1033.2,-253 1118.73,-253 1118.73,-253 1124.73,-253 1130.73,-259 1130.73,-265 1130.73,-265 1130.73,-277 1130.73,-277 1130.73,-283 1124.73,-289 1118.73,-289"/>
<text xml:space="preserve" text-anchor="middle" x="1075.97" y="-272.55" font-family="Helvetica,sans-Serif" font-size="11.00" fill="#f8fafc">inventory&#45;service</text>
<text xml:space="preserve" text-anchor="middle" x="1075.97" y="-260.55" font-family="Helvetica,sans-Serif" font-size="11.00" fill="#f8fafc">Lambda + live alias</text>
</g>
<!-- apiGateway&#45;&gt;inventory -->
<g id="edge14" class="edge">
<title>apiGateway&#45;&gt;inventory</title>
<path fill="none" stroke="#94a3b8" d="M719,-258.34C799.27,-261.2 933.85,-265.98 1012.52,-268.78"/>
<polygon fill="#94a3b8" stroke="#94a3b8" points="1012.29,-271.22 1019.38,-269.02 1012.47,-266.33 1012.29,-271.22"/>
<text xml:space="preserve" text-anchor="middle" x="810.97" y="-264.25" font-family="Helvetica,sans-Serif" font-size="9.00" fill="#f8fafc">/api/inventory/*</text>
</g>
<!-- cart -->
<g id="node18" class="node">
<title>cart</title>
<path fill="#14532d" stroke="#64748b" d="M1118.73,-221C1118.73,-221 1033.2,-221 1033.2,-221 1027.2,-221 1021.2,-215 1021.2,-209 1021.2,-209 1021.2,-197 1021.2,-197 1021.2,-191 1027.2,-185 1033.2,-185 1033.2,-185 1118.73,-185 1118.73,-185 1124.73,-185 1130.73,-191 1130.73,-197 1130.73,-197 1130.73,-209 1130.73,-209 1130.73,-215 1124.73,-221 1118.73,-221"/>
<text xml:space="preserve" text-anchor="middle" x="1075.97" y="-204.55" font-family="Helvetica,sans-Serif" font-size="11.00" fill="#f8fafc">cart&#45;service</text>
<text xml:space="preserve" text-anchor="middle" x="1075.97" y="-192.55" font-family="Helvetica,sans-Serif" font-size="11.00" fill="#f8fafc">Lambda + live alias</text>
</g>
<!-- apiGateway&#45;&gt;cart -->
<g id="edge15" class="edge">
<title>apiGateway&#45;&gt;cart</title>
<path fill="none" stroke="#94a3b8" d="M719,-247.72C799.27,-237.63 933.85,-220.73 1012.52,-210.84"/>
<polygon fill="#94a3b8" stroke="#94a3b8" points="1012.75,-213.29 1019.39,-209.98 1012.14,-208.42 1012.75,-213.29"/>
<text xml:space="preserve" text-anchor="middle" x="810.97" y="-241.54" font-family="Helvetica,sans-Serif" font-size="9.00" fill="#f8fafc">/api/cart/*</text>
</g>
<!-- account -->
<g id="node19" class="node">
<title>account</title>
<path fill="#14532d" stroke="#64748b" d="M1118.73,-153C1118.73,-153 1033.2,-153 1033.2,-153 1027.2,-153 1021.2,-147 1021.2,-141 1021.2,-141 1021.2,-129 1021.2,-129 1021.2,-123 1027.2,-117 1033.2,-117 1033.2,-117 1118.73,-117 1118.73,-117 1124.73,-117 1130.73,-123 1130.73,-129 1130.73,-129 1130.73,-141 1130.73,-141 1130.73,-147 1124.73,-153 1118.73,-153"/>
<text xml:space="preserve" text-anchor="middle" x="1075.97" y="-136.55" font-family="Helvetica,sans-Serif" font-size="11.00" fill="#f8fafc">account&#45;service</text>
<text xml:space="preserve" text-anchor="middle" x="1075.97" y="-124.55" font-family="Helvetica,sans-Serif" font-size="11.00" fill="#f8fafc">Lambda + live alias</text>
</g>
<!-- apiGateway&#45;&gt;account -->
<g id="edge16" class="edge">
<title>apiGateway&#45;&gt;account</title>
<path fill="none" stroke="#94a3b8" d="M706.87,-231.86C752.05,-212.42 818.71,-185.69 879.09,-169 923.04,-156.85 973.79,-148.19 1012.62,-142.65"/>
<polygon fill="#94a3b8" stroke="#94a3b8" points="1012.62,-145.12 1019.22,-141.72 1011.94,-140.27 1012.62,-145.12"/>
<text xml:space="preserve" text-anchor="middle" x="810.97" y="-206.27" font-family="Helvetica,sans-Serif" font-size="9.00" fill="#f8fafc">/api/account/*</text>
</g>
<!-- google -->
<g id="node12" class="node">
<title>google</title>
<path fill="#4c1d95" stroke="#64748b" d="M706.47,-36C706.47,-36 597.69,-36 597.69,-36 591.69,-36 585.69,-30 585.69,-24 585.69,-24 585.69,-12 585.69,-12 585.69,-6 591.69,0 597.69,0 597.69,0 706.47,0 706.47,0 712.47,0 718.47,-6 718.47,-12 718.47,-12 718.47,-24 718.47,-24 718.47,-30 712.47,-36 706.47,-36"/>
<text xml:space="preserve" text-anchor="middle" x="652.08" y="-13.55" font-family="Helvetica,sans-Serif" font-size="11.00" fill="#f8fafc">Google Identity Provider</text>
</g>
<!-- cognito&#45;&gt;google -->
<g id="edge10" class="edge">
<title>cognito&#45;&gt;google</title>
<path fill="none" stroke="#94a3b8" d="M357.91,-18C415.79,-18 510.94,-18 577.07,-18"/>
<polygon fill="#94a3b8" stroke="#94a3b8" points="576.88,-20.45 583.88,-18 576.88,-15.55 576.88,-20.45"/>
</g>
<!-- dynamodb -->
<g id="node13" class="node">
<title>dynamodb</title>
<path fill="#14532d" stroke="#64748b" d="M1528.62,-156.73C1528.62,-160.01 1496.68,-162.67 1457.36,-162.67 1418.03,-162.67 1386.09,-160.01 1386.09,-156.73 1386.09,-156.73 1386.09,-103.27 1386.09,-103.27 1386.09,-99.99 1418.03,-97.33 1457.36,-97.33 1496.68,-97.33 1528.62,-99.99 1528.62,-103.27 1528.62,-103.27 1528.62,-156.73 1528.62,-156.73"/>
<path fill="none" stroke="#64748b" d="M1528.62,-156.73C1528.62,-153.45 1496.68,-150.79 1457.36,-150.79 1418.03,-150.79 1386.09,-153.45 1386.09,-156.73"/>
<text xml:space="preserve" text-anchor="middle" x="1457.36" y="-137.55" font-family="Helvetica,sans-Serif" font-size="11.00" fill="#f8fafc">DynamoDB</text>
<text xml:space="preserve" text-anchor="middle" x="1457.36" y="-125.55" font-family="Helvetica,sans-Serif" font-size="11.00" fill="#f8fafc">products / carts / accounts</text>
<text xml:space="preserve" text-anchor="middle" x="1457.36" y="-113.55" font-family="Helvetica,sans-Serif" font-size="11.00" fill="#f8fafc">on&#45;demand, PITR</text>
</g>
<!-- k6 -->
<g id="node16" class="node">
<title>k6</title>
<path fill="#6b21a8" stroke="#64748b" d="M380.06,-189.76C380.06,-189.76 232.28,-189.76 232.28,-189.76 226.28,-189.76 220.28,-183.76 220.28,-177.76 220.28,-177.76 220.28,-154.24 220.28,-154.24 220.28,-148.24 226.28,-142.24 232.28,-142.24 232.28,-142.24 380.06,-142.24 380.06,-142.24 386.06,-142.24 392.06,-148.24 392.06,-154.24 392.06,-154.24 392.06,-177.76 392.06,-177.76 392.06,-183.76 386.06,-189.76 380.06,-189.76"/>
<text xml:space="preserve" text-anchor="middle" x="306.17" y="-173.55" font-family="Helvetica,sans-Serif" font-size="11.00" fill="#f8fafc">Grafana Cloud k6</text>
<text xml:space="preserve" text-anchor="middle" x="306.17" y="-161.55" font-family="Helvetica,sans-Serif" font-size="11.00" fill="#f8fafc">load tests</text>
<text xml:space="preserve" text-anchor="middle" x="306.17" y="-149.55" font-family="Helvetica,sans-Serif" font-size="11.00" fill="#f8fafc">5 rps baseline + browser checks</text>
</g>
<!-- k6&#45;&gt;cloudfront -->
<g id="edge25" class="edge">
<title>k6&#45;&gt;cloudfront</title>
<path fill="none" stroke="#94a3b8" d="M365.21,-190.2C375.36,-196.65 384.94,-204.53 392.06,-214 420.9,-252.33 384.1,-284.15 417.06,-319 455.06,-359.17 491.2,-322.52 536.31,-354.5 585.39,-389.3 621.49,-451.81 639.08,-487.03"/>
<polygon fill="#94a3b8" stroke="#94a3b8" points="636.81,-487.96 642.08,-493.17 641.21,-485.81 636.81,-487.96"/>
<text xml:space="preserve" text-anchor="middle" x="476.69" y="-365.45" font-family="Helvetica,sans-Serif" font-size="9.00" fill="#f8fafc">storefront + browser checks</text>
<text xml:space="preserve" text-anchor="middle" x="476.69" y="-355.7" font-family="Helvetica,sans-Serif" font-size="9.00" fill="#f8fafc">with traceparent</text>
</g>
<!-- k6&#45;&gt;apiGateway -->
<g id="edge26" class="edge">
<title>k6&#45;&gt;apiGateway</title>
<path fill="none" stroke="#94a3b8" d="M392.46,-178.08C435.99,-185.28 489.5,-195.72 536.31,-209.5 554.02,-214.71 572.75,-221.66 589.84,-228.59"/>
<polygon fill="#94a3b8" stroke="#94a3b8" points="588.76,-230.79 596.16,-231.19 590.62,-226.26 588.76,-230.79"/>
<text xml:space="preserve" text-anchor="middle" x="476.69" y="-220.45" font-family="Helvetica,sans-Serif" font-size="9.00" fill="#f8fafc">regional, spike,</text>
<text xml:space="preserve" text-anchor="middle" x="476.69" y="-210.7" font-family="Helvetica,sans-Serif" font-size="9.00" fill="#f8fafc">5 rps baseline API load</text>
</g>
<!-- k6&#45;&gt;grafana -->
<g id="edge27" class="edge">
<title>k6&#45;&gt;grafana</title>
<path fill="none" stroke="#94a3b8" d="M392.18,-156.85C440.79,-151.62 501.98,-145.04 552.67,-139.59"/>
<polygon fill="#94a3b8" stroke="#94a3b8" points="552.83,-142.03 559.53,-138.85 552.31,-137.16 552.83,-142.03"/>
<text xml:space="preserve" text-anchor="middle" x="476.69" y="-155.23" font-family="Helvetica,sans-Serif" font-size="9.00" fill="#f8fafc">test results + trace correlation</text>
</g>
<!-- inventory&#45;&gt;dynamodb -->
<g id="edge18" class="edge">
<title>inventory&#45;&gt;dynamodb</title>
<path fill="none" stroke="#94a3b8" d="M1131.02,-274.93C1190.74,-276.91 1288.1,-273 1361.09,-235 1389.9,-220 1414.33,-192.56 1431.23,-169.49"/>
<polygon fill="#94a3b8" stroke="#94a3b8" points="1433.05,-171.16 1435.13,-164.04 1429.07,-168.31 1433.05,-171.16"/>
<text xml:space="preserve" text-anchor="middle" x="1329.97" y="-258.58" font-family="Helvetica,sans-Serif" font-size="9.00" fill="#f8fafc">scan products</text>
</g>
<!-- inventory&#45;&gt;cwLogs -->
<g id="edge21" class="edge">
<title>inventory&#45;&gt;cwLogs</title>
<path fill="none" stroke="#94a3b8" d="M1131.2,-276.2C1188.39,-280.95 1281.13,-286.6 1361.09,-282 1367.96,-281.6 1375.09,-281.05 1382.23,-280.4"/>
<polygon fill="#94a3b8" stroke="#94a3b8" points="1382.35,-282.85 1389.08,-279.74 1381.88,-277.97 1382.35,-282.85"/>
<text xml:space="preserve" text-anchor="middle" x="1329.97" y="-284.9" font-family="Helvetica,sans-Serif" font-size="9.00" fill="#f8fafc">function logs</text>
</g>
<!-- cart&#45;&gt;dynamodb -->
<g id="edge19" class="edge">
<title>cart&#45;&gt;dynamodb</title>
<path fill="none" stroke="#94a3b8" d="M1130.95,-205.05C1173.11,-204.12 1231.46,-197.04 1273.84,-169 1290.93,-157.69 1280.85,-140.07 1298.84,-130.25 1322.34,-117.42 1350.9,-114.37 1377.22,-115.49"/>
<polygon fill="#94a3b8" stroke="#94a3b8" points="1377.03,-117.93 1384.17,-115.9 1377.32,-113.04 1377.03,-117.93"/>
<text xml:space="preserve" text-anchor="middle" x="1329.97" y="-131.45" font-family="Helvetica,sans-Serif" font-size="9.00" fill="#f8fafc">get/put cart</text>
</g>
<!-- cart&#45;&gt;cwLogs -->
<g id="edge22" class="edge">
<title>cart&#45;&gt;cwLogs</title>
<path fill="none" stroke="#94a3b8" d="M1131.14,-201.01C1189.08,-200.26 1283.17,-203.07 1361.09,-224.25 1381.16,-229.71 1402.05,-239.44 1419.14,-248.62"/>
<polygon fill="#94a3b8" stroke="#94a3b8" points="1417.57,-250.55 1424.89,-251.77 1419.93,-246.26 1417.57,-250.55"/>
<text xml:space="preserve" text-anchor="middle" x="1329.97" y="-225.45" font-family="Helvetica,sans-Serif" font-size="9.00" fill="#f8fafc">function logs</text>
</g>
<!-- account&#45;&gt;dynamodb -->
<g id="edge20" class="edge">
<title>account&#45;&gt;dynamodb</title>
<path fill="none" stroke="#94a3b8" d="M1119.11,-116.59C1174.81,-94.7 1275.86,-63.47 1361.09,-83.25 1372.39,-85.87 1383.9,-90.03 1394.82,-94.82"/>
<polygon fill="#94a3b8" stroke="#94a3b8" points="1393.52,-96.92 1400.9,-97.59 1395.55,-92.46 1393.52,-96.92"/>
<text xml:space="preserve" text-anchor="middle" x="1329.97" y="-84.45" font-family="Helvetica,sans-Serif" font-size="9.00" fill="#f8fafc">get/put account</text>
</g>
<!-- account&#45;&gt;cwLogs -->
<g id="edge23" class="edge">
<title>account&#45;&gt;cwLogs</title>
<path fill="none" stroke="#94a3b8" d="M1131.19,-137.59C1190.63,-142.34 1287.34,-155.86 1361.09,-194.25 1387.83,-208.17 1414.21,-230.25 1432.4,-247.16"/>
<polygon fill="#94a3b8" stroke="#94a3b8" points="1430.38,-248.62 1437.15,-251.64 1433.74,-245.06 1430.38,-248.62"/>
<text xml:space="preserve" text-anchor="middle" x="1329.97" y="-195.45" font-family="Helvetica,sans-Serif" font-size="9.00" fill="#f8fafc">function logs</text>
</g>
</g>
</svg>
