<?xml version="1.0" encoding="UTF-8" standalone="no"?>
<!DOCTYPE svg PUBLIC "-//W3C//DTD SVG 1.1//EN"
 "http://www.w3.org/Graphics/SVG/1.1/DTD/svg11.dtd">
<!-- Generated by graphviz version 15.0.0 (20260523.1842)
 -->
<!-- Title: observability_capabilities_flow Pages: 1 -->
<svg width="2660pt" height="1023pt"
 viewBox="0.00 0.00 2660.00 1023.00" xmlns="http://www.w3.org/2000/svg" xmlns:xlink="http://www.w3.org/1999/xlink">
<g id="graph0" class="graph" transform="scale(1 1) rotate(0) translate(18 1005)">
<title>observability_capabilities_flow</title>
<polygon fill="#0b1220" stroke="none" points="-18,18 -18,-1005 2641.74,-1005 2641.74,18 -18,18"/>
<text xml:space="preserve" text-anchor="middle" x="1311.87" y="-964" font-family="Helvetica,sans-Serif" font-size="20.00" fill="#f8fafc">Observability Capabilities Flow</text>
<g id="clust1" class="cluster">
<title>cluster_services</title>
<path fill="#0b1220" stroke="#64748b" stroke-dasharray="5,2" d="M1261.87,-400C1261.87,-400 1436.87,-400 1436.87,-400 1442.87,-400 1448.87,-406 1448.87,-412 1448.87,-412 1448.87,-605 1448.87,-605 1448.87,-611 1442.87,-617 1436.87,-617 1436.87,-617 1261.87,-617 1261.87,-617 1255.87,-617 1249.87,-611 1249.87,-605 1249.87,-605 1249.87,-412 1249.87,-412 1249.87,-406 1255.87,-400 1261.87,-400"/>
<text xml:space="preserve" text-anchor="middle" x="1349.37" y="-594" font-family="Helvetica,sans-Serif" font-size="20.00" fill="#f8fafc">Spring Boot services</text>
</g>
<!-- browser -->
<g id="node1" class="node">
<title>browser</title>
<path fill="#1e3a8a" stroke="#64748b" d="M122.65,-922C122.65,-922 46.12,-922 46.12,-922 40.12,-922 34.12,-916 34.12,-910 34.12,-910 34.12,-898 34.12,-898 34.12,-892 40.12,-886 46.12,-886 46.12,-886 122.65,-886 122.65,-886 128.65,-886 134.65,-892 134.65,-898 134.65,-898 134.65,-910 134.65,-910 134.65,-916 128.65,-922 122.65,-922"/>
<text xml:space="preserve" text-anchor="middle" x="84.39" y="-905.55" font-family="Helvetica,sans-Serif" font-size="11.00" fill="#f8fafc">Shopper browser</text>
<text xml:space="preserve" text-anchor="middle" x="84.39" y="-893.55" font-family="Helvetica,sans-Serif" font-size="11.00" fill="#f8fafc">React storefront</text>
</g>
<!-- faro -->
<g id="node2" class="node">
<title>faro</title>
<path fill="#6b21a8" stroke="#64748b" d="M571.31,-958C571.31,-958 359.78,-958 359.78,-958 353.78,-958 347.78,-952 347.78,-946 347.78,-946 347.78,-934 347.78,-934 347.78,-928 353.78,-922 359.78,-922 359.78,-922 571.31,-922 571.31,-922 577.31,-922 583.31,-928 583.31,-934 583.31,-934 583.31,-946 583.31,-946 583.31,-952 577.31,-958 571.31,-958"/>
<text xml:space="preserve" text-anchor="middle" x="465.54" y="-941.55" font-family="Helvetica,sans-Serif" font-size="11.00" fill="#f8fafc">Grafana Faro SDK</text>
<text xml:space="preserve" text-anchor="middle" x="465.54" y="-929.55" font-family="Helvetica,sans-Serif" font-size="11.00" fill="#f8fafc">web vitals, errors, logs, sessions, user actions</text>
</g>
<!-- browser&#45;&gt;faro -->
<g id="edge1" class="edge">
<title>browser&#45;&gt;faro</title>
<path fill="none" stroke="#94a3b8" d="M134.96,-908.71C186.56,-913.61 269.42,-921.47 339.15,-928.09"/>
<polygon fill="#94a3b8" stroke="#94a3b8" points="338.88,-930.53 346.08,-928.75 339.34,-925.65 338.88,-930.53"/>
<text xml:space="preserve" text-anchor="middle" x="258.28" y="-927.48" font-family="Helvetica,sans-Serif" font-size="9.00" fill="#f8fafc">page views, errors, user actions</text>
</g>
<!-- tracing -->
<g id="node3" class="node">
<title>tracing</title>
<path fill="#6b21a8" stroke="#64748b" d="M527.06,-887C527.06,-887 404.03,-887 404.03,-887 398.03,-887 392.03,-881 392.03,-875 392.03,-875 392.03,-863 392.03,-863 392.03,-857 398.03,-851 404.03,-851 404.03,-851 527.06,-851 527.06,-851 533.06,-851 539.06,-857 539.06,-863 539.06,-863 539.06,-875 539.06,-875 539.06,-881 533.06,-887 527.06,-887"/>
<text xml:space="preserve" text-anchor="middle" x="465.54" y="-870.55" font-family="Helvetica,sans-Serif" font-size="11.00" fill="#f8fafc">Faro web tracing</text>
<text xml:space="preserve" text-anchor="middle" x="465.54" y="-858.55" font-family="Helvetica,sans-Serif" font-size="11.00" fill="#f8fafc">trace context on fetch/XHR</text>
</g>
<!-- browser&#45;&gt;tracing -->
<g id="edge2" class="edge">
<title>browser&#45;&gt;tracing</title>
<path fill="none" stroke="#94a3b8" d="M135.11,-893.6C153.47,-890.12 174.5,-886.54 193.78,-884.25 257.13,-876.72 329.28,-872.89 383.16,-870.95"/>
<polygon fill="#94a3b8" stroke="#94a3b8" points="383.22,-873.4 390.13,-870.71 383.05,-868.51 383.22,-873.4"/>
<text xml:space="preserve" text-anchor="middle" x="258.28" y="-885.45" font-family="Helvetica,sans-Serif" font-size="9.00" fill="#f8fafc">HTTP requests with traceparent</text>
</g>
<!-- grafana -->
<g id="node22" class="node">
<title>grafana</title>
<path fill="#4c1d95" stroke="#64748b" d="M2397.96,-310C2397.96,-310 2306.43,-310 2306.43,-310 2300.43,-310 2294.43,-304 2294.43,-298 2294.43,-298 2294.43,-286 2294.43,-286 2294.43,-280 2300.43,-274 2306.43,-274 2306.43,-274 2397.96,-274 2397.96,-274 2403.96,-274 2409.96,-280 2409.96,-286 2409.96,-286 2409.96,-298 2409.96,-298 2409.96,-304 2403.96,-310 2397.96,-310"/>
<text xml:space="preserve" text-anchor="middle" x="2352.19" y="-293.55" font-family="Helvetica,sans-Serif" font-size="11.00" fill="#f8fafc">Grafana Cloud stack</text>
<text xml:space="preserve" text-anchor="middle" x="2352.19" y="-281.55" font-family="Helvetica,sans-Serif" font-size="11.00" fill="#f8fafc">orenlion.grafana.net</text>
</g>
<!-- faro&#45;&gt;grafana -->
<g id="edge10" class="edge">
<title>faro&#45;&gt;grafana</title>
<path fill="none" stroke="#94a3b8" d="M583.47,-941.4C658.68,-942.18 758.52,-943 846.82,-943 846.82,-943 846.82,-943 2045.54,-943 2098.75,-943 2263.21,-799.39 2269.43,-789 2317.9,-708.04 2342.76,-410.37 2349.37,-318.91"/>
<polygon fill="#94a3b8" stroke="#94a3b8" points="2351.81,-319.14 2349.86,-311.99 2346.92,-318.79 2351.81,-319.14"/>
<text xml:space="preserve" text-anchor="middle" x="1348.87" y="-944.2" font-family="Helvetica,sans-Serif" font-size="9.00" fill="#f8fafc">collector endpoint</text>
</g>
<!-- cloudfront -->
<g id="node4" class="node">
<title>cloudfront</title>
<path fill="#1e3a8a" stroke="#64748b" d="M893.59,-334C893.59,-334 802.06,-334 802.06,-334 796.06,-334 790.06,-328 790.06,-322 790.06,-322 790.06,-310 790.06,-310 790.06,-304 796.06,-298 802.06,-298 802.06,-298 893.59,-298 893.59,-298 899.59,-298 905.59,-304 905.59,-310 905.59,-310 905.59,-322 905.59,-322 905.59,-328 899.59,-334 893.59,-334"/>
<text xml:space="preserve" text-anchor="middle" x="847.82" y="-317.55" font-family="Helvetica,sans-Serif" font-size="11.00" fill="#f8fafc">CloudFront</text>
<text xml:space="preserve" text-anchor="middle" x="847.82" y="-305.55" font-family="Helvetica,sans-Serif" font-size="11.00" fill="#f8fafc">static + /api/* routing</text>
</g>
<!-- tracing&#45;&gt;cloudfront -->
<g id="edge3" class="edge">
<title>tracing&#45;&gt;cloudfront</title>
<path fill="none" stroke="#94a3b8" d="M479.2,-850.6C535.59,-768.59 764.14,-436.25 829.37,-341.39"/>
<polygon fill="#94a3b8" stroke="#94a3b8" points="831.32,-342.87 833.27,-335.72 827.28,-340.1 831.32,-342.87"/>
</g>
<!-- tracing&#45;&gt;grafana -->
<g id="edge11" class="edge">
<title>tracing&#45;&gt;grafana</title>
<path fill="none" stroke="#94a3b8" d="M539.45,-869C616,-869 739.87,-869 846.82,-869 846.82,-869 846.82,-869 2045.54,-869 2298.27,-869 2342.62,-431.4 2349.86,-318.38"/>
<polygon fill="#94a3b8" stroke="#94a3b8" points="2352.29,-318.87 2350.27,-311.73 2347.4,-318.57 2352.29,-318.87"/>
<text xml:space="preserve" text-anchor="middle" x="1348.87" y="-870.2" font-family="Helvetica,sans-Serif" font-size="9.00" fill="#f8fafc">frontend spans</text>
</g>
<!-- ingress -->
<g id="node5" class="node">
<title>ingress</title>
<path fill="#3730a3" stroke="#64748b" d="M1071.37,-444C1071.37,-444 968.59,-444 968.59,-444 962.59,-444 956.59,-438 956.59,-432 956.59,-432 956.59,-420 956.59,-420 956.59,-414 962.59,-408 968.59,-408 968.59,-408 1071.37,-408 1071.37,-408 1077.37,-408 1083.37,-414 1083.37,-420 1083.37,-420 1083.37,-432 1083.37,-432 1083.37,-438 1077.37,-444 1071.37,-444"/>
<text xml:space="preserve" text-anchor="middle" x="1019.98" y="-421.55" font-family="Helvetica,sans-Serif" font-size="11.00" fill="#f8fafc">EKS API ingress / ALB</text>
</g>
<!-- cloudfront&#45;&gt;ingress -->
<g id="edge4" class="edge">
<title>cloudfront&#45;&gt;ingress</title>
<path fill="none" stroke="#94a3b8" d="M877.31,-334.41C906.51,-353.29 951.99,-382.69 983.51,-403.07"/>
<polygon fill="#94a3b8" stroke="#94a3b8" points="981.93,-404.96 989.14,-406.71 984.59,-400.85 981.93,-404.96"/>
</g>
<!-- edgeLogs -->
<g id="node6" class="node">
<title>edgeLogs</title>
<path fill="#713f12" stroke="#64748b" d="M1389.01,-334C1389.01,-334 1308.73,-334 1308.73,-334 1302.73,-334 1296.73,-328 1296.73,-322 1296.73,-322 1296.73,-310 1296.73,-310 1296.73,-304 1302.73,-298 1308.73,-298 1308.73,-298 1389.01,-298 1389.01,-298 1395.01,-298 1401.01,-304 1401.01,-310 1401.01,-310 1401.01,-322 1401.01,-322 1401.01,-328 1395.01,-334 1389.01,-334"/>
<text xml:space="preserve" text-anchor="middle" x="1348.87" y="-317.55" font-family="Helvetica,sans-Serif" font-size="11.00" fill="#f8fafc">S3 access logs</text>
<text xml:space="preserve" text-anchor="middle" x="1348.87" y="-305.55" font-family="Helvetica,sans-Serif" font-size="11.00" fill="#f8fafc">CloudFront + ALB</text>
</g>
<!-- cloudfront&#45;&gt;edgeLogs -->
<g id="edge5" class="edge">
<title>cloudfront&#45;&gt;edgeLogs</title>
<path fill="none" stroke="#94a3b8" d="M906.07,-316C1001.26,-316 1191.15,-316 1288.03,-316"/>
<polygon fill="#94a3b8" stroke="#94a3b8" points="1288.03,-318.45 1295.03,-316 1288.03,-313.55 1288.03,-318.45"/>
<text xml:space="preserve" text-anchor="middle" x="1019.98" y="-317.2" font-family="Helvetica,sans-Serif" font-size="9.00" fill="#f8fafc">standard access logs</text>
</g>
<!-- ingress&#45;&gt;edgeLogs -->
<g id="edge6" class="edge">
<title>ingress&#45;&gt;edgeLogs</title>
<path fill="none" stroke="#94a3b8" d="M1075.69,-407.59C1134.57,-387.78 1227.91,-356.37 1288.52,-335.97"/>
<polygon fill="#94a3b8" stroke="#94a3b8" points="1289.2,-338.33 1295.05,-333.77 1287.63,-333.68 1289.2,-338.33"/>
<text xml:space="preserve" text-anchor="middle" x="1169.12" y="-397.7" font-family="Helvetica,sans-Serif" font-size="9.00" fill="#f8fafc">ALB access logs</text>
</g>
<!-- inventory -->
<g id="node7" class="node">
<title>inventory</title>
<path fill="#14532d" stroke="#64748b" d="M1386.01,-444C1386.01,-444 1311.73,-444 1311.73,-444 1305.73,-444 1299.73,-438 1299.73,-432 1299.73,-432 1299.73,-420 1299.73,-420 1299.73,-414 1305.73,-408 1311.73,-408 1311.73,-408 1386.01,-408 1386.01,-408 1392.01,-408 1398.01,-414 1398.01,-420 1398.01,-420 1398.01,-432 1398.01,-432 1398.01,-438 1392.01,-444 1386.01,-444"/>
<text xml:space="preserve" text-anchor="middle" x="1348.87" y="-421.55" font-family="Helvetica,sans-Serif" font-size="11.00" fill="#f8fafc">inventory&#45;service</text>
</g>
<!-- ingress&#45;&gt;inventory -->
<g id="edge7" class="edge">
<title>ingress&#45;&gt;inventory</title>
<path fill="none" stroke="#94a3b8" d="M1083.62,-426C1143.52,-426 1233.06,-426 1290.97,-426"/>
<polygon fill="#94a3b8" stroke="#94a3b8" points="1290.76,-428.45 1297.76,-426 1290.76,-423.55 1290.76,-428.45"/>
</g>
<!-- cart -->
<g id="node8" class="node">
<title>cart</title>
<path fill="#14532d" stroke="#64748b" d="M1373.26,-580C1373.26,-580 1324.48,-580 1324.48,-580 1318.48,-580 1312.48,-574 1312.48,-568 1312.48,-568 1312.48,-556 1312.48,-556 1312.48,-550 1318.48,-544 1324.48,-544 1324.48,-544 1373.26,-544 1373.26,-544 1379.26,-544 1385.26,-550 1385.26,-556 1385.26,-556 1385.26,-568 1385.26,-568 1385.26,-574 1379.26,-580 1373.26,-580"/>
<text xml:space="preserve" text-anchor="middle" x="1348.87" y="-557.55" font-family="Helvetica,sans-Serif" font-size="11.00" fill="#f8fafc">cart&#45;service</text>
</g>
<!-- ingress&#45;&gt;cart -->
<g id="edge8" class="edge">
<title>ingress&#45;&gt;cart</title>
<path fill="none" stroke="#94a3b8" d="M1042.73,-444.41C1059.7,-458.01 1084.35,-476.15 1108.37,-488 1173.12,-519.95 1254.53,-541.57 1303.81,-552.83"/>
<polygon fill="#94a3b8" stroke="#94a3b8" points="1303.19,-555.2 1310.56,-554.34 1304.27,-550.42 1303.19,-555.2"/>
</g>
<!-- account -->
<g id="node9" class="node">
<title>account</title>
<path fill="#14532d" stroke="#64748b" d="M1383.01,-512C1383.01,-512 1314.73,-512 1314.73,-512 1308.73,-512 1302.73,-506 1302.73,-500 1302.73,-500 1302.73,-488 1302.73,-488 1302.73,-482 1308.73,-476 1314.73,-476 1314.73,-476 1383.01,-476 1383.01,-476 1389.01,-476 1395.01,-482 1395.01,-488 1395.01,-488 1395.01,-500 1395.01,-500 1395.01,-506 1389.01,-512 1383.01,-512"/>
<text xml:space="preserve" text-anchor="middle" x="1348.87" y="-489.55" font-family="Helvetica,sans-Serif" font-size="11.00" fill="#f8fafc">account&#45;service</text>
</g>
<!-- ingress&#45;&gt;account -->
<g id="edge9" class="edge">
<title>ingress&#45;&gt;account</title>
<path fill="none" stroke="#94a3b8" d="M1082.37,-444.4C1091.06,-446.76 1099.92,-449.04 1108.37,-451 1171.78,-465.72 1245.62,-478.3 1294.37,-485.98"/>
<polygon fill="#94a3b8" stroke="#94a3b8" points="1293.78,-488.37 1301.07,-487.03 1294.54,-483.53 1293.78,-488.37"/>
</g>
<!-- edgeLogs&#45;&gt;grafana -->
<g id="edge30" class="edge">
<title>edgeLogs&#45;&gt;grafana</title>
<path fill="none" stroke="#94a3b8" d="M1376.31,-297.78C1399.51,-282.97 1434.79,-263.23 1468.87,-255 1496.09,-248.43 1503.96,-252.78 1531.87,-255 1543.09,-255.89 1545.67,-257.88 1556.87,-259 1826.57,-286.08 2149.94,-291.03 2285.91,-291.87"/>
<polygon fill="#94a3b8" stroke="#94a3b8" points="2285.68,-294.32 2292.69,-291.91 2285.71,-289.42 2285.68,-294.32"/>
<text xml:space="preserve" text-anchor="middle" x="1833.9" y="-284.67" font-family="Helvetica,sans-Serif" font-size="9.00" fill="#f8fafc">RCA source for edge/API status codes</text>
</g>
<!-- actuator -->
<g id="node10" class="node">
<title>actuator</title>
<path fill="#164e63" stroke="#64748b" d="M1681.77,-469C1681.77,-469 1586.49,-469 1586.49,-469 1580.49,-469 1574.49,-463 1574.49,-457 1574.49,-457 1574.49,-445 1574.49,-445 1574.49,-439 1580.49,-433 1586.49,-433 1586.49,-433 1681.77,-433 1681.77,-433 1687.77,-433 1693.77,-439 1693.77,-445 1693.77,-445 1693.77,-457 1693.77,-457 1693.77,-463 1687.77,-469 1681.77,-469"/>
<text xml:space="preserve" text-anchor="middle" x="1634.13" y="-452.55" font-family="Helvetica,sans-Serif" font-size="11.00" fill="#f8fafc">Spring Actuator</text>
<text xml:space="preserve" text-anchor="middle" x="1634.13" y="-440.55" font-family="Helvetica,sans-Serif" font-size="11.00" fill="#f8fafc">/actuator/prometheus</text>
</g>
<!-- inventory&#45;&gt;actuator -->
<g id="edge12" class="edge">
<title>inventory&#45;&gt;actuator</title>
<path fill="none" stroke="#94a3b8" d="M1381.39,-407.76C1402.74,-394.1 1430.33,-373.74 1448.87,-350 1462.59,-332.43 1450.23,-316.22 1468.87,-304 1492.29,-288.65 1509.99,-286.53 1531.87,-304 1571.05,-335.28 1525.69,-374.74 1556.87,-414 1561.21,-419.47 1566.56,-424.18 1572.4,-428.23"/>
<polygon fill="#94a3b8" stroke="#94a3b8" points="1570.94,-430.2 1578.17,-431.87 1573.56,-426.06 1570.94,-430.2"/>
</g>
<!-- otel -->
<g id="node11" class="node">
<title>otel</title>
<path fill="#164e63" stroke="#64748b" d="M1684.77,-673C1684.77,-673 1583.49,-673 1583.49,-673 1577.49,-673 1571.49,-667 1571.49,-661 1571.49,-661 1571.49,-649 1571.49,-649 1571.49,-643 1577.49,-637 1583.49,-637 1583.49,-637 1684.77,-637 1684.77,-637 1690.77,-637 1696.77,-643 1696.77,-649 1696.77,-649 1696.77,-661 1696.77,-661 1696.77,-667 1690.77,-673 1684.77,-673"/>
<text xml:space="preserve" text-anchor="middle" x="1634.13" y="-656.55" font-family="Helvetica,sans-Serif" font-size="11.00" fill="#f8fafc">Spring OpenTelemetry</text>
<text xml:space="preserve" text-anchor="middle" x="1634.13" y="-644.55" font-family="Helvetica,sans-Serif" font-size="11.00" fill="#f8fafc">traces + resource attrs</text>
</g>
<!-- inventory&#45;&gt;otel -->
<g id="edge15" class="edge">
<title>inventory&#45;&gt;otel</title>
<path fill="none" stroke="#94a3b8" d="M1398.24,-411.15C1438.97,-401.92 1496.16,-397.11 1531.87,-429 1596.06,-486.32 1505.45,-552 1556.87,-621 1559.94,-625.12 1563.62,-628.75 1567.69,-631.95"/>
<polygon fill="#94a3b8" stroke="#94a3b8" points="1565.98,-633.74 1573.12,-635.76 1568.79,-629.73 1565.98,-633.74"/>
</g>
<!-- logs -->
<g id="node12" class="node">
<title>logs</title>
<path fill="#164e63" stroke="#64748b" d="M1680.27,-537C1680.27,-537 1587.99,-537 1587.99,-537 1581.99,-537 1575.99,-531 1575.99,-525 1575.99,-525 1575.99,-513 1575.99,-513 1575.99,-507 1581.99,-501 1587.99,-501 1587.99,-501 1680.27,-501 1680.27,-501 1686.27,-501 1692.27,-507 1692.27,-513 1692.27,-513 1692.27,-525 1692.27,-525 1692.27,-531 1686.27,-537 1680.27,-537"/>
<text xml:space="preserve" text-anchor="middle" x="1634.13" y="-520.55" font-family="Helvetica,sans-Serif" font-size="11.00" fill="#f8fafc">Kubernetes pod logs</text>
<text xml:space="preserve" text-anchor="middle" x="1634.13" y="-508.55" font-family="Helvetica,sans-Serif" font-size="11.00" fill="#f8fafc">service labels</text>
</g>
<!-- inventory&#45;&gt;logs -->
<g id="edge18" class="edge">
<title>inventory&#45;&gt;logs</title>
<path fill="none" stroke="#94a3b8" d="M1368.08,-407.82C1389.87,-387.47 1428.5,-355.69 1468.87,-343 1495.58,-334.6 1510.42,-325 1531.87,-343 1580.95,-384.2 1517.44,-434.49 1556.87,-485 1560.29,-489.38 1564.39,-493.2 1568.89,-496.55"/>
<polygon fill="#94a3b8" stroke="#94a3b8" points="1567.3,-498.43 1574.49,-500.27 1570.02,-494.36 1567.3,-498.43"/>
</g>
<!-- beyla -->
<g id="node13" class="node">
<title>beyla</title>
<path fill="#6b21a8" stroke="#64748b" d="M1694.52,-605C1694.52,-605 1573.74,-605 1573.74,-605 1567.74,-605 1561.74,-599 1561.74,-593 1561.74,-593 1561.74,-581 1561.74,-581 1561.74,-575 1567.74,-569 1573.74,-569 1573.74,-569 1694.52,-569 1694.52,-569 1700.52,-569 1706.52,-575 1706.52,-581 1706.52,-581 1706.52,-593 1706.52,-593 1706.52,-599 1700.52,-605 1694.52,-605"/>
<text xml:space="preserve" text-anchor="middle" x="1634.13" y="-588.55" font-family="Helvetica,sans-Serif" font-size="11.00" fill="#f8fafc">Grafana Beyla</text>
<text xml:space="preserve" text-anchor="middle" x="1634.13" y="-576.55" font-family="Helvetica,sans-Serif" font-size="11.00" fill="#f8fafc">zero&#45;code HTTP telemetry</text>
</g>
<!-- inventory&#45;&gt;beyla -->
<g id="edge21" class="edge">
<title>inventory&#45;&gt;beyla</title>
<path fill="none" stroke="#94a3b8" d="M1373.24,-407.69C1411.04,-380.43 1485.99,-336.41 1531.87,-376.25 1591.77,-428.27 1509.11,-489.65 1556.87,-553 1559.96,-557.1 1563.66,-560.72 1567.74,-563.91"/>
<polygon fill="#94a3b8" stroke="#94a3b8" points="1566.04,-565.71 1573.18,-567.71 1568.84,-561.69 1566.04,-565.71"/>
<text xml:space="preserve" text-anchor="middle" x="1500.37" y="-377.45" font-family="Helvetica,sans-Serif" font-size="9.00" fill="#f8fafc">HTTP telemetry</text>
</g>
<!-- pyroscope -->
<g id="node14" class="node">
<title>pyroscope</title>
<path fill="#6b21a8" stroke="#64748b" d="M1699.4,-398C1699.4,-398 1568.87,-398 1568.87,-398 1562.87,-398 1556.87,-392 1556.87,-386 1556.87,-386 1556.87,-374 1556.87,-374 1556.87,-368 1562.87,-362 1568.87,-362 1568.87,-362 1699.4,-362 1699.4,-362 1705.4,-362 1711.4,-368 1711.4,-374 1711.4,-374 1711.4,-386 1711.4,-386 1711.4,-392 1705.4,-398 1699.4,-398"/>
<text xml:space="preserve" text-anchor="middle" x="1634.13" y="-381.55" font-family="Helvetica,sans-Serif" font-size="11.00" fill="#f8fafc">Pyroscope Alloy DaemonSet</text>
<text xml:space="preserve" text-anchor="middle" x="1634.13" y="-369.55" font-family="Helvetica,sans-Serif" font-size="11.00" fill="#f8fafc">JVM profiles</text>
</g>
<!-- inventory&#45;&gt;pyroscope -->
<g id="edge24" class="edge">
<title>inventory&#45;&gt;pyroscope</title>
<path fill="none" stroke="#94a3b8" d="M1383.97,-407.73C1405.63,-394.45 1432.55,-374.53 1448.87,-350 1468.16,-321.01 1441.28,-295.5 1468.87,-274.25 1491.05,-257.16 1507.58,-260.32 1531.87,-274.25 1550.96,-285.2 1542.61,-300.23 1556.87,-317 1569.41,-331.75 1585.7,-345.72 1600,-356.75"/>
<polygon fill="#94a3b8" stroke="#94a3b8" points="1598.14,-358.42 1605.2,-360.68 1601.1,-354.51 1598.14,-358.42"/>
<text xml:space="preserve" text-anchor="middle" x="1500.37" y="-275.45" font-family="Helvetica,sans-Serif" font-size="9.00" fill="#f8fafc">JVM attach</text>
</g>
<!-- cart&#45;&gt;actuator -->
<g id="edge13" class="edge">
<title>cart&#45;&gt;actuator</title>
<path fill="none" stroke="#94a3b8" d="M1361.48,-580.41C1391.47,-625.79 1473.25,-735.72 1531.87,-684 1598.71,-625.03 1503.76,-556.59 1556.87,-485 1559.86,-480.97 1563.43,-477.41 1567.38,-474.27"/>
<polygon fill="#94a3b8" stroke="#94a3b8" points="1568.79,-476.27 1573.09,-470.23 1565.96,-472.27 1568.79,-476.27"/>
</g>
<!-- cart&#45;&gt;otel -->
<g id="edge16" class="edge">
<title>cart&#45;&gt;otel</title>
<path fill="none" stroke="#94a3b8" d="M1352.84,-580.38C1361.33,-626 1390.33,-744.21 1468.87,-792 1492.79,-806.56 1506.87,-804.61 1531.87,-792 1578.08,-768.69 1608.43,-713.25 1623.01,-680.48"/>
<polygon fill="#94a3b8" stroke="#94a3b8" points="1625.09,-681.85 1625.61,-674.46 1620.59,-679.91 1625.09,-681.85"/>
</g>
<!-- cart&#45;&gt;logs -->
<g id="edge19" class="edge">
<title>cart&#45;&gt;logs</title>
<path fill="none" stroke="#94a3b8" d="M1358.34,-580.19C1384.17,-633.38 1464.35,-781.32 1531.87,-723 1589.67,-673.08 1510.73,-613.85 1556.87,-553 1560.22,-548.58 1564.28,-544.71 1568.76,-541.35"/>
<polygon fill="#94a3b8" stroke="#94a3b8" points="1569.88,-543.54 1574.32,-537.6 1567.15,-539.48 1569.88,-543.54"/>
</g>
<!-- cart&#45;&gt;beyla -->
<g id="edge22" class="edge">
<title>cart&#45;&gt;beyla</title>
<path fill="none" stroke="#94a3b8" d="M1354.29,-580.48C1365.34,-621.96 1398.45,-721.96 1468.87,-762 1493.21,-775.84 1510.41,-779.99 1531.87,-762 1580.64,-721.11 1517.68,-671.14 1556.87,-621 1560.09,-616.88 1563.92,-613.24 1568.12,-610.04"/>
<polygon fill="#94a3b8" stroke="#94a3b8" points="1569.35,-612.17 1573.75,-606.2 1566.59,-608.12 1569.35,-612.17"/>
<text xml:space="preserve" text-anchor="middle" x="1500.37" y="-775.18" font-family="Helvetica,sans-Serif" font-size="9.00" fill="#f8fafc">HTTP telemetry</text>
</g>
<!-- cart&#45;&gt;pyroscope -->
<g id="edge25" class="edge">
<title>cart&#45;&gt;pyroscope</title>
<path fill="none" stroke="#94a3b8" d="M1385.62,-579.1C1426.06,-595.65 1491.52,-613.6 1531.87,-579 1587.17,-531.58 1513.59,-475.6 1556.87,-417 1560.8,-411.67 1565.71,-407.08 1571.13,-403.12"/>
<polygon fill="#94a3b8" stroke="#94a3b8" points="1572.47,-405.17 1576.96,-399.27 1569.77,-401.08 1572.47,-405.17"/>
<text xml:space="preserve" text-anchor="middle" x="1500.37" y="-599.98" font-family="Helvetica,sans-Serif" font-size="9.00" fill="#f8fafc">JVM attach</text>
</g>
<!-- account&#45;&gt;actuator -->
<g id="edge14" class="edge">
<title>account&#45;&gt;actuator</title>
<path fill="none" stroke="#94a3b8" d="M1395.29,-490.02C1432.22,-486.48 1485.59,-480.68 1531.87,-473 1542.94,-471.16 1554.62,-468.92 1565.97,-466.57"/>
<polygon fill="#94a3b8" stroke="#94a3b8" points="1566.33,-469 1572.67,-465.16 1565.32,-464.2 1566.33,-469"/>
</g>
<!-- account&#45;&gt;otel -->
<g id="edge17" class="edge">
<title>account&#45;&gt;otel</title>
<path fill="none" stroke="#94a3b8" d="M1395.41,-501C1413.94,-505.87 1434.37,-514.11 1448.87,-528 1466.45,-544.84 1452.28,-561.18 1468.87,-579 1494.14,-606.15 1531.03,-624.42 1563.45,-636.23"/>
<polygon fill="#94a3b8" stroke="#94a3b8" points="1562.31,-638.42 1569.73,-638.44 1563.94,-633.8 1562.31,-638.42"/>
</g>
<!-- account&#45;&gt;logs -->
<g id="edge20" class="edge">
<title>account&#45;&gt;logs</title>
<path fill="none" stroke="#94a3b8" d="M1395.5,-502.08C1417.59,-505.69 1444.54,-509.65 1468.87,-512 1501.2,-515.13 1537.25,-516.86 1567.32,-517.81"/>
<polygon fill="#94a3b8" stroke="#94a3b8" points="1567.05,-520.26 1574.12,-518.02 1567.2,-515.36 1567.05,-520.26"/>
</g>
<!-- account&#45;&gt;beyla -->
<g id="edge23" class="edge">
<title>account&#45;&gt;beyla</title>
<path fill="none" stroke="#94a3b8" d="M1395.35,-507.8C1412.39,-513.44 1431.75,-520.42 1448.87,-528 1458.15,-532.11 1459.5,-535.11 1468.87,-539 1495.84,-550.2 1526.32,-559.88 1553.63,-567.55"/>
<polygon fill="#94a3b8" stroke="#94a3b8" points="1552.76,-569.85 1560.16,-569.36 1554.07,-565.13 1552.76,-569.85"/>
<text xml:space="preserve" text-anchor="middle" x="1500.37" y="-562.08" font-family="Helvetica,sans-Serif" font-size="9.00" fill="#f8fafc">HTTP telemetry</text>
</g>
<!-- account&#45;&gt;pyroscope -->
<g id="edge26" class="edge">
<title>account&#45;&gt;pyroscope</title>
<path fill="none" stroke="#94a3b8" d="M1395.48,-479.17C1412.36,-473.47 1431.59,-466.71 1448.87,-460 1495.92,-441.74 1548.65,-418.56 1585.61,-401.86"/>
<polygon fill="#94a3b8" stroke="#94a3b8" points="1586.51,-404.14 1591.88,-399.02 1584.49,-399.68 1586.51,-404.14"/>
<text xml:space="preserve" text-anchor="middle" x="1500.37" y="-453.18" font-family="Helvetica,sans-Serif" font-size="9.00" fill="#f8fafc">JVM attach</text>
</g>
<!-- alloy -->
<g id="node15" class="node">
<title>alloy</title>
<path fill="#6b21a8" stroke="#64748b" d="M2073.43,-537C2073.43,-537 2015.65,-537 2015.65,-537 2009.65,-537 2003.65,-531 2003.65,-525 2003.65,-525 2003.65,-513 2003.65,-513 2003.65,-507 2009.65,-501 2015.65,-501 2015.65,-501 2073.43,-501 2073.43,-501 2079.43,-501 2085.43,-507 2085.43,-513 2085.43,-513 2085.43,-525 2085.43,-525 2085.43,-531 2079.43,-537 2073.43,-537"/>
<text xml:space="preserve" text-anchor="middle" x="2044.54" y="-520.55" font-family="Helvetica,sans-Serif" font-size="11.00" fill="#f8fafc">Grafana Alloy</text>
<text xml:space="preserve" text-anchor="middle" x="2044.54" y="-508.55" font-family="Helvetica,sans-Serif" font-size="11.00" fill="#f8fafc">OTel collector</text>
</g>
<!-- actuator&#45;&gt;alloy -->
<g id="edge27" class="edge">
<title>actuator&#45;&gt;alloy</title>
<path fill="none" stroke="#94a3b8" d="M1694.08,-460.82C1775.23,-474.33 1919.82,-498.4 1995.05,-510.93"/>
<polygon fill="#94a3b8" stroke="#94a3b8" points="1994.63,-513.34 2001.94,-512.07 1995.43,-508.51 1994.63,-513.34"/>
<text xml:space="preserve" text-anchor="middle" x="1833.9" y="-500.11" font-family="Helvetica,sans-Serif" font-size="9.00" fill="#f8fafc">Prometheus scrape</text>
</g>
<!-- otel&#45;&gt;alloy -->
<g id="edge28" class="edge">
<title>otel&#45;&gt;alloy</title>
<path fill="none" stroke="#94a3b8" d="M1697.02,-646.69C1758.19,-637.13 1853.65,-618.54 1931.4,-587 1960.15,-575.34 1990.06,-556.83 2011.76,-542.06"/>
<polygon fill="#94a3b8" stroke="#94a3b8" points="2012.88,-544.26 2017.25,-538.27 2010.1,-540.23 2012.88,-544.26"/>
<text xml:space="preserve" text-anchor="middle" x="1833.9" y="-639.93" font-family="Helvetica,sans-Serif" font-size="9.00" fill="#f8fafc">OTLP traces</text>
</g>
<!-- logs&#45;&gt;alloy -->
<g id="edge29" class="edge">
<title>logs&#45;&gt;alloy</title>
<path fill="none" stroke="#94a3b8" d="M1692.35,-519C1773.1,-519 1919.08,-519 1994.89,-519"/>
<polygon fill="#94a3b8" stroke="#94a3b8" points="1994.82,-521.45 2001.82,-519 1994.82,-516.55 1994.82,-521.45"/>
<text xml:space="preserve" text-anchor="middle" x="1833.9" y="-520.2" font-family="Helvetica,sans-Serif" font-size="9.00" fill="#f8fafc">pod log collection</text>
</g>
<!-- beyla&#45;&gt;alloy -->
<g id="edge31" class="edge">
<title>beyla&#45;&gt;alloy</title>
<path fill="none" stroke="#94a3b8" d="M1706.74,-575.08C1789.68,-561.27 1924.02,-538.9 1995.39,-527.02"/>
<polygon fill="#94a3b8" stroke="#94a3b8" points="1995.36,-529.51 2001.86,-525.94 1994.56,-524.67 1995.36,-529.51"/>
<text xml:space="preserve" text-anchor="middle" x="1833.9" y="-569.96" font-family="Helvetica,sans-Serif" font-size="9.00" fill="#f8fafc">metrics + traces</text>
</g>
<!-- pyroscope&#45;&gt;grafana -->
<g id="edge32" class="edge">
<title>pyroscope&#45;&gt;grafana</title>
<path fill="none" stroke="#94a3b8" d="M1711.52,-377.29C1831.41,-371.94 2070.6,-356.86 2269.43,-317 2275.57,-315.77 2281.91,-314.26 2288.21,-312.61"/>
<polygon fill="#94a3b8" stroke="#94a3b8" points="2288.59,-315.05 2294.7,-310.84 2287.3,-310.32 2288.59,-315.05"/>
<text xml:space="preserve" text-anchor="middle" x="2044.54" y="-361.1" font-family="Helvetica,sans-Serif" font-size="9.00" fill="#f8fafc">profiles write</text>
</g>
<!-- alloy&#45;&gt;grafana -->
<g id="edge33" class="edge">
<title>alloy&#45;&gt;grafana</title>
<path fill="none" stroke="#94a3b8" d="M2085.92,-503.83C2133.37,-484.65 2212.8,-448.25 2269.43,-400 2297.37,-376.19 2321.64,-341.26 2336.33,-317.62"/>
<polygon fill="#94a3b8" stroke="#94a3b8" points="2338.41,-318.92 2339.96,-311.67 2334.22,-316.37 2338.41,-318.92"/>
<text xml:space="preserve" text-anchor="middle" x="2213.55" y="-471.72" font-family="Helvetica,sans-Serif" font-size="9.00" fill="#f8fafc">OTLP export</text>
</g>
<!-- cloudwatch -->
<g id="node16" class="node">
<title>cloudwatch</title>
<path fill="#334155" stroke="#64748b" d="M2085.05,-243C2085.05,-243 2004.02,-243 2004.02,-243 1998.02,-243 1992.02,-237 1992.02,-231 1992.02,-231 1992.02,-219 1992.02,-219 1992.02,-213 1998.02,-207 2004.02,-207 2004.02,-207 2085.05,-207 2085.05,-207 2091.05,-207 2097.05,-213 2097.05,-219 2097.05,-219 2097.05,-231 2097.05,-231 2097.05,-237 2091.05,-243 2085.05,-243"/>
<text xml:space="preserve" text-anchor="middle" x="2044.54" y="-226.55" font-family="Helvetica,sans-Serif" font-size="11.00" fill="#f8fafc">AWS CloudWatch</text>
<text xml:space="preserve" text-anchor="middle" x="2044.54" y="-214.55" font-family="Helvetica,sans-Serif" font-size="11.00" fill="#f8fafc">RDS metrics</text>
</g>
<!-- cloudwatch&#45;&gt;grafana -->
<g id="edge35" class="edge">
<title>cloudwatch&#45;&gt;grafana</title>
<path fill="none" stroke="#94a3b8" d="M2097.45,-228.65C2143.34,-232.77 2211.75,-241.13 2269.43,-257.25 2281.62,-260.65 2294.39,-265.45 2306.12,-270.38"/>
<polygon fill="#94a3b8" stroke="#94a3b8" points="2304.87,-272.52 2312.27,-273.04 2306.81,-268.02 2304.87,-272.52"/>
<text xml:space="preserve" text-anchor="middle" x="2213.55" y="-258.45" font-family="Helvetica,sans-Serif" font-size="9.00" fill="#f8fafc">RDS CloudWatch samples</text>
</g>
<!-- cloudwatchScrape -->
<g id="node17" class="node">
<title>cloudwatchScrape</title>
<path fill="#6b21a8" stroke="#64748b" d="M1687.77,-243C1687.77,-243 1580.49,-243 1580.49,-243 1574.49,-243 1568.49,-237 1568.49,-231 1568.49,-231 1568.49,-219 1568.49,-219 1568.49,-213 1574.49,-207 1580.49,-207 1580.49,-207 1687.77,-207 1687.77,-207 1693.77,-207 1699.77,-213 1699.77,-219 1699.77,-219 1699.77,-231 1699.77,-231 1699.77,-237 1693.77,-243 1687.77,-243"/>
<text xml:space="preserve" text-anchor="middle" x="1634.13" y="-226.55" font-family="Helvetica,sans-Serif" font-size="11.00" fill="#f8fafc">Grafana Cloud Provider</text>
<text xml:space="preserve" text-anchor="middle" x="1634.13" y="-214.55" font-family="Helvetica,sans-Serif" font-size="11.00" fill="#f8fafc">AWS/RDS scrape job</text>
</g>
<!-- cloudwatchScrape&#45;&gt;cloudwatch -->
<g id="edge34" class="edge">
<title>cloudwatchScrape&#45;&gt;cloudwatch</title>
<path fill="none" stroke="#94a3b8" d="M1699.85,-225C1777.86,-225 1907.91,-225 1983.69,-225"/>
<polygon fill="#94a3b8" stroke="#94a3b8" points="1983.24,-227.45 1990.24,-225 1983.24,-222.55 1983.24,-227.45"/>
<text xml:space="preserve" text-anchor="middle" x="1833.9" y="-226.2" font-family="Helvetica,sans-Serif" font-size="9.00" fill="#f8fafc">assume AWS role and scrape AWS/RDS metrics</text>
</g>
<!-- synth -->
<g id="node18" class="node">
<title>synth</title>
<path fill="#6b21a8" stroke="#64748b" d="M531.93,-205.76C531.93,-205.76 399.15,-205.76 399.15,-205.76 393.15,-205.76 387.15,-199.76 387.15,-193.76 387.15,-193.76 387.15,-170.24 387.15,-170.24 387.15,-164.24 393.15,-158.24 399.15,-158.24 399.15,-158.24 531.93,-158.24 531.93,-158.24 537.93,-158.24 543.93,-164.24 543.93,-170.24 543.93,-170.24 543.93,-193.76 543.93,-193.76 543.93,-199.76 537.93,-205.76 531.93,-205.76"/>
<text xml:space="preserve" text-anchor="middle" x="465.54" y="-189.55" font-family="Helvetica,sans-Serif" font-size="11.00" fill="#f8fafc">Grafana Synthetic Monitoring</text>
<text xml:space="preserve" text-anchor="middle" x="465.54" y="-177.55" font-family="Helvetica,sans-Serif" font-size="11.00" fill="#f8fafc">HTTP, DNS, Ping, TCP,</text>
<text xml:space="preserve" text-anchor="middle" x="465.54" y="-165.55" font-family="Helvetica,sans-Serif" font-size="11.00" fill="#f8fafc">scripted k6, k6 browser</text>
</g>
<!-- synth&#45;&gt;cloudfront -->
<g id="edge36" class="edge">
<title>synth&#45;&gt;cloudfront</title>
<path fill="none" stroke="#94a3b8" d="M544.16,-200.42C605.34,-216.06 692.19,-240.81 765.06,-271.25 780.05,-277.51 795.86,-285.75 809.54,-293.44"/>
<polygon fill="#94a3b8" stroke="#94a3b8" points="808.3,-295.55 815.59,-296.89 810.73,-291.3 808.3,-295.55"/>
<text xml:space="preserve" text-anchor="middle" x="686.68" y="-272.45" font-family="Helvetica,sans-Serif" font-size="9.00" fill="#f8fafc">checks production URL and API health</text>
</g>
<!-- synth&#45;&gt;grafana -->
<g id="edge37" class="edge">
<title>synth&#45;&gt;grafana</title>
<path fill="none" stroke="#94a3b8" d="M544.43,-176.81C621.27,-172.13 742.09,-166 846.82,-166 846.82,-166 846.82,-166 1170.12,-166 1598.07,-166 1709.23,-129.12 2132.68,-191 2194.98,-200.1 2213.13,-199.81 2269.43,-228 2290.16,-238.38 2310.7,-254.49 2326.01,-267.94"/>
<polygon fill="#94a3b8" stroke="#94a3b8" points="2324.26,-269.67 2331.11,-272.51 2327.53,-266.02 2324.26,-269.67"/>
<text xml:space="preserve" text-anchor="middle" x="1348.87" y="-166.75" font-family="Helvetica,sans-Serif" font-size="9.00" fill="#f8fafc">check samples</text>
</g>
<!-- k6 -->
<g id="node19" class="node">
<title>k6</title>
<path fill="#6b21a8" stroke="#64748b" d="M156.78,-125.76C156.78,-125.76 12,-125.76 12,-125.76 6,-125.76 0,-119.76 0,-113.76 0,-113.76 0,-78.24 0,-78.24 0,-72.24 6,-66.24 12,-66.24 12,-66.24 156.78,-66.24 156.78,-66.24 162.78,-66.24 168.78,-72.24 168.78,-78.24 168.78,-78.24 168.78,-113.76 168.78,-113.76 168.78,-119.76 162.78,-125.76 156.78,-125.76"/>
<text xml:space="preserve" text-anchor="middle" x="84.39" y="-109.55" font-family="Helvetica,sans-Serif" font-size="11.00" fill="#f8fafc">Grafana Cloud k6</text>
<text xml:space="preserve" text-anchor="middle" x="84.39" y="-97.55" font-family="Helvetica,sans-Serif" font-size="11.00" fill="#f8fafc">regional load, spike benchmark,</text>
<text xml:space="preserve" text-anchor="middle" x="84.39" y="-85.55" font-family="Helvetica,sans-Serif" font-size="11.00" fill="#f8fafc">120 rps API baseline,</text>
<text xml:space="preserve" text-anchor="middle" x="84.39" y="-73.55" font-family="Helvetica,sans-Serif" font-size="11.00" fill="#f8fafc">browser actions</text>
</g>
<!-- k6Tracing -->
<g id="node20" class="node">
<title>k6Tracing</title>
<path fill="#6b21a8" stroke="#64748b" d="M523.68,-290C523.68,-290 407.4,-290 407.4,-290 401.4,-290 395.4,-284 395.4,-278 395.4,-278 395.4,-266 395.4,-266 395.4,-260 401.4,-254 407.4,-254 407.4,-254 523.68,-254 523.68,-254 529.68,-254 535.68,-260 535.68,-266 535.68,-266 535.68,-278 535.68,-278 535.68,-284 529.68,-290 523.68,-290"/>
<text xml:space="preserve" text-anchor="middle" x="465.54" y="-273.55" font-family="Helvetica,sans-Serif" font-size="11.00" fill="#f8fafc">k6 Tempo instrumentation</text>
<text xml:space="preserve" text-anchor="middle" x="465.54" y="-261.55" font-family="Helvetica,sans-Serif" font-size="11.00" fill="#f8fafc">W3C trace context</text>
</g>
<!-- k6&#45;&gt;k6Tracing -->
<g id="edge38" class="edge">
<title>k6&#45;&gt;k6Tracing</title>
<path fill="none" stroke="#94a3b8" d="M146.28,-126.15C199.23,-152.16 278.18,-190.41 347.78,-222 368.88,-231.58 392.33,-241.72 412.65,-250.34"/>
<polygon fill="#94a3b8" stroke="#94a3b8" points="411.47,-252.51 418.87,-252.98 413.38,-247.99 411.47,-252.51"/>
</g>
<!-- k6&#45;&gt;grafana -->
<g id="edge40" class="edge">
<title>k6&#45;&gt;grafana</title>
<path fill="none" stroke="#94a3b8" d="M168.95,-92.18C245.77,-89.01 362.8,-85 464.54,-85 464.54,-85 464.54,-85 2045.54,-85 2154.89,-85 2183.61,-119.24 2269.43,-187 2297.74,-209.35 2321.93,-243.49 2336.49,-266.72"/>
<polygon fill="#94a3b8" stroke="#94a3b8" points="2334.33,-267.89 2340.08,-272.57 2338.51,-265.32 2334.33,-267.89"/>
<text xml:space="preserve" text-anchor="middle" x="1169.12" y="-86.2" font-family="Helvetica,sans-Serif" font-size="9.00" fill="#f8fafc">test metrics + trace correlation</text>
</g>
<!-- k6Tracing&#45;&gt;cloudfront -->
<g id="edge39" class="edge">
<title>k6Tracing&#45;&gt;cloudfront</title>
<path fill="none" stroke="#94a3b8" d="M535.85,-280.02C605.85,-288.12 713.14,-300.53 781.63,-308.46"/>
<polygon fill="#94a3b8" stroke="#94a3b8" points="781.04,-310.85 788.28,-309.23 781.61,-305.99 781.04,-310.85"/>
<text xml:space="preserve" text-anchor="middle" x="686.68" y="-317.45" font-family="Helvetica,sans-Serif" font-size="9.00" fill="#f8fafc">load checks with traceparent</text>
<text xml:space="preserve" text-anchor="middle" x="686.68" y="-307.7" font-family="Helvetica,sans-Serif" font-size="9.00" fill="#f8fafc">120 rps API baseline</text>
</g>
<!-- irm -->
<g id="node21" class="node">
<title>irm</title>
<path fill="#6b21a8" stroke="#64748b" d="M2120.68,-36C2120.68,-36 1968.4,-36 1968.4,-36 1962.4,-36 1956.4,-30 1956.4,-24 1956.4,-24 1956.4,-12 1956.4,-12 1956.4,-6 1962.4,0 1968.4,0 1968.4,0 2120.68,0 2120.68,0 2126.68,0 2132.68,-6 2132.68,-12 2132.68,-12 2132.68,-24 2132.68,-24 2132.68,-30 2126.68,-36 2120.68,-36"/>
<text xml:space="preserve" text-anchor="middle" x="2044.54" y="-19.55" font-family="Helvetica,sans-Serif" font-size="11.00" fill="#f8fafc">Grafana IRM</text>
<text xml:space="preserve" text-anchor="middle" x="2044.54" y="-7.55" font-family="Helvetica,sans-Serif" font-size="11.00" fill="#f8fafc">incidents, labels, on&#45;call schedule</text>
</g>
<!-- irm&#45;&gt;grafana -->
<g id="edge41" class="edge">
<title>irm&#45;&gt;grafana</title>
<path fill="none" stroke="#94a3b8" d="M2133.15,-10.05C2178.51,-10.6 2232.07,-19.17 2269.43,-50.25 2335.14,-104.91 2348.25,-214.48 2350.72,-265.15"/>
<polygon fill="#94a3b8" stroke="#94a3b8" points="2348.27,-265.21 2351,-272.11 2353.16,-265.02 2348.27,-265.21"/>
<text xml:space="preserve" text-anchor="middle" x="2213.55" y="-51.45" font-family="Helvetica,sans-Serif" font-size="9.00" fill="#f8fafc">incident and schedule state</text>
</g>
<!-- frontendObs -->
<g id="node23" class="node">
<title>frontendObs</title>
<path fill="#581c87" stroke="#64748b" d="M2604.99,-548C2604.99,-548 2479.71,-548 2479.71,-548 2473.71,-548 2467.71,-542 2467.71,-536 2467.71,-536 2467.71,-524 2467.71,-524 2467.71,-518 2473.71,-512 2479.71,-512 2479.71,-512 2604.99,-512 2604.99,-512 2610.99,-512 2616.99,-518 2616.99,-524 2616.99,-524 2616.99,-536 2616.99,-536 2616.99,-542 2610.99,-548 2604.99,-548"/>
<text xml:space="preserve" text-anchor="middle" x="2542.35" y="-531.55" font-family="Helvetica,sans-Serif" font-size="11.00" fill="#f8fafc">Frontend Observability</text>
<text xml:space="preserve" text-anchor="middle" x="2542.35" y="-519.55" font-family="Helvetica,sans-Serif" font-size="11.00" fill="#f8fafc">Faro events and exceptions</text>
</g>
<!-- grafana&#45;&gt;frontendObs -->
<g id="edge42" class="edge">
<title>grafana&#45;&gt;frontendObs</title>
<path fill="none" stroke="#94a3b8" d="M2358.28,-310.41C2370.02,-349.67 2402.53,-442.38 2460.96,-496 2465.67,-500.32 2471.01,-504.14 2476.65,-507.51"/>
<polygon fill="#94a3b8" stroke="#94a3b8" points="2475.28,-509.56 2482.59,-510.8 2477.66,-505.27 2475.28,-509.56"/>
</g>
<!-- tempo -->
<g id="node24" class="node">
<title>tempo</title>
<path fill="#581c87" stroke="#64748b" d="M2611.74,-480C2611.74,-480 2472.96,-480 2472.96,-480 2466.96,-480 2460.96,-474 2460.96,-468 2460.96,-468 2460.96,-456 2460.96,-456 2460.96,-450 2466.96,-444 2472.96,-444 2472.96,-444 2611.74,-444 2611.74,-444 2617.74,-444 2623.74,-450 2623.74,-456 2623.74,-456 2623.74,-468 2623.74,-468 2623.74,-474 2617.74,-480 2611.74,-480"/>
<text xml:space="preserve" text-anchor="middle" x="2542.35" y="-463.55" font-family="Helvetica,sans-Serif" font-size="11.00" fill="#f8fafc">Traces</text>
<text xml:space="preserve" text-anchor="middle" x="2542.35" y="-451.55" font-family="Helvetica,sans-Serif" font-size="11.00" fill="#f8fafc">frontend&#45;to&#45;backend waterfalls</text>
</g>
<!-- grafana&#45;&gt;tempo -->
<g id="edge43" class="edge">
<title>grafana&#45;&gt;tempo</title>
<path fill="none" stroke="#94a3b8" d="M2363.5,-310.26C2380.47,-338.86 2416.85,-394.44 2460.96,-428 2466.81,-432.45 2473.32,-436.43 2480.04,-439.96"/>
<polygon fill="#94a3b8" stroke="#94a3b8" points="2478.67,-442.02 2486.03,-442.95 2480.86,-437.63 2478.67,-442.02"/>
</g>
<!-- prometheus -->
<g id="node25" class="node">
<title>prometheus</title>
<path fill="#581c87" stroke="#64748b" d="M2606.86,-412C2606.86,-412 2477.83,-412 2477.83,-412 2471.83,-412 2465.83,-406 2465.83,-400 2465.83,-400 2465.83,-388 2465.83,-388 2465.83,-382 2471.83,-376 2477.83,-376 2477.83,-376 2606.86,-376 2606.86,-376 2612.86,-376 2618.86,-382 2618.86,-388 2618.86,-388 2618.86,-400 2618.86,-400 2618.86,-406 2612.86,-412 2606.86,-412"/>
<text xml:space="preserve" text-anchor="middle" x="2542.35" y="-395.55" font-family="Helvetica,sans-Serif" font-size="11.00" fill="#f8fafc">Metrics</text>
<text xml:space="preserve" text-anchor="middle" x="2542.35" y="-383.55" font-family="Helvetica,sans-Serif" font-size="11.00" fill="#f8fafc">RED + infrastructure signals</text>
</g>
<!-- grafana&#45;&gt;prometheus -->
<g id="edge44" class="edge">
<title>grafana&#45;&gt;prometheus</title>
<path fill="none" stroke="#94a3b8" d="M2379.49,-310.29C2400.88,-324.75 2432.14,-344.94 2460.96,-360 2469.17,-364.29 2478.03,-368.47 2486.78,-372.34"/>
<polygon fill="#94a3b8" stroke="#94a3b8" points="2485.63,-374.51 2493.03,-375.06 2487.59,-370.02 2485.63,-374.51"/>
</g>
<!-- loki -->
<g id="node26" class="node">
<title>loki</title>
<path fill="#581c87" stroke="#64748b" d="M2605.36,-344C2605.36,-344 2479.33,-344 2479.33,-344 2473.33,-344 2467.33,-338 2467.33,-332 2467.33,-332 2467.33,-320 2467.33,-320 2467.33,-314 2473.33,-308 2479.33,-308 2479.33,-308 2605.36,-308 2605.36,-308 2611.36,-308 2617.36,-314 2617.36,-320 2617.36,-320 2617.36,-332 2617.36,-332 2617.36,-338 2611.36,-344 2605.36,-344"/>
<text xml:space="preserve" text-anchor="middle" x="2542.35" y="-327.55" font-family="Helvetica,sans-Serif" font-size="11.00" fill="#f8fafc">Logs</text>
<text xml:space="preserve" text-anchor="middle" x="2542.35" y="-315.55" font-family="Helvetica,sans-Serif" font-size="11.00" fill="#f8fafc">namespace + service labels</text>
</g>
<!-- grafana&#45;&gt;loki -->
<g id="edge45" class="edge">
<title>grafana&#45;&gt;loki</title>
<path fill="none" stroke="#94a3b8" d="M2410.41,-302.34C2425.74,-305.11 2442.63,-308.16 2459.02,-311.12"/>
<polygon fill="#94a3b8" stroke="#94a3b8" points="2458.21,-313.47 2465.54,-312.3 2459.08,-308.64 2458.21,-313.47"/>
</g>
<!-- profiles -->
<g id="node27" class="node">
<title>profiles</title>
<path fill="#581c87" stroke="#64748b" d="M2582.49,-276C2582.49,-276 2502.21,-276 2502.21,-276 2496.21,-276 2490.21,-270 2490.21,-264 2490.21,-264 2490.21,-252 2490.21,-252 2490.21,-246 2496.21,-240 2502.21,-240 2502.21,-240 2582.49,-240 2582.49,-240 2588.49,-240 2594.49,-246 2594.49,-252 2594.49,-252 2594.49,-264 2594.49,-264 2594.49,-270 2588.49,-276 2582.49,-276"/>
<text xml:space="preserve" text-anchor="middle" x="2542.35" y="-259.55" font-family="Helvetica,sans-Serif" font-size="11.00" fill="#f8fafc">Profiles</text>
<text xml:space="preserve" text-anchor="middle" x="2542.35" y="-247.55" font-family="Helvetica,sans-Serif" font-size="11.00" fill="#f8fafc">Java CPU profiles</text>
</g>
<!-- grafana&#45;&gt;profiles -->
<g id="edge46" class="edge">
<title>grafana&#45;&gt;profiles</title>
<path fill="none" stroke="#94a3b8" d="M2410.41,-281.66C2432.95,-277.59 2458.83,-272.91 2481.6,-268.8"/>
<polygon fill="#94a3b8" stroke="#94a3b8" points="2481.9,-271.23 2488.35,-267.58 2481.03,-266.41 2481.9,-271.23"/>
</g>
<!-- smResults -->
<g id="node28" class="node">
<title>smResults</title>
<path fill="#581c87" stroke="#64748b" d="M2596.74,-207.76C2596.74,-207.76 2487.96,-207.76 2487.96,-207.76 2481.96,-207.76 2475.96,-201.76 2475.96,-195.76 2475.96,-195.76 2475.96,-172.24 2475.96,-172.24 2475.96,-166.24 2481.96,-160.24 2487.96,-160.24 2487.96,-160.24 2596.74,-160.24 2596.74,-160.24 2602.74,-160.24 2608.74,-166.24 2608.74,-172.24 2608.74,-172.24 2608.74,-195.76 2608.74,-195.76 2608.74,-201.76 2602.74,-207.76 2596.74,-207.76"/>
<text xml:space="preserve" text-anchor="middle" x="2542.35" y="-191.55" font-family="Helvetica,sans-Serif" font-size="11.00" fill="#f8fafc">Synthetic results</text>
<text xml:space="preserve" text-anchor="middle" x="2542.35" y="-179.55" font-family="Helvetica,sans-Serif" font-size="11.00" fill="#f8fafc">uptime, TLS, DNS,</text>
<text xml:space="preserve" text-anchor="middle" x="2542.35" y="-167.55" font-family="Helvetica,sans-Serif" font-size="11.00" fill="#f8fafc">latency, browser actions</text>
</g>
<!-- grafana&#45;&gt;smResults -->
<g id="edge47" class="edge">
<title>grafana&#45;&gt;smResults</title>
<path fill="none" stroke="#94a3b8" d="M2380.64,-273.6C2402.14,-259.45 2433,-239.72 2460.96,-224 2468.09,-219.99 2475.68,-215.94 2483.24,-212.04"/>
<polygon fill="#94a3b8" stroke="#94a3b8" points="2484.3,-214.25 2489.42,-208.88 2482.07,-209.88 2484.3,-214.25"/>
</g>
<!-- k6Results -->
<g id="node29" class="node">
<title>k6Results</title>
<path fill="#581c87" stroke="#64748b" d="M2596.74,-128C2596.74,-128 2487.96,-128 2487.96,-128 2481.96,-128 2475.96,-122 2475.96,-116 2475.96,-116 2475.96,-104 2475.96,-104 2475.96,-98 2481.96,-92 2487.96,-92 2487.96,-92 2596.74,-92 2596.74,-92 2602.74,-92 2608.74,-98 2608.74,-104 2608.74,-104 2608.74,-116 2608.74,-116 2608.74,-122 2602.74,-128 2596.74,-128"/>
<text xml:space="preserve" text-anchor="middle" x="2542.35" y="-111.55" font-family="Helvetica,sans-Serif" font-size="11.00" fill="#f8fafc">k6 results</text>
<text xml:space="preserve" text-anchor="middle" x="2542.35" y="-99.55" font-family="Helvetica,sans-Serif" font-size="11.00" fill="#f8fafc">VUs, checks, thresholds</text>
</g>
<!-- grafana&#45;&gt;k6Results -->
<g id="edge48" class="edge">
<title>grafana&#45;&gt;k6Results</title>
<path fill="none" stroke="#94a3b8" d="M2362.31,-273.59C2378.36,-242.89 2414.4,-180.95 2460.96,-144 2466.63,-139.5 2472.97,-135.5 2479.55,-131.97"/>
<polygon fill="#94a3b8" stroke="#94a3b8" points="2480.28,-134.35 2485.41,-129 2478.06,-129.98 2480.28,-134.35"/>
</g>
<!-- incidents -->
<g id="node30" class="node">
<title>incidents</title>
<path fill="#581c87" stroke="#64748b" d="M2610.24,-60C2610.24,-60 2474.46,-60 2474.46,-60 2468.46,-60 2462.46,-54 2462.46,-48 2462.46,-48 2462.46,-36 2462.46,-36 2462.46,-30 2468.46,-24 2474.46,-24 2474.46,-24 2610.24,-24 2610.24,-24 2616.24,-24 2622.24,-30 2622.24,-36 2622.24,-36 2622.24,-48 2622.24,-48 2622.24,-54 2616.24,-60 2610.24,-60"/>
<text xml:space="preserve" text-anchor="middle" x="2542.35" y="-43.55" font-family="Helvetica,sans-Serif" font-size="11.00" fill="#f8fafc">IRM workflows</text>
<text xml:space="preserve" text-anchor="middle" x="2542.35" y="-31.55" font-family="Helvetica,sans-Serif" font-size="11.00" fill="#f8fafc">severity, ownership, response</text>
</g>
<!-- grafana&#45;&gt;incidents -->
<g id="edge49" class="edge">
<title>grafana&#45;&gt;incidents</title>
<path fill="none" stroke="#94a3b8" d="M2357.64,-273.75C2368.46,-232.94 2399.87,-133.38 2460.96,-76 2465.62,-71.62 2470.93,-67.77 2476.54,-64.38"/>
<polygon fill="#94a3b8" stroke="#94a3b8" points="2477.55,-66.62 2482.47,-61.06 2475.16,-62.34 2477.55,-66.62"/>
</g>
</g>
</svg>
