<?xml version="1.0" encoding="UTF-8" standalone="no"?>
<!DOCTYPE svg PUBLIC "-//W3C//DTD SVG 1.1//EN"
 "http://www.w3.org/Graphics/SVG/1.1/DTD/svg11.dtd">
<!-- Generated by graphviz version 15.0.0 (20260523.1842)
 -->
<!-- Title: observability_capabilities_flow_presentation Pages: 1 -->
<svg width="2004pt" height="1052pt"
 viewBox="0.00 0.00 2004.00 1052.00" xmlns="http://www.w3.org/2000/svg" xmlns:xlink="http://www.w3.org/1999/xlink">
<g id="graph0" class="graph" transform="scale(1 1) rotate(0) translate(32.4 1019.65)">
<title>observability_capabilities_flow_presentation</title>
<polygon fill="#0b1220" stroke="none" points="-32.4,32.4 -32.4,-1019.65 1971.55,-1019.65 1971.55,32.4 -32.4,32.4"/>
<text xml:space="preserve" text-anchor="middle" x="969.58" y="-945.25" font-family="Helvetica,sans-Serif" font-size="40.00" fill="#f8fafc">Observability Capabilities Flow</text>
<g id="clust1" class="cluster">
<title>cluster_sources</title>
<path fill="#0b1220" stroke="#475569" stroke-dasharray="5,2" d="M20,-258C20,-258 309.93,-258 309.93,-258 315.93,-258 321.93,-264 321.93,-270 321.93,-270 321.93,-866 321.93,-866 321.93,-872 315.93,-878 309.93,-878 309.93,-878 20,-878 20,-878 14,-878 8,-872 8,-866 8,-866 8,-270 8,-270 8,-264 14,-258 20,-258"/>
<text xml:space="preserve" text-anchor="middle" x="164.96" y="-847.4" font-family="Helvetica,sans-Serif" font-size="28.00" fill="#f8fafc">Observed systems</text>
</g>
<g id="clust2" class="cluster">
<title>cluster_telemetry</title>
<path fill="#0b1220" stroke="#475569" stroke-dasharray="5,2" d="M382.93,-180C382.93,-180 697.61,-180 697.61,-180 703.61,-180 709.61,-186 709.61,-192 709.61,-192 709.61,-918 709.61,-918 709.61,-924 703.61,-930 697.61,-930 697.61,-930 382.93,-930 382.93,-930 376.93,-930 370.93,-924 370.93,-918 370.93,-918 370.93,-192 370.93,-192 370.93,-186 376.93,-180 382.93,-180"/>
<text xml:space="preserve" text-anchor="middle" x="540.27" y="-899.4" font-family="Helvetica,sans-Serif" font-size="28.00" fill="#f8fafc">Telemetry produced</text>
</g>
<g id="clust3" class="cluster">
<title>cluster_collection</title>
<path fill="#0b1220" stroke="#475569" stroke-dasharray="5,2" d="M770.61,-248C770.61,-248 1104.79,-248 1104.79,-248 1110.79,-248 1116.79,-254 1116.79,-260 1116.79,-260 1116.79,-759 1116.79,-759 1116.79,-765 1110.79,-771 1104.79,-771 1104.79,-771 770.61,-771 770.61,-771 764.61,-771 758.61,-765 758.61,-759 758.61,-759 758.61,-260 758.61,-260 758.61,-254 764.61,-248 770.61,-248"/>
<text xml:space="preserve" text-anchor="middle" x="937.7" y="-740.4" font-family="Helvetica,sans-Serif" font-size="28.00" fill="#f8fafc">Collection and routing</text>
</g>
<g id="clust4" class="cluster">
<title>cluster_outcomes</title>
<path fill="#0b1220" stroke="#475569" stroke-dasharray="5,2" d="M1545.97,-8C1545.97,-8 1919.15,-8 1919.15,-8 1925.15,-8 1931.15,-14 1931.15,-20 1931.15,-20 1931.15,-914 1931.15,-914 1931.15,-920 1925.15,-926 1919.15,-926 1919.15,-926 1545.97,-926 1545.97,-926 1539.97,-926 1533.97,-920 1533.97,-914 1533.97,-914 1533.97,-20 1533.97,-20 1533.97,-14 1539.97,-8 1545.97,-8"/>
<text xml:space="preserve" text-anchor="middle" x="1732.56" y="-895.4" font-family="Helvetica,sans-Serif" font-size="28.00" fill="#f8fafc">Operational capabilities</text>
</g>
<!-- browser&#45;&gt;frontendSignals -->
<g id="edge1" class="edge">
<title>browser&#45;&gt;frontendSignals</title>
<path fill="none" stroke="#94a3b8" stroke-width="2" d="M280.38,-278.06C280.38,-278.06 370.66,-278.06 370.66,-278.06"/>
<polygon fill="#94a3b8" stroke="#94a3b8" stroke-width="2" points="370.66,-281.21 379.66,-278.06 370.66,-274.91 370.66,-281.21"/>
</g>
<!-- browser&#45;&gt;traceSignals -->
<g id="edge2" class="edge">
<title>browser&#45;&gt;traceSignals</title>
<path fill="none" stroke="#94a3b8" stroke-width="2" d="M165.15,-342.6C165.15,-354.96 165.15,-365.5 165.15,-365.5 165.15,-365.5 366.16,-365.5 366.16,-365.5"/>
<polygon fill="#94a3b8" stroke="#94a3b8" stroke-width="2" points="366.16,-368.65 375.16,-365.5 366.16,-362.35 366.16,-368.65"/>
</g>
<!-- edgePath&#45;&gt;traceSignals -->
<g id="edge3" class="edge">
<title>edgePath&#45;&gt;traceSignals</title>
<path fill="none" stroke="#94a3b8" stroke-width="2" d="M305.52,-405.79C305.52,-405.79 365.91,-405.79 365.91,-405.79"/>
<polygon fill="#94a3b8" stroke="#94a3b8" stroke-width="2" points="365.91,-408.94 374.91,-405.79 365.91,-402.64 365.91,-408.94"/>
</g>
<!-- services&#45;&gt;traceSignals -->
<g id="edge4" class="edge">
<title>services&#45;&gt;traceSignals</title>
<path fill="none" stroke="#94a3b8" stroke-width="2" d="M309.15,-511.35C309.15,-473.78 309.15,-422.34 309.15,-422.34 309.15,-422.34 366.15,-422.34 366.15,-422.34"/>
<polygon fill="#94a3b8" stroke="#94a3b8" stroke-width="2" points="366.15,-425.49 375.15,-422.34 366.15,-419.19 366.15,-425.49"/>
</g>
<!-- services&#45;&gt;serviceSignals -->
<g id="edge5" class="edge">
<title>services&#45;&gt;serviceSignals</title>
<path fill="none" stroke="#94a3b8" stroke-width="2" d="M304.15,-588.62C304.15,-620.46 304.15,-660.41 304.15,-660.41 304.15,-660.41 378.37,-660.41 378.37,-660.41"/>
<polygon fill="#94a3b8" stroke="#94a3b8" stroke-width="2" points="378.37,-663.56 387.37,-660.41 378.37,-657.26 378.37,-663.56"/>
</g>
<!-- services&#45;&gt;profileSignals -->
<g id="edge6" class="edge">
<title>services&#45;&gt;profileSignals</title>
<path fill="none" stroke="#94a3b8" stroke-width="2" d="M314.91,-550C314.91,-550 407.97,-550 407.97,-550"/>
<polygon fill="#94a3b8" stroke="#94a3b8" stroke-width="2" points="407.97,-553.15 416.97,-550 407.97,-546.85 407.97,-553.15"/>
</g>
<!-- aws&#45;&gt;serviceSignals -->
<g id="edge7" class="edge">
<title>aws&#45;&gt;serviceSignals</title>
<path fill="none" stroke="#94a3b8" stroke-width="2" d="M273.52,-685.59C273.52,-685.59 378.41,-685.59 378.41,-685.59"/>
<polygon fill="#94a3b8" stroke="#94a3b8" stroke-width="2" points="378.41,-688.74 387.41,-685.59 378.41,-682.44 378.41,-688.74"/>
</g>
<!-- operators&#45;&gt;externalSignals -->
<g id="edge8" class="edge">
<title>operators&#45;&gt;externalSignals</title>
<path fill="none" stroke="#94a3b8" stroke-width="2" d="M295.7,-808.94C295.7,-808.94 394.8,-808.94 394.8,-808.94"/>
<polygon fill="#94a3b8" stroke="#94a3b8" stroke-width="2" points="394.8,-812.09 403.8,-808.94 394.8,-805.79 394.8,-812.09"/>
</g>
<!-- frontendSignals&#45;&gt;faroCollector -->
<g id="edge9" class="edge">
<title>frontendSignals&#45;&gt;faroCollector</title>
<path fill="none" stroke="#94a3b8" stroke-width="2" d="M697.92,-273.06C697.92,-273.06 756.79,-273.06 756.79,-273.06"/>
<polygon fill="#94a3b8" stroke="#94a3b8" stroke-width="2" points="756.79,-276.21 765.79,-273.06 756.79,-269.91 756.79,-276.21"/>
</g>
<!-- traceSignals&#45;&gt;faroCollector -->
<g id="edge10" class="edge">
<title>traceSignals&#45;&gt;faroCollector</title>
<path fill="none" stroke="#94a3b8" stroke-width="2" d="M702.5,-358.5C749.38,-358.5 788.15,-358.5 788.15,-358.5 788.15,-358.5 788.15,-344.66 788.15,-344.66"/>
<polygon fill="#94a3b8" stroke="#94a3b8" stroke-width="2" points="791.3,-344.66 788.15,-335.66 785,-344.66 791.3,-344.66"/>
</g>
<!-- traceSignals&#45;&gt;alloy -->
<g id="edge11" class="edge">
<title>traceSignals&#45;&gt;alloy</title>
<path fill="none" stroke="#94a3b8" stroke-width="2" d="M702.49,-409.06C702.49,-409.06 793.09,-409.06 793.09,-409.06"/>
<polygon fill="#94a3b8" stroke="#94a3b8" stroke-width="2" points="793.09,-412.21 802.09,-409.06 793.09,-405.91 793.09,-412.21"/>
</g>
<!-- serviceSignals&#45;&gt;alloy -->
<g id="edge12" class="edge">
<title>serviceSignals&#45;&gt;alloy</title>
<path fill="none" stroke="#94a3b8" stroke-width="2" d="M674.15,-634.4C674.15,-564.09 674.15,-446.83 674.15,-446.83 674.15,-446.83 793.13,-446.83 793.13,-446.83"/>
<polygon fill="#94a3b8" stroke="#94a3b8" stroke-width="2" points="793.13,-449.98 802.13,-446.83 793.13,-443.68 793.13,-449.98"/>
</g>
<!-- profileSignals&#45;&gt;pyroscope -->
<g id="edge13" class="edge">
<title>profileSignals&#45;&gt;pyroscope</title>
<path fill="none" stroke="#94a3b8" stroke-width="2" d="M660.59,-540C660.59,-540 795.03,-540 795.03,-540"/>
<polygon fill="#94a3b8" stroke="#94a3b8" stroke-width="2" points="795.03,-543.15 804.03,-540 795.03,-536.85 795.03,-543.15"/>
</g>
<!-- externalSignals&#45;&gt;cloudIntegrations -->
<g id="edge14" class="edge">
<title>externalSignals&#45;&gt;cloudIntegrations</title>
<path fill="none" stroke="#94a3b8" stroke-width="2" d="M673.59,-849.3C789.22,-849.3 938.15,-849.3 938.15,-849.3 938.15,-849.3 938.15,-739.55 938.15,-739.55"/>
<polygon fill="#94a3b8" stroke="#94a3b8" stroke-width="2" points="941.3,-739.55 938.15,-730.55 935,-739.55 941.3,-739.55"/>
</g>
<!-- faroCollector&#45;&gt;grafana -->
<g id="edge15" class="edge">
<title>faroCollector&#45;&gt;grafana</title>
<path fill="none" stroke="#94a3b8" stroke-width="2" d="M1094.15,-332.65C1094.15,-364.83 1094.15,-405.41 1094.15,-405.41 1094.15,-405.41 1161.05,-405.41 1161.05,-405.41"/>
<polygon fill="#94a3b8" stroke="#94a3b8" stroke-width="2" points="1161.05,-408.56 1170.05,-405.41 1161.05,-402.26 1161.05,-408.56"/>
</g>
<!-- alloy&#45;&gt;grafana -->
<g id="edge16" class="edge">
<title>alloy&#45;&gt;grafana</title>
<path fill="none" stroke="#94a3b8" stroke-width="2" d="M1070.3,-430.09C1070.3,-430.09 1160.79,-430.09 1160.79,-430.09"/>
<polygon fill="#94a3b8" stroke="#94a3b8" stroke-width="2" points="1160.79,-433.24 1169.79,-430.09 1160.79,-426.94 1160.79,-433.24"/>
</g>
<!-- pyroscope&#45;&gt;grafana -->
<g id="edge17" class="edge">
<title>pyroscope&#45;&gt;grafana</title>
<path fill="none" stroke="#94a3b8" stroke-width="2" d="M938.15,-501.45C938.15,-480.21 938.15,-458.1 938.15,-458.1 938.15,-458.1 1160.87,-458.1 1160.87,-458.1"/>
<polygon fill="#94a3b8" stroke="#94a3b8" stroke-width="2" points="1160.87,-461.25 1169.87,-458.1 1160.87,-454.95 1160.87,-461.25"/>
</g>
<!-- cloudIntegrations&#45;&gt;grafana -->
<g id="edge18" class="edge">
<title>cloudIntegrations&#45;&gt;grafana</title>
<path fill="none" stroke="#94a3b8" stroke-width="2" d="M1081.15,-624.33C1081.15,-560.84 1081.15,-461.44 1081.15,-461.44 1081.15,-461.44 1161.11,-461.44 1161.11,-461.44"/>
<polygon fill="#94a3b8" stroke="#94a3b8" stroke-width="2" points="1161.11,-464.59 1170.11,-461.44 1161.11,-458.29 1161.11,-464.59"/>
</g>
<!-- grafana&#45;&gt;frontendObs -->
<g id="edge19" class="edge">
<title>grafana&#45;&gt;frontendObs</title>
<path fill="none" stroke="#94a3b8" stroke-width="2" d="M1275.15,-379.95C1275.15,-282.61 1275.15,-54 1275.15,-54 1275.15,-54 1564.08,-54 1564.08,-54"/>
<polygon fill="#94a3b8" stroke="#94a3b8" stroke-width="2" points="1564.08,-57.15 1573.08,-54 1564.08,-50.85 1564.08,-57.15"/>
</g>
<!-- grafana&#45;&gt;tempo -->
<g id="edge20" class="edge">
<title>grafana&#45;&gt;tempo</title>
<path fill="none" stroke="#94a3b8" stroke-width="2" d="M1477.73,-410.41C1517.35,-410.41 1549.15,-410.41 1549.15,-410.41 1549.15,-410.41 1549.15,-227.57 1549.15,-227.57"/>
<polygon fill="#94a3b8" stroke="#94a3b8" stroke-width="2" points="1552.3,-227.57 1549.15,-218.57 1546,-227.57 1552.3,-227.57"/>
</g>
<!-- grafana&#45;&gt;prometheus -->
<g id="edge21" class="edge">
<title>grafana&#45;&gt;prometheus</title>
<path fill="none" stroke="#94a3b8" stroke-width="2" d="M1376.15,-379.99C1376.15,-343.49 1376.15,-297 1376.15,-297 1376.15,-297 1585.28,-297 1585.28,-297"/>
<polygon fill="#94a3b8" stroke="#94a3b8" stroke-width="2" points="1585.28,-300.15 1594.28,-297 1585.28,-293.85 1585.28,-300.15"/>
</g>
<!-- grafana&#45;&gt;loki -->
<g id="edge22" class="edge">
<title>grafana&#45;&gt;loki</title>
<path fill="none" stroke="#94a3b8" stroke-width="2" d="M1477.87,-435.59C1477.87,-435.59 1544.06,-435.59 1544.06,-435.59"/>
<polygon fill="#94a3b8" stroke="#94a3b8" stroke-width="2" points="1544.06,-438.74 1553.06,-435.59 1544.06,-432.44 1544.06,-438.74"/>
</g>
<!-- grafana&#45;&gt;profiles -->
<g id="edge23" class="edge">
<title>grafana&#45;&gt;profiles</title>
<path fill="none" stroke="#94a3b8" stroke-width="2" d="M1401.15,-465.98C1401.15,-500.42 1401.15,-543 1401.15,-543 1401.15,-543 1593.35,-543 1593.35,-543"/>
<polygon fill="#94a3b8" stroke="#94a3b8" stroke-width="2" points="1593.35,-546.15 1602.35,-543 1593.35,-539.85 1593.35,-546.15"/>
</g>
<!-- grafana&#45;&gt;testResults -->
<g id="edge24" class="edge">
<title>grafana&#45;&gt;testResults</title>
<path fill="none" stroke="#94a3b8" stroke-width="2" d="M1325.15,-466.14C1325.15,-539.1 1325.15,-679 1325.15,-679 1325.15,-679 1575.46,-679 1575.46,-679"/>
<polygon fill="#94a3b8" stroke="#94a3b8" stroke-width="2" points="1575.46,-682.15 1584.46,-679 1575.46,-675.85 1575.46,-682.15"/>
</g>
<!-- grafana&#45;&gt;incidents -->
<g id="edge25" class="edge">
<title>grafana&#45;&gt;incidents</title>
<path fill="none" stroke="#94a3b8" stroke-width="2" d="M1249.15,-466.26C1249.15,-568.53 1249.15,-816.7 1249.15,-816.7 1249.15,-816.7 1602.9,-816.7 1602.9,-816.7"/>
<polygon fill="#94a3b8" stroke="#94a3b8" stroke-width="2" points="1602.9,-819.85 1611.9,-816.7 1602.9,-813.55 1602.9,-819.85"/>
</g>
<!-- browser -->
<g id="node1" class="node">
<title>browser</title>
<path fill="#1e3a8a" stroke="#64748b" stroke-width="2" d="M267.43,-341.77C267.43,-341.77 62.5,-341.77 62.5,-341.77 56.5,-341.77 50.5,-335.77 50.5,-329.77 50.5,-329.77 50.5,-278.23 50.5,-278.23 50.5,-272.23 56.5,-266.23 62.5,-266.23 62.5,-266.23 267.43,-266.23 267.43,-266.23 273.43,-266.23 279.43,-272.23 279.43,-278.23 279.43,-278.23 279.43,-329.77 279.43,-329.77 279.43,-335.77 273.43,-341.77 267.43,-341.77"/>
<text xml:space="preserve" text-anchor="middle" x="164.96" y="-305.55" font-family="Helvetica,sans-Serif" font-size="26.00" fill="#f8fafc">Shopper browser</text>
<text xml:space="preserve" text-anchor="middle" x="164.96" y="-279.3" font-family="Helvetica,sans-Serif" font-size="26.00" fill="#f8fafc">React storefront</text>
</g>
<!-- edgePath -->
<g id="node2" class="node">
<title>edgePath</title>
<path fill="#1e3a8a" stroke="#64748b" stroke-width="2" d="M292.55,-464.77C292.55,-464.77 37.37,-464.77 37.37,-464.77 31.37,-464.77 25.37,-458.77 25.37,-452.77 25.37,-452.77 25.37,-401.23 25.37,-401.23 25.37,-395.23 31.37,-389.23 37.37,-389.23 37.37,-389.23 292.55,-389.23 292.55,-389.23 298.55,-389.23 304.55,-395.23 304.55,-401.23 304.55,-401.23 304.55,-452.77 304.55,-452.77 304.55,-458.77 298.55,-464.77 292.55,-464.77"/>
<text xml:space="preserve" text-anchor="middle" x="164.96" y="-428.55" font-family="Helvetica,sans-Serif" font-size="26.00" fill="#f8fafc">CloudFront + ALB</text>
<text xml:space="preserve" text-anchor="middle" x="164.96" y="-402.3" font-family="Helvetica,sans-Serif" font-size="26.00" fill="#f8fafc">static and /api routing</text>
</g>
<!-- services -->
<g id="node3" class="node">
<title>services</title>
<path fill="#14532d" stroke="#64748b" stroke-width="2" d="M301.93,-587.77C301.93,-587.77 28,-587.77 28,-587.77 22,-587.77 16,-581.77 16,-575.77 16,-575.77 16,-524.23 16,-524.23 16,-518.23 22,-512.23 28,-512.23 28,-512.23 301.93,-512.23 301.93,-512.23 307.93,-512.23 313.93,-518.23 313.93,-524.23 313.93,-524.23 313.93,-575.77 313.93,-575.77 313.93,-581.77 307.93,-587.77 301.93,-587.77"/>
<text xml:space="preserve" text-anchor="middle" x="164.96" y="-551.55" font-family="Helvetica,sans-Serif" font-size="26.00" fill="#f8fafc">Spring Boot services</text>
<text xml:space="preserve" text-anchor="middle" x="164.96" y="-525.3" font-family="Helvetica,sans-Serif" font-size="26.00" fill="#f8fafc">inventory, cart, account</text>
</g>
<!-- aws -->
<g id="node4" class="node">
<title>aws</title>
<path fill="#334155" stroke="#64748b" stroke-width="2" d="M260.68,-710.77C260.68,-710.77 69.25,-710.77 69.25,-710.77 63.25,-710.77 57.25,-704.77 57.25,-698.77 57.25,-698.77 57.25,-647.23 57.25,-647.23 57.25,-641.23 63.25,-635.23 69.25,-635.23 69.25,-635.23 260.68,-635.23 260.68,-635.23 266.68,-635.23 272.68,-641.23 272.68,-647.23 272.68,-647.23 272.68,-698.77 272.68,-698.77 272.68,-704.77 266.68,-710.77 260.68,-710.77"/>
<text xml:space="preserve" text-anchor="middle" x="164.96" y="-674.55" font-family="Helvetica,sans-Serif" font-size="26.00" fill="#f8fafc">AWS platform</text>
<text xml:space="preserve" text-anchor="middle" x="164.96" y="-648.3" font-family="Helvetica,sans-Serif" font-size="26.00" fill="#f8fafc">EKS, RDS, logs</text>
</g>
<!-- operators -->
<g id="node5" class="node">
<title>operators</title>
<path fill="#6b21a8" stroke="#64748b" stroke-width="2" d="M282.8,-833.77C282.8,-833.77 47.12,-833.77 47.12,-833.77 41.12,-833.77 35.12,-827.77 35.12,-821.77 35.12,-821.77 35.12,-770.23 35.12,-770.23 35.12,-764.23 41.12,-758.23 47.12,-758.23 47.12,-758.23 282.8,-758.23 282.8,-758.23 288.81,-758.23 294.8,-764.23 294.8,-770.23 294.8,-770.23 294.8,-821.77 294.8,-821.77 294.8,-827.77 288.8,-833.77 282.8,-833.77"/>
<text xml:space="preserve" text-anchor="middle" x="164.96" y="-797.55" font-family="Helvetica,sans-Serif" font-size="26.00" fill="#f8fafc">Operators and tests</text>
<text xml:space="preserve" text-anchor="middle" x="164.96" y="-771.3" font-family="Helvetica,sans-Serif" font-size="26.00" fill="#f8fafc">k6, Synthetic, IRM</text>
</g>
<!-- frontendSignals -->
<g id="node6" class="node">
<title>frontendSignals</title>
<path fill="#6b21a8" stroke="#64748b" stroke-width="2" d="M685.11,-289.89C685.11,-289.89 395.43,-289.89 395.43,-289.89 389.43,-289.89 383.43,-283.89 383.43,-277.89 383.43,-277.89 383.43,-200.11 383.43,-200.11 383.43,-194.11 389.43,-188.11 395.43,-188.11 395.43,-188.11 685.11,-188.11 685.11,-188.11 691.11,-188.11 697.11,-194.11 697.11,-200.11 697.11,-200.11 697.11,-277.89 697.11,-277.89 697.11,-283.89 691.11,-289.89 685.11,-289.89"/>
<text xml:space="preserve" text-anchor="middle" x="540.27" y="-253.68" font-family="Helvetica,sans-Serif" font-size="26.00" fill="#f8fafc">Frontend signals</text>
<text xml:space="preserve" text-anchor="middle" x="540.27" y="-227.43" font-family="Helvetica,sans-Serif" font-size="26.00" fill="#f8fafc">Faro events, exceptions,</text>
<text xml:space="preserve" text-anchor="middle" x="540.27" y="-201.18" font-family="Helvetica,sans-Serif" font-size="26.00" fill="#f8fafc">web vitals, user actions</text>
</g>
<!-- traceSignals -->
<g id="node7" class="node">
<title>traceSignals</title>
<path fill="#164e63" stroke="#64748b" stroke-width="2" d="M689.61,-438.89C689.61,-438.89 390.93,-438.89 390.93,-438.89 384.93,-438.89 378.93,-432.89 378.93,-426.89 378.93,-426.89 378.93,-349.11 378.93,-349.11 378.93,-343.11 384.93,-337.11 390.93,-337.11 390.93,-337.11 689.61,-337.11 689.61,-337.11 695.61,-337.11 701.61,-343.11 701.61,-349.11 701.61,-349.11 701.61,-426.89 701.61,-426.89 701.61,-432.89 695.61,-438.89 689.61,-438.89"/>
<text xml:space="preserve" text-anchor="middle" x="540.27" y="-402.68" font-family="Helvetica,sans-Serif" font-size="26.00" fill="#f8fafc">Distributed traces</text>
<text xml:space="preserve" text-anchor="middle" x="540.27" y="-376.43" font-family="Helvetica,sans-Serif" font-size="26.00" fill="#f8fafc">traceparent from browser</text>
<text xml:space="preserve" text-anchor="middle" x="540.27" y="-350.18" font-family="Helvetica,sans-Serif" font-size="26.00" fill="#f8fafc">to backend services</text>
</g>
<!-- serviceSignals -->
<g id="node8" class="node">
<title>serviceSignals</title>
<path fill="#164e63" stroke="#64748b" stroke-width="2" d="M677.24,-736.89C677.24,-736.89 403.3,-736.89 403.3,-736.89 397.3,-736.89 391.3,-730.89 391.3,-724.89 391.3,-724.89 391.3,-647.11 391.3,-647.11 391.3,-641.11 397.3,-635.11 403.3,-635.11 403.3,-635.11 677.24,-635.11 677.24,-635.11 683.24,-635.11 689.24,-641.11 689.24,-647.11 689.24,-647.11 689.24,-724.89 689.24,-724.89 689.24,-730.89 683.24,-736.89 677.24,-736.89"/>
<text xml:space="preserve" text-anchor="middle" x="540.27" y="-700.67" font-family="Helvetica,sans-Serif" font-size="26.00" fill="#f8fafc">Service health</text>
<text xml:space="preserve" text-anchor="middle" x="540.27" y="-674.42" font-family="Helvetica,sans-Serif" font-size="26.00" fill="#f8fafc">RED metrics, pod logs,</text>
<text xml:space="preserve" text-anchor="middle" x="540.27" y="-648.17" font-family="Helvetica,sans-Serif" font-size="26.00" fill="#f8fafc">Beyla HTTP telemetry</text>
</g>
<!-- profileSignals -->
<g id="node9" class="node">
<title>profileSignals</title>
<path fill="#6b21a8" stroke="#64748b" stroke-width="2" d="M647.61,-587.89C647.61,-587.89 432.93,-587.89 432.93,-587.89 426.93,-587.89 420.93,-581.89 420.93,-575.89 420.93,-575.89 420.93,-498.11 420.93,-498.11 420.93,-492.11 426.93,-486.11 432.93,-486.11 432.93,-486.11 647.61,-486.11 647.61,-486.11 653.61,-486.11 659.61,-492.11 659.61,-498.11 659.61,-498.11 659.61,-575.89 659.61,-575.89 659.61,-581.89 653.61,-587.89 647.61,-587.89"/>
<text xml:space="preserve" text-anchor="middle" x="540.27" y="-551.67" font-family="Helvetica,sans-Serif" font-size="26.00" fill="#f8fafc">Runtime profiles</text>
<text xml:space="preserve" text-anchor="middle" x="540.27" y="-525.42" font-family="Helvetica,sans-Serif" font-size="26.00" fill="#f8fafc">Java CPU profiles</text>
<text xml:space="preserve" text-anchor="middle" x="540.27" y="-499.18" font-family="Helvetica,sans-Serif" font-size="26.00" fill="#f8fafc">from Pyroscope</text>
</g>
<!-- externalSignals -->
<g id="node10" class="node">
<title>externalSignals</title>
<path fill="#6b21a8" stroke="#64748b" stroke-width="2" d="M660.74,-885.89C660.74,-885.89 419.8,-885.89 419.8,-885.89 413.8,-885.89 407.8,-879.89 407.8,-873.89 407.8,-873.89 407.8,-796.11 407.8,-796.11 407.8,-790.11 413.8,-784.11 419.8,-784.11 419.8,-784.11 660.74,-784.11 660.74,-784.11 666.74,-784.11 672.74,-790.11 672.74,-796.11 672.74,-796.11 672.74,-873.89 672.74,-873.89 672.74,-879.89 666.74,-885.89 660.74,-885.89"/>
<text xml:space="preserve" text-anchor="middle" x="540.27" y="-849.67" font-family="Helvetica,sans-Serif" font-size="26.00" fill="#f8fafc">External signals</text>
<text xml:space="preserve" text-anchor="middle" x="540.27" y="-823.42" font-family="Helvetica,sans-Serif" font-size="26.00" fill="#f8fafc">CloudWatch, k6,</text>
<text xml:space="preserve" text-anchor="middle" x="540.27" y="-797.17" font-family="Helvetica,sans-Serif" font-size="26.00" fill="#f8fafc">Synthetic, IRM state</text>
</g>
<!-- faroCollector -->
<g id="node11" class="node">
<title>faroCollector</title>
<path fill="#581c87" stroke="#64748b" stroke-width="2" d="M1093.79,-331.77C1093.79,-331.77 781.61,-331.77 781.61,-331.77 775.61,-331.77 769.61,-325.77 769.61,-319.77 769.61,-319.77 769.61,-268.23 769.61,-268.23 769.61,-262.23 775.61,-256.23 781.61,-256.23 781.61,-256.23 1093.79,-256.23 1093.79,-256.23 1099.79,-256.23 1105.79,-262.23 1105.79,-268.23 1105.79,-268.23 1105.79,-319.77 1105.79,-319.77 1105.79,-325.77 1099.79,-331.77 1093.79,-331.77"/>
<text xml:space="preserve" text-anchor="middle" x="937.7" y="-295.55" font-family="Helvetica,sans-Serif" font-size="26.00" fill="#f8fafc">Faro collector</text>
<text xml:space="preserve" text-anchor="middle" x="937.7" y="-269.3" font-family="Helvetica,sans-Serif" font-size="26.00" fill="#f8fafc">frontend events and spans</text>
</g>
<!-- alloy -->
<g id="node12" class="node">
<title>alloy</title>
<path fill="#581c87" stroke="#64748b" stroke-width="2" d="M1057.41,-454.77C1057.41,-454.77 817.99,-454.77 817.99,-454.77 811.99,-454.77 805.99,-448.77 805.99,-442.77 805.99,-442.77 805.99,-391.23 805.99,-391.23 805.99,-385.23 811.99,-379.23 817.99,-379.23 817.99,-379.23 1057.41,-379.23 1057.41,-379.23 1063.41,-379.23 1069.41,-385.23 1069.41,-391.23 1069.41,-391.23 1069.41,-442.77 1069.41,-442.77 1069.41,-448.77 1063.41,-454.77 1057.41,-454.77"/>
<text xml:space="preserve" text-anchor="middle" x="937.7" y="-418.55" font-family="Helvetica,sans-Serif" font-size="26.00" fill="#f8fafc">Grafana Alloy</text>
<text xml:space="preserve" text-anchor="middle" x="937.7" y="-392.3" font-family="Helvetica,sans-Serif" font-size="26.00" fill="#f8fafc">metrics, logs, traces</text>
</g>
<!-- pyroscope -->
<g id="node13" class="node">
<title>pyroscope</title>
<path fill="#581c87" stroke="#64748b" stroke-width="2" d="M1055.54,-577.77C1055.54,-577.77 819.86,-577.77 819.86,-577.77 813.86,-577.77 807.86,-571.77 807.86,-565.77 807.86,-565.77 807.86,-514.23 807.86,-514.23 807.86,-508.23 813.86,-502.23 819.86,-502.23 819.86,-502.23 1055.54,-502.23 1055.54,-502.23 1061.54,-502.23 1067.54,-508.23 1067.54,-514.23 1067.54,-514.23 1067.54,-565.77 1067.54,-565.77 1067.54,-571.77 1061.54,-577.77 1055.54,-577.77"/>
<text xml:space="preserve" text-anchor="middle" x="937.7" y="-541.55" font-family="Helvetica,sans-Serif" font-size="26.00" fill="#f8fafc">Pyroscope endpoint</text>
<text xml:space="preserve" text-anchor="middle" x="937.7" y="-515.3" font-family="Helvetica,sans-Serif" font-size="26.00" fill="#f8fafc">profile ingestion</text>
</g>
<!-- cloudIntegrations -->
<g id="node14" class="node">
<title>cloudIntegrations</title>
<path fill="#581c87" stroke="#64748b" stroke-width="2" d="M1096.79,-726.89C1096.79,-726.89 778.61,-726.89 778.61,-726.89 772.61,-726.89 766.61,-720.89 766.61,-714.89 766.61,-714.89 766.61,-637.11 766.61,-637.11 766.61,-631.11 772.61,-625.11 778.61,-625.11 778.61,-625.11 1096.79,-625.11 1096.79,-625.11 1102.79,-625.11 1108.79,-631.11 1108.79,-637.11 1108.79,-637.11 1108.79,-714.89 1108.79,-714.89 1108.79,-720.89 1102.79,-726.89 1096.79,-726.89"/>
<text xml:space="preserve" text-anchor="middle" x="937.7" y="-690.67" font-family="Helvetica,sans-Serif" font-size="26.00" fill="#f8fafc">Grafana Cloud integrations</text>
<text xml:space="preserve" text-anchor="middle" x="937.7" y="-664.42" font-family="Helvetica,sans-Serif" font-size="26.00" fill="#f8fafc">CloudWatch scrape,</text>
<text xml:space="preserve" text-anchor="middle" x="937.7" y="-638.17" font-family="Helvetica,sans-Serif" font-size="26.00" fill="#f8fafc">k6 and Synthetic samples</text>
</g>
<!-- grafana -->
<g id="node15" class="node">
<title>grafana</title>
<path fill="#4c1d95" stroke="#64748b" stroke-width="2" d="M1464.97,-465.27C1464.97,-465.27 1185.79,-465.27 1185.79,-465.27 1179.79,-465.27 1173.79,-459.27 1173.79,-453.27 1173.79,-453.27 1173.79,-392.73 1173.79,-392.73 1173.79,-386.73 1179.79,-380.73 1185.79,-380.73 1185.79,-380.73 1464.97,-380.73 1464.97,-380.73 1470.97,-380.73 1476.97,-386.73 1476.97,-392.73 1476.97,-392.73 1476.97,-453.27 1476.97,-453.27 1476.97,-459.27 1470.97,-465.27 1464.97,-465.27"/>
<text xml:space="preserve" text-anchor="middle" x="1325.38" y="-425.25" font-family="Helvetica,sans-Serif" font-size="30.00" fill="#f8fafc">Grafana Cloud stack</text>
<text xml:space="preserve" text-anchor="middle" x="1325.38" y="-394.5" font-family="Helvetica,sans-Serif" font-size="30.00" fill="#f8fafc">orenlion.grafana.net</text>
</g>
<!-- frontendObs -->
<g id="node16" class="node">
<title>frontendObs</title>
<path fill="#581c87" stroke="#64748b" stroke-width="2" d="M1876.28,-91.77C1876.28,-91.77 1588.85,-91.77 1588.85,-91.77 1582.85,-91.77 1576.85,-85.77 1576.85,-79.77 1576.85,-79.77 1576.85,-28.23 1576.85,-28.23 1576.85,-22.23 1582.85,-16.23 1588.85,-16.23 1588.85,-16.23 1876.28,-16.23 1876.28,-16.23 1882.28,-16.23 1888.28,-22.23 1888.28,-28.23 1888.28,-28.23 1888.28,-79.77 1888.28,-79.77 1888.28,-85.77 1882.28,-91.77 1876.28,-91.77"/>
<text xml:space="preserve" text-anchor="middle" x="1732.56" y="-55.55" font-family="Helvetica,sans-Serif" font-size="26.00" fill="#f8fafc">Frontend Observability</text>
<text xml:space="preserve" text-anchor="middle" x="1732.56" y="-29.3" font-family="Helvetica,sans-Serif" font-size="26.00" fill="#f8fafc">sessions, errors, actions</text>
</g>
<!-- tempo -->
<g id="node17" class="node">
<title>tempo</title>
<path fill="#581c87" stroke="#64748b" stroke-width="2" d="M1911.15,-214.77C1911.15,-214.77 1553.97,-214.77 1553.97,-214.77 1547.97,-214.77 1541.97,-208.77 1541.97,-202.77 1541.97,-202.77 1541.97,-151.23 1541.97,-151.23 1541.97,-145.23 1547.97,-139.23 1553.97,-139.23 1553.97,-139.23 1911.15,-139.23 1911.15,-139.23 1917.15,-139.23 1923.15,-145.23 1923.15,-151.23 1923.15,-151.23 1923.15,-202.77 1923.15,-202.77 1923.15,-208.77 1917.15,-214.77 1911.15,-214.77"/>
<text xml:space="preserve" text-anchor="middle" x="1732.56" y="-178.55" font-family="Helvetica,sans-Serif" font-size="26.00" fill="#f8fafc">Traces</text>
<text xml:space="preserve" text-anchor="middle" x="1732.56" y="-152.3" font-family="Helvetica,sans-Serif" font-size="26.00" fill="#f8fafc">frontend&#45;to&#45;backend waterfalls</text>
</g>
<!-- prometheus -->
<g id="node18" class="node">
<title>prometheus</title>
<path fill="#581c87" stroke="#64748b" stroke-width="2" d="M1854.9,-337.77C1854.9,-337.77 1610.22,-337.77 1610.22,-337.77 1604.22,-337.77 1598.22,-331.77 1598.22,-325.77 1598.22,-325.77 1598.22,-274.23 1598.22,-274.23 1598.22,-268.23 1604.22,-262.23 1610.22,-262.23 1610.22,-262.23 1854.9,-262.23 1854.9,-262.23 1860.9,-262.23 1866.9,-268.23 1866.9,-274.23 1866.9,-274.23 1866.9,-325.77 1866.9,-325.77 1866.9,-331.77 1860.9,-337.77 1854.9,-337.77"/>
<text xml:space="preserve" text-anchor="middle" x="1732.56" y="-301.55" font-family="Helvetica,sans-Serif" font-size="26.00" fill="#f8fafc">Metrics</text>
<text xml:space="preserve" text-anchor="middle" x="1732.56" y="-275.3" font-family="Helvetica,sans-Serif" font-size="26.00" fill="#f8fafc">RED + infrastructure</text>
</g>
<!-- loki -->
<g id="node19" class="node">
<title>loki</title>
<path fill="#581c87" stroke="#64748b" stroke-width="2" d="M1896.15,-460.77C1896.15,-460.77 1568.97,-460.77 1568.97,-460.77 1562.97,-460.77 1556.97,-454.77 1556.97,-448.77 1556.97,-448.77 1556.97,-397.23 1556.97,-397.23 1556.97,-391.23 1562.97,-385.23 1568.97,-385.23 1568.97,-385.23 1896.15,-385.23 1896.15,-385.23 1902.15,-385.23 1908.15,-391.23 1908.15,-397.23 1908.15,-397.23 1908.15,-448.77 1908.15,-448.77 1908.15,-454.77 1902.15,-460.77 1896.15,-460.77"/>
<text xml:space="preserve" text-anchor="middle" x="1732.56" y="-424.55" font-family="Helvetica,sans-Serif" font-size="26.00" fill="#f8fafc">Logs</text>
<text xml:space="preserve" text-anchor="middle" x="1732.56" y="-398.3" font-family="Helvetica,sans-Serif" font-size="26.00" fill="#f8fafc">namespace + service labels</text>
</g>
<!-- profiles -->
<g id="node20" class="node">
<title>profiles</title>
<path fill="#581c87" stroke="#64748b" stroke-width="2" d="M1847.03,-583.77C1847.03,-583.77 1618.1,-583.77 1618.1,-583.77 1612.1,-583.77 1606.1,-577.77 1606.1,-571.77 1606.1,-571.77 1606.1,-520.23 1606.1,-520.23 1606.1,-514.23 1612.1,-508.23 1618.1,-508.23 1618.1,-508.23 1847.03,-508.23 1847.03,-508.23 1853.03,-508.23 1859.03,-514.23 1859.03,-520.23 1859.03,-520.23 1859.03,-571.77 1859.03,-571.77 1859.03,-577.77 1853.03,-583.77 1847.03,-583.77"/>
<text xml:space="preserve" text-anchor="middle" x="1732.56" y="-547.55" font-family="Helvetica,sans-Serif" font-size="26.00" fill="#f8fafc">Profiles</text>
<text xml:space="preserve" text-anchor="middle" x="1732.56" y="-521.3" font-family="Helvetica,sans-Serif" font-size="26.00" fill="#f8fafc">Java CPU hotspots</text>
</g>
<!-- testResults -->
<g id="node21" class="node">
<title>testResults</title>
<path fill="#581c87" stroke="#64748b" stroke-width="2" d="M1864.65,-732.89C1864.65,-732.89 1600.47,-732.89 1600.47,-732.89 1594.47,-732.89 1588.47,-726.89 1588.47,-720.89 1588.47,-720.89 1588.47,-643.11 1588.47,-643.11 1588.47,-637.11 1594.47,-631.11 1600.47,-631.11 1600.47,-631.11 1864.65,-631.11 1864.65,-631.11 1870.65,-631.11 1876.65,-637.11 1876.65,-643.11 1876.65,-643.11 1876.65,-720.89 1876.65,-720.89 1876.65,-726.89 1870.65,-732.89 1864.65,-732.89"/>
<text xml:space="preserve" text-anchor="middle" x="1732.56" y="-696.67" font-family="Helvetica,sans-Serif" font-size="26.00" fill="#f8fafc">Synthetic + k6 results</text>
<text xml:space="preserve" text-anchor="middle" x="1732.56" y="-670.42" font-family="Helvetica,sans-Serif" font-size="26.00" fill="#f8fafc">uptime, DNS, TLS,</text>
<text xml:space="preserve" text-anchor="middle" x="1732.56" y="-644.17" font-family="Helvetica,sans-Serif" font-size="26.00" fill="#f8fafc">checks and thresholds</text>
</g>
<!-- incidents -->
<g id="node22" class="node">
<title>incidents</title>
<path fill="#581c87" stroke="#64748b" stroke-width="2" d="M1837.28,-881.89C1837.28,-881.89 1627.85,-881.89 1627.85,-881.89 1621.85,-881.89 1615.85,-875.89 1615.85,-869.89 1615.85,-869.89 1615.85,-792.11 1615.85,-792.11 1615.85,-786.11 1621.85,-780.11 1627.85,-780.11 1627.85,-780.11 1837.28,-780.11 1837.28,-780.11 1843.28,-780.11 1849.28,-786.11 1849.28,-792.11 1849.28,-792.11 1849.28,-869.89 1849.28,-869.89 1849.28,-875.89 1843.28,-881.89 1837.28,-881.89"/>
<text xml:space="preserve" text-anchor="middle" x="1732.56" y="-845.67" font-family="Helvetica,sans-Serif" font-size="26.00" fill="#f8fafc">IRM workflows</text>
<text xml:space="preserve" text-anchor="middle" x="1732.56" y="-819.42" font-family="Helvetica,sans-Serif" font-size="26.00" fill="#f8fafc">severity, labels,</text>
<text xml:space="preserve" text-anchor="middle" x="1732.56" y="-793.17" font-family="Helvetica,sans-Serif" font-size="26.00" fill="#f8fafc">on&#45;call ownership</text>
</g>
</g>
</svg>
