<?xml version="1.0" encoding="UTF-8" standalone="no"?>
<!DOCTYPE svg PUBLIC "-//W3C//DTD SVG 1.1//EN"
 "http://www.w3.org/Graphics/SVG/1.1/DTD/svg11.dtd">
<!-- Generated by graphviz version 15.0.0 (20260523.1842)
 -->
<!-- Title: observability_capabilities_flow_presentation Pages: 1 -->
<svg width="2166pt" height="1055pt"
 viewBox="0.00 0.00 2166.00 1055.00" xmlns="http://www.w3.org/2000/svg" xmlns:xlink="http://www.w3.org/1999/xlink">
<g id="graph0" class="graph" transform="scale(1 1) rotate(0) translate(32.4 1022.65)">
<title>observability_capabilities_flow_presentation</title>
<polygon fill="#0b1220" stroke="none" points="-32.4,32.4 -32.4,-1022.65 2133.55,-1022.65 2133.55,32.4 -32.4,32.4"/>
<text xml:space="preserve" text-anchor="middle" x="1050.58" y="-948.25" font-family="Helvetica,sans-Serif" font-size="40.00" fill="#f8fafc">Observability Capabilities Flow</text>
<g id="clust1" class="cluster">
<title>cluster_sources</title>
<path fill="#0b1220" stroke="#475569" stroke-dasharray="5,2" d="M20,-261C20,-261 438.93,-261 438.93,-261 444.93,-261 450.93,-267 450.93,-273 450.93,-273 450.93,-869 450.93,-869 450.93,-875 444.93,-881 438.93,-881 438.93,-881 20,-881 20,-881 14,-881 8,-875 8,-869 8,-869 8,-273 8,-273 8,-267 14,-261 20,-261"/>
<text xml:space="preserve" text-anchor="middle" x="229.46" y="-850.4" font-family="Helvetica,sans-Serif" font-size="28.00" fill="#f8fafc">Observed systems</text>
</g>
<g id="clust2" class="cluster">
<title>cluster_telemetry</title>
<path fill="#0b1220" stroke="#475569" stroke-dasharray="5,2" d="M511.93,-183C511.93,-183 859.61,-183 859.61,-183 865.61,-183 871.61,-189 871.61,-195 871.61,-195 871.61,-921 871.61,-921 871.61,-927 865.61,-933 859.61,-933 859.61,-933 511.93,-933 511.93,-933 505.93,-933 499.93,-927 499.93,-921 499.93,-921 499.93,-195 499.93,-195 499.93,-189 505.93,-183 511.93,-183"/>
<text xml:space="preserve" text-anchor="middle" x="685.77" y="-902.4" font-family="Helvetica,sans-Serif" font-size="28.00" fill="#f8fafc">Telemetry produced</text>
</g>
<g id="clust3" class="cluster">
<title>cluster_collection</title>
<path fill="#0b1220" stroke="#475569" stroke-dasharray="5,2" d="M932.61,-228C932.61,-228 1266.79,-228 1266.79,-228 1272.79,-228 1278.79,-234 1278.79,-240 1278.79,-240 1278.79,-765 1278.79,-765 1278.79,-771 1272.79,-777 1266.79,-777 1266.79,-777 932.61,-777 932.61,-777 926.61,-777 920.61,-771 920.61,-765 920.61,-765 920.61,-240 920.61,-240 920.61,-234 926.61,-228 932.61,-228"/>
<text xml:space="preserve" text-anchor="middle" x="1099.7" y="-746.4" font-family="Helvetica,sans-Serif" font-size="28.00" fill="#f8fafc">Collection and routing</text>
</g>
<g id="clust4" class="cluster">
<title>cluster_outcomes</title>
<path fill="#0b1220" stroke="#475569" stroke-dasharray="5,2" d="M1707.97,-8C1707.97,-8 2081.15,-8 2081.15,-8 2087.15,-8 2093.15,-14 2093.15,-20 2093.15,-20 2093.15,-914 2093.15,-914 2093.15,-920 2087.15,-926 2081.15,-926 2081.15,-926 1707.97,-926 1707.97,-926 1701.97,-926 1695.97,-920 1695.97,-914 1695.97,-914 1695.97,-20 1695.97,-20 1695.97,-14 1701.97,-8 1707.97,-8"/>
<text xml:space="preserve" text-anchor="middle" x="1894.56" y="-895.4" font-family="Helvetica,sans-Serif" font-size="28.00" fill="#f8fafc">Operational capabilities</text>
</g>
<!-- browser&#45;&gt;frontendSignals -->
<g id="edge1" class="edge">
<title>browser&#45;&gt;frontendSignals</title>
<path fill="none" stroke="#94a3b8" stroke-width="2" d="M344.9,-281.06C344.9,-281.06 516.17,-281.06 516.17,-281.06"/>
<polygon fill="#94a3b8" stroke="#94a3b8" stroke-width="2" points="516.17,-284.21 525.17,-281.06 516.17,-277.91 516.17,-284.21"/>
</g>
<!-- browser&#45;&gt;traceSignals -->
<g id="edge2" class="edge">
<title>browser&#45;&gt;traceSignals</title>
<path fill="none" stroke="#94a3b8" stroke-width="2" d="M229.15,-345.6C229.15,-357.96 229.15,-368.5 229.15,-368.5 229.15,-368.5 511.47,-368.5 511.47,-368.5"/>
<polygon fill="#94a3b8" stroke="#94a3b8" stroke-width="2" points="511.47,-371.65 520.47,-368.5 511.47,-365.35 511.47,-371.65"/>
</g>
<!-- edgePath&#45;&gt;traceSignals -->
<g id="edge3" class="edge">
<title>edgePath&#45;&gt;traceSignals</title>
<path fill="none" stroke="#94a3b8" stroke-width="2" d="M400.35,-417.06C400.35,-417.06 511.55,-417.06 511.55,-417.06"/>
<polygon fill="#94a3b8" stroke="#94a3b8" stroke-width="2" points="511.55,-420.21 520.55,-417.06 511.55,-413.91 511.55,-420.21"/>
</g>
<!-- services&#45;&gt;traceSignals -->
<g id="edge4" class="edge">
<title>services&#45;&gt;traceSignals</title>
<path fill="none" stroke="#94a3b8" stroke-width="2" d="M378.99,-534.12C460.58,-534.12 545.15,-534.12 545.15,-534.12 545.15,-534.12 545.15,-454.69 545.15,-454.69"/>
<polygon fill="#94a3b8" stroke="#94a3b8" stroke-width="2" points="548.3,-454.69 545.15,-445.69 542,-454.69 548.3,-454.69"/>
</g>
<!-- services&#45;&gt;serviceSignals -->
<g id="edge5" class="edge">
<title>services&#45;&gt;serviceSignals</title>
<path fill="none" stroke="#94a3b8" stroke-width="2" d="M379.1,-571.88C448.62,-571.88 516.15,-571.88 516.15,-571.88 516.15,-571.88 516.15,-625.26 516.15,-625.26"/>
<polygon fill="#94a3b8" stroke="#94a3b8" stroke-width="2" points="513,-625.26 516.15,-634.26 519.3,-625.26 513,-625.26"/>
</g>
<!-- services&#45;&gt;profileSignals -->
<g id="edge6" class="edge">
<title>services&#45;&gt;profileSignals</title>
<path fill="none" stroke="#94a3b8" stroke-width="2" d="M379.19,-553C379.19,-553 553.42,-553 553.42,-553"/>
<polygon fill="#94a3b8" stroke="#94a3b8" stroke-width="2" points="553.42,-556.15 562.42,-553 553.42,-549.85 553.42,-556.15"/>
</g>
<!-- aws&#45;&gt;serviceSignals -->
<g id="edge7" class="edge">
<title>aws&#45;&gt;serviceSignals</title>
<path fill="none" stroke="#94a3b8" stroke-width="2" d="M443.92,-676C443.92,-676 495.14,-676 495.14,-676"/>
<polygon fill="#94a3b8" stroke="#94a3b8" stroke-width="2" points="495.14,-679.15 504.14,-676 495.14,-672.85 495.14,-679.15"/>
</g>
<!-- operators&#45;&gt;externalSignals -->
<g id="edge8" class="edge">
<title>operators&#45;&gt;externalSignals</title>
<path fill="none" stroke="#94a3b8" stroke-width="2" d="M360.22,-811.94C360.22,-811.94 540.59,-811.94 540.59,-811.94"/>
<polygon fill="#94a3b8" stroke="#94a3b8" stroke-width="2" points="540.59,-815.09 549.59,-811.94 540.59,-808.79 540.59,-815.09"/>
</g>
<!-- frontendSignals&#45;&gt;faroCollector -->
<g id="edge9" class="edge">
<title>frontendSignals&#45;&gt;faroCollector</title>
<path fill="none" stroke="#94a3b8" stroke-width="2" d="M843.44,-264.56C843.44,-264.56 918.73,-264.56 918.73,-264.56"/>
<polygon fill="#94a3b8" stroke="#94a3b8" stroke-width="2" points="918.73,-267.71 927.73,-264.56 918.73,-261.41 918.73,-267.71"/>
</g>
<!-- traceSignals&#45;&gt;faroCollector -->
<g id="edge10" class="edge">
<title>traceSignals&#45;&gt;faroCollector</title>
<path fill="none" stroke="#94a3b8" stroke-width="2" d="M847.95,-349.61C897.97,-349.61 940.15,-349.61 940.15,-349.61 940.15,-349.61 940.15,-324.72 940.15,-324.72"/>
<polygon fill="#94a3b8" stroke="#94a3b8" stroke-width="2" points="943.3,-324.72 940.15,-315.72 937,-324.72 943.3,-324.72"/>
</g>
<!-- traceSignals&#45;&gt;alloy -->
<g id="edge11" class="edge">
<title>traceSignals&#45;&gt;alloy</title>
<path fill="none" stroke="#94a3b8" stroke-width="2" d="M847.88,-400.5C847.88,-400.5 936.33,-400.5 936.33,-400.5"/>
<polygon fill="#94a3b8" stroke="#94a3b8" stroke-width="2" points="936.33,-403.65 945.33,-400.5 936.33,-397.35 936.33,-403.65"/>
</g>
<!-- serviceSignals&#45;&gt;alloy -->
<g id="edge12" class="edge">
<title>serviceSignals&#45;&gt;alloy</title>
<path fill="none" stroke="#94a3b8" stroke-width="2" d="M855.15,-637.15C855.15,-567.24 855.15,-451.39 855.15,-451.39 855.15,-451.39 936.27,-451.39 936.27,-451.39"/>
<polygon fill="#94a3b8" stroke="#94a3b8" stroke-width="2" points="936.27,-454.55 945.27,-451.4 936.27,-448.25 936.27,-454.55"/>
</g>
<!-- profileSignals&#45;&gt;pyroscope -->
<g id="edge13" class="edge">
<title>profileSignals&#45;&gt;pyroscope</title>
<path fill="none" stroke="#94a3b8" stroke-width="2" d="M806.05,-546C806.05,-546 956.95,-546 956.95,-546"/>
<polygon fill="#94a3b8" stroke="#94a3b8" stroke-width="2" points="956.95,-549.15 965.95,-546 956.95,-542.85 956.95,-549.15"/>
</g>
<!-- externalSignals&#45;&gt;cloudIntegrations -->
<g id="edge14" class="edge">
<title>externalSignals&#45;&gt;cloudIntegrations</title>
<path fill="none" stroke="#94a3b8" stroke-width="2" d="M819.16,-834.5C940.3,-834.5 1100.15,-834.5 1100.15,-834.5 1100.15,-834.5 1100.15,-745.66 1100.15,-745.66"/>
<polygon fill="#94a3b8" stroke="#94a3b8" stroke-width="2" points="1103.3,-745.66 1100.15,-736.66 1097,-745.66 1103.3,-745.66"/>
</g>
<!-- faroCollector&#45;&gt;grafana -->
<g id="edge15" class="edge">
<title>faroCollector&#45;&gt;grafana</title>
<path fill="none" stroke="#94a3b8" stroke-width="2" d="M1262.15,-312.72C1262.15,-350.01 1262.15,-400.77 1262.15,-400.77 1262.15,-400.77 1322.94,-400.77 1322.94,-400.77"/>
<polygon fill="#94a3b8" stroke="#94a3b8" stroke-width="2" points="1322.94,-403.92 1331.94,-400.77 1322.94,-397.62 1322.94,-403.92"/>
</g>
<!-- alloy&#45;&gt;grafana -->
<g id="edge16" class="edge">
<title>alloy&#45;&gt;grafana</title>
<path fill="none" stroke="#94a3b8" stroke-width="2" d="M1250.98,-420.81C1250.98,-420.81 1323.06,-420.81 1323.06,-420.81"/>
<polygon fill="#94a3b8" stroke="#94a3b8" stroke-width="2" points="1323.06,-423.96 1332.06,-420.81 1323.06,-417.66 1323.06,-423.96"/>
</g>
<!-- pyroscope&#45;&gt;grafana -->
<g id="edge17" class="edge">
<title>pyroscope&#45;&gt;grafana</title>
<path fill="none" stroke="#94a3b8" stroke-width="2" d="M1230.16,-558.59C1309.69,-558.59 1396.15,-558.59 1396.15,-558.59 1396.15,-558.59 1396.15,-477.93 1396.15,-477.93"/>
<polygon fill="#94a3b8" stroke="#94a3b8" stroke-width="2" points="1399.3,-477.93 1396.15,-468.93 1393,-477.93 1399.3,-477.93"/>
</g>
<!-- cloudIntegrations&#45;&gt;grafana -->
<g id="edge18" class="edge">
<title>cloudIntegrations&#45;&gt;grafana</title>
<path fill="none" stroke="#94a3b8" stroke-width="2" d="M1256.15,-630.27C1256.15,-559.41 1256.15,-440.85 1256.15,-440.85 1256.15,-440.85 1323.05,-440.85 1323.05,-440.85"/>
<polygon fill="#94a3b8" stroke="#94a3b8" stroke-width="2" points="1323.05,-444 1332.05,-440.85 1323.05,-437.7 1323.05,-444"/>
</g>
<!-- grafana&#45;&gt;frontendObs -->
<g id="edge19" class="edge">
<title>grafana&#45;&gt;frontendObs</title>
<path fill="none" stroke="#94a3b8" stroke-width="2" d="M1437.15,-379.95C1437.15,-282.61 1437.15,-54 1437.15,-54 1437.15,-54 1726.08,-54 1726.08,-54"/>
<polygon fill="#94a3b8" stroke="#94a3b8" stroke-width="2" points="1726.08,-57.15 1735.08,-54 1726.08,-50.85 1726.08,-57.15"/>
</g>
<!-- grafana&#45;&gt;tempo -->
<g id="edge20" class="edge">
<title>grafana&#45;&gt;tempo</title>
<path fill="none" stroke="#94a3b8" stroke-width="2" d="M1639.73,-410.41C1679.35,-410.41 1711.15,-410.41 1711.15,-410.41 1711.15,-410.41 1711.15,-227.57 1711.15,-227.57"/>
<polygon fill="#94a3b8" stroke="#94a3b8" stroke-width="2" points="1714.3,-227.57 1711.15,-218.57 1708,-227.57 1714.3,-227.57"/>
</g>
<!-- grafana&#45;&gt;prometheus -->
<g id="edge21" class="edge">
<title>grafana&#45;&gt;prometheus</title>
<path fill="none" stroke="#94a3b8" stroke-width="2" d="M1538.15,-379.91C1538.15,-353.52 1538.15,-324.77 1538.15,-324.77 1538.15,-324.77 1747.28,-324.77 1747.28,-324.77"/>
<polygon fill="#94a3b8" stroke="#94a3b8" stroke-width="2" points="1747.28,-327.92 1756.28,-324.77 1747.28,-321.62 1747.28,-327.92"/>
</g>
<!-- grafana&#45;&gt;loki -->
<g id="edge22" class="edge">
<title>grafana&#45;&gt;loki</title>
<path fill="none" stroke="#94a3b8" stroke-width="2" d="M1639.87,-435.59C1639.87,-435.59 1706.06,-435.59 1706.06,-435.59"/>
<polygon fill="#94a3b8" stroke="#94a3b8" stroke-width="2" points="1706.06,-438.74 1715.06,-435.59 1706.06,-432.44 1706.06,-438.74"/>
</g>
<!-- grafana&#45;&gt;profiles -->
<g id="edge23" class="edge">
<title>grafana&#45;&gt;profiles</title>
<path fill="none" stroke="#94a3b8" stroke-width="2" d="M1578.15,-466C1578.15,-497 1578.15,-533.41 1578.15,-533.41 1578.15,-533.41 1755.2,-533.41 1755.2,-533.41"/>
<polygon fill="#94a3b8" stroke="#94a3b8" stroke-width="2" points="1755.2,-536.56 1764.2,-533.41 1755.2,-530.26 1755.2,-536.56"/>
</g>
<!-- grafana&#45;&gt;testResults -->
<g id="edge24" class="edge">
<title>grafana&#45;&gt;testResults</title>
<path fill="none" stroke="#94a3b8" stroke-width="2" d="M1518.15,-466.06C1518.15,-539.71 1518.15,-682 1518.15,-682 1518.15,-682 1737.54,-682 1737.54,-682"/>
<polygon fill="#94a3b8" stroke="#94a3b8" stroke-width="2" points="1737.54,-685.15 1746.54,-682 1737.54,-678.85 1737.54,-685.15"/>
</g>
<!-- grafana&#45;&gt;incidents -->
<g id="edge25" class="edge">
<title>grafana&#45;&gt;incidents</title>
<path fill="none" stroke="#94a3b8" stroke-width="2" d="M1457.15,-466.14C1457.15,-561.86 1457.15,-783.61 1457.15,-783.61 1457.15,-783.61 1765.03,-783.61 1765.03,-783.61"/>
<polygon fill="#94a3b8" stroke="#94a3b8" stroke-width="2" points="1765.03,-786.76 1774.03,-783.61 1765.03,-780.46 1765.03,-786.76"/>
</g>
<!-- browser -->
<g id="node1" class="node">
<title>browser</title>
<path fill="#1e3a8a" stroke="#64748b" stroke-width="2" d="M331.93,-344.77C331.93,-344.77 127,-344.77 127,-344.77 121,-344.77 115,-338.77 115,-332.77 115,-332.77 115,-281.23 115,-281.23 115,-275.23 121,-269.23 127,-269.23 127,-269.23 331.93,-269.23 331.93,-269.23 337.93,-269.23 343.93,-275.23 343.93,-281.23 343.93,-281.23 343.93,-332.77 343.93,-332.77 343.93,-338.77 337.93,-344.77 331.93,-344.77"/>
<text xml:space="preserve" text-anchor="middle" x="229.46" y="-308.55" font-family="Helvetica,sans-Serif" font-size="26.00" fill="#f8fafc">Shopper browser</text>
<text xml:space="preserve" text-anchor="middle" x="229.46" y="-282.3" font-family="Helvetica,sans-Serif" font-size="26.00" fill="#f8fafc">React storefront</text>
</g>
<!-- edgePath -->
<g id="node2" class="node">
<title>edgePath</title>
<path fill="#1e3a8a" stroke="#64748b" stroke-width="2" d="M387.43,-467.77C387.43,-467.77 71.5,-467.77 71.5,-467.77 65.5,-467.77 59.5,-461.77 59.5,-455.77 59.5,-455.77 59.5,-404.23 59.5,-404.23 59.5,-398.23 65.5,-392.23 71.5,-392.23 71.5,-392.23 387.43,-392.23 387.43,-392.23 393.43,-392.23 399.43,-398.23 399.43,-404.23 399.43,-404.23 399.43,-455.77 399.43,-455.77 399.43,-461.77 393.43,-467.77 387.43,-467.77"/>
<text xml:space="preserve" text-anchor="middle" x="229.46" y="-431.55" font-family="Helvetica,sans-Serif" font-size="26.00" fill="#f8fafc">CloudFront + API Gateway</text>
<text xml:space="preserve" text-anchor="middle" x="229.46" y="-405.3" font-family="Helvetica,sans-Serif" font-size="26.00" fill="#f8fafc">storefront and /api routing</text>
</g>
<!-- services -->
<g id="node3" class="node">
<title>services</title>
<path fill="#14532d" stroke="#64748b" stroke-width="2" d="M366.43,-590.77C366.43,-590.77 92.5,-590.77 92.5,-590.77 86.5,-590.77 80.5,-584.77 80.5,-578.77 80.5,-578.77 80.5,-527.23 80.5,-527.23 80.5,-521.23 86.5,-515.23 92.5,-515.23 92.5,-515.23 366.43,-515.23 366.43,-515.23 372.43,-515.23 378.43,-521.23 378.43,-527.23 378.43,-527.23 378.43,-578.77 378.43,-578.77 378.43,-584.77 372.43,-590.77 366.43,-590.77"/>
<text xml:space="preserve" text-anchor="middle" x="229.46" y="-554.55" font-family="Helvetica,sans-Serif" font-size="26.00" fill="#f8fafc">Lambda services</text>
<text xml:space="preserve" text-anchor="middle" x="229.46" y="-528.3" font-family="Helvetica,sans-Serif" font-size="26.00" fill="#f8fafc">inventory, cart, account</text>
</g>
<!-- aws -->
<g id="node4" class="node">
<title>aws</title>
<path fill="#334155" stroke="#64748b" stroke-width="2" d="M430.93,-713.77C430.93,-713.77 28,-713.77 28,-713.77 22,-713.77 16,-707.77 16,-701.77 16,-701.77 16,-650.23 16,-650.23 16,-644.23 22,-638.23 28,-638.23 28,-638.23 430.93,-638.23 430.93,-638.23 436.93,-638.23 442.93,-644.23 442.93,-650.23 442.93,-650.23 442.93,-701.77 442.93,-701.77 442.93,-707.77 436.93,-713.77 430.93,-713.77"/>
<text xml:space="preserve" text-anchor="middle" x="229.46" y="-677.55" font-family="Helvetica,sans-Serif" font-size="26.00" fill="#f8fafc">AWS platform</text>
<text xml:space="preserve" text-anchor="middle" x="229.46" y="-651.3" font-family="Helvetica,sans-Serif" font-size="26.00" fill="#f8fafc">Lambda, DynamoDB, CloudWatch</text>
</g>
<!-- operators -->
<g id="node5" class="node">
<title>operators</title>
<path fill="#6b21a8" stroke="#64748b" stroke-width="2" d="M347.3,-836.77C347.3,-836.77 111.62,-836.77 111.62,-836.77 105.62,-836.77 99.62,-830.77 99.62,-824.77 99.62,-824.77 99.62,-773.23 99.62,-773.23 99.62,-767.23 105.62,-761.23 111.62,-761.23 111.62,-761.23 347.3,-761.23 347.3,-761.23 353.31,-761.23 359.3,-767.23 359.3,-773.23 359.3,-773.23 359.3,-824.77 359.3,-824.77 359.3,-830.77 353.3,-836.77 347.3,-836.77"/>
<text xml:space="preserve" text-anchor="middle" x="229.46" y="-800.55" font-family="Helvetica,sans-Serif" font-size="26.00" fill="#f8fafc">Operators and tests</text>
<text xml:space="preserve" text-anchor="middle" x="229.46" y="-774.3" font-family="Helvetica,sans-Serif" font-size="26.00" fill="#f8fafc">k6, Synthetic, IRM</text>
</g>
<!-- frontendSignals -->
<g id="node6" class="node">
<title>frontendSignals</title>
<path fill="#6b21a8" stroke="#64748b" stroke-width="2" d="M830.61,-292.89C830.61,-292.89 540.93,-292.89 540.93,-292.89 534.93,-292.89 528.93,-286.89 528.93,-280.89 528.93,-280.89 528.93,-203.11 528.93,-203.11 528.93,-197.11 534.93,-191.11 540.93,-191.11 540.93,-191.11 830.61,-191.11 830.61,-191.11 836.61,-191.11 842.61,-197.11 842.61,-203.11 842.61,-203.11 842.61,-280.89 842.61,-280.89 842.61,-286.89 836.61,-292.89 830.61,-292.89"/>
<text xml:space="preserve" text-anchor="middle" x="685.77" y="-256.68" font-family="Helvetica,sans-Serif" font-size="26.00" fill="#f8fafc">Frontend signals</text>
<text xml:space="preserve" text-anchor="middle" x="685.77" y="-230.43" font-family="Helvetica,sans-Serif" font-size="26.00" fill="#f8fafc">Faro events, exceptions,</text>
<text xml:space="preserve" text-anchor="middle" x="685.77" y="-204.18" font-family="Helvetica,sans-Serif" font-size="26.00" fill="#f8fafc">web vitals, user actions</text>
</g>
<!-- traceSignals -->
<g id="node7" class="node">
<title>traceSignals</title>
<path fill="#164e63" stroke="#64748b" stroke-width="2" d="M835.11,-441.89C835.11,-441.89 536.43,-441.89 536.43,-441.89 530.43,-441.89 524.43,-435.89 524.43,-429.89 524.43,-429.89 524.43,-352.11 524.43,-352.11 524.43,-346.11 530.43,-340.11 536.43,-340.11 536.43,-340.11 835.11,-340.11 835.11,-340.11 841.11,-340.11 847.11,-346.11 847.11,-352.11 847.11,-352.11 847.11,-429.89 847.11,-429.89 847.11,-435.89 841.11,-441.89 835.11,-441.89"/>
<text xml:space="preserve" text-anchor="middle" x="685.77" y="-405.68" font-family="Helvetica,sans-Serif" font-size="26.00" fill="#f8fafc">Distributed traces</text>
<text xml:space="preserve" text-anchor="middle" x="685.77" y="-379.43" font-family="Helvetica,sans-Serif" font-size="26.00" fill="#f8fafc">traceparent from browser</text>
<text xml:space="preserve" text-anchor="middle" x="685.77" y="-353.18" font-family="Helvetica,sans-Serif" font-size="26.00" fill="#f8fafc">to backend services</text>
</g>
<!-- serviceSignals -->
<g id="node8" class="node">
<title>serviceSignals</title>
<path fill="#164e63" stroke="#64748b" stroke-width="2" d="M851.61,-739.89C851.61,-739.89 519.93,-739.89 519.93,-739.89 513.93,-739.89 507.93,-733.89 507.93,-727.89 507.93,-727.89 507.93,-650.11 507.93,-650.11 507.93,-644.11 513.93,-638.11 519.93,-638.11 519.93,-638.11 851.61,-638.11 851.61,-638.11 857.61,-638.11 863.61,-644.11 863.61,-650.11 863.61,-650.11 863.61,-727.89 863.61,-727.89 863.61,-733.89 857.61,-739.89 851.61,-739.89"/>
<text xml:space="preserve" text-anchor="middle" x="685.77" y="-703.67" font-family="Helvetica,sans-Serif" font-size="26.00" fill="#f8fafc">Service health</text>
<text xml:space="preserve" text-anchor="middle" x="685.77" y="-677.42" font-family="Helvetica,sans-Serif" font-size="26.00" fill="#f8fafc">RED metrics + Lambda logs</text>
<text xml:space="preserve" text-anchor="middle" x="685.77" y="-651.17" font-family="Helvetica,sans-Serif" font-size="26.00" fill="#f8fafc">via CloudWatch</text>
</g>
<!-- profileSignals -->
<g id="node9" class="node">
<title>profileSignals</title>
<path fill="#6b21a8" stroke="#64748b" stroke-width="2" d="M793.11,-590.89C793.11,-590.89 578.43,-590.89 578.43,-590.89 572.43,-590.89 566.43,-584.89 566.43,-578.89 566.43,-578.89 566.43,-501.11 566.43,-501.11 566.43,-495.11 572.43,-489.11 578.43,-489.11 578.43,-489.11 793.11,-489.11 793.11,-489.11 799.11,-489.11 805.11,-495.11 805.11,-501.11 805.11,-501.11 805.11,-578.89 805.11,-578.89 805.11,-584.89 799.11,-590.89 793.11,-590.89"/>
<text xml:space="preserve" text-anchor="middle" x="685.77" y="-554.67" font-family="Helvetica,sans-Serif" font-size="26.00" fill="#f8fafc">Runtime profiles</text>
<text xml:space="preserve" text-anchor="middle" x="685.77" y="-528.42" font-family="Helvetica,sans-Serif" font-size="26.00" fill="#f8fafc">Java CPU profiles</text>
<text xml:space="preserve" text-anchor="middle" x="685.77" y="-502.18" font-family="Helvetica,sans-Serif" font-size="26.00" fill="#f8fafc">from Pyroscope</text>
</g>
<!-- externalSignals -->
<g id="node10" class="node">
<title>externalSignals</title>
<path fill="#6b21a8" stroke="#64748b" stroke-width="2" d="M806.24,-888.89C806.24,-888.89 565.3,-888.89 565.3,-888.89 559.3,-888.89 553.3,-882.89 553.3,-876.89 553.3,-876.89 553.3,-799.11 553.3,-799.11 553.3,-793.11 559.3,-787.11 565.3,-787.11 565.3,-787.11 806.24,-787.11 806.24,-787.11 812.24,-787.11 818.24,-793.11 818.24,-799.11 818.24,-799.11 818.24,-876.89 818.24,-876.89 818.24,-882.89 812.24,-888.89 806.24,-888.89"/>
<text xml:space="preserve" text-anchor="middle" x="685.77" y="-852.67" font-family="Helvetica,sans-Serif" font-size="26.00" fill="#f8fafc">External signals</text>
<text xml:space="preserve" text-anchor="middle" x="685.77" y="-826.42" font-family="Helvetica,sans-Serif" font-size="26.00" fill="#f8fafc">CloudWatch, k6,</text>
<text xml:space="preserve" text-anchor="middle" x="685.77" y="-800.17" font-family="Helvetica,sans-Serif" font-size="26.00" fill="#f8fafc">Synthetic, IRM state</text>
</g>
<!-- faroCollector -->
<g id="node11" class="node">
<title>faroCollector</title>
<path fill="#581c87" stroke="#64748b" stroke-width="2" d="M1255.79,-311.77C1255.79,-311.77 943.61,-311.77 943.61,-311.77 937.61,-311.77 931.61,-305.77 931.61,-299.77 931.61,-299.77 931.61,-248.23 931.61,-248.23 931.61,-242.23 937.61,-236.23 943.61,-236.23 943.61,-236.23 1255.79,-236.23 1255.79,-236.23 1261.79,-236.23 1267.79,-242.23 1267.79,-248.23 1267.79,-248.23 1267.79,-299.77 1267.79,-299.77 1267.79,-305.77 1261.79,-311.77 1255.79,-311.77"/>
<text xml:space="preserve" text-anchor="middle" x="1099.7" y="-275.55" font-family="Helvetica,sans-Serif" font-size="26.00" fill="#f8fafc">Faro collector</text>
<text xml:space="preserve" text-anchor="middle" x="1099.7" y="-249.3" font-family="Helvetica,sans-Serif" font-size="26.00" fill="#f8fafc">frontend events and spans</text>
</g>
<!-- alloy -->
<g id="node12" class="node">
<title>alloy</title>
<path fill="#581c87" stroke="#64748b" stroke-width="2" d="M1238.16,-460.89C1238.16,-460.89 961.24,-460.89 961.24,-460.89 955.24,-460.89 949.24,-454.89 949.24,-448.89 949.24,-448.89 949.24,-371.11 949.24,-371.11 949.24,-365.11 955.24,-359.11 961.24,-359.11 961.24,-359.11 1238.16,-359.11 1238.16,-359.11 1244.16,-359.11 1250.16,-365.11 1250.16,-371.11 1250.16,-371.11 1250.16,-448.89 1250.16,-448.89 1250.16,-454.89 1244.16,-460.89 1238.16,-460.89"/>
<text xml:space="preserve" text-anchor="middle" x="1099.7" y="-424.68" font-family="Helvetica,sans-Serif" font-size="26.00" fill="#f8fafc">Grafana Cloud</text>
<text xml:space="preserve" text-anchor="middle" x="1099.7" y="-398.43" font-family="Helvetica,sans-Serif" font-size="26.00" fill="#f8fafc">CloudWatch integration</text>
<text xml:space="preserve" text-anchor="middle" x="1099.7" y="-372.18" font-family="Helvetica,sans-Serif" font-size="26.00" fill="#f8fafc">metrics + logs</text>
</g>
<!-- pyroscope -->
<g id="node13" class="node">
<title>pyroscope</title>
<path fill="#581c87" stroke="#64748b" stroke-width="2" d="M1217.54,-583.77C1217.54,-583.77 981.86,-583.77 981.86,-583.77 975.86,-583.77 969.86,-577.77 969.86,-571.77 969.86,-571.77 969.86,-520.23 969.86,-520.23 969.86,-514.23 975.86,-508.23 981.86,-508.23 981.86,-508.23 1217.54,-508.23 1217.54,-508.23 1223.54,-508.23 1229.54,-514.23 1229.54,-520.23 1229.54,-520.23 1229.54,-571.77 1229.54,-571.77 1229.54,-577.77 1223.54,-583.77 1217.54,-583.77"/>
<text xml:space="preserve" text-anchor="middle" x="1099.7" y="-547.55" font-family="Helvetica,sans-Serif" font-size="26.00" fill="#f8fafc">Pyroscope endpoint</text>
<text xml:space="preserve" text-anchor="middle" x="1099.7" y="-521.3" font-family="Helvetica,sans-Serif" font-size="26.00" fill="#f8fafc">profile ingestion</text>
</g>
<!-- cloudIntegrations -->
<g id="node14" class="node">
<title>cloudIntegrations</title>
<path fill="#581c87" stroke="#64748b" stroke-width="2" d="M1258.79,-732.89C1258.79,-732.89 940.61,-732.89 940.61,-732.89 934.61,-732.89 928.61,-726.89 928.61,-720.89 928.61,-720.89 928.61,-643.11 928.61,-643.11 928.61,-637.11 934.61,-631.11 940.61,-631.11 940.61,-631.11 1258.79,-631.11 1258.79,-631.11 1264.79,-631.11 1270.79,-637.11 1270.79,-643.11 1270.79,-643.11 1270.79,-720.89 1270.79,-720.89 1270.79,-726.89 1264.79,-732.89 1258.79,-732.89"/>
<text xml:space="preserve" text-anchor="middle" x="1099.7" y="-696.67" font-family="Helvetica,sans-Serif" font-size="26.00" fill="#f8fafc">Grafana Cloud integrations</text>
<text xml:space="preserve" text-anchor="middle" x="1099.7" y="-670.42" font-family="Helvetica,sans-Serif" font-size="26.00" fill="#f8fafc">CloudWatch scrape,</text>
<text xml:space="preserve" text-anchor="middle" x="1099.7" y="-644.17" font-family="Helvetica,sans-Serif" font-size="26.00" fill="#f8fafc">k6 and Synthetic samples</text>
</g>
<!-- grafana -->
<g id="node15" class="node">
<title>grafana</title>
<path fill="#4c1d95" stroke="#64748b" stroke-width="2" d="M1626.97,-465.27C1626.97,-465.27 1347.79,-465.27 1347.79,-465.27 1341.79,-465.27 1335.79,-459.27 1335.79,-453.27 1335.79,-453.27 1335.79,-392.73 1335.79,-392.73 1335.79,-386.73 1341.79,-380.73 1347.79,-380.73 1347.79,-380.73 1626.97,-380.73 1626.97,-380.73 1632.97,-380.73 1638.97,-386.73 1638.97,-392.73 1638.97,-392.73 1638.97,-453.27 1638.97,-453.27 1638.97,-459.27 1632.97,-465.27 1626.97,-465.27"/>
<text xml:space="preserve" text-anchor="middle" x="1487.38" y="-425.25" font-family="Helvetica,sans-Serif" font-size="30.00" fill="#f8fafc">Grafana Cloud stack</text>
<text xml:space="preserve" text-anchor="middle" x="1487.38" y="-394.5" font-family="Helvetica,sans-Serif" font-size="30.00" fill="#f8fafc">orenlion.grafana.net</text>
</g>
<!-- frontendObs -->
<g id="node16" class="node">
<title>frontendObs</title>
<path fill="#581c87" stroke="#64748b" stroke-width="2" d="M2038.28,-91.77C2038.28,-91.77 1750.85,-91.77 1750.85,-91.77 1744.85,-91.77 1738.85,-85.77 1738.85,-79.77 1738.85,-79.77 1738.85,-28.23 1738.85,-28.23 1738.85,-22.23 1744.85,-16.23 1750.85,-16.23 1750.85,-16.23 2038.28,-16.23 2038.28,-16.23 2044.28,-16.23 2050.28,-22.23 2050.28,-28.23 2050.28,-28.23 2050.28,-79.77 2050.28,-79.77 2050.28,-85.77 2044.28,-91.77 2038.28,-91.77"/>
<text xml:space="preserve" text-anchor="middle" x="1894.56" y="-55.55" font-family="Helvetica,sans-Serif" font-size="26.00" fill="#f8fafc">Frontend Observability</text>
<text xml:space="preserve" text-anchor="middle" x="1894.56" y="-29.3" font-family="Helvetica,sans-Serif" font-size="26.00" fill="#f8fafc">sessions, errors, actions</text>
</g>
<!-- tempo -->
<g id="node17" class="node">
<title>tempo</title>
<path fill="#581c87" stroke="#64748b" stroke-width="2" d="M2073.15,-214.77C2073.15,-214.77 1715.97,-214.77 1715.97,-214.77 1709.97,-214.77 1703.97,-208.77 1703.97,-202.77 1703.97,-202.77 1703.97,-151.23 1703.97,-151.23 1703.97,-145.23 1709.97,-139.23 1715.97,-139.23 1715.97,-139.23 2073.15,-139.23 2073.15,-139.23 2079.15,-139.23 2085.15,-145.23 2085.15,-151.23 2085.15,-151.23 2085.15,-202.77 2085.15,-202.77 2085.15,-208.77 2079.15,-214.77 2073.15,-214.77"/>
<text xml:space="preserve" text-anchor="middle" x="1894.56" y="-178.55" font-family="Helvetica,sans-Serif" font-size="26.00" fill="#f8fafc">Traces</text>
<text xml:space="preserve" text-anchor="middle" x="1894.56" y="-152.3" font-family="Helvetica,sans-Serif" font-size="26.00" fill="#f8fafc">frontend&#45;to&#45;backend waterfalls</text>
</g>
<!-- prometheus -->
<g id="node18" class="node">
<title>prometheus</title>
<path fill="#581c87" stroke="#64748b" stroke-width="2" d="M2016.9,-337.77C2016.9,-337.77 1772.22,-337.77 1772.22,-337.77 1766.22,-337.77 1760.22,-331.77 1760.22,-325.77 1760.22,-325.77 1760.22,-274.23 1760.22,-274.23 1760.22,-268.23 1766.22,-262.23 1772.22,-262.23 1772.22,-262.23 2016.9,-262.23 2016.9,-262.23 2022.9,-262.23 2028.9,-268.23 2028.9,-274.23 2028.9,-274.23 2028.9,-325.77 2028.9,-325.77 2028.9,-331.77 2022.9,-337.77 2016.9,-337.77"/>
<text xml:space="preserve" text-anchor="middle" x="1894.56" y="-301.55" font-family="Helvetica,sans-Serif" font-size="26.00" fill="#f8fafc">Metrics</text>
<text xml:space="preserve" text-anchor="middle" x="1894.56" y="-275.3" font-family="Helvetica,sans-Serif" font-size="26.00" fill="#f8fafc">RED + infrastructure</text>
</g>
<!-- loki -->
<g id="node19" class="node">
<title>loki</title>
<path fill="#581c87" stroke="#64748b" stroke-width="2" d="M2058.15,-460.77C2058.15,-460.77 1730.97,-460.77 1730.97,-460.77 1724.97,-460.77 1718.97,-454.77 1718.97,-448.77 1718.97,-448.77 1718.97,-397.23 1718.97,-397.23 1718.97,-391.23 1724.97,-385.23 1730.97,-385.23 1730.97,-385.23 2058.15,-385.23 2058.15,-385.23 2064.15,-385.23 2070.15,-391.23 2070.15,-397.23 2070.15,-397.23 2070.15,-448.77 2070.15,-448.77 2070.15,-454.77 2064.15,-460.77 2058.15,-460.77"/>
<text xml:space="preserve" text-anchor="middle" x="1894.56" y="-424.55" font-family="Helvetica,sans-Serif" font-size="26.00" fill="#f8fafc">Logs</text>
<text xml:space="preserve" text-anchor="middle" x="1894.56" y="-398.3" font-family="Helvetica,sans-Serif" font-size="26.00" fill="#f8fafc">namespace + service labels</text>
</g>
<!-- profiles -->
<g id="node20" class="node">
<title>profiles</title>
<path fill="#581c87" stroke="#64748b" stroke-width="2" d="M2009.03,-583.77C2009.03,-583.77 1780.1,-583.77 1780.1,-583.77 1774.1,-583.77 1768.1,-577.77 1768.1,-571.77 1768.1,-571.77 1768.1,-520.23 1768.1,-520.23 1768.1,-514.23 1774.1,-508.23 1780.1,-508.23 1780.1,-508.23 2009.03,-508.23 2009.03,-508.23 2015.03,-508.23 2021.03,-514.23 2021.03,-520.23 2021.03,-520.23 2021.03,-571.77 2021.03,-571.77 2021.03,-577.77 2015.03,-583.77 2009.03,-583.77"/>
<text xml:space="preserve" text-anchor="middle" x="1894.56" y="-547.55" font-family="Helvetica,sans-Serif" font-size="26.00" fill="#f8fafc">Profiles</text>
<text xml:space="preserve" text-anchor="middle" x="1894.56" y="-521.3" font-family="Helvetica,sans-Serif" font-size="26.00" fill="#f8fafc">Java CPU hotspots</text>
</g>
<!-- testResults -->
<g id="node21" class="node">
<title>testResults</title>
<path fill="#581c87" stroke="#64748b" stroke-width="2" d="M2026.65,-732.89C2026.65,-732.89 1762.47,-732.89 1762.47,-732.89 1756.47,-732.89 1750.47,-726.89 1750.47,-720.89 1750.47,-720.89 1750.47,-643.11 1750.47,-643.11 1750.47,-637.11 1756.47,-631.11 1762.47,-631.11 1762.47,-631.11 2026.65,-631.11 2026.65,-631.11 2032.65,-631.11 2038.65,-637.11 2038.65,-643.11 2038.65,-643.11 2038.65,-720.89 2038.65,-720.89 2038.65,-726.89 2032.65,-732.89 2026.65,-732.89"/>
<text xml:space="preserve" text-anchor="middle" x="1894.56" y="-696.67" font-family="Helvetica,sans-Serif" font-size="26.00" fill="#f8fafc">Synthetic + k6 results</text>
<text xml:space="preserve" text-anchor="middle" x="1894.56" y="-670.42" font-family="Helvetica,sans-Serif" font-size="26.00" fill="#f8fafc">uptime, DNS, TLS,</text>
<text xml:space="preserve" text-anchor="middle" x="1894.56" y="-644.17" font-family="Helvetica,sans-Serif" font-size="26.00" fill="#f8fafc">checks and thresholds</text>
</g>
<!-- incidents -->
<g id="node22" class="node">
<title>incidents</title>
<path fill="#581c87" stroke="#64748b" stroke-width="2" d="M1999.28,-881.89C1999.28,-881.89 1789.85,-881.89 1789.85,-881.89 1783.85,-881.89 1777.85,-875.89 1777.85,-869.89 1777.85,-869.89 1777.85,-792.11 1777.85,-792.11 1777.85,-786.11 1783.85,-780.11 1789.85,-780.11 1789.85,-780.11 1999.28,-780.11 1999.28,-780.11 2005.28,-780.11 2011.28,-786.11 2011.28,-792.11 2011.28,-792.11 2011.28,-869.89 2011.28,-869.89 2011.28,-875.89 2005.28,-881.89 1999.28,-881.89"/>
<text xml:space="preserve" text-anchor="middle" x="1894.56" y="-845.67" font-family="Helvetica,sans-Serif" font-size="26.00" fill="#f8fafc">IRM workflows</text>
<text xml:space="preserve" text-anchor="middle" x="1894.56" y="-819.42" font-family="Helvetica,sans-Serif" font-size="26.00" fill="#f8fafc">severity, labels,</text>
<text xml:space="preserve" text-anchor="middle" x="1894.56" y="-793.17" font-family="Helvetica,sans-Serif" font-size="26.00" fill="#f8fafc">on&#45;call ownership</text>
</g>
</g>
</svg>
