<?xml version="1.0" encoding="UTF-8" standalone="no"?>
<!DOCTYPE svg PUBLIC "-//W3C//DTD SVG 1.1//EN"
 "http://www.w3.org/Graphics/SVG/1.1/DTD/svg11.dtd">
<!-- Generated by graphviz version 15.0.0 (20260523.1842)
 -->
<!-- Title: observability_capabilities_flow Pages: 1 -->
<svg width="2586pt" height="818pt"
 viewBox="0.00 0.00 2586.00 818.00" xmlns="http://www.w3.org/2000/svg" xmlns:xlink="http://www.w3.org/1999/xlink">
<g id="graph0" class="graph" transform="scale(1 1) rotate(0) translate(18 800)">
<title>observability_capabilities_flow</title>
<polygon fill="#0b1220" stroke="none" points="-18,18 -18,-800 2568.46,-800 2568.46,18 -18,18"/>
<text xml:space="preserve" text-anchor="middle" x="1275.23" y="-759" font-family="Helvetica,sans-Serif" font-size="20.00" fill="#f8fafc">Observability Capabilities Flow</text>
<g id="clust1" class="cluster">
<title>cluster_services</title>
<path fill="#0b1220" stroke="#64748b" stroke-dasharray="5,2" d="M1031.34,-362C1031.34,-362 1429.84,-362 1429.84,-362 1435.84,-362 1441.84,-368 1441.84,-374 1441.84,-374 1441.84,-567 1441.84,-567 1441.84,-573 1435.84,-579 1429.84,-579 1429.84,-579 1031.34,-579 1031.34,-579 1025.34,-579 1019.34,-573 1019.34,-567 1019.34,-567 1019.34,-374 1019.34,-374 1019.34,-368 1025.34,-362 1031.34,-362"/>
<text xml:space="preserve" text-anchor="middle" x="1230.59" y="-556" font-family="Helvetica,sans-Serif" font-size="20.00" fill="#f8fafc">Lambda services (Java 21, arm64, SnapStart)</text>
</g>
<!-- browser -->
<g id="node1" class="node">
<title>browser</title>
<path fill="#1e3a8a" stroke="#64748b" d="M122.65,-697C122.65,-697 46.12,-697 46.12,-697 40.12,-697 34.12,-691 34.12,-685 34.12,-685 34.12,-673 34.12,-673 34.12,-667 40.12,-661 46.12,-661 46.12,-661 122.65,-661 122.65,-661 128.65,-661 134.65,-667 134.65,-673 134.65,-673 134.65,-685 134.65,-685 134.65,-691 128.65,-697 122.65,-697"/>
<text xml:space="preserve" text-anchor="middle" x="84.39" y="-680.55" font-family="Helvetica,sans-Serif" font-size="11.00" fill="#f8fafc">Shopper browser</text>
<text xml:space="preserve" text-anchor="middle" x="84.39" y="-668.55" font-family="Helvetica,sans-Serif" font-size="11.00" fill="#f8fafc">React storefront</text>
</g>
<!-- faro -->
<g id="node2" class="node">
<title>faro</title>
<path fill="#6b21a8" stroke="#64748b" d="M571.31,-753C571.31,-753 359.78,-753 359.78,-753 353.78,-753 347.78,-747 347.78,-741 347.78,-741 347.78,-729 347.78,-729 347.78,-723 353.78,-717 359.78,-717 359.78,-717 571.31,-717 571.31,-717 577.31,-717 583.31,-723 583.31,-729 583.31,-729 583.31,-741 583.31,-741 583.31,-747 577.31,-753 571.31,-753"/>
<text xml:space="preserve" text-anchor="middle" x="465.55" y="-736.55" font-family="Helvetica,sans-Serif" font-size="11.00" fill="#f8fafc">Grafana Faro SDK</text>
<text xml:space="preserve" text-anchor="middle" x="465.55" y="-724.55" font-family="Helvetica,sans-Serif" font-size="11.00" fill="#f8fafc">web vitals, errors, logs, sessions, user actions</text>
</g>
<!-- browser&#45;&gt;faro -->
<g id="edge1" class="edge">
<title>browser&#45;&gt;faro</title>
<path fill="none" stroke="#94a3b8" d="M134.96,-686.32C186.66,-693.96 269.76,-706.23 339.57,-716.54"/>
<polygon fill="#94a3b8" stroke="#94a3b8" points="338.8,-718.9 346.09,-717.5 339.52,-714.06 338.8,-718.9"/>
<text xml:space="preserve" text-anchor="middle" x="258.28" y="-714.86" font-family="Helvetica,sans-Serif" font-size="9.00" fill="#f8fafc">page views, errors, user actions</text>
</g>
<!-- tracing -->
<g id="node3" class="node">
<title>tracing</title>
<path fill="#6b21a8" stroke="#64748b" d="M527.06,-643C527.06,-643 404.03,-643 404.03,-643 398.03,-643 392.03,-637 392.03,-631 392.03,-631 392.03,-619 392.03,-619 392.03,-613 398.03,-607 404.03,-607 404.03,-607 527.06,-607 527.06,-607 533.06,-607 539.06,-613 539.06,-619 539.06,-619 539.06,-631 539.06,-631 539.06,-637 533.06,-643 527.06,-643"/>
<text xml:space="preserve" text-anchor="middle" x="465.55" y="-626.55" font-family="Helvetica,sans-Serif" font-size="11.00" fill="#f8fafc">Faro web tracing</text>
<text xml:space="preserve" text-anchor="middle" x="465.55" y="-614.55" font-family="Helvetica,sans-Serif" font-size="11.00" fill="#f8fafc">trace context on fetch/XHR</text>
</g>
<!-- browser&#45;&gt;tracing -->
<g id="edge2" class="edge">
<title>browser&#45;&gt;tracing</title>
<path fill="none" stroke="#94a3b8" d="M134.91,-668.8C153.34,-665.19 174.47,-661.28 193.78,-658.25 257.31,-648.28 329.62,-639.53 383.52,-633.51"/>
<polygon fill="#94a3b8" stroke="#94a3b8" points="383.48,-635.98 390.17,-632.78 382.94,-631.11 383.48,-635.98"/>
<text xml:space="preserve" text-anchor="middle" x="258.28" y="-659.45" font-family="Helvetica,sans-Serif" font-size="9.00" fill="#f8fafc">HTTP requests with traceparent</text>
</g>
<!-- grafana -->
<g id="node18" class="node">
<title>grafana</title>
<path fill="#4c1d95" stroke="#64748b" d="M2327.68,-487C2327.68,-487 2236.15,-487 2236.15,-487 2230.15,-487 2224.15,-481 2224.15,-475 2224.15,-475 2224.15,-463 2224.15,-463 2224.15,-457 2230.15,-451 2236.15,-451 2236.15,-451 2327.68,-451 2327.68,-451 2333.68,-451 2339.68,-457 2339.68,-463 2339.68,-463 2339.68,-475 2339.68,-475 2339.68,-481 2333.68,-487 2327.68,-487"/>
<text xml:space="preserve" text-anchor="middle" x="2281.91" y="-470.55" font-family="Helvetica,sans-Serif" font-size="11.00" fill="#f8fafc">Grafana Cloud stack</text>
<text xml:space="preserve" text-anchor="middle" x="2281.91" y="-458.55" font-family="Helvetica,sans-Serif" font-size="11.00" fill="#f8fafc">orenlion.grafana.net</text>
</g>
<!-- faro&#45;&gt;grafana -->
<g id="edge9" class="edge">
<title>faro&#45;&gt;grafana</title>
<path fill="none" stroke="#94a3b8" d="M583.6,-736.51C651.3,-737.26 738.12,-738 815.32,-738 815.32,-738 815.32,-738 1975.26,-738 2000.59,-738 2177.22,-649.76 2199.15,-628 2237.7,-589.74 2261.75,-529.51 2273.11,-495.21"/>
<polygon fill="#94a3b8" stroke="#94a3b8" points="2275.32,-496.34 2275.14,-488.92 2270.66,-494.83 2275.32,-496.34"/>
<text xml:space="preserve" text-anchor="middle" x="1503.21" y="-739.2" font-family="Helvetica,sans-Serif" font-size="9.00" fill="#f8fafc">collector endpoint</text>
</g>
<!-- cloudfront -->
<g id="node4" class="node">
<title>cloudfront</title>
<path fill="#1e3a8a" stroke="#64748b" d="M853.84,-607C853.84,-607 778.81,-607 778.81,-607 772.81,-607 766.81,-601 766.81,-595 766.81,-595 766.81,-583 766.81,-583 766.81,-577 772.81,-571 778.81,-571 778.81,-571 853.84,-571 853.84,-571 859.84,-571 865.84,-577 865.84,-583 865.84,-583 865.84,-595 865.84,-595 865.84,-601 859.84,-607 853.84,-607"/>
<text xml:space="preserve" text-anchor="middle" x="816.32" y="-590.55" font-family="Helvetica,sans-Serif" font-size="11.00" fill="#f8fafc">CloudFront</text>
<text xml:space="preserve" text-anchor="middle" x="816.32" y="-578.55" font-family="Helvetica,sans-Serif" font-size="11.00" fill="#f8fafc">storefront routing</text>
</g>
<!-- tracing&#45;&gt;cloudfront -->
<g id="edge3" class="edge">
<title>tracing&#45;&gt;cloudfront</title>
<path fill="none" stroke="#94a3b8" d="M539.24,-617.5C604.35,-610.78 698.54,-601.05 758.34,-594.88"/>
<polygon fill="#94a3b8" stroke="#94a3b8" points="758.33,-597.35 765.04,-594.19 757.83,-592.47 758.33,-597.35"/>
<text xml:space="preserve" text-anchor="middle" x="666.43" y="-611.42" font-family="Helvetica,sans-Serif" font-size="9.00" fill="#f8fafc">storefront</text>
</g>
<!-- apiGw -->
<g id="node5" class="node">
<title>apiGw</title>
<path fill="#3730a3" stroke="#64748b" d="M871.09,-415C871.09,-415 761.56,-415 761.56,-415 755.56,-415 749.56,-409 749.56,-403 749.56,-403 749.56,-391 749.56,-391 749.56,-385 755.56,-379 761.56,-379 761.56,-379 871.09,-379 871.09,-379 877.09,-379 883.09,-385 883.09,-391 883.09,-391 883.09,-403 883.09,-403 883.09,-409 877.09,-415 871.09,-415"/>
<text xml:space="preserve" text-anchor="middle" x="816.32" y="-398.55" font-family="Helvetica,sans-Serif" font-size="11.00" fill="#f8fafc">API Gateway HTTP API</text>
<text xml:space="preserve" text-anchor="middle" x="816.32" y="-386.55" font-family="Helvetica,sans-Serif" font-size="11.00" fill="#f8fafc">api.* /api/* routing</text>
</g>
<!-- tracing&#45;&gt;apiGw -->
<g id="edge4" class="edge">
<title>tracing&#45;&gt;apiGw</title>
<path fill="none" stroke="#94a3b8" d="M478.07,-606.72C499.68,-573.89 549.43,-504.82 608.31,-466.25 653.81,-436.45 672.99,-445.29 724.56,-428 734.03,-424.83 744.04,-421.44 753.82,-418.11"/>
<polygon fill="#94a3b8" stroke="#94a3b8" points="754.34,-420.52 760.17,-415.95 752.76,-415.89 754.34,-420.52"/>
<text xml:space="preserve" text-anchor="middle" x="666.43" y="-467.45" font-family="Helvetica,sans-Serif" font-size="9.00" fill="#f8fafc">/api/* with traceparent</text>
</g>
<!-- tracing&#45;&gt;grafana -->
<g id="edge10" class="edge">
<title>tracing&#45;&gt;grafana</title>
<path fill="none" stroke="#94a3b8" d="M539.31,-640.59C609.6,-654.27 719.25,-672 815.32,-672 815.32,-672 815.32,-672 1975.26,-672 2102.63,-672 2217.5,-548.16 2261.69,-493.93"/>
<polygon fill="#94a3b8" stroke="#94a3b8" points="2263.54,-495.54 2266.02,-488.55 2259.72,-492.47 2263.54,-495.54"/>
<text xml:space="preserve" text-anchor="middle" x="1503.21" y="-673.2" font-family="Helvetica,sans-Serif" font-size="9.00" fill="#f8fafc">frontend spans</text>
</g>
<!-- edgeLogs -->
<g id="node6" class="node">
<title>edgeLogs</title>
<path fill="#713f12" stroke="#64748b" d="M1262.73,-623C1262.73,-623 1197.45,-623 1197.45,-623 1191.45,-623 1185.45,-617 1185.45,-611 1185.45,-611 1185.45,-599 1185.45,-599 1185.45,-593 1191.45,-587 1197.45,-587 1197.45,-587 1262.73,-587 1262.73,-587 1268.73,-587 1274.73,-593 1274.73,-599 1274.73,-599 1274.73,-611 1274.73,-611 1274.73,-617 1268.73,-623 1262.73,-623"/>
<text xml:space="preserve" text-anchor="middle" x="1230.09" y="-606.55" font-family="Helvetica,sans-Serif" font-size="11.00" fill="#f8fafc">S3 access logs</text>
<text xml:space="preserve" text-anchor="middle" x="1230.09" y="-594.55" font-family="Helvetica,sans-Serif" font-size="11.00" fill="#f8fafc">CloudFront</text>
</g>
<!-- cloudfront&#45;&gt;edgeLogs -->
<g id="edge5" class="edge">
<title>cloudfront&#45;&gt;edgeLogs</title>
<path fill="none" stroke="#94a3b8" d="M866.18,-590.9C944.18,-593.93 1096.22,-599.84 1176.51,-602.96"/>
<polygon fill="#94a3b8" stroke="#94a3b8" points="1176.4,-605.4 1183.49,-603.23 1176.59,-600.51 1176.4,-605.4"/>
<text xml:space="preserve" text-anchor="middle" x="951.21" y="-596.77" font-family="Helvetica,sans-Serif" font-size="9.00" fill="#f8fafc">standard access logs</text>
</g>
<!-- inventory -->
<g id="node7" class="node">
<title>inventory</title>
<path fill="#14532d" stroke="#64748b" d="M1267.23,-542C1267.23,-542 1192.95,-542 1192.95,-542 1186.95,-542 1180.95,-536 1180.95,-530 1180.95,-530 1180.95,-518 1180.95,-518 1180.95,-512 1186.95,-506 1192.95,-506 1192.95,-506 1267.23,-506 1267.23,-506 1273.23,-506 1279.23,-512 1279.23,-518 1279.23,-518 1279.23,-530 1279.23,-530 1279.23,-536 1273.23,-542 1267.23,-542"/>
<text xml:space="preserve" text-anchor="middle" x="1230.09" y="-519.55" font-family="Helvetica,sans-Serif" font-size="11.00" fill="#f8fafc">inventory&#45;service</text>
</g>
<!-- apiGw&#45;&gt;inventory -->
<g id="edge6" class="edge">
<title>apiGw&#45;&gt;inventory</title>
<path fill="none" stroke="#94a3b8" d="M845.62,-415.33C863.17,-426.25 886.43,-439.89 908.09,-450 955.7,-472.23 968.47,-476.85 1019.34,-490 1070.4,-503.2 1129.85,-512.26 1172.39,-517.69"/>
<polygon fill="#94a3b8" stroke="#94a3b8" points="1171.91,-520.1 1179.17,-518.54 1172.52,-515.23 1171.91,-520.1"/>
</g>
<!-- cart -->
<g id="node8" class="node">
<title>cart</title>
<path fill="#14532d" stroke="#64748b" d="M1254.48,-474C1254.48,-474 1205.7,-474 1205.7,-474 1199.7,-474 1193.7,-468 1193.7,-462 1193.7,-462 1193.7,-450 1193.7,-450 1193.7,-444 1199.7,-438 1205.7,-438 1205.7,-438 1254.48,-438 1254.48,-438 1260.48,-438 1266.48,-444 1266.48,-450 1266.48,-450 1266.48,-462 1266.48,-462 1266.48,-468 1260.48,-474 1254.48,-474"/>
<text xml:space="preserve" text-anchor="middle" x="1230.09" y="-451.55" font-family="Helvetica,sans-Serif" font-size="11.00" fill="#f8fafc">cart&#45;service</text>
</g>
<!-- apiGw&#45;&gt;cart -->
<g id="edge7" class="edge">
<title>apiGw&#45;&gt;cart</title>
<path fill="none" stroke="#94a3b8" d="M883.55,-414.05C891.78,-415.87 900.11,-417.58 908.09,-419 1006.2,-436.48 1122.72,-447.51 1184.86,-452.63"/>
<polygon fill="#94a3b8" stroke="#94a3b8" points="1184.57,-455.07 1191.75,-453.2 1184.97,-450.19 1184.57,-455.07"/>
</g>
<!-- account -->
<g id="node9" class="node">
<title>account</title>
<path fill="#14532d" stroke="#64748b" d="M1264.23,-406C1264.23,-406 1195.95,-406 1195.95,-406 1189.95,-406 1183.95,-400 1183.95,-394 1183.95,-394 1183.95,-382 1183.95,-382 1183.95,-376 1189.95,-370 1195.95,-370 1195.95,-370 1264.23,-370 1264.23,-370 1270.23,-370 1276.23,-376 1276.23,-382 1276.23,-382 1276.23,-394 1276.23,-394 1276.23,-400 1270.23,-406 1264.23,-406"/>
<text xml:space="preserve" text-anchor="middle" x="1230.09" y="-383.55" font-family="Helvetica,sans-Serif" font-size="11.00" fill="#f8fafc">account&#45;service</text>
</g>
<!-- apiGw&#45;&gt;account -->
<g id="edge8" class="edge">
<title>apiGw&#45;&gt;account</title>
<path fill="none" stroke="#94a3b8" d="M883.48,-395.55C964.48,-393.78 1100.09,-390.82 1175.1,-389.18"/>
<polygon fill="#94a3b8" stroke="#94a3b8" points="1175.04,-391.63 1181.98,-389.03 1174.93,-386.73 1175.04,-391.63"/>
</g>
<!-- cwLogs -->
<g id="node11" class="node">
<title>cwLogs</title>
<path fill="#164e63" stroke="#64748b" d="M1685.37,-426C1685.37,-426 1576.59,-426 1576.59,-426 1570.59,-426 1564.59,-420 1564.59,-414 1564.59,-414 1564.59,-402 1564.59,-402 1564.59,-396 1570.59,-390 1576.59,-390 1576.59,-390 1685.37,-390 1685.37,-390 1691.37,-390 1697.37,-396 1697.37,-402 1697.37,-402 1697.37,-414 1697.37,-414 1697.37,-420 1691.37,-426 1685.37,-426"/>
<text xml:space="preserve" text-anchor="middle" x="1630.98" y="-409.55" font-family="Helvetica,sans-Serif" font-size="11.00" fill="#f8fafc">CloudWatch Logs</text>
<text xml:space="preserve" text-anchor="middle" x="1630.98" y="-397.55" font-family="Helvetica,sans-Serif" font-size="11.00" fill="#f8fafc">API Gateway + Lambda</text>
</g>
<!-- apiGw&#45;&gt;cwLogs -->
<g id="edge20" class="edge">
<title>apiGw&#45;&gt;cwLogs</title>
<path fill="none" stroke="#94a3b8" d="M872.31,-378.57C912.51,-366.1 968.65,-350.76 1019.34,-344.25 1205.59,-320.33 1256.56,-313.71 1441.84,-344.25 1490.45,-352.26 1543.38,-371.18 1580.69,-386.34"/>
<polygon fill="#94a3b8" stroke="#94a3b8" points="1579.6,-388.54 1587,-388.94 1581.46,-384.01 1579.6,-388.54"/>
<text xml:space="preserve" text-anchor="middle" x="1230.09" y="-345.45" font-family="Helvetica,sans-Serif" font-size="9.00" fill="#f8fafc">access logs</text>
</g>
<!-- cwMetrics -->
<g id="node12" class="node">
<title>cwMetrics</title>
<path fill="#164e63" stroke="#64748b" d="M1685,-279C1685,-279 1576.96,-279 1576.96,-279 1570.96,-279 1564.96,-273 1564.96,-267 1564.96,-267 1564.96,-255 1564.96,-255 1564.96,-249 1570.96,-243 1576.96,-243 1576.96,-243 1685,-243 1685,-243 1691,-243 1697,-249 1697,-255 1697,-255 1697,-267 1697,-267 1697,-273 1691,-279 1685,-279"/>
<text xml:space="preserve" text-anchor="middle" x="1630.98" y="-262.55" font-family="Helvetica,sans-Serif" font-size="11.00" fill="#f8fafc">CloudWatch Metrics</text>
<text xml:space="preserve" text-anchor="middle" x="1630.98" y="-250.55" font-family="Helvetica,sans-Serif" font-size="11.00" fill="#f8fafc">Lambda + API Gateway</text>
</g>
<!-- apiGw&#45;&gt;cwMetrics -->
<g id="edge21" class="edge">
<title>apiGw&#45;&gt;cwMetrics</title>
<path fill="none" stroke="#94a3b8" d="M843.36,-378.51C860.99,-366.6 885.18,-351.45 908.09,-341 955.22,-319.51 969.12,-318.95 1019.34,-306.25 1215.79,-256.58 1265.14,-238.48 1466.84,-219 1499.02,-215.89 1508.02,-212.02 1539.59,-219 1557.6,-222.98 1576.27,-230.92 1591.94,-238.84"/>
<polygon fill="#94a3b8" stroke="#94a3b8" points="1590.69,-240.95 1598.04,-242.01 1592.96,-236.61 1590.69,-240.95"/>
<text xml:space="preserve" text-anchor="middle" x="1230.09" y="-307.45" font-family="Helvetica,sans-Serif" font-size="9.00" fill="#f8fafc">request metrics</text>
</g>
<!-- edgeLogs&#45;&gt;grafana -->
<g id="edge25" class="edge">
<title>edgeLogs&#45;&gt;grafana</title>
<path fill="none" stroke="#94a3b8" d="M1275.07,-601.91C1334.95,-597.59 1445.47,-589.23 1539.59,-580 1833.26,-551.19 1913.96,-579.74 2199.15,-504 2211.64,-500.68 2224.7,-495.8 2236.62,-490.72"/>
<polygon fill="#94a3b8" stroke="#94a3b8" points="2237.46,-493.03 2242.89,-487.98 2235.49,-488.54 2237.46,-493.03"/>
<text xml:space="preserve" text-anchor="middle" x="1791.74" y="-567.94" font-family="Helvetica,sans-Serif" font-size="9.00" fill="#f8fafc">RCA source for edge status codes</text>
</g>
<!-- otel -->
<g id="node10" class="node">
<title>otel</title>
<path fill="#334155" stroke="#64748b" d="M1685.37,-541.76C1685.37,-541.76 1576.59,-541.76 1576.59,-541.76 1570.59,-541.76 1564.59,-535.76 1564.59,-529.76 1564.59,-529.76 1564.59,-506.24 1564.59,-506.24 1564.59,-500.24 1570.59,-494.24 1576.59,-494.24 1576.59,-494.24 1685.37,-494.24 1685.37,-494.24 1691.37,-494.24 1697.37,-500.24 1697.37,-506.24 1697.37,-506.24 1697.37,-529.76 1697.37,-529.76 1697.37,-535.76 1691.37,-541.76 1685.37,-541.76"/>
<text xml:space="preserve" text-anchor="middle" x="1630.98" y="-525.55" font-family="Helvetica,sans-Serif" font-size="11.00" fill="#f8fafc">Lambda OTLP traces</text>
<text xml:space="preserve" text-anchor="middle" x="1630.98" y="-513.55" font-family="Helvetica,sans-Serif" font-size="11.00" fill="#f8fafc">(pending Grafana Cloud</text>
<text xml:space="preserve" text-anchor="middle" x="1630.98" y="-501.55" font-family="Helvetica,sans-Serif" font-size="11.00" fill="#f8fafc">OTLP re&#45;wiring)</text>
</g>
<!-- inventory&#45;&gt;otel -->
<g id="edge11" class="edge">
<title>inventory&#45;&gt;otel</title>
<path fill="none" stroke="#94a3b8" d="M1279.54,-536.41C1340.6,-550.22 1448.58,-568.55 1539.59,-552 1548.78,-550.33 1558.24,-547.78 1567.43,-544.81"/>
<polygon fill="#94a3b8" stroke="#94a3b8" points="1568.15,-547.15 1573.99,-542.58 1566.58,-542.51 1568.15,-547.15"/>
</g>
<!-- inventory&#45;&gt;cwLogs -->
<g id="edge14" class="edge">
<title>inventory&#45;&gt;cwLogs</title>
<path fill="none" stroke="#94a3b8" d="M1279.56,-519.67C1322.78,-514.99 1387.43,-505.97 1441.84,-490 1493.76,-474.76 1550.3,-448.74 1587.69,-430.1"/>
<polygon fill="#94a3b8" stroke="#94a3b8" points="1588.4,-432.48 1593.56,-427.15 1586.2,-428.1 1588.4,-432.48"/>
</g>
<!-- inventory&#45;&gt;cwMetrics -->
<g id="edge17" class="edge">
<title>inventory&#45;&gt;cwMetrics</title>
<path fill="none" stroke="#94a3b8" d="M1279.39,-527.56C1325.17,-528.49 1393.9,-523.3 1441.84,-490 1460.31,-477.17 1453.78,-464.31 1466.84,-446 1510.86,-384.3 1571.99,-319.49 1605.53,-285.36"/>
<polygon fill="#94a3b8" stroke="#94a3b8" points="1607.22,-287.13 1610.4,-280.43 1603.74,-283.69 1607.22,-287.13"/>
</g>
<!-- cart&#45;&gt;otel -->
<g id="edge12" class="edge">
<title>cart&#45;&gt;otel</title>
<path fill="none" stroke="#94a3b8" d="M1266.89,-455.61C1310.38,-456.49 1384.99,-462.41 1441.84,-490 1455.42,-496.59 1452.86,-507.3 1466.84,-513 1494.54,-524.3 1527.14,-527.13 1555.89,-526.55"/>
<polygon fill="#94a3b8" stroke="#94a3b8" points="1555.85,-529 1562.77,-526.33 1555.69,-524.11 1555.85,-529"/>
</g>
<!-- cart&#45;&gt;cwLogs -->
<g id="edge15" class="edge">
<title>cart&#45;&gt;cwLogs</title>
<path fill="none" stroke="#94a3b8" d="M1266.84,-451.7C1331.7,-443.89 1470.01,-427.25 1555.98,-416.9"/>
<polygon fill="#94a3b8" stroke="#94a3b8" points="1556.23,-419.34 1562.88,-416.07 1555.64,-414.48 1556.23,-419.34"/>
</g>
<!-- cart&#45;&gt;cwMetrics -->
<g id="edge18" class="edge">
<title>cart&#45;&gt;cwMetrics</title>
<path fill="none" stroke="#94a3b8" d="M1266.74,-461.56C1313.63,-466.66 1395.46,-467.61 1441.84,-422 1486.91,-377.68 1421.07,-325.59 1466.84,-282 1490.28,-259.67 1524.96,-253 1556.32,-252.5"/>
<polygon fill="#94a3b8" stroke="#94a3b8" points="1556.12,-254.95 1563.12,-252.5 1556.12,-250.05 1556.12,-254.95"/>
</g>
<!-- account&#45;&gt;otel -->
<g id="edge13" class="edge">
<title>account&#45;&gt;otel</title>
<path fill="none" stroke="#94a3b8" d="M1276.45,-391.21C1319.8,-395.23 1386.53,-403.92 1441.84,-422 1492.98,-438.71 1547.3,-467.8 1584.35,-489.59"/>
<polygon fill="#94a3b8" stroke="#94a3b8" points="1582.96,-491.61 1590.23,-493.07 1585.46,-487.4 1582.96,-491.61"/>
</g>
<!-- account&#45;&gt;cwLogs -->
<g id="edge16" class="edge">
<title>account&#45;&gt;cwLogs</title>
<path fill="none" stroke="#94a3b8" d="M1276.61,-388.72C1336.84,-389.88 1446.28,-392.7 1539.59,-399 1544.98,-399.36 1550.55,-399.79 1556.15,-400.26"/>
<polygon fill="#94a3b8" stroke="#94a3b8" points="1555.67,-402.68 1562.85,-400.84 1556.09,-397.8 1555.67,-402.68"/>
</g>
<!-- account&#45;&gt;cwMetrics -->
<g id="edge19" class="edge">
<title>account&#45;&gt;cwMetrics</title>
<path fill="none" stroke="#94a3b8" d="M1276.51,-392.05C1324.07,-393.65 1397.82,-388.23 1441.84,-346 1475.83,-313.39 1429.81,-272.12 1466.84,-243 1499.53,-217.29 1547.98,-226.75 1583.59,-239.63"/>
<polygon fill="#94a3b8" stroke="#94a3b8" points="1582.6,-241.88 1590.02,-242.06 1584.34,-237.3 1582.6,-241.88"/>
</g>
<!-- otel&#45;&gt;grafana -->
<g id="edge24" class="edge">
<title>otel&#45;&gt;grafana</title>
<path fill="none" stroke="#94a3b8" stroke-dasharray="5,2" d="M1697.77,-513.03C1822.35,-503.63 2091.29,-483.32 2215.54,-473.94"/>
<polygon fill="#94a3b8" stroke="#94a3b8" points="2215.57,-476.39 2222.36,-473.42 2215.2,-471.51 2215.57,-476.39"/>
<text xml:space="preserve" text-anchor="middle" x="1974.26" y="-499.57" font-family="Helvetica,sans-Serif" font-size="9.00" fill="#f8fafc">OTLP export (when enabled)</text>
</g>
<!-- cwIntegration -->
<g id="node13" class="node">
<title>cwIntegration</title>
<path fill="#6b21a8" stroke="#64748b" d="M2027.15,-426C2027.15,-426 1921.37,-426 1921.37,-426 1915.37,-426 1909.37,-420 1909.37,-414 1909.37,-414 1909.37,-402 1909.37,-402 1909.37,-396 1915.37,-390 1921.37,-390 1921.37,-390 2027.15,-390 2027.15,-390 2033.15,-390 2039.15,-396 2039.15,-402 2039.15,-402 2039.15,-414 2039.15,-414 2039.15,-420 2033.15,-426 2027.15,-426"/>
<text xml:space="preserve" text-anchor="middle" x="1974.26" y="-409.55" font-family="Helvetica,sans-Serif" font-size="11.00" fill="#f8fafc">Grafana Cloud</text>
<text xml:space="preserve" text-anchor="middle" x="1974.26" y="-397.55" font-family="Helvetica,sans-Serif" font-size="11.00" fill="#f8fafc">CloudWatch integration</text>
</g>
<!-- cwLogs&#45;&gt;cwIntegration -->
<g id="edge22" class="edge">
<title>cwLogs&#45;&gt;cwIntegration</title>
<path fill="none" stroke="#94a3b8" d="M1697.78,-408C1755.96,-408 1840.69,-408 1900.79,-408"/>
<polygon fill="#94a3b8" stroke="#94a3b8" points="1900.59,-410.45 1907.59,-408 1900.59,-405.55 1900.59,-410.45"/>
<text xml:space="preserve" text-anchor="middle" x="1791.74" y="-409.2" font-family="Helvetica,sans-Serif" font-size="9.00" fill="#f8fafc">log ingestion</text>
</g>
<!-- cwMetrics&#45;&gt;cwIntegration -->
<g id="edge23" class="edge">
<title>cwMetrics&#45;&gt;cwIntegration</title>
<path fill="none" stroke="#94a3b8" d="M1674.86,-279.47C1738.04,-306.68 1855.89,-357.44 1923.03,-386.36"/>
<polygon fill="#94a3b8" stroke="#94a3b8" points="1921.77,-388.49 1929.17,-389.01 1923.71,-383.99 1921.77,-388.49"/>
<text xml:space="preserve" text-anchor="middle" x="1791.74" y="-357.46" font-family="Helvetica,sans-Serif" font-size="9.00" fill="#f8fafc">metric scrape</text>
</g>
<!-- cwIntegration&#45;&gt;grafana -->
<g id="edge26" class="edge">
<title>cwIntegration&#45;&gt;grafana</title>
<path fill="none" stroke="#94a3b8" d="M2039.34,-420.79C2091.1,-431.12 2163.64,-445.6 2215.7,-455.99"/>
<polygon fill="#94a3b8" stroke="#94a3b8" points="2215.05,-458.35 2222.39,-457.32 2216.01,-453.55 2215.05,-458.35"/>
<text xml:space="preserve" text-anchor="middle" x="2143.28" y="-453.84" font-family="Helvetica,sans-Serif" font-size="9.00" fill="#f8fafc">metrics + logs into Grafana</text>
</g>
<!-- synth -->
<g id="node14" class="node">
<title>synth</title>
<path fill="#6b21a8" stroke="#64748b" d="M531.94,-360.76C531.94,-360.76 399.16,-360.76 399.16,-360.76 393.16,-360.76 387.16,-354.76 387.16,-348.76 387.16,-348.76 387.16,-325.24 387.16,-325.24 387.16,-319.24 393.16,-313.24 399.16,-313.24 399.16,-313.24 531.94,-313.24 531.94,-313.24 537.94,-313.24 543.94,-319.24 543.94,-325.24 543.94,-325.24 543.94,-348.76 543.94,-348.76 543.94,-354.76 537.94,-360.76 531.94,-360.76"/>
<text xml:space="preserve" text-anchor="middle" x="465.55" y="-344.55" font-family="Helvetica,sans-Serif" font-size="11.00" fill="#f8fafc">Grafana Synthetic Monitoring</text>
<text xml:space="preserve" text-anchor="middle" x="465.55" y="-332.55" font-family="Helvetica,sans-Serif" font-size="11.00" fill="#f8fafc">HTTP, DNS, Ping, TCP,</text>
<text xml:space="preserve" text-anchor="middle" x="465.55" y="-320.55" font-family="Helvetica,sans-Serif" font-size="11.00" fill="#f8fafc">scripted k6, k6 browser</text>
</g>
<!-- synth&#45;&gt;cloudfront -->
<g id="edge27" class="edge">
<title>synth&#45;&gt;cloudfront</title>
<path fill="none" stroke="#94a3b8" d="M544.38,-351.5C558.94,-357.34 572.84,-365.52 583.31,-377 615.05,-411.8 576.09,-445.64 608.31,-480 645.33,-519.48 676.78,-490.83 724.56,-516.25 749.01,-529.26 773.32,-549.21 790.61,-564.93"/>
<polygon fill="#94a3b8" stroke="#94a3b8" points="788.74,-566.54 795.54,-569.49 792.06,-562.94 788.74,-566.54"/>
<text xml:space="preserve" text-anchor="middle" x="666.43" y="-517.45" font-family="Helvetica,sans-Serif" font-size="9.00" fill="#f8fafc">checks storefront health</text>
</g>
<!-- synth&#45;&gt;apiGw -->
<g id="edge28" class="edge">
<title>synth&#45;&gt;apiGw</title>
<path fill="none" stroke="#94a3b8" d="M544.38,-350.39C603.03,-360.48 682.96,-374.23 740.79,-384.18"/>
<polygon fill="#94a3b8" stroke="#94a3b8" points="740.35,-386.59 747.67,-385.36 741.18,-381.76 740.35,-386.59"/>
<text xml:space="preserve" text-anchor="middle" x="666.43" y="-382.11" font-family="Helvetica,sans-Serif" font-size="9.00" fill="#f8fafc">checks API health</text>
</g>
<!-- synth&#45;&gt;grafana -->
<g id="edge29" class="edge">
<title>synth&#45;&gt;grafana</title>
<path fill="none" stroke="#94a3b8" d="M490.81,-313.06C544.44,-262.83 679.11,-151 815.32,-151 815.32,-151 815.32,-151 1975.26,-151 2136.7,-151 2239.53,-366.66 2270.8,-442.78"/>
<polygon fill="#94a3b8" stroke="#94a3b8" points="2268.47,-443.55 2273.36,-449.13 2273.01,-441.72 2268.47,-443.55"/>
<text xml:space="preserve" text-anchor="middle" x="1503.21" y="-152.2" font-family="Helvetica,sans-Serif" font-size="9.00" fill="#f8fafc">check samples</text>
</g>
<!-- k6 -->
<g id="node15" class="node">
<title>k6</title>
<path fill="#6b21a8" stroke="#64748b" d="M156.78,-227.76C156.78,-227.76 12,-227.76 12,-227.76 6,-227.76 0,-221.76 0,-215.76 0,-215.76 0,-180.24 0,-180.24 0,-174.24 6,-168.24 12,-168.24 12,-168.24 156.78,-168.24 156.78,-168.24 162.78,-168.24 168.78,-174.24 168.78,-180.24 168.78,-180.24 168.78,-215.76 168.78,-215.76 168.78,-221.76 162.78,-227.76 156.78,-227.76"/>
<text xml:space="preserve" text-anchor="middle" x="84.39" y="-211.55" font-family="Helvetica,sans-Serif" font-size="11.00" fill="#f8fafc">Grafana Cloud k6</text>
<text xml:space="preserve" text-anchor="middle" x="84.39" y="-199.55" font-family="Helvetica,sans-Serif" font-size="11.00" fill="#f8fafc">regional load, spike benchmark,</text>
<text xml:space="preserve" text-anchor="middle" x="84.39" y="-187.55" font-family="Helvetica,sans-Serif" font-size="11.00" fill="#f8fafc">5 rps API baseline,</text>
<text xml:space="preserve" text-anchor="middle" x="84.39" y="-175.55" font-family="Helvetica,sans-Serif" font-size="11.00" fill="#f8fafc">browser actions</text>
</g>
<!-- k6Tracing -->
<g id="node16" class="node">
<title>k6Tracing</title>
<path fill="#6b21a8" stroke="#64748b" d="M523.69,-429C523.69,-429 407.41,-429 407.41,-429 401.41,-429 395.41,-423 395.41,-417 395.41,-417 395.41,-405 395.41,-405 395.41,-399 401.41,-393 407.41,-393 407.41,-393 523.69,-393 523.69,-393 529.69,-393 535.69,-399 535.69,-405 535.69,-405 535.69,-417 535.69,-417 535.69,-423 529.69,-429 523.69,-429"/>
<text xml:space="preserve" text-anchor="middle" x="465.55" y="-412.55" font-family="Helvetica,sans-Serif" font-size="11.00" fill="#f8fafc">k6 Tempo instrumentation</text>
<text xml:space="preserve" text-anchor="middle" x="465.55" y="-400.55" font-family="Helvetica,sans-Serif" font-size="11.00" fill="#f8fafc">W3C trace context</text>
</g>
<!-- k6&#45;&gt;k6Tracing -->
<g id="edge30" class="edge">
<title>k6&#45;&gt;k6Tracing</title>
<path fill="none" stroke="#94a3b8" d="M121.36,-228.05C169.94,-267.29 260.51,-335.81 347.78,-377 360.15,-382.84 373.74,-387.9 387.13,-392.2"/>
<polygon fill="#94a3b8" stroke="#94a3b8" points="386.13,-394.46 393.54,-394.2 387.59,-389.78 386.13,-394.46"/>
</g>
<!-- k6&#45;&gt;grafana -->
<g id="edge33" class="edge">
<title>k6&#45;&gt;grafana</title>
<path fill="none" stroke="#94a3b8" d="M146.45,-167.87C220.03,-134.39 348.29,-85 464.55,-85 464.55,-85 464.55,-85 1975.26,-85 2083.7,-85 2127.66,-100.45 2199.15,-182 2266.42,-258.73 2278.58,-387.28 2280.61,-442.49"/>
<polygon fill="#94a3b8" stroke="#94a3b8" points="2278.15,-442.27 2280.81,-449.19 2283.05,-442.12 2278.15,-442.27"/>
<text xml:space="preserve" text-anchor="middle" x="1230.09" y="-86.2" font-family="Helvetica,sans-Serif" font-size="9.00" fill="#f8fafc">test metrics + trace correlation</text>
</g>
<!-- k6Tracing&#45;&gt;cloudfront -->
<g id="edge32" class="edge">
<title>k6Tracing&#45;&gt;cloudfront</title>
<path fill="none" stroke="#94a3b8" d="M483.57,-429.31C508.55,-455.14 557.68,-502.12 608.31,-529 655.81,-554.22 715.23,-570.04 758.22,-579.06"/>
<polygon fill="#94a3b8" stroke="#94a3b8" points="757.48,-581.41 764.83,-580.41 758.46,-576.61 757.48,-581.41"/>
<text xml:space="preserve" text-anchor="middle" x="666.43" y="-572.1" font-family="Helvetica,sans-Serif" font-size="9.00" fill="#f8fafc">browser + storefront checks</text>
</g>
<!-- k6Tracing&#45;&gt;apiGw -->
<g id="edge31" class="edge">
<title>k6Tracing&#45;&gt;apiGw</title>
<path fill="none" stroke="#94a3b8" d="M536.12,-407.68C559.1,-406.61 584.8,-405.46 608.31,-404.5 652.26,-402.7 701.46,-400.9 740.87,-399.52"/>
<polygon fill="#94a3b8" stroke="#94a3b8" points="740.7,-401.98 747.61,-399.29 740.53,-397.08 740.7,-401.98"/>
<text xml:space="preserve" text-anchor="middle" x="666.43" y="-415.45" font-family="Helvetica,sans-Serif" font-size="9.00" fill="#f8fafc">load checks with traceparent</text>
<text xml:space="preserve" text-anchor="middle" x="666.43" y="-405.7" font-family="Helvetica,sans-Serif" font-size="9.00" fill="#f8fafc">5 rps API baseline</text>
</g>
<!-- irm -->
<g id="node17" class="node">
<title>irm</title>
<path fill="#6b21a8" stroke="#64748b" d="M2050.4,-36C2050.4,-36 1898.12,-36 1898.12,-36 1892.12,-36 1886.12,-30 1886.12,-24 1886.12,-24 1886.12,-12 1886.12,-12 1886.12,-6 1892.12,0 1898.12,0 1898.12,0 2050.4,0 2050.4,0 2056.4,0 2062.4,-6 2062.4,-12 2062.4,-12 2062.4,-24 2062.4,-24 2062.4,-30 2056.4,-36 2050.4,-36"/>
<text xml:space="preserve" text-anchor="middle" x="1974.26" y="-19.55" font-family="Helvetica,sans-Serif" font-size="11.00" fill="#f8fafc">Grafana IRM</text>
<text xml:space="preserve" text-anchor="middle" x="1974.26" y="-7.55" font-family="Helvetica,sans-Serif" font-size="11.00" fill="#f8fafc">incidents, labels, on&#45;call schedule</text>
</g>
<!-- irm&#45;&gt;grafana -->
<g id="edge34" class="edge">
<title>irm&#45;&gt;grafana</title>
<path fill="none" stroke="#94a3b8" d="M2062.65,-8.11C2108.94,-7.86 2163.44,-16.28 2199.15,-50.25 2256.36,-104.69 2274.99,-358.96 2279.62,-442.4"/>
<polygon fill="#94a3b8" stroke="#94a3b8" points="2277.17,-442.45 2279.99,-449.31 2282.06,-442.19 2277.17,-442.45"/>
<text xml:space="preserve" text-anchor="middle" x="2143.28" y="-51.45" font-family="Helvetica,sans-Serif" font-size="9.00" fill="#f8fafc">incident and schedule state</text>
</g>
<!-- frontendObs -->
<g id="node19" class="node">
<title>frontendObs</title>
<path fill="#581c87" stroke="#64748b" d="M2533.21,-691C2533.21,-691 2407.93,-691 2407.93,-691 2401.93,-691 2395.93,-685 2395.93,-679 2395.93,-679 2395.93,-667 2395.93,-667 2395.93,-661 2401.93,-655 2407.93,-655 2407.93,-655 2533.21,-655 2533.21,-655 2539.21,-655 2545.21,-661 2545.21,-667 2545.21,-667 2545.21,-679 2545.21,-679 2545.21,-685 2539.21,-691 2533.21,-691"/>
<text xml:space="preserve" text-anchor="middle" x="2470.57" y="-674.55" font-family="Helvetica,sans-Serif" font-size="11.00" fill="#f8fafc">Frontend Observability</text>
<text xml:space="preserve" text-anchor="middle" x="2470.57" y="-662.55" font-family="Helvetica,sans-Serif" font-size="11.00" fill="#f8fafc">Faro events and exceptions</text>
</g>
<!-- grafana&#45;&gt;frontendObs -->
<g id="edge35" class="edge">
<title>grafana&#45;&gt;frontendObs</title>
<path fill="none" stroke="#94a3b8" d="M2290.18,-487.4C2304.54,-521.6 2339.64,-595.45 2390.68,-639 2395.82,-643.38 2401.61,-647.28 2407.65,-650.72"/>
<polygon fill="#94a3b8" stroke="#94a3b8" points="2406.18,-652.72 2413.51,-653.85 2408.49,-648.39 2406.18,-652.72"/>
</g>
<!-- tempo -->
<g id="node20" class="node">
<title>tempo</title>
<path fill="#581c87" stroke="#64748b" d="M2532.09,-623C2532.09,-623 2409.06,-623 2409.06,-623 2403.06,-623 2397.06,-617 2397.06,-611 2397.06,-611 2397.06,-599 2397.06,-599 2397.06,-593 2403.06,-587 2409.06,-587 2409.06,-587 2532.09,-587 2532.09,-587 2538.09,-587 2544.09,-593 2544.09,-599 2544.09,-599 2544.09,-611 2544.09,-611 2544.09,-617 2538.09,-623 2532.09,-623"/>
<text xml:space="preserve" text-anchor="middle" x="2470.57" y="-606.55" font-family="Helvetica,sans-Serif" font-size="11.00" fill="#f8fafc">Traces</text>
<text xml:space="preserve" text-anchor="middle" x="2470.57" y="-594.55" font-family="Helvetica,sans-Serif" font-size="11.00" fill="#f8fafc">frontend spans + waterfalls</text>
</g>
<!-- grafana&#45;&gt;tempo -->
<g id="edge36" class="edge">
<title>grafana&#45;&gt;tempo</title>
<path fill="none" stroke="#94a3b8" d="M2298.5,-487.25C2318.17,-509.4 2353.89,-546.77 2390.68,-571 2397.31,-575.37 2404.6,-579.39 2411.98,-583.02"/>
<polygon fill="#94a3b8" stroke="#94a3b8" points="2410.63,-585.09 2418.01,-585.87 2412.73,-580.66 2410.63,-585.09"/>
</g>
<!-- prometheus -->
<g id="node21" class="node">
<title>prometheus</title>
<path fill="#581c87" stroke="#64748b" d="M2535.09,-555C2535.09,-555 2406.06,-555 2406.06,-555 2400.06,-555 2394.06,-549 2394.06,-543 2394.06,-543 2394.06,-531 2394.06,-531 2394.06,-525 2400.06,-519 2406.06,-519 2406.06,-519 2535.09,-519 2535.09,-519 2541.09,-519 2547.09,-525 2547.09,-531 2547.09,-531 2547.09,-543 2547.09,-543 2547.09,-549 2541.09,-555 2535.09,-555"/>
<text xml:space="preserve" text-anchor="middle" x="2470.57" y="-538.55" font-family="Helvetica,sans-Serif" font-size="11.00" fill="#f8fafc">Metrics</text>
<text xml:space="preserve" text-anchor="middle" x="2470.57" y="-526.55" font-family="Helvetica,sans-Serif" font-size="11.00" fill="#f8fafc">RED + infrastructure signals</text>
</g>
<!-- grafana&#45;&gt;prometheus -->
<g id="edge37" class="edge">
<title>grafana&#45;&gt;prometheus</title>
<path fill="none" stroke="#94a3b8" d="M2333.43,-487.4C2357.39,-496.13 2386.17,-506.62 2411.08,-515.69"/>
<polygon fill="#94a3b8" stroke="#94a3b8" points="2410.18,-517.97 2417.6,-518.07 2411.86,-513.37 2410.18,-517.97"/>
</g>
<!-- loki -->
<g id="node22" class="node">
<title>loki</title>
<path fill="#581c87" stroke="#64748b" d="M2524.59,-487C2524.59,-487 2416.56,-487 2416.56,-487 2410.56,-487 2404.56,-481 2404.56,-475 2404.56,-475 2404.56,-463 2404.56,-463 2404.56,-457 2410.56,-451 2416.56,-451 2416.56,-451 2524.59,-451 2524.59,-451 2530.59,-451 2536.59,-457 2536.59,-463 2536.59,-463 2536.59,-475 2536.59,-475 2536.59,-481 2530.59,-487 2524.59,-487"/>
<text xml:space="preserve" text-anchor="middle" x="2470.57" y="-470.55" font-family="Helvetica,sans-Serif" font-size="11.00" fill="#f8fafc">Logs</text>
<text xml:space="preserve" text-anchor="middle" x="2470.57" y="-458.55" font-family="Helvetica,sans-Serif" font-size="11.00" fill="#f8fafc">function + service labels</text>
</g>
<!-- grafana&#45;&gt;loki -->
<g id="edge38" class="edge">
<title>grafana&#45;&gt;loki</title>
<path fill="none" stroke="#94a3b8" d="M2339.93,-469C2357.5,-469 2377.11,-469 2395.65,-469"/>
<polygon fill="#94a3b8" stroke="#94a3b8" points="2395.56,-471.45 2402.56,-469 2395.56,-466.55 2395.56,-471.45"/>
</g>
<!-- smResults -->
<g id="node23" class="node">
<title>smResults</title>
<path fill="#581c87" stroke="#64748b" d="M2524.96,-418.76C2524.96,-418.76 2416.18,-418.76 2416.18,-418.76 2410.18,-418.76 2404.18,-412.76 2404.18,-406.76 2404.18,-406.76 2404.18,-383.24 2404.18,-383.24 2404.18,-377.24 2410.18,-371.24 2416.18,-371.24 2416.18,-371.24 2524.96,-371.24 2524.96,-371.24 2530.96,-371.24 2536.96,-377.24 2536.96,-383.24 2536.96,-383.24 2536.96,-406.76 2536.96,-406.76 2536.96,-412.76 2530.96,-418.76 2524.96,-418.76"/>
<text xml:space="preserve" text-anchor="middle" x="2470.57" y="-402.55" font-family="Helvetica,sans-Serif" font-size="11.00" fill="#f8fafc">Synthetic results</text>
<text xml:space="preserve" text-anchor="middle" x="2470.57" y="-390.55" font-family="Helvetica,sans-Serif" font-size="11.00" fill="#f8fafc">uptime, TLS, DNS,</text>
<text xml:space="preserve" text-anchor="middle" x="2470.57" y="-378.55" font-family="Helvetica,sans-Serif" font-size="11.00" fill="#f8fafc">latency, browser actions</text>
</g>
<!-- grafana&#45;&gt;smResults -->
<g id="edge39" class="edge">
<title>grafana&#45;&gt;smResults</title>
<path fill="none" stroke="#94a3b8" d="M2329.53,-450.52C2351.07,-441.98 2377.07,-431.67 2400.79,-422.27"/>
<polygon fill="#94a3b8" stroke="#94a3b8" points="2401.4,-424.66 2407,-419.81 2399.59,-420.11 2401.4,-424.66"/>
</g>
<!-- k6Results -->
<g id="node24" class="node">
<title>k6Results</title>
<path fill="#581c87" stroke="#64748b" d="M2524.96,-339C2524.96,-339 2416.18,-339 2416.18,-339 2410.18,-339 2404.18,-333 2404.18,-327 2404.18,-327 2404.18,-315 2404.18,-315 2404.18,-309 2410.18,-303 2416.18,-303 2416.18,-303 2524.96,-303 2524.96,-303 2530.96,-303 2536.96,-309 2536.96,-315 2536.96,-315 2536.96,-327 2536.96,-327 2536.96,-333 2530.96,-339 2524.96,-339"/>
<text xml:space="preserve" text-anchor="middle" x="2470.57" y="-322.55" font-family="Helvetica,sans-Serif" font-size="11.00" fill="#f8fafc">k6 results</text>
<text xml:space="preserve" text-anchor="middle" x="2470.57" y="-310.55" font-family="Helvetica,sans-Serif" font-size="11.00" fill="#f8fafc">VUs, checks, thresholds</text>
</g>
<!-- grafana&#45;&gt;k6Results -->
<g id="edge40" class="edge">
<title>grafana&#45;&gt;k6Results</title>
<path fill="none" stroke="#94a3b8" d="M2296.4,-450.61C2315.19,-426.05 2351.4,-382.47 2390.68,-355 2396.87,-350.67 2403.71,-346.72 2410.68,-343.17"/>
<polygon fill="#94a3b8" stroke="#94a3b8" points="2411.7,-345.4 2416.92,-340.14 2409.56,-341 2411.7,-345.4"/>
</g>
<!-- incidents -->
<g id="node25" class="node">
<title>incidents</title>
<path fill="#581c87" stroke="#64748b" d="M2538.46,-271C2538.46,-271 2402.68,-271 2402.68,-271 2396.68,-271 2390.68,-265 2390.68,-259 2390.68,-259 2390.68,-247 2390.68,-247 2390.68,-241 2396.68,-235 2402.68,-235 2402.68,-235 2538.46,-235 2538.46,-235 2544.46,-235 2550.46,-241 2550.46,-247 2550.46,-247 2550.46,-259 2550.46,-259 2550.46,-265 2544.46,-271 2538.46,-271"/>
<text xml:space="preserve" text-anchor="middle" x="2470.57" y="-254.55" font-family="Helvetica,sans-Serif" font-size="11.00" fill="#f8fafc">IRM workflows</text>
<text xml:space="preserve" text-anchor="middle" x="2470.57" y="-242.55" font-family="Helvetica,sans-Serif" font-size="11.00" fill="#f8fafc">severity, ownership, response</text>
</g>
<!-- grafana&#45;&gt;incidents -->
<g id="edge41" class="edge">
<title>grafana&#45;&gt;incidents</title>
<path fill="none" stroke="#94a3b8" d="M2289.3,-450.7C2302.71,-414.73 2337.06,-334.18 2390.68,-287 2395.56,-282.71 2401.07,-278.89 2406.84,-275.51"/>
<polygon fill="#94a3b8" stroke="#94a3b8" points="2407.97,-277.68 2412.95,-272.18 2405.63,-273.38 2407.97,-277.68"/>
</g>
</g>
</svg>
