<?xml version="1.0" encoding="UTF-8" standalone="no"?>
<!DOCTYPE svg PUBLIC "-//W3C//DTD SVG 1.1//EN"
 "http://www.w3.org/Graphics/SVG/1.1/DTD/svg11.dtd">
<!-- Generated by graphviz version 15.0.0 (20260523.1842)
 -->
<!-- Title: request_flow_diagram Pages: 1 -->
<svg width="1895pt" height="621pt"
 viewBox="0.00 0.00 1895.00 621.00" xmlns="http://www.w3.org/2000/svg" xmlns:xlink="http://www.w3.org/1999/xlink">
<g id="graph0" class="graph" transform="scale(1 1) rotate(0) translate(18 603.22)">
<title>request_flow_diagram</title>
<polygon fill="#0b1220" stroke="none" points="-18,18 -18,-603.22 1877.03,-603.22 1877.03,18 -18,18"/>
<text xml:space="preserve" text-anchor="middle" x="929.52" y="-562.22" font-family="Helvetica,sans-Serif" font-size="20.00" fill="#f8fafc">Browser Request Flow Through Backend Services</text>
<!-- browser -->
<g id="node1" class="node">
<title>browser</title>
<path fill="#1e3a8a" stroke="#64748b" d="M102.03,-245.22C102.03,-245.22 12,-245.22 12,-245.22 6,-245.22 0,-239.22 0,-233.22 0,-233.22 0,-221.22 0,-221.22 0,-215.22 6,-209.22 12,-209.22 12,-209.22 102.03,-209.22 102.03,-209.22 108.03,-209.22 114.03,-215.22 114.03,-221.22 114.03,-221.22 114.03,-233.22 114.03,-233.22 114.03,-239.22 108.03,-245.22 102.03,-245.22"/>
<text xml:space="preserve" text-anchor="middle" x="57.02" y="-228.77" font-family="Helvetica,sans-Serif" font-size="11.00" fill="#f8fafc">Browser</text>
<text xml:space="preserve" text-anchor="middle" x="57.02" y="-216.77" font-family="Helvetica,sans-Serif" font-size="11.00" fill="#f8fafc">ensemble&#45;retail.com</text>
</g>
<!-- dns -->
<g id="node2" class="node">
<title>dns</title>
<path fill="#164e63" stroke="#64748b" d="M344.06,-266.22C344.06,-266.22 286.28,-266.22 286.28,-266.22 280.28,-266.22 274.28,-260.22 274.28,-254.22 274.28,-254.22 274.28,-242.22 274.28,-242.22 274.28,-236.22 280.28,-230.22 286.28,-230.22 286.28,-230.22 344.06,-230.22 344.06,-230.22 350.06,-230.22 356.06,-236.22 356.06,-242.22 356.06,-242.22 356.06,-254.22 356.06,-254.22 356.06,-260.22 350.06,-266.22 344.06,-266.22"/>
<text xml:space="preserve" text-anchor="middle" x="315.17" y="-249.77" font-family="Helvetica,sans-Serif" font-size="11.00" fill="#f8fafc">Route53</text>
<text xml:space="preserve" text-anchor="middle" x="315.17" y="-237.77" font-family="Helvetica,sans-Serif" font-size="11.00" fill="#f8fafc">A/AAAA alias</text>
</g>
<!-- browser&#45;&gt;dns -->
<g id="edge1" class="edge">
<title>browser&#45;&gt;dns</title>
<path fill="none" stroke="#94a3b8" d="M114.33,-224.22C146.31,-223.29 187.02,-223.4 223.03,-227.47 237.18,-229.07 252.35,-232.02 266.16,-235.19"/>
<polygon fill="#94a3b8" stroke="#94a3b8" points="265.27,-237.5 272.65,-236.73 266.4,-232.73 265.27,-237.5"/>
<text xml:space="preserve" text-anchor="middle" x="181.03" y="-228.67" font-family="Helvetica,sans-Serif" font-size="9.00" fill="#f8fafc">DNS lookup</text>
</g>
<!-- wafEdge -->
<g id="node3" class="node">
<title>wafEdge</title>
<path fill="#7f1d1d" stroke="#64748b" d="M338.44,-339.22C338.44,-339.22 291.91,-339.22 291.91,-339.22 285.91,-339.22 279.91,-333.22 279.91,-327.22 279.91,-327.22 279.91,-315.22 279.91,-315.22 279.91,-309.22 285.91,-303.22 291.91,-303.22 291.91,-303.22 338.44,-303.22 338.44,-303.22 344.44,-303.22 350.44,-309.22 350.44,-315.22 350.44,-315.22 350.44,-327.22 350.44,-327.22 350.44,-333.22 344.44,-339.22 338.44,-339.22"/>
<text xml:space="preserve" text-anchor="middle" x="315.17" y="-322.77" font-family="Helvetica,sans-Serif" font-size="11.00" fill="#f8fafc">AWS WAF</text>
<text xml:space="preserve" text-anchor="middle" x="315.17" y="-310.77" font-family="Helvetica,sans-Serif" font-size="11.00" fill="#f8fafc">edge rules</text>
</g>
<!-- browser&#45;&gt;wafEdge -->
<g id="edge3" class="edge">
<title>browser&#45;&gt;wafEdge</title>
<path fill="none" stroke="#94a3b8" d="M98.96,-245.69C111.71,-251.23 125.87,-257.17 139.03,-262.22 183.87,-279.43 236.15,-296.68 271.84,-308.05"/>
<polygon fill="#94a3b8" stroke="#94a3b8" points="270.78,-310.28 278.2,-310.07 272.27,-305.61 270.78,-310.28"/>
<text xml:space="preserve" text-anchor="middle" x="181.03" y="-292.32" font-family="Helvetica,sans-Serif" font-size="9.00" fill="#f8fafc">HTTPS request</text>
</g>
<!-- cognito -->
<g id="node7" class="node">
<title>cognito</title>
<path fill="#4c1d95" stroke="#64748b" d="M356.44,-420.22C356.44,-420.22 273.91,-420.22 273.91,-420.22 267.91,-420.22 261.91,-414.22 261.91,-408.22 261.91,-408.22 261.91,-396.22 261.91,-396.22 261.91,-390.22 267.91,-384.22 273.91,-384.22 273.91,-384.22 356.44,-384.22 356.44,-384.22 362.44,-384.22 368.44,-390.22 368.44,-396.22 368.44,-396.22 368.44,-408.22 368.44,-408.22 368.44,-414.22 362.44,-420.22 356.44,-420.22"/>
<text xml:space="preserve" text-anchor="middle" x="315.17" y="-403.77" font-family="Helvetica,sans-Serif" font-size="11.00" fill="#f8fafc">Cognito Hosted UI</text>
<text xml:space="preserve" text-anchor="middle" x="315.17" y="-391.77" font-family="Helvetica,sans-Serif" font-size="11.00" fill="#f8fafc">Google federation</text>
</g>
<!-- browser&#45;&gt;cognito -->
<g id="edge4" class="edge">
<title>browser&#45;&gt;cognito</title>
<path fill="none" stroke="#94a3b8" d="M73.1,-245.44C88.43,-263.19 113.5,-290.23 139.03,-309.22 177.96,-338.2 227.13,-363.46 263.45,-380.32"/>
<polygon fill="#94a3b8" stroke="#94a3b8" points="262.24,-382.46 269.62,-383.15 264.28,-378 262.24,-382.46"/>
<text xml:space="preserve" text-anchor="middle" x="181.03" y="-361.18" font-family="Helvetica,sans-Serif" font-size="9.00" fill="#f8fafc">OAuth code + PKCE</text>
</g>
<!-- localState -->
<g id="node9" class="node">
<title>localState</title>
<path fill="#0f172a" stroke="#64748b" d="M370.31,-42.22C370.31,-42.22 260.03,-42.22 260.03,-42.22 254.03,-42.22 248.03,-36.22 248.03,-30.22 248.03,-30.22 248.03,-18.22 248.03,-18.22 248.03,-12.22 254.03,-6.22 260.03,-6.22 260.03,-6.22 370.31,-6.22 370.31,-6.22 376.31,-6.22 382.31,-12.22 382.31,-18.22 382.31,-18.22 382.31,-30.22 382.31,-30.22 382.31,-36.22 376.31,-42.22 370.31,-42.22"/>
<text xml:space="preserve" text-anchor="middle" x="315.17" y="-25.77" font-family="Helvetica,sans-Serif" font-size="11.00" fill="#f8fafc">Browser localStorage</text>
<text xml:space="preserve" text-anchor="middle" x="315.17" y="-13.77" font-family="Helvetica,sans-Serif" font-size="11.00" fill="#f8fafc">anonymous cart/account</text>
</g>
<!-- browser&#45;&gt;localState -->
<g id="edge8" class="edge">
<title>browser&#45;&gt;localState</title>
<path fill="none" stroke="#94a3b8" d="M61.8,-208.96C69.81,-175.15 91.72,-102.87 139.03,-65.47 167.27,-43.15 205.57,-32.57 239.16,-27.68"/>
<polygon fill="#94a3b8" stroke="#94a3b8" points="239.47,-30.11 246.09,-26.75 238.82,-25.25 239.47,-30.11"/>
<text xml:space="preserve" text-anchor="middle" x="181.03" y="-66.67" font-family="Helvetica,sans-Serif" font-size="9.00" fill="#f8fafc">anonymous writes</text>
</g>
<!-- dns&#45;&gt;browser -->
<g id="edge2" class="edge">
<title>dns&#45;&gt;browser</title>
<path fill="none" stroke="#94a3b8" d="M274.11,-246.82C238.56,-245.37 185.26,-242.67 139.03,-238.22 133.62,-237.7 128.01,-237.09 122.39,-236.43"/>
<polygon fill="#94a3b8" stroke="#94a3b8" points="122.92,-234.02 115.67,-235.61 122.32,-238.89 122.92,-234.02"/>
<text xml:space="preserve" text-anchor="middle" x="181.03" y="-245.42" font-family="Helvetica,sans-Serif" font-size="9.00" fill="#f8fafc">CloudFront target</text>
</g>
<!-- cf -->
<g id="node4" class="node">
<title>cf</title>
<path fill="#1e3a8a" stroke="#64748b" d="M658.84,-196.22C658.84,-196.22 534.31,-196.22 534.31,-196.22 528.31,-196.22 522.31,-190.22 522.31,-184.22 522.31,-184.22 522.31,-172.22 522.31,-172.22 522.31,-166.22 528.31,-160.22 534.31,-160.22 534.31,-160.22 658.84,-160.22 658.84,-160.22 664.84,-160.22 670.84,-166.22 670.84,-172.22 670.84,-172.22 670.84,-184.22 670.84,-184.22 670.84,-190.22 664.84,-196.22 658.84,-196.22"/>
<text xml:space="preserve" text-anchor="middle" x="596.58" y="-179.77" font-family="Helvetica,sans-Serif" font-size="11.00" fill="#f8fafc">CloudFront</text>
<text xml:space="preserve" text-anchor="middle" x="596.58" y="-167.77" font-family="Helvetica,sans-Serif" font-size="11.00" fill="#f8fafc">HTTPS + static/API routing</text>
</g>
<!-- wafEdge&#45;&gt;cf -->
<g id="edge11" class="edge">
<title>wafEdge&#45;&gt;cf</title>
<path fill="none" stroke="#94a3b8" d="M350.71,-303.54C401.61,-277.49 496.71,-228.82 552.23,-200.41"/>
<polygon fill="#94a3b8" stroke="#94a3b8" points="553.33,-202.6 558.44,-197.23 551.1,-198.24 553.33,-202.6"/>
</g>
<!-- cf&#45;&gt;browser -->
<g id="edge15" class="edge">
<title>cf&#45;&gt;browser</title>
<path fill="none" stroke="#94a3b8" d="M521.86,-182.62C431.46,-188.42 273.64,-199.83 139.03,-216.22 133.63,-216.88 128.04,-217.59 122.43,-218.31"/>
<polygon fill="#94a3b8" stroke="#94a3b8" points="122.33,-215.85 115.71,-219.19 122.97,-220.71 122.33,-215.85"/>
<text xml:space="preserve" text-anchor="middle" x="315.17" y="-205.37" font-family="Helvetica,sans-Serif" font-size="9.00" fill="#f8fafc">Storefront response</text>
</g>
<!-- cf&#45;&gt;browser -->
<g id="edge32" class="edge">
<title>cf&#45;&gt;browser</title>
<path fill="none" stroke="#94a3b8" d="M522.07,-176.56C513.72,-176.42 505.33,-176.3 497.31,-176.22 337.75,-174.6 294.38,-162.81 139.03,-199.22 130.8,-201.15 122.22,-203.61 113.87,-206.26"/>
<polygon fill="#94a3b8" stroke="#94a3b8" points="113.28,-203.87 107.39,-208.37 114.8,-208.53 113.28,-203.87"/>
</g>
<!-- apiPath -->
<g id="node5" class="node">
<title>apiPath</title>
<path fill="#7c2d12" stroke="#64748b" d="M758.28,-191.98C758.28,-191.98 733.07,-182.46 733.07,-182.46 727.45,-180.34 727.45,-176.1 733.07,-173.98 733.07,-173.98 758.28,-164.46 758.28,-164.46 763.89,-162.34 775.12,-162.34 780.73,-164.46 780.73,-164.46 805.94,-173.98 805.94,-173.98 811.55,-176.1 811.55,-180.34 805.94,-182.46 805.94,-182.46 780.73,-191.98 780.73,-191.98 775.12,-194.1 763.89,-194.1 758.28,-191.98"/>
<text xml:space="preserve" text-anchor="middle" x="769.5" y="-173.77" font-family="Helvetica,sans-Serif" font-size="11.00" fill="#f8fafc">/api/* ?</text>
</g>
<!-- cf&#45;&gt;apiPath -->
<g id="edge12" class="edge">
<title>cf&#45;&gt;apiPath</title>
<path fill="none" stroke="#94a3b8" d="M671.06,-178.22C684.86,-178.22 699.09,-178.22 712.27,-178.22"/>
<polygon fill="#94a3b8" stroke="#94a3b8" points="712.25,-180.67 719.25,-178.22 712.25,-175.77 712.25,-180.67"/>
</g>
<!-- s3 -->
<g id="node6" class="node">
<title>s3</title>
<path fill="#713f12" stroke="#64748b" d="M1060.69,-259.22C1060.69,-259.22 970.66,-259.22 970.66,-259.22 964.66,-259.22 958.66,-253.22 958.66,-247.22 958.66,-247.22 958.66,-235.22 958.66,-235.22 958.66,-229.22 964.66,-223.22 970.66,-223.22 970.66,-223.22 1060.69,-223.22 1060.69,-223.22 1066.69,-223.22 1072.69,-229.22 1072.69,-235.22 1072.69,-235.22 1072.69,-247.22 1072.69,-247.22 1072.69,-253.22 1066.69,-259.22 1060.69,-259.22"/>
<text xml:space="preserve" text-anchor="middle" x="1015.68" y="-242.77" font-family="Helvetica,sans-Serif" font-size="11.00" fill="#f8fafc">S3 frontend origin</text>
<text xml:space="preserve" text-anchor="middle" x="1015.68" y="-230.77" font-family="Helvetica,sans-Serif" font-size="11.00" fill="#f8fafc">index.html, JS, CSS</text>
</g>
<!-- apiPath&#45;&gt;s3 -->
<g id="edge13" class="edge">
<title>apiPath&#45;&gt;s3</title>
<path fill="none" stroke="#94a3b8" d="M798.99,-185.57C835.81,-195.07 901.03,-211.9 950.14,-224.57"/>
<polygon fill="#94a3b8" stroke="#94a3b8" points="949.32,-226.89 956.71,-226.27 950.55,-222.15 949.32,-226.89"/>
<text xml:space="preserve" text-anchor="middle" x="887.91" y="-220.25" font-family="Helvetica,sans-Serif" font-size="9.00" fill="#f8fafc">No: static route</text>
</g>
<!-- apiWaf -->
<g id="node10" class="node">
<title>apiWaf</title>
<path fill="#7f1d1d" stroke="#64748b" d="M1054.69,-170.22C1054.69,-170.22 976.66,-170.22 976.66,-170.22 970.66,-170.22 964.66,-164.22 964.66,-158.22 964.66,-158.22 964.66,-146.22 964.66,-146.22 964.66,-140.22 970.66,-134.22 976.66,-134.22 976.66,-134.22 1054.69,-134.22 1054.69,-134.22 1060.69,-134.22 1066.69,-140.22 1066.69,-146.22 1066.69,-146.22 1066.69,-158.22 1066.69,-158.22 1066.69,-164.22 1060.69,-170.22 1054.69,-170.22"/>
<text xml:space="preserve" text-anchor="middle" x="1015.68" y="-153.77" font-family="Helvetica,sans-Serif" font-size="11.00" fill="#f8fafc">AWS WAF</text>
<text xml:space="preserve" text-anchor="middle" x="1015.68" y="-141.77" font-family="Helvetica,sans-Serif" font-size="11.00" fill="#f8fafc">regional API rules</text>
</g>
<!-- apiPath&#45;&gt;apiWaf -->
<g id="edge16" class="edge">
<title>apiPath&#45;&gt;apiWaf</title>
<path fill="none" stroke="#94a3b8" d="M803.25,-172.44C815.44,-170.42 829.41,-168.28 842.16,-166.72 879.98,-162.11 922.64,-158.51 956.08,-156.05"/>
<polygon fill="#94a3b8" stroke="#94a3b8" points="956.06,-158.51 962.87,-155.56 955.71,-153.62 956.06,-158.51"/>
<text xml:space="preserve" text-anchor="middle" x="887.91" y="-177.67" font-family="Helvetica,sans-Serif" font-size="9.00" fill="#f8fafc">Yes: /api/*</text>
<text xml:space="preserve" text-anchor="middle" x="887.91" y="-167.92" font-family="Helvetica,sans-Serif" font-size="9.00" fill="#f8fafc">Bearer JWT or API key</text>
</g>
<!-- s3&#45;&gt;cf -->
<g id="edge14" class="edge">
<title>s3&#45;&gt;cf</title>
<path fill="none" stroke="#94a3b8" d="M958.17,-242.49C924.4,-242.61 880.71,-241.64 842.16,-237.22 787.9,-231.01 774.95,-224.99 721.84,-212.22 705.11,-208.2 687.22,-203.53 670.37,-198.96"/>
<polygon fill="#94a3b8" stroke="#94a3b8" points="671.05,-196.6 663.66,-197.12 669.76,-201.33 671.05,-196.6"/>
<text xml:space="preserve" text-anchor="middle" x="769.5" y="-235.09" font-family="Helvetica,sans-Serif" font-size="9.00" fill="#f8fafc">HTML/assets</text>
</g>
<!-- cognito&#45;&gt;browser -->
<g id="edge7" class="edge">
<title>cognito&#45;&gt;browser</title>
<path fill="none" stroke="#94a3b8" d="M261.41,-406.99C224.09,-407.69 174.57,-402.92 139.03,-378.22 95.94,-348.28 73.77,-287.93 64.15,-253.28"/>
<polygon fill="#94a3b8" stroke="#94a3b8" points="66.63,-253.07 62.46,-246.93 61.89,-254.33 66.63,-253.07"/>
<text xml:space="preserve" text-anchor="middle" x="181.03" y="-406.35" font-family="Helvetica,sans-Serif" font-size="9.00" fill="#f8fafc">Cognito JWTs</text>
</g>
<!-- google -->
<g id="node8" class="node">
<title>google</title>
<path fill="#4c1d95" stroke="#64748b" d="M620.22,-419.22C620.22,-419.22 572.94,-419.22 572.94,-419.22 566.94,-419.22 560.94,-413.22 560.94,-407.22 560.94,-407.22 560.94,-395.22 560.94,-395.22 560.94,-389.22 566.94,-383.22 572.94,-383.22 572.94,-383.22 620.22,-383.22 620.22,-383.22 626.22,-383.22 632.22,-389.22 632.22,-395.22 632.22,-395.22 632.22,-407.22 632.22,-407.22 632.22,-413.22 626.22,-419.22 620.22,-419.22"/>
<text xml:space="preserve" text-anchor="middle" x="596.58" y="-396.77" font-family="Helvetica,sans-Serif" font-size="11.00" fill="#f8fafc">Google IdP</text>
</g>
<!-- cognito&#45;&gt;google -->
<g id="edge5" class="edge">
<title>cognito&#45;&gt;google</title>
<path fill="none" stroke="#94a3b8" d="M368.73,-386.09C381.26,-382.93 394.66,-380.09 407.31,-378.47 446.99,-373.39 457.57,-373.93 497.31,-378.47 515.55,-380.56 535.33,-384.75 552.33,-388.97"/>
<polygon fill="#94a3b8" stroke="#94a3b8" points="551.58,-391.31 558.97,-390.67 552.79,-386.56 551.58,-391.31"/>
<text xml:space="preserve" text-anchor="middle" x="452.31" y="-379.67" font-family="Helvetica,sans-Serif" font-size="9.00" fill="#f8fafc">Google authentication</text>
</g>
<!-- google&#45;&gt;cognito -->
<g id="edge6" class="edge">
<title>google&#45;&gt;cognito</title>
<path fill="none" stroke="#94a3b8" d="M560.5,-401.35C514.56,-401.51 433.28,-401.8 377.16,-402"/>
<polygon fill="#94a3b8" stroke="#94a3b8" points="377.23,-399.55 370.24,-402.03 377.25,-404.45 377.23,-399.55"/>
<text xml:space="preserve" text-anchor="middle" x="452.31" y="-403.07" font-family="Helvetica,sans-Serif" font-size="9.00" fill="#f8fafc">identity claims</text>
</g>
<!-- localState&#45;&gt;browser -->
<g id="edge9" class="edge">
<title>localState&#45;&gt;browser</title>
<path fill="none" stroke="#94a3b8" d="M255.26,-5.77C218.73,1.92 172.54,4.47 139.03,-18.47 78.31,-60.04 63.09,-154.28 59.28,-200.56"/>
<polygon fill="#94a3b8" stroke="#94a3b8" points="56.85,-200.22 58.79,-207.37 61.74,-200.57 56.85,-200.22"/>
<text xml:space="preserve" text-anchor="middle" x="181.03" y="-19.67" font-family="Helvetica,sans-Serif" font-size="9.00" fill="#f8fafc">restore local state</text>
</g>
<!-- apiWaf&#45;&gt;cf -->
<g id="edge31" class="edge">
<title>apiWaf&#45;&gt;cf</title>
<path fill="none" stroke="#94a3b8" d="M964.42,-145.98C905.88,-139.83 806.4,-132.86 721.84,-144.22 701.67,-146.93 680.13,-152.01 660.76,-157.43"/>
<polygon fill="#94a3b8" stroke="#94a3b8" points="660.1,-155.07 654.05,-159.36 661.45,-159.78 660.1,-155.07"/>
</g>
<!-- ingress -->
<g id="node11" class="node">
<title>ingress</title>
<path fill="#3730a3" stroke="#64748b" d="M1238.47,-170.22C1238.47,-170.22 1135.69,-170.22 1135.69,-170.22 1129.69,-170.22 1123.69,-164.22 1123.69,-158.22 1123.69,-158.22 1123.69,-146.22 1123.69,-146.22 1123.69,-140.22 1129.69,-134.22 1135.69,-134.22 1135.69,-134.22 1238.47,-134.22 1238.47,-134.22 1244.47,-134.22 1250.47,-140.22 1250.47,-146.22 1250.47,-146.22 1250.47,-158.22 1250.47,-158.22 1250.47,-164.22 1244.47,-170.22 1238.47,-170.22"/>
<text xml:space="preserve" text-anchor="middle" x="1187.08" y="-147.77" font-family="Helvetica,sans-Serif" font-size="11.00" fill="#f8fafc">EKS API ingress / ALB</text>
</g>
<!-- apiWaf&#45;&gt;ingress -->
<g id="edge17" class="edge">
<title>apiWaf&#45;&gt;ingress</title>
<path fill="none" stroke="#94a3b8" d="M1067.05,-141.15C1082.08,-140.29 1098.85,-140.03 1114.95,-140.36"/>
<polygon fill="#94a3b8" stroke="#94a3b8" points="1114.72,-142.81 1121.78,-140.55 1114.85,-137.91 1114.72,-142.81"/>
</g>
<!-- ingress&#45;&gt;apiWaf -->
<g id="edge30" class="edge">
<title>ingress&#45;&gt;apiWaf</title>
<path fill="none" stroke="#94a3b8" d="M1123.29,-163.86C1107.65,-164.39 1090.93,-164.34 1075.48,-163.71"/>
<polygon fill="#94a3b8" stroke="#94a3b8" points="1075.67,-161.27 1068.56,-163.37 1075.43,-166.16 1075.67,-161.27"/>
</g>
<!-- inventory -->
<g id="node14" class="node">
<title>inventory</title>
<path fill="#14532d" stroke="#64748b" d="M1451.25,-264.22C1451.25,-264.22 1376.97,-264.22 1376.97,-264.22 1370.97,-264.22 1364.97,-258.22 1364.97,-252.22 1364.97,-252.22 1364.97,-240.22 1364.97,-240.22 1364.97,-234.22 1370.97,-228.22 1376.97,-228.22 1376.97,-228.22 1451.25,-228.22 1451.25,-228.22 1457.25,-228.22 1463.25,-234.22 1463.25,-240.22 1463.25,-240.22 1463.25,-252.22 1463.25,-252.22 1463.25,-258.22 1457.25,-264.22 1451.25,-264.22"/>
<text xml:space="preserve" text-anchor="middle" x="1414.11" y="-247.77" font-family="Helvetica,sans-Serif" font-size="11.00" fill="#f8fafc">inventory&#45;service</text>
<text xml:space="preserve" text-anchor="middle" x="1414.11" y="-235.77" font-family="Helvetica,sans-Serif" font-size="11.00" fill="#f8fafc">/api/inventory/*</text>
</g>
<!-- ingress&#45;&gt;inventory -->
<g id="edge18" class="edge">
<title>ingress&#45;&gt;inventory</title>
<path fill="none" stroke="#94a3b8" d="M1201.48,-170.63C1216.89,-190.2 1244.13,-220.22 1275.47,-234.22 1300.57,-245.44 1330.78,-249.02 1356.49,-249.55"/>
<polygon fill="#94a3b8" stroke="#94a3b8" points="1356.14,-252 1363.16,-249.61 1356.18,-247.1 1356.14,-252"/>
<text xml:space="preserve" text-anchor="middle" x="1307.72" y="-249.77" font-family="Helvetica,sans-Serif" font-size="9.00" fill="#f8fafc">/api/inventory/*</text>
</g>
<!-- cart -->
<g id="node15" class="node">
<title>cart</title>
<path fill="#14532d" stroke="#64748b" d="M1438.5,-161.22C1438.5,-161.22 1389.72,-161.22 1389.72,-161.22 1383.72,-161.22 1377.72,-155.22 1377.72,-149.22 1377.72,-149.22 1377.72,-137.22 1377.72,-137.22 1377.72,-131.22 1383.72,-125.22 1389.72,-125.22 1389.72,-125.22 1438.5,-125.22 1438.5,-125.22 1444.5,-125.22 1450.5,-131.22 1450.5,-137.22 1450.5,-137.22 1450.5,-149.22 1450.5,-149.22 1450.5,-155.22 1444.5,-161.22 1438.5,-161.22"/>
<text xml:space="preserve" text-anchor="middle" x="1414.11" y="-144.77" font-family="Helvetica,sans-Serif" font-size="11.00" fill="#f8fafc">cart&#45;service</text>
<text xml:space="preserve" text-anchor="middle" x="1414.11" y="-132.77" font-family="Helvetica,sans-Serif" font-size="11.00" fill="#f8fafc">/api/cart/*</text>
</g>
<!-- ingress&#45;&gt;cart -->
<g id="edge19" class="edge">
<title>ingress&#45;&gt;cart</title>
<path fill="none" stroke="#94a3b8" d="M1250.77,-149.72C1288.41,-148.21 1335.38,-146.33 1369.1,-144.98"/>
<polygon fill="#94a3b8" stroke="#94a3b8" points="1368.97,-147.44 1375.86,-144.71 1368.77,-142.54 1368.97,-147.44"/>
<text xml:space="preserve" text-anchor="middle" x="1307.72" y="-149.73" font-family="Helvetica,sans-Serif" font-size="9.00" fill="#f8fafc">/api/cart/*</text>
</g>
<!-- account -->
<g id="node16" class="node">
<title>account</title>
<path fill="#14532d" stroke="#64748b" d="M1448.25,-75.22C1448.25,-75.22 1379.97,-75.22 1379.97,-75.22 1373.97,-75.22 1367.97,-69.22 1367.97,-63.22 1367.97,-63.22 1367.97,-51.22 1367.97,-51.22 1367.97,-45.22 1373.97,-39.22 1379.97,-39.22 1379.97,-39.22 1448.25,-39.22 1448.25,-39.22 1454.25,-39.22 1460.25,-45.22 1460.25,-51.22 1460.25,-51.22 1460.25,-63.22 1460.25,-63.22 1460.25,-69.22 1454.25,-75.22 1448.25,-75.22"/>
<text xml:space="preserve" text-anchor="middle" x="1414.11" y="-58.77" font-family="Helvetica,sans-Serif" font-size="11.00" fill="#f8fafc">account&#45;service</text>
<text xml:space="preserve" text-anchor="middle" x="1414.11" y="-46.77" font-family="Helvetica,sans-Serif" font-size="11.00" fill="#f8fafc">/api/account/*</text>
</g>
<!-- ingress&#45;&gt;account -->
<g id="edge20" class="edge">
<title>ingress&#45;&gt;account</title>
<path fill="none" stroke="#94a3b8" d="M1223.88,-133.79C1239.56,-125.95 1258.27,-116.93 1275.47,-109.47 1303,-97.55 1334.21,-85.57 1359.95,-76.1"/>
<polygon fill="#94a3b8" stroke="#94a3b8" points="1360.6,-78.48 1366.33,-73.77 1358.91,-73.87 1360.6,-78.48"/>
<text xml:space="preserve" text-anchor="middle" x="1307.72" y="-110.67" font-family="Helvetica,sans-Serif" font-size="9.00" fill="#f8fafc">/api/account/*</text>
</g>
<!-- k6 -->
<g id="node12" class="node">
<title>k6</title>
<path fill="#6b21a8" stroke="#64748b" d="M96.03,-529.98C96.03,-529.98 18,-529.98 18,-529.98 12,-529.98 6,-523.98 6,-517.98 6,-517.98 6,-482.46 6,-482.46 6,-476.46 12,-470.46 18,-470.46 18,-470.46 96.03,-470.46 96.03,-470.46 102.03,-470.46 108.03,-476.46 108.03,-482.46 108.03,-482.46 108.03,-517.98 108.03,-517.98 108.03,-523.98 102.03,-529.98 96.03,-529.98"/>
<text xml:space="preserve" text-anchor="middle" x="57.02" y="-513.77" font-family="Helvetica,sans-Serif" font-size="11.00" fill="#f8fafc">Grafana Cloud k6</text>
<text xml:space="preserve" text-anchor="middle" x="57.02" y="-501.77" font-family="Helvetica,sans-Serif" font-size="11.00" fill="#f8fafc">regional, spike,</text>
<text xml:space="preserve" text-anchor="middle" x="57.02" y="-489.77" font-family="Helvetica,sans-Serif" font-size="11.00" fill="#f8fafc">5 rps baseline,</text>
<text xml:space="preserve" text-anchor="middle" x="57.02" y="-477.77" font-family="Helvetica,sans-Serif" font-size="11.00" fill="#f8fafc">browser checks</text>
</g>
<!-- k6&#45;&gt;wafEdge -->
<g id="edge10" class="edge">
<title>k6&#45;&gt;wafEdge</title>
<path fill="none" stroke="#94a3b8" d="M108.35,-477.75C155.23,-456.67 218.58,-427.72 223.03,-423.22 241.92,-404.14 230.94,-388.93 248.03,-368.22 255.46,-359.22 265.01,-351.12 274.53,-344.28"/>
<polygon fill="#94a3b8" stroke="#94a3b8" points="275.81,-346.37 280.18,-340.39 273.03,-342.34 275.81,-346.37"/>
<text xml:space="preserve" text-anchor="middle" x="181.03" y="-492.66" font-family="Helvetica,sans-Serif" font-size="9.00" fill="#f8fafc">Synthetic load</text>
<text xml:space="preserve" text-anchor="middle" x="181.03" y="-482.91" font-family="Helvetica,sans-Serif" font-size="9.00" fill="#f8fafc">5 rps baseline</text>
<text xml:space="preserve" text-anchor="middle" x="181.03" y="-473.16" font-family="Helvetica,sans-Serif" font-size="9.00" fill="#f8fafc">HTTPS + /api/*</text>
<text xml:space="preserve" text-anchor="middle" x="181.03" y="-463.41" font-family="Helvetica,sans-Serif" font-size="9.00" fill="#f8fafc">with traceparent</text>
</g>
<!-- grafana -->
<g id="node13" class="node">
<title>grafana</title>
<path fill="#6b21a8" stroke="#64748b" d="M361.69,-556.22C361.69,-556.22 268.66,-556.22 268.66,-556.22 262.66,-556.22 256.66,-550.22 256.66,-544.22 256.66,-544.22 256.66,-532.22 256.66,-532.22 256.66,-526.22 262.66,-520.22 268.66,-520.22 268.66,-520.22 361.69,-520.22 361.69,-520.22 367.69,-520.22 373.69,-526.22 373.69,-532.22 373.69,-532.22 373.69,-544.22 373.69,-544.22 373.69,-550.22 367.69,-556.22 361.69,-556.22"/>
<text xml:space="preserve" text-anchor="middle" x="315.17" y="-539.77" font-family="Helvetica,sans-Serif" font-size="11.00" fill="#f8fafc">Grafana Cloud</text>
<text xml:space="preserve" text-anchor="middle" x="315.17" y="-527.77" font-family="Helvetica,sans-Serif" font-size="11.00" fill="#f8fafc">results and telemetry</text>
</g>
<!-- k6&#45;&gt;grafana -->
<g id="edge33" class="edge">
<title>k6&#45;&gt;grafana</title>
<path fill="none" stroke="#94a3b8" d="M108.32,-507.68C148.29,-513.61 204.52,-521.96 248.11,-528.42"/>
<polygon fill="#94a3b8" stroke="#94a3b8" points="247.6,-530.82 254.88,-529.43 248.32,-525.98 247.6,-530.82"/>
<text xml:space="preserve" text-anchor="middle" x="181.03" y="-534.69" font-family="Helvetica,sans-Serif" font-size="9.00" fill="#f8fafc">k6 result metrics</text>
<text xml:space="preserve" text-anchor="middle" x="181.03" y="-524.94" font-family="Helvetica,sans-Serif" font-size="9.00" fill="#f8fafc">and trace correlation</text>
</g>
<!-- inventory&#45;&gt;ingress -->
<g id="edge27" class="edge">
<title>inventory&#45;&gt;ingress</title>
<path fill="none" stroke="#94a3b8" d="M1369.03,-227.81C1331.98,-212.33 1278.96,-190.19 1239.89,-173.86"/>
<polygon fill="#94a3b8" stroke="#94a3b8" points="1241.07,-171.7 1233.67,-171.27 1239.19,-176.22 1241.07,-171.7"/>
<text xml:space="preserve" text-anchor="middle" x="1307.72" y="-214.33" font-family="Helvetica,sans-Serif" font-size="9.00" fill="#f8fafc">JSON response</text>
</g>
<!-- postgres -->
<g id="node17" class="node">
<title>postgres</title>
<path fill="#166534" stroke="#64748b" d="M1817.78,-287.2C1817.78,-289.65 1795.76,-291.64 1768.64,-291.64 1741.53,-291.64 1719.5,-289.65 1719.5,-287.2 1719.5,-287.2 1719.5,-247.24 1719.5,-247.24 1719.5,-244.79 1741.53,-242.8 1768.64,-242.8 1795.76,-242.8 1817.78,-244.79 1817.78,-247.24 1817.78,-247.24 1817.78,-287.2 1817.78,-287.2"/>
<path fill="none" stroke="#64748b" d="M1817.78,-287.2C1817.78,-284.75 1795.76,-282.76 1768.64,-282.76 1741.53,-282.76 1719.5,-284.75 1719.5,-287.2"/>
<text xml:space="preserve" text-anchor="middle" x="1768.64" y="-268.77" font-family="Helvetica,sans-Serif" font-size="11.00" fill="#f8fafc">Postgres</text>
<text xml:space="preserve" text-anchor="middle" x="1768.64" y="-256.77" font-family="Helvetica,sans-Serif" font-size="11.00" fill="#f8fafc">inventory catalog</text>
</g>
<!-- inventory&#45;&gt;postgres -->
<g id="edge21" class="edge">
<title>inventory&#45;&gt;postgres</title>
<path fill="none" stroke="#94a3b8" d="M1463.39,-255.06C1471.66,-256.31 1480.19,-257.43 1488.25,-258.22 1564.98,-265.72 1654.06,-267.38 1710.62,-267.56"/>
<polygon fill="#94a3b8" stroke="#94a3b8" points="1710.55,-270.01 1717.55,-267.57 1710.56,-265.11 1710.55,-270.01"/>
<text xml:space="preserve" text-anchor="middle" x="1570.75" y="-267.97" font-family="Helvetica,sans-Serif" font-size="9.00" fill="#f8fafc">Read products, categories, stock, pricing</text>
</g>
<!-- cart&#45;&gt;ingress -->
<g id="edge28" class="edge">
<title>cart&#45;&gt;ingress</title>
<path fill="none" stroke="#94a3b8" d="M1377.59,-135.17C1365.7,-132.84 1352.32,-130.62 1339.97,-129.47 1311.43,-126.81 1303.91,-125.83 1275.47,-129.47 1270.04,-130.17 1264.46,-131.1 1258.88,-132.18"/>
<polygon fill="#94a3b8" stroke="#94a3b8" points="1258.56,-129.75 1252.2,-133.57 1259.55,-134.55 1258.56,-129.75"/>
<text xml:space="preserve" text-anchor="middle" x="1307.72" y="-130.67" font-family="Helvetica,sans-Serif" font-size="9.00" fill="#f8fafc">JSON response</text>
</g>
<!-- dynamoCart -->
<g id="node18" class="node">
<title>dynamoCart</title>
<path fill="#166534" stroke="#64748b" d="M1805.41,-181.2C1805.41,-183.65 1788.93,-185.64 1768.64,-185.64 1748.36,-185.64 1731.88,-183.65 1731.88,-181.2 1731.88,-181.2 1731.88,-141.24 1731.88,-141.24 1731.88,-138.79 1748.36,-136.8 1768.64,-136.8 1788.93,-136.8 1805.41,-138.79 1805.41,-141.24 1805.41,-141.24 1805.41,-181.2 1805.41,-181.2"/>
<path fill="none" stroke="#64748b" d="M1805.41,-181.2C1805.41,-178.75 1788.93,-176.76 1768.64,-176.76 1748.36,-176.76 1731.88,-178.75 1731.88,-181.2"/>
<text xml:space="preserve" text-anchor="middle" x="1768.64" y="-162.77" font-family="Helvetica,sans-Serif" font-size="11.00" fill="#f8fafc">DynamoDB</text>
<text xml:space="preserve" text-anchor="middle" x="1768.64" y="-150.77" font-family="Helvetica,sans-Serif" font-size="11.00" fill="#f8fafc">cart state</text>
</g>
<!-- cart&#45;&gt;dynamoCart -->
<g id="edge23" class="edge">
<title>cart&#45;&gt;dynamoCart</title>
<path fill="none" stroke="#94a3b8" d="M1450.64,-151.32C1462.54,-153.68 1475.91,-155.96 1488.25,-157.22 1570.94,-165.66 1668.09,-164.6 1723.31,-162.97"/>
<polygon fill="#94a3b8" stroke="#94a3b8" points="1723.37,-165.42 1730.29,-162.75 1723.22,-160.52 1723.37,-165.42"/>
<text xml:space="preserve" text-anchor="middle" x="1570.75" y="-165.29" font-family="Helvetica,sans-Serif" font-size="9.00" fill="#f8fafc">Read/write cart items</text>
</g>
<!-- account&#45;&gt;ingress -->
<g id="edge29" class="edge">
<title>account&#45;&gt;ingress</title>
<path fill="none" stroke="#94a3b8" d="M1367.51,-52.52C1339.74,-51.5 1304.21,-53.59 1275.47,-66.47 1246.2,-79.6 1221.07,-107.06 1205.37,-127.38"/>
<polygon fill="#94a3b8" stroke="#94a3b8" points="1203.57,-125.69 1201.32,-132.76 1207.49,-128.64 1203.57,-125.69"/>
<text xml:space="preserve" text-anchor="middle" x="1307.72" y="-67.67" font-family="Helvetica,sans-Serif" font-size="9.00" fill="#f8fafc">JSON response</text>
</g>
<!-- dynamoAccount -->
<g id="node19" class="node">
<title>dynamoAccount</title>
<path fill="#166534" stroke="#64748b" d="M1859.03,-98.2C1859.03,-100.65 1818.52,-102.64 1768.64,-102.64 1718.77,-102.64 1678.25,-100.65 1678.25,-98.2 1678.25,-98.2 1678.25,-58.24 1678.25,-58.24 1678.25,-55.79 1718.77,-53.8 1768.64,-53.8 1818.52,-53.8 1859.03,-55.79 1859.03,-58.24 1859.03,-58.24 1859.03,-98.2 1859.03,-98.2"/>
<path fill="none" stroke="#64748b" d="M1859.03,-98.2C1859.03,-95.75 1818.52,-93.76 1768.64,-93.76 1718.77,-93.76 1678.25,-95.75 1678.25,-98.2"/>
<text xml:space="preserve" text-anchor="middle" x="1768.64" y="-79.77" font-family="Helvetica,sans-Serif" font-size="11.00" fill="#f8fafc">DynamoDB</text>
<text xml:space="preserve" text-anchor="middle" x="1768.64" y="-67.77" font-family="Helvetica,sans-Serif" font-size="11.00" fill="#f8fafc">account, address, wallet metadata</text>
</g>
<!-- account&#45;&gt;dynamoAccount -->
<g id="edge25" class="edge">
<title>account&#45;&gt;dynamoAccount</title>
<path fill="none" stroke="#94a3b8" d="M1460.74,-61.91C1469.85,-62.76 1479.35,-63.57 1488.25,-64.22 1548.37,-68.6 1615.86,-72.03 1669.45,-74.39"/>
<polygon fill="#94a3b8" stroke="#94a3b8" points="1669.32,-76.84 1676.42,-74.7 1669.53,-71.94 1669.32,-76.84"/>
<text xml:space="preserve" text-anchor="middle" x="1570.75" y="-74.59" font-family="Helvetica,sans-Serif" font-size="9.00" fill="#f8fafc">Read/write profile, shipping, wallet</text>
</g>
<!-- postgres&#45;&gt;inventory -->
<g id="edge22" class="edge">
<title>postgres&#45;&gt;inventory</title>
<path fill="none" stroke="#94a3b8" d="M1719.1,-264.33C1654.37,-260.47 1540,-253.66 1471.51,-249.58"/>
<polygon fill="#94a3b8" stroke="#94a3b8" points="1472.04,-247.16 1464.9,-249.19 1471.75,-252.05 1472.04,-247.16"/>
</g>
<!-- dynamoCart&#45;&gt;cart -->
<g id="edge24" class="edge">
<title>dynamoCart&#45;&gt;cart</title>
<path fill="none" stroke="#94a3b8" d="M1731.54,-159.38C1666.44,-156.05 1529.58,-149.07 1459.11,-145.47"/>
<polygon fill="#94a3b8" stroke="#94a3b8" points="1459.48,-143.04 1452.37,-145.12 1459.23,-147.93 1459.48,-143.04"/>
</g>
<!-- dynamoAccount&#45;&gt;account -->
<g id="edge26" class="edge">
<title>dynamoAccount&#45;&gt;account</title>
<path fill="none" stroke="#94a3b8" d="M1677.76,-69.12C1669.48,-68.42 1661.22,-67.77 1653.25,-67.22 1589.97,-62.85 1517.09,-60.13 1468.79,-58.65"/>
<polygon fill="#94a3b8" stroke="#94a3b8" points="1468.95,-56.2 1461.88,-58.44 1468.8,-61.1 1468.95,-56.2"/>
</g>
</g>
</svg>
