<?xml version="1.0" encoding="UTF-8" standalone="no"?>
<!DOCTYPE svg PUBLIC "-//W3C//DTD SVG 1.1//EN"
 "http://www.w3.org/Graphics/SVG/1.1/DTD/svg11.dtd">
<!-- Generated by graphviz version 15.0.0 (20260523.1842)
 -->
<!-- Title: request_flow_diagram Pages: 1 -->
<svg width="1909pt" height="621pt"
 viewBox="0.00 0.00 1909.00 621.00" xmlns="http://www.w3.org/2000/svg" xmlns:xlink="http://www.w3.org/1999/xlink">
<g id="graph0" class="graph" transform="scale(1 1) rotate(0) translate(18 602.81)">
<title>request_flow_diagram</title>
<polygon fill="#0b1220" stroke="none" points="-18,18 -18,-602.81 1890.53,-602.81 1890.53,18 -18,18"/>
<text xml:space="preserve" text-anchor="middle" x="936.27" y="-561.81" font-family="Helvetica,sans-Serif" font-size="20.00" fill="#f8fafc">Browser Request Flow Through Backend Services</text>
<!-- browser -->
<g id="node1" class="node">
<title>browser</title>
<path fill="#1e3a8a" stroke="#64748b" d="M115.53,-244.81C115.53,-244.81 12,-244.81 12,-244.81 6,-244.81 0,-238.81 0,-232.81 0,-232.81 0,-220.81 0,-220.81 0,-214.81 6,-208.81 12,-208.81 12,-208.81 115.53,-208.81 115.53,-208.81 121.53,-208.81 127.53,-214.81 127.53,-220.81 127.53,-220.81 127.53,-232.81 127.53,-232.81 127.53,-238.81 121.53,-244.81 115.53,-244.81"/>
<text xml:space="preserve" text-anchor="middle" x="63.77" y="-228.36" font-family="Helvetica,sans-Serif" font-size="11.00" fill="#f8fafc">Browser</text>
<text xml:space="preserve" text-anchor="middle" x="63.77" y="-216.36" font-family="Helvetica,sans-Serif" font-size="11.00" fill="#f8fafc">ensemble&#45;grafana.com</text>
</g>
<!-- dns -->
<g id="node2" class="node">
<title>dns</title>
<path fill="#164e63" stroke="#64748b" d="M357.56,-265.81C357.56,-265.81 299.78,-265.81 299.78,-265.81 293.78,-265.81 287.78,-259.81 287.78,-253.81 287.78,-253.81 287.78,-241.81 287.78,-241.81 287.78,-235.81 293.78,-229.81 299.78,-229.81 299.78,-229.81 357.56,-229.81 357.56,-229.81 363.56,-229.81 369.56,-235.81 369.56,-241.81 369.56,-241.81 369.56,-253.81 369.56,-253.81 369.56,-259.81 363.56,-265.81 357.56,-265.81"/>
<text xml:space="preserve" text-anchor="middle" x="328.67" y="-249.36" font-family="Helvetica,sans-Serif" font-size="11.00" fill="#f8fafc">Route53</text>
<text xml:space="preserve" text-anchor="middle" x="328.67" y="-237.36" font-family="Helvetica,sans-Serif" font-size="11.00" fill="#f8fafc">A/AAAA alias</text>
</g>
<!-- browser&#45;&gt;dns -->
<g id="edge1" class="edge">
<title>browser&#45;&gt;dns</title>
<path fill="none" stroke="#94a3b8" d="M127.77,-223.56C160.34,-222.72 200.68,-223 236.53,-227.06 250.68,-228.66 265.85,-231.6 279.66,-234.78"/>
<polygon fill="#94a3b8" stroke="#94a3b8" points="278.77,-237.09 286.15,-236.32 279.9,-232.32 278.77,-237.09"/>
<text xml:space="preserve" text-anchor="middle" x="194.53" y="-228.26" font-family="Helvetica,sans-Serif" font-size="9.00" fill="#f8fafc">DNS lookup</text>
</g>
<!-- wafEdge -->
<g id="node3" class="node">
<title>wafEdge</title>
<path fill="#7f1d1d" stroke="#64748b" d="M351.94,-338.81C351.94,-338.81 305.41,-338.81 305.41,-338.81 299.41,-338.81 293.41,-332.81 293.41,-326.81 293.41,-326.81 293.41,-314.81 293.41,-314.81 293.41,-308.81 299.41,-302.81 305.41,-302.81 305.41,-302.81 351.94,-302.81 351.94,-302.81 357.94,-302.81 363.94,-308.81 363.94,-314.81 363.94,-314.81 363.94,-326.81 363.94,-326.81 363.94,-332.81 357.94,-338.81 351.94,-338.81"/>
<text xml:space="preserve" text-anchor="middle" x="328.67" y="-322.36" font-family="Helvetica,sans-Serif" font-size="11.00" fill="#f8fafc">AWS WAF</text>
<text xml:space="preserve" text-anchor="middle" x="328.67" y="-310.36" font-family="Helvetica,sans-Serif" font-size="11.00" fill="#f8fafc">edge rules</text>
</g>
<!-- browser&#45;&gt;wafEdge -->
<g id="edge3" class="edge">
<title>browser&#45;&gt;wafEdge</title>
<path fill="none" stroke="#94a3b8" d="M109.68,-245.27C123.38,-250.75 138.52,-256.66 152.53,-261.81 197.47,-278.32 249.52,-295.63 285.13,-307.2"/>
<polygon fill="#94a3b8" stroke="#94a3b8" points="284.06,-309.43 291.48,-309.25 285.57,-304.76 284.06,-309.43"/>
<text xml:space="preserve" text-anchor="middle" x="194.53" y="-291.42" font-family="Helvetica,sans-Serif" font-size="9.00" fill="#f8fafc">HTTPS request</text>
</g>
<!-- cognito -->
<g id="node7" class="node">
<title>cognito</title>
<path fill="#4c1d95" stroke="#64748b" d="M369.94,-419.81C369.94,-419.81 287.41,-419.81 287.41,-419.81 281.41,-419.81 275.41,-413.81 275.41,-407.81 275.41,-407.81 275.41,-395.81 275.41,-395.81 275.41,-389.81 281.41,-383.81 287.41,-383.81 287.41,-383.81 369.94,-383.81 369.94,-383.81 375.94,-383.81 381.94,-389.81 381.94,-395.81 381.94,-395.81 381.94,-407.81 381.94,-407.81 381.94,-413.81 375.94,-419.81 369.94,-419.81"/>
<text xml:space="preserve" text-anchor="middle" x="328.67" y="-403.36" font-family="Helvetica,sans-Serif" font-size="11.00" fill="#f8fafc">Cognito Hosted UI</text>
<text xml:space="preserve" text-anchor="middle" x="328.67" y="-391.36" font-family="Helvetica,sans-Serif" font-size="11.00" fill="#f8fafc">Google federation</text>
</g>
<!-- browser&#45;&gt;cognito -->
<g id="edge4" class="edge">
<title>browser&#45;&gt;cognito</title>
<path fill="none" stroke="#94a3b8" d="M82.09,-245.31C99.01,-262.74 126.02,-288.92 152.53,-307.81 192.81,-336.5 242.88,-362.53 279.15,-379.88"/>
<polygon fill="#94a3b8" stroke="#94a3b8" points="277.93,-382.01 285.3,-382.8 280.03,-377.59 277.93,-382.01"/>
<text xml:space="preserve" text-anchor="middle" x="194.53" y="-359.46" font-family="Helvetica,sans-Serif" font-size="9.00" fill="#f8fafc">OAuth code + PKCE</text>
</g>
<!-- localState -->
<g id="node9" class="node">
<title>localState</title>
<path fill="#0f172a" stroke="#64748b" d="M383.81,-41.81C383.81,-41.81 273.53,-41.81 273.53,-41.81 267.53,-41.81 261.53,-35.81 261.53,-29.81 261.53,-29.81 261.53,-17.81 261.53,-17.81 261.53,-11.81 267.53,-5.81 273.53,-5.81 273.53,-5.81 383.81,-5.81 383.81,-5.81 389.81,-5.81 395.81,-11.81 395.81,-17.81 395.81,-17.81 395.81,-29.81 395.81,-29.81 395.81,-35.81 389.81,-41.81 383.81,-41.81"/>
<text xml:space="preserve" text-anchor="middle" x="328.67" y="-25.36" font-family="Helvetica,sans-Serif" font-size="11.00" fill="#f8fafc">Browser localStorage</text>
<text xml:space="preserve" text-anchor="middle" x="328.67" y="-13.36" font-family="Helvetica,sans-Serif" font-size="11.00" fill="#f8fafc">anonymous cart/account</text>
</g>
<!-- browser&#45;&gt;localState -->
<g id="edge8" class="edge">
<title>browser&#45;&gt;localState</title>
<path fill="none" stroke="#94a3b8" d="M69.34,-208.52C78.79,-174.67 103.79,-102.3 152.53,-65.06 181.13,-43.2 219.47,-32.66 252.99,-27.68"/>
<polygon fill="#94a3b8" stroke="#94a3b8" points="253.29,-30.12 259.9,-26.74 252.63,-25.26 253.29,-30.12"/>
<text xml:space="preserve" text-anchor="middle" x="194.53" y="-66.26" font-family="Helvetica,sans-Serif" font-size="9.00" fill="#f8fafc">anonymous writes</text>
</g>
<!-- dns&#45;&gt;browser -->
<g id="edge2" class="edge">
<title>dns&#45;&gt;browser</title>
<path fill="none" stroke="#94a3b8" d="M287.62,-246.29C252.08,-244.77 198.78,-242.02 152.53,-237.81 147.19,-237.32 141.67,-236.76 136.12,-236.16"/>
<polygon fill="#94a3b8" stroke="#94a3b8" points="136.72,-233.76 129.49,-235.42 136.18,-238.63 136.72,-233.76"/>
<text xml:space="preserve" text-anchor="middle" x="194.53" y="-244.83" font-family="Helvetica,sans-Serif" font-size="9.00" fill="#f8fafc">CloudFront target</text>
</g>
<!-- cf -->
<g id="node4" class="node">
<title>cf</title>
<path fill="#1e3a8a" stroke="#64748b" d="M672.34,-195.81C672.34,-195.81 547.81,-195.81 547.81,-195.81 541.81,-195.81 535.81,-189.81 535.81,-183.81 535.81,-183.81 535.81,-171.81 535.81,-171.81 535.81,-165.81 541.81,-159.81 547.81,-159.81 547.81,-159.81 672.34,-159.81 672.34,-159.81 678.34,-159.81 684.34,-165.81 684.34,-171.81 684.34,-171.81 684.34,-183.81 684.34,-183.81 684.34,-189.81 678.34,-195.81 672.34,-195.81"/>
<text xml:space="preserve" text-anchor="middle" x="610.08" y="-179.36" font-family="Helvetica,sans-Serif" font-size="11.00" fill="#f8fafc">CloudFront</text>
<text xml:space="preserve" text-anchor="middle" x="610.08" y="-167.36" font-family="Helvetica,sans-Serif" font-size="11.00" fill="#f8fafc">HTTPS + static/API routing</text>
</g>
<!-- wafEdge&#45;&gt;cf -->
<g id="edge11" class="edge">
<title>wafEdge&#45;&gt;cf</title>
<path fill="none" stroke="#94a3b8" d="M364.21,-303.13C415.11,-277.08 510.21,-228.41 565.73,-199.99"/>
<polygon fill="#94a3b8" stroke="#94a3b8" points="566.83,-202.18 571.94,-196.81 564.6,-197.82 566.83,-202.18"/>
</g>
<!-- cf&#45;&gt;browser -->
<g id="edge15" class="edge">
<title>cf&#45;&gt;browser</title>
<path fill="none" stroke="#94a3b8" d="M535.38,-182.13C444.99,-187.82 287.19,-198.97 152.53,-214.81 147.19,-215.44 141.68,-216.12 136.14,-216.82"/>
<polygon fill="#94a3b8" stroke="#94a3b8" points="136.14,-214.35 129.51,-217.68 136.76,-219.21 136.14,-214.35"/>
<text xml:space="preserve" text-anchor="middle" x="328.67" y="-204.34" font-family="Helvetica,sans-Serif" font-size="9.00" fill="#f8fafc">Storefront response</text>
</g>
<!-- cf&#45;&gt;browser -->
<g id="edge32" class="edge">
<title>cf&#45;&gt;browser</title>
<path fill="none" stroke="#94a3b8" d="M535.66,-173.03C444.55,-168.93 285.02,-167.7 152.53,-197.81 142.87,-200 132.77,-202.83 123,-205.84"/>
<polygon fill="#94a3b8" stroke="#94a3b8" points="122.26,-203.51 116.33,-207.96 123.74,-208.18 122.26,-203.51"/>
</g>
<!-- apiPath -->
<g id="node5" class="node">
<title>apiPath</title>
<path fill="#7c2d12" stroke="#64748b" d="M771.78,-191.57C771.78,-191.57 746.57,-182.05 746.57,-182.05 740.95,-179.93 740.95,-175.69 746.57,-173.57 746.57,-173.57 771.78,-164.05 771.78,-164.05 777.39,-161.93 788.62,-161.93 794.23,-164.05 794.23,-164.05 819.44,-173.57 819.44,-173.57 825.05,-175.69 825.05,-179.93 819.44,-182.05 819.44,-182.05 794.23,-191.57 794.23,-191.57 788.62,-193.69 777.39,-193.69 771.78,-191.57"/>
<text xml:space="preserve" text-anchor="middle" x="783" y="-173.36" font-family="Helvetica,sans-Serif" font-size="11.00" fill="#f8fafc">/api/* ?</text>
</g>
<!-- cf&#45;&gt;apiPath -->
<g id="edge12" class="edge">
<title>cf&#45;&gt;apiPath</title>
<path fill="none" stroke="#94a3b8" d="M684.56,-177.81C698.36,-177.81 712.59,-177.81 725.77,-177.81"/>
<polygon fill="#94a3b8" stroke="#94a3b8" points="725.75,-180.26 732.75,-177.81 725.75,-175.36 725.75,-180.26"/>
</g>
<!-- s3 -->
<g id="node6" class="node">
<title>s3</title>
<path fill="#713f12" stroke="#64748b" d="M1074.19,-258.81C1074.19,-258.81 984.16,-258.81 984.16,-258.81 978.16,-258.81 972.16,-252.81 972.16,-246.81 972.16,-246.81 972.16,-234.81 972.16,-234.81 972.16,-228.81 978.16,-222.81 984.16,-222.81 984.16,-222.81 1074.19,-222.81 1074.19,-222.81 1080.19,-222.81 1086.19,-228.81 1086.19,-234.81 1086.19,-234.81 1086.19,-246.81 1086.19,-246.81 1086.19,-252.81 1080.19,-258.81 1074.19,-258.81"/>
<text xml:space="preserve" text-anchor="middle" x="1029.18" y="-242.36" font-family="Helvetica,sans-Serif" font-size="11.00" fill="#f8fafc">S3 frontend origin</text>
<text xml:space="preserve" text-anchor="middle" x="1029.18" y="-230.36" font-family="Helvetica,sans-Serif" font-size="11.00" fill="#f8fafc">index.html, JS, CSS</text>
</g>
<!-- apiPath&#45;&gt;s3 -->
<g id="edge13" class="edge">
<title>apiPath&#45;&gt;s3</title>
<path fill="none" stroke="#94a3b8" d="M812.49,-185.16C849.31,-194.66 914.53,-211.49 963.64,-224.16"/>
<polygon fill="#94a3b8" stroke="#94a3b8" points="962.82,-226.48 970.21,-225.85 964.05,-221.73 962.82,-226.48"/>
<text xml:space="preserve" text-anchor="middle" x="901.41" y="-219.83" font-family="Helvetica,sans-Serif" font-size="9.00" fill="#f8fafc">No: static route</text>
</g>
<!-- apiWaf -->
<g id="node10" class="node">
<title>apiWaf</title>
<path fill="#7f1d1d" stroke="#64748b" d="M1068.19,-169.81C1068.19,-169.81 990.16,-169.81 990.16,-169.81 984.16,-169.81 978.16,-163.81 978.16,-157.81 978.16,-157.81 978.16,-145.81 978.16,-145.81 978.16,-139.81 984.16,-133.81 990.16,-133.81 990.16,-133.81 1068.19,-133.81 1068.19,-133.81 1074.19,-133.81 1080.19,-139.81 1080.19,-145.81 1080.19,-145.81 1080.19,-157.81 1080.19,-157.81 1080.19,-163.81 1074.19,-169.81 1068.19,-169.81"/>
<text xml:space="preserve" text-anchor="middle" x="1029.18" y="-153.36" font-family="Helvetica,sans-Serif" font-size="11.00" fill="#f8fafc">AWS WAF</text>
<text xml:space="preserve" text-anchor="middle" x="1029.18" y="-141.36" font-family="Helvetica,sans-Serif" font-size="11.00" fill="#f8fafc">regional API rules</text>
</g>
<!-- apiPath&#45;&gt;apiWaf -->
<g id="edge16" class="edge">
<title>apiPath&#45;&gt;apiWaf</title>
<path fill="none" stroke="#94a3b8" d="M816.75,-172.02C828.94,-170.01 842.91,-167.87 855.66,-166.31 893.48,-161.69 936.14,-158.09 969.58,-155.63"/>
<polygon fill="#94a3b8" stroke="#94a3b8" points="969.56,-158.09 976.37,-155.14 969.21,-153.2 969.56,-158.09"/>
<text xml:space="preserve" text-anchor="middle" x="901.41" y="-177.26" font-family="Helvetica,sans-Serif" font-size="9.00" fill="#f8fafc">Yes: /api/*</text>
<text xml:space="preserve" text-anchor="middle" x="901.41" y="-167.51" font-family="Helvetica,sans-Serif" font-size="9.00" fill="#f8fafc">Bearer JWT or API key</text>
</g>
<!-- s3&#45;&gt;cf -->
<g id="edge14" class="edge">
<title>s3&#45;&gt;cf</title>
<path fill="none" stroke="#94a3b8" d="M971.67,-242.08C937.9,-242.19 894.21,-241.22 855.66,-236.81 801.4,-230.59 788.45,-224.58 735.34,-211.81 718.61,-207.79 700.72,-203.11 683.87,-198.54"/>
<polygon fill="#94a3b8" stroke="#94a3b8" points="684.55,-196.19 677.16,-196.71 683.26,-200.91 684.55,-196.19"/>
<text xml:space="preserve" text-anchor="middle" x="783" y="-234.67" font-family="Helvetica,sans-Serif" font-size="9.00" fill="#f8fafc">HTML/assets</text>
</g>
<!-- cognito&#45;&gt;browser -->
<g id="edge7" class="edge">
<title>cognito&#45;&gt;browser</title>
<path fill="none" stroke="#94a3b8" d="M275.16,-405.44C237.95,-405.46 188.47,-400.03 152.53,-375.81 108.74,-346.3 83.69,-287 72.3,-252.78"/>
<polygon fill="#94a3b8" stroke="#94a3b8" points="74.76,-252.41 70.29,-246.5 70.09,-253.91 74.76,-252.41"/>
<text xml:space="preserve" text-anchor="middle" x="194.53" y="-404.14" font-family="Helvetica,sans-Serif" font-size="9.00" fill="#f8fafc">Cognito JWTs</text>
</g>
<!-- google -->
<g id="node8" class="node">
<title>google</title>
<path fill="#4c1d95" stroke="#64748b" d="M633.72,-418.81C633.72,-418.81 586.44,-418.81 586.44,-418.81 580.44,-418.81 574.44,-412.81 574.44,-406.81 574.44,-406.81 574.44,-394.81 574.44,-394.81 574.44,-388.81 580.44,-382.81 586.44,-382.81 586.44,-382.81 633.72,-382.81 633.72,-382.81 639.72,-382.81 645.72,-388.81 645.72,-394.81 645.72,-394.81 645.72,-406.81 645.72,-406.81 645.72,-412.81 639.72,-418.81 633.72,-418.81"/>
<text xml:space="preserve" text-anchor="middle" x="610.08" y="-396.36" font-family="Helvetica,sans-Serif" font-size="11.00" fill="#f8fafc">Google IdP</text>
</g>
<!-- cognito&#45;&gt;google -->
<g id="edge5" class="edge">
<title>cognito&#45;&gt;google</title>
<path fill="none" stroke="#94a3b8" d="M382.23,-385.68C394.76,-382.52 408.16,-379.68 420.81,-378.06 460.49,-372.97 471.07,-373.52 510.81,-378.06 529.05,-380.14 548.83,-384.34 565.83,-388.56"/>
<polygon fill="#94a3b8" stroke="#94a3b8" points="565.08,-390.9 572.47,-390.25 566.29,-386.15 565.08,-390.9"/>
<text xml:space="preserve" text-anchor="middle" x="465.81" y="-379.26" font-family="Helvetica,sans-Serif" font-size="9.00" fill="#f8fafc">Google authentication</text>
</g>
<!-- google&#45;&gt;cognito -->
<g id="edge6" class="edge">
<title>google&#45;&gt;cognito</title>
<path fill="none" stroke="#94a3b8" d="M574,-400.93C528.06,-401.1 446.78,-401.39 390.66,-401.59"/>
<polygon fill="#94a3b8" stroke="#94a3b8" points="390.73,-399.14 383.74,-401.62 390.75,-404.04 390.73,-399.14"/>
<text xml:space="preserve" text-anchor="middle" x="465.81" y="-402.66" font-family="Helvetica,sans-Serif" font-size="9.00" fill="#f8fafc">identity claims</text>
</g>
<!-- localState&#45;&gt;browser -->
<g id="edge9" class="edge">
<title>localState&#45;&gt;browser</title>
<path fill="none" stroke="#94a3b8" d="M267.33,-5.34C231.15,1.96 185.85,4.08 152.53,-18.06 90.54,-59.24 72.24,-153.66 66.91,-200.07"/>
<polygon fill="#94a3b8" stroke="#94a3b8" points="64.49,-199.69 66.19,-206.91 69.36,-200.2 64.49,-199.69"/>
<text xml:space="preserve" text-anchor="middle" x="194.53" y="-19.26" font-family="Helvetica,sans-Serif" font-size="9.00" fill="#f8fafc">restore local state</text>
</g>
<!-- apiWaf&#45;&gt;cf -->
<g id="edge31" class="edge">
<title>apiWaf&#45;&gt;cf</title>
<path fill="none" stroke="#94a3b8" d="M977.92,-145.56C919.38,-139.41 819.9,-132.45 735.34,-143.81 715.17,-146.52 693.63,-151.6 674.26,-157.02"/>
<polygon fill="#94a3b8" stroke="#94a3b8" points="673.6,-154.66 667.55,-158.94 674.95,-159.37 673.6,-154.66"/>
</g>
<!-- ingress -->
<g id="node11" class="node">
<title>ingress</title>
<path fill="#3730a3" stroke="#64748b" d="M1251.97,-169.81C1251.97,-169.81 1149.19,-169.81 1149.19,-169.81 1143.19,-169.81 1137.19,-163.81 1137.19,-157.81 1137.19,-157.81 1137.19,-145.81 1137.19,-145.81 1137.19,-139.81 1143.19,-133.81 1149.19,-133.81 1149.19,-133.81 1251.97,-133.81 1251.97,-133.81 1257.97,-133.81 1263.97,-139.81 1263.97,-145.81 1263.97,-145.81 1263.97,-157.81 1263.97,-157.81 1263.97,-163.81 1257.97,-169.81 1251.97,-169.81"/>
<text xml:space="preserve" text-anchor="middle" x="1200.58" y="-147.36" font-family="Helvetica,sans-Serif" font-size="11.00" fill="#f8fafc">EKS API ingress / ALB</text>
</g>
<!-- apiWaf&#45;&gt;ingress -->
<g id="edge17" class="edge">
<title>apiWaf&#45;&gt;ingress</title>
<path fill="none" stroke="#94a3b8" d="M1080.55,-140.73C1095.58,-139.88 1112.35,-139.62 1128.45,-139.95"/>
<polygon fill="#94a3b8" stroke="#94a3b8" points="1128.22,-142.39 1135.28,-140.13 1128.35,-137.49 1128.22,-142.39"/>
</g>
<!-- ingress&#45;&gt;apiWaf -->
<g id="edge30" class="edge">
<title>ingress&#45;&gt;apiWaf</title>
<path fill="none" stroke="#94a3b8" d="M1136.79,-163.44C1121.15,-163.98 1104.43,-163.93 1088.98,-163.3"/>
<polygon fill="#94a3b8" stroke="#94a3b8" points="1089.17,-160.85 1082.06,-162.96 1088.93,-165.75 1089.17,-160.85"/>
</g>
<!-- inventory -->
<g id="node14" class="node">
<title>inventory</title>
<path fill="#14532d" stroke="#64748b" d="M1464.75,-263.81C1464.75,-263.81 1390.47,-263.81 1390.47,-263.81 1384.47,-263.81 1378.47,-257.81 1378.47,-251.81 1378.47,-251.81 1378.47,-239.81 1378.47,-239.81 1378.47,-233.81 1384.47,-227.81 1390.47,-227.81 1390.47,-227.81 1464.75,-227.81 1464.75,-227.81 1470.75,-227.81 1476.75,-233.81 1476.75,-239.81 1476.75,-239.81 1476.75,-251.81 1476.75,-251.81 1476.75,-257.81 1470.75,-263.81 1464.75,-263.81"/>
<text xml:space="preserve" text-anchor="middle" x="1427.61" y="-247.36" font-family="Helvetica,sans-Serif" font-size="11.00" fill="#f8fafc">inventory&#45;service</text>
<text xml:space="preserve" text-anchor="middle" x="1427.61" y="-235.36" font-family="Helvetica,sans-Serif" font-size="11.00" fill="#f8fafc">/api/inventory/*</text>
</g>
<!-- ingress&#45;&gt;inventory -->
<g id="edge18" class="edge">
<title>ingress&#45;&gt;inventory</title>
<path fill="none" stroke="#94a3b8" d="M1214.98,-170.22C1230.39,-189.79 1257.63,-219.8 1288.97,-233.81 1314.07,-245.02 1344.28,-248.6 1369.99,-249.14"/>
<polygon fill="#94a3b8" stroke="#94a3b8" points="1369.64,-251.58 1376.66,-249.19 1369.68,-246.68 1369.64,-251.58"/>
<text xml:space="preserve" text-anchor="middle" x="1321.22" y="-249.36" font-family="Helvetica,sans-Serif" font-size="9.00" fill="#f8fafc">/api/inventory/*</text>
</g>
<!-- cart -->
<g id="node15" class="node">
<title>cart</title>
<path fill="#14532d" stroke="#64748b" d="M1452,-160.81C1452,-160.81 1403.22,-160.81 1403.22,-160.81 1397.22,-160.81 1391.22,-154.81 1391.22,-148.81 1391.22,-148.81 1391.22,-136.81 1391.22,-136.81 1391.22,-130.81 1397.22,-124.81 1403.22,-124.81 1403.22,-124.81 1452,-124.81 1452,-124.81 1458,-124.81 1464,-130.81 1464,-136.81 1464,-136.81 1464,-148.81 1464,-148.81 1464,-154.81 1458,-160.81 1452,-160.81"/>
<text xml:space="preserve" text-anchor="middle" x="1427.61" y="-144.36" font-family="Helvetica,sans-Serif" font-size="11.00" fill="#f8fafc">cart&#45;service</text>
<text xml:space="preserve" text-anchor="middle" x="1427.61" y="-132.36" font-family="Helvetica,sans-Serif" font-size="11.00" fill="#f8fafc">/api/cart/*</text>
</g>
<!-- ingress&#45;&gt;cart -->
<g id="edge19" class="edge">
<title>ingress&#45;&gt;cart</title>
<path fill="none" stroke="#94a3b8" d="M1264.27,-149.3C1301.91,-147.8 1348.88,-145.92 1382.6,-144.57"/>
<polygon fill="#94a3b8" stroke="#94a3b8" points="1382.47,-147.03 1389.36,-144.3 1382.27,-142.13 1382.47,-147.03"/>
<text xml:space="preserve" text-anchor="middle" x="1321.22" y="-149.31" font-family="Helvetica,sans-Serif" font-size="9.00" fill="#f8fafc">/api/cart/*</text>
</g>
<!-- account -->
<g id="node16" class="node">
<title>account</title>
<path fill="#14532d" stroke="#64748b" d="M1461.75,-74.81C1461.75,-74.81 1393.47,-74.81 1393.47,-74.81 1387.47,-74.81 1381.47,-68.81 1381.47,-62.81 1381.47,-62.81 1381.47,-50.81 1381.47,-50.81 1381.47,-44.81 1387.47,-38.81 1393.47,-38.81 1393.47,-38.81 1461.75,-38.81 1461.75,-38.81 1467.75,-38.81 1473.75,-44.81 1473.75,-50.81 1473.75,-50.81 1473.75,-62.81 1473.75,-62.81 1473.75,-68.81 1467.75,-74.81 1461.75,-74.81"/>
<text xml:space="preserve" text-anchor="middle" x="1427.61" y="-58.36" font-family="Helvetica,sans-Serif" font-size="11.00" fill="#f8fafc">account&#45;service</text>
<text xml:space="preserve" text-anchor="middle" x="1427.61" y="-46.36" font-family="Helvetica,sans-Serif" font-size="11.00" fill="#f8fafc">/api/account/*</text>
</g>
<!-- ingress&#45;&gt;account -->
<g id="edge20" class="edge">
<title>ingress&#45;&gt;account</title>
<path fill="none" stroke="#94a3b8" d="M1237.38,-133.37C1253.06,-125.54 1271.77,-116.51 1288.97,-109.06 1316.5,-97.13 1347.71,-85.16 1373.45,-75.69"/>
<polygon fill="#94a3b8" stroke="#94a3b8" points="1374.1,-78.06 1379.83,-73.35 1372.41,-73.46 1374.1,-78.06"/>
<text xml:space="preserve" text-anchor="middle" x="1321.22" y="-110.26" font-family="Helvetica,sans-Serif" font-size="9.00" fill="#f8fafc">/api/account/*</text>
</g>
<!-- k6 -->
<g id="node12" class="node">
<title>k6</title>
<path fill="#6b21a8" stroke="#64748b" d="M102.78,-529.57C102.78,-529.57 24.75,-529.57 24.75,-529.57 18.75,-529.57 12.75,-523.57 12.75,-517.57 12.75,-517.57 12.75,-482.05 12.75,-482.05 12.75,-476.05 18.75,-470.05 24.75,-470.05 24.75,-470.05 102.78,-470.05 102.78,-470.05 108.78,-470.05 114.78,-476.05 114.78,-482.05 114.78,-482.05 114.78,-517.57 114.78,-517.57 114.78,-523.57 108.78,-529.57 102.78,-529.57"/>
<text xml:space="preserve" text-anchor="middle" x="63.77" y="-513.36" font-family="Helvetica,sans-Serif" font-size="11.00" fill="#f8fafc">Grafana Cloud k6</text>
<text xml:space="preserve" text-anchor="middle" x="63.77" y="-501.36" font-family="Helvetica,sans-Serif" font-size="11.00" fill="#f8fafc">regional, spike,</text>
<text xml:space="preserve" text-anchor="middle" x="63.77" y="-489.36" font-family="Helvetica,sans-Serif" font-size="11.00" fill="#f8fafc">5 rps baseline,</text>
<text xml:space="preserve" text-anchor="middle" x="63.77" y="-477.36" font-family="Helvetica,sans-Serif" font-size="11.00" fill="#f8fafc">browser checks</text>
</g>
<!-- k6&#45;&gt;wafEdge -->
<g id="edge10" class="edge">
<title>k6&#45;&gt;wafEdge</title>
<path fill="none" stroke="#94a3b8" d="M115.18,-478.71C162.44,-458.6 227.2,-430.05 236.53,-420.81 255.04,-402.48 244.81,-387.78 261.53,-367.81 269.02,-358.86 278.6,-350.77 288.12,-343.94"/>
<polygon fill="#94a3b8" stroke="#94a3b8" points="289.4,-346.03 293.77,-340.04 286.61,-342 289.4,-346.03"/>
<text xml:space="preserve" text-anchor="middle" x="194.53" y="-491.98" font-family="Helvetica,sans-Serif" font-size="9.00" fill="#f8fafc">Synthetic load</text>
<text xml:space="preserve" text-anchor="middle" x="194.53" y="-482.23" font-family="Helvetica,sans-Serif" font-size="9.00" fill="#f8fafc">5 rps baseline</text>
<text xml:space="preserve" text-anchor="middle" x="194.53" y="-472.48" font-family="Helvetica,sans-Serif" font-size="9.00" fill="#f8fafc">HTTPS + /api/*</text>
<text xml:space="preserve" text-anchor="middle" x="194.53" y="-462.73" font-family="Helvetica,sans-Serif" font-size="9.00" fill="#f8fafc">with traceparent</text>
</g>
<!-- grafana -->
<g id="node13" class="node">
<title>grafana</title>
<path fill="#6b21a8" stroke="#64748b" d="M375.19,-555.81C375.19,-555.81 282.16,-555.81 282.16,-555.81 276.16,-555.81 270.16,-549.81 270.16,-543.81 270.16,-543.81 270.16,-531.81 270.16,-531.81 270.16,-525.81 276.16,-519.81 282.16,-519.81 282.16,-519.81 375.19,-519.81 375.19,-519.81 381.19,-519.81 387.19,-525.81 387.19,-531.81 387.19,-531.81 387.19,-543.81 387.19,-543.81 387.19,-549.81 381.19,-555.81 375.19,-555.81"/>
<text xml:space="preserve" text-anchor="middle" x="328.67" y="-539.36" font-family="Helvetica,sans-Serif" font-size="11.00" fill="#f8fafc">Grafana Cloud</text>
<text xml:space="preserve" text-anchor="middle" x="328.67" y="-527.36" font-family="Helvetica,sans-Serif" font-size="11.00" fill="#f8fafc">results and telemetry</text>
</g>
<!-- k6&#45;&gt;grafana -->
<g id="edge33" class="edge">
<title>k6&#45;&gt;grafana</title>
<path fill="none" stroke="#94a3b8" d="M115.14,-507.09C156.69,-513.1 215.97,-521.66 261.37,-528.23"/>
<polygon fill="#94a3b8" stroke="#94a3b8" points="260.9,-530.63 268.18,-529.21 261.6,-525.78 260.9,-530.63"/>
<text xml:space="preserve" text-anchor="middle" x="194.53" y="-535.38" font-family="Helvetica,sans-Serif" font-size="9.00" fill="#f8fafc">k6 result metrics</text>
<text xml:space="preserve" text-anchor="middle" x="194.53" y="-525.63" font-family="Helvetica,sans-Serif" font-size="9.00" fill="#f8fafc">and trace correlation</text>
</g>
<!-- inventory&#45;&gt;ingress -->
<g id="edge27" class="edge">
<title>inventory&#45;&gt;ingress</title>
<path fill="none" stroke="#94a3b8" d="M1382.53,-227.39C1345.48,-211.92 1292.46,-189.77 1253.39,-173.45"/>
<polygon fill="#94a3b8" stroke="#94a3b8" points="1254.57,-171.29 1247.17,-170.85 1252.69,-175.81 1254.57,-171.29"/>
<text xml:space="preserve" text-anchor="middle" x="1321.22" y="-213.92" font-family="Helvetica,sans-Serif" font-size="9.00" fill="#f8fafc">JSON response</text>
</g>
<!-- postgres -->
<g id="node17" class="node">
<title>postgres</title>
<path fill="#166534" stroke="#64748b" d="M1831.28,-286.79C1831.28,-289.24 1809.26,-291.23 1782.14,-291.23 1755.03,-291.23 1733,-289.24 1733,-286.79 1733,-286.79 1733,-246.83 1733,-246.83 1733,-244.38 1755.03,-242.39 1782.14,-242.39 1809.26,-242.39 1831.28,-244.38 1831.28,-246.83 1831.28,-246.83 1831.28,-286.79 1831.28,-286.79"/>
<path fill="none" stroke="#64748b" d="M1831.28,-286.79C1831.28,-284.34 1809.26,-282.35 1782.14,-282.35 1755.03,-282.35 1733,-284.34 1733,-286.79"/>
<text xml:space="preserve" text-anchor="middle" x="1782.14" y="-268.36" font-family="Helvetica,sans-Serif" font-size="11.00" fill="#f8fafc">Postgres</text>
<text xml:space="preserve" text-anchor="middle" x="1782.14" y="-256.36" font-family="Helvetica,sans-Serif" font-size="11.00" fill="#f8fafc">inventory catalog</text>
</g>
<!-- inventory&#45;&gt;postgres -->
<g id="edge21" class="edge">
<title>inventory&#45;&gt;postgres</title>
<path fill="none" stroke="#94a3b8" d="M1476.89,-254.64C1485.16,-255.89 1493.69,-257.02 1501.75,-257.81 1578.48,-265.31 1667.56,-266.96 1724.12,-267.14"/>
<polygon fill="#94a3b8" stroke="#94a3b8" points="1724.05,-269.59 1731.05,-267.16 1724.06,-264.69 1724.05,-269.59"/>
<text xml:space="preserve" text-anchor="middle" x="1584.25" y="-267.56" font-family="Helvetica,sans-Serif" font-size="9.00" fill="#f8fafc">Read products, categories, stock, pricing</text>
</g>
<!-- cart&#45;&gt;ingress -->
<g id="edge28" class="edge">
<title>cart&#45;&gt;ingress</title>
<path fill="none" stroke="#94a3b8" d="M1391.09,-134.76C1379.2,-132.43 1365.82,-130.21 1353.47,-129.06 1324.93,-126.4 1317.41,-125.42 1288.97,-129.06 1283.54,-129.75 1277.96,-130.68 1272.38,-131.77"/>
<polygon fill="#94a3b8" stroke="#94a3b8" points="1272.06,-129.34 1265.7,-133.16 1273.05,-134.13 1272.06,-129.34"/>
<text xml:space="preserve" text-anchor="middle" x="1321.22" y="-130.26" font-family="Helvetica,sans-Serif" font-size="9.00" fill="#f8fafc">JSON response</text>
</g>
<!-- dynamoCart -->
<g id="node18" class="node">
<title>dynamoCart</title>
<path fill="#166534" stroke="#64748b" d="M1818.91,-180.79C1818.91,-183.24 1802.43,-185.23 1782.14,-185.23 1761.86,-185.23 1745.38,-183.24 1745.38,-180.79 1745.38,-180.79 1745.38,-140.83 1745.38,-140.83 1745.38,-138.38 1761.86,-136.39 1782.14,-136.39 1802.43,-136.39 1818.91,-138.38 1818.91,-140.83 1818.91,-140.83 1818.91,-180.79 1818.91,-180.79"/>
<path fill="none" stroke="#64748b" d="M1818.91,-180.79C1818.91,-178.34 1802.43,-176.35 1782.14,-176.35 1761.86,-176.35 1745.38,-178.34 1745.38,-180.79"/>
<text xml:space="preserve" text-anchor="middle" x="1782.14" y="-162.36" font-family="Helvetica,sans-Serif" font-size="11.00" fill="#f8fafc">DynamoDB</text>
<text xml:space="preserve" text-anchor="middle" x="1782.14" y="-150.36" font-family="Helvetica,sans-Serif" font-size="11.00" fill="#f8fafc">cart state</text>
</g>
<!-- cart&#45;&gt;dynamoCart -->
<g id="edge23" class="edge">
<title>cart&#45;&gt;dynamoCart</title>
<path fill="none" stroke="#94a3b8" d="M1464.14,-150.9C1476.04,-153.26 1489.41,-155.55 1501.75,-156.81 1584.44,-165.25 1681.59,-164.18 1736.81,-162.56"/>
<polygon fill="#94a3b8" stroke="#94a3b8" points="1736.87,-165 1743.79,-162.34 1736.72,-160.11 1736.87,-165"/>
<text xml:space="preserve" text-anchor="middle" x="1584.25" y="-164.88" font-family="Helvetica,sans-Serif" font-size="9.00" fill="#f8fafc">Read/write cart items</text>
</g>
<!-- account&#45;&gt;ingress -->
<g id="edge29" class="edge">
<title>account&#45;&gt;ingress</title>
<path fill="none" stroke="#94a3b8" d="M1381.01,-52.1C1353.24,-51.08 1317.71,-53.17 1288.97,-66.06 1259.7,-79.19 1234.57,-106.64 1218.87,-126.97"/>
<polygon fill="#94a3b8" stroke="#94a3b8" points="1217.07,-125.28 1214.82,-132.35 1220.99,-128.22 1217.07,-125.28"/>
<text xml:space="preserve" text-anchor="middle" x="1321.22" y="-67.26" font-family="Helvetica,sans-Serif" font-size="9.00" fill="#f8fafc">JSON response</text>
</g>
<!-- dynamoAccount -->
<g id="node19" class="node">
<title>dynamoAccount</title>
<path fill="#166534" stroke="#64748b" d="M1872.53,-97.79C1872.53,-100.24 1832.02,-102.23 1782.14,-102.23 1732.27,-102.23 1691.75,-100.24 1691.75,-97.79 1691.75,-97.79 1691.75,-57.83 1691.75,-57.83 1691.75,-55.38 1732.27,-53.39 1782.14,-53.39 1832.02,-53.39 1872.53,-55.38 1872.53,-57.83 1872.53,-57.83 1872.53,-97.79 1872.53,-97.79"/>
<path fill="none" stroke="#64748b" d="M1872.53,-97.79C1872.53,-95.34 1832.02,-93.35 1782.14,-93.35 1732.27,-93.35 1691.75,-95.34 1691.75,-97.79"/>
<text xml:space="preserve" text-anchor="middle" x="1782.14" y="-79.36" font-family="Helvetica,sans-Serif" font-size="11.00" fill="#f8fafc">DynamoDB</text>
<text xml:space="preserve" text-anchor="middle" x="1782.14" y="-67.36" font-family="Helvetica,sans-Serif" font-size="11.00" fill="#f8fafc">account, address, wallet metadata</text>
</g>
<!-- account&#45;&gt;dynamoAccount -->
<g id="edge25" class="edge">
<title>account&#45;&gt;dynamoAccount</title>
<path fill="none" stroke="#94a3b8" d="M1474.24,-61.5C1483.35,-62.34 1492.85,-63.16 1501.75,-63.81 1561.87,-68.19 1629.36,-71.61 1682.95,-73.98"/>
<polygon fill="#94a3b8" stroke="#94a3b8" points="1682.82,-76.42 1689.92,-74.28 1683.03,-71.53 1682.82,-76.42"/>
<text xml:space="preserve" text-anchor="middle" x="1584.25" y="-74.17" font-family="Helvetica,sans-Serif" font-size="9.00" fill="#f8fafc">Read/write profile, shipping, wallet</text>
</g>
<!-- postgres&#45;&gt;inventory -->
<g id="edge22" class="edge">
<title>postgres&#45;&gt;inventory</title>
<path fill="none" stroke="#94a3b8" d="M1732.6,-263.92C1667.87,-260.06 1553.5,-253.25 1485.01,-249.17"/>
<polygon fill="#94a3b8" stroke="#94a3b8" points="1485.54,-246.75 1478.4,-248.77 1485.25,-251.64 1485.54,-246.75"/>
</g>
<!-- dynamoCart&#45;&gt;cart -->
<g id="edge24" class="edge">
<title>dynamoCart&#45;&gt;cart</title>
<path fill="none" stroke="#94a3b8" d="M1745.04,-158.97C1679.94,-155.64 1543.08,-148.65 1472.61,-145.06"/>
<polygon fill="#94a3b8" stroke="#94a3b8" points="1472.98,-142.62 1465.87,-144.71 1472.73,-147.51 1472.98,-142.62"/>
</g>
<!-- dynamoAccount&#45;&gt;account -->
<g id="edge26" class="edge">
<title>dynamoAccount&#45;&gt;account</title>
<path fill="none" stroke="#94a3b8" d="M1691.26,-68.7C1682.98,-68 1674.72,-67.36 1666.75,-66.81 1603.47,-62.44 1530.59,-59.72 1482.29,-58.24"/>
<polygon fill="#94a3b8" stroke="#94a3b8" points="1482.45,-55.79 1475.38,-58.03 1482.3,-60.69 1482.45,-55.79"/>
</g>
</g>
</svg>
