<?xml version="1.0" encoding="UTF-8" standalone="no"?>
<!DOCTYPE svg PUBLIC "-//W3C//DTD SVG 1.1//EN"
 "http://www.w3.org/Graphics/SVG/1.1/DTD/svg11.dtd">
<!-- Generated by graphviz version 15.0.0 (20260523.1842)
 -->
<!-- Title: request_flow_diagram Pages: 1 -->
<svg width="1931pt" height="507pt"
 viewBox="0.00 0.00 1931.00 507.00" xmlns="http://www.w3.org/2000/svg" xmlns:xlink="http://www.w3.org/1999/xlink">
<g id="graph0" class="graph" transform="scale(1 1) rotate(0) translate(18 489)">
<title>request_flow_diagram</title>
<polygon fill="#0b1220" stroke="none" points="-18,18 -18,-489 1913.03,-489 1913.03,18 -18,18"/>
<text xml:space="preserve" text-anchor="middle" x="947.52" y="-448" font-family="Helvetica,sans-Serif" font-size="20.00" fill="#f8fafc">Browser Request Flow Through Backend Services</text>
<!-- browser -->
<g id="node1" class="node">
<title>browser</title>
<path fill="#1e3a8a" stroke="#64748b" d="M135.41,-326C135.41,-326 31.88,-326 31.88,-326 25.88,-326 19.88,-320 19.88,-314 19.88,-314 19.88,-302 19.88,-302 19.88,-296 25.88,-290 31.88,-290 31.88,-290 135.41,-290 135.41,-290 141.41,-290 147.41,-296 147.41,-302 147.41,-302 147.41,-314 147.41,-314 147.41,-320 141.41,-326 135.41,-326"/>
<text xml:space="preserve" text-anchor="middle" x="83.64" y="-309.55" font-family="Helvetica,sans-Serif" font-size="11.00" fill="#f8fafc">Browser</text>
<text xml:space="preserve" text-anchor="middle" x="83.64" y="-297.55" font-family="Helvetica,sans-Serif" font-size="11.00" fill="#f8fafc">ensemble&#45;grafana.com</text>
</g>
<!-- dns -->
<g id="node2" class="node">
<title>dns</title>
<path fill="#164e63" stroke="#64748b" d="M388.69,-279C388.69,-279 330.91,-279 330.91,-279 324.91,-279 318.91,-273 318.91,-267 318.91,-267 318.91,-255 318.91,-255 318.91,-249 324.91,-243 330.91,-243 330.91,-243 388.69,-243 388.69,-243 394.69,-243 400.69,-249 400.69,-255 400.69,-255 400.69,-267 400.69,-267 400.69,-273 394.69,-279 388.69,-279"/>
<text xml:space="preserve" text-anchor="middle" x="359.8" y="-262.55" font-family="Helvetica,sans-Serif" font-size="11.00" fill="#f8fafc">Route53</text>
<text xml:space="preserve" text-anchor="middle" x="359.8" y="-250.55" font-family="Helvetica,sans-Serif" font-size="11.00" fill="#f8fafc">A/AAAA alias</text>
</g>
<!-- browser&#45;&gt;dns -->
<g id="edge1" class="edge">
<title>browser&#45;&gt;dns</title>
<path fill="none" stroke="#94a3b8" d="M117.41,-289.59C138.16,-279 165.95,-266.74 192.28,-261.25 231.41,-253.09 276.85,-253.67 310.37,-255.93"/>
<polygon fill="#94a3b8" stroke="#94a3b8" points="309.95,-258.36 317.12,-256.43 310.31,-253.47 309.95,-258.36"/>
<text xml:space="preserve" text-anchor="middle" x="234.28" y="-262.45" font-family="Helvetica,sans-Serif" font-size="9.00" fill="#f8fafc">DNS lookup</text>
</g>
<!-- wafEdge -->
<g id="node3" class="node">
<title>wafEdge</title>
<path fill="#7f1d1d" stroke="#64748b" d="M383.06,-211C383.06,-211 336.53,-211 336.53,-211 330.53,-211 324.53,-205 324.53,-199 324.53,-199 324.53,-187 324.53,-187 324.53,-181 330.53,-175 336.53,-175 336.53,-175 383.06,-175 383.06,-175 389.06,-175 395.06,-181 395.06,-187 395.06,-187 395.06,-199 395.06,-199 395.06,-205 389.06,-211 383.06,-211"/>
<text xml:space="preserve" text-anchor="middle" x="359.8" y="-194.55" font-family="Helvetica,sans-Serif" font-size="11.00" fill="#f8fafc">AWS WAF</text>
<text xml:space="preserve" text-anchor="middle" x="359.8" y="-182.55" font-family="Helvetica,sans-Serif" font-size="11.00" fill="#f8fafc">edge rules</text>
</g>
<!-- browser&#45;&gt;wafEdge -->
<g id="edge3" class="edge">
<title>browser&#45;&gt;wafEdge</title>
<path fill="none" stroke="#94a3b8" d="M107.25,-289.64C128.17,-273.48 160.71,-250.39 192.28,-236.25 232.53,-218.22 281.75,-206.6 316.2,-200"/>
<polygon fill="#94a3b8" stroke="#94a3b8" points="316.27,-202.48 322.7,-198.78 315.37,-197.66 316.27,-202.48"/>
<text xml:space="preserve" text-anchor="middle" x="234.28" y="-237.45" font-family="Helvetica,sans-Serif" font-size="9.00" fill="#f8fafc">HTTPS request</text>
</g>
<!-- cognito -->
<g id="node7" class="node">
<title>cognito</title>
<path fill="#4c1d95" stroke="#64748b" d="M401.06,-442C401.06,-442 318.53,-442 318.53,-442 312.53,-442 306.53,-436 306.53,-430 306.53,-430 306.53,-418 306.53,-418 306.53,-412 312.53,-406 318.53,-406 318.53,-406 401.06,-406 401.06,-406 407.06,-406 413.06,-412 413.06,-418 413.06,-418 413.06,-430 413.06,-430 413.06,-436 407.06,-442 401.06,-442"/>
<text xml:space="preserve" text-anchor="middle" x="359.8" y="-425.55" font-family="Helvetica,sans-Serif" font-size="11.00" fill="#f8fafc">Cognito Hosted UI</text>
<text xml:space="preserve" text-anchor="middle" x="359.8" y="-413.55" font-family="Helvetica,sans-Serif" font-size="11.00" fill="#f8fafc">Google federation</text>
</g>
<!-- browser&#45;&gt;cognito -->
<g id="edge4" class="edge">
<title>browser&#45;&gt;cognito</title>
<path fill="none" stroke="#94a3b8" d="M97.92,-326.2C116.21,-349.69 151.56,-389.71 192.28,-408 225.25,-422.81 265.52,-427 298.19,-427.4"/>
<polygon fill="#94a3b8" stroke="#94a3b8" points="297.81,-429.85 304.82,-427.42 297.82,-424.95 297.81,-429.85"/>
<text xml:space="preserve" text-anchor="middle" x="234.28" y="-427.73" font-family="Helvetica,sans-Serif" font-size="9.00" fill="#f8fafc">OAuth code + PKCE</text>
</g>
<!-- dns&#45;&gt;browser -->
<g id="edge2" class="edge">
<title>dns&#45;&gt;browser</title>
<path fill="none" stroke="#94a3b8" d="M318.79,-267.86C276.2,-275.16 207.92,-286.87 156.06,-295.76"/>
<polygon fill="#94a3b8" stroke="#94a3b8" points="155.86,-293.3 149.37,-296.9 156.69,-298.13 155.86,-293.3"/>
<text xml:space="preserve" text-anchor="middle" x="234.28" y="-289.91" font-family="Helvetica,sans-Serif" font-size="9.00" fill="#f8fafc">CloudFront target</text>
</g>
<!-- cf -->
<g id="node4" class="node">
<title>cf</title>
<path fill="#1e3a8a" stroke="#64748b" d="M694.84,-211C694.84,-211 570.31,-211 570.31,-211 564.31,-211 558.31,-205 558.31,-199 558.31,-199 558.31,-187 558.31,-187 558.31,-181 564.31,-175 570.31,-175 570.31,-175 694.84,-175 694.84,-175 700.84,-175 706.84,-181 706.84,-187 706.84,-187 706.84,-199 706.84,-199 706.84,-205 700.84,-211 694.84,-211"/>
<text xml:space="preserve" text-anchor="middle" x="632.58" y="-194.55" font-family="Helvetica,sans-Serif" font-size="11.00" fill="#f8fafc">CloudFront</text>
<text xml:space="preserve" text-anchor="middle" x="632.58" y="-182.55" font-family="Helvetica,sans-Serif" font-size="11.00" fill="#f8fafc">HTTPS + static/API routing</text>
</g>
<!-- wafEdge&#45;&gt;cf -->
<g id="edge9" class="edge">
<title>wafEdge&#45;&gt;cf</title>
<path fill="none" stroke="#94a3b8" d="M395.36,-193C433.99,-193 497.88,-193 549.47,-193"/>
<polygon fill="#94a3b8" stroke="#94a3b8" points="549.46,-195.45 556.46,-193 549.46,-190.55 549.46,-195.45"/>
</g>
<!-- cf&#45;&gt;browser -->
<g id="edge13" class="edge">
<title>cf&#45;&gt;browser</title>
<path fill="none" stroke="#94a3b8" d="M602.21,-211.39C562.3,-235.34 487.89,-276.36 418.31,-295 330.19,-318.6 224.34,-318.1 155.84,-314.21"/>
<polygon fill="#94a3b8" stroke="#94a3b8" points="156.32,-311.78 149.19,-313.81 156.03,-316.68 156.32,-311.78"/>
<text xml:space="preserve" text-anchor="middle" x="359.8" y="-314.63" font-family="Helvetica,sans-Serif" font-size="9.00" fill="#f8fafc">Storefront response</text>
</g>
<!-- cf&#45;&gt;browser -->
<g id="edge30" class="edge">
<title>cf&#45;&gt;browser</title>
<path fill="none" stroke="#94a3b8" d="M563.4,-174.54C496.27,-159.03 391.04,-141.93 301.28,-159 250.12,-168.73 235.93,-173.6 192.28,-202 157.51,-224.62 124.63,-259.74 104.56,-283.29"/>
<polygon fill="#94a3b8" stroke="#94a3b8" points="102.86,-281.51 100.23,-288.44 106.61,-284.66 102.86,-281.51"/>
</g>
<!-- apiPath -->
<g id="node5" class="node">
<title>apiPath</title>
<path fill="#7c2d12" stroke="#64748b" d="M794.28,-206.76C794.28,-206.76 769.07,-197.24 769.07,-197.24 763.45,-195.12 763.45,-190.88 769.07,-188.76 769.07,-188.76 794.28,-179.24 794.28,-179.24 799.89,-177.12 811.12,-177.12 816.73,-179.24 816.73,-179.24 841.94,-188.76 841.94,-188.76 847.55,-190.88 847.55,-195.12 841.94,-197.24 841.94,-197.24 816.73,-206.76 816.73,-206.76 811.12,-208.88 799.89,-208.88 794.28,-206.76"/>
<text xml:space="preserve" text-anchor="middle" x="805.5" y="-188.55" font-family="Helvetica,sans-Serif" font-size="11.00" fill="#f8fafc">/api/* ?</text>
</g>
<!-- cf&#45;&gt;apiPath -->
<g id="edge10" class="edge">
<title>cf&#45;&gt;apiPath</title>
<path fill="none" stroke="#94a3b8" d="M707.06,-193C720.86,-193 735.09,-193 748.27,-193"/>
<polygon fill="#94a3b8" stroke="#94a3b8" points="748.25,-195.45 755.25,-193 748.25,-190.55 748.25,-195.45"/>
</g>
<!-- s3 -->
<g id="node6" class="node">
<title>s3</title>
<path fill="#713f12" stroke="#64748b" d="M1096.69,-274C1096.69,-274 1006.66,-274 1006.66,-274 1000.66,-274 994.66,-268 994.66,-262 994.66,-262 994.66,-250 994.66,-250 994.66,-244 1000.66,-238 1006.66,-238 1006.66,-238 1096.69,-238 1096.69,-238 1102.69,-238 1108.69,-244 1108.69,-250 1108.69,-250 1108.69,-262 1108.69,-262 1108.69,-268 1102.69,-274 1096.69,-274"/>
<text xml:space="preserve" text-anchor="middle" x="1051.68" y="-257.55" font-family="Helvetica,sans-Serif" font-size="11.00" fill="#f8fafc">S3 frontend origin</text>
<text xml:space="preserve" text-anchor="middle" x="1051.68" y="-245.55" font-family="Helvetica,sans-Serif" font-size="11.00" fill="#f8fafc">index.html, JS, CSS</text>
</g>
<!-- apiPath&#45;&gt;s3 -->
<g id="edge11" class="edge">
<title>apiPath&#45;&gt;s3</title>
<path fill="none" stroke="#94a3b8" d="M834.99,-200.35C871.81,-209.85 937.03,-226.68 986.14,-239.35"/>
<polygon fill="#94a3b8" stroke="#94a3b8" points="985.32,-241.67 992.71,-241.04 986.55,-236.92 985.32,-241.67"/>
<text xml:space="preserve" text-anchor="middle" x="923.91" y="-235.02" font-family="Helvetica,sans-Serif" font-size="9.00" fill="#f8fafc">No: static route</text>
</g>
<!-- apiWaf -->
<g id="node9" class="node">
<title>apiWaf</title>
<path fill="#7f1d1d" stroke="#64748b" d="M1090.69,-185C1090.69,-185 1012.66,-185 1012.66,-185 1006.66,-185 1000.66,-179 1000.66,-173 1000.66,-173 1000.66,-161 1000.66,-161 1000.66,-155 1006.66,-149 1012.66,-149 1012.66,-149 1090.69,-149 1090.69,-149 1096.69,-149 1102.69,-155 1102.69,-161 1102.69,-161 1102.69,-173 1102.69,-173 1102.69,-179 1096.69,-185 1090.69,-185"/>
<text xml:space="preserve" text-anchor="middle" x="1051.68" y="-168.55" font-family="Helvetica,sans-Serif" font-size="11.00" fill="#f8fafc">AWS WAF</text>
<text xml:space="preserve" text-anchor="middle" x="1051.68" y="-156.55" font-family="Helvetica,sans-Serif" font-size="11.00" fill="#f8fafc">regional API rules</text>
</g>
<!-- apiPath&#45;&gt;apiWaf -->
<g id="edge14" class="edge">
<title>apiPath&#45;&gt;apiWaf</title>
<path fill="none" stroke="#94a3b8" d="M839.25,-187.21C851.44,-185.2 865.41,-183.06 878.16,-181.5 915.98,-176.88 958.64,-173.28 992.08,-170.83"/>
<polygon fill="#94a3b8" stroke="#94a3b8" points="992.06,-173.28 998.87,-170.33 991.71,-168.4 992.06,-173.28"/>
<text xml:space="preserve" text-anchor="middle" x="923.91" y="-192.45" font-family="Helvetica,sans-Serif" font-size="9.00" fill="#f8fafc">Yes: /api/*</text>
<text xml:space="preserve" text-anchor="middle" x="923.91" y="-182.7" font-family="Helvetica,sans-Serif" font-size="9.00" fill="#f8fafc">Bearer JWT or API key</text>
</g>
<!-- s3&#45;&gt;cf -->
<g id="edge12" class="edge">
<title>s3&#45;&gt;cf</title>
<path fill="none" stroke="#94a3b8" d="M994.17,-257.27C960.4,-257.39 916.71,-256.41 878.16,-252 823.9,-245.79 810.95,-239.77 757.84,-227 741.11,-222.98 723.22,-218.3 706.37,-213.73"/>
<polygon fill="#94a3b8" stroke="#94a3b8" points="707.05,-211.38 699.66,-211.9 705.76,-216.11 707.05,-211.38"/>
<text xml:space="preserve" text-anchor="middle" x="805.5" y="-249.87" font-family="Helvetica,sans-Serif" font-size="9.00" fill="#f8fafc">HTML/assets</text>
</g>
<!-- cognito&#45;&gt;browser -->
<g id="edge7" class="edge">
<title>cognito&#45;&gt;browser</title>
<path fill="none" stroke="#94a3b8" d="M306.15,-405.55C273.13,-393.61 229.85,-377.31 192.28,-361 170.52,-351.55 146.82,-340.02 127.21,-330.13"/>
<polygon fill="#94a3b8" stroke="#94a3b8" points="128.33,-327.95 120.98,-326.97 126.12,-332.32 128.33,-327.95"/>
<text xml:space="preserve" text-anchor="middle" x="234.28" y="-394.76" font-family="Helvetica,sans-Serif" font-size="9.00" fill="#f8fafc">Cognito JWTs</text>
</g>
<!-- google -->
<g id="node8" class="node">
<title>google</title>
<path fill="#4c1d95" stroke="#64748b" d="M656.22,-438C656.22,-438 608.94,-438 608.94,-438 602.94,-438 596.94,-432 596.94,-426 596.94,-426 596.94,-414 596.94,-414 596.94,-408 602.94,-402 608.94,-402 608.94,-402 656.22,-402 656.22,-402 662.22,-402 668.22,-408 668.22,-414 668.22,-414 668.22,-426 668.22,-426 668.22,-432 662.22,-438 656.22,-438"/>
<text xml:space="preserve" text-anchor="middle" x="632.58" y="-415.55" font-family="Helvetica,sans-Serif" font-size="11.00" fill="#f8fafc">Google IdP</text>
</g>
<!-- cognito&#45;&gt;google -->
<g id="edge5" class="edge">
<title>cognito&#45;&gt;google</title>
<path fill="none" stroke="#94a3b8" d="M409.04,-405.57C420.14,-402.12 432.01,-399.04 443.31,-397.25 482.82,-391.01 493.57,-392.71 533.31,-397.25 551.55,-399.33 571.33,-403.53 588.33,-407.75"/>
<polygon fill="#94a3b8" stroke="#94a3b8" points="587.58,-410.09 594.97,-409.44 588.79,-405.34 587.58,-410.09"/>
<text xml:space="preserve" text-anchor="middle" x="488.31" y="-398.45" font-family="Helvetica,sans-Serif" font-size="9.00" fill="#f8fafc">Google authentication</text>
</g>
<!-- google&#45;&gt;cognito -->
<g id="edge6" class="edge">
<title>google&#45;&gt;cognito</title>
<path fill="none" stroke="#94a3b8" d="M596.82,-420.51C552.68,-421.17 475.78,-422.3 421.79,-423.1"/>
<polygon fill="#94a3b8" stroke="#94a3b8" points="421.8,-420.65 414.84,-423.2 421.87,-425.55 421.8,-420.65"/>
<text xml:space="preserve" text-anchor="middle" x="488.31" y="-423.91" font-family="Helvetica,sans-Serif" font-size="9.00" fill="#f8fafc">identity claims</text>
</g>
<!-- apiWaf&#45;&gt;cf -->
<g id="edge29" class="edge">
<title>apiWaf&#45;&gt;cf</title>
<path fill="none" stroke="#94a3b8" d="M1000.42,-160.75C941.88,-154.6 842.4,-147.64 757.84,-159 737.67,-161.71 716.13,-166.79 696.76,-172.21"/>
<polygon fill="#94a3b8" stroke="#94a3b8" points="696.1,-169.85 690.05,-174.13 697.45,-174.56 696.1,-169.85"/>
</g>
<!-- ingress -->
<g id="node10" class="node">
<title>ingress</title>
<path fill="#3730a3" stroke="#64748b" d="M1274.47,-185C1274.47,-185 1171.69,-185 1171.69,-185 1165.69,-185 1159.69,-179 1159.69,-173 1159.69,-173 1159.69,-161 1159.69,-161 1159.69,-155 1165.69,-149 1171.69,-149 1171.69,-149 1274.47,-149 1274.47,-149 1280.47,-149 1286.47,-155 1286.47,-161 1286.47,-161 1286.47,-173 1286.47,-173 1286.47,-179 1280.47,-185 1274.47,-185"/>
<text xml:space="preserve" text-anchor="middle" x="1223.08" y="-162.55" font-family="Helvetica,sans-Serif" font-size="11.00" fill="#f8fafc">EKS API ingress / ALB</text>
</g>
<!-- apiWaf&#45;&gt;ingress -->
<g id="edge15" class="edge">
<title>apiWaf&#45;&gt;ingress</title>
<path fill="none" stroke="#94a3b8" d="M1103.05,-155.92C1118.08,-155.07 1134.85,-154.81 1150.95,-155.14"/>
<polygon fill="#94a3b8" stroke="#94a3b8" points="1150.72,-157.58 1157.78,-155.32 1150.85,-152.68 1150.72,-157.58"/>
</g>
<!-- ingress&#45;&gt;apiWaf -->
<g id="edge28" class="edge">
<title>ingress&#45;&gt;apiWaf</title>
<path fill="none" stroke="#94a3b8" d="M1159.29,-178.64C1143.65,-179.17 1126.93,-179.12 1111.48,-178.49"/>
<polygon fill="#94a3b8" stroke="#94a3b8" points="1111.67,-176.04 1104.56,-178.15 1111.43,-180.94 1111.67,-176.04"/>
</g>
<!-- inventory -->
<g id="node13" class="node">
<title>inventory</title>
<path fill="#14532d" stroke="#64748b" d="M1487.25,-279C1487.25,-279 1412.97,-279 1412.97,-279 1406.97,-279 1400.97,-273 1400.97,-267 1400.97,-267 1400.97,-255 1400.97,-255 1400.97,-249 1406.97,-243 1412.97,-243 1412.97,-243 1487.25,-243 1487.25,-243 1493.25,-243 1499.25,-249 1499.25,-255 1499.25,-255 1499.25,-267 1499.25,-267 1499.25,-273 1493.25,-279 1487.25,-279"/>
<text xml:space="preserve" text-anchor="middle" x="1450.11" y="-262.55" font-family="Helvetica,sans-Serif" font-size="11.00" fill="#f8fafc">inventory&#45;service</text>
<text xml:space="preserve" text-anchor="middle" x="1450.11" y="-250.55" font-family="Helvetica,sans-Serif" font-size="11.00" fill="#f8fafc">/api/inventory/*</text>
</g>
<!-- ingress&#45;&gt;inventory -->
<g id="edge16" class="edge">
<title>ingress&#45;&gt;inventory</title>
<path fill="none" stroke="#94a3b8" d="M1237.48,-185.41C1252.89,-204.98 1280.13,-234.99 1311.47,-249 1336.57,-260.22 1366.78,-263.79 1392.49,-264.33"/>
<polygon fill="#94a3b8" stroke="#94a3b8" points="1392.14,-266.77 1399.16,-264.38 1392.18,-261.87 1392.14,-266.77"/>
<text xml:space="preserve" text-anchor="middle" x="1343.72" y="-264.55" font-family="Helvetica,sans-Serif" font-size="9.00" fill="#f8fafc">/api/inventory/*</text>
</g>
<!-- cart -->
<g id="node14" class="node">
<title>cart</title>
<path fill="#14532d" stroke="#64748b" d="M1474.5,-176C1474.5,-176 1425.72,-176 1425.72,-176 1419.72,-176 1413.72,-170 1413.72,-164 1413.72,-164 1413.72,-152 1413.72,-152 1413.72,-146 1419.72,-140 1425.72,-140 1425.72,-140 1474.5,-140 1474.5,-140 1480.5,-140 1486.5,-146 1486.5,-152 1486.5,-152 1486.5,-164 1486.5,-164 1486.5,-170 1480.5,-176 1474.5,-176"/>
<text xml:space="preserve" text-anchor="middle" x="1450.11" y="-159.55" font-family="Helvetica,sans-Serif" font-size="11.00" fill="#f8fafc">cart&#45;service</text>
<text xml:space="preserve" text-anchor="middle" x="1450.11" y="-147.55" font-family="Helvetica,sans-Serif" font-size="11.00" fill="#f8fafc">/api/cart/*</text>
</g>
<!-- ingress&#45;&gt;cart -->
<g id="edge17" class="edge">
<title>ingress&#45;&gt;cart</title>
<path fill="none" stroke="#94a3b8" d="M1286.77,-164.49C1324.41,-162.99 1371.38,-161.11 1405.1,-159.76"/>
<polygon fill="#94a3b8" stroke="#94a3b8" points="1404.97,-162.22 1411.86,-159.49 1404.77,-157.32 1404.97,-162.22"/>
<text xml:space="preserve" text-anchor="middle" x="1343.72" y="-164.51" font-family="Helvetica,sans-Serif" font-size="9.00" fill="#f8fafc">/api/cart/*</text>
</g>
<!-- account -->
<g id="node15" class="node">
<title>account</title>
<path fill="#14532d" stroke="#64748b" d="M1484.25,-90C1484.25,-90 1415.97,-90 1415.97,-90 1409.97,-90 1403.97,-84 1403.97,-78 1403.97,-78 1403.97,-66 1403.97,-66 1403.97,-60 1409.97,-54 1415.97,-54 1415.97,-54 1484.25,-54 1484.25,-54 1490.25,-54 1496.25,-60 1496.25,-66 1496.25,-66 1496.25,-78 1496.25,-78 1496.25,-84 1490.25,-90 1484.25,-90"/>
<text xml:space="preserve" text-anchor="middle" x="1450.11" y="-73.55" font-family="Helvetica,sans-Serif" font-size="11.00" fill="#f8fafc">account&#45;service</text>
<text xml:space="preserve" text-anchor="middle" x="1450.11" y="-61.55" font-family="Helvetica,sans-Serif" font-size="11.00" fill="#f8fafc">/api/account/*</text>
</g>
<!-- ingress&#45;&gt;account -->
<g id="edge18" class="edge">
<title>ingress&#45;&gt;account</title>
<path fill="none" stroke="#94a3b8" d="M1259.88,-148.57C1275.56,-140.73 1294.27,-131.7 1311.47,-124.25 1339,-112.32 1370.21,-100.35 1395.95,-90.88"/>
<polygon fill="#94a3b8" stroke="#94a3b8" points="1396.6,-93.25 1402.33,-88.55 1394.91,-88.65 1396.6,-93.25"/>
<text xml:space="preserve" text-anchor="middle" x="1343.72" y="-125.45" font-family="Helvetica,sans-Serif" font-size="9.00" fill="#f8fafc">/api/account/*</text>
</g>
<!-- k6 -->
<g id="node11" class="node">
<title>k6</title>
<path fill="#6b21a8" stroke="#64748b" d="M155.28,-65C155.28,-65 12,-65 12,-65 6,-65 0,-59 0,-53 0,-53 0,-41 0,-41 0,-35 6,-29 12,-29 12,-29 155.28,-29 155.28,-29 161.28,-29 167.28,-35 167.28,-41 167.28,-41 167.28,-53 167.28,-53 167.28,-59 161.28,-65 155.28,-65"/>
<text xml:space="preserve" text-anchor="middle" x="83.64" y="-48.55" font-family="Helvetica,sans-Serif" font-size="11.00" fill="#f8fafc">Grafana Cloud k6</text>
<text xml:space="preserve" text-anchor="middle" x="83.64" y="-36.55" font-family="Helvetica,sans-Serif" font-size="11.00" fill="#f8fafc">regional, spike, browser checks</text>
</g>
<!-- k6&#45;&gt;wafEdge -->
<g id="edge8" class="edge">
<title>k6&#45;&gt;wafEdge</title>
<path fill="none" stroke="#94a3b8" d="M119.36,-65.49C169.73,-92.31 262.93,-141.95 316.99,-170.74"/>
<polygon fill="#94a3b8" stroke="#94a3b8" points="315.69,-172.82 323.02,-173.95 317.99,-168.49 315.69,-172.82"/>
<text xml:space="preserve" text-anchor="middle" x="234.28" y="-166.48" font-family="Helvetica,sans-Serif" font-size="9.00" fill="#f8fafc">Synthetic load</text>
<text xml:space="preserve" text-anchor="middle" x="234.28" y="-156.73" font-family="Helvetica,sans-Serif" font-size="9.00" fill="#f8fafc">HTTPS + /api/*</text>
<text xml:space="preserve" text-anchor="middle" x="234.28" y="-146.98" font-family="Helvetica,sans-Serif" font-size="9.00" fill="#f8fafc">with traceparent</text>
</g>
<!-- grafana -->
<g id="node12" class="node">
<title>grafana</title>
<path fill="#6b21a8" stroke="#64748b" d="M406.31,-36C406.31,-36 313.28,-36 313.28,-36 307.28,-36 301.28,-30 301.28,-24 301.28,-24 301.28,-12 301.28,-12 301.28,-6 307.28,0 313.28,0 313.28,0 406.31,0 406.31,0 412.31,0 418.31,-6 418.31,-12 418.31,-12 418.31,-24 418.31,-24 418.31,-30 412.31,-36 406.31,-36"/>
<text xml:space="preserve" text-anchor="middle" x="359.8" y="-19.55" font-family="Helvetica,sans-Serif" font-size="11.00" fill="#f8fafc">Grafana Cloud</text>
<text xml:space="preserve" text-anchor="middle" x="359.8" y="-7.55" font-family="Helvetica,sans-Serif" font-size="11.00" fill="#f8fafc">results and telemetry</text>
</g>
<!-- k6&#45;&gt;grafana -->
<g id="edge31" class="edge">
<title>k6&#45;&gt;grafana</title>
<path fill="none" stroke="#94a3b8" d="M136.54,-28.57C154.01,-23.24 173.78,-18.15 192.28,-15.5 229.24,-10.2 238.95,-14.93 276.28,-15.5 281.67,-15.58 287.26,-15.69 292.87,-15.82"/>
<polygon fill="#94a3b8" stroke="#94a3b8" points="292.52,-18.27 299.58,-15.99 292.64,-13.37 292.52,-18.27"/>
<text xml:space="preserve" text-anchor="middle" x="234.28" y="-26.45" font-family="Helvetica,sans-Serif" font-size="9.00" fill="#f8fafc">k6 result metrics</text>
<text xml:space="preserve" text-anchor="middle" x="234.28" y="-16.7" font-family="Helvetica,sans-Serif" font-size="9.00" fill="#f8fafc">and trace correlation</text>
</g>
<!-- inventory&#45;&gt;ingress -->
<g id="edge25" class="edge">
<title>inventory&#45;&gt;ingress</title>
<path fill="none" stroke="#94a3b8" d="M1405.03,-242.58C1367.98,-227.11 1314.96,-204.96 1275.89,-188.64"/>
<polygon fill="#94a3b8" stroke="#94a3b8" points="1277.07,-186.48 1269.67,-186.04 1275.19,-191 1277.07,-186.48"/>
<text xml:space="preserve" text-anchor="middle" x="1343.72" y="-229.11" font-family="Helvetica,sans-Serif" font-size="9.00" fill="#f8fafc">JSON response</text>
</g>
<!-- postgres -->
<g id="node16" class="node">
<title>postgres</title>
<path fill="#166534" stroke="#64748b" d="M1853.78,-301.98C1853.78,-304.43 1831.76,-306.42 1804.64,-306.42 1777.53,-306.42 1755.5,-304.43 1755.5,-301.98 1755.5,-301.98 1755.5,-262.02 1755.5,-262.02 1755.5,-259.57 1777.53,-257.58 1804.64,-257.58 1831.76,-257.58 1853.78,-259.57 1853.78,-262.02 1853.78,-262.02 1853.78,-301.98 1853.78,-301.98"/>
<path fill="none" stroke="#64748b" d="M1853.78,-301.98C1853.78,-299.53 1831.76,-297.54 1804.64,-297.54 1777.53,-297.54 1755.5,-299.53 1755.5,-301.98"/>
<text xml:space="preserve" text-anchor="middle" x="1804.64" y="-283.55" font-family="Helvetica,sans-Serif" font-size="11.00" fill="#f8fafc">Postgres</text>
<text xml:space="preserve" text-anchor="middle" x="1804.64" y="-271.55" font-family="Helvetica,sans-Serif" font-size="11.00" fill="#f8fafc">inventory catalog</text>
</g>
<!-- inventory&#45;&gt;postgres -->
<g id="edge19" class="edge">
<title>inventory&#45;&gt;postgres</title>
<path fill="none" stroke="#94a3b8" d="M1499.39,-269.83C1507.66,-271.08 1516.19,-272.21 1524.25,-273 1600.98,-280.5 1690.06,-282.16 1746.62,-282.33"/>
<polygon fill="#94a3b8" stroke="#94a3b8" points="1746.55,-284.78 1753.55,-282.35 1746.56,-279.88 1746.55,-284.78"/>
<text xml:space="preserve" text-anchor="middle" x="1606.75" y="-282.75" font-family="Helvetica,sans-Serif" font-size="9.00" fill="#f8fafc">Read products, categories, stock, pricing</text>
</g>
<!-- cart&#45;&gt;ingress -->
<g id="edge26" class="edge">
<title>cart&#45;&gt;ingress</title>
<path fill="none" stroke="#94a3b8" d="M1413.59,-149.95C1401.7,-147.62 1388.32,-145.4 1375.97,-144.25 1347.43,-141.59 1339.91,-140.61 1311.47,-144.25 1306.04,-144.95 1300.46,-145.88 1294.88,-146.96"/>
<polygon fill="#94a3b8" stroke="#94a3b8" points="1294.56,-144.53 1288.2,-148.35 1295.55,-149.32 1294.56,-144.53"/>
<text xml:space="preserve" text-anchor="middle" x="1343.72" y="-145.45" font-family="Helvetica,sans-Serif" font-size="9.00" fill="#f8fafc">JSON response</text>
</g>
<!-- dynamoCart -->
<g id="node17" class="node">
<title>dynamoCart</title>
<path fill="#166534" stroke="#64748b" d="M1841.41,-195.98C1841.41,-198.43 1824.93,-200.42 1804.64,-200.42 1784.36,-200.42 1767.88,-198.43 1767.88,-195.98 1767.88,-195.98 1767.88,-156.02 1767.88,-156.02 1767.88,-153.57 1784.36,-151.58 1804.64,-151.58 1824.93,-151.58 1841.41,-153.57 1841.41,-156.02 1841.41,-156.02 1841.41,-195.98 1841.41,-195.98"/>
<path fill="none" stroke="#64748b" d="M1841.41,-195.98C1841.41,-193.53 1824.93,-191.54 1804.64,-191.54 1784.36,-191.54 1767.88,-193.53 1767.88,-195.98"/>
<text xml:space="preserve" text-anchor="middle" x="1804.64" y="-177.55" font-family="Helvetica,sans-Serif" font-size="11.00" fill="#f8fafc">DynamoDB</text>
<text xml:space="preserve" text-anchor="middle" x="1804.64" y="-165.55" font-family="Helvetica,sans-Serif" font-size="11.00" fill="#f8fafc">cart state</text>
</g>
<!-- cart&#45;&gt;dynamoCart -->
<g id="edge21" class="edge">
<title>cart&#45;&gt;dynamoCart</title>
<path fill="none" stroke="#94a3b8" d="M1486.64,-166.09C1498.54,-168.46 1511.91,-170.74 1524.25,-172 1606.94,-180.44 1704.09,-179.37 1759.31,-177.75"/>
<polygon fill="#94a3b8" stroke="#94a3b8" points="1759.37,-180.2 1766.29,-177.53 1759.22,-175.3 1759.37,-180.2"/>
<text xml:space="preserve" text-anchor="middle" x="1606.75" y="-180.07" font-family="Helvetica,sans-Serif" font-size="9.00" fill="#f8fafc">Read/write cart items</text>
</g>
<!-- account&#45;&gt;ingress -->
<g id="edge27" class="edge">
<title>account&#45;&gt;ingress</title>
<path fill="none" stroke="#94a3b8" d="M1403.51,-67.29C1375.74,-66.28 1340.21,-68.36 1311.47,-81.25 1282.2,-94.38 1257.07,-121.83 1241.37,-142.16"/>
<polygon fill="#94a3b8" stroke="#94a3b8" points="1239.57,-140.47 1237.32,-147.54 1243.49,-143.42 1239.57,-140.47"/>
<text xml:space="preserve" text-anchor="middle" x="1343.72" y="-82.45" font-family="Helvetica,sans-Serif" font-size="9.00" fill="#f8fafc">JSON response</text>
</g>
<!-- dynamoAccount -->
<g id="node18" class="node">
<title>dynamoAccount</title>
<path fill="#166534" stroke="#64748b" d="M1895.03,-112.98C1895.03,-115.43 1854.52,-117.42 1804.64,-117.42 1754.77,-117.42 1714.25,-115.43 1714.25,-112.98 1714.25,-112.98 1714.25,-73.02 1714.25,-73.02 1714.25,-70.57 1754.77,-68.58 1804.64,-68.58 1854.52,-68.58 1895.03,-70.57 1895.03,-73.02 1895.03,-73.02 1895.03,-112.98 1895.03,-112.98"/>
<path fill="none" stroke="#64748b" d="M1895.03,-112.98C1895.03,-110.53 1854.52,-108.54 1804.64,-108.54 1754.77,-108.54 1714.25,-110.53 1714.25,-112.98"/>
<text xml:space="preserve" text-anchor="middle" x="1804.64" y="-94.55" font-family="Helvetica,sans-Serif" font-size="11.00" fill="#f8fafc">DynamoDB</text>
<text xml:space="preserve" text-anchor="middle" x="1804.64" y="-82.55" font-family="Helvetica,sans-Serif" font-size="11.00" fill="#f8fafc">account, address, wallet metadata</text>
</g>
<!-- account&#45;&gt;dynamoAccount -->
<g id="edge23" class="edge">
<title>account&#45;&gt;dynamoAccount</title>
<path fill="none" stroke="#94a3b8" d="M1496.74,-76.69C1505.85,-77.53 1515.35,-78.35 1524.25,-79 1584.37,-83.38 1651.86,-86.8 1705.45,-89.17"/>
<polygon fill="#94a3b8" stroke="#94a3b8" points="1705.32,-91.62 1712.42,-89.47 1705.53,-86.72 1705.32,-91.62"/>
<text xml:space="preserve" text-anchor="middle" x="1606.75" y="-89.36" font-family="Helvetica,sans-Serif" font-size="9.00" fill="#f8fafc">Read/write profile, shipping, wallet</text>
</g>
<!-- postgres&#45;&gt;inventory -->
<g id="edge20" class="edge">
<title>postgres&#45;&gt;inventory</title>
<path fill="none" stroke="#94a3b8" d="M1755.1,-279.11C1690.37,-275.25 1576,-268.44 1507.51,-264.36"/>
<polygon fill="#94a3b8" stroke="#94a3b8" points="1508.04,-261.94 1500.9,-263.97 1507.75,-266.83 1508.04,-261.94"/>
</g>
<!-- dynamoCart&#45;&gt;cart -->
<g id="edge22" class="edge">
<title>dynamoCart&#45;&gt;cart</title>
<path fill="none" stroke="#94a3b8" d="M1767.54,-174.16C1702.44,-170.83 1565.58,-163.84 1495.11,-160.25"/>
<polygon fill="#94a3b8" stroke="#94a3b8" points="1495.48,-157.81 1488.37,-159.9 1495.23,-162.71 1495.48,-157.81"/>
</g>
<!-- dynamoAccount&#45;&gt;account -->
<g id="edge24" class="edge">
<title>dynamoAccount&#45;&gt;account</title>
<path fill="none" stroke="#94a3b8" d="M1713.76,-83.9C1705.48,-83.2 1697.22,-82.55 1689.25,-82 1625.97,-77.63 1553.09,-74.91 1504.79,-73.43"/>
<polygon fill="#94a3b8" stroke="#94a3b8" points="1504.95,-70.98 1497.88,-73.22 1504.8,-75.88 1504.95,-70.98"/>
</g>
</g>
</svg>
