<?xml version="1.0" encoding="UTF-8" standalone="no"?>
<!DOCTYPE svg PUBLIC "-//W3C//DTD SVG 1.1//EN"
 "http://www.w3.org/Graphics/SVG/1.1/DTD/svg11.dtd">
<!-- Generated by graphviz version 15.0.0 (20260523.1842)
 -->
<!-- Title: request_flow_diagram Pages: 1 -->
<svg width="1121pt" height="682pt"
 viewBox="0.00 0.00 1121.00 682.00" xmlns="http://www.w3.org/2000/svg" xmlns:xlink="http://www.w3.org/1999/xlink">
<g id="graph0" class="graph" transform="scale(1 1) rotate(0) translate(18 664.4)">
<title>request_flow_diagram</title>
<polygon fill="#0b1220" stroke="none" points="-18,18 -18,-664.4 1102.62,-664.4 1102.62,18 -18,18"/>
<text xml:space="preserve" text-anchor="middle" x="542.31" y="-623.4" font-family="Helvetica,sans-Serif" font-size="20.00" fill="#f8fafc">Browser Request Flow Through Backend Services</text>
<!-- browser -->
<g id="node1" class="node">
<title>browser</title>
<path fill="#1e3a8a" stroke="#64748b" d="M102.03,-423.42C102.03,-423.42 12,-423.42 12,-423.42 6,-423.42 0,-417.42 0,-411.42 0,-411.42 0,-399.42 0,-399.42 0,-393.42 6,-387.42 12,-387.42 12,-387.42 102.03,-387.42 102.03,-387.42 108.03,-387.42 114.03,-393.42 114.03,-399.42 114.03,-399.42 114.03,-411.42 114.03,-411.42 114.03,-417.42 108.03,-423.42 102.03,-423.42"/>
<text xml:space="preserve" text-anchor="middle" x="57.02" y="-406.97" font-family="Helvetica,sans-Serif" font-size="11.00" fill="#f8fafc">Browser</text>
<text xml:space="preserve" text-anchor="middle" x="57.02" y="-394.97" font-family="Helvetica,sans-Serif" font-size="11.00" fill="#f8fafc">ensemble&#45;retail.com</text>
</g>
<!-- dns -->
<g id="node2" class="node">
<title>dns</title>
<path fill="#164e63" stroke="#64748b" d="M371.81,-507.42C371.81,-507.42 314.03,-507.42 314.03,-507.42 308.03,-507.42 302.03,-501.42 302.03,-495.42 302.03,-495.42 302.03,-483.42 302.03,-483.42 302.03,-477.42 308.03,-471.42 314.03,-471.42 314.03,-471.42 371.81,-471.42 371.81,-471.42 377.81,-471.42 383.81,-477.42 383.81,-483.42 383.81,-483.42 383.81,-495.42 383.81,-495.42 383.81,-501.42 377.81,-507.42 371.81,-507.42"/>
<text xml:space="preserve" text-anchor="middle" x="342.92" y="-490.97" font-family="Helvetica,sans-Serif" font-size="11.00" fill="#f8fafc">Route53</text>
<text xml:space="preserve" text-anchor="middle" x="342.92" y="-478.97" font-family="Helvetica,sans-Serif" font-size="11.00" fill="#f8fafc">A/AAAA alias</text>
</g>
<!-- browser&#45;&gt;dns -->
<g id="edge1" class="edge">
<title>browser&#45;&gt;dns</title>
<path fill="none" stroke="#94a3b8" d="M114.44,-422.12C166.83,-437.62 244,-460.45 293.61,-475.13"/>
<polygon fill="#94a3b8" stroke="#94a3b8" points="292.77,-477.43 300.18,-477.07 294.16,-472.73 292.77,-477.43"/>
<text xml:space="preserve" text-anchor="middle" x="194.91" y="-463.45" font-family="Helvetica,sans-Serif" font-size="9.00" fill="#f8fafc">DNS lookup</text>
</g>
<!-- wafEdge -->
<g id="node3" class="node">
<title>wafEdge</title>
<path fill="#7f1d1d" stroke="#64748b" d="M366.19,-264.42C366.19,-264.42 319.66,-264.42 319.66,-264.42 313.66,-264.42 307.66,-258.42 307.66,-252.42 307.66,-252.42 307.66,-240.42 307.66,-240.42 307.66,-234.42 313.66,-228.42 319.66,-228.42 319.66,-228.42 366.19,-228.42 366.19,-228.42 372.19,-228.42 378.19,-234.42 378.19,-240.42 378.19,-240.42 378.19,-252.42 378.19,-252.42 378.19,-258.42 372.19,-264.42 366.19,-264.42"/>
<text xml:space="preserve" text-anchor="middle" x="342.92" y="-247.97" font-family="Helvetica,sans-Serif" font-size="11.00" fill="#f8fafc">AWS WAF</text>
<text xml:space="preserve" text-anchor="middle" x="342.92" y="-235.97" font-family="Helvetica,sans-Serif" font-size="11.00" fill="#f8fafc">edge rules</text>
</g>
<!-- browser&#45;&gt;wafEdge -->
<g id="edge3" class="edge">
<title>browser&#45;&gt;wafEdge</title>
<path fill="none" stroke="#94a3b8" d="M66.48,-387.33C78.88,-362.89 104.33,-319.74 139.03,-296.67 165.01,-279.4 247.61,-262.66 299.05,-253.53"/>
<polygon fill="#94a3b8" stroke="#94a3b8" points="299.38,-255.96 305.85,-252.34 298.53,-251.14 299.38,-255.96"/>
<text xml:space="preserve" text-anchor="middle" x="194.91" y="-297.87" font-family="Helvetica,sans-Serif" font-size="9.00" fill="#f8fafc">HTTPS storefront</text>
</g>
<!-- cognito -->
<g id="node6" class="node">
<title>cognito</title>
<path fill="#4c1d95" stroke="#64748b" d="M384.19,-429.42C384.19,-429.42 301.66,-429.42 301.66,-429.42 295.66,-429.42 289.66,-423.42 289.66,-417.42 289.66,-417.42 289.66,-405.42 289.66,-405.42 289.66,-399.42 295.66,-393.42 301.66,-393.42 301.66,-393.42 384.19,-393.42 384.19,-393.42 390.19,-393.42 396.19,-399.42 396.19,-405.42 396.19,-405.42 396.19,-417.42 396.19,-417.42 396.19,-423.42 390.19,-429.42 384.19,-429.42"/>
<text xml:space="preserve" text-anchor="middle" x="342.92" y="-412.97" font-family="Helvetica,sans-Serif" font-size="11.00" fill="#f8fafc">Cognito Hosted UI</text>
<text xml:space="preserve" text-anchor="middle" x="342.92" y="-400.97" font-family="Helvetica,sans-Serif" font-size="11.00" fill="#f8fafc">Google federation</text>
</g>
<!-- browser&#45;&gt;cognito -->
<g id="edge4" class="edge">
<title>browser&#45;&gt;cognito</title>
<path fill="none" stroke="#94a3b8" d="M114.44,-406.61C162.6,-407.63 231.68,-409.09 281.06,-410.13"/>
<polygon fill="#94a3b8" stroke="#94a3b8" points="280.87,-412.58 287.92,-410.28 280.97,-407.68 280.87,-412.58"/>
<text xml:space="preserve" text-anchor="middle" x="194.91" y="-410.68" font-family="Helvetica,sans-Serif" font-size="9.00" fill="#f8fafc">OAuth code + PKCE</text>
</g>
<!-- localState -->
<g id="node8" class="node">
<title>localState</title>
<path fill="#0f172a" stroke="#64748b" d="M398.06,-611.42C398.06,-611.42 287.78,-611.42 287.78,-611.42 281.78,-611.42 275.78,-605.42 275.78,-599.42 275.78,-599.42 275.78,-587.42 275.78,-587.42 275.78,-581.42 281.78,-575.42 287.78,-575.42 287.78,-575.42 398.06,-575.42 398.06,-575.42 404.06,-575.42 410.06,-581.42 410.06,-587.42 410.06,-587.42 410.06,-599.42 410.06,-599.42 410.06,-605.42 404.06,-611.42 398.06,-611.42"/>
<text xml:space="preserve" text-anchor="middle" x="342.92" y="-594.97" font-family="Helvetica,sans-Serif" font-size="11.00" fill="#f8fafc">Browser localStorage</text>
<text xml:space="preserve" text-anchor="middle" x="342.92" y="-582.97" font-family="Helvetica,sans-Serif" font-size="11.00" fill="#f8fafc">anonymous cart/account</text>
</g>
<!-- browser&#45;&gt;localState -->
<g id="edge8" class="edge">
<title>browser&#45;&gt;localState</title>
<path fill="none" stroke="#94a3b8" d="M67.02,-423.71C79.87,-448.04 105.64,-490.96 139.03,-516.42 161,-533.17 224.38,-556 274.52,-572.45"/>
<polygon fill="#94a3b8" stroke="#94a3b8" points="273.59,-574.72 281,-574.56 275.11,-570.06 273.59,-574.72"/>
<text xml:space="preserve" text-anchor="middle" x="194.91" y="-565.2" font-family="Helvetica,sans-Serif" font-size="9.00" fill="#f8fafc">anonymous writes</text>
</g>
<!-- apiGw -->
<g id="node9" class="node">
<title>apiGw</title>
<path fill="#3730a3" stroke="#64748b" d="M397.69,-169.18C397.69,-169.18 288.16,-169.18 288.16,-169.18 282.16,-169.18 276.16,-163.18 276.16,-157.18 276.16,-157.18 276.16,-133.66 276.16,-133.66 276.16,-127.66 282.16,-121.66 288.16,-121.66 288.16,-121.66 397.69,-121.66 397.69,-121.66 403.69,-121.66 409.69,-127.66 409.69,-133.66 409.69,-133.66 409.69,-157.18 409.69,-157.18 409.69,-163.18 403.69,-169.18 397.69,-169.18"/>
<text xml:space="preserve" text-anchor="middle" x="342.92" y="-152.97" font-family="Helvetica,sans-Serif" font-size="11.00" fill="#f8fafc">API Gateway HTTP API</text>
<text xml:space="preserve" text-anchor="middle" x="342.92" y="-140.97" font-family="Helvetica,sans-Serif" font-size="11.00" fill="#f8fafc">api.ensemble&#45;retail.com</text>
<text xml:space="preserve" text-anchor="middle" x="342.92" y="-128.97" font-family="Helvetica,sans-Serif" font-size="11.00" fill="#f8fafc">stage throttling</text>
</g>
<!-- browser&#45;&gt;apiGw -->
<g id="edge15" class="edge">
<title>browser&#45;&gt;apiGw</title>
<path fill="none" stroke="#94a3b8" d="M61.6,-387.08C69.37,-352.31 91.05,-276.66 139.03,-235.92 178.46,-202.44 203.65,-224.74 250.78,-203.42 268.41,-195.44 286.64,-184.47 302.12,-174.22"/>
<polygon fill="#94a3b8" stroke="#94a3b8" points="303.33,-176.36 307.77,-170.41 300.59,-172.29 303.33,-176.36"/>
<text xml:space="preserve" text-anchor="middle" x="194.91" y="-246.87" font-family="Helvetica,sans-Serif" font-size="9.00" fill="#f8fafc">/api/*</text>
<text xml:space="preserve" text-anchor="middle" x="194.91" y="-237.12" font-family="Helvetica,sans-Serif" font-size="9.00" fill="#f8fafc">Bearer JWT or X&#45;Api&#45;Key</text>
</g>
<!-- dns&#45;&gt;browser -->
<g id="edge2" class="edge">
<title>dns&#45;&gt;browser</title>
<path fill="none" stroke="#94a3b8" d="M301.65,-495.53C259.4,-500.17 191.9,-502.5 139.03,-480.42 113.67,-469.83 91.3,-447.57 76.53,-430.04"/>
<polygon fill="#94a3b8" stroke="#94a3b8" points="78.73,-428.86 72.4,-425 74.94,-431.97 78.73,-428.86"/>
<text xml:space="preserve" text-anchor="middle" x="194.91" y="-499.81" font-family="Helvetica,sans-Serif" font-size="9.00" fill="#f8fafc">CloudFront / API GW target</text>
</g>
<!-- cf -->
<g id="node4" class="node">
<title>cf</title>
<path fill="#1e3a8a" stroke="#64748b" d="M659.59,-335.42C659.59,-335.42 580.81,-335.42 580.81,-335.42 574.81,-335.42 568.81,-329.42 568.81,-323.42 568.81,-323.42 568.81,-311.42 568.81,-311.42 568.81,-305.42 574.81,-299.42 580.81,-299.42 580.81,-299.42 659.59,-299.42 659.59,-299.42 665.59,-299.42 671.59,-305.42 671.59,-311.42 671.59,-311.42 671.59,-323.42 671.59,-323.42 671.59,-329.42 665.59,-335.42 659.59,-335.42"/>
<text xml:space="preserve" text-anchor="middle" x="620.2" y="-318.97" font-family="Helvetica,sans-Serif" font-size="11.00" fill="#f8fafc">CloudFront</text>
<text xml:space="preserve" text-anchor="middle" x="620.2" y="-306.97" font-family="Helvetica,sans-Serif" font-size="11.00" fill="#f8fafc">HTTPS storefront</text>
</g>
<!-- wafEdge&#45;&gt;cf -->
<g id="edge10" class="edge">
<title>wafEdge&#45;&gt;cf</title>
<path fill="none" stroke="#94a3b8" d="M378.51,-255.34C424.13,-267.11 505.11,-287.99 560.43,-302.26"/>
<polygon fill="#94a3b8" stroke="#94a3b8" points="559.54,-304.56 566.93,-303.94 560.77,-299.82 559.54,-304.56"/>
</g>
<!-- cf&#45;&gt;browser -->
<g id="edge13" class="edge">
<title>cf&#45;&gt;browser</title>
<path fill="none" stroke="#94a3b8" d="M568.48,-320.27C480.21,-326.01 293.07,-341.59 139.03,-377.42 130.79,-379.34 122.22,-381.78 113.86,-384.43"/>
<polygon fill="#94a3b8" stroke="#94a3b8" points="113.27,-382.04 107.38,-386.54 114.79,-386.7 113.27,-382.04"/>
<text xml:space="preserve" text-anchor="middle" x="342.92" y="-352.52" font-family="Helvetica,sans-Serif" font-size="9.00" fill="#f8fafc">Storefront response</text>
</g>
<!-- s3 -->
<g id="node5" class="node">
<title>s3</title>
<path fill="#713f12" stroke="#64748b" d="M1039.25,-346.42C1039.25,-346.42 949.22,-346.42 949.22,-346.42 943.22,-346.42 937.22,-340.42 937.22,-334.42 937.22,-334.42 937.22,-322.42 937.22,-322.42 937.22,-316.42 943.22,-310.42 949.22,-310.42 949.22,-310.42 1039.25,-310.42 1039.25,-310.42 1045.25,-310.42 1051.25,-316.42 1051.25,-322.42 1051.25,-322.42 1051.25,-334.42 1051.25,-334.42 1051.25,-340.42 1045.25,-346.42 1039.25,-346.42"/>
<text xml:space="preserve" text-anchor="middle" x="994.23" y="-329.97" font-family="Helvetica,sans-Serif" font-size="11.00" fill="#f8fafc">S3 frontend origin</text>
<text xml:space="preserve" text-anchor="middle" x="994.23" y="-317.97" font-family="Helvetica,sans-Serif" font-size="11.00" fill="#f8fafc">index.html, JS, CSS</text>
</g>
<!-- cf&#45;&gt;s3 -->
<g id="edge11" class="edge">
<title>cf&#45;&gt;s3</title>
<path fill="none" stroke="#94a3b8" d="M671.76,-318.91C738.43,-320.89 855.8,-324.36 928.77,-326.51"/>
<polygon fill="#94a3b8" stroke="#94a3b8" points="928.42,-328.95 935.49,-326.71 928.57,-324.06 928.42,-328.95"/>
<text xml:space="preserve" text-anchor="middle" x="797.09" y="-326.06" font-family="Helvetica,sans-Serif" font-size="9.00" fill="#f8fafc">static route</text>
</g>
<!-- s3&#45;&gt;cf -->
<g id="edge12" class="edge">
<title>s3&#45;&gt;cf</title>
<path fill="none" stroke="#94a3b8" d="M936.83,-314.92C918.45,-311.14 897.88,-307.55 878.84,-305.67 806.52,-298.55 787.87,-301.16 715.34,-305.67 703.96,-306.38 691.86,-307.56 680.25,-308.91"/>
<polygon fill="#94a3b8" stroke="#94a3b8" points="680.06,-306.47 673.41,-309.74 680.65,-311.33 680.06,-306.47"/>
<text xml:space="preserve" text-anchor="middle" x="797.09" y="-306.87" font-family="Helvetica,sans-Serif" font-size="9.00" fill="#f8fafc">HTML/assets</text>
</g>
<!-- cognito&#45;&gt;browser -->
<g id="edge7" class="edge">
<title>cognito&#45;&gt;browser</title>
<path fill="none" stroke="#94a3b8" d="M289.28,-396.65C276.76,-393.75 263.38,-391.15 250.78,-389.67 201.45,-383.87 188.47,-384.91 139.03,-389.67 133.66,-390.19 128.12,-390.89 122.58,-391.72"/>
<polygon fill="#94a3b8" stroke="#94a3b8" points="122.49,-389.25 115.97,-392.77 123.26,-394.09 122.49,-389.25"/>
<text xml:space="preserve" text-anchor="middle" x="194.91" y="-390.87" font-family="Helvetica,sans-Serif" font-size="9.00" fill="#f8fafc">Cognito JWTs</text>
</g>
<!-- google -->
<g id="node7" class="node">
<title>google</title>
<path fill="#4c1d95" stroke="#64748b" d="M643.84,-417.42C643.84,-417.42 596.56,-417.42 596.56,-417.42 590.56,-417.42 584.56,-411.42 584.56,-405.42 584.56,-405.42 584.56,-393.42 584.56,-393.42 584.56,-387.42 590.56,-381.42 596.56,-381.42 596.56,-381.42 643.84,-381.42 643.84,-381.42 649.84,-381.42 655.84,-387.42 655.84,-393.42 655.84,-393.42 655.84,-405.42 655.84,-405.42 655.84,-411.42 649.84,-417.42 643.84,-417.42"/>
<text xml:space="preserve" text-anchor="middle" x="620.2" y="-394.97" font-family="Helvetica,sans-Serif" font-size="11.00" fill="#f8fafc">Google IdP</text>
</g>
<!-- cognito&#45;&gt;google -->
<g id="edge5" class="edge">
<title>cognito&#45;&gt;google</title>
<path fill="none" stroke="#94a3b8" d="M396.67,-409.12C448.66,-406.85 527.16,-403.43 575.69,-401.32"/>
<polygon fill="#94a3b8" stroke="#94a3b8" points="575.69,-403.77 582.58,-401.02 575.48,-398.87 575.69,-403.77"/>
<text xml:space="preserve" text-anchor="middle" x="480.06" y="-408.4" font-family="Helvetica,sans-Serif" font-size="9.00" fill="#f8fafc">Google authentication</text>
</g>
<!-- google&#45;&gt;cognito -->
<g id="edge6" class="edge">
<title>google&#45;&gt;cognito</title>
<path fill="none" stroke="#94a3b8" d="M584.13,-394.04C547,-389.16 486.73,-383.59 435.06,-389.67 425.12,-390.84 414.69,-392.7 404.58,-394.86"/>
<polygon fill="#94a3b8" stroke="#94a3b8" points="404.33,-392.41 398.03,-396.32 405.4,-397.19 404.33,-392.41"/>
<text xml:space="preserve" text-anchor="middle" x="480.06" y="-390.87" font-family="Helvetica,sans-Serif" font-size="9.00" fill="#f8fafc">identity claims</text>
</g>
<!-- localState&#45;&gt;browser -->
<g id="edge9" class="edge">
<title>localState&#45;&gt;browser</title>
<path fill="none" stroke="#94a3b8" d="M275.62,-605.87C233.04,-610.17 178.51,-608.39 139.03,-581.42 88.31,-546.78 68.73,-472.01 61.67,-431.98"/>
<polygon fill="#94a3b8" stroke="#94a3b8" points="64.11,-431.76 60.55,-425.26 59.28,-432.56 64.11,-431.76"/>
<text xml:space="preserve" text-anchor="middle" x="194.91" y="-608.85" font-family="Helvetica,sans-Serif" font-size="9.00" fill="#f8fafc">restore local state</text>
</g>
<!-- apiGw&#45;&gt;browser -->
<g id="edge29" class="edge">
<title>apiGw&#45;&gt;browser</title>
<path fill="none" stroke="#94a3b8" d="M275.87,-126.89C232.85,-118.98 177.74,-117.16 139.03,-145.67 100.69,-173.91 72.5,-318.74 62.24,-379.03"/>
<polygon fill="#94a3b8" stroke="#94a3b8" points="59.85,-378.49 61.11,-385.8 64.68,-379.3 59.85,-378.49"/>
<text xml:space="preserve" text-anchor="middle" x="194.91" y="-146.87" font-family="Helvetica,sans-Serif" font-size="9.00" fill="#f8fafc">JSON response</text>
</g>
<!-- inventory -->
<g id="node12" class="node">
<title>inventory</title>
<path fill="#14532d" stroke="#64748b" d="M678.34,-124.42C678.34,-124.42 562.06,-124.42 562.06,-124.42 556.06,-124.42 550.06,-118.42 550.06,-112.42 550.06,-112.42 550.06,-100.42 550.06,-100.42 550.06,-94.42 556.06,-88.42 562.06,-88.42 562.06,-88.42 678.34,-88.42 678.34,-88.42 684.34,-88.42 690.34,-94.42 690.34,-100.42 690.34,-100.42 690.34,-112.42 690.34,-112.42 690.34,-118.42 684.34,-124.42 678.34,-124.42"/>
<text xml:space="preserve" text-anchor="middle" x="620.2" y="-107.97" font-family="Helvetica,sans-Serif" font-size="11.00" fill="#f8fafc">inventory&#45;service Lambda</text>
<text xml:space="preserve" text-anchor="middle" x="620.2" y="-95.97" font-family="Helvetica,sans-Serif" font-size="11.00" fill="#f8fafc">/api/inventory/*</text>
</g>
<!-- apiGw&#45;&gt;inventory -->
<g id="edge17" class="edge">
<title>apiGw&#45;&gt;inventory</title>
<path fill="none" stroke="#94a3b8" d="M409.86,-136.08C449.52,-130.46 500.21,-123.28 541.77,-117.39"/>
<polygon fill="#94a3b8" stroke="#94a3b8" points="541.87,-119.85 548.46,-116.44 541.19,-115 541.87,-119.85"/>
<text xml:space="preserve" text-anchor="middle" x="480.06" y="-132.89" font-family="Helvetica,sans-Serif" font-size="9.00" fill="#f8fafc">/api/inventory/*</text>
</g>
<!-- cart -->
<g id="node13" class="node">
<title>cart</title>
<path fill="#14532d" stroke="#64748b" d="M665.59,-38.42C665.59,-38.42 574.81,-38.42 574.81,-38.42 568.81,-38.42 562.81,-32.42 562.81,-26.42 562.81,-26.42 562.81,-14.42 562.81,-14.42 562.81,-8.42 568.81,-2.42 574.81,-2.42 574.81,-2.42 665.59,-2.42 665.59,-2.42 671.59,-2.42 677.59,-8.42 677.59,-14.42 677.59,-14.42 677.59,-26.42 677.59,-26.42 677.59,-32.42 671.59,-38.42 665.59,-38.42"/>
<text xml:space="preserve" text-anchor="middle" x="620.2" y="-21.97" font-family="Helvetica,sans-Serif" font-size="11.00" fill="#f8fafc">cart&#45;service Lambda</text>
<text xml:space="preserve" text-anchor="middle" x="620.2" y="-9.97" font-family="Helvetica,sans-Serif" font-size="11.00" fill="#f8fafc">/api/cart/*</text>
</g>
<!-- apiGw&#45;&gt;cart -->
<g id="edge18" class="edge">
<title>apiGw&#45;&gt;cart</title>
<path fill="none" stroke="#94a3b8" d="M371.9,-121.21C389.17,-107.23 412.32,-90.2 435.06,-78.67 472.87,-59.5 518.25,-45.06 554.5,-35.35"/>
<polygon fill="#94a3b8" stroke="#94a3b8" points="554.95,-37.76 561.1,-33.61 553.7,-33.02 554.95,-37.76"/>
<text xml:space="preserve" text-anchor="middle" x="480.06" y="-79.87" font-family="Helvetica,sans-Serif" font-size="9.00" fill="#f8fafc">/api/cart/*</text>
</g>
<!-- account -->
<g id="node14" class="node">
<title>account</title>
<path fill="#14532d" stroke="#64748b" d="M675.34,-221.42C675.34,-221.42 565.06,-221.42 565.06,-221.42 559.06,-221.42 553.06,-215.42 553.06,-209.42 553.06,-209.42 553.06,-197.42 553.06,-197.42 553.06,-191.42 559.06,-185.42 565.06,-185.42 565.06,-185.42 675.34,-185.42 675.34,-185.42 681.34,-185.42 687.34,-191.42 687.34,-197.42 687.34,-197.42 687.34,-209.42 687.34,-209.42 687.34,-215.42 681.34,-221.42 675.34,-221.42"/>
<text xml:space="preserve" text-anchor="middle" x="620.2" y="-204.97" font-family="Helvetica,sans-Serif" font-size="11.00" fill="#f8fafc">account&#45;service Lambda</text>
<text xml:space="preserve" text-anchor="middle" x="620.2" y="-192.97" font-family="Helvetica,sans-Serif" font-size="11.00" fill="#f8fafc">/api/account/*</text>
</g>
<!-- apiGw&#45;&gt;account -->
<g id="edge19" class="edge">
<title>apiGw&#45;&gt;account</title>
<path fill="none" stroke="#94a3b8" d="M369.52,-169.48C386.64,-183.84 410.45,-200.74 435.06,-208.42 469.97,-219.31 510.42,-219.48 544.51,-216.32"/>
<polygon fill="#94a3b8" stroke="#94a3b8" points="544.35,-218.8 551.07,-215.66 543.86,-213.93 544.35,-218.8"/>
<text xml:space="preserve" text-anchor="middle" x="480.06" y="-219.29" font-family="Helvetica,sans-Serif" font-size="9.00" fill="#f8fafc">/api/account/*</text>
</g>
<!-- k6 -->
<g id="node10" class="node">
<title>k6</title>
<path fill="#6b21a8" stroke="#64748b" d="M96.03,-109.18C96.03,-109.18 18,-109.18 18,-109.18 12,-109.18 6,-103.18 6,-97.18 6,-97.18 6,-61.66 6,-61.66 6,-55.66 12,-49.66 18,-49.66 18,-49.66 96.03,-49.66 96.03,-49.66 102.03,-49.66 108.03,-55.66 108.03,-61.66 108.03,-61.66 108.03,-97.18 108.03,-97.18 108.03,-103.18 102.03,-109.18 96.03,-109.18"/>
<text xml:space="preserve" text-anchor="middle" x="57.02" y="-92.97" font-family="Helvetica,sans-Serif" font-size="11.00" fill="#f8fafc">Grafana Cloud k6</text>
<text xml:space="preserve" text-anchor="middle" x="57.02" y="-80.97" font-family="Helvetica,sans-Serif" font-size="11.00" fill="#f8fafc">regional, spike,</text>
<text xml:space="preserve" text-anchor="middle" x="57.02" y="-68.97" font-family="Helvetica,sans-Serif" font-size="11.00" fill="#f8fafc">5 rps baseline,</text>
<text xml:space="preserve" text-anchor="middle" x="57.02" y="-56.97" font-family="Helvetica,sans-Serif" font-size="11.00" fill="#f8fafc">browser checks</text>
</g>
<!-- k6&#45;&gt;wafEdge -->
<g id="edge14" class="edge">
<title>k6&#45;&gt;wafEdge</title>
<path fill="none" stroke="#94a3b8" d="M83.57,-109.53C98.38,-125.37 118.19,-144.02 139.03,-156.42 183.9,-183.12 203.17,-171.22 250.78,-192.67 270.27,-201.45 290.88,-213.36 307.55,-223.73"/>
<polygon fill="#94a3b8" stroke="#94a3b8" points="305.94,-225.61 313.16,-227.26 308.55,-221.46 305.94,-225.61"/>
<text xml:space="preserve" text-anchor="middle" x="194.91" y="-193.87" font-family="Helvetica,sans-Serif" font-size="9.00" fill="#f8fafc">storefront + browser checks</text>
</g>
<!-- k6&#45;&gt;apiGw -->
<g id="edge16" class="edge">
<title>k6&#45;&gt;apiGw</title>
<path fill="none" stroke="#94a3b8" d="M108.14,-69.55C147.9,-63.84 204.31,-60.52 250.78,-76.17 274.43,-84.14 296.81,-100.95 313.47,-116.01"/>
<polygon fill="#94a3b8" stroke="#94a3b8" points="311.44,-117.47 318.23,-120.44 314.77,-113.88 311.44,-117.47"/>
<text xml:space="preserve" text-anchor="middle" x="194.91" y="-96.87" font-family="Helvetica,sans-Serif" font-size="9.00" fill="#f8fafc">Synthetic load</text>
<text xml:space="preserve" text-anchor="middle" x="194.91" y="-87.12" font-family="Helvetica,sans-Serif" font-size="9.00" fill="#f8fafc">5 rps baseline</text>
<text xml:space="preserve" text-anchor="middle" x="194.91" y="-77.37" font-family="Helvetica,sans-Serif" font-size="9.00" fill="#f8fafc">with traceparent</text>
</g>
<!-- grafana -->
<g id="node11" class="node">
<title>grafana</title>
<path fill="#6b21a8" stroke="#64748b" d="M389.44,-40.42C389.44,-40.42 296.41,-40.42 296.41,-40.42 290.41,-40.42 284.41,-34.42 284.41,-28.42 284.41,-28.42 284.41,-16.42 284.41,-16.42 284.41,-10.42 290.41,-4.42 296.41,-4.42 296.41,-4.42 389.44,-4.42 389.44,-4.42 395.44,-4.42 401.44,-10.42 401.44,-16.42 401.44,-16.42 401.44,-28.42 401.44,-28.42 401.44,-34.42 395.44,-40.42 389.44,-40.42"/>
<text xml:space="preserve" text-anchor="middle" x="342.92" y="-23.97" font-family="Helvetica,sans-Serif" font-size="11.00" fill="#f8fafc">Grafana Cloud</text>
<text xml:space="preserve" text-anchor="middle" x="342.92" y="-11.97" font-family="Helvetica,sans-Serif" font-size="11.00" fill="#f8fafc">results and telemetry</text>
</g>
<!-- k6&#45;&gt;grafana -->
<g id="edge30" class="edge">
<title>k6&#45;&gt;grafana</title>
<path fill="none" stroke="#94a3b8" d="M89.21,-49.27C103.27,-37.73 120.79,-25.9 139.03,-19.92 182.94,-5.53 235.12,-6.54 275.56,-10.95"/>
<polygon fill="#94a3b8" stroke="#94a3b8" points="275.27,-13.38 282.51,-11.76 275.84,-8.52 275.27,-13.38"/>
<text xml:space="preserve" text-anchor="middle" x="194.91" y="-30.87" font-family="Helvetica,sans-Serif" font-size="9.00" fill="#f8fafc">k6 result metrics</text>
<text xml:space="preserve" text-anchor="middle" x="194.91" y="-21.12" font-family="Helvetica,sans-Serif" font-size="9.00" fill="#f8fafc">and trace correlation</text>
</g>
<!-- inventory&#45;&gt;apiGw -->
<g id="edge26" class="edge">
<title>inventory&#45;&gt;apiGw</title>
<path fill="none" stroke="#94a3b8" d="M549.81,-97.96C514.99,-95.59 472.39,-95.53 435.06,-103.67 421.27,-106.68 407.07,-111.97 394.11,-117.79"/>
<polygon fill="#94a3b8" stroke="#94a3b8" points="393.32,-115.46 388.01,-120.64 395.39,-119.9 393.32,-115.46"/>
<text xml:space="preserve" text-anchor="middle" x="480.06" y="-104.87" font-family="Helvetica,sans-Serif" font-size="9.00" fill="#f8fafc">JSON response</text>
</g>
<!-- dynamoProducts -->
<g id="node15" class="node">
<title>dynamoProducts</title>
<path fill="#166534" stroke="#64748b" d="M1039.62,-127.4C1039.62,-129.85 1019.28,-131.84 994.23,-131.84 969.18,-131.84 948.84,-129.85 948.84,-127.4 948.84,-127.4 948.84,-87.44 948.84,-87.44 948.84,-84.99 969.18,-83 994.23,-83 1019.28,-83 1039.62,-84.99 1039.62,-87.44 1039.62,-87.44 1039.62,-127.4 1039.62,-127.4"/>
<path fill="none" stroke="#64748b" d="M1039.62,-127.4C1039.62,-124.95 1019.28,-122.96 994.23,-122.96 969.18,-122.96 948.84,-124.95 948.84,-127.4"/>
<text xml:space="preserve" text-anchor="middle" x="994.23" y="-108.97" font-family="Helvetica,sans-Serif" font-size="11.00" fill="#f8fafc">DynamoDB</text>
<text xml:space="preserve" text-anchor="middle" x="994.23" y="-96.97" font-family="Helvetica,sans-Serif" font-size="11.00" fill="#f8fafc">product catalog</text>
</g>
<!-- inventory&#45;&gt;dynamoProducts -->
<g id="edge20" class="edge">
<title>inventory&#45;&gt;dynamoProducts</title>
<path fill="none" stroke="#94a3b8" d="M690.73,-117.94C699.01,-118.96 707.35,-119.83 715.34,-120.42 787.81,-125.78 806.29,-124.53 878.84,-120.42 898.92,-119.28 920.88,-117.03 940.15,-114.72"/>
<polygon fill="#94a3b8" stroke="#94a3b8" points="940.36,-117.16 947.01,-113.87 939.76,-112.3 940.36,-117.16"/>
<text xml:space="preserve" text-anchor="middle" x="797.09" y="-125.19" font-family="Helvetica,sans-Serif" font-size="9.00" fill="#f8fafc">Scan products, categories, stock, pricing</text>
</g>
<!-- cart&#45;&gt;apiGw -->
<g id="edge27" class="edge">
<title>cart&#45;&gt;apiGw</title>
<path fill="none" stroke="#94a3b8" d="M562.5,-10.27C524.39,-6.24 474.17,-6.55 435.06,-26.67 430.17,-29.18 391.92,-80.26 366.55,-114.6"/>
<polygon fill="#94a3b8" stroke="#94a3b8" points="364.75,-112.92 362.56,-120.01 368.69,-115.83 364.75,-112.92"/>
<text xml:space="preserve" text-anchor="middle" x="480.06" y="-27.87" font-family="Helvetica,sans-Serif" font-size="9.00" fill="#f8fafc">JSON response</text>
</g>
<!-- dynamoCart -->
<g id="node16" class="node">
<title>dynamoCart</title>
<path fill="#166534" stroke="#64748b" d="M1031,-44.4C1031,-46.85 1014.52,-48.84 994.23,-48.84 973.94,-48.84 957.47,-46.85 957.47,-44.4 957.47,-44.4 957.47,-4.44 957.47,-4.44 957.47,-1.99 973.94,0 994.23,0 1014.52,0 1031,-1.99 1031,-4.44 1031,-4.44 1031,-44.4 1031,-44.4"/>
<path fill="none" stroke="#64748b" d="M1031,-44.4C1031,-41.95 1014.52,-39.96 994.23,-39.96 973.94,-39.96 957.47,-41.95 957.47,-44.4"/>
<text xml:space="preserve" text-anchor="middle" x="994.23" y="-25.97" font-family="Helvetica,sans-Serif" font-size="11.00" fill="#f8fafc">DynamoDB</text>
<text xml:space="preserve" text-anchor="middle" x="994.23" y="-13.97" font-family="Helvetica,sans-Serif" font-size="11.00" fill="#f8fafc">cart state</text>
</g>
<!-- cart&#45;&gt;dynamoCart -->
<g id="edge22" class="edge">
<title>cart&#45;&gt;dynamoCart</title>
<path fill="none" stroke="#94a3b8" d="M677.91,-25.32C690.24,-26.2 703.22,-26.97 715.34,-27.42 797.72,-30.48 893.92,-28.12 948.8,-26.21"/>
<polygon fill="#94a3b8" stroke="#94a3b8" points="948.82,-28.66 955.73,-25.96 948.65,-23.76 948.82,-28.66"/>
<text xml:space="preserve" text-anchor="middle" x="797.09" y="-30.09" font-family="Helvetica,sans-Serif" font-size="9.00" fill="#f8fafc">Read/write cart items</text>
</g>
<!-- account&#45;&gt;apiGw -->
<g id="edge28" class="edge">
<title>account&#45;&gt;apiGw</title>
<path fill="none" stroke="#94a3b8" d="M552.85,-189.44C512.21,-180.88 460.12,-169.9 418.12,-161.05"/>
<polygon fill="#94a3b8" stroke="#94a3b8" points="418.69,-158.67 411.34,-159.62 417.68,-163.47 418.69,-158.67"/>
<text xml:space="preserve" text-anchor="middle" x="480.06" y="-184.2" font-family="Helvetica,sans-Serif" font-size="9.00" fill="#f8fafc">JSON response</text>
</g>
<!-- dynamoAccount -->
<g id="node17" class="node">
<title>dynamoAccount</title>
<path fill="#166534" stroke="#64748b" d="M1084.62,-244.4C1084.62,-246.85 1044.11,-248.84 994.23,-248.84 944.35,-248.84 903.84,-246.85 903.84,-244.4 903.84,-244.4 903.84,-204.44 903.84,-204.44 903.84,-201.99 944.35,-200 994.23,-200 1044.11,-200 1084.62,-201.99 1084.62,-204.44 1084.62,-204.44 1084.62,-244.4 1084.62,-244.4"/>
<path fill="none" stroke="#64748b" d="M1084.62,-244.4C1084.62,-241.95 1044.11,-239.96 994.23,-239.96 944.35,-239.96 903.84,-241.95 903.84,-244.4"/>
<text xml:space="preserve" text-anchor="middle" x="994.23" y="-225.97" font-family="Helvetica,sans-Serif" font-size="11.00" fill="#f8fafc">DynamoDB</text>
<text xml:space="preserve" text-anchor="middle" x="994.23" y="-213.97" font-family="Helvetica,sans-Serif" font-size="11.00" fill="#f8fafc">account, address, wallet metadata</text>
</g>
<!-- account&#45;&gt;dynamoAccount -->
<g id="edge24" class="edge">
<title>account&#45;&gt;dynamoAccount</title>
<path fill="none" stroke="#94a3b8" d="M687.72,-212.69C696.98,-213.75 706.39,-214.71 715.34,-215.42 774.94,-220.17 841.93,-222.43 895.2,-223.5"/>
<polygon fill="#94a3b8" stroke="#94a3b8" points="895.07,-225.95 902.12,-223.63 895.16,-221.05 895.07,-225.95"/>
<text xml:space="preserve" text-anchor="middle" x="797.09" y="-224.21" font-family="Helvetica,sans-Serif" font-size="9.00" fill="#f8fafc">Read/write profile, shipping, wallet</text>
</g>
<!-- dynamoProducts&#45;&gt;inventory -->
<g id="edge21" class="edge">
<title>dynamoProducts&#45;&gt;inventory</title>
<path fill="none" stroke="#94a3b8" d="M948.56,-107.3C886.83,-107.13 774.49,-106.83 698.86,-106.63"/>
<polygon fill="#94a3b8" stroke="#94a3b8" points="699.26,-104.18 692.25,-106.61 699.25,-109.08 699.26,-104.18"/>
</g>
<!-- dynamoCart&#45;&gt;cart -->
<g id="edge23" class="edge">
<title>dynamoCart&#45;&gt;cart</title>
<path fill="none" stroke="#94a3b8" d="M957.04,-24.03C894.34,-23.36 764.69,-21.96 686.09,-21.12"/>
<polygon fill="#94a3b8" stroke="#94a3b8" points="686.24,-18.67 679.22,-21.04 686.19,-23.57 686.24,-18.67"/>
</g>
<!-- dynamoAccount&#45;&gt;account -->
<g id="edge25" class="edge">
<title>dynamoAccount&#45;&gt;account</title>
<path fill="none" stroke="#94a3b8" d="M903.53,-219.36C840.03,-215.77 755.87,-211.02 695.99,-207.64"/>
<polygon fill="#94a3b8" stroke="#94a3b8" points="696.35,-205.21 689.22,-207.26 696.07,-210.1 696.35,-205.21"/>
</g>
</g>
</svg>
