<?xml version="1.0" encoding="UTF-8" standalone="no"?>
<!DOCTYPE svg PUBLIC "-//W3C//DTD SVG 1.1//EN"
 "http://www.w3.org/Graphics/SVG/1.1/DTD/svg11.dtd">
<!-- Generated by graphviz version 15.0.0 (20260523.1842)
 -->
<!-- Title: sequence_dependency_diagram Pages: 1 -->
<svg width="1188pt" height="1161pt"
 viewBox="0.00 0.00 1188.00 1161.00" xmlns="http://www.w3.org/2000/svg" xmlns:xlink="http://www.w3.org/1999/xlink">
<g id="graph0" class="graph" transform="scale(1 1) rotate(0) translate(18 1143.42)">
<title>sequence_dependency_diagram</title>
<polygon fill="#0b1220" stroke="none" points="-18,18 -18,-1143.42 1170.25,-1143.42 1170.25,18 -18,18"/>
<text xml:space="preserve" text-anchor="middle" x="576.12" y="-1100.52" font-family="Helvetica,Arial,sans-serif" font-size="22.00" fill="#f8fafc">Frontend&#45;to&#45;Backend Request Sequence as Stacked Horizontal Paths</text>
<g id="clust1" class="cluster">
<title>cluster_static</title>
<path fill="#0b1220" stroke="#38bdf8" stroke-width="2" d="M229.25,-868.92C229.25,-868.92 1132.25,-868.92 1132.25,-868.92 1138.25,-868.92 1144.25,-874.92 1144.25,-880.92 1144.25,-880.92 1144.25,-969.92 1144.25,-969.92 1144.25,-975.92 1138.25,-981.92 1132.25,-981.92 1132.25,-981.92 229.25,-981.92 229.25,-981.92 223.25,-981.92 217.25,-975.92 217.25,-969.92 217.25,-969.92 217.25,-880.92 217.25,-880.92 217.25,-874.92 223.25,-868.92 229.25,-868.92"/>
<text xml:space="preserve" text-anchor="middle" x="680.75" y="-957.02" font-family="Helvetica,Arial,sans-serif" font-size="22.00" fill="#bae6fd">1. Storefront page load</text>
</g>
<g id="clust2" class="cluster">
<title>cluster_auth</title>
<path fill="#0b1220" stroke="#a855f7" stroke-width="2" d="M243.25,-738.92C243.25,-738.92 925.25,-738.92 925.25,-738.92 931.25,-738.92 937.25,-744.92 937.25,-750.92 937.25,-750.92 937.25,-839.92 937.25,-839.92 937.25,-845.92 931.25,-851.92 925.25,-851.92 925.25,-851.92 243.25,-851.92 243.25,-851.92 237.25,-851.92 231.25,-845.92 231.25,-839.92 231.25,-839.92 231.25,-750.92 231.25,-750.92 231.25,-744.92 237.25,-738.92 243.25,-738.92"/>
<text xml:space="preserve" text-anchor="middle" x="584.25" y="-827.02" font-family="Helvetica,Arial,sans-serif" font-size="22.00" fill="#e9d5ff">2. Google sign&#45;in through Cognito</text>
</g>
<g id="clust3" class="cluster">
<title>cluster_inventory</title>
<path fill="#0b1220" stroke="#22c55e" stroke-width="2" d="M224.25,-600.04C224.25,-600.04 1008.25,-600.04 1008.25,-600.04 1014.25,-600.04 1020.25,-606.04 1020.25,-612.04 1020.25,-612.04 1020.25,-709.92 1020.25,-709.92 1020.25,-715.92 1014.25,-721.92 1008.25,-721.92 1008.25,-721.92 224.25,-721.92 224.25,-721.92 218.25,-721.92 212.25,-715.92 212.25,-709.92 212.25,-709.92 212.25,-612.04 212.25,-612.04 212.25,-606.04 218.25,-600.04 224.25,-600.04"/>
<text xml:space="preserve" text-anchor="middle" x="616.25" y="-697.02" font-family="Helvetica,Arial,sans-serif" font-size="22.00" fill="#bbf7d0">3. Inventory browse request</text>
</g>
<g id="clust4" class="cluster">
<title>cluster_cart</title>
<path fill="#0b1220" stroke="#22c55e" stroke-width="2" d="M248.25,-442.66C248.25,-442.66 1031.25,-442.66 1031.25,-442.66 1037.25,-442.66 1043.25,-448.66 1043.25,-454.66 1043.25,-454.66 1043.25,-552.54 1043.25,-552.54 1043.25,-558.54 1037.25,-564.54 1031.25,-564.54 1031.25,-564.54 248.25,-564.54 248.25,-564.54 242.25,-564.54 236.25,-558.54 236.25,-552.54 236.25,-552.54 236.25,-454.66 236.25,-454.66 236.25,-448.66 242.25,-442.66 248.25,-442.66"/>
<text xml:space="preserve" text-anchor="middle" x="639.75" y="-539.64" font-family="Helvetica,Arial,sans-serif" font-size="22.00" fill="#bbf7d0">4. Cart update request</text>
</g>
<g id="clust5" class="cluster">
<title>cluster_account</title>
<path fill="#0b1220" stroke="#22c55e" stroke-width="2" d="M197.25,-303.78C197.25,-303.78 948.25,-303.78 948.25,-303.78 954.25,-303.78 960.25,-309.78 960.25,-315.78 960.25,-315.78 960.25,-413.66 960.25,-413.66 960.25,-419.66 954.25,-425.66 948.25,-425.66 948.25,-425.66 197.25,-425.66 197.25,-425.66 191.25,-425.66 185.25,-419.66 185.25,-413.66 185.25,-413.66 185.25,-315.78 185.25,-315.78 185.25,-309.78 191.25,-303.78 197.25,-303.78"/>
<text xml:space="preserve" text-anchor="middle" x="572.75" y="-400.76" font-family="Helvetica,Arial,sans-serif" font-size="22.00" fill="#bbf7d0">5. Account save request</text>
</g>
<g id="clust6" class="cluster">
<title>cluster_telemetry</title>
<path fill="#0b1220" stroke="#c084fc" stroke-width="2" d="M235.25,-165.14C235.25,-165.14 755.25,-165.14 755.25,-165.14 761.25,-165.14 767.25,-171.14 767.25,-177.14 767.25,-177.14 767.25,-274.78 767.25,-274.78 767.25,-280.78 761.25,-286.78 755.25,-286.78 755.25,-286.78 235.25,-286.78 235.25,-286.78 229.25,-286.78 223.25,-280.78 223.25,-274.78 223.25,-274.78 223.25,-177.14 223.25,-177.14 223.25,-171.14 229.25,-165.14 235.25,-165.14"/>
<text xml:space="preserve" text-anchor="middle" x="495.25" y="-261.88" font-family="Helvetica,Arial,sans-serif" font-size="22.00" fill="#f3e8ff">6. Backend telemetry</text>
</g>
<g id="clust7" class="cluster">
<title>cluster_k6</title>
<path fill="#0b1220" stroke="#f59e0b" stroke-width="2" d="M230.25,-8C230.25,-8 786.25,-8 786.25,-8 792.25,-8 798.25,-14 798.25,-20 798.25,-20 798.25,-117.64 798.25,-117.64 798.25,-123.64 792.25,-129.64 786.25,-129.64 786.25,-129.64 230.25,-129.64 230.25,-129.64 224.25,-129.64 218.25,-123.64 218.25,-117.64 218.25,-117.64 218.25,-20 218.25,-20 218.25,-14 224.25,-8 230.25,-8"/>
<text xml:space="preserve" text-anchor="middle" x="508.25" y="-104.74" font-family="Helvetica,Arial,sans-serif" font-size="22.00" fill="#fde68a">7. k6 load and browser checks</text>
</g>
<!-- key&#45;&gt;start -->
<!-- start&#45;&gt;static_browser -->
<!-- static_browser&#45;&gt;static_dns -->
<g id="edge1" class="edge">
<title>static_browser&#45;&gt;static_dns</title>
<path fill="none" stroke="#94a3b8" stroke-width="2" d="M336.99,-894.92C351.5,-894.92 366.84,-894.92 380.35,-894.92"/>
<polygon fill="#94a3b8" stroke="#94a3b8" stroke-width="2" points="379.98,-896.85 385.48,-894.92 379.98,-893 379.98,-896.85"/>
<text xml:space="preserve" text-anchor="middle" x="362.75" y="-899.12" font-family="Helvetica,Arial,sans-serif" font-size="9.00" fill="#f8fafc">resolve</text>
</g>
<!-- static_browser&#45;&gt;auth_browser -->
<!-- static_dns&#45;&gt;static_cf -->
<g id="edge2" class="edge">
<title>static_dns&#45;&gt;static_cf</title>
<path fill="none" stroke="#94a3b8" stroke-width="2" d="M452.03,-894.92C462.74,-894.92 474.94,-894.92 486.56,-894.92"/>
<polygon fill="#94a3b8" stroke="#94a3b8" stroke-width="2" points="486.37,-896.85 491.87,-894.92 486.37,-893 486.37,-896.85"/>
<text xml:space="preserve" text-anchor="middle" x="473.56" y="-899.12" font-family="Helvetica,Arial,sans-serif" font-size="9.00" fill="#f8fafc">alias</text>
</g>
<!-- static_cf&#45;&gt;static_s3 -->
<g id="edge3" class="edge">
<title>static_cf&#45;&gt;static_s3</title>
<path fill="none" stroke="#94a3b8" stroke-width="2" d="M571.55,-894.92C582.81,-894.92 595.19,-894.92 606.7,-894.92"/>
<polygon fill="#94a3b8" stroke="#94a3b8" stroke-width="2" points="606.37,-896.85 611.87,-894.92 606.37,-893 606.37,-896.85"/>
<text xml:space="preserve" text-anchor="middle" x="593.12" y="-899.12" font-family="Helvetica,Arial,sans-serif" font-size="9.00" fill="#f8fafc">fetch</text>
</g>
<!-- static_s3&#45;&gt;static_render -->
<g id="edge4" class="edge">
<title>static_s3&#45;&gt;static_render</title>
<path fill="none" stroke="#94a3b8" stroke-width="2" d="M683.93,-894.92C695.52,-894.92 708.79,-894.92 721.73,-894.92"/>
<polygon fill="#94a3b8" stroke="#94a3b8" stroke-width="2" points="721.63,-896.85 727.13,-894.92 721.63,-893 721.63,-896.85"/>
<text xml:space="preserve" text-anchor="middle" x="707" y="-899.12" font-family="Helvetica,Arial,sans-serif" font-size="9.00" fill="#f8fafc">assets</text>
</g>
<!-- static_render&#45;&gt;static_faro -->
<g id="edge5" class="edge">
<title>static_render&#45;&gt;static_faro</title>
<path fill="none" stroke="#94a3b8" stroke-width="2" d="M832.19,-894.92C850.17,-894.92 870.43,-894.92 888.62,-894.92"/>
<polygon fill="#94a3b8" stroke="#94a3b8" stroke-width="2" points="888.29,-896.85 893.79,-894.92 888.29,-893 888.29,-896.85"/>
<text xml:space="preserve" text-anchor="middle" x="864.56" y="-899.12" font-family="Helvetica,Arial,sans-serif" font-size="9.00" fill="#f8fafc">web signal</text>
</g>
<!-- static_faro&#45;&gt;static_grafana -->
<g id="edge6" class="edge">
<title>static_faro&#45;&gt;static_grafana</title>
<path fill="none" stroke="#94a3b8" stroke-width="2" d="M987.5,-894.92C999.65,-894.92 1012.97,-894.92 1025.76,-894.92"/>
<polygon fill="#94a3b8" stroke="#94a3b8" stroke-width="2" points="1025.55,-896.85 1031.05,-894.92 1025.55,-893 1025.55,-896.85"/>
<text xml:space="preserve" text-anchor="middle" x="1010.94" y="-899.12" font-family="Helvetica,Arial,sans-serif" font-size="9.00" fill="#f8fafc">collect</text>
</g>
<!-- auth_browser&#45;&gt;auth_cognito -->
<g id="edge7" class="edge">
<title>auth_browser&#45;&gt;auth_cognito</title>
<path fill="none" stroke="#94a3b8" stroke-width="2" d="M323.37,-764.92C338.91,-764.92 356.74,-764.92 373.25,-764.92"/>
<polygon fill="#94a3b8" stroke="#94a3b8" stroke-width="2" points="373.21,-766.85 378.71,-764.92 373.21,-763 373.21,-766.85"/>
<text xml:space="preserve" text-anchor="middle" x="352.5" y="-769.12" font-family="Helvetica,Arial,sans-serif" font-size="9.00" fill="#f8fafc">authorize</text>
</g>
<!-- auth_browser&#45;&gt;inv_browser -->
<!-- auth_cognito&#45;&gt;auth_google -->
<g id="edge8" class="edge">
<title>auth_cognito&#45;&gt;auth_google</title>
<path fill="none" stroke="#94a3b8" stroke-width="2" d="M474.92,-764.92C488.9,-764.92 504.26,-764.92 518.38,-764.92"/>
<polygon fill="#94a3b8" stroke="#94a3b8" stroke-width="2" points="518,-766.85 523.5,-764.92 518,-763 518,-766.85"/>
<text xml:space="preserve" text-anchor="middle" x="500.56" y="-769.12" font-family="Helvetica,Arial,sans-serif" font-size="9.00" fill="#f8fafc">redirect</text>
</g>
<!-- auth_google&#45;&gt;auth_claims -->
<g id="edge9" class="edge">
<title>auth_google&#45;&gt;auth_claims</title>
<path fill="none" stroke="#94a3b8" stroke-width="2" d="M607.98,-764.92C620.18,-764.92 633.72,-764.92 646.53,-764.92"/>
<polygon fill="#94a3b8" stroke="#94a3b8" stroke-width="2" points="646.29,-766.85 651.79,-764.92 646.29,-763 646.29,-766.85"/>
<text xml:space="preserve" text-anchor="middle" x="631.44" y="-769.12" font-family="Helvetica,Arial,sans-serif" font-size="9.00" fill="#f8fafc">claims</text>
</g>
<!-- auth_claims&#45;&gt;auth_account -->
<g id="edge10" class="edge">
<title>auth_claims&#45;&gt;auth_account</title>
<path fill="none" stroke="#94a3b8" stroke-width="2" d="M741.84,-764.92C766.14,-764.92 796.68,-764.92 822.89,-764.92"/>
<polygon fill="#94a3b8" stroke="#94a3b8" stroke-width="2" points="822.71,-766.85 828.21,-764.92 822.71,-763 822.71,-766.85"/>
<text xml:space="preserve" text-anchor="middle" x="786.44" y="-769.12" font-family="Helvetica,Arial,sans-serif" font-size="9.00" fill="#f8fafc">callback + PKCE</text>
</g>
<!-- inv_browser&#45;&gt;inv_api -->
<g id="edge11" class="edge">
<title>inv_browser&#45;&gt;inv_api</title>
<path fill="none" stroke="#94a3b8" stroke-width="2" d="M342.92,-630.48C352.21,-630.48 367.26,-630.48 377.37,-630.48"/>
<polygon fill="#94a3b8" stroke="#94a3b8" stroke-width="2" points="377.36,-632.41 382.86,-630.48 377.36,-628.56 377.36,-632.41"/>
</g>
<!-- inv_browser&#45;&gt;cart_browser -->
<!-- inv_api&#45;&gt;inv_service -->
<g id="edge12" class="edge">
<title>inv_api&#45;&gt;inv_service</title>
<path fill="none" stroke="#94a3b8" stroke-width="2" d="M496.93,-630.48C501.75,-630.48 518.64,-630.48 532.07,-630.48"/>
<polygon fill="#94a3b8" stroke="#94a3b8" stroke-width="2" points="531.71,-632.41 537.21,-630.48 531.71,-628.56 531.71,-632.41"/>
</g>
<!-- inv_service&#45;&gt;inv_db -->
<g id="edge13" class="edge">
<title>inv_service&#45;&gt;inv_db</title>
<path fill="none" stroke="#94a3b8" stroke-width="2" d="M668.13,-630.48C679.56,-630.48 691.49,-630.48 702.96,-630.48"/>
<polygon fill="#94a3b8" stroke="#94a3b8" stroke-width="2" points="702.7,-632.41 708.2,-630.48 702.7,-628.56 702.7,-632.41"/>
<text xml:space="preserve" text-anchor="middle" x="689.81" y="-634.68" font-family="Helvetica,Arial,sans-serif" font-size="9.00" fill="#f8fafc">scan</text>
</g>
<!-- inv_db&#45;&gt;inv_response -->
<g id="edge14" class="edge">
<title>inv_db&#45;&gt;inv_response</title>
<path fill="none" stroke="#94a3b8" stroke-width="2" d="M825.3,-630.48C847.91,-630.48 873.98,-630.48 897.08,-630.48"/>
<polygon fill="#94a3b8" stroke="#94a3b8" stroke-width="2" points="896.91,-632.41 902.41,-630.48 896.91,-628.56 896.91,-632.41"/>
<text xml:space="preserve" text-anchor="middle" x="865.44" y="-634.68" font-family="Helvetica,Arial,sans-serif" font-size="9.00" fill="#f8fafc">items &#45;&gt; JSON</text>
</g>
<!-- cart_browser&#45;&gt;cart_api -->
<g id="edge16" class="edge">
<title>cart_browser&#45;&gt;cart_api</title>
<path fill="none" stroke="#94a3b8" stroke-width="2" d="M298.05,-491.43C322.3,-517.9 364.25,-563.67 364.25,-563.67 364.25,-563.67 476.25,-563.67 476.25,-563.67 476.25,-563.67 511.77,-524.44 536.06,-497.61"/>
<polygon fill="#94a3b8" stroke="#94a3b8" stroke-width="2" points="537.36,-499.04 539.62,-493.67 534.51,-496.46 537.36,-499.04"/>
<text xml:space="preserve" text-anchor="middle" x="402.25" y="-583.49" font-family="Helvetica,Arial,sans-serif" font-size="9.00" fill="#f8fafc">signed&#45;in PUT</text>
<text xml:space="preserve" text-anchor="middle" x="402.25" y="-573.74" font-family="Helvetica,Arial,sans-serif" font-size="9.00" fill="#f8fafc">Bearer JWT</text>
</g>
<!-- cart_browser&#45;&gt;cart_local -->
<g id="edge15" class="edge">
<title>cart_browser&#45;&gt;cart_local</title>
<path fill="none" stroke="#94a3b8" stroke-width="2" d="M318.5,-473.1C333.15,-473.1 350.27,-473.1 366.23,-473.1"/>
<polygon fill="#94a3b8" stroke="#94a3b8" stroke-width="2" points="365.93,-475.03 371.43,-473.1 365.93,-471.18 365.93,-475.03"/>
<text xml:space="preserve" text-anchor="middle" x="346.44" y="-477.3" font-family="Helvetica,Arial,sans-serif" font-size="9.00" fill="#f8fafc">no token</text>
</g>
<!-- cart_browser&#45;&gt;acct_browser -->
<!-- cart_api&#45;&gt;cart_service -->
<g id="edge17" class="edge">
<title>cart_api&#45;&gt;cart_service</title>
<path fill="none" stroke="#94a3b8" stroke-width="2" d="M629.09,-473.1C640.04,-473.1 654.63,-473.1 663.65,-473.1"/>
<polygon fill="#94a3b8" stroke="#94a3b8" stroke-width="2" points="663.37,-475.03 668.87,-473.1 663.37,-471.18 663.37,-475.03"/>
</g>
<!-- cart_service&#45;&gt;cart_db -->
<g id="edge18" class="edge">
<title>cart_service&#45;&gt;cart_db</title>
<path fill="none" stroke="#94a3b8" stroke-width="2" d="M782.59,-473.1C795.75,-473.1 809.62,-473.1 822.2,-473.1"/>
<polygon fill="#94a3b8" stroke="#94a3b8" stroke-width="2" points="822.15,-475.03 827.65,-473.1 822.15,-471.18 822.15,-475.03"/>
<text xml:space="preserve" text-anchor="middle" x="806.69" y="-477.3" font-family="Helvetica,Arial,sans-serif" font-size="9.00" fill="#f8fafc">persist</text>
</g>
<!-- cart_db&#45;&gt;cart_response -->
<g id="edge19" class="edge">
<title>cart_db&#45;&gt;cart_response</title>
<path fill="none" stroke="#94a3b8" stroke-width="2" d="M901.78,-473.1C912.49,-473.1 924.5,-473.1 936.14,-473.1"/>
<polygon fill="#94a3b8" stroke="#94a3b8" stroke-width="2" points="935.99,-475.03 941.49,-473.1 935.99,-471.18 935.99,-475.03"/>
<text xml:space="preserve" text-anchor="middle" x="923.19" y="-477.3" font-family="Helvetica,Arial,sans-serif" font-size="9.00" fill="#f8fafc">ack</text>
</g>
<!-- acct_browser&#45;&gt;acct_api -->
<g id="edge20" class="edge">
<title>acct_browser&#45;&gt;acct_api</title>
<path fill="none" stroke="#94a3b8" stroke-width="2" d="M369.69,-334.22C390.49,-334.22 411.93,-334.22 430.34,-334.22"/>
<polygon fill="#94a3b8" stroke="#94a3b8" stroke-width="2" points="430.04,-336.15 435.54,-334.22 430.04,-332.3 430.04,-336.15"/>
<text xml:space="preserve" text-anchor="middle" x="404.19" y="-338.42" font-family="Helvetica,Arial,sans-serif" font-size="9.00" fill="#f8fafc">Bearer JWT</text>
</g>
<!-- acct_browser&#45;&gt;telemetry_services -->
<!-- acct_api&#45;&gt;acct_service -->
<g id="edge21" class="edge">
<title>acct_api&#45;&gt;acct_service</title>
<path fill="none" stroke="#94a3b8" stroke-width="2" d="M521.88,-334.22C526.5,-334.22 529.58,-334.22 529.58,-334.22 529.58,-334.22 543.54,-334.22 556.61,-334.22"/>
<polygon fill="#94a3b8" stroke="#94a3b8" stroke-width="2" points="556.38,-336.15 561.88,-334.22 556.38,-332.3 556.38,-336.15"/>
</g>
<!-- acct_service&#45;&gt;acct_db -->
<g id="edge22" class="edge">
<title>acct_service&#45;&gt;acct_db</title>
<path fill="none" stroke="#94a3b8" stroke-width="2" d="M691.41,-334.22C704.94,-334.22 719,-334.22 731.81,-334.22"/>
<polygon fill="#94a3b8" stroke="#94a3b8" stroke-width="2" points="731.51,-336.15 737.01,-334.22 731.51,-332.3 731.51,-336.15"/>
<text xml:space="preserve" text-anchor="middle" x="715.75" y="-338.42" font-family="Helvetica,Arial,sans-serif" font-size="9.00" fill="#f8fafc">persist</text>
</g>
<!-- acct_db&#45;&gt;acct_response -->
<g id="edge23" class="edge">
<title>acct_db&#45;&gt;acct_response</title>
<path fill="none" stroke="#94a3b8" stroke-width="2" d="M818.7,-334.22C829.57,-334.22 841.57,-334.22 853.12,-334.22"/>
<polygon fill="#94a3b8" stroke="#94a3b8" stroke-width="2" points="852.9,-336.15 858.4,-334.22 852.9,-332.3 852.9,-336.15"/>
<text xml:space="preserve" text-anchor="middle" x="840.06" y="-338.42" font-family="Helvetica,Arial,sans-serif" font-size="9.00" fill="#f8fafc">ack</text>
</g>
<!-- telemetry_services&#45;&gt;telemetry_cw -->
<g id="edge24" class="edge">
<title>telemetry_services&#45;&gt;telemetry_cw</title>
<path fill="none" stroke="#94a3b8" stroke-width="2" d="M331.14,-195.46C352.16,-195.46 376.99,-195.46 399.76,-195.46"/>
<polygon fill="#94a3b8" stroke="#94a3b8" stroke-width="2" points="399.52,-197.39 405.02,-195.46 399.52,-193.54 399.52,-197.39"/>
<text xml:space="preserve" text-anchor="middle" x="369.62" y="-199.66" font-family="Helvetica,Arial,sans-serif" font-size="9.00" fill="#f8fafc">logs + metrics</text>
</g>
<!-- telemetry_services&#45;&gt;k6_runner -->
<!-- telemetry_cw&#45;&gt;telemetry_grafana -->
<g id="edge25" class="edge">
<title>telemetry_cw&#45;&gt;telemetry_grafana</title>
<path fill="none" stroke="#94a3b8" stroke-width="2" d="M530.44,-195.46C558.27,-195.46 591.43,-195.46 620.62,-195.46"/>
<polygon fill="#94a3b8" stroke="#94a3b8" stroke-width="2" points="620.61,-197.39 626.11,-195.46 620.61,-193.54 620.61,-197.39"/>
<text xml:space="preserve" text-anchor="middle" x="579.69" y="-199.66" font-family="Helvetica,Arial,sans-serif" font-size="9.00" fill="#f8fafc">scrape / integration</text>
</g>
<!-- k6_runner&#45;&gt;k6_edge -->
<g id="edge26" class="edge">
<title>k6_runner&#45;&gt;k6_edge</title>
<path fill="none" stroke="#94a3b8" stroke-width="2" d="M303.99,-60.68C331.24,-87.48 373.25,-128.79 373.25,-128.79 373.25,-128.79 509.25,-128.79 509.25,-128.79 509.25,-128.79 541.04,-89.93 562.94,-63.15"/>
<polygon fill="#94a3b8" stroke="#94a3b8" stroke-width="2" points="564.37,-64.45 566.36,-58.97 561.39,-62.01 564.37,-64.45"/>
<text xml:space="preserve" text-anchor="middle" x="427.25" y="-148.59" font-family="Helvetica,Arial,sans-serif" font-size="9.00" fill="#f8fafc">regional, spike,</text>
<text xml:space="preserve" text-anchor="middle" x="427.25" y="-138.84" font-family="Helvetica,Arial,sans-serif" font-size="9.00" fill="#f8fafc">browser actions</text>
</g>
<!-- k6_runner&#45;&gt;k6_grafana -->
<g id="edge28" class="edge">
<title>k6_runner&#45;&gt;k6_grafana</title>
<path fill="none" stroke="#94a3b8" stroke-width="2" d="M336.76,-38.32C349.35,-38.32 362.83,-38.32 375.79,-38.32"/>
<polygon fill="#94a3b8" stroke="#94a3b8" stroke-width="2" points="375.68,-40.25 381.18,-38.32 375.68,-36.4 375.68,-40.25"/>
<text xml:space="preserve" text-anchor="middle" x="360.5" y="-42.52" font-family="Helvetica,Arial,sans-serif" font-size="9.00" fill="#f8fafc">results</text>
</g>
<!-- k6_edge&#45;&gt;k6_services -->
<g id="edge27" class="edge">
<title>k6_edge&#45;&gt;k6_services</title>
<path fill="none" stroke="#94a3b8" stroke-width="2" d="M647.2,-38.32C657.68,-38.32 672.72,-38.32 682.08,-38.32"/>
<polygon fill="#94a3b8" stroke="#94a3b8" stroke-width="2" points="681.91,-40.25 687.41,-38.32 681.91,-36.4 681.91,-40.25"/>
</g>
<!-- key -->
<g id="node1" class="node">
<title>key</title>
<polygon fill="#111827" stroke="none" stroke-width="2" points="562.5,-1094.92 0,-1094.92 0,-1066.92 562.5,-1066.92 562.5,-1094.92"/>
<polygon fill="#1e3a8a" stroke="none" points="1,-1067.92 1,-1093.92 59.25,-1093.92 59.25,-1067.92 1,-1067.92"/>
<polygon fill="none" stroke="#475569" points="1,-1067.92 1,-1093.92 59.25,-1093.92 59.25,-1067.92 1,-1067.92"/>
<text xml:space="preserve" text-anchor="start" x="8" y="-1077.47" font-family="Helvetica,Arial,sans-serif" font-weight="bold" font-size="11.00" fill="#f8fafc">Browser</text>
<polygon fill="#164e63" stroke="none" points="59.25,-1067.92 59.25,-1093.92 133.25,-1093.92 133.25,-1067.92 59.25,-1067.92"/>
<polygon fill="none" stroke="#475569" points="59.25,-1067.92 59.25,-1093.92 133.25,-1093.92 133.25,-1067.92 59.25,-1067.92"/>
<text xml:space="preserve" text-anchor="start" x="66.25" y="-1077.47" font-family="Helvetica,Arial,sans-serif" font-weight="bold" font-size="11.00" fill="#f8fafc">DNS / Edge</text>
<polygon fill="#713f12" stroke="none" points="133.25,-1067.92 133.25,-1093.92 212.5,-1093.92 212.5,-1067.92 133.25,-1067.92"/>
<polygon fill="none" stroke="#475569" points="133.25,-1067.92 133.25,-1093.92 212.5,-1093.92 212.5,-1067.92 133.25,-1067.92"/>
<text xml:space="preserve" text-anchor="start" x="140.25" y="-1077.47" font-family="Helvetica,Arial,sans-serif" font-weight="bold" font-size="11.00" fill="#f8fafc">Static Origin</text>
<polygon fill="#4c1d95" stroke="none" points="212.5,-1067.92 212.5,-1093.92 265.5,-1093.92 265.5,-1067.92 212.5,-1067.92"/>
<polygon fill="none" stroke="#475569" points="212.5,-1067.92 212.5,-1093.92 265.5,-1093.92 265.5,-1067.92 212.5,-1067.92"/>
<text xml:space="preserve" text-anchor="start" x="219.5" y="-1077.47" font-family="Helvetica,Arial,sans-serif" font-weight="bold" font-size="11.00" fill="#f8fafc">Identity</text>
<polygon fill="#14532d" stroke="none" points="265.5,-1067.92 265.5,-1093.92 396.5,-1093.92 396.5,-1067.92 265.5,-1067.92"/>
<polygon fill="none" stroke="#475569" points="265.5,-1067.92 265.5,-1093.92 396.5,-1093.92 396.5,-1067.92 265.5,-1067.92"/>
<text xml:space="preserve" text-anchor="start" x="272.5" y="-1077.47" font-family="Helvetica,Arial,sans-serif" font-weight="bold" font-size="11.00" fill="#f8fafc">API Gateway / Lambda</text>
<polygon fill="#166534" stroke="none" points="396.5,-1067.92 396.5,-1093.92 470.5,-1093.92 470.5,-1067.92 396.5,-1067.92"/>
<polygon fill="none" stroke="#475569" points="396.5,-1067.92 396.5,-1093.92 470.5,-1093.92 470.5,-1067.92 396.5,-1067.92"/>
<text xml:space="preserve" text-anchor="start" x="403.5" y="-1077.47" font-family="Helvetica,Arial,sans-serif" font-weight="bold" font-size="11.00" fill="#f8fafc">DynamoDB</text>
<polygon fill="#6b21a8" stroke="none" points="470.5,-1067.92 470.5,-1093.92 535.5,-1093.92 535.5,-1067.92 470.5,-1067.92"/>
<polygon fill="none" stroke="#475569" points="470.5,-1067.92 470.5,-1093.92 535.5,-1093.92 535.5,-1067.92 470.5,-1067.92"/>
<text xml:space="preserve" text-anchor="start" x="477.5" y="-1077.47" font-family="Helvetica,Arial,sans-serif" font-weight="bold" font-size="11.00" fill="#f8fafc">Telemetry</text>
<polygon fill="#713f12" stroke="none" points="535.5,-1067.92 535.5,-1093.92 561.5,-1093.92 561.5,-1067.92 535.5,-1067.92"/>
<polygon fill="none" stroke="#475569" points="535.5,-1067.92 535.5,-1093.92 561.5,-1093.92 561.5,-1067.92 535.5,-1067.92"/>
<text xml:space="preserve" text-anchor="start" x="542.5" y="-1077.47" font-family="Helvetica,Arial,sans-serif" font-weight="bold" font-size="11.00" fill="#f8fafc">k6</text>
<polygon fill="none" stroke="#475569" points="0,-1066.92 0,-1094.92 562.5,-1094.92 562.5,-1066.92 0,-1066.92"/>
</g>
<!-- start -->
<g id="node2" class="node">
<title>start</title>
<ellipse fill="#1e3a8a" stroke="#1e3a8a" stroke-width="2" cx="281.25" cy="-1021.92" rx="59.59" ry="18"/>
<text xml:space="preserve" text-anchor="middle" x="281.25" y="-1017.47" font-family="Helvetica,Arial,sans-serif" font-size="11.00" fill="#f8fafc">Shopper browser</text>
</g>
<!-- static_browser -->
<g id="node3" class="node">
<title>static_browser</title>
<polygon fill="#1e3a8a" stroke="#1e3a8a" stroke-width="2" points="336.82,-912.92 225.68,-912.92 225.68,-876.92 336.82,-876.92 336.82,-912.92"/>
<text xml:space="preserve" text-anchor="middle" x="281.25" y="-896.47" font-family="Helvetica,Arial,sans-serif" font-size="11.00" fill="#f8fafc">Open</text>
<text xml:space="preserve" text-anchor="middle" x="281.25" y="-884.47" font-family="Helvetica,Arial,sans-serif" font-size="11.00" fill="#f8fafc">ensemble&#45;retail.com</text>
</g>
<!-- static_dns -->
<g id="node4" class="node">
<title>static_dns</title>
<polygon fill="#164e63" stroke="#38bdf8" stroke-width="2" points="451.82,-912.92 388.68,-912.92 388.68,-876.92 451.82,-876.92 451.82,-912.92"/>
<text xml:space="preserve" text-anchor="middle" x="420.25" y="-896.47" font-family="Helvetica,Arial,sans-serif" font-size="11.00" fill="#f8fafc">Route53</text>
<text xml:space="preserve" text-anchor="middle" x="420.25" y="-884.47" font-family="Helvetica,Arial,sans-serif" font-size="11.00" fill="#f8fafc">DNS alias</text>
</g>
<!-- static_cf -->
<g id="node5" class="node">
<title>static_cf</title>
<polygon fill="#164e63" stroke="#38bdf8" stroke-width="2" points="571.2,-912.92 495.3,-912.92 495.3,-876.92 571.2,-876.92 571.2,-912.92"/>
<text xml:space="preserve" text-anchor="middle" x="533.25" y="-896.47" font-family="Helvetica,Arial,sans-serif" font-size="11.00" fill="#f8fafc">CloudFront</text>
<text xml:space="preserve" text-anchor="middle" x="533.25" y="-884.47" font-family="Helvetica,Arial,sans-serif" font-size="11.00" fill="#f8fafc">+ edge WAF</text>
</g>
<!-- static_s3 -->
<g id="node6" class="node">
<title>static_s3</title>
<polygon fill="#713f12" stroke="#f59e0b" stroke-width="2" points="683.45,-912.92 615.05,-912.92 615.05,-876.92 683.45,-876.92 683.45,-912.92"/>
<text xml:space="preserve" text-anchor="middle" x="649.25" y="-896.47" font-family="Helvetica,Arial,sans-serif" font-size="11.00" fill="#f8fafc">S3</text>
<text xml:space="preserve" text-anchor="middle" x="649.25" y="-884.47" font-family="Helvetica,Arial,sans-serif" font-size="11.00" fill="#f8fafc">static origin</text>
</g>
<!-- static_render -->
<g id="node7" class="node">
<title>static_render</title>
<polygon fill="#1e3a8a" stroke="#1e3a8a" stroke-width="2" points="831.95,-912.92 730.55,-912.92 730.55,-876.92 831.95,-876.92 831.95,-912.92"/>
<text xml:space="preserve" text-anchor="middle" x="781.25" y="-896.47" font-family="Helvetica,Arial,sans-serif" font-size="11.00" fill="#f8fafc">Render HTML,</text>
<text xml:space="preserve" text-anchor="middle" x="781.25" y="-884.47" font-family="Helvetica,Arial,sans-serif" font-size="11.00" fill="#f8fafc">JS, CSS, headers</text>
</g>
<!-- static_faro -->
<g id="node8" class="node">
<title>static_faro</title>
<polygon fill="#6b21a8" stroke="#c084fc" stroke-width="2" points="987.33,-912.92 897.17,-912.92 897.17,-876.92 987.33,-876.92 987.33,-912.92"/>
<text xml:space="preserve" text-anchor="middle" x="942.25" y="-896.47" font-family="Helvetica,Arial,sans-serif" font-size="11.00" fill="#f8fafc">Faro page load,</text>
<text xml:space="preserve" text-anchor="middle" x="942.25" y="-884.47" font-family="Helvetica,Arial,sans-serif" font-size="11.00" fill="#f8fafc">vitals, session</text>
</g>
<!-- static_grafana -->
<g id="node9" class="node">
<title>static_grafana</title>
<polygon fill="#6b21a8" stroke="#c084fc" stroke-width="2" points="1135.95,-912.92 1034.55,-912.92 1034.55,-876.92 1135.95,-876.92 1135.95,-912.92"/>
<text xml:space="preserve" text-anchor="middle" x="1085.25" y="-896.47" font-family="Helvetica,Arial,sans-serif" font-size="11.00" fill="#f8fafc">Grafana Cloud</text>
<text xml:space="preserve" text-anchor="middle" x="1085.25" y="-884.47" font-family="Helvetica,Arial,sans-serif" font-size="11.00" fill="#f8fafc">frontend telemetry</text>
</g>
<!-- auth_browser -->
<g id="node10" class="node">
<title>auth_browser</title>
<polygon fill="#1e3a8a" stroke="#1e3a8a" stroke-width="2" points="322.95,-782.92 239.55,-782.92 239.55,-746.92 322.95,-746.92 322.95,-782.92"/>
<text xml:space="preserve" text-anchor="middle" x="281.25" y="-766.47" font-family="Helvetica,Arial,sans-serif" font-size="11.00" fill="#f8fafc">Start</text>
<text xml:space="preserve" text-anchor="middle" x="281.25" y="-754.47" font-family="Helvetica,Arial,sans-serif" font-size="11.00" fill="#f8fafc">Google sign&#45;in</text>
</g>
<!-- auth_cognito -->
<g id="node11" class="node">
<title>auth_cognito</title>
<polygon fill="#4c1d95" stroke="#a855f7" stroke-width="2" points="474.45,-782.92 382.05,-782.92 382.05,-746.92 474.45,-746.92 474.45,-782.92"/>
<text xml:space="preserve" text-anchor="middle" x="428.25" y="-766.47" font-family="Helvetica,Arial,sans-serif" font-size="11.00" fill="#f8fafc">Cognito</text>
<text xml:space="preserve" text-anchor="middle" x="428.25" y="-754.47" font-family="Helvetica,Arial,sans-serif" font-size="11.00" fill="#f8fafc">OAuth authorize</text>
</g>
<!-- auth_google -->
<g id="node12" class="node">
<title>auth_google</title>
<polygon fill="#4c1d95" stroke="#a855f7" stroke-width="2" points="607.83,-782.92 526.67,-782.92 526.67,-746.92 607.83,-746.92 607.83,-782.92"/>
<text xml:space="preserve" text-anchor="middle" x="567.25" y="-766.47" font-family="Helvetica,Arial,sans-serif" font-size="11.00" fill="#f8fafc">Google IdP</text>
<text xml:space="preserve" text-anchor="middle" x="567.25" y="-754.47" font-family="Helvetica,Arial,sans-serif" font-size="11.00" fill="#f8fafc">authentication</text>
</g>
<!-- auth_claims -->
<g id="node13" class="node">
<title>auth_claims</title>
<polygon fill="#4c1d95" stroke="#a855f7" stroke-width="2" points="741.45,-782.92 655.05,-782.92 655.05,-746.92 741.45,-746.92 741.45,-782.92"/>
<text xml:space="preserve" text-anchor="middle" x="698.25" y="-766.47" font-family="Helvetica,Arial,sans-serif" font-size="11.00" fill="#f8fafc">Cognito tokens</text>
<text xml:space="preserve" text-anchor="middle" x="698.25" y="-754.47" font-family="Helvetica,Arial,sans-serif" font-size="11.00" fill="#f8fafc">+ profile claims</text>
</g>
<!-- auth_account -->
<g id="node14" class="node">
<title>auth_account</title>
<polygon fill="#1e3a8a" stroke="#1e3a8a" stroke-width="2" points="929.08,-782.92 831.42,-782.92 831.42,-746.92 929.08,-746.92 929.08,-782.92"/>
<text xml:space="preserve" text-anchor="middle" x="880.25" y="-766.47" font-family="Helvetica,Arial,sans-serif" font-size="11.00" fill="#f8fafc">Populate account</text>
<text xml:space="preserve" text-anchor="middle" x="880.25" y="-754.47" font-family="Helvetica,Arial,sans-serif" font-size="11.00" fill="#f8fafc">name + email</text>
</g>
<!-- inv_browser -->
<g id="node15" class="node">
<title>inv_browser</title>
<polygon fill="#1e3a8a" stroke="#1e3a8a" stroke-width="2" points="342.45,-648.48 220.05,-648.48 220.05,-612.48 342.45,-612.48 342.45,-648.48"/>
<text xml:space="preserve" text-anchor="middle" x="281.25" y="-632.03" font-family="Helvetica,Arial,sans-serif" font-size="11.00" fill="#f8fafc">GET</text>
<text xml:space="preserve" text-anchor="middle" x="281.25" y="-620.03" font-family="Helvetica,Arial,sans-serif" font-size="11.00" fill="#f8fafc">/api/inventory/products</text>
</g>
<!-- inv_api -->
<g id="node16" class="node">
<title>inv_api</title>
<polygon fill="#3730a3" stroke="#818cf8" stroke-width="2" points="496.45,-648.48 386.05,-648.48 386.05,-612.48 496.45,-612.48 496.45,-648.48"/>
<text xml:space="preserve" text-anchor="middle" x="441.25" y="-632.03" font-family="Helvetica,Arial,sans-serif" font-size="11.00" fill="#f8fafc">API Gateway</text>
<text xml:space="preserve" text-anchor="middle" x="441.25" y="-620.03" font-family="Helvetica,Arial,sans-serif" font-size="11.00" fill="#f8fafc">api.* /api/inventory/*</text>
</g>
<!-- inv_service -->
<g id="node17" class="node">
<title>inv_service</title>
<polygon fill="#14532d" stroke="#22c55e" stroke-width="2" points="668.08,-648.48 540.42,-648.48 540.42,-612.48 668.08,-612.48 668.08,-648.48"/>
<text xml:space="preserve" text-anchor="middle" x="604.25" y="-632.03" font-family="Helvetica,Arial,sans-serif" font-size="11.00" fill="#f8fafc">inventory&#45;service</text>
<text xml:space="preserve" text-anchor="middle" x="604.25" y="-620.03" font-family="Helvetica,Arial,sans-serif" font-size="11.00" fill="#f8fafc">Lambda + trace context</text>
</g>
<!-- inv_db -->
<g id="node18" class="node">
<title>inv_db</title>
<path fill="#166534" stroke="#16a34a" stroke-width="2" d="M824.95,-648.84C824.95,-651.09 799.54,-652.92 768.25,-652.92 736.96,-652.92 711.55,-651.09 711.55,-648.84 711.55,-648.84 711.55,-612.12 711.55,-612.12 711.55,-609.87 736.96,-608.04 768.25,-608.04 799.54,-608.04 824.95,-609.87 824.95,-612.12 824.95,-612.12 824.95,-648.84 824.95,-648.84"/>
<path fill="none" stroke="#16a34a" stroke-width="2" d="M824.95,-648.84C824.95,-646.59 799.54,-644.76 768.25,-644.76 736.96,-644.76 711.55,-646.59 711.55,-648.84"/>
<text xml:space="preserve" text-anchor="middle" x="768.25" y="-632.03" font-family="Helvetica,Arial,sans-serif" font-size="11.00" fill="#f8fafc">DynamoDB</text>
<text xml:space="preserve" text-anchor="middle" x="768.25" y="-620.03" font-family="Helvetica,Arial,sans-serif" font-size="11.00" fill="#f8fafc">product catalog scan</text>
</g>
<!-- inv_response -->
<g id="node19" class="node">
<title>inv_response</title>
<polygon fill="#1e3a8a" stroke="#1e3a8a" stroke-width="2" points="1012.58,-648.48 905.92,-648.48 905.92,-612.48 1012.58,-612.48 1012.58,-648.48"/>
<text xml:space="preserve" text-anchor="middle" x="959.25" y="-632.03" font-family="Helvetica,Arial,sans-serif" font-size="11.00" fill="#f8fafc">JSON product data</text>
<text xml:space="preserve" text-anchor="middle" x="959.25" y="-620.03" font-family="Helvetica,Arial,sans-serif" font-size="11.00" fill="#f8fafc">back to browser</text>
</g>
<!-- cart_browser -->
<g id="node20" class="node">
<title>cart_browser</title>
<polygon fill="#1e3a8a" stroke="#1e3a8a" stroke-width="2" points="318.07,-491.1 244.43,-491.1 244.43,-455.1 318.07,-455.1 318.07,-491.1"/>
<text xml:space="preserve" text-anchor="middle" x="281.25" y="-474.65" font-family="Helvetica,Arial,sans-serif" font-size="11.00" fill="#f8fafc">Cart change</text>
<text xml:space="preserve" text-anchor="middle" x="281.25" y="-462.65" font-family="Helvetica,Arial,sans-serif" font-size="11.00" fill="#f8fafc">browser</text>
</g>
<!-- cart_api -->
<g id="node21" class="node">
<title>cart_api</title>
<polygon fill="#3730a3" stroke="#818cf8" stroke-width="2" points="628.83,-491.1 487.68,-491.1 487.68,-455.1 628.83,-455.1 628.83,-491.1"/>
<text xml:space="preserve" text-anchor="middle" x="558.25" y="-474.65" font-family="Helvetica,Arial,sans-serif" font-size="11.00" fill="#f8fafc">API Gateway</text>
<text xml:space="preserve" text-anchor="middle" x="558.25" y="-462.65" font-family="Helvetica,Arial,sans-serif" font-size="11.00" fill="#f8fafc">JWT / X&#45;Api&#45;Key + throttle</text>
</g>
<!-- cart_service -->
<g id="node22" class="node">
<title>cart_service</title>
<polygon fill="#14532d" stroke="#22c55e" stroke-width="2" points="782.45,-491.1 672.05,-491.1 672.05,-455.1 782.45,-455.1 782.45,-491.1"/>
<text xml:space="preserve" text-anchor="middle" x="727.25" y="-474.65" font-family="Helvetica,Arial,sans-serif" font-size="11.00" fill="#f8fafc">cart&#45;service</text>
<text xml:space="preserve" text-anchor="middle" x="727.25" y="-462.65" font-family="Helvetica,Arial,sans-serif" font-size="11.00" fill="#f8fafc">Lambda update cart</text>
</g>
<!-- cart_db -->
<g id="node23" class="node">
<title>cart_db</title>
<path fill="#166534" stroke="#16a34a" stroke-width="2" d="M901.58,-491.46C901.58,-493.71 885.74,-495.54 866.25,-495.54 846.76,-495.54 830.92,-493.71 830.92,-491.46 830.92,-491.46 830.92,-454.74 830.92,-454.74 830.92,-452.49 846.76,-450.66 866.25,-450.66 885.74,-450.66 901.58,-452.49 901.58,-454.74 901.58,-454.74 901.58,-491.46 901.58,-491.46"/>
<path fill="none" stroke="#16a34a" stroke-width="2" d="M901.58,-491.46C901.58,-489.21 885.74,-487.38 866.25,-487.38 846.76,-487.38 830.92,-489.21 830.92,-491.46"/>
<text xml:space="preserve" text-anchor="middle" x="866.25" y="-474.65" font-family="Helvetica,Arial,sans-serif" font-size="11.00" fill="#f8fafc">DynamoDB</text>
<text xml:space="preserve" text-anchor="middle" x="866.25" y="-462.65" font-family="Helvetica,Arial,sans-serif" font-size="11.00" fill="#f8fafc">cart state</text>
</g>
<!-- cart_response -->
<g id="node24" class="node">
<title>cart_response</title>
<polygon fill="#1e3a8a" stroke="#1e3a8a" stroke-width="2" points="1035.7,-491.1 944.8,-491.1 944.8,-455.1 1035.7,-455.1 1035.7,-491.1"/>
<text xml:space="preserve" text-anchor="middle" x="990.25" y="-474.65" font-family="Helvetica,Arial,sans-serif" font-size="11.00" fill="#f8fafc">Updated cart</text>
<text xml:space="preserve" text-anchor="middle" x="990.25" y="-462.65" font-family="Helvetica,Arial,sans-serif" font-size="11.00" fill="#f8fafc">back to browser</text>
</g>
<!-- cart_local -->
<g id="node25" class="node">
<title>cart_local</title>
<polygon fill="#0f172a" stroke="#64748b" stroke-width="2" points="465.7,-491.1 374.8,-491.1 374.8,-455.1 465.7,-455.1 465.7,-491.1"/>
<text xml:space="preserve" text-anchor="middle" x="420.25" y="-474.65" font-family="Helvetica,Arial,sans-serif" font-size="11.00" fill="#f8fafc">localStorage</text>
<text xml:space="preserve" text-anchor="middle" x="420.25" y="-462.65" font-family="Helvetica,Arial,sans-serif" font-size="11.00" fill="#f8fafc">anonymous cart</text>
</g>
<!-- acct_browser -->
<g id="node26" class="node">
<title>acct_browser</title>
<polygon fill="#1e3a8a" stroke="#1e3a8a" stroke-width="2" points="369.45,-352.22 193.05,-352.22 193.05,-316.22 369.45,-316.22 369.45,-352.22"/>
<text xml:space="preserve" text-anchor="middle" x="281.25" y="-335.77" font-family="Helvetica,Arial,sans-serif" font-size="11.00" fill="#f8fafc">PUT</text>
<text xml:space="preserve" text-anchor="middle" x="281.25" y="-323.77" font-family="Helvetica,Arial,sans-serif" font-size="11.00" fill="#f8fafc">/api/account/accounts/{shopperId}</text>
</g>
<!-- acct_api -->
<g id="node27" class="node">
<title>acct_api</title>
<polygon fill="#3730a3" stroke="#818cf8" stroke-width="2" points="521.58,-352.22 438.93,-352.22 438.93,-316.22 521.58,-316.22 521.58,-352.22"/>
<text xml:space="preserve" text-anchor="middle" x="480.25" y="-335.77" font-family="Helvetica,Arial,sans-serif" font-size="11.00" fill="#f8fafc">API Gateway</text>
<text xml:space="preserve" text-anchor="middle" x="480.25" y="-323.77" font-family="Helvetica,Arial,sans-serif" font-size="11.00" fill="#f8fafc">JWT + throttle</text>
</g>
<!-- acct_service -->
<g id="node28" class="node">
<title>acct_service</title>
<polygon fill="#14532d" stroke="#22c55e" stroke-width="2" points="691.33,-352.22 565.17,-352.22 565.17,-316.22 691.33,-316.22 691.33,-352.22"/>
<text xml:space="preserve" text-anchor="middle" x="628.25" y="-335.77" font-family="Helvetica,Arial,sans-serif" font-size="11.00" fill="#f8fafc">account&#45;service</text>
<text xml:space="preserve" text-anchor="middle" x="628.25" y="-323.77" font-family="Helvetica,Arial,sans-serif" font-size="11.00" fill="#f8fafc">Lambda profile + wallet</text>
</g>
<!-- acct_db -->
<g id="node29" class="node">
<title>acct_db</title>
<path fill="#166534" stroke="#16a34a" stroke-width="2" d="M818.33,-352.58C818.33,-354.83 800.81,-356.66 779.25,-356.66 757.69,-356.66 740.17,-354.83 740.17,-352.58 740.17,-352.58 740.17,-315.86 740.17,-315.86 740.17,-313.61 757.69,-311.78 779.25,-311.78 800.81,-311.78 818.33,-313.61 818.33,-315.86 818.33,-315.86 818.33,-352.58 818.33,-352.58"/>
<path fill="none" stroke="#16a34a" stroke-width="2" d="M818.33,-352.58C818.33,-350.33 800.81,-348.5 779.25,-348.5 757.69,-348.5 740.17,-350.33 740.17,-352.58"/>
<text xml:space="preserve" text-anchor="middle" x="779.25" y="-335.77" font-family="Helvetica,Arial,sans-serif" font-size="11.00" fill="#f8fafc">DynamoDB</text>
<text xml:space="preserve" text-anchor="middle" x="779.25" y="-323.77" font-family="Helvetica,Arial,sans-serif" font-size="11.00" fill="#f8fafc">account state</text>
</g>
<!-- acct_response -->
<g id="node30" class="node">
<title>acct_response</title>
<polygon fill="#1e3a8a" stroke="#1e3a8a" stroke-width="2" points="952.7,-352.22 861.8,-352.22 861.8,-316.22 952.7,-316.22 952.7,-352.22"/>
<text xml:space="preserve" text-anchor="middle" x="907.25" y="-335.77" font-family="Helvetica,Arial,sans-serif" font-size="11.00" fill="#f8fafc">Saved account</text>
<text xml:space="preserve" text-anchor="middle" x="907.25" y="-323.77" font-family="Helvetica,Arial,sans-serif" font-size="11.00" fill="#f8fafc">back to browser</text>
</g>
<!-- telemetry_services -->
<g id="node31" class="node">
<title>telemetry_services</title>
<polygon fill="#14532d" stroke="#22c55e" stroke-width="2" points="330.82,-213.46 231.68,-213.46 231.68,-177.46 330.82,-177.46 330.82,-213.46"/>
<text xml:space="preserve" text-anchor="middle" x="281.25" y="-197.01" font-family="Helvetica,Arial,sans-serif" font-size="11.00" fill="#f8fafc">inventory / cart /</text>
<text xml:space="preserve" text-anchor="middle" x="281.25" y="-185.01" font-family="Helvetica,Arial,sans-serif" font-size="11.00" fill="#f8fafc">account Lambdas</text>
</g>
<!-- telemetry_cw -->
<g id="node32" class="node">
<title>telemetry_cw</title>
<polygon fill="#334155" stroke="#94a3b8" stroke-width="2" points="530.08,-213.46 408.43,-213.46 408.43,-177.46 530.08,-177.46 530.08,-213.46"/>
<text xml:space="preserve" text-anchor="middle" x="469.25" y="-197.01" font-family="Helvetica,Arial,sans-serif" font-size="11.00" fill="#f8fafc">AWS CloudWatch</text>
<text xml:space="preserve" text-anchor="middle" x="469.25" y="-185.01" font-family="Helvetica,Arial,sans-serif" font-size="11.00" fill="#f8fafc">function logs + metrics</text>
</g>
<!-- telemetry_grafana -->
<g id="node33" class="node">
<title>telemetry_grafana</title>
<polygon fill="#6b21a8" stroke="#c084fc" stroke-width="2" points="759.2,-217.78 629.3,-217.78 629.3,-173.14 759.2,-173.14 759.2,-217.78"/>
<text xml:space="preserve" text-anchor="middle" x="694.25" y="-203.01" font-family="Helvetica,Arial,sans-serif" font-size="11.00" fill="#f8fafc">Grafana Cloud</text>
<text xml:space="preserve" text-anchor="middle" x="694.25" y="-191.01" font-family="Helvetica,Arial,sans-serif" font-size="11.00" fill="#f8fafc">CloudWatch integration,</text>
<text xml:space="preserve" text-anchor="middle" x="694.25" y="-179.01" font-family="Helvetica,Arial,sans-serif" font-size="11.00" fill="#f8fafc">Mimir, Loki</text>
</g>
<!-- k6_runner -->
<g id="node34" class="node">
<title>k6_runner</title>
<polygon fill="#713f12" stroke="#f59e0b" stroke-width="2" points="336.45,-60.64 226.05,-60.64 226.05,-16 336.45,-16 336.45,-60.64"/>
<text xml:space="preserve" text-anchor="middle" x="281.25" y="-45.87" font-family="Helvetica,Arial,sans-serif" font-size="11.00" fill="#f8fafc">Grafana Cloud k6</text>
<text xml:space="preserve" text-anchor="middle" x="281.25" y="-33.87" font-family="Helvetica,Arial,sans-serif" font-size="11.00" fill="#f8fafc">regional + spike</text>
<text xml:space="preserve" text-anchor="middle" x="281.25" y="-21.87" font-family="Helvetica,Arial,sans-serif" font-size="11.00" fill="#f8fafc">5 rps API + browser</text>
</g>
<!-- k6_edge -->
<g id="node35" class="node">
<title>k6_edge</title>
<polygon fill="#164e63" stroke="#38bdf8" stroke-width="2" points="646.7,-56.32 519.8,-56.32 519.8,-20.32 646.7,-20.32 646.7,-56.32"/>
<text xml:space="preserve" text-anchor="middle" x="583.25" y="-39.87" font-family="Helvetica,Arial,sans-serif" font-size="11.00" fill="#f8fafc">CloudFront storefront +</text>
<text xml:space="preserve" text-anchor="middle" x="583.25" y="-27.87" font-family="Helvetica,Arial,sans-serif" font-size="11.00" fill="#f8fafc">API Gateway /api/*</text>
</g>
<!-- k6_services -->
<g id="node36" class="node">
<title>k6_services</title>
<polygon fill="#14532d" stroke="#22c55e" stroke-width="2" points="789.83,-56.32 690.67,-56.32 690.67,-20.32 789.83,-20.32 789.83,-56.32"/>
<text xml:space="preserve" text-anchor="middle" x="740.25" y="-39.87" font-family="Helvetica,Arial,sans-serif" font-size="11.00" fill="#f8fafc">inventory / cart /</text>
<text xml:space="preserve" text-anchor="middle" x="740.25" y="-27.87" font-family="Helvetica,Arial,sans-serif" font-size="11.00" fill="#f8fafc">account Lambdas</text>
</g>
<!-- k6_grafana -->
<g id="node37" class="node">
<title>k6_grafana</title>
<polygon fill="#6b21a8" stroke="#c084fc" stroke-width="2" points="497.95,-56.32 384.55,-56.32 384.55,-20.32 497.95,-20.32 497.95,-56.32"/>
<text xml:space="preserve" text-anchor="middle" x="441.25" y="-39.87" font-family="Helvetica,Arial,sans-serif" font-size="11.00" fill="#f8fafc">Grafana Cloud</text>
<text xml:space="preserve" text-anchor="middle" x="441.25" y="-27.87" font-family="Helvetica,Arial,sans-serif" font-size="11.00" fill="#f8fafc">run metrics + checks</text>
</g>
</g>
</svg>
