<?xml version="1.0" encoding="UTF-8" standalone="no"?>
<!DOCTYPE svg PUBLIC "-//W3C//DTD SVG 1.1//EN"
 "http://www.w3.org/Graphics/SVG/1.1/DTD/svg11.dtd">
<!-- Generated by graphviz version 15.0.0 (20260523.1842)
 -->
<!-- Title: sequence_dependency_diagram Pages: 1 -->
<svg width="1173pt" height="1134pt"
 viewBox="0.00 0.00 1173.00 1134.00" xmlns="http://www.w3.org/2000/svg" xmlns:xlink="http://www.w3.org/1999/xlink">
<g id="graph0" class="graph" transform="scale(1 1) rotate(0) translate(18 1116.28)">
<title>sequence_dependency_diagram</title>
<polygon fill="#0b1220" stroke="none" points="-18,18 -18,-1116.28 1154.88,-1116.28 1154.88,18 -18,18"/>
<text xml:space="preserve" text-anchor="middle" x="568.44" y="-1073.38" font-family="Helvetica,Arial,sans-serif" font-size="22.00" fill="#f8fafc">Frontend&#45;to&#45;Backend Request Sequence as Stacked Horizontal Paths</text>
<g id="clust1" class="cluster">
<title>cluster_static</title>
<path fill="#0b1220" stroke="#38bdf8" stroke-width="2" d="M201.88,-841.78C201.88,-841.78 1116.88,-841.78 1116.88,-841.78 1122.88,-841.78 1128.88,-847.78 1128.88,-853.78 1128.88,-853.78 1128.88,-942.78 1128.88,-942.78 1128.88,-948.78 1122.88,-954.78 1116.88,-954.78 1116.88,-954.78 201.87,-954.78 201.87,-954.78 195.87,-954.78 189.88,-948.78 189.88,-942.78 189.88,-942.78 189.88,-853.78 189.88,-853.78 189.88,-847.78 195.88,-841.78 201.88,-841.78"/>
<text xml:space="preserve" text-anchor="middle" x="659.38" y="-929.88" font-family="Helvetica,Arial,sans-serif" font-size="22.00" fill="#bae6fd">1. Storefront page load</text>
</g>
<g id="clust2" class="cluster">
<title>cluster_auth</title>
<path fill="#0b1220" stroke="#a855f7" stroke-width="2" d="M221.88,-711.78C221.88,-711.78 903.88,-711.78 903.88,-711.78 909.88,-711.78 915.88,-717.78 915.88,-723.78 915.88,-723.78 915.88,-812.78 915.88,-812.78 915.88,-818.78 909.88,-824.78 903.88,-824.78 903.88,-824.78 221.87,-824.78 221.87,-824.78 215.88,-824.78 209.88,-818.78 209.88,-812.78 209.88,-812.78 209.88,-723.78 209.88,-723.78 209.88,-717.78 215.88,-711.78 221.88,-711.78"/>
<text xml:space="preserve" text-anchor="middle" x="562.88" y="-799.88" font-family="Helvetica,Arial,sans-serif" font-size="22.00" fill="#e9d5ff">2. Google sign&#45;in through Cognito</text>
</g>
<g id="clust3" class="cluster">
<title>cluster_inventory</title>
<path fill="#0b1220" stroke="#22c55e" stroke-width="2" d="M202.88,-572.9C202.88,-572.9 984.88,-572.9 984.88,-572.9 990.88,-572.9 996.88,-578.9 996.88,-584.9 996.88,-584.9 996.88,-682.78 996.88,-682.78 996.88,-688.78 990.88,-694.78 984.88,-694.78 984.88,-694.78 202.88,-694.78 202.88,-694.78 196.87,-694.78 190.88,-688.78 190.88,-682.78 190.88,-682.78 190.88,-584.9 190.88,-584.9 190.88,-578.9 196.88,-572.9 202.88,-572.9"/>
<text xml:space="preserve" text-anchor="middle" x="593.88" y="-669.88" font-family="Helvetica,Arial,sans-serif" font-size="22.00" fill="#bbf7d0">3. Inventory browse request</text>
</g>
<g id="clust4" class="cluster">
<title>cluster_cart</title>
<path fill="#0b1220" stroke="#22c55e" stroke-width="2" d="M194.88,-434.02C194.88,-434.02 945.88,-434.02 945.88,-434.02 951.88,-434.02 957.88,-440.02 957.88,-446.02 957.88,-446.02 957.88,-543.9 957.88,-543.9 957.88,-549.9 951.88,-555.9 945.88,-555.9 945.88,-555.9 194.88,-555.9 194.88,-555.9 188.87,-555.9 182.88,-549.9 182.88,-543.9 182.88,-543.9 182.88,-446.02 182.88,-446.02 182.88,-440.02 188.88,-434.02 194.88,-434.02"/>
<text xml:space="preserve" text-anchor="middle" x="570.38" y="-531" font-family="Helvetica,Arial,sans-serif" font-size="22.00" fill="#bbf7d0">4. Cart update request</text>
</g>
<g id="clust5" class="cluster">
<title>cluster_account</title>
<path fill="#0b1220" stroke="#22c55e" stroke-width="2" d="M175.88,-295.14C175.88,-295.14 992.88,-295.14 992.88,-295.14 998.88,-295.14 1004.88,-301.14 1004.88,-307.14 1004.88,-307.14 1004.88,-405.02 1004.88,-405.02 1004.88,-411.02 998.88,-417.02 992.88,-417.02 992.88,-417.02 175.88,-417.02 175.88,-417.02 169.88,-417.02 163.88,-411.02 163.88,-405.02 163.88,-405.02 163.88,-307.14 163.88,-307.14 163.88,-301.14 169.88,-295.14 175.88,-295.14"/>
<text xml:space="preserve" text-anchor="middle" x="584.38" y="-392.12" font-family="Helvetica,Arial,sans-serif" font-size="22.00" fill="#bbf7d0">5. Account save request</text>
</g>
<g id="clust6" class="cluster">
<title>cluster_telemetry</title>
<path fill="#0b1220" stroke="#c084fc" stroke-width="2" d="M216.88,-156.5C216.88,-156.5 665.88,-156.5 665.88,-156.5 671.88,-156.5 677.88,-162.5 677.88,-168.5 677.88,-168.5 677.88,-266.14 677.88,-266.14 677.88,-272.14 671.88,-278.14 665.88,-278.14 665.88,-278.14 216.87,-278.14 216.87,-278.14 210.88,-278.14 204.88,-272.14 204.88,-266.14 204.88,-266.14 204.88,-168.5 204.88,-168.5 204.88,-162.5 210.88,-156.5 216.88,-156.5"/>
<text xml:space="preserve" text-anchor="middle" x="441.38" y="-253.24" font-family="Helvetica,Arial,sans-serif" font-size="22.00" fill="#f3e8ff">6. Backend telemetry</text>
</g>
<g id="clust7" class="cluster">
<title>cluster_k6</title>
<path fill="#0b1220" stroke="#f59e0b" stroke-width="2" d="M192.88,-8C192.88,-8 858.88,-8 858.88,-8 864.88,-8 870.88,-14 870.88,-20 870.88,-20 870.88,-109 870.88,-109 870.88,-115 864.88,-121 858.88,-121 858.88,-121 192.88,-121 192.88,-121 186.87,-121 180.88,-115 180.88,-109 180.88,-109 180.88,-20 180.88,-20 180.88,-14 186.88,-8 192.88,-8"/>
<text xml:space="preserve" text-anchor="middle" x="525.88" y="-96.1" font-family="Helvetica,Arial,sans-serif" font-size="22.00" fill="#fde68a">7. k6 load and browser checks</text>
</g>
<!-- key&#45;&gt;start -->
<!-- start&#45;&gt;static_browser -->
<!-- static_browser&#45;&gt;static_dns -->
<g id="edge1" class="edge">
<title>static_browser&#45;&gt;static_dns</title>
<path fill="none" stroke="#94a3b8" stroke-width="2" d="M322.63,-867.78C336.95,-867.78 351.78,-867.78 364.84,-867.78"/>
<polygon fill="#94a3b8" stroke="#94a3b8" stroke-width="2" points="364.61,-869.71 370.11,-867.78 364.61,-865.86 364.61,-869.71"/>
<text xml:space="preserve" text-anchor="middle" x="347.75" y="-871.98" font-family="Helvetica,Arial,sans-serif" font-size="9.00" fill="#f8fafc">resolve</text>
</g>
<!-- static_browser&#45;&gt;auth_browser -->
<!-- static_dns&#45;&gt;static_cf -->
<g id="edge2" class="edge">
<title>static_dns&#45;&gt;static_cf</title>
<path fill="none" stroke="#94a3b8" stroke-width="2" d="M436.65,-867.78C447.37,-867.78 459.56,-867.78 471.18,-867.78"/>
<polygon fill="#94a3b8" stroke="#94a3b8" stroke-width="2" points="470.99,-869.71 476.49,-867.78 470.99,-865.86 470.99,-869.71"/>
<text xml:space="preserve" text-anchor="middle" x="458.19" y="-871.98" font-family="Helvetica,Arial,sans-serif" font-size="9.00" fill="#f8fafc">alias</text>
</g>
<!-- static_cf&#45;&gt;static_s3 -->
<g id="edge3" class="edge">
<title>static_cf&#45;&gt;static_s3</title>
<path fill="none" stroke="#94a3b8" stroke-width="2" d="M556.18,-867.78C567.44,-867.78 579.82,-867.78 591.32,-867.78"/>
<polygon fill="#94a3b8" stroke="#94a3b8" stroke-width="2" points="590.99,-869.71 596.49,-867.78 590.99,-865.86 590.99,-869.71"/>
<text xml:space="preserve" text-anchor="middle" x="577.75" y="-871.98" font-family="Helvetica,Arial,sans-serif" font-size="9.00" fill="#f8fafc">fetch</text>
</g>
<!-- static_s3&#45;&gt;static_render -->
<g id="edge4" class="edge">
<title>static_s3&#45;&gt;static_render</title>
<path fill="none" stroke="#94a3b8" stroke-width="2" d="M668.56,-867.78C680.15,-867.78 693.42,-867.78 706.35,-867.78"/>
<polygon fill="#94a3b8" stroke="#94a3b8" stroke-width="2" points="706.26,-869.71 711.76,-867.78 706.26,-865.86 706.26,-869.71"/>
<text xml:space="preserve" text-anchor="middle" x="691.62" y="-871.98" font-family="Helvetica,Arial,sans-serif" font-size="9.00" fill="#f8fafc">assets</text>
</g>
<!-- static_render&#45;&gt;static_faro -->
<g id="edge5" class="edge">
<title>static_render&#45;&gt;static_faro</title>
<path fill="none" stroke="#94a3b8" stroke-width="2" d="M816.82,-867.78C834.79,-867.78 855.05,-867.78 873.24,-867.78"/>
<polygon fill="#94a3b8" stroke="#94a3b8" stroke-width="2" points="872.91,-869.71 878.41,-867.78 872.91,-865.86 872.91,-869.71"/>
<text xml:space="preserve" text-anchor="middle" x="849.19" y="-871.98" font-family="Helvetica,Arial,sans-serif" font-size="9.00" fill="#f8fafc">web signal</text>
</g>
<!-- static_faro&#45;&gt;static_grafana -->
<g id="edge6" class="edge">
<title>static_faro&#45;&gt;static_grafana</title>
<path fill="none" stroke="#94a3b8" stroke-width="2" d="M972.12,-867.78C984.27,-867.78 997.59,-867.78 1010.39,-867.78"/>
<polygon fill="#94a3b8" stroke="#94a3b8" stroke-width="2" points="1010.18,-869.71 1015.68,-867.78 1010.18,-865.86 1010.18,-869.71"/>
<text xml:space="preserve" text-anchor="middle" x="995.56" y="-871.98" font-family="Helvetica,Arial,sans-serif" font-size="9.00" fill="#f8fafc">collect</text>
</g>
<!-- auth_browser&#45;&gt;auth_cognito -->
<g id="edge7" class="edge">
<title>auth_browser&#45;&gt;auth_cognito</title>
<path fill="none" stroke="#94a3b8" stroke-width="2" d="M302,-737.78C317.53,-737.78 335.37,-737.78 351.87,-737.78"/>
<polygon fill="#94a3b8" stroke="#94a3b8" stroke-width="2" points="351.83,-739.71 357.33,-737.78 351.83,-735.86 351.83,-739.71"/>
<text xml:space="preserve" text-anchor="middle" x="331.12" y="-741.98" font-family="Helvetica,Arial,sans-serif" font-size="9.00" fill="#f8fafc">authorize</text>
</g>
<!-- auth_browser&#45;&gt;inv_browser -->
<!-- auth_cognito&#45;&gt;auth_google -->
<g id="edge8" class="edge">
<title>auth_cognito&#45;&gt;auth_google</title>
<path fill="none" stroke="#94a3b8" stroke-width="2" d="M453.55,-737.78C467.52,-737.78 482.89,-737.78 497,-737.78"/>
<polygon fill="#94a3b8" stroke="#94a3b8" stroke-width="2" points="496.62,-739.71 502.12,-737.78 496.62,-735.86 496.62,-739.71"/>
<text xml:space="preserve" text-anchor="middle" x="479.19" y="-741.98" font-family="Helvetica,Arial,sans-serif" font-size="9.00" fill="#f8fafc">redirect</text>
</g>
<!-- auth_google&#45;&gt;auth_claims -->
<g id="edge9" class="edge">
<title>auth_google&#45;&gt;auth_claims</title>
<path fill="none" stroke="#94a3b8" stroke-width="2" d="M586.61,-737.78C598.81,-737.78 612.35,-737.78 625.16,-737.78"/>
<polygon fill="#94a3b8" stroke="#94a3b8" stroke-width="2" points="624.92,-739.71 630.42,-737.78 624.92,-735.86 624.92,-739.71"/>
<text xml:space="preserve" text-anchor="middle" x="610.06" y="-741.98" font-family="Helvetica,Arial,sans-serif" font-size="9.00" fill="#f8fafc">claims</text>
</g>
<!-- auth_claims&#45;&gt;auth_account -->
<g id="edge10" class="edge">
<title>auth_claims&#45;&gt;auth_account</title>
<path fill="none" stroke="#94a3b8" stroke-width="2" d="M720.47,-737.78C744.76,-737.78 775.31,-737.78 801.52,-737.78"/>
<polygon fill="#94a3b8" stroke="#94a3b8" stroke-width="2" points="801.34,-739.71 806.84,-737.78 801.34,-735.86 801.34,-739.71"/>
<text xml:space="preserve" text-anchor="middle" x="765.06" y="-741.98" font-family="Helvetica,Arial,sans-serif" font-size="9.00" fill="#f8fafc">callback + PKCE</text>
</g>
<!-- inv_browser&#45;&gt;inv_cf -->
<g id="edge11" class="edge">
<title>inv_browser&#45;&gt;inv_cf</title>
<path fill="none" stroke="#94a3b8" stroke-width="2" d="M321.38,-603.34C334.89,-603.34 352.54,-603.34 352.54,-603.34 352.54,-603.34 353.79,-603.34 355.87,-603.34"/>
<polygon fill="#94a3b8" stroke="#94a3b8" stroke-width="2" points="355.71,-605.27 361.21,-603.34 355.71,-601.42 355.71,-605.27"/>
</g>
<!-- inv_browser&#45;&gt;cart_browser -->
<!-- inv_cf&#45;&gt;inv_api -->
<g id="edge12" class="edge">
<title>inv_cf&#45;&gt;inv_api</title>
<path fill="none" stroke="#94a3b8" stroke-width="2" d="M433.07,-603.34C435.22,-603.34 436.54,-603.34 436.54,-603.34 436.54,-603.34 456.43,-603.34 468.25,-603.34"/>
<polygon fill="#94a3b8" stroke="#94a3b8" stroke-width="2" points="468.15,-605.27 473.65,-603.34 468.15,-601.42 468.15,-605.27"/>
</g>
<!-- inv_api&#45;&gt;inv_service -->
<g id="edge13" class="edge">
<title>inv_api&#45;&gt;inv_service</title>
<path fill="none" stroke="#94a3b8" stroke-width="2" d="M547.31,-603.34C551.25,-603.34 553.88,-603.34 553.88,-603.34 553.88,-603.34 569.19,-603.34 581.33,-603.34"/>
<polygon fill="#94a3b8" stroke="#94a3b8" stroke-width="2" points="581.15,-605.27 586.65,-603.34 581.15,-601.42 581.15,-605.27"/>
</g>
<!-- inv_service&#45;&gt;inv_db -->
<g id="edge14" class="edge">
<title>inv_service&#45;&gt;inv_db</title>
<path fill="none" stroke="#94a3b8" stroke-width="2" d="M685.91,-603.34C697.67,-603.34 710.22,-603.34 721.88,-603.34"/>
<polygon fill="#94a3b8" stroke="#94a3b8" stroke-width="2" points="721.66,-605.27 727.16,-603.34 721.66,-601.42 721.66,-605.27"/>
<text xml:space="preserve" text-anchor="middle" x="707.94" y="-607.54" font-family="Helvetica,Arial,sans-serif" font-size="9.00" fill="#f8fafc">query</text>
</g>
<!-- inv_db&#45;&gt;inv_response -->
<g id="edge15" class="edge">
<title>inv_db&#45;&gt;inv_response</title>
<path fill="none" stroke="#94a3b8" stroke-width="2" d="M805.58,-603.34C825.74,-603.34 851.08,-603.34 874.03,-603.34"/>
<polygon fill="#94a3b8" stroke="#94a3b8" stroke-width="2" points="873.84,-605.27 879.34,-603.34 873.84,-601.42 873.84,-605.27"/>
<text xml:space="preserve" text-anchor="middle" x="844" y="-607.54" font-family="Helvetica,Arial,sans-serif" font-size="9.00" fill="#f8fafc">rows &#45;&gt; JSON</text>
</g>
<!-- cart_browser&#45;&gt;cart_cf -->
<g id="edge16" class="edge">
<title>cart_browser&#45;&gt;cart_cf</title>
<path fill="none" stroke="#94a3b8" stroke-width="2" d="M328.84,-464.46C349.27,-464.46 371.03,-464.46 389.26,-464.46"/>
<polygon fill="#94a3b8" stroke="#94a3b8" stroke-width="2" points="388.84,-466.39 394.34,-464.46 388.84,-462.54 388.84,-466.39"/>
<text xml:space="preserve" text-anchor="middle" x="363.12" y="-468.66" font-family="Helvetica,Arial,sans-serif" font-size="9.00" fill="#f8fafc">Bearer JWT</text>
</g>
<!-- cart_browser&#45;&gt;acct_browser -->
<!-- cart_cf&#45;&gt;cart_api -->
<g id="edge17" class="edge">
<title>cart_cf&#45;&gt;cart_api</title>
<path fill="none" stroke="#94a3b8" stroke-width="2" d="M466.39,-464.46C468.75,-464.46 470.21,-464.46 470.21,-464.46 470.21,-464.46 490.01,-464.46 501.62,-464.46"/>
<polygon fill="#94a3b8" stroke="#94a3b8" stroke-width="2" points="501.29,-466.39 506.79,-464.46 501.29,-462.54 501.29,-466.39"/>
</g>
<!-- cart_api&#45;&gt;cart_service -->
<g id="edge18" class="edge">
<title>cart_api&#45;&gt;cart_service</title>
<path fill="none" stroke="#94a3b8" stroke-width="2" d="M583.93,-464.46C584.75,-464.46 585.21,-464.46 585.21,-464.46 585.21,-464.46 605.88,-464.46 618.06,-464.46"/>
<polygon fill="#94a3b8" stroke="#94a3b8" stroke-width="2" points="618.02,-466.39 623.52,-464.46 618.02,-462.54 618.02,-466.39"/>
</g>
<!-- cart_service&#45;&gt;cart_db -->
<g id="edge19" class="edge">
<title>cart_service&#45;&gt;cart_db</title>
<path fill="none" stroke="#94a3b8" stroke-width="2" d="M697.26,-464.46C709.73,-464.46 723.91,-464.46 737.01,-464.46"/>
<polygon fill="#94a3b8" stroke="#94a3b8" stroke-width="2" points="736.9,-466.39 742.4,-464.46 736.9,-462.54 736.9,-466.39"/>
<text xml:space="preserve" text-anchor="middle" x="721.19" y="-468.66" font-family="Helvetica,Arial,sans-serif" font-size="9.00" fill="#f8fafc">persist</text>
</g>
<!-- cart_db&#45;&gt;cart_response -->
<g id="edge20" class="edge">
<title>cart_db&#45;&gt;cart_response</title>
<path fill="none" stroke="#94a3b8" stroke-width="2" d="M816.41,-464.46C827.12,-464.46 839.13,-464.46 850.76,-464.46"/>
<polygon fill="#94a3b8" stroke="#94a3b8" stroke-width="2" points="850.61,-466.39 856.11,-464.46 850.61,-462.54 850.61,-466.39"/>
<text xml:space="preserve" text-anchor="middle" x="837.81" y="-468.66" font-family="Helvetica,Arial,sans-serif" font-size="9.00" fill="#f8fafc">ack</text>
</g>
<!-- acct_browser&#45;&gt;acct_cf -->
<g id="edge21" class="edge">
<title>acct_browser&#45;&gt;acct_cf</title>
<path fill="none" stroke="#94a3b8" stroke-width="2" d="M348.57,-325.58C369.51,-325.58 390.92,-325.58 408.77,-325.58"/>
<polygon fill="#94a3b8" stroke="#94a3b8" stroke-width="2" points="408.71,-327.51 414.21,-325.58 408.71,-323.66 408.71,-327.51"/>
<text xml:space="preserve" text-anchor="middle" x="382.88" y="-329.78" font-family="Helvetica,Arial,sans-serif" font-size="9.00" fill="#f8fafc">Bearer JWT</text>
</g>
<!-- acct_browser&#45;&gt;telemetry_services -->
<!-- acct_cf&#45;&gt;acct_api -->
<g id="edge22" class="edge">
<title>acct_cf&#45;&gt;acct_api</title>
<path fill="none" stroke="#94a3b8" stroke-width="2" d="M486.39,-325.58C488.75,-325.58 490.21,-325.58 490.21,-325.58 490.21,-325.58 510.01,-325.58 521.62,-325.58"/>
<polygon fill="#94a3b8" stroke="#94a3b8" stroke-width="2" points="521.29,-327.51 526.79,-325.58 521.29,-323.66 521.29,-327.51"/>
</g>
<!-- acct_api&#45;&gt;acct_service -->
<g id="edge23" class="edge">
<title>acct_api&#45;&gt;acct_service</title>
<path fill="none" stroke="#94a3b8" stroke-width="2" d="M604.08,-325.58C606.82,-325.58 608.54,-325.58 608.54,-325.58 608.54,-325.58 626.33,-325.58 638.66,-325.58"/>
<polygon fill="#94a3b8" stroke="#94a3b8" stroke-width="2" points="638.41,-327.51 643.91,-325.58 638.41,-323.66 638.41,-327.51"/>
</g>
<!-- acct_service&#45;&gt;acct_db -->
<g id="edge24" class="edge">
<title>acct_service&#45;&gt;acct_db</title>
<path fill="none" stroke="#94a3b8" stroke-width="2" d="M736.93,-325.58C749.55,-325.58 763.31,-325.58 776.09,-325.58"/>
<polygon fill="#94a3b8" stroke="#94a3b8" stroke-width="2" points="775.79,-327.51 781.29,-325.58 775.79,-323.66 775.79,-327.51"/>
<text xml:space="preserve" text-anchor="middle" x="760.69" y="-329.78" font-family="Helvetica,Arial,sans-serif" font-size="9.00" fill="#f8fafc">persist</text>
</g>
<!-- acct_db&#45;&gt;acct_response -->
<g id="edge25" class="edge">
<title>acct_db&#45;&gt;acct_response</title>
<path fill="none" stroke="#94a3b8" stroke-width="2" d="M863.32,-325.58C874.2,-325.58 886.19,-325.58 897.74,-325.58"/>
<polygon fill="#94a3b8" stroke="#94a3b8" stroke-width="2" points="897.53,-327.51 903.03,-325.58 897.53,-323.66 897.53,-327.51"/>
<text xml:space="preserve" text-anchor="middle" x="884.69" y="-329.78" font-family="Helvetica,Arial,sans-serif" font-size="9.00" fill="#f8fafc">ack</text>
</g>
<!-- telemetry_services&#45;&gt;telemetry_alloy -->
<g id="edge26" class="edge">
<title>telemetry_services&#45;&gt;telemetry_alloy</title>
<path fill="none" stroke="#94a3b8" stroke-width="2" d="M307.25,-186.82C334.09,-186.82 368.01,-186.82 397.14,-186.82"/>
<polygon fill="#94a3b8" stroke="#94a3b8" stroke-width="2" points="397.09,-188.75 402.59,-186.82 397.09,-184.9 397.09,-188.75"/>
<text xml:space="preserve" text-anchor="middle" x="356.44" y="-191.02" font-family="Helvetica,Arial,sans-serif" font-size="9.00" fill="#f8fafc">OTel + Prometheus</text>
</g>
<!-- telemetry_services&#45;&gt;k6_runner -->
<!-- telemetry_alloy&#45;&gt;telemetry_grafana -->
<g id="edge27" class="edge">
<title>telemetry_alloy&#45;&gt;telemetry_grafana</title>
<path fill="none" stroke="#94a3b8" stroke-width="2" d="M515.87,-186.82C528.47,-186.82 541.94,-186.82 554.81,-186.82"/>
<polygon fill="#94a3b8" stroke="#94a3b8" stroke-width="2" points="554.63,-188.75 560.13,-186.82 554.63,-184.9 554.63,-188.75"/>
<text xml:space="preserve" text-anchor="middle" x="539.62" y="-191.02" font-family="Helvetica,Arial,sans-serif" font-size="9.00" fill="#f8fafc">export</text>
</g>
<!-- k6_runner&#45;&gt;k6_cf -->
<g id="edge28" class="edge">
<title>k6_runner&#45;&gt;k6_cf</title>
<path fill="none" stroke="#94a3b8" stroke-width="2" d="M282.78,-52.42C314.48,-77.93 367.88,-120.88 367.88,-120.88 367.88,-120.88 503.88,-120.88 503.88,-120.88 503.88,-120.88 528.66,-84.99 546.37,-59.35"/>
<polygon fill="#94a3b8" stroke="#94a3b8" stroke-width="2" points="547.89,-60.53 549.43,-54.91 544.72,-58.35 547.89,-60.53"/>
<text xml:space="preserve" text-anchor="middle" x="422.88" y="-139.95" font-family="Helvetica,Arial,sans-serif" font-size="9.00" fill="#f8fafc">regional, spike,</text>
<text xml:space="preserve" text-anchor="middle" x="422.88" y="-130.2" font-family="Helvetica,Arial,sans-serif" font-size="9.00" fill="#f8fafc">browser actions</text>
</g>
<!-- k6_runner&#45;&gt;k6_grafana -->
<g id="edge31" class="edge">
<title>k6_runner&#45;&gt;k6_grafana</title>
<path fill="none" stroke="#94a3b8" stroke-width="2" d="M331.21,-34C344.18,-34 357.66,-34 370.45,-34"/>
<polygon fill="#94a3b8" stroke="#94a3b8" stroke-width="2" points="370.22,-35.93 375.72,-34 370.22,-32.08 370.22,-35.93"/>
<text xml:space="preserve" text-anchor="middle" x="355" y="-38.2" font-family="Helvetica,Arial,sans-serif" font-size="9.00" fill="#f8fafc">results</text>
</g>
<!-- k6_cf&#45;&gt;k6_api -->
<g id="edge29" class="edge">
<title>k6_cf&#45;&gt;k6_api</title>
<path fill="none" stroke="#94a3b8" stroke-width="2" d="M613.2,-34C622.12,-34 637.27,-34 647.5,-34"/>
<polygon fill="#94a3b8" stroke="#94a3b8" stroke-width="2" points="647.39,-35.93 652.89,-34 647.39,-32.08 647.39,-35.93"/>
</g>
<!-- k6_api&#45;&gt;k6_services -->
<g id="edge30" class="edge">
<title>k6_api&#45;&gt;k6_services</title>
<path fill="none" stroke="#94a3b8" stroke-width="2" d="M725.66,-34C729.77,-34 732.54,-34 732.54,-34 732.54,-34 748.37,-34 760.51,-34"/>
<polygon fill="#94a3b8" stroke="#94a3b8" stroke-width="2" points="760.23,-35.93 765.73,-34 760.23,-32.08 760.23,-35.93"/>
</g>
<!-- key -->
<g id="node1" class="node">
<title>key</title>
<polygon fill="#111827" stroke="none" stroke-width="2" points="519.75,-1067.78 0,-1067.78 0,-1039.78 519.75,-1039.78 519.75,-1067.78"/>
<polygon fill="#1e3a8a" stroke="none" points="1,-1040.78 1,-1066.78 59.25,-1066.78 59.25,-1040.78 1,-1040.78"/>
<polygon fill="none" stroke="#475569" points="1,-1040.78 1,-1066.78 59.25,-1066.78 59.25,-1040.78 1,-1040.78"/>
<text xml:space="preserve" text-anchor="start" x="8" y="-1050.33" font-family="Helvetica,Arial,sans-serif" font-weight="bold" font-size="11.00" fill="#f8fafc">Browser</text>
<polygon fill="#164e63" stroke="none" points="59.25,-1040.78 59.25,-1066.78 133.25,-1066.78 133.25,-1040.78 59.25,-1040.78"/>
<polygon fill="none" stroke="#475569" points="59.25,-1040.78 59.25,-1066.78 133.25,-1066.78 133.25,-1040.78 59.25,-1040.78"/>
<text xml:space="preserve" text-anchor="start" x="66.25" y="-1050.33" font-family="Helvetica,Arial,sans-serif" font-weight="bold" font-size="11.00" fill="#f8fafc">DNS / Edge</text>
<polygon fill="#713f12" stroke="none" points="133.25,-1040.78 133.25,-1066.78 212.5,-1066.78 212.5,-1040.78 133.25,-1040.78"/>
<polygon fill="none" stroke="#475569" points="133.25,-1040.78 133.25,-1066.78 212.5,-1066.78 212.5,-1040.78 133.25,-1040.78"/>
<text xml:space="preserve" text-anchor="start" x="140.25" y="-1050.33" font-family="Helvetica,Arial,sans-serif" font-weight="bold" font-size="11.00" fill="#f8fafc">Static Origin</text>
<polygon fill="#4c1d95" stroke="none" points="212.5,-1040.78 212.5,-1066.78 265.5,-1066.78 265.5,-1040.78 212.5,-1040.78"/>
<polygon fill="none" stroke="#475569" points="212.5,-1040.78 212.5,-1066.78 265.5,-1066.78 265.5,-1040.78 212.5,-1040.78"/>
<text xml:space="preserve" text-anchor="start" x="219.5" y="-1050.33" font-family="Helvetica,Arial,sans-serif" font-weight="bold" font-size="11.00" fill="#f8fafc">Identity</text>
<polygon fill="#14532d" stroke="none" points="265.5,-1040.78 265.5,-1066.78 352.25,-1066.78 352.25,-1040.78 265.5,-1040.78"/>
<polygon fill="none" stroke="#475569" points="265.5,-1040.78 265.5,-1066.78 352.25,-1066.78 352.25,-1040.78 265.5,-1040.78"/>
<text xml:space="preserve" text-anchor="start" x="272.5" y="-1050.33" font-family="Helvetica,Arial,sans-serif" font-weight="bold" font-size="11.00" fill="#f8fafc">API / Services</text>
<polygon fill="#166534" stroke="none" points="352.25,-1040.78 352.25,-1066.78 427.75,-1066.78 427.75,-1040.78 352.25,-1040.78"/>
<polygon fill="none" stroke="#475569" points="352.25,-1040.78 352.25,-1066.78 427.75,-1066.78 427.75,-1040.78 352.25,-1040.78"/>
<text xml:space="preserve" text-anchor="start" x="359.25" y="-1050.33" font-family="Helvetica,Arial,sans-serif" font-weight="bold" font-size="11.00" fill="#f8fafc">Data Stores</text>
<polygon fill="#6b21a8" stroke="none" points="427.75,-1040.78 427.75,-1066.78 492.75,-1066.78 492.75,-1040.78 427.75,-1040.78"/>
<polygon fill="none" stroke="#475569" points="427.75,-1040.78 427.75,-1066.78 492.75,-1066.78 492.75,-1040.78 427.75,-1040.78"/>
<text xml:space="preserve" text-anchor="start" x="434.75" y="-1050.33" font-family="Helvetica,Arial,sans-serif" font-weight="bold" font-size="11.00" fill="#f8fafc">Telemetry</text>
<polygon fill="#713f12" stroke="none" points="492.75,-1040.78 492.75,-1066.78 518.75,-1066.78 518.75,-1040.78 492.75,-1040.78"/>
<polygon fill="none" stroke="#475569" points="492.75,-1040.78 492.75,-1066.78 518.75,-1066.78 518.75,-1040.78 492.75,-1040.78"/>
<text xml:space="preserve" text-anchor="start" x="499.75" y="-1050.33" font-family="Helvetica,Arial,sans-serif" font-weight="bold" font-size="11.00" fill="#f8fafc">k6</text>
<polygon fill="none" stroke="#475569" points="0,-1039.78 0,-1067.78 519.75,-1067.78 519.75,-1039.78 0,-1039.78"/>
</g>
<!-- start -->
<g id="node2" class="node">
<title>start</title>
<ellipse fill="#1e3a8a" stroke="#1e3a8a" stroke-width="2" cx="259.88" cy="-994.78" rx="59.59" ry="18"/>
<text xml:space="preserve" text-anchor="middle" x="259.88" y="-990.33" font-family="Helvetica,Arial,sans-serif" font-size="11.00" fill="#f8fafc">Shopper browser</text>
</g>
<!-- static_browser -->
<g id="node3" class="node">
<title>static_browser</title>
<polygon fill="#1e3a8a" stroke="#1e3a8a" stroke-width="2" points="322.2,-885.78 197.55,-885.78 197.55,-849.78 322.2,-849.78 322.2,-885.78"/>
<text xml:space="preserve" text-anchor="middle" x="259.88" y="-869.33" font-family="Helvetica,Arial,sans-serif" font-size="11.00" fill="#f8fafc">Open</text>
<text xml:space="preserve" text-anchor="middle" x="259.88" y="-857.33" font-family="Helvetica,Arial,sans-serif" font-size="11.00" fill="#f8fafc">ensemble&#45;grafana.com</text>
</g>
<!-- static_dns -->
<g id="node4" class="node">
<title>static_dns</title>
<polygon fill="#164e63" stroke="#38bdf8" stroke-width="2" points="436.45,-885.78 373.3,-885.78 373.3,-849.78 436.45,-849.78 436.45,-885.78"/>
<text xml:space="preserve" text-anchor="middle" x="404.88" y="-869.33" font-family="Helvetica,Arial,sans-serif" font-size="11.00" fill="#f8fafc">Route53</text>
<text xml:space="preserve" text-anchor="middle" x="404.88" y="-857.33" font-family="Helvetica,Arial,sans-serif" font-size="11.00" fill="#f8fafc">DNS alias</text>
</g>
<!-- static_cf -->
<g id="node5" class="node">
<title>static_cf</title>
<polygon fill="#164e63" stroke="#38bdf8" stroke-width="2" points="555.83,-885.78 479.93,-885.78 479.93,-849.78 555.83,-849.78 555.83,-885.78"/>
<text xml:space="preserve" text-anchor="middle" x="517.88" y="-869.33" font-family="Helvetica,Arial,sans-serif" font-size="11.00" fill="#f8fafc">CloudFront</text>
<text xml:space="preserve" text-anchor="middle" x="517.88" y="-857.33" font-family="Helvetica,Arial,sans-serif" font-size="11.00" fill="#f8fafc">+ edge WAF</text>
</g>
<!-- static_s3 -->
<g id="node6" class="node">
<title>static_s3</title>
<polygon fill="#713f12" stroke="#f59e0b" stroke-width="2" points="668.08,-885.78 599.67,-885.78 599.67,-849.78 668.08,-849.78 668.08,-885.78"/>
<text xml:space="preserve" text-anchor="middle" x="633.88" y="-869.33" font-family="Helvetica,Arial,sans-serif" font-size="11.00" fill="#f8fafc">S3</text>
<text xml:space="preserve" text-anchor="middle" x="633.88" y="-857.33" font-family="Helvetica,Arial,sans-serif" font-size="11.00" fill="#f8fafc">static origin</text>
</g>
<!-- static_render -->
<g id="node7" class="node">
<title>static_render</title>
<polygon fill="#1e3a8a" stroke="#1e3a8a" stroke-width="2" points="816.58,-885.78 715.17,-885.78 715.17,-849.78 816.58,-849.78 816.58,-885.78"/>
<text xml:space="preserve" text-anchor="middle" x="765.88" y="-869.33" font-family="Helvetica,Arial,sans-serif" font-size="11.00" fill="#f8fafc">Render HTML,</text>
<text xml:space="preserve" text-anchor="middle" x="765.88" y="-857.33" font-family="Helvetica,Arial,sans-serif" font-size="11.00" fill="#f8fafc">JS, CSS, headers</text>
</g>
<!-- static_faro -->
<g id="node8" class="node">
<title>static_faro</title>
<polygon fill="#6b21a8" stroke="#c084fc" stroke-width="2" points="971.95,-885.78 881.8,-885.78 881.8,-849.78 971.95,-849.78 971.95,-885.78"/>
<text xml:space="preserve" text-anchor="middle" x="926.88" y="-869.33" font-family="Helvetica,Arial,sans-serif" font-size="11.00" fill="#f8fafc">Faro page load,</text>
<text xml:space="preserve" text-anchor="middle" x="926.88" y="-857.33" font-family="Helvetica,Arial,sans-serif" font-size="11.00" fill="#f8fafc">vitals, session</text>
</g>
<!-- static_grafana -->
<g id="node9" class="node">
<title>static_grafana</title>
<polygon fill="#6b21a8" stroke="#c084fc" stroke-width="2" points="1120.58,-885.78 1019.17,-885.78 1019.17,-849.78 1120.58,-849.78 1120.58,-885.78"/>
<text xml:space="preserve" text-anchor="middle" x="1069.88" y="-869.33" font-family="Helvetica,Arial,sans-serif" font-size="11.00" fill="#f8fafc">Grafana Cloud</text>
<text xml:space="preserve" text-anchor="middle" x="1069.88" y="-857.33" font-family="Helvetica,Arial,sans-serif" font-size="11.00" fill="#f8fafc">frontend telemetry</text>
</g>
<!-- auth_browser -->
<g id="node10" class="node">
<title>auth_browser</title>
<polygon fill="#1e3a8a" stroke="#1e3a8a" stroke-width="2" points="301.57,-755.78 218.18,-755.78 218.18,-719.78 301.57,-719.78 301.57,-755.78"/>
<text xml:space="preserve" text-anchor="middle" x="259.88" y="-739.33" font-family="Helvetica,Arial,sans-serif" font-size="11.00" fill="#f8fafc">Start</text>
<text xml:space="preserve" text-anchor="middle" x="259.88" y="-727.33" font-family="Helvetica,Arial,sans-serif" font-size="11.00" fill="#f8fafc">Google sign&#45;in</text>
</g>
<!-- auth_cognito -->
<g id="node11" class="node">
<title>auth_cognito</title>
<polygon fill="#4c1d95" stroke="#a855f7" stroke-width="2" points="453.07,-755.78 360.68,-755.78 360.68,-719.78 453.07,-719.78 453.07,-755.78"/>
<text xml:space="preserve" text-anchor="middle" x="406.88" y="-739.33" font-family="Helvetica,Arial,sans-serif" font-size="11.00" fill="#f8fafc">Cognito</text>
<text xml:space="preserve" text-anchor="middle" x="406.88" y="-727.33" font-family="Helvetica,Arial,sans-serif" font-size="11.00" fill="#f8fafc">OAuth authorize</text>
</g>
<!-- auth_google -->
<g id="node12" class="node">
<title>auth_google</title>
<polygon fill="#4c1d95" stroke="#a855f7" stroke-width="2" points="586.45,-755.78 505.3,-755.78 505.3,-719.78 586.45,-719.78 586.45,-755.78"/>
<text xml:space="preserve" text-anchor="middle" x="545.88" y="-739.33" font-family="Helvetica,Arial,sans-serif" font-size="11.00" fill="#f8fafc">Google IdP</text>
<text xml:space="preserve" text-anchor="middle" x="545.88" y="-727.33" font-family="Helvetica,Arial,sans-serif" font-size="11.00" fill="#f8fafc">authentication</text>
</g>
<!-- auth_claims -->
<g id="node13" class="node">
<title>auth_claims</title>
<polygon fill="#4c1d95" stroke="#a855f7" stroke-width="2" points="720.08,-755.78 633.67,-755.78 633.67,-719.78 720.08,-719.78 720.08,-755.78"/>
<text xml:space="preserve" text-anchor="middle" x="676.88" y="-739.33" font-family="Helvetica,Arial,sans-serif" font-size="11.00" fill="#f8fafc">Cognito tokens</text>
<text xml:space="preserve" text-anchor="middle" x="676.88" y="-727.33" font-family="Helvetica,Arial,sans-serif" font-size="11.00" fill="#f8fafc">+ profile claims</text>
</g>
<!-- auth_account -->
<g id="node14" class="node">
<title>auth_account</title>
<polygon fill="#1e3a8a" stroke="#1e3a8a" stroke-width="2" points="907.7,-755.78 810.05,-755.78 810.05,-719.78 907.7,-719.78 907.7,-755.78"/>
<text xml:space="preserve" text-anchor="middle" x="858.88" y="-739.33" font-family="Helvetica,Arial,sans-serif" font-size="11.00" fill="#f8fafc">Populate account</text>
<text xml:space="preserve" text-anchor="middle" x="858.88" y="-727.33" font-family="Helvetica,Arial,sans-serif" font-size="11.00" fill="#f8fafc">name + email</text>
</g>
<!-- inv_browser -->
<g id="node15" class="node">
<title>inv_browser</title>
<polygon fill="#1e3a8a" stroke="#1e3a8a" stroke-width="2" points="321.07,-621.34 198.68,-621.34 198.68,-585.34 321.07,-585.34 321.07,-621.34"/>
<text xml:space="preserve" text-anchor="middle" x="259.88" y="-604.89" font-family="Helvetica,Arial,sans-serif" font-size="11.00" fill="#f8fafc">GET</text>
<text xml:space="preserve" text-anchor="middle" x="259.88" y="-592.89" font-family="Helvetica,Arial,sans-serif" font-size="11.00" fill="#f8fafc">/api/inventory/products</text>
</g>
<!-- inv_cf -->
<g id="node16" class="node">
<title>inv_cf</title>
<polygon fill="#164e63" stroke="#38bdf8" stroke-width="2" points="433.07,-621.34 364.68,-621.34 364.68,-585.34 433.07,-585.34 433.07,-621.34"/>
<text xml:space="preserve" text-anchor="middle" x="398.88" y="-604.89" font-family="Helvetica,Arial,sans-serif" font-size="11.00" fill="#f8fafc">CloudFront</text>
<text xml:space="preserve" text-anchor="middle" x="398.88" y="-592.89" font-family="Helvetica,Arial,sans-serif" font-size="11.00" fill="#f8fafc">/api/* route</text>
</g>
<!-- inv_api -->
<g id="node17" class="node">
<title>inv_api</title>
<polygon fill="#14532d" stroke="#22c55e" stroke-width="2" points="546.83,-621.34 476.93,-621.34 476.93,-585.34 546.83,-585.34 546.83,-621.34"/>
<text xml:space="preserve" text-anchor="middle" x="511.88" y="-604.89" font-family="Helvetica,Arial,sans-serif" font-size="11.00" fill="#f8fafc">ALB /</text>
<text xml:space="preserve" text-anchor="middle" x="511.88" y="-592.89" font-family="Helvetica,Arial,sans-serif" font-size="11.00" fill="#f8fafc">API ingress</text>
</g>
<!-- inv_service -->
<g id="node18" class="node">
<title>inv_service</title>
<polygon fill="#14532d" stroke="#22c55e" stroke-width="2" points="685.58,-621.34 590.17,-621.34 590.17,-585.34 685.58,-585.34 685.58,-621.34"/>
<text xml:space="preserve" text-anchor="middle" x="637.88" y="-604.89" font-family="Helvetica,Arial,sans-serif" font-size="11.00" fill="#f8fafc">inventory&#45;service</text>
<text xml:space="preserve" text-anchor="middle" x="637.88" y="-592.89" font-family="Helvetica,Arial,sans-serif" font-size="11.00" fill="#f8fafc">trace context</text>
</g>
<!-- inv_db -->
<g id="node19" class="node">
<title>inv_db</title>
<path fill="#166534" stroke="#16a34a" stroke-width="2" d="M805.45,-621.7C805.45,-623.95 788.61,-625.78 767.88,-625.78 747.14,-625.78 730.3,-623.95 730.3,-621.7 730.3,-621.7 730.3,-584.98 730.3,-584.98 730.3,-582.73 747.14,-580.9 767.88,-580.9 788.61,-580.9 805.45,-582.73 805.45,-584.98 805.45,-584.98 805.45,-621.7 805.45,-621.7"/>
<path fill="none" stroke="#16a34a" stroke-width="2" d="M805.45,-621.7C805.45,-619.45 788.61,-617.62 767.88,-617.62 747.14,-617.62 730.3,-619.45 730.3,-621.7"/>
<text xml:space="preserve" text-anchor="middle" x="767.88" y="-604.89" font-family="Helvetica,Arial,sans-serif" font-size="11.00" fill="#f8fafc">Postgres</text>
<text xml:space="preserve" text-anchor="middle" x="767.88" y="-592.89" font-family="Helvetica,Arial,sans-serif" font-size="11.00" fill="#f8fafc">catalog rows</text>
</g>
<!-- inv_response -->
<g id="node20" class="node">
<title>inv_response</title>
<polygon fill="#1e3a8a" stroke="#1e3a8a" stroke-width="2" points="989.2,-621.34 882.55,-621.34 882.55,-585.34 989.2,-585.34 989.2,-621.34"/>
<text xml:space="preserve" text-anchor="middle" x="935.88" y="-604.89" font-family="Helvetica,Arial,sans-serif" font-size="11.00" fill="#f8fafc">JSON product data</text>
<text xml:space="preserve" text-anchor="middle" x="935.88" y="-592.89" font-family="Helvetica,Arial,sans-serif" font-size="11.00" fill="#f8fafc">back to browser</text>
</g>
<!-- cart_browser -->
<g id="node21" class="node">
<title>cart_browser</title>
<polygon fill="#1e3a8a" stroke="#1e3a8a" stroke-width="2" points="328.57,-482.46 191.18,-482.46 191.18,-446.46 328.57,-446.46 328.57,-482.46"/>
<text xml:space="preserve" text-anchor="middle" x="259.88" y="-466.01" font-family="Helvetica,Arial,sans-serif" font-size="11.00" fill="#f8fafc">PUT</text>
<text xml:space="preserve" text-anchor="middle" x="259.88" y="-454.01" font-family="Helvetica,Arial,sans-serif" font-size="11.00" fill="#f8fafc">/api/cart/carts/{shopperId}</text>
</g>
<!-- cart_cf -->
<g id="node22" class="node">
<title>cart_cf</title>
<polygon fill="#164e63" stroke="#38bdf8" stroke-width="2" points="466.07,-482.46 397.68,-482.46 397.68,-446.46 466.07,-446.46 466.07,-482.46"/>
<text xml:space="preserve" text-anchor="middle" x="431.88" y="-466.01" font-family="Helvetica,Arial,sans-serif" font-size="11.00" fill="#f8fafc">CloudFront</text>
<text xml:space="preserve" text-anchor="middle" x="431.88" y="-454.01" font-family="Helvetica,Arial,sans-serif" font-size="11.00" fill="#f8fafc">/api/* route</text>
</g>
<!-- cart_api -->
<g id="node23" class="node">
<title>cart_api</title>
<polygon fill="#14532d" stroke="#22c55e" stroke-width="2" points="583.7,-482.46 510.05,-482.46 510.05,-446.46 583.7,-446.46 583.7,-482.46"/>
<text xml:space="preserve" text-anchor="middle" x="546.88" y="-466.01" font-family="Helvetica,Arial,sans-serif" font-size="11.00" fill="#f8fafc">ALB /</text>
<text xml:space="preserve" text-anchor="middle" x="546.88" y="-454.01" font-family="Helvetica,Arial,sans-serif" font-size="11.00" fill="#f8fafc">JWT + trace</text>
</g>
<!-- cart_service -->
<g id="node24" class="node">
<title>cart_service</title>
<polygon fill="#14532d" stroke="#22c55e" stroke-width="2" points="696.83,-482.46 626.92,-482.46 626.92,-446.46 696.83,-446.46 696.83,-482.46"/>
<text xml:space="preserve" text-anchor="middle" x="661.88" y="-466.01" font-family="Helvetica,Arial,sans-serif" font-size="11.00" fill="#f8fafc">cart&#45;service</text>
<text xml:space="preserve" text-anchor="middle" x="661.88" y="-454.01" font-family="Helvetica,Arial,sans-serif" font-size="11.00" fill="#f8fafc">update cart</text>
</g>
<!-- cart_db -->
<g id="node25" class="node">
<title>cart_db</title>
<path fill="#166534" stroke="#16a34a" stroke-width="2" d="M816.2,-482.82C816.2,-485.07 800.37,-486.9 780.88,-486.9 761.38,-486.9 745.55,-485.07 745.55,-482.82 745.55,-482.82 745.55,-446.1 745.55,-446.1 745.55,-443.85 761.38,-442.02 780.88,-442.02 800.37,-442.02 816.2,-443.85 816.2,-446.1 816.2,-446.1 816.2,-482.82 816.2,-482.82"/>
<path fill="none" stroke="#16a34a" stroke-width="2" d="M816.2,-482.82C816.2,-480.57 800.37,-478.74 780.88,-478.74 761.38,-478.74 745.55,-480.57 745.55,-482.82"/>
<text xml:space="preserve" text-anchor="middle" x="780.88" y="-466.01" font-family="Helvetica,Arial,sans-serif" font-size="11.00" fill="#f8fafc">DynamoDB</text>
<text xml:space="preserve" text-anchor="middle" x="780.88" y="-454.01" font-family="Helvetica,Arial,sans-serif" font-size="11.00" fill="#f8fafc">cart state</text>
</g>
<!-- cart_response -->
<g id="node26" class="node">
<title>cart_response</title>
<polygon fill="#1e3a8a" stroke="#1e3a8a" stroke-width="2" points="950.33,-482.46 859.42,-482.46 859.42,-446.46 950.33,-446.46 950.33,-482.46"/>
<text xml:space="preserve" text-anchor="middle" x="904.88" y="-466.01" font-family="Helvetica,Arial,sans-serif" font-size="11.00" fill="#f8fafc">Updated cart</text>
<text xml:space="preserve" text-anchor="middle" x="904.88" y="-454.01" font-family="Helvetica,Arial,sans-serif" font-size="11.00" fill="#f8fafc">back to browser</text>
</g>
<!-- acct_browser -->
<g id="node27" class="node">
<title>acct_browser</title>
<polygon fill="#1e3a8a" stroke="#1e3a8a" stroke-width="2" points="348.07,-343.58 171.68,-343.58 171.68,-307.58 348.07,-307.58 348.07,-343.58"/>
<text xml:space="preserve" text-anchor="middle" x="259.88" y="-327.13" font-family="Helvetica,Arial,sans-serif" font-size="11.00" fill="#f8fafc">PUT</text>
<text xml:space="preserve" text-anchor="middle" x="259.88" y="-315.13" font-family="Helvetica,Arial,sans-serif" font-size="11.00" fill="#f8fafc">/api/account/accounts/{shopperId}</text>
</g>
<!-- acct_cf -->
<g id="node28" class="node">
<title>acct_cf</title>
<polygon fill="#164e63" stroke="#38bdf8" stroke-width="2" points="486.07,-343.58 417.68,-343.58 417.68,-307.58 486.07,-307.58 486.07,-343.58"/>
<text xml:space="preserve" text-anchor="middle" x="451.88" y="-327.13" font-family="Helvetica,Arial,sans-serif" font-size="11.00" fill="#f8fafc">CloudFront</text>
<text xml:space="preserve" text-anchor="middle" x="451.88" y="-315.13" font-family="Helvetica,Arial,sans-serif" font-size="11.00" fill="#f8fafc">/api/* route</text>
</g>
<!-- acct_api -->
<g id="node29" class="node">
<title>acct_api</title>
<polygon fill="#14532d" stroke="#22c55e" stroke-width="2" points="603.7,-343.58 530.05,-343.58 530.05,-307.58 603.7,-307.58 603.7,-343.58"/>
<text xml:space="preserve" text-anchor="middle" x="566.88" y="-327.13" font-family="Helvetica,Arial,sans-serif" font-size="11.00" fill="#f8fafc">ALB /</text>
<text xml:space="preserve" text-anchor="middle" x="566.88" y="-315.13" font-family="Helvetica,Arial,sans-serif" font-size="11.00" fill="#f8fafc">JWT + trace</text>
</g>
<!-- acct_service -->
<g id="node30" class="node">
<title>acct_service</title>
<polygon fill="#14532d" stroke="#22c55e" stroke-width="2" points="736.58,-343.58 647.17,-343.58 647.17,-307.58 736.58,-307.58 736.58,-343.58"/>
<text xml:space="preserve" text-anchor="middle" x="691.88" y="-327.13" font-family="Helvetica,Arial,sans-serif" font-size="11.00" fill="#f8fafc">account&#45;service</text>
<text xml:space="preserve" text-anchor="middle" x="691.88" y="-315.13" font-family="Helvetica,Arial,sans-serif" font-size="11.00" fill="#f8fafc">profile + wallet</text>
</g>
<!-- acct_db -->
<g id="node31" class="node">
<title>acct_db</title>
<path fill="#166534" stroke="#16a34a" stroke-width="2" d="M862.95,-343.94C862.95,-346.19 845.44,-348.02 823.88,-348.02 802.31,-348.02 784.8,-346.19 784.8,-343.94 784.8,-343.94 784.8,-307.22 784.8,-307.22 784.8,-304.97 802.31,-303.14 823.88,-303.14 845.44,-303.14 862.95,-304.97 862.95,-307.22 862.95,-307.22 862.95,-343.94 862.95,-343.94"/>
<path fill="none" stroke="#16a34a" stroke-width="2" d="M862.95,-343.94C862.95,-341.69 845.44,-339.86 823.88,-339.86 802.31,-339.86 784.8,-341.69 784.8,-343.94"/>
<text xml:space="preserve" text-anchor="middle" x="823.88" y="-327.13" font-family="Helvetica,Arial,sans-serif" font-size="11.00" fill="#f8fafc">DynamoDB</text>
<text xml:space="preserve" text-anchor="middle" x="823.88" y="-315.13" font-family="Helvetica,Arial,sans-serif" font-size="11.00" fill="#f8fafc">account state</text>
</g>
<!-- acct_response -->
<g id="node32" class="node">
<title>acct_response</title>
<polygon fill="#1e3a8a" stroke="#1e3a8a" stroke-width="2" points="997.33,-343.58 906.42,-343.58 906.42,-307.58 997.33,-307.58 997.33,-343.58"/>
<text xml:space="preserve" text-anchor="middle" x="951.88" y="-327.13" font-family="Helvetica,Arial,sans-serif" font-size="11.00" fill="#f8fafc">Saved account</text>
<text xml:space="preserve" text-anchor="middle" x="951.88" y="-315.13" font-family="Helvetica,Arial,sans-serif" font-size="11.00" fill="#f8fafc">back to browser</text>
</g>
<!-- telemetry_services -->
<g id="node33" class="node">
<title>telemetry_services</title>
<polygon fill="#14532d" stroke="#22c55e" stroke-width="2" points="306.82,-204.82 212.93,-204.82 212.93,-168.82 306.82,-168.82 306.82,-204.82"/>
<text xml:space="preserve" text-anchor="middle" x="259.88" y="-188.37" font-family="Helvetica,Arial,sans-serif" font-size="11.00" fill="#f8fafc">inventory / cart /</text>
<text xml:space="preserve" text-anchor="middle" x="259.88" y="-176.37" font-family="Helvetica,Arial,sans-serif" font-size="11.00" fill="#f8fafc">account services</text>
</g>
<!-- telemetry_alloy -->
<g id="node34" class="node">
<title>telemetry_alloy</title>
<polygon fill="#6b21a8" stroke="#c084fc" stroke-width="2" points="515.7,-204.82 406.05,-204.82 406.05,-168.82 515.7,-168.82 515.7,-204.82"/>
<text xml:space="preserve" text-anchor="middle" x="460.88" y="-188.37" font-family="Helvetica,Arial,sans-serif" font-size="11.00" fill="#f8fafc">Grafana Alloy</text>
<text xml:space="preserve" text-anchor="middle" x="460.88" y="-176.37" font-family="Helvetica,Arial,sans-serif" font-size="11.00" fill="#f8fafc">metrics, logs, traces</text>
</g>
<!-- telemetry_grafana -->
<g id="node35" class="node">
<title>telemetry_grafana</title>
<polygon fill="#6b21a8" stroke="#c084fc" stroke-width="2" points="670.2,-209.14 563.55,-209.14 563.55,-164.5 670.2,-164.5 670.2,-209.14"/>
<text xml:space="preserve" text-anchor="middle" x="616.88" y="-194.37" font-family="Helvetica,Arial,sans-serif" font-size="11.00" fill="#f8fafc">Grafana Cloud</text>
<text xml:space="preserve" text-anchor="middle" x="616.88" y="-182.37" font-family="Helvetica,Arial,sans-serif" font-size="11.00" fill="#f8fafc">Mimir, Loki, Tempo,</text>
<text xml:space="preserve" text-anchor="middle" x="616.88" y="-170.37" font-family="Helvetica,Arial,sans-serif" font-size="11.00" fill="#f8fafc">Pyroscope</text>
</g>
<!-- k6_runner -->
<g id="node36" class="node">
<title>k6_runner</title>
<polygon fill="#713f12" stroke="#f59e0b" stroke-width="2" points="330.82,-52 188.93,-52 188.93,-16 330.82,-16 330.82,-52"/>
<text xml:space="preserve" text-anchor="middle" x="259.88" y="-35.55" font-family="Helvetica,Arial,sans-serif" font-size="11.00" fill="#f8fafc">Grafana Cloud k6</text>
<text xml:space="preserve" text-anchor="middle" x="259.88" y="-23.55" font-family="Helvetica,Arial,sans-serif" font-size="11.00" fill="#f8fafc">regional + spike + browser</text>
</g>
<!-- k6_cf -->
<g id="node37" class="node">
<title>k6_cf</title>
<polygon fill="#164e63" stroke="#38bdf8" stroke-width="2" points="612.7,-52 515.05,-52 515.05,-16 612.7,-16 612.7,-52"/>
<text xml:space="preserve" text-anchor="middle" x="563.88" y="-35.55" font-family="Helvetica,Arial,sans-serif" font-size="11.00" fill="#f8fafc">CloudFront</text>
<text xml:space="preserve" text-anchor="middle" x="563.88" y="-23.55" font-family="Helvetica,Arial,sans-serif" font-size="11.00" fill="#f8fafc">/api/* + storefront</text>
</g>
<!-- k6_api -->
<g id="node38" class="node">
<title>k6_api</title>
<polygon fill="#14532d" stroke="#22c55e" stroke-width="2" points="725.45,-52 656.3,-52 656.3,-16 725.45,-16 725.45,-52"/>
<text xml:space="preserve" text-anchor="middle" x="690.88" y="-35.55" font-family="Helvetica,Arial,sans-serif" font-size="11.00" fill="#f8fafc">ALB / API</text>
<text xml:space="preserve" text-anchor="middle" x="690.88" y="-23.55" font-family="Helvetica,Arial,sans-serif" font-size="11.00" fill="#f8fafc">traceparent</text>
</g>
<!-- k6_services -->
<g id="node39" class="node">
<title>k6_services</title>
<polygon fill="#14532d" stroke="#22c55e" stroke-width="2" points="862.83,-52 768.92,-52 768.92,-16 862.83,-16 862.83,-52"/>
<text xml:space="preserve" text-anchor="middle" x="815.88" y="-35.55" font-family="Helvetica,Arial,sans-serif" font-size="11.00" fill="#f8fafc">inventory / cart /</text>
<text xml:space="preserve" text-anchor="middle" x="815.88" y="-23.55" font-family="Helvetica,Arial,sans-serif" font-size="11.00" fill="#f8fafc">account services</text>
</g>
<!-- k6_grafana -->
<g id="node40" class="node">
<title>k6_grafana</title>
<polygon fill="#6b21a8" stroke="#c084fc" stroke-width="2" points="492.57,-52 379.18,-52 379.18,-16 492.57,-16 492.57,-52"/>
<text xml:space="preserve" text-anchor="middle" x="435.88" y="-35.55" font-family="Helvetica,Arial,sans-serif" font-size="11.00" fill="#f8fafc">Grafana Cloud</text>
<text xml:space="preserve" text-anchor="middle" x="435.88" y="-23.55" font-family="Helvetica,Arial,sans-serif" font-size="11.00" fill="#f8fafc">run metrics + checks</text>
</g>
</g>
</svg>
