<?xml version="1.0" encoding="UTF-8" standalone="no"?>
<!DOCTYPE svg PUBLIC "-//W3C//DTD SVG 1.1//EN"
 "http://www.w3.org/Graphics/SVG/1.1/DTD/svg11.dtd">
<!-- Generated by graphviz version 15.0.0 (20260523.1842)
 -->
<!-- Title: sequence_dependency_diagram Pages: 1 -->
<svg width="1173pt" height="1161pt"
 viewBox="0.00 0.00 1173.00 1161.00" xmlns="http://www.w3.org/2000/svg" xmlns:xlink="http://www.w3.org/1999/xlink">
<g id="graph0" class="graph" transform="scale(1 1) rotate(0) translate(18 1143.42)">
<title>sequence_dependency_diagram</title>
<polygon fill="#0b1220" stroke="none" points="-18,18 -18,-1143.42 1154.88,-1143.42 1154.88,18 -18,18"/>
<text xml:space="preserve" text-anchor="middle" x="568.44" y="-1100.52" font-family="Helvetica,Arial,sans-serif" font-size="22.00" fill="#f8fafc">Frontend&#45;to&#45;Backend Request Sequence as Stacked Horizontal Paths</text>
<g id="clust1" class="cluster">
<title>cluster_static</title>
<path fill="#0b1220" stroke="#38bdf8" stroke-width="2" d="M201.88,-868.92C201.88,-868.92 1116.88,-868.92 1116.88,-868.92 1122.88,-868.92 1128.88,-874.92 1128.88,-880.92 1128.88,-880.92 1128.88,-969.92 1128.88,-969.92 1128.88,-975.92 1122.88,-981.92 1116.88,-981.92 1116.88,-981.92 201.87,-981.92 201.87,-981.92 195.87,-981.92 189.88,-975.92 189.88,-969.92 189.88,-969.92 189.88,-880.92 189.88,-880.92 189.88,-874.92 195.88,-868.92 201.88,-868.92"/>
<text xml:space="preserve" text-anchor="middle" x="659.38" y="-957.02" font-family="Helvetica,Arial,sans-serif" font-size="22.00" fill="#bae6fd">1. Storefront page load</text>
</g>
<g id="clust2" class="cluster">
<title>cluster_auth</title>
<path fill="#0b1220" stroke="#a855f7" stroke-width="2" d="M221.88,-738.92C221.88,-738.92 903.88,-738.92 903.88,-738.92 909.88,-738.92 915.88,-744.92 915.88,-750.92 915.88,-750.92 915.88,-839.92 915.88,-839.92 915.88,-845.92 909.88,-851.92 903.88,-851.92 903.88,-851.92 221.87,-851.92 221.87,-851.92 215.88,-851.92 209.88,-845.92 209.88,-839.92 209.88,-839.92 209.88,-750.92 209.88,-750.92 209.88,-744.92 215.88,-738.92 221.88,-738.92"/>
<text xml:space="preserve" text-anchor="middle" x="562.88" y="-827.02" font-family="Helvetica,Arial,sans-serif" font-size="22.00" fill="#e9d5ff">2. Google sign&#45;in through Cognito</text>
</g>
<g id="clust3" class="cluster">
<title>cluster_inventory</title>
<path fill="#0b1220" stroke="#22c55e" stroke-width="2" d="M202.88,-600.04C202.88,-600.04 984.88,-600.04 984.88,-600.04 990.88,-600.04 996.88,-606.04 996.88,-612.04 996.88,-612.04 996.88,-709.92 996.88,-709.92 996.88,-715.92 990.88,-721.92 984.88,-721.92 984.88,-721.92 202.88,-721.92 202.88,-721.92 196.87,-721.92 190.88,-715.92 190.88,-709.92 190.88,-709.92 190.88,-612.04 190.88,-612.04 190.88,-606.04 196.88,-600.04 202.88,-600.04"/>
<text xml:space="preserve" text-anchor="middle" x="593.88" y="-697.02" font-family="Helvetica,Arial,sans-serif" font-size="22.00" fill="#bbf7d0">3. Inventory browse request</text>
</g>
<g id="clust4" class="cluster">
<title>cluster_cart</title>
<path fill="#0b1220" stroke="#22c55e" stroke-width="2" d="M226.88,-442.66C226.88,-442.66 1014.88,-442.66 1014.88,-442.66 1020.88,-442.66 1026.88,-448.66 1026.88,-454.66 1026.88,-454.66 1026.88,-552.54 1026.88,-552.54 1026.88,-558.54 1020.88,-564.54 1014.88,-564.54 1014.88,-564.54 226.87,-564.54 226.87,-564.54 220.88,-564.54 214.88,-558.54 214.88,-552.54 214.88,-552.54 214.88,-454.66 214.88,-454.66 214.88,-448.66 220.88,-442.66 226.88,-442.66"/>
<text xml:space="preserve" text-anchor="middle" x="620.88" y="-539.64" font-family="Helvetica,Arial,sans-serif" font-size="22.00" fill="#bbf7d0">4. Cart update request</text>
</g>
<g id="clust5" class="cluster">
<title>cluster_account</title>
<path fill="#0b1220" stroke="#22c55e" stroke-width="2" d="M175.88,-303.78C175.88,-303.78 992.88,-303.78 992.88,-303.78 998.88,-303.78 1004.88,-309.78 1004.88,-315.78 1004.88,-315.78 1004.88,-413.66 1004.88,-413.66 1004.88,-419.66 998.88,-425.66 992.88,-425.66 992.88,-425.66 175.88,-425.66 175.88,-425.66 169.88,-425.66 163.88,-419.66 163.88,-413.66 163.88,-413.66 163.88,-315.78 163.88,-315.78 163.88,-309.78 169.88,-303.78 175.88,-303.78"/>
<text xml:space="preserve" text-anchor="middle" x="584.38" y="-400.76" font-family="Helvetica,Arial,sans-serif" font-size="22.00" fill="#bbf7d0">5. Account save request</text>
</g>
<g id="clust6" class="cluster">
<title>cluster_telemetry</title>
<path fill="#0b1220" stroke="#c084fc" stroke-width="2" d="M216.88,-165.14C216.88,-165.14 665.88,-165.14 665.88,-165.14 671.88,-165.14 677.88,-171.14 677.88,-177.14 677.88,-177.14 677.88,-274.78 677.88,-274.78 677.88,-280.78 671.88,-286.78 665.88,-286.78 665.88,-286.78 216.87,-286.78 216.87,-286.78 210.88,-286.78 204.88,-280.78 204.88,-274.78 204.88,-274.78 204.88,-177.14 204.88,-177.14 204.88,-171.14 210.88,-165.14 216.88,-165.14"/>
<text xml:space="preserve" text-anchor="middle" x="441.38" y="-261.88" font-family="Helvetica,Arial,sans-serif" font-size="22.00" fill="#f3e8ff">6. Backend telemetry</text>
</g>
<g id="clust7" class="cluster">
<title>cluster_k6</title>
<path fill="#0b1220" stroke="#f59e0b" stroke-width="2" d="M202.88,-8C202.88,-8 848.88,-8 848.88,-8 854.88,-8 860.88,-14 860.88,-20 860.88,-20 860.88,-117.64 860.88,-117.64 860.88,-123.64 854.88,-129.64 848.88,-129.64 848.88,-129.64 202.87,-129.64 202.87,-129.64 196.88,-129.64 190.88,-123.64 190.88,-117.64 190.88,-117.64 190.88,-20 190.88,-20 190.88,-14 196.88,-8 202.88,-8"/>
<text xml:space="preserve" text-anchor="middle" x="525.88" y="-104.74" font-family="Helvetica,Arial,sans-serif" font-size="22.00" fill="#fde68a">7. k6 load and browser checks</text>
</g>
<!-- key&#45;&gt;start -->
<!-- start&#45;&gt;static_browser -->
<!-- static_browser&#45;&gt;static_dns -->
<g id="edge1" class="edge">
<title>static_browser&#45;&gt;static_dns</title>
<path fill="none" stroke="#94a3b8" stroke-width="2" d="M322.63,-894.92C336.95,-894.92 351.78,-894.92 364.84,-894.92"/>
<polygon fill="#94a3b8" stroke="#94a3b8" stroke-width="2" points="364.61,-896.85 370.11,-894.92 364.61,-893 364.61,-896.85"/>
<text xml:space="preserve" text-anchor="middle" x="347.75" y="-899.12" font-family="Helvetica,Arial,sans-serif" font-size="9.00" fill="#f8fafc">resolve</text>
</g>
<!-- static_browser&#45;&gt;auth_browser -->
<!-- static_dns&#45;&gt;static_cf -->
<g id="edge2" class="edge">
<title>static_dns&#45;&gt;static_cf</title>
<path fill="none" stroke="#94a3b8" stroke-width="2" d="M436.65,-894.92C447.37,-894.92 459.56,-894.92 471.18,-894.92"/>
<polygon fill="#94a3b8" stroke="#94a3b8" stroke-width="2" points="470.99,-896.85 476.49,-894.92 470.99,-893 470.99,-896.85"/>
<text xml:space="preserve" text-anchor="middle" x="458.19" y="-899.12" font-family="Helvetica,Arial,sans-serif" font-size="9.00" fill="#f8fafc">alias</text>
</g>
<!-- static_cf&#45;&gt;static_s3 -->
<g id="edge3" class="edge">
<title>static_cf&#45;&gt;static_s3</title>
<path fill="none" stroke="#94a3b8" stroke-width="2" d="M556.18,-894.92C567.44,-894.92 579.82,-894.92 591.32,-894.92"/>
<polygon fill="#94a3b8" stroke="#94a3b8" stroke-width="2" points="590.99,-896.85 596.49,-894.92 590.99,-893 590.99,-896.85"/>
<text xml:space="preserve" text-anchor="middle" x="577.75" y="-899.12" font-family="Helvetica,Arial,sans-serif" font-size="9.00" fill="#f8fafc">fetch</text>
</g>
<!-- static_s3&#45;&gt;static_render -->
<g id="edge4" class="edge">
<title>static_s3&#45;&gt;static_render</title>
<path fill="none" stroke="#94a3b8" stroke-width="2" d="M668.56,-894.92C680.15,-894.92 693.42,-894.92 706.35,-894.92"/>
<polygon fill="#94a3b8" stroke="#94a3b8" stroke-width="2" points="706.26,-896.85 711.76,-894.92 706.26,-893 706.26,-896.85"/>
<text xml:space="preserve" text-anchor="middle" x="691.62" y="-899.12" font-family="Helvetica,Arial,sans-serif" font-size="9.00" fill="#f8fafc">assets</text>
</g>
<!-- static_render&#45;&gt;static_faro -->
<g id="edge5" class="edge">
<title>static_render&#45;&gt;static_faro</title>
<path fill="none" stroke="#94a3b8" stroke-width="2" d="M816.82,-894.92C834.79,-894.92 855.05,-894.92 873.24,-894.92"/>
<polygon fill="#94a3b8" stroke="#94a3b8" stroke-width="2" points="872.91,-896.85 878.41,-894.92 872.91,-893 872.91,-896.85"/>
<text xml:space="preserve" text-anchor="middle" x="849.19" y="-899.12" font-family="Helvetica,Arial,sans-serif" font-size="9.00" fill="#f8fafc">web signal</text>
</g>
<!-- static_faro&#45;&gt;static_grafana -->
<g id="edge6" class="edge">
<title>static_faro&#45;&gt;static_grafana</title>
<path fill="none" stroke="#94a3b8" stroke-width="2" d="M972.12,-894.92C984.27,-894.92 997.59,-894.92 1010.39,-894.92"/>
<polygon fill="#94a3b8" stroke="#94a3b8" stroke-width="2" points="1010.18,-896.85 1015.68,-894.92 1010.18,-893 1010.18,-896.85"/>
<text xml:space="preserve" text-anchor="middle" x="995.56" y="-899.12" font-family="Helvetica,Arial,sans-serif" font-size="9.00" fill="#f8fafc">collect</text>
</g>
<!-- auth_browser&#45;&gt;auth_cognito -->
<g id="edge7" class="edge">
<title>auth_browser&#45;&gt;auth_cognito</title>
<path fill="none" stroke="#94a3b8" stroke-width="2" d="M302,-764.92C317.53,-764.92 335.37,-764.92 351.87,-764.92"/>
<polygon fill="#94a3b8" stroke="#94a3b8" stroke-width="2" points="351.83,-766.85 357.33,-764.92 351.83,-763 351.83,-766.85"/>
<text xml:space="preserve" text-anchor="middle" x="331.12" y="-769.12" font-family="Helvetica,Arial,sans-serif" font-size="9.00" fill="#f8fafc">authorize</text>
</g>
<!-- auth_browser&#45;&gt;inv_browser -->
<!-- auth_cognito&#45;&gt;auth_google -->
<g id="edge8" class="edge">
<title>auth_cognito&#45;&gt;auth_google</title>
<path fill="none" stroke="#94a3b8" stroke-width="2" d="M453.55,-764.92C467.52,-764.92 482.89,-764.92 497,-764.92"/>
<polygon fill="#94a3b8" stroke="#94a3b8" stroke-width="2" points="496.62,-766.85 502.12,-764.92 496.62,-763 496.62,-766.85"/>
<text xml:space="preserve" text-anchor="middle" x="479.19" y="-769.12" font-family="Helvetica,Arial,sans-serif" font-size="9.00" fill="#f8fafc">redirect</text>
</g>
<!-- auth_google&#45;&gt;auth_claims -->
<g id="edge9" class="edge">
<title>auth_google&#45;&gt;auth_claims</title>
<path fill="none" stroke="#94a3b8" stroke-width="2" d="M586.61,-764.92C598.81,-764.92 612.35,-764.92 625.16,-764.92"/>
<polygon fill="#94a3b8" stroke="#94a3b8" stroke-width="2" points="624.92,-766.85 630.42,-764.92 624.92,-763 624.92,-766.85"/>
<text xml:space="preserve" text-anchor="middle" x="610.06" y="-769.12" font-family="Helvetica,Arial,sans-serif" font-size="9.00" fill="#f8fafc">claims</text>
</g>
<!-- auth_claims&#45;&gt;auth_account -->
<g id="edge10" class="edge">
<title>auth_claims&#45;&gt;auth_account</title>
<path fill="none" stroke="#94a3b8" stroke-width="2" d="M720.47,-764.92C744.76,-764.92 775.31,-764.92 801.52,-764.92"/>
<polygon fill="#94a3b8" stroke="#94a3b8" stroke-width="2" points="801.34,-766.85 806.84,-764.92 801.34,-763 801.34,-766.85"/>
<text xml:space="preserve" text-anchor="middle" x="765.06" y="-769.12" font-family="Helvetica,Arial,sans-serif" font-size="9.00" fill="#f8fafc">callback + PKCE</text>
</g>
<!-- inv_browser&#45;&gt;inv_cf -->
<g id="edge11" class="edge">
<title>inv_browser&#45;&gt;inv_cf</title>
<path fill="none" stroke="#94a3b8" stroke-width="2" d="M321.38,-630.48C334.89,-630.48 352.54,-630.48 352.54,-630.48 352.54,-630.48 353.79,-630.48 355.87,-630.48"/>
<polygon fill="#94a3b8" stroke="#94a3b8" stroke-width="2" points="355.71,-632.41 361.21,-630.48 355.71,-628.56 355.71,-632.41"/>
</g>
<!-- inv_browser&#45;&gt;cart_browser -->
<!-- inv_cf&#45;&gt;inv_api -->
<g id="edge12" class="edge">
<title>inv_cf&#45;&gt;inv_api</title>
<path fill="none" stroke="#94a3b8" stroke-width="2" d="M433.07,-630.48C435.22,-630.48 436.54,-630.48 436.54,-630.48 436.54,-630.48 456.43,-630.48 468.25,-630.48"/>
<polygon fill="#94a3b8" stroke="#94a3b8" stroke-width="2" points="468.15,-632.41 473.65,-630.48 468.15,-628.56 468.15,-632.41"/>
</g>
<!-- inv_api&#45;&gt;inv_service -->
<g id="edge13" class="edge">
<title>inv_api&#45;&gt;inv_service</title>
<path fill="none" stroke="#94a3b8" stroke-width="2" d="M547.31,-630.48C551.25,-630.48 553.88,-630.48 553.88,-630.48 553.88,-630.48 569.19,-630.48 581.33,-630.48"/>
<polygon fill="#94a3b8" stroke="#94a3b8" stroke-width="2" points="581.15,-632.41 586.65,-630.48 581.15,-628.56 581.15,-632.41"/>
</g>
<!-- inv_service&#45;&gt;inv_db -->
<g id="edge14" class="edge">
<title>inv_service&#45;&gt;inv_db</title>
<path fill="none" stroke="#94a3b8" stroke-width="2" d="M685.91,-630.48C697.67,-630.48 710.22,-630.48 721.88,-630.48"/>
<polygon fill="#94a3b8" stroke="#94a3b8" stroke-width="2" points="721.66,-632.41 727.16,-630.48 721.66,-628.56 721.66,-632.41"/>
<text xml:space="preserve" text-anchor="middle" x="707.94" y="-634.68" font-family="Helvetica,Arial,sans-serif" font-size="9.00" fill="#f8fafc">query</text>
</g>
<!-- inv_db&#45;&gt;inv_response -->
<g id="edge15" class="edge">
<title>inv_db&#45;&gt;inv_response</title>
<path fill="none" stroke="#94a3b8" stroke-width="2" d="M805.58,-630.48C825.74,-630.48 851.08,-630.48 874.03,-630.48"/>
<polygon fill="#94a3b8" stroke="#94a3b8" stroke-width="2" points="873.84,-632.41 879.34,-630.48 873.84,-628.56 873.84,-632.41"/>
<text xml:space="preserve" text-anchor="middle" x="844" y="-634.68" font-family="Helvetica,Arial,sans-serif" font-size="9.00" fill="#f8fafc">rows &#45;&gt; JSON</text>
</g>
<!-- cart_browser&#45;&gt;cart_cf -->
<g id="edge17" class="edge">
<title>cart_browser&#45;&gt;cart_cf</title>
<path fill="none" stroke="#94a3b8" stroke-width="2" d="M276.67,-491.43C300.92,-517.9 342.88,-563.67 342.88,-563.67 342.88,-563.67 454.88,-563.67 454.88,-563.67 454.88,-563.67 474.13,-525.75 487.73,-498.98"/>
<polygon fill="#94a3b8" stroke="#94a3b8" stroke-width="2" points="489.42,-499.9 490.2,-494.13 485.99,-498.16 489.42,-499.9"/>
<text xml:space="preserve" text-anchor="middle" x="381.88" y="-583.49" font-family="Helvetica,Arial,sans-serif" font-size="9.00" fill="#f8fafc">signed&#45;in PUT</text>
<text xml:space="preserve" text-anchor="middle" x="381.88" y="-573.74" font-family="Helvetica,Arial,sans-serif" font-size="9.00" fill="#f8fafc">Bearer JWT</text>
</g>
<!-- cart_browser&#45;&gt;cart_local -->
<g id="edge16" class="edge">
<title>cart_browser&#45;&gt;cart_local</title>
<path fill="none" stroke="#94a3b8" stroke-width="2" d="M297.12,-473.1C311.78,-473.1 328.89,-473.1 344.86,-473.1"/>
<polygon fill="#94a3b8" stroke="#94a3b8" stroke-width="2" points="344.55,-475.03 350.05,-473.1 344.55,-471.18 344.55,-475.03"/>
<text xml:space="preserve" text-anchor="middle" x="325.06" y="-477.3" font-family="Helvetica,Arial,sans-serif" font-size="9.00" fill="#f8fafc">no token</text>
</g>
<!-- cart_browser&#45;&gt;acct_browser -->
<!-- cart_cf&#45;&gt;cart_api -->
<g id="edge18" class="edge">
<title>cart_cf&#45;&gt;cart_api</title>
<path fill="none" stroke="#94a3b8" stroke-width="2" d="M535.39,-473.1C537.75,-473.1 539.21,-473.1 539.21,-473.1 539.21,-473.1 559.01,-473.1 570.62,-473.1"/>
<polygon fill="#94a3b8" stroke="#94a3b8" stroke-width="2" points="570.29,-475.03 575.79,-473.1 570.29,-471.18 570.29,-475.03"/>
</g>
<!-- cart_api&#45;&gt;cart_service -->
<g id="edge19" class="edge">
<title>cart_api&#45;&gt;cart_service</title>
<path fill="none" stroke="#94a3b8" stroke-width="2" d="M652.93,-473.1C653.75,-473.1 654.21,-473.1 654.21,-473.1 654.21,-473.1 674.88,-473.1 687.06,-473.1"/>
<polygon fill="#94a3b8" stroke="#94a3b8" stroke-width="2" points="687.02,-475.03 692.52,-473.1 687.02,-471.18 687.02,-475.03"/>
</g>
<!-- cart_service&#45;&gt;cart_db -->
<g id="edge20" class="edge">
<title>cart_service&#45;&gt;cart_db</title>
<path fill="none" stroke="#94a3b8" stroke-width="2" d="M766.26,-473.1C778.73,-473.1 792.91,-473.1 806.01,-473.1"/>
<polygon fill="#94a3b8" stroke="#94a3b8" stroke-width="2" points="805.9,-475.03 811.4,-473.1 805.9,-471.18 805.9,-475.03"/>
<text xml:space="preserve" text-anchor="middle" x="790.19" y="-477.3" font-family="Helvetica,Arial,sans-serif" font-size="9.00" fill="#f8fafc">persist</text>
</g>
<!-- cart_db&#45;&gt;cart_response -->
<g id="edge21" class="edge">
<title>cart_db&#45;&gt;cart_response</title>
<path fill="none" stroke="#94a3b8" stroke-width="2" d="M885.41,-473.1C896.12,-473.1 908.13,-473.1 919.76,-473.1"/>
<polygon fill="#94a3b8" stroke="#94a3b8" stroke-width="2" points="919.61,-475.03 925.11,-473.1 919.61,-471.18 919.61,-475.03"/>
<text xml:space="preserve" text-anchor="middle" x="906.81" y="-477.3" font-family="Helvetica,Arial,sans-serif" font-size="9.00" fill="#f8fafc">ack</text>
</g>
<!-- acct_browser&#45;&gt;acct_cf -->
<g id="edge22" class="edge">
<title>acct_browser&#45;&gt;acct_cf</title>
<path fill="none" stroke="#94a3b8" stroke-width="2" d="M348.57,-334.22C369.51,-334.22 390.92,-334.22 408.77,-334.22"/>
<polygon fill="#94a3b8" stroke="#94a3b8" stroke-width="2" points="408.71,-336.15 414.21,-334.22 408.71,-332.3 408.71,-336.15"/>
<text xml:space="preserve" text-anchor="middle" x="382.88" y="-338.42" font-family="Helvetica,Arial,sans-serif" font-size="9.00" fill="#f8fafc">Bearer JWT</text>
</g>
<!-- acct_browser&#45;&gt;telemetry_services -->
<!-- acct_cf&#45;&gt;acct_api -->
<g id="edge23" class="edge">
<title>acct_cf&#45;&gt;acct_api</title>
<path fill="none" stroke="#94a3b8" stroke-width="2" d="M486.39,-334.22C488.75,-334.22 490.21,-334.22 490.21,-334.22 490.21,-334.22 510.01,-334.22 521.62,-334.22"/>
<polygon fill="#94a3b8" stroke="#94a3b8" stroke-width="2" points="521.29,-336.15 526.79,-334.22 521.29,-332.3 521.29,-336.15"/>
</g>
<!-- acct_api&#45;&gt;acct_service -->
<g id="edge24" class="edge">
<title>acct_api&#45;&gt;acct_service</title>
<path fill="none" stroke="#94a3b8" stroke-width="2" d="M604.08,-334.22C606.82,-334.22 608.54,-334.22 608.54,-334.22 608.54,-334.22 626.33,-334.22 638.66,-334.22"/>
<polygon fill="#94a3b8" stroke="#94a3b8" stroke-width="2" points="638.41,-336.15 643.91,-334.22 638.41,-332.3 638.41,-336.15"/>
</g>
<!-- acct_service&#45;&gt;acct_db -->
<g id="edge25" class="edge">
<title>acct_service&#45;&gt;acct_db</title>
<path fill="none" stroke="#94a3b8" stroke-width="2" d="M736.93,-334.22C749.55,-334.22 763.31,-334.22 776.09,-334.22"/>
<polygon fill="#94a3b8" stroke="#94a3b8" stroke-width="2" points="775.79,-336.15 781.29,-334.22 775.79,-332.3 775.79,-336.15"/>
<text xml:space="preserve" text-anchor="middle" x="760.69" y="-338.42" font-family="Helvetica,Arial,sans-serif" font-size="9.00" fill="#f8fafc">persist</text>
</g>
<!-- acct_db&#45;&gt;acct_response -->
<g id="edge26" class="edge">
<title>acct_db&#45;&gt;acct_response</title>
<path fill="none" stroke="#94a3b8" stroke-width="2" d="M863.32,-334.22C874.2,-334.22 886.19,-334.22 897.74,-334.22"/>
<polygon fill="#94a3b8" stroke="#94a3b8" stroke-width="2" points="897.53,-336.15 903.03,-334.22 897.53,-332.3 897.53,-336.15"/>
<text xml:space="preserve" text-anchor="middle" x="884.69" y="-338.42" font-family="Helvetica,Arial,sans-serif" font-size="9.00" fill="#f8fafc">ack</text>
</g>
<!-- telemetry_services&#45;&gt;telemetry_alloy -->
<g id="edge27" class="edge">
<title>telemetry_services&#45;&gt;telemetry_alloy</title>
<path fill="none" stroke="#94a3b8" stroke-width="2" d="M307.25,-195.46C334.09,-195.46 368.01,-195.46 397.14,-195.46"/>
<polygon fill="#94a3b8" stroke="#94a3b8" stroke-width="2" points="397.09,-197.39 402.59,-195.46 397.09,-193.54 397.09,-197.39"/>
<text xml:space="preserve" text-anchor="middle" x="356.44" y="-199.66" font-family="Helvetica,Arial,sans-serif" font-size="9.00" fill="#f8fafc">OTel + Prometheus</text>
</g>
<!-- telemetry_services&#45;&gt;k6_runner -->
<!-- telemetry_alloy&#45;&gt;telemetry_grafana -->
<g id="edge28" class="edge">
<title>telemetry_alloy&#45;&gt;telemetry_grafana</title>
<path fill="none" stroke="#94a3b8" stroke-width="2" d="M515.87,-195.46C528.47,-195.46 541.94,-195.46 554.81,-195.46"/>
<polygon fill="#94a3b8" stroke="#94a3b8" stroke-width="2" points="554.63,-197.39 560.13,-195.46 554.63,-193.54 554.63,-197.39"/>
<text xml:space="preserve" text-anchor="middle" x="539.62" y="-199.66" font-family="Helvetica,Arial,sans-serif" font-size="9.00" fill="#f8fafc">export</text>
</g>
<!-- k6_runner&#45;&gt;k6_cf -->
<g id="edge29" class="edge">
<title>k6_runner&#45;&gt;k6_cf</title>
<path fill="none" stroke="#94a3b8" stroke-width="2" d="M284.35,-60.92C313.38,-87.72 357.88,-128.79 357.88,-128.79 357.88,-128.79 493.88,-128.79 493.88,-128.79 493.88,-128.79 519.43,-90.26 537.18,-63.49"/>
<polygon fill="#94a3b8" stroke="#94a3b8" stroke-width="2" points="538.62,-64.8 540.06,-59.15 535.42,-62.67 538.62,-64.8"/>
<text xml:space="preserve" text-anchor="middle" x="412.88" y="-148.59" font-family="Helvetica,Arial,sans-serif" font-size="9.00" fill="#f8fafc">regional, spike,</text>
<text xml:space="preserve" text-anchor="middle" x="412.88" y="-138.84" font-family="Helvetica,Arial,sans-serif" font-size="9.00" fill="#f8fafc">browser actions</text>
</g>
<!-- k6_runner&#45;&gt;k6_grafana -->
<g id="edge32" class="edge">
<title>k6_runner&#45;&gt;k6_grafana</title>
<path fill="none" stroke="#94a3b8" stroke-width="2" d="M321.22,-38.32C334.02,-38.32 347.56,-38.32 360.51,-38.32"/>
<polygon fill="#94a3b8" stroke="#94a3b8" stroke-width="2" points="360.38,-40.25 365.88,-38.32 360.38,-36.4 360.38,-40.25"/>
<text xml:space="preserve" text-anchor="middle" x="345.12" y="-42.52" font-family="Helvetica,Arial,sans-serif" font-size="9.00" fill="#f8fafc">results</text>
</g>
<!-- k6_cf&#45;&gt;k6_api -->
<g id="edge30" class="edge">
<title>k6_cf&#45;&gt;k6_api</title>
<path fill="none" stroke="#94a3b8" stroke-width="2" d="M603.2,-38.32C612.12,-38.32 627.27,-38.32 637.5,-38.32"/>
<polygon fill="#94a3b8" stroke="#94a3b8" stroke-width="2" points="637.39,-40.25 642.89,-38.32 637.39,-36.4 637.39,-40.25"/>
</g>
<!-- k6_api&#45;&gt;k6_services -->
<g id="edge31" class="edge">
<title>k6_api&#45;&gt;k6_services</title>
<path fill="none" stroke="#94a3b8" stroke-width="2" d="M715.66,-38.32C719.77,-38.32 722.54,-38.32 722.54,-38.32 722.54,-38.32 738.37,-38.32 750.51,-38.32"/>
<polygon fill="#94a3b8" stroke="#94a3b8" stroke-width="2" points="750.23,-40.25 755.73,-38.32 750.23,-36.4 750.23,-40.25"/>
</g>
<!-- key -->
<g id="node1" class="node">
<title>key</title>
<polygon fill="#111827" stroke="none" stroke-width="2" points="519.75,-1094.92 0,-1094.92 0,-1066.92 519.75,-1066.92 519.75,-1094.92"/>
<polygon fill="#1e3a8a" stroke="none" points="1,-1067.92 1,-1093.92 59.25,-1093.92 59.25,-1067.92 1,-1067.92"/>
<polygon fill="none" stroke="#475569" points="1,-1067.92 1,-1093.92 59.25,-1093.92 59.25,-1067.92 1,-1067.92"/>
<text xml:space="preserve" text-anchor="start" x="8" y="-1077.47" font-family="Helvetica,Arial,sans-serif" font-weight="bold" font-size="11.00" fill="#f8fafc">Browser</text>
<polygon fill="#164e63" stroke="none" points="59.25,-1067.92 59.25,-1093.92 133.25,-1093.92 133.25,-1067.92 59.25,-1067.92"/>
<polygon fill="none" stroke="#475569" points="59.25,-1067.92 59.25,-1093.92 133.25,-1093.92 133.25,-1067.92 59.25,-1067.92"/>
<text xml:space="preserve" text-anchor="start" x="66.25" y="-1077.47" font-family="Helvetica,Arial,sans-serif" font-weight="bold" font-size="11.00" fill="#f8fafc">DNS / Edge</text>
<polygon fill="#713f12" stroke="none" points="133.25,-1067.92 133.25,-1093.92 212.5,-1093.92 212.5,-1067.92 133.25,-1067.92"/>
<polygon fill="none" stroke="#475569" points="133.25,-1067.92 133.25,-1093.92 212.5,-1093.92 212.5,-1067.92 133.25,-1067.92"/>
<text xml:space="preserve" text-anchor="start" x="140.25" y="-1077.47" font-family="Helvetica,Arial,sans-serif" font-weight="bold" font-size="11.00" fill="#f8fafc">Static Origin</text>
<polygon fill="#4c1d95" stroke="none" points="212.5,-1067.92 212.5,-1093.92 265.5,-1093.92 265.5,-1067.92 212.5,-1067.92"/>
<polygon fill="none" stroke="#475569" points="212.5,-1067.92 212.5,-1093.92 265.5,-1093.92 265.5,-1067.92 212.5,-1067.92"/>
<text xml:space="preserve" text-anchor="start" x="219.5" y="-1077.47" font-family="Helvetica,Arial,sans-serif" font-weight="bold" font-size="11.00" fill="#f8fafc">Identity</text>
<polygon fill="#14532d" stroke="none" points="265.5,-1067.92 265.5,-1093.92 352.25,-1093.92 352.25,-1067.92 265.5,-1067.92"/>
<polygon fill="none" stroke="#475569" points="265.5,-1067.92 265.5,-1093.92 352.25,-1093.92 352.25,-1067.92 265.5,-1067.92"/>
<text xml:space="preserve" text-anchor="start" x="272.5" y="-1077.47" font-family="Helvetica,Arial,sans-serif" font-weight="bold" font-size="11.00" fill="#f8fafc">API / Services</text>
<polygon fill="#166534" stroke="none" points="352.25,-1067.92 352.25,-1093.92 427.75,-1093.92 427.75,-1067.92 352.25,-1067.92"/>
<polygon fill="none" stroke="#475569" points="352.25,-1067.92 352.25,-1093.92 427.75,-1093.92 427.75,-1067.92 352.25,-1067.92"/>
<text xml:space="preserve" text-anchor="start" x="359.25" y="-1077.47" font-family="Helvetica,Arial,sans-serif" font-weight="bold" font-size="11.00" fill="#f8fafc">Data Stores</text>
<polygon fill="#6b21a8" stroke="none" points="427.75,-1067.92 427.75,-1093.92 492.75,-1093.92 492.75,-1067.92 427.75,-1067.92"/>
<polygon fill="none" stroke="#475569" points="427.75,-1067.92 427.75,-1093.92 492.75,-1093.92 492.75,-1067.92 427.75,-1067.92"/>
<text xml:space="preserve" text-anchor="start" x="434.75" y="-1077.47" font-family="Helvetica,Arial,sans-serif" font-weight="bold" font-size="11.00" fill="#f8fafc">Telemetry</text>
<polygon fill="#713f12" stroke="none" points="492.75,-1067.92 492.75,-1093.92 518.75,-1093.92 518.75,-1067.92 492.75,-1067.92"/>
<polygon fill="none" stroke="#475569" points="492.75,-1067.92 492.75,-1093.92 518.75,-1093.92 518.75,-1067.92 492.75,-1067.92"/>
<text xml:space="preserve" text-anchor="start" x="499.75" y="-1077.47" font-family="Helvetica,Arial,sans-serif" font-weight="bold" font-size="11.00" fill="#f8fafc">k6</text>
<polygon fill="none" stroke="#475569" points="0,-1066.92 0,-1094.92 519.75,-1094.92 519.75,-1066.92 0,-1066.92"/>
</g>
<!-- start -->
<g id="node2" class="node">
<title>start</title>
<ellipse fill="#1e3a8a" stroke="#1e3a8a" stroke-width="2" cx="259.88" cy="-1021.92" rx="59.59" ry="18"/>
<text xml:space="preserve" text-anchor="middle" x="259.88" y="-1017.47" font-family="Helvetica,Arial,sans-serif" font-size="11.00" fill="#f8fafc">Shopper browser</text>
</g>
<!-- static_browser -->
<g id="node3" class="node">
<title>static_browser</title>
<polygon fill="#1e3a8a" stroke="#1e3a8a" stroke-width="2" points="322.2,-912.92 197.55,-912.92 197.55,-876.92 322.2,-876.92 322.2,-912.92"/>
<text xml:space="preserve" text-anchor="middle" x="259.88" y="-896.47" font-family="Helvetica,Arial,sans-serif" font-size="11.00" fill="#f8fafc">Open</text>
<text xml:space="preserve" text-anchor="middle" x="259.88" y="-884.47" font-family="Helvetica,Arial,sans-serif" font-size="11.00" fill="#f8fafc">ensemble&#45;grafana.com</text>
</g>
<!-- static_dns -->
<g id="node4" class="node">
<title>static_dns</title>
<polygon fill="#164e63" stroke="#38bdf8" stroke-width="2" points="436.45,-912.92 373.3,-912.92 373.3,-876.92 436.45,-876.92 436.45,-912.92"/>
<text xml:space="preserve" text-anchor="middle" x="404.88" y="-896.47" font-family="Helvetica,Arial,sans-serif" font-size="11.00" fill="#f8fafc">Route53</text>
<text xml:space="preserve" text-anchor="middle" x="404.88" y="-884.47" font-family="Helvetica,Arial,sans-serif" font-size="11.00" fill="#f8fafc">DNS alias</text>
</g>
<!-- static_cf -->
<g id="node5" class="node">
<title>static_cf</title>
<polygon fill="#164e63" stroke="#38bdf8" stroke-width="2" points="555.83,-912.92 479.93,-912.92 479.93,-876.92 555.83,-876.92 555.83,-912.92"/>
<text xml:space="preserve" text-anchor="middle" x="517.88" y="-896.47" font-family="Helvetica,Arial,sans-serif" font-size="11.00" fill="#f8fafc">CloudFront</text>
<text xml:space="preserve" text-anchor="middle" x="517.88" y="-884.47" font-family="Helvetica,Arial,sans-serif" font-size="11.00" fill="#f8fafc">+ edge WAF</text>
</g>
<!-- static_s3 -->
<g id="node6" class="node">
<title>static_s3</title>
<polygon fill="#713f12" stroke="#f59e0b" stroke-width="2" points="668.08,-912.92 599.67,-912.92 599.67,-876.92 668.08,-876.92 668.08,-912.92"/>
<text xml:space="preserve" text-anchor="middle" x="633.88" y="-896.47" font-family="Helvetica,Arial,sans-serif" font-size="11.00" fill="#f8fafc">S3</text>
<text xml:space="preserve" text-anchor="middle" x="633.88" y="-884.47" font-family="Helvetica,Arial,sans-serif" font-size="11.00" fill="#f8fafc">static origin</text>
</g>
<!-- static_render -->
<g id="node7" class="node">
<title>static_render</title>
<polygon fill="#1e3a8a" stroke="#1e3a8a" stroke-width="2" points="816.58,-912.92 715.17,-912.92 715.17,-876.92 816.58,-876.92 816.58,-912.92"/>
<text xml:space="preserve" text-anchor="middle" x="765.88" y="-896.47" font-family="Helvetica,Arial,sans-serif" font-size="11.00" fill="#f8fafc">Render HTML,</text>
<text xml:space="preserve" text-anchor="middle" x="765.88" y="-884.47" font-family="Helvetica,Arial,sans-serif" font-size="11.00" fill="#f8fafc">JS, CSS, headers</text>
</g>
<!-- static_faro -->
<g id="node8" class="node">
<title>static_faro</title>
<polygon fill="#6b21a8" stroke="#c084fc" stroke-width="2" points="971.95,-912.92 881.8,-912.92 881.8,-876.92 971.95,-876.92 971.95,-912.92"/>
<text xml:space="preserve" text-anchor="middle" x="926.88" y="-896.47" font-family="Helvetica,Arial,sans-serif" font-size="11.00" fill="#f8fafc">Faro page load,</text>
<text xml:space="preserve" text-anchor="middle" x="926.88" y="-884.47" font-family="Helvetica,Arial,sans-serif" font-size="11.00" fill="#f8fafc">vitals, session</text>
</g>
<!-- static_grafana -->
<g id="node9" class="node">
<title>static_grafana</title>
<polygon fill="#6b21a8" stroke="#c084fc" stroke-width="2" points="1120.58,-912.92 1019.17,-912.92 1019.17,-876.92 1120.58,-876.92 1120.58,-912.92"/>
<text xml:space="preserve" text-anchor="middle" x="1069.88" y="-896.47" font-family="Helvetica,Arial,sans-serif" font-size="11.00" fill="#f8fafc">Grafana Cloud</text>
<text xml:space="preserve" text-anchor="middle" x="1069.88" y="-884.47" font-family="Helvetica,Arial,sans-serif" font-size="11.00" fill="#f8fafc">frontend telemetry</text>
</g>
<!-- auth_browser -->
<g id="node10" class="node">
<title>auth_browser</title>
<polygon fill="#1e3a8a" stroke="#1e3a8a" stroke-width="2" points="301.57,-782.92 218.18,-782.92 218.18,-746.92 301.57,-746.92 301.57,-782.92"/>
<text xml:space="preserve" text-anchor="middle" x="259.88" y="-766.47" font-family="Helvetica,Arial,sans-serif" font-size="11.00" fill="#f8fafc">Start</text>
<text xml:space="preserve" text-anchor="middle" x="259.88" y="-754.47" font-family="Helvetica,Arial,sans-serif" font-size="11.00" fill="#f8fafc">Google sign&#45;in</text>
</g>
<!-- auth_cognito -->
<g id="node11" class="node">
<title>auth_cognito</title>
<polygon fill="#4c1d95" stroke="#a855f7" stroke-width="2" points="453.07,-782.92 360.68,-782.92 360.68,-746.92 453.07,-746.92 453.07,-782.92"/>
<text xml:space="preserve" text-anchor="middle" x="406.88" y="-766.47" font-family="Helvetica,Arial,sans-serif" font-size="11.00" fill="#f8fafc">Cognito</text>
<text xml:space="preserve" text-anchor="middle" x="406.88" y="-754.47" font-family="Helvetica,Arial,sans-serif" font-size="11.00" fill="#f8fafc">OAuth authorize</text>
</g>
<!-- auth_google -->
<g id="node12" class="node">
<title>auth_google</title>
<polygon fill="#4c1d95" stroke="#a855f7" stroke-width="2" points="586.45,-782.92 505.3,-782.92 505.3,-746.92 586.45,-746.92 586.45,-782.92"/>
<text xml:space="preserve" text-anchor="middle" x="545.88" y="-766.47" font-family="Helvetica,Arial,sans-serif" font-size="11.00" fill="#f8fafc">Google IdP</text>
<text xml:space="preserve" text-anchor="middle" x="545.88" y="-754.47" font-family="Helvetica,Arial,sans-serif" font-size="11.00" fill="#f8fafc">authentication</text>
</g>
<!-- auth_claims -->
<g id="node13" class="node">
<title>auth_claims</title>
<polygon fill="#4c1d95" stroke="#a855f7" stroke-width="2" points="720.08,-782.92 633.67,-782.92 633.67,-746.92 720.08,-746.92 720.08,-782.92"/>
<text xml:space="preserve" text-anchor="middle" x="676.88" y="-766.47" font-family="Helvetica,Arial,sans-serif" font-size="11.00" fill="#f8fafc">Cognito tokens</text>
<text xml:space="preserve" text-anchor="middle" x="676.88" y="-754.47" font-family="Helvetica,Arial,sans-serif" font-size="11.00" fill="#f8fafc">+ profile claims</text>
</g>
<!-- auth_account -->
<g id="node14" class="node">
<title>auth_account</title>
<polygon fill="#1e3a8a" stroke="#1e3a8a" stroke-width="2" points="907.7,-782.92 810.05,-782.92 810.05,-746.92 907.7,-746.92 907.7,-782.92"/>
<text xml:space="preserve" text-anchor="middle" x="858.88" y="-766.47" font-family="Helvetica,Arial,sans-serif" font-size="11.00" fill="#f8fafc">Populate account</text>
<text xml:space="preserve" text-anchor="middle" x="858.88" y="-754.47" font-family="Helvetica,Arial,sans-serif" font-size="11.00" fill="#f8fafc">name + email</text>
</g>
<!-- inv_browser -->
<g id="node15" class="node">
<title>inv_browser</title>
<polygon fill="#1e3a8a" stroke="#1e3a8a" stroke-width="2" points="321.07,-648.48 198.68,-648.48 198.68,-612.48 321.07,-612.48 321.07,-648.48"/>
<text xml:space="preserve" text-anchor="middle" x="259.88" y="-632.03" font-family="Helvetica,Arial,sans-serif" font-size="11.00" fill="#f8fafc">GET</text>
<text xml:space="preserve" text-anchor="middle" x="259.88" y="-620.03" font-family="Helvetica,Arial,sans-serif" font-size="11.00" fill="#f8fafc">/api/inventory/products</text>
</g>
<!-- inv_cf -->
<g id="node16" class="node">
<title>inv_cf</title>
<polygon fill="#164e63" stroke="#38bdf8" stroke-width="2" points="433.07,-648.48 364.68,-648.48 364.68,-612.48 433.07,-612.48 433.07,-648.48"/>
<text xml:space="preserve" text-anchor="middle" x="398.88" y="-632.03" font-family="Helvetica,Arial,sans-serif" font-size="11.00" fill="#f8fafc">CloudFront</text>
<text xml:space="preserve" text-anchor="middle" x="398.88" y="-620.03" font-family="Helvetica,Arial,sans-serif" font-size="11.00" fill="#f8fafc">/api/* route</text>
</g>
<!-- inv_api -->
<g id="node17" class="node">
<title>inv_api</title>
<polygon fill="#14532d" stroke="#22c55e" stroke-width="2" points="546.83,-648.48 476.93,-648.48 476.93,-612.48 546.83,-612.48 546.83,-648.48"/>
<text xml:space="preserve" text-anchor="middle" x="511.88" y="-632.03" font-family="Helvetica,Arial,sans-serif" font-size="11.00" fill="#f8fafc">ALB /</text>
<text xml:space="preserve" text-anchor="middle" x="511.88" y="-620.03" font-family="Helvetica,Arial,sans-serif" font-size="11.00" fill="#f8fafc">API ingress</text>
</g>
<!-- inv_service -->
<g id="node18" class="node">
<title>inv_service</title>
<polygon fill="#14532d" stroke="#22c55e" stroke-width="2" points="685.58,-648.48 590.17,-648.48 590.17,-612.48 685.58,-612.48 685.58,-648.48"/>
<text xml:space="preserve" text-anchor="middle" x="637.88" y="-632.03" font-family="Helvetica,Arial,sans-serif" font-size="11.00" fill="#f8fafc">inventory&#45;service</text>
<text xml:space="preserve" text-anchor="middle" x="637.88" y="-620.03" font-family="Helvetica,Arial,sans-serif" font-size="11.00" fill="#f8fafc">trace context</text>
</g>
<!-- inv_db -->
<g id="node19" class="node">
<title>inv_db</title>
<path fill="#166534" stroke="#16a34a" stroke-width="2" d="M805.45,-648.84C805.45,-651.09 788.61,-652.92 767.88,-652.92 747.14,-652.92 730.3,-651.09 730.3,-648.84 730.3,-648.84 730.3,-612.12 730.3,-612.12 730.3,-609.87 747.14,-608.04 767.88,-608.04 788.61,-608.04 805.45,-609.87 805.45,-612.12 805.45,-612.12 805.45,-648.84 805.45,-648.84"/>
<path fill="none" stroke="#16a34a" stroke-width="2" d="M805.45,-648.84C805.45,-646.59 788.61,-644.76 767.88,-644.76 747.14,-644.76 730.3,-646.59 730.3,-648.84"/>
<text xml:space="preserve" text-anchor="middle" x="767.88" y="-632.03" font-family="Helvetica,Arial,sans-serif" font-size="11.00" fill="#f8fafc">Postgres</text>
<text xml:space="preserve" text-anchor="middle" x="767.88" y="-620.03" font-family="Helvetica,Arial,sans-serif" font-size="11.00" fill="#f8fafc">catalog rows</text>
</g>
<!-- inv_response -->
<g id="node20" class="node">
<title>inv_response</title>
<polygon fill="#1e3a8a" stroke="#1e3a8a" stroke-width="2" points="989.2,-648.48 882.55,-648.48 882.55,-612.48 989.2,-612.48 989.2,-648.48"/>
<text xml:space="preserve" text-anchor="middle" x="935.88" y="-632.03" font-family="Helvetica,Arial,sans-serif" font-size="11.00" fill="#f8fafc">JSON product data</text>
<text xml:space="preserve" text-anchor="middle" x="935.88" y="-620.03" font-family="Helvetica,Arial,sans-serif" font-size="11.00" fill="#f8fafc">back to browser</text>
</g>
<!-- cart_browser -->
<g id="node21" class="node">
<title>cart_browser</title>
<polygon fill="#1e3a8a" stroke="#1e3a8a" stroke-width="2" points="296.7,-491.1 223.05,-491.1 223.05,-455.1 296.7,-455.1 296.7,-491.1"/>
<text xml:space="preserve" text-anchor="middle" x="259.88" y="-474.65" font-family="Helvetica,Arial,sans-serif" font-size="11.00" fill="#f8fafc">Cart change</text>
<text xml:space="preserve" text-anchor="middle" x="259.88" y="-462.65" font-family="Helvetica,Arial,sans-serif" font-size="11.00" fill="#f8fafc">browser</text>
</g>
<!-- cart_cf -->
<g id="node22" class="node">
<title>cart_cf</title>
<polygon fill="#164e63" stroke="#38bdf8" stroke-width="2" points="535.08,-491.1 466.68,-491.1 466.68,-455.1 535.08,-455.1 535.08,-491.1"/>
<text xml:space="preserve" text-anchor="middle" x="500.88" y="-474.65" font-family="Helvetica,Arial,sans-serif" font-size="11.00" fill="#f8fafc">CloudFront</text>
<text xml:space="preserve" text-anchor="middle" x="500.88" y="-462.65" font-family="Helvetica,Arial,sans-serif" font-size="11.00" fill="#f8fafc">/api/* route</text>
</g>
<!-- cart_api -->
<g id="node23" class="node">
<title>cart_api</title>
<polygon fill="#14532d" stroke="#22c55e" stroke-width="2" points="652.7,-491.1 579.05,-491.1 579.05,-455.1 652.7,-455.1 652.7,-491.1"/>
<text xml:space="preserve" text-anchor="middle" x="615.88" y="-474.65" font-family="Helvetica,Arial,sans-serif" font-size="11.00" fill="#f8fafc">ALB /</text>
<text xml:space="preserve" text-anchor="middle" x="615.88" y="-462.65" font-family="Helvetica,Arial,sans-serif" font-size="11.00" fill="#f8fafc">JWT + trace</text>
</g>
<!-- cart_service -->
<g id="node24" class="node">
<title>cart_service</title>
<polygon fill="#14532d" stroke="#22c55e" stroke-width="2" points="765.83,-491.1 695.92,-491.1 695.92,-455.1 765.83,-455.1 765.83,-491.1"/>
<text xml:space="preserve" text-anchor="middle" x="730.88" y="-474.65" font-family="Helvetica,Arial,sans-serif" font-size="11.00" fill="#f8fafc">cart&#45;service</text>
<text xml:space="preserve" text-anchor="middle" x="730.88" y="-462.65" font-family="Helvetica,Arial,sans-serif" font-size="11.00" fill="#f8fafc">update cart</text>
</g>
<!-- cart_db -->
<g id="node25" class="node">
<title>cart_db</title>
<path fill="#166534" stroke="#16a34a" stroke-width="2" d="M885.2,-491.46C885.2,-493.71 869.37,-495.54 849.88,-495.54 830.38,-495.54 814.55,-493.71 814.55,-491.46 814.55,-491.46 814.55,-454.74 814.55,-454.74 814.55,-452.49 830.38,-450.66 849.88,-450.66 869.37,-450.66 885.2,-452.49 885.2,-454.74 885.2,-454.74 885.2,-491.46 885.2,-491.46"/>
<path fill="none" stroke="#16a34a" stroke-width="2" d="M885.2,-491.46C885.2,-489.21 869.37,-487.38 849.88,-487.38 830.38,-487.38 814.55,-489.21 814.55,-491.46"/>
<text xml:space="preserve" text-anchor="middle" x="849.88" y="-474.65" font-family="Helvetica,Arial,sans-serif" font-size="11.00" fill="#f8fafc">DynamoDB</text>
<text xml:space="preserve" text-anchor="middle" x="849.88" y="-462.65" font-family="Helvetica,Arial,sans-serif" font-size="11.00" fill="#f8fafc">cart state</text>
</g>
<!-- cart_response -->
<g id="node26" class="node">
<title>cart_response</title>
<polygon fill="#1e3a8a" stroke="#1e3a8a" stroke-width="2" points="1019.33,-491.1 928.42,-491.1 928.42,-455.1 1019.33,-455.1 1019.33,-491.1"/>
<text xml:space="preserve" text-anchor="middle" x="973.88" y="-474.65" font-family="Helvetica,Arial,sans-serif" font-size="11.00" fill="#f8fafc">Updated cart</text>
<text xml:space="preserve" text-anchor="middle" x="973.88" y="-462.65" font-family="Helvetica,Arial,sans-serif" font-size="11.00" fill="#f8fafc">back to browser</text>
</g>
<!-- cart_local -->
<g id="node27" class="node">
<title>cart_local</title>
<polygon fill="#0f172a" stroke="#64748b" stroke-width="2" points="444.32,-491.1 353.43,-491.1 353.43,-455.1 444.32,-455.1 444.32,-491.1"/>
<text xml:space="preserve" text-anchor="middle" x="398.88" y="-474.65" font-family="Helvetica,Arial,sans-serif" font-size="11.00" fill="#f8fafc">localStorage</text>
<text xml:space="preserve" text-anchor="middle" x="398.88" y="-462.65" font-family="Helvetica,Arial,sans-serif" font-size="11.00" fill="#f8fafc">anonymous cart</text>
</g>
<!-- acct_browser -->
<g id="node28" class="node">
<title>acct_browser</title>
<polygon fill="#1e3a8a" stroke="#1e3a8a" stroke-width="2" points="348.07,-352.22 171.68,-352.22 171.68,-316.22 348.07,-316.22 348.07,-352.22"/>
<text xml:space="preserve" text-anchor="middle" x="259.88" y="-335.77" font-family="Helvetica,Arial,sans-serif" font-size="11.00" fill="#f8fafc">PUT</text>
<text xml:space="preserve" text-anchor="middle" x="259.88" y="-323.77" font-family="Helvetica,Arial,sans-serif" font-size="11.00" fill="#f8fafc">/api/account/accounts/{shopperId}</text>
</g>
<!-- acct_cf -->
<g id="node29" class="node">
<title>acct_cf</title>
<polygon fill="#164e63" stroke="#38bdf8" stroke-width="2" points="486.07,-352.22 417.68,-352.22 417.68,-316.22 486.07,-316.22 486.07,-352.22"/>
<text xml:space="preserve" text-anchor="middle" x="451.88" y="-335.77" font-family="Helvetica,Arial,sans-serif" font-size="11.00" fill="#f8fafc">CloudFront</text>
<text xml:space="preserve" text-anchor="middle" x="451.88" y="-323.77" font-family="Helvetica,Arial,sans-serif" font-size="11.00" fill="#f8fafc">/api/* route</text>
</g>
<!-- acct_api -->
<g id="node30" class="node">
<title>acct_api</title>
<polygon fill="#14532d" stroke="#22c55e" stroke-width="2" points="603.7,-352.22 530.05,-352.22 530.05,-316.22 603.7,-316.22 603.7,-352.22"/>
<text xml:space="preserve" text-anchor="middle" x="566.88" y="-335.77" font-family="Helvetica,Arial,sans-serif" font-size="11.00" fill="#f8fafc">ALB /</text>
<text xml:space="preserve" text-anchor="middle" x="566.88" y="-323.77" font-family="Helvetica,Arial,sans-serif" font-size="11.00" fill="#f8fafc">JWT + trace</text>
</g>
<!-- acct_service -->
<g id="node31" class="node">
<title>acct_service</title>
<polygon fill="#14532d" stroke="#22c55e" stroke-width="2" points="736.58,-352.22 647.17,-352.22 647.17,-316.22 736.58,-316.22 736.58,-352.22"/>
<text xml:space="preserve" text-anchor="middle" x="691.88" y="-335.77" font-family="Helvetica,Arial,sans-serif" font-size="11.00" fill="#f8fafc">account&#45;service</text>
<text xml:space="preserve" text-anchor="middle" x="691.88" y="-323.77" font-family="Helvetica,Arial,sans-serif" font-size="11.00" fill="#f8fafc">profile + wallet</text>
</g>
<!-- acct_db -->
<g id="node32" class="node">
<title>acct_db</title>
<path fill="#166534" stroke="#16a34a" stroke-width="2" d="M862.95,-352.58C862.95,-354.83 845.44,-356.66 823.88,-356.66 802.31,-356.66 784.8,-354.83 784.8,-352.58 784.8,-352.58 784.8,-315.86 784.8,-315.86 784.8,-313.61 802.31,-311.78 823.88,-311.78 845.44,-311.78 862.95,-313.61 862.95,-315.86 862.95,-315.86 862.95,-352.58 862.95,-352.58"/>
<path fill="none" stroke="#16a34a" stroke-width="2" d="M862.95,-352.58C862.95,-350.33 845.44,-348.5 823.88,-348.5 802.31,-348.5 784.8,-350.33 784.8,-352.58"/>
<text xml:space="preserve" text-anchor="middle" x="823.88" y="-335.77" font-family="Helvetica,Arial,sans-serif" font-size="11.00" fill="#f8fafc">DynamoDB</text>
<text xml:space="preserve" text-anchor="middle" x="823.88" y="-323.77" font-family="Helvetica,Arial,sans-serif" font-size="11.00" fill="#f8fafc">account state</text>
</g>
<!-- acct_response -->
<g id="node33" class="node">
<title>acct_response</title>
<polygon fill="#1e3a8a" stroke="#1e3a8a" stroke-width="2" points="997.33,-352.22 906.42,-352.22 906.42,-316.22 997.33,-316.22 997.33,-352.22"/>
<text xml:space="preserve" text-anchor="middle" x="951.88" y="-335.77" font-family="Helvetica,Arial,sans-serif" font-size="11.00" fill="#f8fafc">Saved account</text>
<text xml:space="preserve" text-anchor="middle" x="951.88" y="-323.77" font-family="Helvetica,Arial,sans-serif" font-size="11.00" fill="#f8fafc">back to browser</text>
</g>
<!-- telemetry_services -->
<g id="node34" class="node">
<title>telemetry_services</title>
<polygon fill="#14532d" stroke="#22c55e" stroke-width="2" points="306.82,-213.46 212.93,-213.46 212.93,-177.46 306.82,-177.46 306.82,-213.46"/>
<text xml:space="preserve" text-anchor="middle" x="259.88" y="-197.01" font-family="Helvetica,Arial,sans-serif" font-size="11.00" fill="#f8fafc">inventory / cart /</text>
<text xml:space="preserve" text-anchor="middle" x="259.88" y="-185.01" font-family="Helvetica,Arial,sans-serif" font-size="11.00" fill="#f8fafc">account services</text>
</g>
<!-- telemetry_alloy -->
<g id="node35" class="node">
<title>telemetry_alloy</title>
<polygon fill="#6b21a8" stroke="#c084fc" stroke-width="2" points="515.7,-213.46 406.05,-213.46 406.05,-177.46 515.7,-177.46 515.7,-213.46"/>
<text xml:space="preserve" text-anchor="middle" x="460.88" y="-197.01" font-family="Helvetica,Arial,sans-serif" font-size="11.00" fill="#f8fafc">Grafana Alloy</text>
<text xml:space="preserve" text-anchor="middle" x="460.88" y="-185.01" font-family="Helvetica,Arial,sans-serif" font-size="11.00" fill="#f8fafc">metrics, logs, traces</text>
</g>
<!-- telemetry_grafana -->
<g id="node36" class="node">
<title>telemetry_grafana</title>
<polygon fill="#6b21a8" stroke="#c084fc" stroke-width="2" points="670.2,-217.78 563.55,-217.78 563.55,-173.14 670.2,-173.14 670.2,-217.78"/>
<text xml:space="preserve" text-anchor="middle" x="616.88" y="-203.01" font-family="Helvetica,Arial,sans-serif" font-size="11.00" fill="#f8fafc">Grafana Cloud</text>
<text xml:space="preserve" text-anchor="middle" x="616.88" y="-191.01" font-family="Helvetica,Arial,sans-serif" font-size="11.00" fill="#f8fafc">Mimir, Loki, Tempo,</text>
<text xml:space="preserve" text-anchor="middle" x="616.88" y="-179.01" font-family="Helvetica,Arial,sans-serif" font-size="11.00" fill="#f8fafc">Pyroscope</text>
</g>
<!-- k6_runner -->
<g id="node37" class="node">
<title>k6_runner</title>
<polygon fill="#713f12" stroke="#f59e0b" stroke-width="2" points="321.07,-60.64 198.68,-60.64 198.68,-16 321.07,-16 321.07,-60.64"/>
<text xml:space="preserve" text-anchor="middle" x="259.88" y="-45.87" font-family="Helvetica,Arial,sans-serif" font-size="11.00" fill="#f8fafc">Grafana Cloud k6</text>
<text xml:space="preserve" text-anchor="middle" x="259.88" y="-33.87" font-family="Helvetica,Arial,sans-serif" font-size="11.00" fill="#f8fafc">regional + spike</text>
<text xml:space="preserve" text-anchor="middle" x="259.88" y="-21.87" font-family="Helvetica,Arial,sans-serif" font-size="11.00" fill="#f8fafc">120 rps API + browser</text>
</g>
<!-- k6_cf -->
<g id="node38" class="node">
<title>k6_cf</title>
<polygon fill="#164e63" stroke="#38bdf8" stroke-width="2" points="602.7,-56.32 505.05,-56.32 505.05,-20.32 602.7,-20.32 602.7,-56.32"/>
<text xml:space="preserve" text-anchor="middle" x="553.88" y="-39.87" font-family="Helvetica,Arial,sans-serif" font-size="11.00" fill="#f8fafc">CloudFront</text>
<text xml:space="preserve" text-anchor="middle" x="553.88" y="-27.87" font-family="Helvetica,Arial,sans-serif" font-size="11.00" fill="#f8fafc">/api/* + storefront</text>
</g>
<!-- k6_api -->
<g id="node39" class="node">
<title>k6_api</title>
<polygon fill="#14532d" stroke="#22c55e" stroke-width="2" points="715.45,-56.32 646.3,-56.32 646.3,-20.32 715.45,-20.32 715.45,-56.32"/>
<text xml:space="preserve" text-anchor="middle" x="680.88" y="-39.87" font-family="Helvetica,Arial,sans-serif" font-size="11.00" fill="#f8fafc">ALB / API</text>
<text xml:space="preserve" text-anchor="middle" x="680.88" y="-27.87" font-family="Helvetica,Arial,sans-serif" font-size="11.00" fill="#f8fafc">traceparent</text>
</g>
<!-- k6_services -->
<g id="node40" class="node">
<title>k6_services</title>
<polygon fill="#14532d" stroke="#22c55e" stroke-width="2" points="852.83,-56.32 758.92,-56.32 758.92,-20.32 852.83,-20.32 852.83,-56.32"/>
<text xml:space="preserve" text-anchor="middle" x="805.88" y="-39.87" font-family="Helvetica,Arial,sans-serif" font-size="11.00" fill="#f8fafc">inventory / cart /</text>
<text xml:space="preserve" text-anchor="middle" x="805.88" y="-27.87" font-family="Helvetica,Arial,sans-serif" font-size="11.00" fill="#f8fafc">account services</text>
</g>
<!-- k6_grafana -->
<g id="node41" class="node">
<title>k6_grafana</title>
<polygon fill="#6b21a8" stroke="#c084fc" stroke-width="2" points="482.57,-56.32 369.18,-56.32 369.18,-20.32 482.57,-20.32 482.57,-56.32"/>
<text xml:space="preserve" text-anchor="middle" x="425.88" y="-39.87" font-family="Helvetica,Arial,sans-serif" font-size="11.00" fill="#f8fafc">Grafana Cloud</text>
<text xml:space="preserve" text-anchor="middle" x="425.88" y="-27.87" font-family="Helvetica,Arial,sans-serif" font-size="11.00" fill="#f8fafc">run metrics + checks</text>
</g>
</g>
</svg>
