<?xml version="1.0" encoding="UTF-8" standalone="no"?>
<!DOCTYPE svg PUBLIC "-//W3C//DTD SVG 1.1//EN"
 "http://www.w3.org/Graphics/SVG/1.1/DTD/svg11.dtd">
<!-- Generated by graphviz version 15.0.0 (20260523.1842)
 -->
<!-- Title: sequence_diagram Pages: 1 -->
<svg width="521pt" height="1780pt"
 viewBox="0.00 0.00 521.00 1780.00" xmlns="http://www.w3.org/2000/svg" xmlns:xlink="http://www.w3.org/1999/xlink">
<g id="graph0" class="graph" transform="scale(1 1) rotate(0) translate(18 1762)">
<title>sequence_diagram</title>
<polygon fill="white" stroke="none" points="-18,18 -18,-1762 502.89,-1762 502.89,18 -18,18"/>
<text xml:space="preserve" text-anchor="middle" x="242.44" y="-1721" font-family="Helvetica,sans-Serif" font-size="20.00">Frontend&#45;to&#45;Backend Sequence</text>
<g id="clust1" class="cluster">
<title>cluster_participants</title>
<path fill="white" stroke="#cbd5e1" stroke-dasharray="5,2" d="M330.89,-1196C330.89,-1196 464.89,-1196 464.89,-1196 470.89,-1196 476.89,-1202 476.89,-1208 476.89,-1208 476.89,-1695 476.89,-1695 476.89,-1701 470.89,-1707 464.89,-1707 464.89,-1707 330.89,-1707 330.89,-1707 324.89,-1707 318.89,-1701 318.89,-1695 318.89,-1695 318.89,-1208 318.89,-1208 318.89,-1202 324.89,-1196 330.89,-1196"/>
<text xml:space="preserve" text-anchor="middle" x="397.89" y="-1684" font-family="Helvetica,sans-Serif" font-size="20.00">Key participants</text>
</g>
<!-- start -->
<g id="node1" class="node">
<title>start</title>
<path fill="#dbeafe" stroke="#334155" d="M265.15,-1670C265.15,-1670 62.62,-1670 62.62,-1670 56.62,-1670 50.62,-1664 50.62,-1658 50.62,-1658 50.62,-1646 50.62,-1646 50.62,-1640 56.62,-1634 62.62,-1634 62.62,-1634 265.15,-1634 265.15,-1634 271.15,-1634 277.15,-1640 277.15,-1646 277.15,-1646 277.15,-1658 277.15,-1658 277.15,-1664 271.15,-1670 265.15,-1670"/>
<text xml:space="preserve" text-anchor="middle" x="163.89" y="-1648.12" font-family="Helvetica,sans-Serif" font-size="10.00">1. Shopper opens https://ensemble&#45;grafana.com</text>
</g>
<!-- dns -->
<g id="node2" class="node">
<title>dns</title>
<path fill="#e0f2fe" stroke="#334155" d="M266.65,-1584C266.65,-1584 61.13,-1584 61.13,-1584 55.12,-1584 49.12,-1578 49.12,-1572 49.12,-1572 49.12,-1560 49.12,-1560 49.12,-1554 55.12,-1548 61.12,-1548 61.12,-1548 266.65,-1548 266.65,-1548 272.65,-1548 278.65,-1554 278.65,-1560 278.65,-1560 278.65,-1572 278.65,-1572 278.65,-1578 272.65,-1584 266.65,-1584"/>
<text xml:space="preserve" text-anchor="middle" x="163.89" y="-1562.12" font-family="Helvetica,sans-Serif" font-size="10.00">2. Browser resolves Route53 alias to CloudFront</text>
</g>
<!-- start&#45;&gt;dns -->
<g id="edge1" class="edge">
<title>start&#45;&gt;dns</title>
<path fill="none" stroke="#475569" d="M163.89,-1633.6C163.89,-1621.77 163.89,-1605.93 163.89,-1592.66"/>
<polygon fill="#475569" stroke="#475569" points="166.34,-1592.9 163.89,-1585.9 161.44,-1592.9 166.34,-1592.9"/>
</g>
<!-- static -->
<g id="node3" class="node">
<title>static</title>
<path fill="#fef3c7" stroke="#334155" d="M272.28,-1498C272.28,-1498 55.5,-1498 55.5,-1498 49.5,-1498 43.5,-1492 43.5,-1486 43.5,-1486 43.5,-1474 43.5,-1474 43.5,-1468 49.5,-1462 55.5,-1462 55.5,-1462 272.28,-1462 272.28,-1462 278.28,-1462 284.28,-1468 284.28,-1474 284.28,-1474 284.28,-1486 284.28,-1486 284.28,-1492 278.28,-1498 272.28,-1498"/>
<text xml:space="preserve" text-anchor="middle" x="163.89" y="-1476.12" font-family="Helvetica,sans-Serif" font-size="10.00">3. CloudFront + edge WAF fetch storefront from S3</text>
</g>
<!-- dns&#45;&gt;static -->
<g id="edge2" class="edge">
<title>dns&#45;&gt;static</title>
<path fill="none" stroke="#475569" d="M163.89,-1547.6C163.89,-1535.77 163.89,-1519.93 163.89,-1506.66"/>
<polygon fill="#475569" stroke="#475569" points="166.34,-1506.9 163.89,-1499.9 161.44,-1506.9 166.34,-1506.9"/>
</g>
<!-- faro -->
<g id="node4" class="node">
<title>faro</title>
<path fill="#f3e8ff" stroke="#334155" d="M288.78,-1412C288.78,-1412 39,-1412 39,-1412 33,-1412 27,-1406 27,-1400 27,-1400 27,-1388 27,-1388 27,-1382 33,-1376 39,-1376 39,-1376 288.78,-1376 288.78,-1376 294.78,-1376 300.78,-1382 300.78,-1388 300.78,-1388 300.78,-1400 300.78,-1400 300.78,-1406 294.78,-1412 288.78,-1412"/>
<text xml:space="preserve" text-anchor="middle" x="163.89" y="-1390.12" font-family="Helvetica,sans-Serif" font-size="10.00">4. Browser sends Faro page load, vitals, session telemetry</text>
</g>
<!-- static&#45;&gt;faro -->
<g id="edge3" class="edge">
<title>static&#45;&gt;faro</title>
<path fill="none" stroke="#475569" d="M163.89,-1461.6C163.89,-1449.77 163.89,-1433.93 163.89,-1420.66"/>
<polygon fill="#475569" stroke="#475569" points="166.34,-1420.9 163.89,-1413.9 161.44,-1420.9 166.34,-1420.9"/>
</g>
<!-- signin -->
<g id="node5" class="node">
<title>signin</title>
<path fill="#ede9fe" stroke="#334155" d="M230.65,-1326C230.65,-1326 97.12,-1326 97.12,-1326 91.12,-1326 85.12,-1320 85.12,-1314 85.12,-1314 85.12,-1302 85.12,-1302 85.12,-1296 91.12,-1290 97.12,-1290 97.12,-1290 230.65,-1290 230.65,-1290 236.65,-1290 242.65,-1296 242.65,-1302 242.65,-1302 242.65,-1314 242.65,-1314 242.65,-1320 236.65,-1326 230.65,-1326"/>
<text xml:space="preserve" text-anchor="middle" x="163.89" y="-1304.12" font-family="Helvetica,sans-Serif" font-size="10.00">5. Shopper starts Google sign&#45;in</text>
</g>
<!-- faro&#45;&gt;signin -->
<g id="edge4" class="edge">
<title>faro&#45;&gt;signin</title>
<path fill="none" stroke="#475569" d="M163.89,-1375.6C163.89,-1363.77 163.89,-1347.93 163.89,-1334.66"/>
<polygon fill="#475569" stroke="#475569" points="166.34,-1334.9 163.89,-1327.9 161.44,-1334.9 166.34,-1334.9"/>
</g>
<!-- oauth -->
<g id="node6" class="node">
<title>oauth</title>
<path fill="#ede9fe" stroke="#334155" d="M298.15,-1240C298.15,-1240 29.63,-1240 29.63,-1240 23.62,-1240 17.62,-1234 17.62,-1228 17.62,-1228 17.62,-1216 17.62,-1216 17.62,-1210 23.62,-1204 29.62,-1204 29.62,-1204 298.15,-1204 298.15,-1204 304.15,-1204 310.15,-1210 310.15,-1216 310.15,-1216 310.15,-1228 310.15,-1228 310.15,-1234 304.15,-1240 298.15,-1240"/>
<text xml:space="preserve" text-anchor="middle" x="163.89" y="-1218.12" font-family="Helvetica,sans-Serif" font-size="10.00">6. Cognito redirects to Google and exchanges code with PKCE</text>
</g>
<!-- signin&#45;&gt;oauth -->
<g id="edge5" class="edge">
<title>signin&#45;&gt;oauth</title>
<path fill="none" stroke="#475569" d="M163.89,-1289.6C163.89,-1277.77 163.89,-1261.93 163.89,-1248.66"/>
<polygon fill="#475569" stroke="#475569" points="166.34,-1248.9 163.89,-1241.9 161.44,-1248.9 166.34,-1248.9"/>
</g>
<!-- accountPopulate -->
<g id="node7" class="node">
<title>accountPopulate</title>
<path fill="#dbeafe" stroke="#334155" d="M315.78,-1154C315.78,-1154 12,-1154 12,-1154 6,-1154 0,-1148 0,-1142 0,-1142 0,-1130 0,-1130 0,-1124 6,-1118 12,-1118 12,-1118 315.78,-1118 315.78,-1118 321.78,-1118 327.78,-1124 327.78,-1130 327.78,-1130 327.78,-1142 327.78,-1142 327.78,-1148 321.78,-1154 315.78,-1154"/>
<text xml:space="preserve" text-anchor="middle" x="163.89" y="-1132.12" font-family="Helvetica,sans-Serif" font-size="10.00">7. Browser receives Cognito tokens and populates account name/email</text>
</g>
<!-- oauth&#45;&gt;accountPopulate -->
<g id="edge6" class="edge">
<title>oauth&#45;&gt;accountPopulate</title>
<path fill="none" stroke="#475569" d="M163.89,-1203.6C163.89,-1191.77 163.89,-1175.93 163.89,-1162.66"/>
<polygon fill="#475569" stroke="#475569" points="166.34,-1162.9 163.89,-1155.9 161.44,-1162.9 166.34,-1162.9"/>
</g>
<!-- products -->
<g id="node8" class="node">
<title>products</title>
<path fill="#dbeafe" stroke="#334155" d="M289.9,-1068C289.9,-1068 37.87,-1068 37.87,-1068 31.87,-1068 25.88,-1062 25.88,-1056 25.88,-1056 25.88,-1044 25.88,-1044 25.88,-1038 31.88,-1032 37.88,-1032 37.88,-1032 289.9,-1032 289.9,-1032 295.9,-1032 301.9,-1038 301.9,-1044 301.9,-1044 301.9,-1056 301.9,-1056 301.9,-1062 295.9,-1068 289.9,-1068"/>
<text xml:space="preserve" text-anchor="middle" x="163.89" y="-1046.12" font-family="Helvetica,sans-Serif" font-size="10.00">8. Browser GET /api/inventory/products through CloudFront</text>
</g>
<!-- accountPopulate&#45;&gt;products -->
<g id="edge7" class="edge">
<title>accountPopulate&#45;&gt;products</title>
<path fill="none" stroke="#475569" d="M163.89,-1117.6C163.89,-1105.77 163.89,-1089.93 163.89,-1076.66"/>
<polygon fill="#475569" stroke="#475569" points="166.34,-1076.9 163.89,-1069.9 161.44,-1076.9 166.34,-1076.9"/>
</g>
<!-- inventory -->
<g id="node9" class="node">
<title>inventory</title>
<path fill="#dcfce7" stroke="#334155" d="M280.15,-982C280.15,-982 47.63,-982 47.63,-982 41.62,-982 35.62,-976 35.62,-970 35.62,-970 35.62,-958 35.62,-958 35.62,-952 41.62,-946 47.62,-946 47.62,-946 280.15,-946 280.15,-946 286.15,-946 292.15,-952 292.15,-958 292.15,-958 292.15,-970 292.15,-970 292.15,-976 286.15,-982 280.15,-982"/>
<text xml:space="preserve" text-anchor="middle" x="163.89" y="-960.12" font-family="Helvetica,sans-Serif" font-size="10.00">9. ALB forwards to inventory&#45;service with trace context</text>
</g>
<!-- products&#45;&gt;inventory -->
<g id="edge8" class="edge">
<title>products&#45;&gt;inventory</title>
<path fill="none" stroke="#475569" d="M163.89,-1031.6C163.89,-1019.77 163.89,-1003.93 163.89,-990.66"/>
<polygon fill="#475569" stroke="#475569" points="166.34,-990.9 163.89,-983.9 161.44,-990.9 166.34,-990.9"/>
</g>
<!-- postgres -->
<g id="node10" class="node">
<title>postgres</title>
<path fill="#bbf7d0" stroke="#334155" d="M273.4,-892.73C273.4,-894.53 224.32,-896 163.89,-896 103.46,-896 54.37,-894.53 54.37,-892.73 54.37,-892.73 54.37,-863.27 54.37,-863.27 54.37,-861.47 103.46,-860 163.89,-860 224.32,-860 273.4,-861.47 273.4,-863.27 273.4,-863.27 273.4,-892.73 273.4,-892.73"/>
<path fill="none" stroke="#334155" d="M273.4,-892.73C273.4,-890.92 224.32,-889.45 163.89,-889.45 103.46,-889.45 54.37,-890.92 54.37,-892.73"/>
<text xml:space="preserve" text-anchor="middle" x="163.89" y="-874.12" font-family="Helvetica,sans-Serif" font-size="10.00">10. inventory&#45;service queries Postgres catalog</text>
</g>
<!-- inventory&#45;&gt;postgres -->
<g id="edge9" class="edge">
<title>inventory&#45;&gt;postgres</title>
<path fill="none" stroke="#475569" d="M163.89,-945.6C163.89,-933.77 163.89,-917.93 163.89,-904.66"/>
<polygon fill="#475569" stroke="#475569" points="166.34,-904.9 163.89,-897.9 161.44,-904.9 166.34,-904.9"/>
</g>
<!-- cartAdd -->
<g id="node11" class="node">
<title>cartAdd</title>
<path fill="#dbeafe" stroke="#334155" d="M280.15,-810C280.15,-810 47.63,-810 47.63,-810 41.62,-810 35.62,-804 35.62,-798 35.62,-798 35.62,-786 35.62,-786 35.62,-780 41.62,-774 47.62,-774 47.62,-774 280.15,-774 280.15,-774 286.15,-774 292.15,-780 292.15,-786 292.15,-786 292.15,-798 292.15,-798 292.15,-804 286.15,-810 280.15,-810"/>
<text xml:space="preserve" text-anchor="middle" x="163.89" y="-788.12" font-family="Helvetica,sans-Serif" font-size="10.00">11. Shopper adds item: PUT /api/cart/carts/{shopperId}</text>
</g>
<!-- postgres&#45;&gt;cartAdd -->
<g id="edge10" class="edge">
<title>postgres&#45;&gt;cartAdd</title>
<path fill="none" stroke="#475569" d="M163.89,-859.6C163.89,-847.77 163.89,-831.93 163.89,-818.66"/>
<polygon fill="#475569" stroke="#475569" points="166.34,-818.9 163.89,-811.9 161.44,-818.9 166.34,-818.9"/>
</g>
<!-- cart -->
<g id="node12" class="node">
<title>cart</title>
<path fill="#dcfce7" stroke="#334155" d="M267.78,-724C267.78,-724 60,-724 60,-724 54,-724 48,-718 48,-712 48,-712 48,-700 48,-700 48,-694 54,-688 60,-688 60,-688 267.78,-688 267.78,-688 273.78,-688 279.78,-694 279.78,-700 279.78,-700 279.78,-712 279.78,-712 279.78,-718 273.78,-724 267.78,-724"/>
<text xml:space="preserve" text-anchor="middle" x="163.89" y="-702.12" font-family="Helvetica,sans-Serif" font-size="10.00">12. cart&#45;service persists cart state to DynamoDB</text>
</g>
<!-- cartAdd&#45;&gt;cart -->
<g id="edge11" class="edge">
<title>cartAdd&#45;&gt;cart</title>
<path fill="none" stroke="#475569" d="M163.89,-773.6C163.89,-761.77 163.89,-745.93 163.89,-732.66"/>
<polygon fill="#475569" stroke="#475569" points="166.34,-732.9 163.89,-725.9 161.44,-732.9 166.34,-732.9"/>
</g>
<!-- dynamoCart -->
<g id="node13" class="node">
<title>dynamoCart</title>
<path fill="#bbf7d0" stroke="#334155" d="M260.65,-634.73C260.65,-636.53 217.28,-638 163.89,-638 110.5,-638 67.12,-636.53 67.12,-634.73 67.12,-634.73 67.12,-605.27 67.12,-605.27 67.12,-603.47 110.5,-602 163.89,-602 217.28,-602 260.65,-603.47 260.65,-605.27 260.65,-605.27 260.65,-634.73 260.65,-634.73"/>
<path fill="none" stroke="#334155" d="M260.65,-634.73C260.65,-632.92 217.28,-631.45 163.89,-631.45 110.5,-631.45 67.12,-632.92 67.12,-634.73"/>
<text xml:space="preserve" text-anchor="middle" x="163.89" y="-616.12" font-family="Helvetica,sans-Serif" font-size="10.00">13. DynamoDB acknowledges cart write</text>
</g>
<!-- cart&#45;&gt;dynamoCart -->
<g id="edge12" class="edge">
<title>cart&#45;&gt;dynamoCart</title>
<path fill="none" stroke="#475569" d="M163.89,-687.6C163.89,-675.77 163.89,-659.93 163.89,-646.66"/>
<polygon fill="#475569" stroke="#475569" points="166.34,-646.9 163.89,-639.9 161.44,-646.9 166.34,-646.9"/>
</g>
<!-- accountSave -->
<g id="node14" class="node">
<title>accountSave</title>
<path fill="#dbeafe" stroke="#334155" d="M285.03,-552C285.03,-552 42.75,-552 42.75,-552 36.75,-552 30.75,-546 30.75,-540 30.75,-540 30.75,-528 30.75,-528 30.75,-522 36.75,-516 42.75,-516 42.75,-516 285.03,-516 285.03,-516 291.03,-516 297.03,-522 297.03,-528 297.03,-528 297.03,-540 297.03,-540 297.03,-546 291.03,-552 285.03,-552"/>
<text xml:space="preserve" text-anchor="middle" x="163.89" y="-530.12" font-family="Helvetica,sans-Serif" font-size="10.00">14. Shopper saves shipping address and wallet metadata</text>
</g>
<!-- dynamoCart&#45;&gt;accountSave -->
<g id="edge13" class="edge">
<title>dynamoCart&#45;&gt;accountSave</title>
<path fill="none" stroke="#475569" d="M163.89,-601.6C163.89,-589.77 163.89,-573.93 163.89,-560.66"/>
<polygon fill="#475569" stroke="#475569" points="166.34,-560.9 163.89,-553.9 161.44,-560.9 166.34,-560.9"/>
</g>
<!-- account -->
<g id="node15" class="node">
<title>account</title>
<path fill="#dcfce7" stroke="#334155" d="M294.4,-466C294.4,-466 33.38,-466 33.38,-466 27.38,-466 21.38,-460 21.38,-454 21.38,-454 21.38,-442 21.38,-442 21.38,-436 27.38,-430 33.38,-430 33.38,-430 294.4,-430 294.4,-430 300.4,-430 306.4,-436 306.4,-442 306.4,-442 306.4,-454 306.4,-454 306.4,-460 300.4,-466 294.4,-466"/>
<text xml:space="preserve" text-anchor="middle" x="163.89" y="-444.12" font-family="Helvetica,sans-Serif" font-size="10.00">15. account&#45;service persists profile, address, wallet metadata</text>
</g>
<!-- accountSave&#45;&gt;account -->
<g id="edge14" class="edge">
<title>accountSave&#45;&gt;account</title>
<path fill="none" stroke="#475569" d="M163.89,-515.6C163.89,-503.77 163.89,-487.93 163.89,-474.66"/>
<polygon fill="#475569" stroke="#475569" points="166.34,-474.9 163.89,-467.9 161.44,-474.9 166.34,-474.9"/>
</g>
<!-- dynamoAccount -->
<g id="node16" class="node">
<title>dynamoAccount</title>
<path fill="#bbf7d0" stroke="#334155" d="M269.65,-376.73C269.65,-378.53 222.25,-380 163.89,-380 105.53,-380 58.12,-378.53 58.12,-376.73 58.12,-376.73 58.12,-347.27 58.12,-347.27 58.12,-345.47 105.53,-344 163.89,-344 222.25,-344 269.65,-345.47 269.65,-347.27 269.65,-347.27 269.65,-376.73 269.65,-376.73"/>
<path fill="none" stroke="#334155" d="M269.65,-376.73C269.65,-374.92 222.25,-373.45 163.89,-373.45 105.53,-373.45 58.12,-374.92 58.12,-376.73"/>
<text xml:space="preserve" text-anchor="middle" x="163.89" y="-358.12" font-family="Helvetica,sans-Serif" font-size="10.00">16. DynamoDB acknowledges account write</text>
</g>
<!-- account&#45;&gt;dynamoAccount -->
<g id="edge15" class="edge">
<title>account&#45;&gt;dynamoAccount</title>
<path fill="none" stroke="#475569" d="M163.89,-429.6C163.89,-417.77 163.89,-401.93 163.89,-388.66"/>
<polygon fill="#475569" stroke="#475569" points="166.34,-388.9 163.89,-381.9 161.44,-388.9 166.34,-388.9"/>
</g>
<!-- telemetry -->
<g id="node17" class="node">
<title>telemetry</title>
<path fill="#f3e8ff" stroke="#334155" d="M262.53,-294C262.53,-294 65.25,-294 65.25,-294 59.25,-294 53.25,-288 53.25,-282 53.25,-282 53.25,-270 53.25,-270 53.25,-264 59.25,-258 65.25,-258 65.25,-258 262.53,-258 262.53,-258 268.53,-258 274.53,-264 274.53,-270 274.53,-270 274.53,-282 274.53,-282 274.53,-288 268.53,-294 262.53,-294"/>
<text xml:space="preserve" text-anchor="middle" x="163.89" y="-272.12" font-family="Helvetica,sans-Serif" font-size="10.00">17. Services emit metrics, logs, traces to Alloy</text>
</g>
<!-- dynamoAccount&#45;&gt;telemetry -->
<g id="edge16" class="edge">
<title>dynamoAccount&#45;&gt;telemetry</title>
<path fill="none" stroke="#475569" d="M163.89,-343.6C163.89,-331.77 163.89,-315.93 163.89,-302.66"/>
<polygon fill="#475569" stroke="#475569" points="166.34,-302.9 163.89,-295.9 161.44,-302.9 166.34,-302.9"/>
</g>
<!-- grafana -->
<g id="node18" class="node">
<title>grafana</title>
<path fill="#f3e8ff" stroke="#334155" d="M277.9,-208C277.9,-208 49.88,-208 49.88,-208 43.88,-208 37.87,-202 37.87,-196 37.87,-196 37.87,-184 37.87,-184 37.87,-178 43.87,-172 49.87,-172 49.87,-172 277.9,-172 277.9,-172 283.9,-172 289.9,-178 289.9,-184 289.9,-184 289.9,-196 289.9,-196 289.9,-202 283.9,-208 277.9,-208"/>
<text xml:space="preserve" text-anchor="middle" x="163.89" y="-186.12" font-family="Helvetica,sans-Serif" font-size="10.00">18. Alloy and Faro forward telemetry to Grafana Cloud</text>
</g>
<!-- telemetry&#45;&gt;grafana -->
<g id="edge17" class="edge">
<title>telemetry&#45;&gt;grafana</title>
<path fill="none" stroke="#475569" d="M163.89,-257.6C163.89,-245.77 163.89,-229.93 163.89,-216.66"/>
<polygon fill="#475569" stroke="#475569" points="166.34,-216.9 163.89,-209.9 161.44,-216.9 166.34,-216.9"/>
</g>
<!-- k6 -->
<g id="node19" class="node">
<title>k6</title>
<path fill="#f3e8ff" stroke="#334155" d="M288.4,-122C288.4,-122 39.38,-122 39.38,-122 33.37,-122 27.38,-116 27.38,-110 27.38,-110 27.38,-98 27.38,-98 27.38,-92 33.38,-86 39.38,-86 39.38,-86 288.4,-86 288.4,-86 294.4,-86 300.4,-92 300.4,-98 300.4,-98 300.4,-110 300.4,-110 300.4,-116 294.4,-122 288.4,-122"/>
<text xml:space="preserve" text-anchor="middle" x="163.89" y="-100.12" font-family="Helvetica,sans-Serif" font-size="10.00">19. Grafana Cloud k6 runs regional, spike, browser checks</text>
</g>
<!-- grafana&#45;&gt;k6 -->
<g id="edge18" class="edge">
<title>grafana&#45;&gt;k6</title>
<path fill="none" stroke="#475569" d="M163.89,-171.6C163.89,-159.77 163.89,-143.93 163.89,-130.66"/>
<polygon fill="#475569" stroke="#475569" points="166.34,-130.9 163.89,-123.9 161.44,-130.9 166.34,-130.9"/>
</g>
<!-- k6Results -->
<g id="node20" class="node">
<title>k6Results</title>
<path fill="#f3e8ff" stroke="#334155" d="M278.65,-36C278.65,-36 49.13,-36 49.13,-36 43.12,-36 37.12,-30 37.12,-24 37.12,-24 37.12,-12 37.12,-12 37.12,-6 43.12,0 49.12,0 49.12,0 278.65,0 278.65,0 284.65,0 290.65,-6 290.65,-12 290.65,-12 290.65,-24 290.65,-24 290.65,-30 284.65,-36 278.65,-36"/>
<text xml:space="preserve" text-anchor="middle" x="163.89" y="-14.12" font-family="Helvetica,sans-Serif" font-size="10.00">20. k6 publishes run metrics, checks, trace correlation</text>
</g>
<!-- k6&#45;&gt;k6Results -->
<g id="edge19" class="edge">
<title>k6&#45;&gt;k6Results</title>
<path fill="none" stroke="#475569" d="M163.89,-85.6C163.89,-73.77 163.89,-57.93 163.89,-44.66"/>
<polygon fill="#475569" stroke="#475569" points="166.34,-44.9 163.89,-37.9 161.44,-44.9 166.34,-44.9"/>
</g>
<!-- p1 -->
<g id="node21" class="node">
<title>p1</title>
<path fill="#dbeafe" stroke="#334155" d="M430.03,-1670C430.03,-1670 355.75,-1670 355.75,-1670 349.75,-1670 343.75,-1664 343.75,-1658 343.75,-1658 343.75,-1646 343.75,-1646 343.75,-1640 349.75,-1634 355.75,-1634 355.75,-1634 430.03,-1634 430.03,-1634 436.03,-1634 442.03,-1640 442.03,-1646 442.03,-1646 442.03,-1658 442.03,-1658 442.03,-1664 436.03,-1670 430.03,-1670"/>
<text xml:space="preserve" text-anchor="middle" x="392.89" y="-1648.12" font-family="Helvetica,sans-Serif" font-size="10.00">Browser / Shopper</text>
</g>
<!-- p2 -->
<g id="node22" class="node">
<title>p2</title>
<path fill="#fef3c7" stroke="#334155" d="M446.9,-1584C446.9,-1584 338.88,-1584 338.88,-1584 332.88,-1584 326.88,-1578 326.88,-1572 326.88,-1572 326.88,-1560 326.88,-1560 326.88,-1554 332.88,-1548 338.88,-1548 338.88,-1548 446.9,-1548 446.9,-1548 452.9,-1548 458.9,-1554 458.9,-1560 458.9,-1560 458.9,-1572 458.9,-1572 458.9,-1578 452.9,-1584 446.9,-1584"/>
<text xml:space="preserve" text-anchor="middle" x="392.89" y="-1562.12" font-family="Helvetica,sans-Serif" font-size="10.00">Route53 / CloudFront / S3</text>
</g>
<!-- p1&#45;&gt;p2 -->
<!-- p3 -->
<g id="node23" class="node">
<title>p3</title>
<path fill="#ede9fe" stroke="#334155" d="M435.28,-1498C435.28,-1498 350.5,-1498 350.5,-1498 344.5,-1498 338.5,-1492 338.5,-1486 338.5,-1486 338.5,-1474 338.5,-1474 338.5,-1468 344.5,-1462 350.5,-1462 350.5,-1462 435.28,-1462 435.28,-1462 441.28,-1462 447.28,-1468 447.28,-1474 447.28,-1474 447.28,-1486 447.28,-1486 447.28,-1492 441.28,-1498 435.28,-1498"/>
<text xml:space="preserve" text-anchor="middle" x="392.89" y="-1476.12" font-family="Helvetica,sans-Serif" font-size="10.00">Cognito / Google IdP</text>
</g>
<!-- p2&#45;&gt;p3 -->
<!-- p4 -->
<g id="node24" class="node">
<title>p4</title>
<path fill="#dcfce7" stroke="#334155" d="M437.15,-1412C437.15,-1412 348.62,-1412 348.62,-1412 342.62,-1412 336.62,-1406 336.62,-1400 336.62,-1400 336.62,-1388 336.62,-1388 336.62,-1382 342.62,-1376 348.62,-1376 348.62,-1376 437.15,-1376 437.15,-1376 443.15,-1376 449.15,-1382 449.15,-1388 449.15,-1388 449.15,-1400 449.15,-1400 449.15,-1406 443.15,-1412 437.15,-1412"/>
<text xml:space="preserve" text-anchor="middle" x="392.89" y="-1390.12" font-family="Helvetica,sans-Serif" font-size="10.00">ALB / Spring services</text>
</g>
<!-- p3&#45;&gt;p4 -->
<!-- p5 -->
<g id="node25" class="node">
<title>p5</title>
<path fill="#bbf7d0" stroke="#334155" d="M451.03,-1322.73C451.03,-1324.53 424.97,-1326 392.89,-1326 360.81,-1326 334.75,-1324.53 334.75,-1322.73 334.75,-1322.73 334.75,-1293.27 334.75,-1293.27 334.75,-1291.47 360.81,-1290 392.89,-1290 424.97,-1290 451.03,-1291.47 451.03,-1293.27 451.03,-1293.27 451.03,-1322.73 451.03,-1322.73"/>
<path fill="none" stroke="#334155" d="M451.03,-1322.73C451.03,-1320.92 424.97,-1319.45 392.89,-1319.45 360.81,-1319.45 334.75,-1320.92 334.75,-1322.73"/>
<text xml:space="preserve" text-anchor="middle" x="392.89" y="-1304.12" font-family="Helvetica,sans-Serif" font-size="10.00">Postgres / DynamoDB</text>
</g>
<!-- p4&#45;&gt;p5 -->
<!-- p6 -->
<g id="node26" class="node">
<title>p6</title>
<path fill="#f3e8ff" stroke="#334155" d="M431.9,-1240C431.9,-1240 353.88,-1240 353.88,-1240 347.88,-1240 341.88,-1234 341.88,-1228 341.88,-1228 341.88,-1216 341.88,-1216 341.88,-1210 347.88,-1204 353.88,-1204 353.88,-1204 431.9,-1204 431.9,-1204 437.9,-1204 443.9,-1210 443.9,-1216 443.9,-1216 443.9,-1228 443.9,-1228 443.9,-1234 437.9,-1240 431.9,-1240"/>
<text xml:space="preserve" text-anchor="middle" x="392.89" y="-1218.12" font-family="Helvetica,sans-Serif" font-size="10.00">Alloy / Grafana / k6</text>
</g>
<!-- p5&#45;&gt;p6 -->
</g>
</svg>
