<?xml version="1.0" encoding="UTF-8" standalone="no"?>
<!DOCTYPE svg PUBLIC "-//W3C//DTD SVG 1.1//EN"
 "http://www.w3.org/Graphics/SVG/1.1/DTD/svg11.dtd">
<!-- Generated by graphviz version 15.0.0 (20260523.1842)
 -->
<!-- Title: ensemble_evolution_timeline Pages: 1 -->
<svg width="830pt" height="1555pt"
 viewBox="0.00 0.00 830.00 1555.00" xmlns="http://www.w3.org/2000/svg" xmlns:xlink="http://www.w3.org/1999/xlink">
<g id="graph0" class="graph" transform="scale(1 1) rotate(0) translate(25.2 1529.86)">
<title>ensemble_evolution_timeline</title>
<polygon fill="#ffffff" stroke="none" points="-25.2,25.2 -25.2,-1529.86 804.7,-1529.86 804.7,25.2 -25.2,25.2"/>
<text xml:space="preserve" text-anchor="middle" x="389.75" y="-1474.06" font-family="Helvetica,sans-Serif" font-size="28.00">Ensemble&#45;Grafana Evolution: First Prompt to Latest Evidence</text>
<!-- seed -->
<g id="node1" class="node">
<title>seed</title>
<path fill="#e0f2fe" stroke="#0284c7" d="M502.05,-1468.16C502.05,-1468.16 275.45,-1468.16 275.45,-1468.16 269.45,-1468.16 263.45,-1462.16 263.45,-1456.16 263.45,-1456.16 263.45,-1402.64 263.45,-1402.64 263.45,-1396.64 269.45,-1390.64 275.45,-1390.64 275.45,-1390.64 502.05,-1390.64 502.05,-1390.64 508.05,-1390.64 514.05,-1396.64 514.05,-1402.64 514.05,-1402.64 514.05,-1456.16 514.05,-1456.16 514.05,-1462.16 508.05,-1468.16 502.05,-1468.16"/>
<text xml:space="preserve" text-anchor="middle" x="388.75" y="-1447.2" font-family="Helvetica,sans-Serif" font-size="16.00" fill="#0f172a">May 24&#45;25</text>
<text xml:space="preserve" text-anchor="middle" x="388.75" y="-1430.7" font-family="Helvetica,sans-Serif" font-size="16.00" fill="#0f172a">Product seed</text>
<text xml:space="preserve" text-anchor="middle" x="388.75" y="-1414.2" font-family="Helvetica,sans-Serif" font-size="16.00" fill="#0f172a">Promptable ecommerce platform</text>
<text xml:space="preserve" text-anchor="middle" x="388.75" y="-1397.7" font-family="Helvetica,sans-Serif" font-size="16.00" fill="#0f172a">README live demo framing</text>
</g>
<!-- validate -->
<g id="node2" class="node">
<title>validate</title>
<path fill="#dcfce7" stroke="#16a34a" d="M497.35,-1343.89C497.35,-1343.89 280.15,-1343.89 280.15,-1343.89 274.15,-1343.89 268.15,-1337.89 268.15,-1331.89 268.15,-1331.89 268.15,-1245.37 268.15,-1245.37 268.15,-1239.37 274.15,-1233.37 280.15,-1233.37 280.15,-1233.37 497.35,-1233.37 497.35,-1233.37 503.35,-1233.37 509.35,-1239.37 509.35,-1245.37 509.35,-1245.37 509.35,-1331.89 509.35,-1331.89 509.35,-1337.89 503.35,-1343.89 497.35,-1343.89"/>
<text xml:space="preserve" text-anchor="middle" x="388.75" y="-1322.93" font-family="Helvetica,sans-Serif" font-size="16.00" fill="#0f172a">May 27&#45;29</text>
<text xml:space="preserve" text-anchor="middle" x="388.75" y="-1306.43" font-family="Helvetica,sans-Serif" font-size="16.00" fill="#0f172a">Validation foundation</text>
<text xml:space="preserve" text-anchor="middle" x="388.75" y="-1289.93" font-family="Helvetica,sans-Serif" font-size="16.00" fill="#0f172a">Grafana dashboards</text>
<text xml:space="preserve" text-anchor="middle" x="388.75" y="-1273.43" font-family="Helvetica,sans-Serif" font-size="16.00" fill="#0f172a">Guarded baseline stack</text>
<text xml:space="preserve" text-anchor="middle" x="388.75" y="-1256.93" font-family="Helvetica,sans-Serif" font-size="16.00" fill="#0f172a">k6 Faro actions</text>
<text xml:space="preserve" text-anchor="middle" x="388.75" y="-1240.43" font-family="Helvetica,sans-Serif" font-size="16.00" fill="#0f172a">Playwright regression</text>
</g>
<!-- seed&#45;&gt;validate -->
<g id="edge1" class="edge">
<title>seed&#45;&gt;validate</title>
<path fill="none" stroke="#64748b" stroke-width="2" d="M388.75,-1390.48C388.75,-1379.43 388.75,-1367.03 388.75,-1354.81"/>
<polygon fill="#64748b" stroke="#64748b" stroke-width="2" points="391.55,-1355.18 388.75,-1347.18 385.95,-1355.18 391.55,-1355.18"/>
<text xml:space="preserve" text-anchor="middle" x="430.38" y="-1362.24" font-family="Helvetica,sans-Serif" font-size="12.00" fill="#334155">make it testable</text>
</g>
<!-- app -->
<g id="node3" class="node">
<title>app</title>
<path fill="#fef3c7" stroke="#d97706" d="M301.35,-1186.62C301.35,-1186.62 84.15,-1186.62 84.15,-1186.62 78.15,-1186.62 72.15,-1180.62 72.15,-1174.62 72.15,-1174.62 72.15,-1088.1 72.15,-1088.1 72.15,-1082.1 78.15,-1076.1 84.15,-1076.1 84.15,-1076.1 301.35,-1076.1 301.35,-1076.1 307.35,-1076.1 313.35,-1082.1 313.35,-1088.1 313.35,-1088.1 313.35,-1174.62 313.35,-1174.62 313.35,-1180.62 307.35,-1186.62 301.35,-1186.62"/>
<text xml:space="preserve" text-anchor="middle" x="192.75" y="-1165.66" font-family="Helvetica,sans-Serif" font-size="16.00" fill="#0f172a">May 30</text>
<text xml:space="preserve" text-anchor="middle" x="192.75" y="-1149.16" font-family="Helvetica,sans-Serif" font-size="16.00" fill="#0f172a">Storefront maturity</text>
<text xml:space="preserve" text-anchor="middle" x="192.75" y="-1132.66" font-family="Helvetica,sans-Serif" font-size="16.00" fill="#0f172a">Checkout Grafana link</text>
<text xml:space="preserve" text-anchor="middle" x="192.75" y="-1116.16" font-family="Helvetica,sans-Serif" font-size="16.00" fill="#0f172a">Sweden localization</text>
<text xml:space="preserve" text-anchor="middle" x="192.75" y="-1099.66" font-family="Helvetica,sans-Serif" font-size="16.00" fill="#0f172a">Responsive UI fixes</text>
<text xml:space="preserve" text-anchor="middle" x="192.75" y="-1083.16" font-family="Helvetica,sans-Serif" font-size="16.00" fill="#0f172a">Post&#45;deploy reports</text>
</g>
<!-- validate&#45;&gt;app -->
<g id="edge2" class="edge">
<title>validate&#45;&gt;app</title>
<path fill="none" stroke="#64748b" stroke-width="2" d="M319.65,-1232.89C303.6,-1220.17 286.41,-1206.56 270.04,-1193.59"/>
<polygon fill="#64748b" stroke="#64748b" stroke-width="2" points="271.94,-1191.52 263.93,-1188.75 268.46,-1195.91 271.94,-1191.52"/>
<text xml:space="preserve" text-anchor="middle" x="364.5" y="-1204.97" font-family="Helvetica,sans-Serif" font-size="12.00" fill="#334155">expand shopper behavior</text>
</g>
<!-- obs -->
<g id="node4" class="node">
<title>obs</title>
<path fill="#ede9fe" stroke="#7c3aed" d="M695.35,-1186.62C695.35,-1186.62 478.15,-1186.62 478.15,-1186.62 472.15,-1186.62 466.15,-1180.62 466.15,-1174.62 466.15,-1174.62 466.15,-1088.1 466.15,-1088.1 466.15,-1082.1 472.15,-1076.1 478.15,-1076.1 478.15,-1076.1 695.35,-1076.1 695.35,-1076.1 701.35,-1076.1 707.35,-1082.1 707.35,-1088.1 707.35,-1088.1 707.35,-1174.62 707.35,-1174.62 707.35,-1180.62 701.35,-1186.62 695.35,-1186.62"/>
<text xml:space="preserve" text-anchor="middle" x="586.75" y="-1165.66" font-family="Helvetica,sans-Serif" font-size="16.00" fill="#0f172a">May 30</text>
<text xml:space="preserve" text-anchor="middle" x="586.75" y="-1149.16" font-family="Helvetica,sans-Serif" font-size="16.00" fill="#0f172a">Telemetry expansion</text>
<text xml:space="preserve" text-anchor="middle" x="586.75" y="-1132.66" font-family="Helvetica,sans-Serif" font-size="16.00" fill="#0f172a">CloudWatch discovery</text>
<text xml:space="preserve" text-anchor="middle" x="586.75" y="-1116.16" font-family="Helvetica,sans-Serif" font-size="16.00" fill="#0f172a">Faro action reports</text>
<text xml:space="preserve" text-anchor="middle" x="586.75" y="-1099.66" font-family="Helvetica,sans-Serif" font-size="16.00" fill="#0f172a">Alloy/Beyla runbooks</text>
<text xml:space="preserve" text-anchor="middle" x="586.75" y="-1083.16" font-family="Helvetica,sans-Serif" font-size="16.00" fill="#0f172a">Dashboard conventions</text>
</g>
<!-- validate&#45;&gt;obs -->
<g id="edge3" class="edge">
<title>validate&#45;&gt;obs</title>
<path fill="none" stroke="#64748b" stroke-width="2" d="M458.56,-1232.89C474.77,-1220.17 492.13,-1206.56 508.67,-1193.59"/>
<polygon fill="#64748b" stroke="#64748b" stroke-width="2" points="510.29,-1195.88 514.86,-1188.74 506.83,-1191.47 510.29,-1195.88"/>
<text xml:space="preserve" text-anchor="middle" x="547.31" y="-1204.97" font-family="Helvetica,sans-Serif" font-size="12.00" fill="#334155">instrument telemetry</text>
</g>
<!-- app&#45;&gt;obs -->
<g id="edge4" class="edge">
<title>app&#45;&gt;obs</title>
<path fill="none" stroke="#64748b" stroke-width="2" d="M313.64,-1131.36C358.35,-1131.36 409.24,-1131.36 454.88,-1131.36"/>
<polygon fill="#64748b" stroke="#64748b" stroke-width="2" points="454.72,-1134.16 462.72,-1131.36 454.72,-1128.56 454.72,-1134.16"/>
<text xml:space="preserve" text-anchor="middle" x="389.75" y="-1135.71" font-family="Helvetica,sans-Serif" font-size="12.00" fill="#334155">instrument user actions</text>
</g>
<!-- load -->
<g id="node5" class="node">
<title>load</title>
<path fill="#fee2e2" stroke="#dc2626" d="M498.35,-1029.35C498.35,-1029.35 281.15,-1029.35 281.15,-1029.35 275.15,-1029.35 269.15,-1023.35 269.15,-1017.35 269.15,-1017.35 269.15,-930.83 269.15,-930.83 269.15,-924.83 275.15,-918.83 281.15,-918.83 281.15,-918.83 498.35,-918.83 498.35,-918.83 504.35,-918.83 510.35,-924.83 510.35,-930.83 510.35,-930.83 510.35,-1017.35 510.35,-1017.35 510.35,-1023.35 504.35,-1029.35 498.35,-1029.35"/>
<text xml:space="preserve" text-anchor="middle" x="389.75" y="-1008.39" font-family="Helvetica,sans-Serif" font-size="16.00" fill="#0f172a">May 30&#45;31</text>
<text xml:space="preserve" text-anchor="middle" x="389.75" y="-991.89" font-family="Helvetica,sans-Serif" font-size="16.00" fill="#0f172a">Load and resilience</text>
<text xml:space="preserve" text-anchor="middle" x="389.75" y="-975.39" font-family="Helvetica,sans-Serif" font-size="16.00" fill="#0f172a">Traffic&#45;spike model</text>
<text xml:space="preserve" text-anchor="middle" x="389.75" y="-958.89" font-family="Helvetica,sans-Serif" font-size="16.00" fill="#0f172a">Cloud k6 runs</text>
<text xml:space="preserve" text-anchor="middle" x="389.75" y="-942.39" font-family="Helvetica,sans-Serif" font-size="16.00" fill="#0f172a">Comparison charts</text>
<text xml:space="preserve" text-anchor="middle" x="389.75" y="-925.89" font-family="Helvetica,sans-Serif" font-size="16.00" fill="#0f172a">40 rps then 60 rps baseline</text>
</g>
<!-- app&#45;&gt;load -->
<g id="edge6" class="edge">
<title>app&#45;&gt;load</title>
<path fill="none" stroke="#64748b" stroke-width="2" d="M262.2,-1075.62C278.34,-1062.9 295.61,-1049.29 312.07,-1036.32"/>
<polygon fill="#64748b" stroke="#64748b" stroke-width="2" points="313.66,-1038.62 318.21,-1031.47 310.2,-1034.23 313.66,-1038.62"/>
<text xml:space="preserve" text-anchor="middle" x="342.53" y="-1047.7" font-family="Helvetica,sans-Serif" font-size="12.00" fill="#334155">validate journeys</text>
</g>
<!-- obs&#45;&gt;load -->
<g id="edge5" class="edge">
<title>obs&#45;&gt;load</title>
<path fill="none" stroke="#64748b" stroke-width="2" d="M517.3,-1075.62C501.16,-1062.9 483.89,-1049.29 467.43,-1036.32"/>
<polygon fill="#64748b" stroke="#64748b" stroke-width="2" points="469.3,-1034.23 461.29,-1031.47 465.84,-1038.62 469.3,-1034.23"/>
<text xml:space="preserve" text-anchor="middle" x="538.78" y="-1047.7" font-family="Helvetica,sans-Serif" font-size="12.00" fill="#334155">exercise at scale</text>
</g>
<!-- ops -->
<g id="node6" class="node">
<title>ops</title>
<path fill="#e2e8f0" stroke="#475569" d="M498.35,-872.08C498.35,-872.08 281.15,-872.08 281.15,-872.08 275.15,-872.08 269.15,-866.08 269.15,-860.08 269.15,-860.08 269.15,-773.56 269.15,-773.56 269.15,-767.56 275.15,-761.56 281.15,-761.56 281.15,-761.56 498.35,-761.56 498.35,-761.56 504.35,-761.56 510.35,-767.56 510.35,-773.56 510.35,-773.56 510.35,-860.08 510.35,-860.08 510.35,-866.08 504.35,-872.08 498.35,-872.08"/>
<text xml:space="preserve" text-anchor="middle" x="389.75" y="-851.12" font-family="Helvetica,sans-Serif" font-size="16.00" fill="#0f172a">May 31</text>
<text xml:space="preserve" text-anchor="middle" x="389.75" y="-834.62" font-family="Helvetica,sans-Serif" font-size="16.00" fill="#0f172a">Operations loop</text>
<text xml:space="preserve" text-anchor="middle" x="389.75" y="-818.12" font-family="Helvetica,sans-Serif" font-size="16.00" fill="#0f172a">IRM on&#45;call setup</text>
<text xml:space="preserve" text-anchor="middle" x="389.75" y="-801.62" font-family="Helvetica,sans-Serif" font-size="16.00" fill="#0f172a">Kubelet RCA reports</text>
<text xml:space="preserve" text-anchor="middle" x="389.75" y="-785.12" font-family="Helvetica,sans-Serif" font-size="16.00" fill="#0f172a">Grafana Assistant comparison</text>
<text xml:space="preserve" text-anchor="middle" x="389.75" y="-768.62" font-family="Helvetica,sans-Serif" font-size="16.00" fill="#0f172a">Dashboard validation</text>
</g>
<!-- load&#45;&gt;ops -->
<g id="edge7" class="edge">
<title>load&#45;&gt;ops</title>
<path fill="none" stroke="#64748b" stroke-width="2" d="M389.75,-918.35C389.75,-907.03 389.75,-895.01 389.75,-883.35"/>
<polygon fill="#64748b" stroke="#64748b" stroke-width="2" points="392.55,-883.36 389.75,-875.36 386.95,-883.36 392.55,-883.36"/>
<text xml:space="preserve" text-anchor="middle" x="461.75" y="-890.43" font-family="Helvetica,sans-Serif" font-size="12.00" fill="#334155">turn failures into operations</text>
</g>
<!-- skills -->
<g id="node7" class="node">
<title>skills</title>
<path fill="#ccfbf1" stroke="#0d9488" d="M498.35,-714.81C498.35,-714.81 281.15,-714.81 281.15,-714.81 275.15,-714.81 269.15,-708.81 269.15,-702.81 269.15,-702.81 269.15,-632.79 269.15,-632.79 269.15,-626.79 275.15,-620.79 281.15,-620.79 281.15,-620.79 498.35,-620.79 498.35,-620.79 504.35,-620.79 510.35,-626.79 510.35,-632.79 510.35,-632.79 510.35,-702.81 510.35,-702.81 510.35,-708.81 504.35,-714.81 498.35,-714.81"/>
<text xml:space="preserve" text-anchor="middle" x="389.75" y="-693.85" font-family="Helvetica,sans-Serif" font-size="16.00" fill="#0f172a">May 30&#45;Jun 1</text>
<text xml:space="preserve" text-anchor="middle" x="389.75" y="-677.35" font-family="Helvetica,sans-Serif" font-size="16.00" fill="#0f172a">Reusable agent policy</text>
<text xml:space="preserve" text-anchor="middle" x="389.75" y="-660.85" font-family="Helvetica,sans-Serif" font-size="16.00" fill="#0f172a">Repo skills and personas</text>
<text xml:space="preserve" text-anchor="middle" x="389.75" y="-644.35" font-family="Helvetica,sans-Serif" font-size="16.00" fill="#0f172a">Slash&#45;command sync</text>
<text xml:space="preserve" text-anchor="middle" x="389.75" y="-627.85" font-family="Helvetica,sans-Serif" font-size="16.00" fill="#0f172a">CI checks for guidance</text>
</g>
<!-- ops&#45;&gt;skills -->
<g id="edge8" class="edge">
<title>ops&#45;&gt;skills</title>
<path fill="none" stroke="#64748b" stroke-width="2" d="M389.75,-761.08C389.75,-749.57 389.75,-737.4 389.75,-725.81"/>
<polygon fill="#64748b" stroke="#64748b" stroke-width="2" points="392.55,-725.95 389.75,-717.95 386.95,-725.95 392.55,-725.95"/>
<text xml:space="preserve" text-anchor="middle" x="439.62" y="-733.16" font-family="Helvetica,sans-Serif" font-size="12.00" fill="#334155">codify repeatability</text>
</g>
<!-- latest -->
<g id="node8" class="node">
<title>latest</title>
<path fill="#fce7f3" stroke="#db2777" d="M498.35,-574.04C498.35,-574.04 281.15,-574.04 281.15,-574.04 275.15,-574.04 269.15,-568.04 269.15,-562.04 269.15,-562.04 269.15,-475.52 269.15,-475.52 269.15,-469.52 275.15,-463.52 281.15,-463.52 281.15,-463.52 498.35,-463.52 498.35,-463.52 504.35,-463.52 510.35,-469.52 510.35,-475.52 510.35,-475.52 510.35,-562.04 510.35,-562.04 510.35,-568.04 504.35,-574.04 498.35,-574.04"/>
<text xml:space="preserve" text-anchor="middle" x="389.75" y="-553.08" font-family="Helvetica,sans-Serif" font-size="16.00" fill="#0f172a">Jun 2&#45;8</text>
<text xml:space="preserve" text-anchor="middle" x="389.75" y="-536.58" font-family="Helvetica,sans-Serif" font-size="16.00" fill="#0f172a">Latest evidence</text>
<text xml:space="preserve" text-anchor="middle" x="389.75" y="-520.08" font-family="Helvetica,sans-Serif" font-size="16.00" fill="#0f172a">120 rps baseline docs</text>
<text xml:space="preserve" text-anchor="middle" x="389.75" y="-503.58" font-family="Helvetica,sans-Serif" font-size="16.00" fill="#0f172a">Black Friday cart incident</text>
<text xml:space="preserve" text-anchor="middle" x="389.75" y="-487.08" font-family="Helvetica,sans-Serif" font-size="16.00" fill="#0f172a">Evolution docs</text>
<text xml:space="preserve" text-anchor="middle" x="389.75" y="-470.58" font-family="Helvetica,sans-Serif" font-size="16.00" fill="#0f172a">Load reports through 7718235</text>
</g>
<!-- skills&#45;&gt;latest -->
<g id="edge9" class="edge">
<title>skills&#45;&gt;latest</title>
<path fill="none" stroke="#64748b" stroke-width="2" d="M389.75,-620.69C389.75,-609.47 389.75,-597.25 389.75,-585.33"/>
<polygon fill="#64748b" stroke="#64748b" stroke-width="2" points="392.55,-585.51 389.75,-577.51 386.95,-585.51 392.55,-585.51"/>
<text xml:space="preserve" text-anchor="middle" x="448.62" y="-592.39" font-family="Helvetica,sans-Serif" font-size="12.00" fill="#334155">keep evidence current</text>
</g>
<!-- policy -->
<g id="node9" class="node">
<title>policy</title>
<path fill="#f3e8ff" stroke="#9333ea" d="M503.05,-416.77C503.05,-416.77 276.45,-416.77 276.45,-416.77 270.45,-416.77 264.45,-410.77 264.45,-404.77 264.45,-404.77 264.45,-334.75 264.45,-334.75 264.45,-328.75 270.45,-322.75 276.45,-322.75 276.45,-322.75 503.05,-322.75 503.05,-322.75 509.05,-322.75 515.05,-328.75 515.05,-334.75 515.05,-334.75 515.05,-404.77 515.05,-404.77 515.05,-410.77 509.05,-416.77 503.05,-416.77"/>
<text xml:space="preserve" text-anchor="middle" x="389.75" y="-395.81" font-family="Helvetica,sans-Serif" font-size="16.00" fill="#0f172a">Jun 9</text>
<text xml:space="preserve" text-anchor="middle" x="389.75" y="-379.31" font-family="Helvetica,sans-Serif" font-size="16.00" fill="#0f172a">Evolution policy</text>
<text xml:space="preserve" text-anchor="middle" x="389.75" y="-362.81" font-family="Helvetica,sans-Serif" font-size="16.00" fill="#0f172a">AGENTS.md documentation rule</text>
<text xml:space="preserve" text-anchor="middle" x="389.75" y="-346.31" font-family="Helvetica,sans-Serif" font-size="16.00" fill="#0f172a">Graphviz skill workflow</text>
<text xml:space="preserve" text-anchor="middle" x="389.75" y="-329.81" font-family="Helvetica,sans-Serif" font-size="16.00" fill="#0f172a">Timeline stays maintained</text>
</g>
<!-- latest&#45;&gt;policy -->
<g id="edge10" class="edge">
<title>latest&#45;&gt;policy</title>
<path fill="none" stroke="#64748b" stroke-width="2" d="M389.75,-463.04C389.75,-451.53 389.75,-439.36 389.75,-427.77"/>
<polygon fill="#64748b" stroke="#64748b" stroke-width="2" points="392.55,-427.91 389.75,-419.91 386.95,-427.91 392.55,-427.91"/>
<text xml:space="preserve" text-anchor="middle" x="448.62" y="-435.12" font-family="Helvetica,sans-Serif" font-size="12.00" fill="#334155">protect the chronology</text>
</g>
<!-- end_to_end -->
<g id="node10" class="node">
<title>end_to_end</title>
<path fill="#334155" stroke="none" d="M684.88,-276C684.88,-276 94.63,-276 94.63,-276 88.62,-276 82.62,-270 82.62,-264 82.62,-264 82.62,-12 82.62,-12 82.62,-6 88.62,0 94.62,0 94.62,0 684.88,0 684.88,0 690.88,0 696.88,-6 696.88,-12 696.88,-12 696.88,-264 696.88,-264 696.88,-270 690.88,-276 684.88,-276"/>
<polygon fill="#0f172a" stroke="none" points="82.62,-241.5 82.62,-276 696.88,-276 696.88,-241.5 82.62,-241.5"/>
<polygon fill="none" stroke="#334155" points="82.62,-241.5 82.62,-276 696.88,-276 696.88,-241.5 82.62,-241.5"/>
<text xml:space="preserve" text-anchor="start" x="290" y="-252.8" font-family="Helvetica,sans-Serif" font-weight="bold" font-size="16.00" fill="#f8fafc">End&#45;to&#45;End System Shape</text>
<polygon fill="#ffffff" stroke="none" points="82.62,-207 82.62,-241.5 696.88,-241.5 696.88,-207 82.62,-207"/>
<polygon fill="none" stroke="#334155" points="82.62,-207 82.62,-241.5 696.88,-241.5 696.88,-207 82.62,-207"/>
<text xml:space="preserve" text-anchor="start" x="91.62" y="-219.75" font-family="Helvetica,sans-Serif" font-size="16.00" fill="#0f172a">Storefront journeys: browse, cart, checkout, account, region, language</text>
<polygon fill="#ffffff" stroke="none" points="82.62,-172.5 82.62,-207 696.88,-207 696.88,-172.5 82.62,-172.5"/>
<polygon fill="none" stroke="#334155" points="82.62,-172.5 82.62,-207 696.88,-207 696.88,-172.5 82.62,-172.5"/>
<text xml:space="preserve" text-anchor="start" x="91.62" y="-185.25" font-family="Helvetica,sans-Serif" font-size="16.00" fill="#0f172a">Spring Boot services: inventory, cart, account</text>
<polygon fill="#ffffff" stroke="none" points="82.62,-138 82.62,-172.5 696.88,-172.5 696.88,-138 82.62,-138"/>
<polygon fill="none" stroke="#334155" points="82.62,-138 82.62,-172.5 696.88,-172.5 696.88,-138 82.62,-138"/>
<text xml:space="preserve" text-anchor="start" x="91.62" y="-150.75" font-family="Helvetica,sans-Serif" font-size="16.00" fill="#0f172a">AWS and Kubernetes: edge, auth, data, EKS, rollout controls</text>
<polygon fill="#ffffff" stroke="none" points="82.62,-103.5 82.62,-138 696.88,-138 696.88,-103.5 82.62,-103.5"/>
<polygon fill="none" stroke="#334155" points="82.62,-103.5 82.62,-138 696.88,-138 696.88,-103.5 82.62,-103.5"/>
<text xml:space="preserve" text-anchor="start" x="91.62" y="-116.25" font-family="Helvetica,sans-Serif" font-size="16.00" fill="#0f172a">Grafana Cloud: Faro, Alloy, Beyla, dashboards, IRM, reports</text>
<polygon fill="#ffffff" stroke="none" points="82.62,-69 82.62,-103.5 696.88,-103.5 696.88,-69 82.62,-69"/>
<polygon fill="none" stroke="#334155" points="82.62,-69 82.62,-103.5 696.88,-103.5 696.88,-69 82.62,-69"/>
<text xml:space="preserve" text-anchor="start" x="91.62" y="-81.75" font-family="Helvetica,sans-Serif" font-size="16.00" fill="#0f172a">Verification: Playwright, k6 protocol, k6 browser actions, GCX queries</text>
<polygon fill="#ffffff" stroke="none" points="82.62,-34.5 82.62,-69 696.88,-69 696.88,-34.5 82.62,-34.5"/>
<polygon fill="none" stroke="#334155" points="82.62,-34.5 82.62,-69 696.88,-69 696.88,-34.5 82.62,-34.5"/>
<text xml:space="preserve" text-anchor="start" x="91.62" y="-47.25" font-family="Helvetica,sans-Serif" font-size="16.00" fill="#0f172a">Communication: Markdown runbooks plus Graphviz DOT, SVG, PNG</text>
<polygon fill="#ffffff" stroke="none" points="82.62,0 82.62,-34.5 696.88,-34.5 696.88,0 82.62,0"/>
<polygon fill="none" stroke="#334155" points="82.62,0 82.62,-34.5 696.88,-34.5 696.88,0 82.62,0"/>
<text xml:space="preserve" text-anchor="start" x="91.62" y="-12.75" font-family="Helvetica,sans-Serif" font-size="16.00" fill="#0f172a">Memory: EVOLUTION.md, category files, and agent policy keep milestones current</text>
</g>
<!-- policy&#45;&gt;end_to_end -->
<g id="edge11" class="edge">
<title>policy&#45;&gt;end_to_end</title>
<path fill="none" stroke="#64748b" stroke-width="2" d="M389.75,-322.26C389.75,-311.41 389.75,-299.27 389.75,-286.54"/>
<polygon fill="#64748b" stroke="#64748b" stroke-width="2" points="392.55,-286.76 389.75,-278.76 386.95,-286.76 392.55,-286.76"/>
<text xml:space="preserve" text-anchor="middle" x="422.38" y="-294.35" font-family="Helvetica,sans-Serif" font-size="12.00" fill="#334155">current state</text>
</g>
</g>
</svg>
