<?xml version="1.0" encoding="UTF-8" standalone="no"?>
<!DOCTYPE svg PUBLIC "-//W3C//DTD SVG 1.1//EN"
 "http://www.w3.org/Graphics/SVG/1.1/DTD/svg11.dtd">
<!-- Generated by graphviz version 15.0.0 (20260523.1842)
 -->
<!-- Title: ensemble_evolution_timeline Pages: 1 -->
<svg width="830pt" height="1588pt"
 viewBox="0.00 0.00 830.00 1588.00" xmlns="http://www.w3.org/2000/svg" xmlns:xlink="http://www.w3.org/1999/xlink">
<g id="graph0" class="graph" transform="scale(1 1) rotate(0) translate(25.2 1562.86)">
<title>ensemble_evolution_timeline</title>
<polygon fill="#ffffff" stroke="none" points="-25.2,25.2 -25.2,-1562.86 804.7,-1562.86 804.7,25.2 -25.2,25.2"/>
<text xml:space="preserve" text-anchor="middle" x="389.75" y="-1507.06" font-family="Helvetica,sans-Serif" font-size="28.00">Ensemble&#45;Grafana Evolution: First Prompt to Latest Evidence</text>
<!-- seed -->
<g id="node1" class="node">
<title>seed</title>
<path fill="#e0f2fe" stroke="#0284c7" d="M502.05,-1501.16C502.05,-1501.16 275.45,-1501.16 275.45,-1501.16 269.45,-1501.16 263.45,-1495.16 263.45,-1489.16 263.45,-1489.16 263.45,-1435.64 263.45,-1435.64 263.45,-1429.64 269.45,-1423.64 275.45,-1423.64 275.45,-1423.64 502.05,-1423.64 502.05,-1423.64 508.05,-1423.64 514.05,-1429.64 514.05,-1435.64 514.05,-1435.64 514.05,-1489.16 514.05,-1489.16 514.05,-1495.16 508.05,-1501.16 502.05,-1501.16"/>
<text xml:space="preserve" text-anchor="middle" x="388.75" y="-1480.2" font-family="Helvetica,sans-Serif" font-size="16.00" fill="#0f172a">May 24&#45;25</text>
<text xml:space="preserve" text-anchor="middle" x="388.75" y="-1463.7" font-family="Helvetica,sans-Serif" font-size="16.00" fill="#0f172a">Product seed</text>
<text xml:space="preserve" text-anchor="middle" x="388.75" y="-1447.2" font-family="Helvetica,sans-Serif" font-size="16.00" fill="#0f172a">Promptable ecommerce platform</text>
<text xml:space="preserve" text-anchor="middle" x="388.75" y="-1430.7" font-family="Helvetica,sans-Serif" font-size="16.00" fill="#0f172a">README live demo framing</text>
</g>
<!-- validate -->
<g id="node2" class="node">
<title>validate</title>
<path fill="#dcfce7" stroke="#16a34a" d="M497.35,-1376.89C497.35,-1376.89 280.15,-1376.89 280.15,-1376.89 274.15,-1376.89 268.15,-1370.89 268.15,-1364.89 268.15,-1364.89 268.15,-1278.37 268.15,-1278.37 268.15,-1272.37 274.15,-1266.37 280.15,-1266.37 280.15,-1266.37 497.35,-1266.37 497.35,-1266.37 503.35,-1266.37 509.35,-1272.37 509.35,-1278.37 509.35,-1278.37 509.35,-1364.89 509.35,-1364.89 509.35,-1370.89 503.35,-1376.89 497.35,-1376.89"/>
<text xml:space="preserve" text-anchor="middle" x="388.75" y="-1355.93" font-family="Helvetica,sans-Serif" font-size="16.00" fill="#0f172a">May 27&#45;29</text>
<text xml:space="preserve" text-anchor="middle" x="388.75" y="-1339.43" font-family="Helvetica,sans-Serif" font-size="16.00" fill="#0f172a">Validation foundation</text>
<text xml:space="preserve" text-anchor="middle" x="388.75" y="-1322.93" font-family="Helvetica,sans-Serif" font-size="16.00" fill="#0f172a">Grafana dashboards</text>
<text xml:space="preserve" text-anchor="middle" x="388.75" y="-1306.43" font-family="Helvetica,sans-Serif" font-size="16.00" fill="#0f172a">Guarded baseline stack</text>
<text xml:space="preserve" text-anchor="middle" x="388.75" y="-1289.93" font-family="Helvetica,sans-Serif" font-size="16.00" fill="#0f172a">k6 Faro actions</text>
<text xml:space="preserve" text-anchor="middle" x="388.75" y="-1273.43" font-family="Helvetica,sans-Serif" font-size="16.00" fill="#0f172a">Playwright regression</text>
</g>
<!-- seed&#45;&gt;validate -->
<g id="edge1" class="edge">
<title>seed&#45;&gt;validate</title>
<path fill="none" stroke="#64748b" stroke-width="2" d="M388.75,-1423.48C388.75,-1412.43 388.75,-1400.03 388.75,-1387.81"/>
<polygon fill="#64748b" stroke="#64748b" stroke-width="2" points="391.55,-1388.18 388.75,-1380.18 385.95,-1388.18 391.55,-1388.18"/>
<text xml:space="preserve" text-anchor="middle" x="430.38" y="-1395.24" font-family="Helvetica,sans-Serif" font-size="12.00" fill="#334155">make it testable</text>
</g>
<!-- app -->
<g id="node3" class="node">
<title>app</title>
<path fill="#fef3c7" stroke="#d97706" d="M301.35,-1219.62C301.35,-1219.62 84.15,-1219.62 84.15,-1219.62 78.15,-1219.62 72.15,-1213.62 72.15,-1207.62 72.15,-1207.62 72.15,-1121.1 72.15,-1121.1 72.15,-1115.1 78.15,-1109.1 84.15,-1109.1 84.15,-1109.1 301.35,-1109.1 301.35,-1109.1 307.35,-1109.1 313.35,-1115.1 313.35,-1121.1 313.35,-1121.1 313.35,-1207.62 313.35,-1207.62 313.35,-1213.62 307.35,-1219.62 301.35,-1219.62"/>
<text xml:space="preserve" text-anchor="middle" x="192.75" y="-1198.66" font-family="Helvetica,sans-Serif" font-size="16.00" fill="#0f172a">May 30</text>
<text xml:space="preserve" text-anchor="middle" x="192.75" y="-1182.16" font-family="Helvetica,sans-Serif" font-size="16.00" fill="#0f172a">Storefront maturity</text>
<text xml:space="preserve" text-anchor="middle" x="192.75" y="-1165.66" font-family="Helvetica,sans-Serif" font-size="16.00" fill="#0f172a">Checkout Grafana link</text>
<text xml:space="preserve" text-anchor="middle" x="192.75" y="-1149.16" font-family="Helvetica,sans-Serif" font-size="16.00" fill="#0f172a">Sweden localization</text>
<text xml:space="preserve" text-anchor="middle" x="192.75" y="-1132.66" font-family="Helvetica,sans-Serif" font-size="16.00" fill="#0f172a">Responsive UI fixes</text>
<text xml:space="preserve" text-anchor="middle" x="192.75" y="-1116.16" font-family="Helvetica,sans-Serif" font-size="16.00" fill="#0f172a">Post&#45;deploy reports</text>
</g>
<!-- validate&#45;&gt;app -->
<g id="edge2" class="edge">
<title>validate&#45;&gt;app</title>
<path fill="none" stroke="#64748b" stroke-width="2" d="M319.65,-1265.89C303.6,-1253.17 286.41,-1239.56 270.04,-1226.59"/>
<polygon fill="#64748b" stroke="#64748b" stroke-width="2" points="271.94,-1224.52 263.93,-1221.75 268.46,-1228.91 271.94,-1224.52"/>
<text xml:space="preserve" text-anchor="middle" x="364.5" y="-1237.97" font-family="Helvetica,sans-Serif" font-size="12.00" fill="#334155">expand shopper behavior</text>
</g>
<!-- obs -->
<g id="node4" class="node">
<title>obs</title>
<path fill="#ede9fe" stroke="#7c3aed" d="M695.35,-1219.62C695.35,-1219.62 478.15,-1219.62 478.15,-1219.62 472.15,-1219.62 466.15,-1213.62 466.15,-1207.62 466.15,-1207.62 466.15,-1121.1 466.15,-1121.1 466.15,-1115.1 472.15,-1109.1 478.15,-1109.1 478.15,-1109.1 695.35,-1109.1 695.35,-1109.1 701.35,-1109.1 707.35,-1115.1 707.35,-1121.1 707.35,-1121.1 707.35,-1207.62 707.35,-1207.62 707.35,-1213.62 701.35,-1219.62 695.35,-1219.62"/>
<text xml:space="preserve" text-anchor="middle" x="586.75" y="-1198.66" font-family="Helvetica,sans-Serif" font-size="16.00" fill="#0f172a">May 30</text>
<text xml:space="preserve" text-anchor="middle" x="586.75" y="-1182.16" font-family="Helvetica,sans-Serif" font-size="16.00" fill="#0f172a">Telemetry expansion</text>
<text xml:space="preserve" text-anchor="middle" x="586.75" y="-1165.66" font-family="Helvetica,sans-Serif" font-size="16.00" fill="#0f172a">CloudWatch discovery</text>
<text xml:space="preserve" text-anchor="middle" x="586.75" y="-1149.16" font-family="Helvetica,sans-Serif" font-size="16.00" fill="#0f172a">Faro action reports</text>
<text xml:space="preserve" text-anchor="middle" x="586.75" y="-1132.66" font-family="Helvetica,sans-Serif" font-size="16.00" fill="#0f172a">Alloy/Beyla runbooks</text>
<text xml:space="preserve" text-anchor="middle" x="586.75" y="-1116.16" font-family="Helvetica,sans-Serif" font-size="16.00" fill="#0f172a">Dashboard conventions</text>
</g>
<!-- validate&#45;&gt;obs -->
<g id="edge3" class="edge">
<title>validate&#45;&gt;obs</title>
<path fill="none" stroke="#64748b" stroke-width="2" d="M458.56,-1265.89C474.77,-1253.17 492.13,-1239.56 508.67,-1226.59"/>
<polygon fill="#64748b" stroke="#64748b" stroke-width="2" points="510.29,-1228.88 514.86,-1221.74 506.83,-1224.47 510.29,-1228.88"/>
<text xml:space="preserve" text-anchor="middle" x="547.31" y="-1237.97" font-family="Helvetica,sans-Serif" font-size="12.00" fill="#334155">instrument telemetry</text>
</g>
<!-- app&#45;&gt;obs -->
<g id="edge4" class="edge">
<title>app&#45;&gt;obs</title>
<path fill="none" stroke="#64748b" stroke-width="2" d="M313.64,-1164.36C358.35,-1164.36 409.24,-1164.36 454.88,-1164.36"/>
<polygon fill="#64748b" stroke="#64748b" stroke-width="2" points="454.72,-1167.16 462.72,-1164.36 454.72,-1161.56 454.72,-1167.16"/>
<text xml:space="preserve" text-anchor="middle" x="389.75" y="-1168.71" font-family="Helvetica,sans-Serif" font-size="12.00" fill="#334155">instrument user actions</text>
</g>
<!-- load -->
<g id="node5" class="node">
<title>load</title>
<path fill="#fee2e2" stroke="#dc2626" d="M498.35,-1062.35C498.35,-1062.35 281.15,-1062.35 281.15,-1062.35 275.15,-1062.35 269.15,-1056.35 269.15,-1050.35 269.15,-1050.35 269.15,-963.83 269.15,-963.83 269.15,-957.83 275.15,-951.83 281.15,-951.83 281.15,-951.83 498.35,-951.83 498.35,-951.83 504.35,-951.83 510.35,-957.83 510.35,-963.83 510.35,-963.83 510.35,-1050.35 510.35,-1050.35 510.35,-1056.35 504.35,-1062.35 498.35,-1062.35"/>
<text xml:space="preserve" text-anchor="middle" x="389.75" y="-1041.39" font-family="Helvetica,sans-Serif" font-size="16.00" fill="#0f172a">May 30&#45;31</text>
<text xml:space="preserve" text-anchor="middle" x="389.75" y="-1024.89" font-family="Helvetica,sans-Serif" font-size="16.00" fill="#0f172a">Load and resilience</text>
<text xml:space="preserve" text-anchor="middle" x="389.75" y="-1008.39" font-family="Helvetica,sans-Serif" font-size="16.00" fill="#0f172a">Traffic&#45;spike model</text>
<text xml:space="preserve" text-anchor="middle" x="389.75" y="-991.89" font-family="Helvetica,sans-Serif" font-size="16.00" fill="#0f172a">Cloud k6 runs</text>
<text xml:space="preserve" text-anchor="middle" x="389.75" y="-975.39" font-family="Helvetica,sans-Serif" font-size="16.00" fill="#0f172a">Comparison charts</text>
<text xml:space="preserve" text-anchor="middle" x="389.75" y="-958.89" font-family="Helvetica,sans-Serif" font-size="16.00" fill="#0f172a">40 rps then 60 rps baseline</text>
</g>
<!-- app&#45;&gt;load -->
<g id="edge6" class="edge">
<title>app&#45;&gt;load</title>
<path fill="none" stroke="#64748b" stroke-width="2" d="M262.2,-1108.62C278.34,-1095.9 295.61,-1082.29 312.07,-1069.32"/>
<polygon fill="#64748b" stroke="#64748b" stroke-width="2" points="313.66,-1071.62 318.21,-1064.47 310.2,-1067.23 313.66,-1071.62"/>
<text xml:space="preserve" text-anchor="middle" x="342.53" y="-1080.7" font-family="Helvetica,sans-Serif" font-size="12.00" fill="#334155">validate journeys</text>
</g>
<!-- obs&#45;&gt;load -->
<g id="edge5" class="edge">
<title>obs&#45;&gt;load</title>
<path fill="none" stroke="#64748b" stroke-width="2" d="M517.3,-1108.62C501.16,-1095.9 483.89,-1082.29 467.43,-1069.32"/>
<polygon fill="#64748b" stroke="#64748b" stroke-width="2" points="469.3,-1067.23 461.29,-1064.47 465.84,-1071.62 469.3,-1067.23"/>
<text xml:space="preserve" text-anchor="middle" x="538.78" y="-1080.7" font-family="Helvetica,sans-Serif" font-size="12.00" fill="#334155">exercise at scale</text>
</g>
<!-- ops -->
<g id="node6" class="node">
<title>ops</title>
<path fill="#e2e8f0" stroke="#475569" d="M498.35,-905.08C498.35,-905.08 281.15,-905.08 281.15,-905.08 275.15,-905.08 269.15,-899.08 269.15,-893.08 269.15,-893.08 269.15,-806.56 269.15,-806.56 269.15,-800.56 275.15,-794.56 281.15,-794.56 281.15,-794.56 498.35,-794.56 498.35,-794.56 504.35,-794.56 510.35,-800.56 510.35,-806.56 510.35,-806.56 510.35,-893.08 510.35,-893.08 510.35,-899.08 504.35,-905.08 498.35,-905.08"/>
<text xml:space="preserve" text-anchor="middle" x="389.75" y="-884.12" font-family="Helvetica,sans-Serif" font-size="16.00" fill="#0f172a">May 31</text>
<text xml:space="preserve" text-anchor="middle" x="389.75" y="-867.62" font-family="Helvetica,sans-Serif" font-size="16.00" fill="#0f172a">Operations loop</text>
<text xml:space="preserve" text-anchor="middle" x="389.75" y="-851.12" font-family="Helvetica,sans-Serif" font-size="16.00" fill="#0f172a">IRM on&#45;call setup</text>
<text xml:space="preserve" text-anchor="middle" x="389.75" y="-834.62" font-family="Helvetica,sans-Serif" font-size="16.00" fill="#0f172a">Kubelet RCA reports</text>
<text xml:space="preserve" text-anchor="middle" x="389.75" y="-818.12" font-family="Helvetica,sans-Serif" font-size="16.00" fill="#0f172a">Grafana Assistant comparison</text>
<text xml:space="preserve" text-anchor="middle" x="389.75" y="-801.62" font-family="Helvetica,sans-Serif" font-size="16.00" fill="#0f172a">Dashboard validation</text>
</g>
<!-- load&#45;&gt;ops -->
<g id="edge7" class="edge">
<title>load&#45;&gt;ops</title>
<path fill="none" stroke="#64748b" stroke-width="2" d="M389.75,-951.35C389.75,-940.03 389.75,-928.01 389.75,-916.35"/>
<polygon fill="#64748b" stroke="#64748b" stroke-width="2" points="392.55,-916.36 389.75,-908.36 386.95,-916.36 392.55,-916.36"/>
<text xml:space="preserve" text-anchor="middle" x="461.75" y="-923.43" font-family="Helvetica,sans-Serif" font-size="12.00" fill="#334155">turn failures into operations</text>
</g>
<!-- skills -->
<g id="node7" class="node">
<title>skills</title>
<path fill="#ccfbf1" stroke="#0d9488" d="M498.35,-747.81C498.35,-747.81 281.15,-747.81 281.15,-747.81 275.15,-747.81 269.15,-741.81 269.15,-735.81 269.15,-735.81 269.15,-665.79 269.15,-665.79 269.15,-659.79 275.15,-653.79 281.15,-653.79 281.15,-653.79 498.35,-653.79 498.35,-653.79 504.35,-653.79 510.35,-659.79 510.35,-665.79 510.35,-665.79 510.35,-735.81 510.35,-735.81 510.35,-741.81 504.35,-747.81 498.35,-747.81"/>
<text xml:space="preserve" text-anchor="middle" x="389.75" y="-726.85" font-family="Helvetica,sans-Serif" font-size="16.00" fill="#0f172a">May 30&#45;Jun 1</text>
<text xml:space="preserve" text-anchor="middle" x="389.75" y="-710.35" font-family="Helvetica,sans-Serif" font-size="16.00" fill="#0f172a">Reusable agent policy</text>
<text xml:space="preserve" text-anchor="middle" x="389.75" y="-693.85" font-family="Helvetica,sans-Serif" font-size="16.00" fill="#0f172a">Repo skills and personas</text>
<text xml:space="preserve" text-anchor="middle" x="389.75" y="-677.35" font-family="Helvetica,sans-Serif" font-size="16.00" fill="#0f172a">Slash&#45;command sync</text>
<text xml:space="preserve" text-anchor="middle" x="389.75" y="-660.85" font-family="Helvetica,sans-Serif" font-size="16.00" fill="#0f172a">CI checks for guidance</text>
</g>
<!-- ops&#45;&gt;skills -->
<g id="edge8" class="edge">
<title>ops&#45;&gt;skills</title>
<path fill="none" stroke="#64748b" stroke-width="2" d="M389.75,-794.08C389.75,-782.57 389.75,-770.4 389.75,-758.81"/>
<polygon fill="#64748b" stroke="#64748b" stroke-width="2" points="392.55,-758.95 389.75,-750.95 386.95,-758.95 392.55,-758.95"/>
<text xml:space="preserve" text-anchor="middle" x="439.62" y="-766.16" font-family="Helvetica,sans-Serif" font-size="12.00" fill="#334155">codify repeatability</text>
</g>
<!-- latest -->
<g id="node8" class="node">
<title>latest</title>
<path fill="#fce7f3" stroke="#db2777" d="M498.35,-607.04C498.35,-607.04 281.15,-607.04 281.15,-607.04 275.15,-607.04 269.15,-601.04 269.15,-595.04 269.15,-595.04 269.15,-508.52 269.15,-508.52 269.15,-502.52 275.15,-496.52 281.15,-496.52 281.15,-496.52 498.35,-496.52 498.35,-496.52 504.35,-496.52 510.35,-502.52 510.35,-508.52 510.35,-508.52 510.35,-595.04 510.35,-595.04 510.35,-601.04 504.35,-607.04 498.35,-607.04"/>
<text xml:space="preserve" text-anchor="middle" x="389.75" y="-586.08" font-family="Helvetica,sans-Serif" font-size="16.00" fill="#0f172a">Jun 2&#45;8</text>
<text xml:space="preserve" text-anchor="middle" x="389.75" y="-569.58" font-family="Helvetica,sans-Serif" font-size="16.00" fill="#0f172a">Latest evidence</text>
<text xml:space="preserve" text-anchor="middle" x="389.75" y="-553.08" font-family="Helvetica,sans-Serif" font-size="16.00" fill="#0f172a">120 rps baseline docs</text>
<text xml:space="preserve" text-anchor="middle" x="389.75" y="-536.58" font-family="Helvetica,sans-Serif" font-size="16.00" fill="#0f172a">Black Friday cart incident</text>
<text xml:space="preserve" text-anchor="middle" x="389.75" y="-520.08" font-family="Helvetica,sans-Serif" font-size="16.00" fill="#0f172a">Evolution docs</text>
<text xml:space="preserve" text-anchor="middle" x="389.75" y="-503.58" font-family="Helvetica,sans-Serif" font-size="16.00" fill="#0f172a">Load reports through 7718235</text>
</g>
<!-- skills&#45;&gt;latest -->
<g id="edge9" class="edge">
<title>skills&#45;&gt;latest</title>
<path fill="none" stroke="#64748b" stroke-width="2" d="M389.75,-653.69C389.75,-642.47 389.75,-630.25 389.75,-618.33"/>
<polygon fill="#64748b" stroke="#64748b" stroke-width="2" points="392.55,-618.51 389.75,-610.51 386.95,-618.51 392.55,-618.51"/>
<text xml:space="preserve" text-anchor="middle" x="448.62" y="-625.39" font-family="Helvetica,sans-Serif" font-size="12.00" fill="#334155">keep evidence current</text>
</g>
<!-- policy -->
<g id="node9" class="node">
<title>policy</title>
<path fill="#f3e8ff" stroke="#9333ea" d="M503.05,-449.77C503.05,-449.77 276.45,-449.77 276.45,-449.77 270.45,-449.77 264.45,-443.77 264.45,-437.77 264.45,-437.77 264.45,-334.75 264.45,-334.75 264.45,-328.75 270.45,-322.75 276.45,-322.75 276.45,-322.75 503.05,-322.75 503.05,-322.75 509.05,-322.75 515.05,-328.75 515.05,-334.75 515.05,-334.75 515.05,-437.77 515.05,-437.77 515.05,-443.77 509.05,-449.77 503.05,-449.77"/>
<text xml:space="preserve" text-anchor="middle" x="389.75" y="-428.81" font-family="Helvetica,sans-Serif" font-size="16.00" fill="#0f172a">Jun 9&#45;18</text>
<text xml:space="preserve" text-anchor="middle" x="389.75" y="-412.31" font-family="Helvetica,sans-Serif" font-size="16.00" fill="#0f172a">Evolution policy</text>
<text xml:space="preserve" text-anchor="middle" x="389.75" y="-395.81" font-family="Helvetica,sans-Serif" font-size="16.00" fill="#0f172a">AGENTS.md documentation rule</text>
<text xml:space="preserve" text-anchor="middle" x="389.75" y="-379.31" font-family="Helvetica,sans-Serif" font-size="16.00" fill="#0f172a">Graphviz skill workflow</text>
<text xml:space="preserve" text-anchor="middle" x="389.75" y="-362.81" font-family="Helvetica,sans-Serif" font-size="16.00" fill="#0f172a">100 rps routine baseline</text>
<text xml:space="preserve" text-anchor="middle" x="389.75" y="-346.31" font-family="Helvetica,sans-Serif" font-size="16.00" fill="#0f172a">IRM detection label required</text>
<text xml:space="preserve" text-anchor="middle" x="389.75" y="-329.81" font-family="Helvetica,sans-Serif" font-size="16.00" fill="#0f172a">Context hygiene audit</text>
</g>
<!-- latest&#45;&gt;policy -->
<g id="edge10" class="edge">
<title>latest&#45;&gt;policy</title>
<path fill="none" stroke="#64748b" stroke-width="2" d="M389.75,-496.33C389.75,-485.02 389.75,-472.92 389.75,-461.05"/>
<polygon fill="#64748b" stroke="#64748b" stroke-width="2" points="392.55,-461.27 389.75,-453.27 386.95,-461.27 392.55,-461.27"/>
<text xml:space="preserve" text-anchor="middle" x="448.62" y="-468.12" font-family="Helvetica,sans-Serif" font-size="12.00" fill="#334155">protect the chronology</text>
</g>
<!-- end_to_end -->
<g id="node10" class="node">
<title>end_to_end</title>
<path fill="#334155" stroke="none" d="M716,-276C716,-276 63.5,-276 63.5,-276 57.5,-276 51.5,-270 51.5,-264 51.5,-264 51.5,-12 51.5,-12 51.5,-6 57.5,0 63.5,0 63.5,0 716,0 716,0 722,0 728,-6 728,-12 728,-12 728,-264 728,-264 728,-270 722,-276 716,-276"/>
<polygon fill="#0f172a" stroke="none" points="51.5,-241.5 51.5,-276 728,-276 728,-241.5 51.5,-241.5"/>
<polygon fill="none" stroke="#334155" points="51.5,-241.5 51.5,-276 728,-276 728,-241.5 51.5,-241.5"/>
<text xml:space="preserve" text-anchor="start" x="290" y="-252.8" font-family="Helvetica,sans-Serif" font-weight="bold" font-size="16.00" fill="#f8fafc">End&#45;to&#45;End System Shape</text>
<polygon fill="#ffffff" stroke="none" points="51.5,-207 51.5,-241.5 728,-241.5 728,-207 51.5,-207"/>
<polygon fill="none" stroke="#334155" points="51.5,-207 51.5,-241.5 728,-241.5 728,-207 51.5,-207"/>
<text xml:space="preserve" text-anchor="start" x="60.5" y="-219.75" font-family="Helvetica,sans-Serif" font-size="16.00" fill="#0f172a">Storefront journeys: browse, cart, checkout, account, region, language</text>
<polygon fill="#ffffff" stroke="none" points="51.5,-172.5 51.5,-207 728,-207 728,-172.5 51.5,-172.5"/>
<polygon fill="none" stroke="#334155" points="51.5,-172.5 51.5,-207 728,-207 728,-172.5 51.5,-172.5"/>
<text xml:space="preserve" text-anchor="start" x="60.5" y="-185.25" font-family="Helvetica,sans-Serif" font-size="16.00" fill="#0f172a">Spring Boot services: inventory, cart, account</text>
<polygon fill="#ffffff" stroke="none" points="51.5,-138 51.5,-172.5 728,-172.5 728,-138 51.5,-138"/>
<polygon fill="none" stroke="#334155" points="51.5,-138 51.5,-172.5 728,-172.5 728,-138 51.5,-138"/>
<text xml:space="preserve" text-anchor="start" x="60.5" y="-150.75" font-family="Helvetica,sans-Serif" font-size="16.00" fill="#0f172a">AWS and Kubernetes: edge, auth, data, EKS, rollout controls</text>
<polygon fill="#ffffff" stroke="none" points="51.5,-103.5 51.5,-138 728,-138 728,-103.5 51.5,-103.5"/>
<polygon fill="none" stroke="#334155" points="51.5,-103.5 51.5,-138 728,-138 728,-103.5 51.5,-103.5"/>
<text xml:space="preserve" text-anchor="start" x="60.5" y="-116.25" font-family="Helvetica,sans-Serif" font-size="16.00" fill="#0f172a">Grafana Cloud: Faro, Alloy, Beyla, dashboards, IRM, reports</text>
<polygon fill="#ffffff" stroke="none" points="51.5,-69 51.5,-103.5 728,-103.5 728,-69 51.5,-69"/>
<polygon fill="none" stroke="#334155" points="51.5,-69 51.5,-103.5 728,-103.5 728,-69 51.5,-69"/>
<text xml:space="preserve" text-anchor="start" x="60.5" y="-81.75" font-family="Helvetica,sans-Serif" font-size="16.00" fill="#0f172a">Verification: Playwright, k6 protocol, k6 browser actions, GCX queries</text>
<polygon fill="#ffffff" stroke="none" points="51.5,-34.5 51.5,-69 728,-69 728,-34.5 51.5,-34.5"/>
<polygon fill="none" stroke="#334155" points="51.5,-34.5 51.5,-69 728,-69 728,-34.5 51.5,-34.5"/>
<text xml:space="preserve" text-anchor="start" x="60.5" y="-47.25" font-family="Helvetica,sans-Serif" font-size="16.00" fill="#0f172a">Communication: Markdown runbooks plus Graphviz DOT, SVG, PNG</text>
<polygon fill="#ffffff" stroke="none" points="51.5,0 51.5,-34.5 728,-34.5 728,0 51.5,0"/>
<polygon fill="none" stroke="#334155" points="51.5,0 51.5,-34.5 728,-34.5 728,0 51.5,0"/>
<text xml:space="preserve" text-anchor="start" x="60.5" y="-12.75" font-family="Helvetica,sans-Serif" font-size="16.00" fill="#0f172a">Memory: EVOLUTION.md, category files, agent policy, required IRM labels, context hygiene</text>
</g>
<!-- policy&#45;&gt;end_to_end -->
<g id="edge11" class="edge">
<title>policy&#45;&gt;end_to_end</title>
<path fill="none" stroke="#64748b" stroke-width="2" d="M389.75,-322.48C389.75,-311.13 389.75,-298.86 389.75,-286.24"/>
<polygon fill="#64748b" stroke="#64748b" stroke-width="2" points="392.55,-286.6 389.75,-278.6 386.95,-286.6 392.55,-286.6"/>
<text xml:space="preserve" text-anchor="middle" x="422.38" y="-294.35" font-family="Helvetica,sans-Serif" font-size="12.00" fill="#334155">current state</text>
</g>
</g>
</svg>
