<?xml version="1.0" encoding="UTF-8" standalone="no"?>
<!DOCTYPE svg PUBLIC "-//W3C//DTD SVG 1.1//EN"
 "http://www.w3.org/Graphics/SVG/1.1/DTD/svg11.dtd">
<!-- Generated by graphviz version 15.0.0 (20260523.1842)
 -->
<!-- Title: ensemble_evolution_timeline Pages: 1 -->
<svg width="800pt" height="1729pt"
 viewBox="0.00 0.00 800.00 1729.00" xmlns="http://www.w3.org/2000/svg" xmlns:xlink="http://www.w3.org/1999/xlink">
<g id="graph0" class="graph" transform="scale(1 1) rotate(0) translate(25.2 1703.63)">
<title>ensemble_evolution_timeline</title>
<polygon fill="#ffffff" stroke="none" points="-25.2,25.2 -25.2,-1703.63 774.7,-1703.63 774.7,25.2 -25.2,25.2"/>
<text xml:space="preserve" text-anchor="middle" x="374.75" y="-1647.83" font-family="Helvetica,sans-Serif" font-size="28.00">Ensemble&#45;Retail Evolution: First Prompt to Latest Evidence</text>
<!-- seed -->
<g id="node1" class="node">
<title>seed</title>
<path fill="#e0f2fe" stroke="#0284c7" d="M487.05,-1641.93C487.05,-1641.93 260.45,-1641.93 260.45,-1641.93 254.45,-1641.93 248.45,-1635.93 248.45,-1629.93 248.45,-1629.93 248.45,-1576.41 248.45,-1576.41 248.45,-1570.41 254.45,-1564.41 260.45,-1564.41 260.45,-1564.41 487.05,-1564.41 487.05,-1564.41 493.05,-1564.41 499.05,-1570.41 499.05,-1576.41 499.05,-1576.41 499.05,-1629.93 499.05,-1629.93 499.05,-1635.93 493.05,-1641.93 487.05,-1641.93"/>
<text xml:space="preserve" text-anchor="middle" x="373.75" y="-1620.97" font-family="Helvetica,sans-Serif" font-size="16.00" fill="#0f172a">May 24&#45;25</text>
<text xml:space="preserve" text-anchor="middle" x="373.75" y="-1604.47" font-family="Helvetica,sans-Serif" font-size="16.00" fill="#0f172a">Product seed</text>
<text xml:space="preserve" text-anchor="middle" x="373.75" y="-1587.97" font-family="Helvetica,sans-Serif" font-size="16.00" fill="#0f172a">Promptable ecommerce platform</text>
<text xml:space="preserve" text-anchor="middle" x="373.75" y="-1571.47" font-family="Helvetica,sans-Serif" font-size="16.00" fill="#0f172a">README live demo framing</text>
</g>
<!-- validate -->
<g id="node2" class="node">
<title>validate</title>
<path fill="#dcfce7" stroke="#16a34a" d="M482.35,-1517.66C482.35,-1517.66 265.15,-1517.66 265.15,-1517.66 259.15,-1517.66 253.15,-1511.66 253.15,-1505.66 253.15,-1505.66 253.15,-1419.14 253.15,-1419.14 253.15,-1413.14 259.15,-1407.14 265.15,-1407.14 265.15,-1407.14 482.35,-1407.14 482.35,-1407.14 488.35,-1407.14 494.35,-1413.14 494.35,-1419.14 494.35,-1419.14 494.35,-1505.66 494.35,-1505.66 494.35,-1511.66 488.35,-1517.66 482.35,-1517.66"/>
<text xml:space="preserve" text-anchor="middle" x="373.75" y="-1496.7" font-family="Helvetica,sans-Serif" font-size="16.00" fill="#0f172a">May 27&#45;29</text>
<text xml:space="preserve" text-anchor="middle" x="373.75" y="-1480.2" font-family="Helvetica,sans-Serif" font-size="16.00" fill="#0f172a">Validation foundation</text>
<text xml:space="preserve" text-anchor="middle" x="373.75" y="-1463.7" font-family="Helvetica,sans-Serif" font-size="16.00" fill="#0f172a">Grafana dashboards</text>
<text xml:space="preserve" text-anchor="middle" x="373.75" y="-1447.2" font-family="Helvetica,sans-Serif" font-size="16.00" fill="#0f172a">Guarded baseline stack</text>
<text xml:space="preserve" text-anchor="middle" x="373.75" y="-1430.7" font-family="Helvetica,sans-Serif" font-size="16.00" fill="#0f172a">k6 Faro actions</text>
<text xml:space="preserve" text-anchor="middle" x="373.75" y="-1414.2" font-family="Helvetica,sans-Serif" font-size="16.00" fill="#0f172a">Playwright regression</text>
</g>
<!-- seed&#45;&gt;validate -->
<g id="edge1" class="edge">
<title>seed&#45;&gt;validate</title>
<path fill="none" stroke="#64748b" stroke-width="2" d="M373.75,-1564.25C373.75,-1553.2 373.75,-1540.8 373.75,-1528.58"/>
<polygon fill="#64748b" stroke="#64748b" stroke-width="2" points="376.55,-1528.95 373.75,-1520.95 370.95,-1528.95 376.55,-1528.95"/>
<text xml:space="preserve" text-anchor="middle" x="415.38" y="-1536.01" font-family="Helvetica,sans-Serif" font-size="12.00" fill="#334155">make it testable</text>
</g>
<!-- app -->
<g id="node3" class="node">
<title>app</title>
<path fill="#fef3c7" stroke="#d97706" d="M286.35,-1360.39C286.35,-1360.39 69.15,-1360.39 69.15,-1360.39 63.15,-1360.39 57.15,-1354.39 57.15,-1348.39 57.15,-1348.39 57.15,-1261.87 57.15,-1261.87 57.15,-1255.87 63.15,-1249.87 69.15,-1249.87 69.15,-1249.87 286.35,-1249.87 286.35,-1249.87 292.35,-1249.87 298.35,-1255.87 298.35,-1261.87 298.35,-1261.87 298.35,-1348.39 298.35,-1348.39 298.35,-1354.39 292.35,-1360.39 286.35,-1360.39"/>
<text xml:space="preserve" text-anchor="middle" x="177.75" y="-1339.43" font-family="Helvetica,sans-Serif" font-size="16.00" fill="#0f172a">May 30</text>
<text xml:space="preserve" text-anchor="middle" x="177.75" y="-1322.93" font-family="Helvetica,sans-Serif" font-size="16.00" fill="#0f172a">Storefront maturity</text>
<text xml:space="preserve" text-anchor="middle" x="177.75" y="-1306.43" font-family="Helvetica,sans-Serif" font-size="16.00" fill="#0f172a">Checkout Grafana link</text>
<text xml:space="preserve" text-anchor="middle" x="177.75" y="-1289.93" font-family="Helvetica,sans-Serif" font-size="16.00" fill="#0f172a">Sweden localization</text>
<text xml:space="preserve" text-anchor="middle" x="177.75" y="-1273.43" font-family="Helvetica,sans-Serif" font-size="16.00" fill="#0f172a">Responsive UI fixes</text>
<text xml:space="preserve" text-anchor="middle" x="177.75" y="-1256.93" font-family="Helvetica,sans-Serif" font-size="16.00" fill="#0f172a">Post&#45;deploy reports</text>
</g>
<!-- validate&#45;&gt;app -->
<g id="edge2" class="edge">
<title>validate&#45;&gt;app</title>
<path fill="none" stroke="#64748b" stroke-width="2" d="M304.65,-1406.66C288.6,-1393.94 271.41,-1380.33 255.04,-1367.36"/>
<polygon fill="#64748b" stroke="#64748b" stroke-width="2" points="256.94,-1365.29 248.93,-1362.52 253.46,-1369.68 256.94,-1365.29"/>
<text xml:space="preserve" text-anchor="middle" x="349.5" y="-1378.74" font-family="Helvetica,sans-Serif" font-size="12.00" fill="#334155">expand shopper behavior</text>
</g>
<!-- obs -->
<g id="node4" class="node">
<title>obs</title>
<path fill="#ede9fe" stroke="#7c3aed" d="M680.35,-1360.39C680.35,-1360.39 463.15,-1360.39 463.15,-1360.39 457.15,-1360.39 451.15,-1354.39 451.15,-1348.39 451.15,-1348.39 451.15,-1261.87 451.15,-1261.87 451.15,-1255.87 457.15,-1249.87 463.15,-1249.87 463.15,-1249.87 680.35,-1249.87 680.35,-1249.87 686.35,-1249.87 692.35,-1255.87 692.35,-1261.87 692.35,-1261.87 692.35,-1348.39 692.35,-1348.39 692.35,-1354.39 686.35,-1360.39 680.35,-1360.39"/>
<text xml:space="preserve" text-anchor="middle" x="571.75" y="-1339.43" font-family="Helvetica,sans-Serif" font-size="16.00" fill="#0f172a">May 30</text>
<text xml:space="preserve" text-anchor="middle" x="571.75" y="-1322.93" font-family="Helvetica,sans-Serif" font-size="16.00" fill="#0f172a">Telemetry expansion</text>
<text xml:space="preserve" text-anchor="middle" x="571.75" y="-1306.43" font-family="Helvetica,sans-Serif" font-size="16.00" fill="#0f172a">CloudWatch discovery</text>
<text xml:space="preserve" text-anchor="middle" x="571.75" y="-1289.93" font-family="Helvetica,sans-Serif" font-size="16.00" fill="#0f172a">Faro action reports</text>
<text xml:space="preserve" text-anchor="middle" x="571.75" y="-1273.43" font-family="Helvetica,sans-Serif" font-size="16.00" fill="#0f172a">Alloy/Beyla runbooks</text>
<text xml:space="preserve" text-anchor="middle" x="571.75" y="-1256.93" font-family="Helvetica,sans-Serif" font-size="16.00" fill="#0f172a">Dashboard conventions</text>
</g>
<!-- validate&#45;&gt;obs -->
<g id="edge3" class="edge">
<title>validate&#45;&gt;obs</title>
<path fill="none" stroke="#64748b" stroke-width="2" d="M443.56,-1406.66C459.77,-1393.94 477.13,-1380.33 493.67,-1367.36"/>
<polygon fill="#64748b" stroke="#64748b" stroke-width="2" points="495.29,-1369.65 499.86,-1362.51 491.83,-1365.24 495.29,-1369.65"/>
<text xml:space="preserve" text-anchor="middle" x="532.31" y="-1378.74" font-family="Helvetica,sans-Serif" font-size="12.00" fill="#334155">instrument telemetry</text>
</g>
<!-- app&#45;&gt;obs -->
<g id="edge4" class="edge">
<title>app&#45;&gt;obs</title>
<path fill="none" stroke="#64748b" stroke-width="2" d="M298.64,-1305.13C343.35,-1305.13 394.24,-1305.13 439.88,-1305.13"/>
<polygon fill="#64748b" stroke="#64748b" stroke-width="2" points="439.72,-1307.93 447.72,-1305.13 439.72,-1302.33 439.72,-1307.93"/>
<text xml:space="preserve" text-anchor="middle" x="374.75" y="-1309.48" font-family="Helvetica,sans-Serif" font-size="12.00" fill="#334155">instrument user actions</text>
</g>
<!-- load -->
<g id="node5" class="node">
<title>load</title>
<path fill="#fee2e2" stroke="#dc2626" d="M483.35,-1203.12C483.35,-1203.12 266.15,-1203.12 266.15,-1203.12 260.15,-1203.12 254.15,-1197.12 254.15,-1191.12 254.15,-1191.12 254.15,-1104.6 254.15,-1104.6 254.15,-1098.6 260.15,-1092.6 266.15,-1092.6 266.15,-1092.6 483.35,-1092.6 483.35,-1092.6 489.35,-1092.6 495.35,-1098.6 495.35,-1104.6 495.35,-1104.6 495.35,-1191.12 495.35,-1191.12 495.35,-1197.12 489.35,-1203.12 483.35,-1203.12"/>
<text xml:space="preserve" text-anchor="middle" x="374.75" y="-1182.16" font-family="Helvetica,sans-Serif" font-size="16.00" fill="#0f172a">May 30&#45;31</text>
<text xml:space="preserve" text-anchor="middle" x="374.75" y="-1165.66" font-family="Helvetica,sans-Serif" font-size="16.00" fill="#0f172a">Load and resilience</text>
<text xml:space="preserve" text-anchor="middle" x="374.75" y="-1149.16" font-family="Helvetica,sans-Serif" font-size="16.00" fill="#0f172a">Traffic&#45;spike model</text>
<text xml:space="preserve" text-anchor="middle" x="374.75" y="-1132.66" font-family="Helvetica,sans-Serif" font-size="16.00" fill="#0f172a">Cloud k6 runs</text>
<text xml:space="preserve" text-anchor="middle" x="374.75" y="-1116.16" font-family="Helvetica,sans-Serif" font-size="16.00" fill="#0f172a">Comparison charts</text>
<text xml:space="preserve" text-anchor="middle" x="374.75" y="-1099.66" font-family="Helvetica,sans-Serif" font-size="16.00" fill="#0f172a">40 rps then 60 rps baseline</text>
</g>
<!-- app&#45;&gt;load -->
<g id="edge6" class="edge">
<title>app&#45;&gt;load</title>
<path fill="none" stroke="#64748b" stroke-width="2" d="M247.2,-1249.39C263.34,-1236.67 280.61,-1223.06 297.07,-1210.09"/>
<polygon fill="#64748b" stroke="#64748b" stroke-width="2" points="298.66,-1212.39 303.21,-1205.24 295.2,-1208 298.66,-1212.39"/>
<text xml:space="preserve" text-anchor="middle" x="327.53" y="-1221.47" font-family="Helvetica,sans-Serif" font-size="12.00" fill="#334155">validate journeys</text>
</g>
<!-- obs&#45;&gt;load -->
<g id="edge5" class="edge">
<title>obs&#45;&gt;load</title>
<path fill="none" stroke="#64748b" stroke-width="2" d="M502.3,-1249.39C486.16,-1236.67 468.89,-1223.06 452.43,-1210.09"/>
<polygon fill="#64748b" stroke="#64748b" stroke-width="2" points="454.3,-1208 446.29,-1205.24 450.84,-1212.39 454.3,-1208"/>
<text xml:space="preserve" text-anchor="middle" x="523.78" y="-1221.47" font-family="Helvetica,sans-Serif" font-size="12.00" fill="#334155">exercise at scale</text>
</g>
<!-- ops -->
<g id="node6" class="node">
<title>ops</title>
<path fill="#e2e8f0" stroke="#475569" d="M483.35,-1045.85C483.35,-1045.85 266.15,-1045.85 266.15,-1045.85 260.15,-1045.85 254.15,-1039.85 254.15,-1033.85 254.15,-1033.85 254.15,-947.33 254.15,-947.33 254.15,-941.33 260.15,-935.33 266.15,-935.33 266.15,-935.33 483.35,-935.33 483.35,-935.33 489.35,-935.33 495.35,-941.33 495.35,-947.33 495.35,-947.33 495.35,-1033.85 495.35,-1033.85 495.35,-1039.85 489.35,-1045.85 483.35,-1045.85"/>
<text xml:space="preserve" text-anchor="middle" x="374.75" y="-1024.89" font-family="Helvetica,sans-Serif" font-size="16.00" fill="#0f172a">May 31</text>
<text xml:space="preserve" text-anchor="middle" x="374.75" y="-1008.39" font-family="Helvetica,sans-Serif" font-size="16.00" fill="#0f172a">Operations loop</text>
<text xml:space="preserve" text-anchor="middle" x="374.75" y="-991.89" font-family="Helvetica,sans-Serif" font-size="16.00" fill="#0f172a">IRM on&#45;call setup</text>
<text xml:space="preserve" text-anchor="middle" x="374.75" y="-975.39" font-family="Helvetica,sans-Serif" font-size="16.00" fill="#0f172a">Kubelet RCA reports</text>
<text xml:space="preserve" text-anchor="middle" x="374.75" y="-958.89" font-family="Helvetica,sans-Serif" font-size="16.00" fill="#0f172a">Grafana Assistant comparison</text>
<text xml:space="preserve" text-anchor="middle" x="374.75" y="-942.39" font-family="Helvetica,sans-Serif" font-size="16.00" fill="#0f172a">Dashboard validation</text>
</g>
<!-- load&#45;&gt;ops -->
<g id="edge7" class="edge">
<title>load&#45;&gt;ops</title>
<path fill="none" stroke="#64748b" stroke-width="2" d="M374.75,-1092.12C374.75,-1080.8 374.75,-1068.78 374.75,-1057.12"/>
<polygon fill="#64748b" stroke="#64748b" stroke-width="2" points="377.55,-1057.13 374.75,-1049.13 371.95,-1057.13 377.55,-1057.13"/>
<text xml:space="preserve" text-anchor="middle" x="446.75" y="-1064.2" font-family="Helvetica,sans-Serif" font-size="12.00" fill="#334155">turn failures into operations</text>
</g>
<!-- skills -->
<g id="node7" class="node">
<title>skills</title>
<path fill="#ccfbf1" stroke="#0d9488" d="M483.35,-888.58C483.35,-888.58 266.15,-888.58 266.15,-888.58 260.15,-888.58 254.15,-882.58 254.15,-876.58 254.15,-876.58 254.15,-806.56 254.15,-806.56 254.15,-800.56 260.15,-794.56 266.15,-794.56 266.15,-794.56 483.35,-794.56 483.35,-794.56 489.35,-794.56 495.35,-800.56 495.35,-806.56 495.35,-806.56 495.35,-876.58 495.35,-876.58 495.35,-882.58 489.35,-888.58 483.35,-888.58"/>
<text xml:space="preserve" text-anchor="middle" x="374.75" y="-867.62" font-family="Helvetica,sans-Serif" font-size="16.00" fill="#0f172a">May 30&#45;Jun 1</text>
<text xml:space="preserve" text-anchor="middle" x="374.75" y="-851.12" font-family="Helvetica,sans-Serif" font-size="16.00" fill="#0f172a">Reusable agent policy</text>
<text xml:space="preserve" text-anchor="middle" x="374.75" y="-834.62" font-family="Helvetica,sans-Serif" font-size="16.00" fill="#0f172a">Repo skills and personas</text>
<text xml:space="preserve" text-anchor="middle" x="374.75" y="-818.12" font-family="Helvetica,sans-Serif" font-size="16.00" fill="#0f172a">Slash&#45;command sync</text>
<text xml:space="preserve" text-anchor="middle" x="374.75" y="-801.62" font-family="Helvetica,sans-Serif" font-size="16.00" fill="#0f172a">CI checks for guidance</text>
</g>
<!-- ops&#45;&gt;skills -->
<g id="edge8" class="edge">
<title>ops&#45;&gt;skills</title>
<path fill="none" stroke="#64748b" stroke-width="2" d="M374.75,-934.85C374.75,-923.34 374.75,-911.17 374.75,-899.58"/>
<polygon fill="#64748b" stroke="#64748b" stroke-width="2" points="377.55,-899.72 374.75,-891.72 371.95,-899.72 377.55,-899.72"/>
<text xml:space="preserve" text-anchor="middle" x="424.62" y="-906.93" font-family="Helvetica,sans-Serif" font-size="12.00" fill="#334155">codify repeatability</text>
</g>
<!-- latest -->
<g id="node8" class="node">
<title>latest</title>
<path fill="#fce7f3" stroke="#db2777" d="M483.35,-747.81C483.35,-747.81 266.15,-747.81 266.15,-747.81 260.15,-747.81 254.15,-741.81 254.15,-735.81 254.15,-735.81 254.15,-649.29 254.15,-649.29 254.15,-643.29 260.15,-637.29 266.15,-637.29 266.15,-637.29 483.35,-637.29 483.35,-637.29 489.35,-637.29 495.35,-643.29 495.35,-649.29 495.35,-649.29 495.35,-735.81 495.35,-735.81 495.35,-741.81 489.35,-747.81 483.35,-747.81"/>
<text xml:space="preserve" text-anchor="middle" x="374.75" y="-726.85" font-family="Helvetica,sans-Serif" font-size="16.00" fill="#0f172a">Jun 2&#45;8</text>
<text xml:space="preserve" text-anchor="middle" x="374.75" y="-710.35" font-family="Helvetica,sans-Serif" font-size="16.00" fill="#0f172a">Latest evidence</text>
<text xml:space="preserve" text-anchor="middle" x="374.75" y="-693.85" font-family="Helvetica,sans-Serif" font-size="16.00" fill="#0f172a">120 rps baseline docs</text>
<text xml:space="preserve" text-anchor="middle" x="374.75" y="-677.35" font-family="Helvetica,sans-Serif" font-size="16.00" fill="#0f172a">Black Friday cart incident</text>
<text xml:space="preserve" text-anchor="middle" x="374.75" y="-660.85" font-family="Helvetica,sans-Serif" font-size="16.00" fill="#0f172a">Evolution docs</text>
<text xml:space="preserve" text-anchor="middle" x="374.75" y="-644.35" font-family="Helvetica,sans-Serif" font-size="16.00" fill="#0f172a">Load reports through 7718235</text>
</g>
<!-- skills&#45;&gt;latest -->
<g id="edge9" class="edge">
<title>skills&#45;&gt;latest</title>
<path fill="none" stroke="#64748b" stroke-width="2" d="M374.75,-794.46C374.75,-783.24 374.75,-771.02 374.75,-759.1"/>
<polygon fill="#64748b" stroke="#64748b" stroke-width="2" points="377.55,-759.28 374.75,-751.28 371.95,-759.28 377.55,-759.28"/>
<text xml:space="preserve" text-anchor="middle" x="433.62" y="-766.16" font-family="Helvetica,sans-Serif" font-size="12.00" fill="#334155">keep evidence current</text>
</g>
<!-- policy -->
<g id="node9" class="node">
<title>policy</title>
<path fill="#f3e8ff" stroke="#9333ea" d="M488.05,-590.54C488.05,-590.54 261.45,-590.54 261.45,-590.54 255.45,-590.54 249.45,-584.54 249.45,-578.54 249.45,-578.54 249.45,-475.52 249.45,-475.52 249.45,-469.52 255.45,-463.52 261.45,-463.52 261.45,-463.52 488.05,-463.52 488.05,-463.52 494.05,-463.52 500.05,-469.52 500.05,-475.52 500.05,-475.52 500.05,-578.54 500.05,-578.54 500.05,-584.54 494.05,-590.54 488.05,-590.54"/>
<text xml:space="preserve" text-anchor="middle" x="374.75" y="-569.58" font-family="Helvetica,sans-Serif" font-size="16.00" fill="#0f172a">Jun 9&#45;26</text>
<text xml:space="preserve" text-anchor="middle" x="374.75" y="-553.08" font-family="Helvetica,sans-Serif" font-size="16.00" fill="#0f172a">Evolution policy</text>
<text xml:space="preserve" text-anchor="middle" x="374.75" y="-536.58" font-family="Helvetica,sans-Serif" font-size="16.00" fill="#0f172a">AGENTS.md documentation rule</text>
<text xml:space="preserve" text-anchor="middle" x="374.75" y="-520.08" font-family="Helvetica,sans-Serif" font-size="16.00" fill="#0f172a">Graphviz skill workflow</text>
<text xml:space="preserve" text-anchor="middle" x="374.75" y="-503.58" font-family="Helvetica,sans-Serif" font-size="16.00" fill="#0f172a">5 rps routine baseline</text>
<text xml:space="preserve" text-anchor="middle" x="374.75" y="-487.08" font-family="Helvetica,sans-Serif" font-size="16.00" fill="#0f172a">Synthetic checks disabled</text>
<text xml:space="preserve" text-anchor="middle" x="374.75" y="-470.58" font-family="Helvetica,sans-Serif" font-size="16.00" fill="#0f172a">IRM detection + context hygiene</text>
</g>
<!-- latest&#45;&gt;policy -->
<g id="edge10" class="edge">
<title>latest&#45;&gt;policy</title>
<path fill="none" stroke="#64748b" stroke-width="2" d="M374.75,-637.1C374.75,-625.79 374.75,-613.69 374.75,-601.82"/>
<polygon fill="#64748b" stroke="#64748b" stroke-width="2" points="377.55,-602.04 374.75,-594.04 371.95,-602.04 377.55,-602.04"/>
<text xml:space="preserve" text-anchor="middle" x="433.62" y="-608.89" font-family="Helvetica,sans-Serif" font-size="12.00" fill="#334155">protect the chronology</text>
</g>
<!-- rename -->
<g id="node10" class="node">
<title>rename</title>
<path fill="#dbeafe" stroke="#2563eb" d="M483.35,-416.77C483.35,-416.77 266.15,-416.77 266.15,-416.77 260.15,-416.77 254.15,-410.77 254.15,-404.77 254.15,-404.77 254.15,-334.75 254.15,-334.75 254.15,-328.75 260.15,-322.75 266.15,-322.75 266.15,-322.75 483.35,-322.75 483.35,-322.75 489.35,-322.75 495.35,-328.75 495.35,-334.75 495.35,-334.75 495.35,-404.77 495.35,-404.77 495.35,-410.77 489.35,-416.77 483.35,-416.77"/>
<text xml:space="preserve" text-anchor="middle" x="374.75" y="-395.81" font-family="Helvetica,sans-Serif" font-size="16.00" fill="#0f172a">Jun 28</text>
<text xml:space="preserve" text-anchor="middle" x="374.75" y="-379.31" font-family="Helvetica,sans-Serif" font-size="16.00" fill="#0f172a">Safe repository rename</text>
<text xml:space="preserve" text-anchor="middle" x="374.75" y="-362.81" font-family="Helvetica,sans-Serif" font-size="16.00" fill="#0f172a">Ensemble&#45;Retail identity</text>
<text xml:space="preserve" text-anchor="middle" x="374.75" y="-346.31" font-family="Helvetica,sans-Serif" font-size="16.00" fill="#0f172a">Canonical retail domain</text>
<text xml:space="preserve" text-anchor="middle" x="374.75" y="-329.81" font-family="Helvetica,sans-Serif" font-size="16.00" fill="#0f172a">Legacy resource IDs retained</text>
</g>
<!-- policy&#45;&gt;rename -->
<g id="edge11" class="edge">
<title>policy&#45;&gt;rename</title>
<path fill="none" stroke="#64748b" stroke-width="2" d="M374.75,-463.32C374.75,-451.59 374.75,-439.38 374.75,-427.82"/>
<polygon fill="#64748b" stroke="#64748b" stroke-width="2" points="377.55,-428.01 374.75,-420.01 371.95,-428.01 377.55,-428.01"/>
<text xml:space="preserve" text-anchor="middle" x="412.25" y="-435.12" font-family="Helvetica,sans-Serif" font-size="12.00" fill="#334155">rename safely</text>
</g>
<!-- end_to_end -->
<g id="node11" class="node">
<title>end_to_end</title>
<path fill="#334155" stroke="none" d="M701,-276C701,-276 48.5,-276 48.5,-276 42.5,-276 36.5,-270 36.5,-264 36.5,-264 36.5,-12 36.5,-12 36.5,-6 42.5,0 48.5,0 48.5,0 701,0 701,0 707,0 713,-6 713,-12 713,-12 713,-264 713,-264 713,-270 707,-276 701,-276"/>
<polygon fill="#0f172a" stroke="none" points="36.5,-241.5 36.5,-276 713,-276 713,-241.5 36.5,-241.5"/>
<polygon fill="none" stroke="#334155" points="36.5,-241.5 36.5,-276 713,-276 713,-241.5 36.5,-241.5"/>
<text xml:space="preserve" text-anchor="start" x="275" y="-252.8" font-family="Helvetica,sans-Serif" font-weight="bold" font-size="16.00" fill="#f8fafc">End&#45;to&#45;End System Shape</text>
<polygon fill="#ffffff" stroke="none" points="36.5,-207 36.5,-241.5 713,-241.5 713,-207 36.5,-207"/>
<polygon fill="none" stroke="#334155" points="36.5,-207 36.5,-241.5 713,-241.5 713,-207 36.5,-207"/>
<text xml:space="preserve" text-anchor="start" x="45.5" y="-219.75" font-family="Helvetica,sans-Serif" font-size="16.00" fill="#0f172a">Storefront journeys: browse, cart, checkout, account, region, language</text>
<polygon fill="#ffffff" stroke="none" points="36.5,-172.5 36.5,-207 713,-207 713,-172.5 36.5,-172.5"/>
<polygon fill="none" stroke="#334155" points="36.5,-172.5 36.5,-207 713,-207 713,-172.5 36.5,-172.5"/>
<text xml:space="preserve" text-anchor="start" x="45.5" y="-185.25" font-family="Helvetica,sans-Serif" font-size="16.00" fill="#0f172a">Spring Boot services: inventory, cart, account</text>
<polygon fill="#ffffff" stroke="none" points="36.5,-138 36.5,-172.5 713,-172.5 713,-138 36.5,-138"/>
<polygon fill="none" stroke="#334155" points="36.5,-138 36.5,-172.5 713,-172.5 713,-138 36.5,-138"/>
<text xml:space="preserve" text-anchor="start" x="45.5" y="-150.75" font-family="Helvetica,sans-Serif" font-size="16.00" fill="#0f172a">AWS and Kubernetes: edge, auth, data, EKS, rollout controls</text>
<polygon fill="#ffffff" stroke="none" points="36.5,-103.5 36.5,-138 713,-138 713,-103.5 36.5,-103.5"/>
<polygon fill="none" stroke="#334155" points="36.5,-103.5 36.5,-138 713,-138 713,-103.5 36.5,-103.5"/>
<text xml:space="preserve" text-anchor="start" x="45.5" y="-116.25" font-family="Helvetica,sans-Serif" font-size="16.00" fill="#0f172a">Grafana Cloud: Faro, Alloy, Beyla, dashboards, IRM, reports</text>
<polygon fill="#ffffff" stroke="none" points="36.5,-69 36.5,-103.5 713,-103.5 713,-69 36.5,-69"/>
<polygon fill="none" stroke="#334155" points="36.5,-69 36.5,-103.5 713,-103.5 713,-69 36.5,-69"/>
<text xml:space="preserve" text-anchor="start" x="45.5" y="-81.75" font-family="Helvetica,sans-Serif" font-size="16.00" fill="#0f172a">Verification: Playwright, k6 protocol, k6 browser actions, GCX queries</text>
<polygon fill="#ffffff" stroke="none" points="36.5,-34.5 36.5,-69 713,-69 713,-34.5 36.5,-34.5"/>
<polygon fill="none" stroke="#334155" points="36.5,-34.5 36.5,-69 713,-69 713,-34.5 36.5,-34.5"/>
<text xml:space="preserve" text-anchor="start" x="45.5" y="-47.25" font-family="Helvetica,sans-Serif" font-size="16.00" fill="#0f172a">Communication: Markdown runbooks plus Graphviz DOT, SVG, PNG</text>
<polygon fill="#ffffff" stroke="none" points="36.5,0 36.5,-34.5 713,-34.5 713,0 36.5,0"/>
<polygon fill="none" stroke="#334155" points="36.5,0 36.5,-34.5 713,-34.5 713,0 36.5,0"/>
<text xml:space="preserve" text-anchor="start" x="45.5" y="-12.75" font-family="Helvetica,sans-Serif" font-size="16.00" fill="#0f172a">Memory: EVOLUTION.md, category files, agent policy, required IRM labels, context hygiene</text>
</g>
<!-- rename&#45;&gt;end_to_end -->
<g id="edge12" class="edge">
<title>rename&#45;&gt;end_to_end</title>
<path fill="none" stroke="#64748b" stroke-width="2" d="M374.75,-322.26C374.75,-311.41 374.75,-299.27 374.75,-286.54"/>
<polygon fill="#64748b" stroke="#64748b" stroke-width="2" points="377.55,-286.76 374.75,-278.76 371.95,-286.76 377.55,-286.76"/>
<text xml:space="preserve" text-anchor="middle" x="407.38" y="-294.35" font-family="Helvetica,sans-Serif" font-size="12.00" fill="#334155">current state</text>
</g>
</g>
</svg>
