<?xml version="1.0" encoding="UTF-8" standalone="no"?>
<!DOCTYPE svg PUBLIC "-//W3C//DTD SVG 1.1//EN"
 "http://www.w3.org/Graphics/SVG/1.1/DTD/svg11.dtd">
<!-- Generated by graphviz version 15.0.0 (20260523.1842)
 -->
<!-- Title: ensemble_evolution_timeline_dark Pages: 1 -->
<svg width="830pt" height="1555pt"
 viewBox="0.00 0.00 830.00 1555.00" xmlns="http://www.w3.org/2000/svg" xmlns:xlink="http://www.w3.org/1999/xlink">
<g id="graph0" class="graph" transform="scale(1 1) rotate(0) translate(25.2 1529.86)">
<title>ensemble_evolution_timeline_dark</title>
<polygon fill="#020617" stroke="none" points="-25.2,25.2 -25.2,-1529.86 804.7,-1529.86 804.7,25.2 -25.2,25.2"/>
<text xml:space="preserve" text-anchor="middle" x="389.75" y="-1474.06" font-family="Helvetica,sans-Serif" font-size="28.00" fill="#f8fafc">Ensemble&#45;Grafana Evolution: First Prompt to Latest Evidence</text>
<!-- seed -->
<g id="node1" class="node">
<title>seed</title>
<path fill="#0f2f4a" stroke="#38bdf8" stroke-width="2" d="M502.05,-1468.16C502.05,-1468.16 275.45,-1468.16 275.45,-1468.16 269.45,-1468.16 263.45,-1462.16 263.45,-1456.16 263.45,-1456.16 263.45,-1402.64 263.45,-1402.64 263.45,-1396.64 269.45,-1390.64 275.45,-1390.64 275.45,-1390.64 502.05,-1390.64 502.05,-1390.64 508.05,-1390.64 514.05,-1396.64 514.05,-1402.64 514.05,-1402.64 514.05,-1456.16 514.05,-1456.16 514.05,-1462.16 508.05,-1468.16 502.05,-1468.16"/>
<text xml:space="preserve" text-anchor="middle" x="388.75" y="-1447.2" font-family="Helvetica,sans-Serif" font-size="16.00" fill="#f8fafc">May 24&#45;25</text>
<text xml:space="preserve" text-anchor="middle" x="388.75" y="-1430.7" font-family="Helvetica,sans-Serif" font-size="16.00" fill="#f8fafc">Product seed</text>
<text xml:space="preserve" text-anchor="middle" x="388.75" y="-1414.2" font-family="Helvetica,sans-Serif" font-size="16.00" fill="#f8fafc">Promptable ecommerce platform</text>
<text xml:space="preserve" text-anchor="middle" x="388.75" y="-1397.7" font-family="Helvetica,sans-Serif" font-size="16.00" fill="#f8fafc">README live demo framing</text>
</g>
<!-- validate -->
<g id="node2" class="node">
<title>validate</title>
<path fill="#123524" stroke="#4ade80" stroke-width="2" d="M497.35,-1343.89C497.35,-1343.89 280.15,-1343.89 280.15,-1343.89 274.15,-1343.89 268.15,-1337.89 268.15,-1331.89 268.15,-1331.89 268.15,-1245.37 268.15,-1245.37 268.15,-1239.37 274.15,-1233.37 280.15,-1233.37 280.15,-1233.37 497.35,-1233.37 497.35,-1233.37 503.35,-1233.37 509.35,-1239.37 509.35,-1245.37 509.35,-1245.37 509.35,-1331.89 509.35,-1331.89 509.35,-1337.89 503.35,-1343.89 497.35,-1343.89"/>
<text xml:space="preserve" text-anchor="middle" x="388.75" y="-1322.93" font-family="Helvetica,sans-Serif" font-size="16.00" fill="#f8fafc">May 27&#45;29</text>
<text xml:space="preserve" text-anchor="middle" x="388.75" y="-1306.43" font-family="Helvetica,sans-Serif" font-size="16.00" fill="#f8fafc">Validation foundation</text>
<text xml:space="preserve" text-anchor="middle" x="388.75" y="-1289.93" font-family="Helvetica,sans-Serif" font-size="16.00" fill="#f8fafc">Grafana dashboards</text>
<text xml:space="preserve" text-anchor="middle" x="388.75" y="-1273.43" font-family="Helvetica,sans-Serif" font-size="16.00" fill="#f8fafc">Guarded baseline stack</text>
<text xml:space="preserve" text-anchor="middle" x="388.75" y="-1256.93" font-family="Helvetica,sans-Serif" font-size="16.00" fill="#f8fafc">k6 Faro actions</text>
<text xml:space="preserve" text-anchor="middle" x="388.75" y="-1240.43" font-family="Helvetica,sans-Serif" font-size="16.00" fill="#f8fafc">Playwright regression</text>
</g>
<!-- seed&#45;&gt;validate -->
<g id="edge1" class="edge">
<title>seed&#45;&gt;validate</title>
<path fill="none" stroke="#94a3b8" stroke-width="2" d="M388.75,-1389.74C388.75,-1379.06 388.75,-1367.16 388.75,-1355.4"/>
<polygon fill="#94a3b8" stroke="#94a3b8" stroke-width="2" points="391.55,-1355.7 388.75,-1347.7 385.95,-1355.7 391.55,-1355.7"/>
<text xml:space="preserve" text-anchor="middle" x="430.38" y="-1362.24" font-family="Helvetica,sans-Serif" font-size="12.00" fill="#cbd5e1">make it testable</text>
</g>
<!-- app -->
<g id="node3" class="node">
<title>app</title>
<path fill="#422f10" stroke="#f59e0b" stroke-width="2" d="M301.35,-1186.62C301.35,-1186.62 84.15,-1186.62 84.15,-1186.62 78.15,-1186.62 72.15,-1180.62 72.15,-1174.62 72.15,-1174.62 72.15,-1088.1 72.15,-1088.1 72.15,-1082.1 78.15,-1076.1 84.15,-1076.1 84.15,-1076.1 301.35,-1076.1 301.35,-1076.1 307.35,-1076.1 313.35,-1082.1 313.35,-1088.1 313.35,-1088.1 313.35,-1174.62 313.35,-1174.62 313.35,-1180.62 307.35,-1186.62 301.35,-1186.62"/>
<text xml:space="preserve" text-anchor="middle" x="192.75" y="-1165.66" font-family="Helvetica,sans-Serif" font-size="16.00" fill="#f8fafc">May 30</text>
<text xml:space="preserve" text-anchor="middle" x="192.75" y="-1149.16" font-family="Helvetica,sans-Serif" font-size="16.00" fill="#f8fafc">Storefront maturity</text>
<text xml:space="preserve" text-anchor="middle" x="192.75" y="-1132.66" font-family="Helvetica,sans-Serif" font-size="16.00" fill="#f8fafc">Checkout Grafana link</text>
<text xml:space="preserve" text-anchor="middle" x="192.75" y="-1116.16" font-family="Helvetica,sans-Serif" font-size="16.00" fill="#f8fafc">Sweden localization</text>
<text xml:space="preserve" text-anchor="middle" x="192.75" y="-1099.66" font-family="Helvetica,sans-Serif" font-size="16.00" fill="#f8fafc">Responsive UI fixes</text>
<text xml:space="preserve" text-anchor="middle" x="192.75" y="-1083.16" font-family="Helvetica,sans-Serif" font-size="16.00" fill="#f8fafc">Post&#45;deploy reports</text>
</g>
<!-- validate&#45;&gt;app -->
<g id="edge2" class="edge">
<title>validate&#45;&gt;app</title>
<path fill="none" stroke="#94a3b8" stroke-width="2" d="M319.1,-1232.45C303.35,-1219.98 286.55,-1206.66 270.49,-1193.95"/>
<polygon fill="#94a3b8" stroke="#94a3b8" stroke-width="2" points="272.56,-1192.01 264.55,-1189.24 269.08,-1196.4 272.56,-1192.01"/>
<text xml:space="preserve" text-anchor="middle" x="364.5" y="-1204.97" font-family="Helvetica,sans-Serif" font-size="12.00" fill="#cbd5e1">expand shopper behavior</text>
</g>
<!-- obs -->
<g id="node4" class="node">
<title>obs</title>
<path fill="#2e1f55" stroke="#a78bfa" stroke-width="2" d="M695.35,-1186.62C695.35,-1186.62 478.15,-1186.62 478.15,-1186.62 472.15,-1186.62 466.15,-1180.62 466.15,-1174.62 466.15,-1174.62 466.15,-1088.1 466.15,-1088.1 466.15,-1082.1 472.15,-1076.1 478.15,-1076.1 478.15,-1076.1 695.35,-1076.1 695.35,-1076.1 701.35,-1076.1 707.35,-1082.1 707.35,-1088.1 707.35,-1088.1 707.35,-1174.62 707.35,-1174.62 707.35,-1180.62 701.35,-1186.62 695.35,-1186.62"/>
<text xml:space="preserve" text-anchor="middle" x="586.75" y="-1165.66" font-family="Helvetica,sans-Serif" font-size="16.00" fill="#f8fafc">May 30</text>
<text xml:space="preserve" text-anchor="middle" x="586.75" y="-1149.16" font-family="Helvetica,sans-Serif" font-size="16.00" fill="#f8fafc">Telemetry expansion</text>
<text xml:space="preserve" text-anchor="middle" x="586.75" y="-1132.66" font-family="Helvetica,sans-Serif" font-size="16.00" fill="#f8fafc">CloudWatch discovery</text>
<text xml:space="preserve" text-anchor="middle" x="586.75" y="-1116.16" font-family="Helvetica,sans-Serif" font-size="16.00" fill="#f8fafc">Faro action reports</text>
<text xml:space="preserve" text-anchor="middle" x="586.75" y="-1099.66" font-family="Helvetica,sans-Serif" font-size="16.00" fill="#f8fafc">Alloy/Beyla runbooks</text>
<text xml:space="preserve" text-anchor="middle" x="586.75" y="-1083.16" font-family="Helvetica,sans-Serif" font-size="16.00" fill="#f8fafc">Dashboard conventions</text>
</g>
<!-- validate&#45;&gt;obs -->
<g id="edge3" class="edge">
<title>validate&#45;&gt;obs</title>
<path fill="none" stroke="#94a3b8" stroke-width="2" d="M459.11,-1232.45C475.02,-1219.98 492,-1206.66 508.21,-1193.95"/>
<polygon fill="#94a3b8" stroke="#94a3b8" stroke-width="2" points="509.66,-1196.37 514.23,-1189.23 506.21,-1191.96 509.66,-1196.37"/>
<text xml:space="preserve" text-anchor="middle" x="547.31" y="-1204.97" font-family="Helvetica,sans-Serif" font-size="12.00" fill="#cbd5e1">instrument telemetry</text>
</g>
<!-- app&#45;&gt;obs -->
<g id="edge4" class="edge">
<title>app&#45;&gt;obs</title>
<path fill="none" stroke="#94a3b8" stroke-width="2" d="M314.18,-1131.36C358.66,-1131.36 409.2,-1131.36 454.58,-1131.36"/>
<polygon fill="#94a3b8" stroke="#94a3b8" stroke-width="2" points="454.36,-1134.16 462.36,-1131.36 454.36,-1128.56 454.36,-1134.16"/>
<text xml:space="preserve" text-anchor="middle" x="389.75" y="-1135.71" font-family="Helvetica,sans-Serif" font-size="12.00" fill="#cbd5e1">instrument user actions</text>
</g>
<!-- load -->
<g id="node5" class="node">
<title>load</title>
<path fill="#451a1a" stroke="#f87171" stroke-width="2" d="M498.35,-1029.35C498.35,-1029.35 281.15,-1029.35 281.15,-1029.35 275.15,-1029.35 269.15,-1023.35 269.15,-1017.35 269.15,-1017.35 269.15,-930.83 269.15,-930.83 269.15,-924.83 275.15,-918.83 281.15,-918.83 281.15,-918.83 498.35,-918.83 498.35,-918.83 504.35,-918.83 510.35,-924.83 510.35,-930.83 510.35,-930.83 510.35,-1017.35 510.35,-1017.35 510.35,-1023.35 504.35,-1029.35 498.35,-1029.35"/>
<text xml:space="preserve" text-anchor="middle" x="389.75" y="-1008.39" font-family="Helvetica,sans-Serif" font-size="16.00" fill="#f8fafc">May 30&#45;31</text>
<text xml:space="preserve" text-anchor="middle" x="389.75" y="-991.89" font-family="Helvetica,sans-Serif" font-size="16.00" fill="#f8fafc">Load and resilience</text>
<text xml:space="preserve" text-anchor="middle" x="389.75" y="-975.39" font-family="Helvetica,sans-Serif" font-size="16.00" fill="#f8fafc">Traffic&#45;spike model</text>
<text xml:space="preserve" text-anchor="middle" x="389.75" y="-958.89" font-family="Helvetica,sans-Serif" font-size="16.00" fill="#f8fafc">Cloud k6 runs</text>
<text xml:space="preserve" text-anchor="middle" x="389.75" y="-942.39" font-family="Helvetica,sans-Serif" font-size="16.00" fill="#f8fafc">Comparison charts</text>
<text xml:space="preserve" text-anchor="middle" x="389.75" y="-925.89" font-family="Helvetica,sans-Serif" font-size="16.00" fill="#f8fafc">40 rps then 60 rps baseline</text>
</g>
<!-- app&#45;&gt;load -->
<g id="edge6" class="edge">
<title>app&#45;&gt;load</title>
<path fill="none" stroke="#94a3b8" stroke-width="2" d="M262.76,-1075.18C278.58,-1062.71 295.48,-1049.39 311.61,-1036.68"/>
<polygon fill="#94a3b8" stroke="#94a3b8" stroke-width="2" points="313.04,-1039.12 317.59,-1031.97 309.57,-1034.72 313.04,-1039.12"/>
<text xml:space="preserve" text-anchor="middle" x="342.53" y="-1047.7" font-family="Helvetica,sans-Serif" font-size="12.00" fill="#cbd5e1">validate journeys</text>
</g>
<!-- obs&#45;&gt;load -->
<g id="edge5" class="edge">
<title>obs&#45;&gt;load</title>
<path fill="none" stroke="#94a3b8" stroke-width="2" d="M516.74,-1075.18C500.92,-1062.71 484.02,-1049.39 467.89,-1036.68"/>
<polygon fill="#94a3b8" stroke="#94a3b8" stroke-width="2" points="469.93,-1034.72 461.91,-1031.97 466.46,-1039.12 469.93,-1034.72"/>
<text xml:space="preserve" text-anchor="middle" x="538.78" y="-1047.7" font-family="Helvetica,sans-Serif" font-size="12.00" fill="#cbd5e1">exercise at scale</text>
</g>
<!-- ops -->
<g id="node6" class="node">
<title>ops</title>
<path fill="#1e293b" stroke="#94a3b8" stroke-width="2" d="M498.35,-872.08C498.35,-872.08 281.15,-872.08 281.15,-872.08 275.15,-872.08 269.15,-866.08 269.15,-860.08 269.15,-860.08 269.15,-773.56 269.15,-773.56 269.15,-767.56 275.15,-761.56 281.15,-761.56 281.15,-761.56 498.35,-761.56 498.35,-761.56 504.35,-761.56 510.35,-767.56 510.35,-773.56 510.35,-773.56 510.35,-860.08 510.35,-860.08 510.35,-866.08 504.35,-872.08 498.35,-872.08"/>
<text xml:space="preserve" text-anchor="middle" x="389.75" y="-851.12" font-family="Helvetica,sans-Serif" font-size="16.00" fill="#f8fafc">May 31</text>
<text xml:space="preserve" text-anchor="middle" x="389.75" y="-834.62" font-family="Helvetica,sans-Serif" font-size="16.00" fill="#f8fafc">Operations loop</text>
<text xml:space="preserve" text-anchor="middle" x="389.75" y="-818.12" font-family="Helvetica,sans-Serif" font-size="16.00" fill="#f8fafc">IRM on&#45;call setup</text>
<text xml:space="preserve" text-anchor="middle" x="389.75" y="-801.62" font-family="Helvetica,sans-Serif" font-size="16.00" fill="#f8fafc">Kubelet RCA reports</text>
<text xml:space="preserve" text-anchor="middle" x="389.75" y="-785.12" font-family="Helvetica,sans-Serif" font-size="16.00" fill="#f8fafc">Grafana Assistant comparison</text>
<text xml:space="preserve" text-anchor="middle" x="389.75" y="-768.62" font-family="Helvetica,sans-Serif" font-size="16.00" fill="#f8fafc">Dashboard validation</text>
</g>
<!-- load&#45;&gt;ops -->
<g id="edge7" class="edge">
<title>load&#45;&gt;ops</title>
<path fill="none" stroke="#94a3b8" stroke-width="2" d="M389.75,-917.91C389.75,-906.81 389.75,-895.05 389.75,-883.63"/>
<polygon fill="#94a3b8" stroke="#94a3b8" stroke-width="2" points="392.55,-883.85 389.75,-875.85 386.95,-883.85 392.55,-883.85"/>
<text xml:space="preserve" text-anchor="middle" x="461.75" y="-890.43" font-family="Helvetica,sans-Serif" font-size="12.00" fill="#cbd5e1">turn failures into operations</text>
</g>
<!-- skills -->
<g id="node7" class="node">
<title>skills</title>
<path fill="#103c3c" stroke="#2dd4bf" stroke-width="2" d="M498.35,-714.81C498.35,-714.81 281.15,-714.81 281.15,-714.81 275.15,-714.81 269.15,-708.81 269.15,-702.81 269.15,-702.81 269.15,-632.79 269.15,-632.79 269.15,-626.79 275.15,-620.79 281.15,-620.79 281.15,-620.79 498.35,-620.79 498.35,-620.79 504.35,-620.79 510.35,-626.79 510.35,-632.79 510.35,-632.79 510.35,-702.81 510.35,-702.81 510.35,-708.81 504.35,-714.81 498.35,-714.81"/>
<text xml:space="preserve" text-anchor="middle" x="389.75" y="-693.85" font-family="Helvetica,sans-Serif" font-size="16.00" fill="#f8fafc">May 30&#45;Jun 1</text>
<text xml:space="preserve" text-anchor="middle" x="389.75" y="-677.35" font-family="Helvetica,sans-Serif" font-size="16.00" fill="#f8fafc">Reusable agent policy</text>
<text xml:space="preserve" text-anchor="middle" x="389.75" y="-660.85" font-family="Helvetica,sans-Serif" font-size="16.00" fill="#f8fafc">Repo skills and personas</text>
<text xml:space="preserve" text-anchor="middle" x="389.75" y="-644.35" font-family="Helvetica,sans-Serif" font-size="16.00" fill="#f8fafc">Slash&#45;command sync</text>
<text xml:space="preserve" text-anchor="middle" x="389.75" y="-627.85" font-family="Helvetica,sans-Serif" font-size="16.00" fill="#f8fafc">CI checks for guidance</text>
</g>
<!-- ops&#45;&gt;skills -->
<g id="edge8" class="edge">
<title>ops&#45;&gt;skills</title>
<path fill="none" stroke="#94a3b8" stroke-width="2" d="M389.75,-760.66C389.75,-749.53 389.75,-737.81 389.75,-726.6"/>
<polygon fill="#94a3b8" stroke="#94a3b8" stroke-width="2" points="392.55,-726.63 389.75,-718.63 386.95,-726.63 392.55,-726.63"/>
<text xml:space="preserve" text-anchor="middle" x="439.62" y="-733.16" font-family="Helvetica,sans-Serif" font-size="12.00" fill="#cbd5e1">codify repeatability</text>
</g>
<!-- latest -->
<g id="node8" class="node">
<title>latest</title>
<path fill="#4a1631" stroke="#f472b6" stroke-width="2" d="M498.35,-574.04C498.35,-574.04 281.15,-574.04 281.15,-574.04 275.15,-574.04 269.15,-568.04 269.15,-562.04 269.15,-562.04 269.15,-475.52 269.15,-475.52 269.15,-469.52 275.15,-463.52 281.15,-463.52 281.15,-463.52 498.35,-463.52 498.35,-463.52 504.35,-463.52 510.35,-469.52 510.35,-475.52 510.35,-475.52 510.35,-562.04 510.35,-562.04 510.35,-568.04 504.35,-574.04 498.35,-574.04"/>
<text xml:space="preserve" text-anchor="middle" x="389.75" y="-553.08" font-family="Helvetica,sans-Serif" font-size="16.00" fill="#f8fafc">Jun 2&#45;8</text>
<text xml:space="preserve" text-anchor="middle" x="389.75" y="-536.58" font-family="Helvetica,sans-Serif" font-size="16.00" fill="#f8fafc">Latest evidence</text>
<text xml:space="preserve" text-anchor="middle" x="389.75" y="-520.08" font-family="Helvetica,sans-Serif" font-size="16.00" fill="#f8fafc">120 rps baseline docs</text>
<text xml:space="preserve" text-anchor="middle" x="389.75" y="-503.58" font-family="Helvetica,sans-Serif" font-size="16.00" fill="#f8fafc">Black Friday cart incident</text>
<text xml:space="preserve" text-anchor="middle" x="389.75" y="-487.08" font-family="Helvetica,sans-Serif" font-size="16.00" fill="#f8fafc">Evolution docs</text>
<text xml:space="preserve" text-anchor="middle" x="389.75" y="-470.58" font-family="Helvetica,sans-Serif" font-size="16.00" fill="#f8fafc">Load reports through 7718235</text>
</g>
<!-- skills&#45;&gt;latest -->
<g id="edge9" class="edge">
<title>skills&#45;&gt;latest</title>
<path fill="none" stroke="#94a3b8" stroke-width="2" d="M389.75,-619.88C389.75,-609.05 389.75,-597.34 389.75,-585.86"/>
<polygon fill="#94a3b8" stroke="#94a3b8" stroke-width="2" points="392.55,-586 389.75,-578 386.95,-586 392.55,-586"/>
<text xml:space="preserve" text-anchor="middle" x="448.62" y="-592.39" font-family="Helvetica,sans-Serif" font-size="12.00" fill="#cbd5e1">keep evidence current</text>
</g>
<!-- policy -->
<g id="node9" class="node">
<title>policy</title>
<path fill="#321854" stroke="#c084fc" stroke-width="2" d="M503.05,-416.77C503.05,-416.77 276.45,-416.77 276.45,-416.77 270.45,-416.77 264.45,-410.77 264.45,-404.77 264.45,-404.77 264.45,-334.75 264.45,-334.75 264.45,-328.75 270.45,-322.75 276.45,-322.75 276.45,-322.75 503.05,-322.75 503.05,-322.75 509.05,-322.75 515.05,-328.75 515.05,-334.75 515.05,-334.75 515.05,-404.77 515.05,-404.77 515.05,-410.77 509.05,-416.77 503.05,-416.77"/>
<text xml:space="preserve" text-anchor="middle" x="389.75" y="-395.81" font-family="Helvetica,sans-Serif" font-size="16.00" fill="#f8fafc">Jun 9</text>
<text xml:space="preserve" text-anchor="middle" x="389.75" y="-379.31" font-family="Helvetica,sans-Serif" font-size="16.00" fill="#f8fafc">Evolution policy</text>
<text xml:space="preserve" text-anchor="middle" x="389.75" y="-362.81" font-family="Helvetica,sans-Serif" font-size="16.00" fill="#f8fafc">AGENTS.md documentation rule</text>
<text xml:space="preserve" text-anchor="middle" x="389.75" y="-346.31" font-family="Helvetica,sans-Serif" font-size="16.00" fill="#f8fafc">Graphviz skill workflow</text>
<text xml:space="preserve" text-anchor="middle" x="389.75" y="-329.81" font-family="Helvetica,sans-Serif" font-size="16.00" fill="#f8fafc">Timeline stays maintained</text>
</g>
<!-- latest&#45;&gt;policy -->
<g id="edge10" class="edge">
<title>latest&#45;&gt;policy</title>
<path fill="none" stroke="#94a3b8" stroke-width="2" d="M389.75,-462.62C389.75,-451.49 389.75,-439.77 389.75,-428.56"/>
<polygon fill="#94a3b8" stroke="#94a3b8" stroke-width="2" points="392.55,-428.59 389.75,-420.59 386.95,-428.59 392.55,-428.59"/>
<text xml:space="preserve" text-anchor="middle" x="448.62" y="-435.12" font-family="Helvetica,sans-Serif" font-size="12.00" fill="#cbd5e1">protect the chronology</text>
</g>
<!-- end_to_end -->
<g id="node10" class="node">
<title>end_to_end</title>
<path fill="#475569" stroke="none" stroke-width="2" d="M684.88,-276C684.88,-276 94.63,-276 94.63,-276 88.62,-276 82.62,-270 82.62,-264 82.62,-264 82.62,-12 82.62,-12 82.62,-6 88.62,0 94.62,0 94.62,0 684.88,0 684.88,0 690.88,0 696.88,-6 696.88,-12 696.88,-12 696.88,-264 696.88,-264 696.88,-270 690.88,-276 684.88,-276"/>
<polygon fill="#0f172a" stroke="none" points="82.62,-241.5 82.62,-276 696.88,-276 696.88,-241.5 82.62,-241.5"/>
<polygon fill="none" stroke="#64748b" points="82.62,-241.5 82.62,-276 696.88,-276 696.88,-241.5 82.62,-241.5"/>
<text xml:space="preserve" text-anchor="start" x="290" y="-252.8" font-family="Helvetica,sans-Serif" font-weight="bold" font-size="16.00" fill="#f8fafc">End&#45;to&#45;End System Shape</text>
<polygon fill="#111827" stroke="none" points="82.62,-207 82.62,-241.5 696.88,-241.5 696.88,-207 82.62,-207"/>
<polygon fill="none" stroke="#64748b" points="82.62,-207 82.62,-241.5 696.88,-241.5 696.88,-207 82.62,-207"/>
<text xml:space="preserve" text-anchor="start" x="91.62" y="-219.75" font-family="Helvetica,sans-Serif" font-size="16.00" fill="#f8fafc">Storefront journeys: browse, cart, checkout, account, region, language</text>
<polygon fill="#111827" stroke="none" points="82.62,-172.5 82.62,-207 696.88,-207 696.88,-172.5 82.62,-172.5"/>
<polygon fill="none" stroke="#64748b" points="82.62,-172.5 82.62,-207 696.88,-207 696.88,-172.5 82.62,-172.5"/>
<text xml:space="preserve" text-anchor="start" x="91.62" y="-185.25" font-family="Helvetica,sans-Serif" font-size="16.00" fill="#f8fafc">Spring Boot services: inventory, cart, account</text>
<polygon fill="#111827" stroke="none" points="82.62,-138 82.62,-172.5 696.88,-172.5 696.88,-138 82.62,-138"/>
<polygon fill="none" stroke="#64748b" points="82.62,-138 82.62,-172.5 696.88,-172.5 696.88,-138 82.62,-138"/>
<text xml:space="preserve" text-anchor="start" x="91.62" y="-150.75" font-family="Helvetica,sans-Serif" font-size="16.00" fill="#f8fafc">AWS and Kubernetes: edge, auth, data, EKS, rollout controls</text>
<polygon fill="#111827" stroke="none" points="82.62,-103.5 82.62,-138 696.88,-138 696.88,-103.5 82.62,-103.5"/>
<polygon fill="none" stroke="#64748b" points="82.62,-103.5 82.62,-138 696.88,-138 696.88,-103.5 82.62,-103.5"/>
<text xml:space="preserve" text-anchor="start" x="91.62" y="-116.25" font-family="Helvetica,sans-Serif" font-size="16.00" fill="#f8fafc">Grafana Cloud: Faro, Alloy, Beyla, dashboards, IRM, reports</text>
<polygon fill="#111827" stroke="none" points="82.62,-69 82.62,-103.5 696.88,-103.5 696.88,-69 82.62,-69"/>
<polygon fill="none" stroke="#64748b" points="82.62,-69 82.62,-103.5 696.88,-103.5 696.88,-69 82.62,-69"/>
<text xml:space="preserve" text-anchor="start" x="91.62" y="-81.75" font-family="Helvetica,sans-Serif" font-size="16.00" fill="#f8fafc">Verification: Playwright, k6 protocol, k6 browser actions, GCX queries</text>
<polygon fill="#111827" stroke="none" points="82.62,-34.5 82.62,-69 696.88,-69 696.88,-34.5 82.62,-34.5"/>
<polygon fill="none" stroke="#64748b" points="82.62,-34.5 82.62,-69 696.88,-69 696.88,-34.5 82.62,-34.5"/>
<text xml:space="preserve" text-anchor="start" x="91.62" y="-47.25" font-family="Helvetica,sans-Serif" font-size="16.00" fill="#f8fafc">Communication: Markdown runbooks plus Graphviz DOT, SVG, PNG</text>
<polygon fill="#111827" stroke="none" points="82.62,0 82.62,-34.5 696.88,-34.5 696.88,0 82.62,0"/>
<polygon fill="none" stroke="#64748b" points="82.62,0 82.62,-34.5 696.88,-34.5 696.88,0 82.62,0"/>
<text xml:space="preserve" text-anchor="start" x="91.62" y="-12.75" font-family="Helvetica,sans-Serif" font-size="16.00" fill="#f8fafc">Memory: EVOLUTION.md, category files, and agent policy keep milestones current</text>
</g>
<!-- policy&#45;&gt;end_to_end -->
<g id="edge11" class="edge">
<title>policy&#45;&gt;end_to_end</title>
<path fill="none" stroke="#94a3b8" stroke-width="2" d="M389.75,-321.99C389.75,-311.22 389.75,-299.21 389.75,-286.63"/>
<polygon fill="#94a3b8" stroke="#94a3b8" stroke-width="2" points="392.55,-286.97 389.75,-278.97 386.95,-286.97 392.55,-286.97"/>
<text xml:space="preserve" text-anchor="middle" x="422.38" y="-294.35" font-family="Helvetica,sans-Serif" font-size="12.00" fill="#cbd5e1">current state</text>
</g>
</g>
</svg>
