<?xml version="1.0" encoding="UTF-8" standalone="no"?>
<!DOCTYPE svg PUBLIC "-//W3C//DTD SVG 1.1//EN"
 "http://www.w3.org/Graphics/SVG/1.1/DTD/svg11.dtd">
<!-- Generated by graphviz version 15.0.0 (20260523.1842)
 -->
<!-- Title: ensemble_evolution_timeline_dark Pages: 1 -->
<svg width="830pt" height="1588pt"
 viewBox="0.00 0.00 830.00 1588.00" xmlns="http://www.w3.org/2000/svg" xmlns:xlink="http://www.w3.org/1999/xlink">
<g id="graph0" class="graph" transform="scale(1 1) rotate(0) translate(25.2 1562.86)">
<title>ensemble_evolution_timeline_dark</title>
<polygon fill="#020617" stroke="none" points="-25.2,25.2 -25.2,-1562.86 804.7,-1562.86 804.7,25.2 -25.2,25.2"/>
<text xml:space="preserve" text-anchor="middle" x="389.75" y="-1507.06" font-family="Helvetica,sans-Serif" font-size="28.00" fill="#f8fafc">Ensemble&#45;Grafana Evolution: First Prompt to Latest Evidence</text>
<!-- seed -->
<g id="node1" class="node">
<title>seed</title>
<path fill="#0f2f4a" stroke="#38bdf8" stroke-width="2" d="M502.05,-1501.16C502.05,-1501.16 275.45,-1501.16 275.45,-1501.16 269.45,-1501.16 263.45,-1495.16 263.45,-1489.16 263.45,-1489.16 263.45,-1435.64 263.45,-1435.64 263.45,-1429.64 269.45,-1423.64 275.45,-1423.64 275.45,-1423.64 502.05,-1423.64 502.05,-1423.64 508.05,-1423.64 514.05,-1429.64 514.05,-1435.64 514.05,-1435.64 514.05,-1489.16 514.05,-1489.16 514.05,-1495.16 508.05,-1501.16 502.05,-1501.16"/>
<text xml:space="preserve" text-anchor="middle" x="388.75" y="-1480.2" font-family="Helvetica,sans-Serif" font-size="16.00" fill="#f8fafc">May 24&#45;25</text>
<text xml:space="preserve" text-anchor="middle" x="388.75" y="-1463.7" font-family="Helvetica,sans-Serif" font-size="16.00" fill="#f8fafc">Product seed</text>
<text xml:space="preserve" text-anchor="middle" x="388.75" y="-1447.2" font-family="Helvetica,sans-Serif" font-size="16.00" fill="#f8fafc">Promptable ecommerce platform</text>
<text xml:space="preserve" text-anchor="middle" x="388.75" y="-1430.7" font-family="Helvetica,sans-Serif" font-size="16.00" fill="#f8fafc">README live demo framing</text>
</g>
<!-- validate -->
<g id="node2" class="node">
<title>validate</title>
<path fill="#123524" stroke="#4ade80" stroke-width="2" d="M497.35,-1376.89C497.35,-1376.89 280.15,-1376.89 280.15,-1376.89 274.15,-1376.89 268.15,-1370.89 268.15,-1364.89 268.15,-1364.89 268.15,-1278.37 268.15,-1278.37 268.15,-1272.37 274.15,-1266.37 280.15,-1266.37 280.15,-1266.37 497.35,-1266.37 497.35,-1266.37 503.35,-1266.37 509.35,-1272.37 509.35,-1278.37 509.35,-1278.37 509.35,-1364.89 509.35,-1364.89 509.35,-1370.89 503.35,-1376.89 497.35,-1376.89"/>
<text xml:space="preserve" text-anchor="middle" x="388.75" y="-1355.93" font-family="Helvetica,sans-Serif" font-size="16.00" fill="#f8fafc">May 27&#45;29</text>
<text xml:space="preserve" text-anchor="middle" x="388.75" y="-1339.43" font-family="Helvetica,sans-Serif" font-size="16.00" fill="#f8fafc">Validation foundation</text>
<text xml:space="preserve" text-anchor="middle" x="388.75" y="-1322.93" font-family="Helvetica,sans-Serif" font-size="16.00" fill="#f8fafc">Grafana dashboards</text>
<text xml:space="preserve" text-anchor="middle" x="388.75" y="-1306.43" font-family="Helvetica,sans-Serif" font-size="16.00" fill="#f8fafc">Guarded baseline stack</text>
<text xml:space="preserve" text-anchor="middle" x="388.75" y="-1289.93" font-family="Helvetica,sans-Serif" font-size="16.00" fill="#f8fafc">k6 Faro actions</text>
<text xml:space="preserve" text-anchor="middle" x="388.75" y="-1273.43" font-family="Helvetica,sans-Serif" font-size="16.00" fill="#f8fafc">Playwright regression</text>
</g>
<!-- seed&#45;&gt;validate -->
<g id="edge1" class="edge">
<title>seed&#45;&gt;validate</title>
<path fill="none" stroke="#94a3b8" stroke-width="2" d="M388.75,-1422.74C388.75,-1412.06 388.75,-1400.16 388.75,-1388.4"/>
<polygon fill="#94a3b8" stroke="#94a3b8" stroke-width="2" points="391.55,-1388.7 388.75,-1380.7 385.95,-1388.7 391.55,-1388.7"/>
<text xml:space="preserve" text-anchor="middle" x="430.38" y="-1395.24" font-family="Helvetica,sans-Serif" font-size="12.00" fill="#cbd5e1">make it testable</text>
</g>
<!-- app -->
<g id="node3" class="node">
<title>app</title>
<path fill="#422f10" stroke="#f59e0b" stroke-width="2" d="M301.35,-1219.62C301.35,-1219.62 84.15,-1219.62 84.15,-1219.62 78.15,-1219.62 72.15,-1213.62 72.15,-1207.62 72.15,-1207.62 72.15,-1121.1 72.15,-1121.1 72.15,-1115.1 78.15,-1109.1 84.15,-1109.1 84.15,-1109.1 301.35,-1109.1 301.35,-1109.1 307.35,-1109.1 313.35,-1115.1 313.35,-1121.1 313.35,-1121.1 313.35,-1207.62 313.35,-1207.62 313.35,-1213.62 307.35,-1219.62 301.35,-1219.62"/>
<text xml:space="preserve" text-anchor="middle" x="192.75" y="-1198.66" font-family="Helvetica,sans-Serif" font-size="16.00" fill="#f8fafc">May 30</text>
<text xml:space="preserve" text-anchor="middle" x="192.75" y="-1182.16" font-family="Helvetica,sans-Serif" font-size="16.00" fill="#f8fafc">Storefront maturity</text>
<text xml:space="preserve" text-anchor="middle" x="192.75" y="-1165.66" font-family="Helvetica,sans-Serif" font-size="16.00" fill="#f8fafc">Checkout Grafana link</text>
<text xml:space="preserve" text-anchor="middle" x="192.75" y="-1149.16" font-family="Helvetica,sans-Serif" font-size="16.00" fill="#f8fafc">Sweden localization</text>
<text xml:space="preserve" text-anchor="middle" x="192.75" y="-1132.66" font-family="Helvetica,sans-Serif" font-size="16.00" fill="#f8fafc">Responsive UI fixes</text>
<text xml:space="preserve" text-anchor="middle" x="192.75" y="-1116.16" font-family="Helvetica,sans-Serif" font-size="16.00" fill="#f8fafc">Post&#45;deploy reports</text>
</g>
<!-- validate&#45;&gt;app -->
<g id="edge2" class="edge">
<title>validate&#45;&gt;app</title>
<path fill="none" stroke="#94a3b8" stroke-width="2" d="M319.1,-1265.45C303.35,-1252.98 286.55,-1239.66 270.49,-1226.95"/>
<polygon fill="#94a3b8" stroke="#94a3b8" stroke-width="2" points="272.56,-1225.01 264.55,-1222.24 269.08,-1229.4 272.56,-1225.01"/>
<text xml:space="preserve" text-anchor="middle" x="364.5" y="-1237.97" font-family="Helvetica,sans-Serif" font-size="12.00" fill="#cbd5e1">expand shopper behavior</text>
</g>
<!-- obs -->
<g id="node4" class="node">
<title>obs</title>
<path fill="#2e1f55" stroke="#a78bfa" stroke-width="2" d="M695.35,-1219.62C695.35,-1219.62 478.15,-1219.62 478.15,-1219.62 472.15,-1219.62 466.15,-1213.62 466.15,-1207.62 466.15,-1207.62 466.15,-1121.1 466.15,-1121.1 466.15,-1115.1 472.15,-1109.1 478.15,-1109.1 478.15,-1109.1 695.35,-1109.1 695.35,-1109.1 701.35,-1109.1 707.35,-1115.1 707.35,-1121.1 707.35,-1121.1 707.35,-1207.62 707.35,-1207.62 707.35,-1213.62 701.35,-1219.62 695.35,-1219.62"/>
<text xml:space="preserve" text-anchor="middle" x="586.75" y="-1198.66" font-family="Helvetica,sans-Serif" font-size="16.00" fill="#f8fafc">May 30</text>
<text xml:space="preserve" text-anchor="middle" x="586.75" y="-1182.16" font-family="Helvetica,sans-Serif" font-size="16.00" fill="#f8fafc">Telemetry expansion</text>
<text xml:space="preserve" text-anchor="middle" x="586.75" y="-1165.66" font-family="Helvetica,sans-Serif" font-size="16.00" fill="#f8fafc">CloudWatch discovery</text>
<text xml:space="preserve" text-anchor="middle" x="586.75" y="-1149.16" font-family="Helvetica,sans-Serif" font-size="16.00" fill="#f8fafc">Faro action reports</text>
<text xml:space="preserve" text-anchor="middle" x="586.75" y="-1132.66" font-family="Helvetica,sans-Serif" font-size="16.00" fill="#f8fafc">Alloy/Beyla runbooks</text>
<text xml:space="preserve" text-anchor="middle" x="586.75" y="-1116.16" font-family="Helvetica,sans-Serif" font-size="16.00" fill="#f8fafc">Dashboard conventions</text>
</g>
<!-- validate&#45;&gt;obs -->
<g id="edge3" class="edge">
<title>validate&#45;&gt;obs</title>
<path fill="none" stroke="#94a3b8" stroke-width="2" d="M459.11,-1265.45C475.02,-1252.98 492,-1239.66 508.21,-1226.95"/>
<polygon fill="#94a3b8" stroke="#94a3b8" stroke-width="2" points="509.66,-1229.37 514.23,-1222.23 506.21,-1224.96 509.66,-1229.37"/>
<text xml:space="preserve" text-anchor="middle" x="547.31" y="-1237.97" font-family="Helvetica,sans-Serif" font-size="12.00" fill="#cbd5e1">instrument telemetry</text>
</g>
<!-- app&#45;&gt;obs -->
<g id="edge4" class="edge">
<title>app&#45;&gt;obs</title>
<path fill="none" stroke="#94a3b8" stroke-width="2" d="M314.18,-1164.36C358.66,-1164.36 409.2,-1164.36 454.58,-1164.36"/>
<polygon fill="#94a3b8" stroke="#94a3b8" stroke-width="2" points="454.36,-1167.16 462.36,-1164.36 454.36,-1161.56 454.36,-1167.16"/>
<text xml:space="preserve" text-anchor="middle" x="389.75" y="-1168.71" font-family="Helvetica,sans-Serif" font-size="12.00" fill="#cbd5e1">instrument user actions</text>
</g>
<!-- load -->
<g id="node5" class="node">
<title>load</title>
<path fill="#451a1a" stroke="#f87171" stroke-width="2" d="M498.35,-1062.35C498.35,-1062.35 281.15,-1062.35 281.15,-1062.35 275.15,-1062.35 269.15,-1056.35 269.15,-1050.35 269.15,-1050.35 269.15,-963.83 269.15,-963.83 269.15,-957.83 275.15,-951.83 281.15,-951.83 281.15,-951.83 498.35,-951.83 498.35,-951.83 504.35,-951.83 510.35,-957.83 510.35,-963.83 510.35,-963.83 510.35,-1050.35 510.35,-1050.35 510.35,-1056.35 504.35,-1062.35 498.35,-1062.35"/>
<text xml:space="preserve" text-anchor="middle" x="389.75" y="-1041.39" font-family="Helvetica,sans-Serif" font-size="16.00" fill="#f8fafc">May 30&#45;31</text>
<text xml:space="preserve" text-anchor="middle" x="389.75" y="-1024.89" font-family="Helvetica,sans-Serif" font-size="16.00" fill="#f8fafc">Load and resilience</text>
<text xml:space="preserve" text-anchor="middle" x="389.75" y="-1008.39" font-family="Helvetica,sans-Serif" font-size="16.00" fill="#f8fafc">Traffic&#45;spike model</text>
<text xml:space="preserve" text-anchor="middle" x="389.75" y="-991.89" font-family="Helvetica,sans-Serif" font-size="16.00" fill="#f8fafc">Cloud k6 runs</text>
<text xml:space="preserve" text-anchor="middle" x="389.75" y="-975.39" font-family="Helvetica,sans-Serif" font-size="16.00" fill="#f8fafc">Comparison charts</text>
<text xml:space="preserve" text-anchor="middle" x="389.75" y="-958.89" font-family="Helvetica,sans-Serif" font-size="16.00" fill="#f8fafc">40 rps then 60 rps baseline</text>
</g>
<!-- app&#45;&gt;load -->
<g id="edge6" class="edge">
<title>app&#45;&gt;load</title>
<path fill="none" stroke="#94a3b8" stroke-width="2" d="M262.76,-1108.18C278.58,-1095.71 295.48,-1082.39 311.61,-1069.68"/>
<polygon fill="#94a3b8" stroke="#94a3b8" stroke-width="2" points="313.04,-1072.12 317.59,-1064.97 309.57,-1067.72 313.04,-1072.12"/>
<text xml:space="preserve" text-anchor="middle" x="342.53" y="-1080.7" font-family="Helvetica,sans-Serif" font-size="12.00" fill="#cbd5e1">validate journeys</text>
</g>
<!-- obs&#45;&gt;load -->
<g id="edge5" class="edge">
<title>obs&#45;&gt;load</title>
<path fill="none" stroke="#94a3b8" stroke-width="2" d="M516.74,-1108.18C500.92,-1095.71 484.02,-1082.39 467.89,-1069.68"/>
<polygon fill="#94a3b8" stroke="#94a3b8" stroke-width="2" points="469.93,-1067.72 461.91,-1064.97 466.46,-1072.12 469.93,-1067.72"/>
<text xml:space="preserve" text-anchor="middle" x="538.78" y="-1080.7" font-family="Helvetica,sans-Serif" font-size="12.00" fill="#cbd5e1">exercise at scale</text>
</g>
<!-- ops -->
<g id="node6" class="node">
<title>ops</title>
<path fill="#1e293b" stroke="#94a3b8" stroke-width="2" d="M498.35,-905.08C498.35,-905.08 281.15,-905.08 281.15,-905.08 275.15,-905.08 269.15,-899.08 269.15,-893.08 269.15,-893.08 269.15,-806.56 269.15,-806.56 269.15,-800.56 275.15,-794.56 281.15,-794.56 281.15,-794.56 498.35,-794.56 498.35,-794.56 504.35,-794.56 510.35,-800.56 510.35,-806.56 510.35,-806.56 510.35,-893.08 510.35,-893.08 510.35,-899.08 504.35,-905.08 498.35,-905.08"/>
<text xml:space="preserve" text-anchor="middle" x="389.75" y="-884.12" font-family="Helvetica,sans-Serif" font-size="16.00" fill="#f8fafc">May 31</text>
<text xml:space="preserve" text-anchor="middle" x="389.75" y="-867.62" font-family="Helvetica,sans-Serif" font-size="16.00" fill="#f8fafc">Operations loop</text>
<text xml:space="preserve" text-anchor="middle" x="389.75" y="-851.12" font-family="Helvetica,sans-Serif" font-size="16.00" fill="#f8fafc">IRM on&#45;call setup</text>
<text xml:space="preserve" text-anchor="middle" x="389.75" y="-834.62" font-family="Helvetica,sans-Serif" font-size="16.00" fill="#f8fafc">Kubelet RCA reports</text>
<text xml:space="preserve" text-anchor="middle" x="389.75" y="-818.12" font-family="Helvetica,sans-Serif" font-size="16.00" fill="#f8fafc">Grafana Assistant comparison</text>
<text xml:space="preserve" text-anchor="middle" x="389.75" y="-801.62" font-family="Helvetica,sans-Serif" font-size="16.00" fill="#f8fafc">Dashboard validation</text>
</g>
<!-- load&#45;&gt;ops -->
<g id="edge7" class="edge">
<title>load&#45;&gt;ops</title>
<path fill="none" stroke="#94a3b8" stroke-width="2" d="M389.75,-950.91C389.75,-939.81 389.75,-928.05 389.75,-916.63"/>
<polygon fill="#94a3b8" stroke="#94a3b8" stroke-width="2" points="392.55,-916.85 389.75,-908.85 386.95,-916.85 392.55,-916.85"/>
<text xml:space="preserve" text-anchor="middle" x="461.75" y="-923.43" font-family="Helvetica,sans-Serif" font-size="12.00" fill="#cbd5e1">turn failures into operations</text>
</g>
<!-- skills -->
<g id="node7" class="node">
<title>skills</title>
<path fill="#103c3c" stroke="#2dd4bf" stroke-width="2" d="M498.35,-747.81C498.35,-747.81 281.15,-747.81 281.15,-747.81 275.15,-747.81 269.15,-741.81 269.15,-735.81 269.15,-735.81 269.15,-665.79 269.15,-665.79 269.15,-659.79 275.15,-653.79 281.15,-653.79 281.15,-653.79 498.35,-653.79 498.35,-653.79 504.35,-653.79 510.35,-659.79 510.35,-665.79 510.35,-665.79 510.35,-735.81 510.35,-735.81 510.35,-741.81 504.35,-747.81 498.35,-747.81"/>
<text xml:space="preserve" text-anchor="middle" x="389.75" y="-726.85" font-family="Helvetica,sans-Serif" font-size="16.00" fill="#f8fafc">May 30&#45;Jun 1</text>
<text xml:space="preserve" text-anchor="middle" x="389.75" y="-710.35" font-family="Helvetica,sans-Serif" font-size="16.00" fill="#f8fafc">Reusable agent policy</text>
<text xml:space="preserve" text-anchor="middle" x="389.75" y="-693.85" font-family="Helvetica,sans-Serif" font-size="16.00" fill="#f8fafc">Repo skills and personas</text>
<text xml:space="preserve" text-anchor="middle" x="389.75" y="-677.35" font-family="Helvetica,sans-Serif" font-size="16.00" fill="#f8fafc">Slash&#45;command sync</text>
<text xml:space="preserve" text-anchor="middle" x="389.75" y="-660.85" font-family="Helvetica,sans-Serif" font-size="16.00" fill="#f8fafc">CI checks for guidance</text>
</g>
<!-- ops&#45;&gt;skills -->
<g id="edge8" class="edge">
<title>ops&#45;&gt;skills</title>
<path fill="none" stroke="#94a3b8" stroke-width="2" d="M389.75,-793.66C389.75,-782.53 389.75,-770.81 389.75,-759.6"/>
<polygon fill="#94a3b8" stroke="#94a3b8" stroke-width="2" points="392.55,-759.63 389.75,-751.63 386.95,-759.63 392.55,-759.63"/>
<text xml:space="preserve" text-anchor="middle" x="439.62" y="-766.16" font-family="Helvetica,sans-Serif" font-size="12.00" fill="#cbd5e1">codify repeatability</text>
</g>
<!-- latest -->
<g id="node8" class="node">
<title>latest</title>
<path fill="#4a1631" stroke="#f472b6" stroke-width="2" d="M498.35,-607.04C498.35,-607.04 281.15,-607.04 281.15,-607.04 275.15,-607.04 269.15,-601.04 269.15,-595.04 269.15,-595.04 269.15,-508.52 269.15,-508.52 269.15,-502.52 275.15,-496.52 281.15,-496.52 281.15,-496.52 498.35,-496.52 498.35,-496.52 504.35,-496.52 510.35,-502.52 510.35,-508.52 510.35,-508.52 510.35,-595.04 510.35,-595.04 510.35,-601.04 504.35,-607.04 498.35,-607.04"/>
<text xml:space="preserve" text-anchor="middle" x="389.75" y="-586.08" font-family="Helvetica,sans-Serif" font-size="16.00" fill="#f8fafc">Jun 2&#45;8</text>
<text xml:space="preserve" text-anchor="middle" x="389.75" y="-569.58" font-family="Helvetica,sans-Serif" font-size="16.00" fill="#f8fafc">Latest evidence</text>
<text xml:space="preserve" text-anchor="middle" x="389.75" y="-553.08" font-family="Helvetica,sans-Serif" font-size="16.00" fill="#f8fafc">120 rps baseline docs</text>
<text xml:space="preserve" text-anchor="middle" x="389.75" y="-536.58" font-family="Helvetica,sans-Serif" font-size="16.00" fill="#f8fafc">Black Friday cart incident</text>
<text xml:space="preserve" text-anchor="middle" x="389.75" y="-520.08" font-family="Helvetica,sans-Serif" font-size="16.00" fill="#f8fafc">Evolution docs</text>
<text xml:space="preserve" text-anchor="middle" x="389.75" y="-503.58" font-family="Helvetica,sans-Serif" font-size="16.00" fill="#f8fafc">Load reports through 7718235</text>
</g>
<!-- skills&#45;&gt;latest -->
<g id="edge9" class="edge">
<title>skills&#45;&gt;latest</title>
<path fill="none" stroke="#94a3b8" stroke-width="2" d="M389.75,-652.88C389.75,-642.05 389.75,-630.34 389.75,-618.86"/>
<polygon fill="#94a3b8" stroke="#94a3b8" stroke-width="2" points="392.55,-619 389.75,-611 386.95,-619 392.55,-619"/>
<text xml:space="preserve" text-anchor="middle" x="448.62" y="-625.39" font-family="Helvetica,sans-Serif" font-size="12.00" fill="#cbd5e1">keep evidence current</text>
</g>
<!-- policy -->
<g id="node9" class="node">
<title>policy</title>
<path fill="#321854" stroke="#c084fc" stroke-width="2" d="M503.05,-449.77C503.05,-449.77 276.45,-449.77 276.45,-449.77 270.45,-449.77 264.45,-443.77 264.45,-437.77 264.45,-437.77 264.45,-334.75 264.45,-334.75 264.45,-328.75 270.45,-322.75 276.45,-322.75 276.45,-322.75 503.05,-322.75 503.05,-322.75 509.05,-322.75 515.05,-328.75 515.05,-334.75 515.05,-334.75 515.05,-437.77 515.05,-437.77 515.05,-443.77 509.05,-449.77 503.05,-449.77"/>
<text xml:space="preserve" text-anchor="middle" x="389.75" y="-428.81" font-family="Helvetica,sans-Serif" font-size="16.00" fill="#f8fafc">Jun 9&#45;26</text>
<text xml:space="preserve" text-anchor="middle" x="389.75" y="-412.31" font-family="Helvetica,sans-Serif" font-size="16.00" fill="#f8fafc">Evolution policy</text>
<text xml:space="preserve" text-anchor="middle" x="389.75" y="-395.81" font-family="Helvetica,sans-Serif" font-size="16.00" fill="#f8fafc">AGENTS.md documentation rule</text>
<text xml:space="preserve" text-anchor="middle" x="389.75" y="-379.31" font-family="Helvetica,sans-Serif" font-size="16.00" fill="#f8fafc">Graphviz skill workflow</text>
<text xml:space="preserve" text-anchor="middle" x="389.75" y="-362.81" font-family="Helvetica,sans-Serif" font-size="16.00" fill="#f8fafc">5 rps routine baseline</text>
<text xml:space="preserve" text-anchor="middle" x="389.75" y="-346.31" font-family="Helvetica,sans-Serif" font-size="16.00" fill="#f8fafc">Synthetic checks disabled</text>
<text xml:space="preserve" text-anchor="middle" x="389.75" y="-329.81" font-family="Helvetica,sans-Serif" font-size="16.00" fill="#f8fafc">IRM detection + context hygiene</text>
</g>
<!-- latest&#45;&gt;policy -->
<g id="edge10" class="edge">
<title>latest&#45;&gt;policy</title>
<path fill="none" stroke="#94a3b8" stroke-width="2" d="M389.75,-495.88C389.75,-484.84 389.75,-473.06 389.75,-461.49"/>
<polygon fill="#94a3b8" stroke="#94a3b8" stroke-width="2" points="392.55,-461.52 389.75,-453.52 386.95,-461.52 392.55,-461.52"/>
<text xml:space="preserve" text-anchor="middle" x="448.62" y="-468.12" font-family="Helvetica,sans-Serif" font-size="12.00" fill="#cbd5e1">protect the chronology</text>
</g>
<!-- end_to_end -->
<g id="node10" class="node">
<title>end_to_end</title>
<path fill="#475569" stroke="none" stroke-width="2" d="M716,-276C716,-276 63.5,-276 63.5,-276 57.5,-276 51.5,-270 51.5,-264 51.5,-264 51.5,-12 51.5,-12 51.5,-6 57.5,0 63.5,0 63.5,0 716,0 716,0 722,0 728,-6 728,-12 728,-12 728,-264 728,-264 728,-270 722,-276 716,-276"/>
<polygon fill="#0f172a" stroke="none" points="51.5,-241.5 51.5,-276 728,-276 728,-241.5 51.5,-241.5"/>
<polygon fill="none" stroke="#64748b" points="51.5,-241.5 51.5,-276 728,-276 728,-241.5 51.5,-241.5"/>
<text xml:space="preserve" text-anchor="start" x="290" y="-252.8" font-family="Helvetica,sans-Serif" font-weight="bold" font-size="16.00" fill="#f8fafc">End&#45;to&#45;End System Shape</text>
<polygon fill="#111827" stroke="none" points="51.5,-207 51.5,-241.5 728,-241.5 728,-207 51.5,-207"/>
<polygon fill="none" stroke="#64748b" points="51.5,-207 51.5,-241.5 728,-241.5 728,-207 51.5,-207"/>
<text xml:space="preserve" text-anchor="start" x="60.5" y="-219.75" font-family="Helvetica,sans-Serif" font-size="16.00" fill="#f8fafc">Storefront journeys: browse, cart, checkout, account, region, language</text>
<polygon fill="#111827" stroke="none" points="51.5,-172.5 51.5,-207 728,-207 728,-172.5 51.5,-172.5"/>
<polygon fill="none" stroke="#64748b" points="51.5,-172.5 51.5,-207 728,-207 728,-172.5 51.5,-172.5"/>
<text xml:space="preserve" text-anchor="start" x="60.5" y="-185.25" font-family="Helvetica,sans-Serif" font-size="16.00" fill="#f8fafc">Spring Boot services: inventory, cart, account</text>
<polygon fill="#111827" stroke="none" points="51.5,-138 51.5,-172.5 728,-172.5 728,-138 51.5,-138"/>
<polygon fill="none" stroke="#64748b" points="51.5,-138 51.5,-172.5 728,-172.5 728,-138 51.5,-138"/>
<text xml:space="preserve" text-anchor="start" x="60.5" y="-150.75" font-family="Helvetica,sans-Serif" font-size="16.00" fill="#f8fafc">AWS and Kubernetes: edge, auth, data, EKS, rollout controls</text>
<polygon fill="#111827" stroke="none" points="51.5,-103.5 51.5,-138 728,-138 728,-103.5 51.5,-103.5"/>
<polygon fill="none" stroke="#64748b" points="51.5,-103.5 51.5,-138 728,-138 728,-103.5 51.5,-103.5"/>
<text xml:space="preserve" text-anchor="start" x="60.5" y="-116.25" font-family="Helvetica,sans-Serif" font-size="16.00" fill="#f8fafc">Grafana Cloud: Faro, Alloy, Beyla, dashboards, IRM, reports</text>
<polygon fill="#111827" stroke="none" points="51.5,-69 51.5,-103.5 728,-103.5 728,-69 51.5,-69"/>
<polygon fill="none" stroke="#64748b" points="51.5,-69 51.5,-103.5 728,-103.5 728,-69 51.5,-69"/>
<text xml:space="preserve" text-anchor="start" x="60.5" y="-81.75" font-family="Helvetica,sans-Serif" font-size="16.00" fill="#f8fafc">Verification: Playwright, k6 protocol, k6 browser actions, GCX queries</text>
<polygon fill="#111827" stroke="none" points="51.5,-34.5 51.5,-69 728,-69 728,-34.5 51.5,-34.5"/>
<polygon fill="none" stroke="#64748b" points="51.5,-34.5 51.5,-69 728,-69 728,-34.5 51.5,-34.5"/>
<text xml:space="preserve" text-anchor="start" x="60.5" y="-47.25" font-family="Helvetica,sans-Serif" font-size="16.00" fill="#f8fafc">Communication: Markdown runbooks plus Graphviz DOT, SVG, PNG</text>
<polygon fill="#111827" stroke="none" points="51.5,0 51.5,-34.5 728,-34.5 728,0 51.5,0"/>
<polygon fill="none" stroke="#64748b" points="51.5,0 51.5,-34.5 728,-34.5 728,0 51.5,0"/>
<text xml:space="preserve" text-anchor="start" x="60.5" y="-12.75" font-family="Helvetica,sans-Serif" font-size="16.00" fill="#f8fafc">Memory: EVOLUTION.md, category files, agent policy, required IRM labels, context hygiene</text>
</g>
<!-- policy&#45;&gt;end_to_end -->
<g id="edge11" class="edge">
<title>policy&#45;&gt;end_to_end</title>
<path fill="none" stroke="#94a3b8" stroke-width="2" d="M389.75,-321.84C389.75,-310.82 389.75,-298.96 389.75,-286.75"/>
<polygon fill="#94a3b8" stroke="#94a3b8" stroke-width="2" points="392.55,-286.99 389.75,-278.99 386.95,-286.99 392.55,-286.99"/>
<text xml:space="preserve" text-anchor="middle" x="422.38" y="-294.35" font-family="Helvetica,sans-Serif" font-size="12.00" fill="#cbd5e1">current state</text>
</g>
</g>
</svg>
