<?xml version="1.0" encoding="UTF-8" standalone="no"?>
<!DOCTYPE svg PUBLIC "-//W3C//DTD SVG 1.1//EN"
 "http://www.w3.org/Graphics/SVG/1.1/DTD/svg11.dtd">
<!-- Generated by graphviz version 15.0.0 (20260523.1842)
 -->
<!-- Title: ensemble_evolution_timeline Pages: 1 -->
<svg width="830pt" height="1363pt"
 viewBox="0.00 0.00 830.00 1363.00" xmlns="http://www.w3.org/2000/svg" xmlns:xlink="http://www.w3.org/1999/xlink">
<g id="graph0" class="graph" transform="scale(1 1) rotate(0) translate(25.2 1338.09)">
<title>ensemble_evolution_timeline</title>
<polygon fill="#ffffff" stroke="none" points="-25.2,25.2 -25.2,-1338.09 804.7,-1338.09 804.7,25.2 -25.2,25.2"/>
<text xml:space="preserve" text-anchor="middle" x="389.75" y="-1282.29" font-family="Helvetica,sans-Serif" font-size="28.00">Ensemble&#45;Grafana Evolution: First Prompt to Latest Evidence</text>
<!-- seed -->
<g id="node1" class="node">
<title>seed</title>
<path fill="#e0f2fe" stroke="#0284c7" d="M502.05,-1276.39C502.05,-1276.39 275.45,-1276.39 275.45,-1276.39 269.45,-1276.39 263.45,-1270.39 263.45,-1264.39 263.45,-1264.39 263.45,-1210.87 263.45,-1210.87 263.45,-1204.87 269.45,-1198.87 275.45,-1198.87 275.45,-1198.87 502.05,-1198.87 502.05,-1198.87 508.05,-1198.87 514.05,-1204.87 514.05,-1210.87 514.05,-1210.87 514.05,-1264.39 514.05,-1264.39 514.05,-1270.39 508.05,-1276.39 502.05,-1276.39"/>
<text xml:space="preserve" text-anchor="middle" x="388.75" y="-1255.43" font-family="Helvetica,sans-Serif" font-size="16.00" fill="#0f172a">May 24&#45;25</text>
<text xml:space="preserve" text-anchor="middle" x="388.75" y="-1238.93" font-family="Helvetica,sans-Serif" font-size="16.00" fill="#0f172a">Product seed</text>
<text xml:space="preserve" text-anchor="middle" x="388.75" y="-1222.43" font-family="Helvetica,sans-Serif" font-size="16.00" fill="#0f172a">Promptable ecommerce platform</text>
<text xml:space="preserve" text-anchor="middle" x="388.75" y="-1205.93" font-family="Helvetica,sans-Serif" font-size="16.00" fill="#0f172a">README live demo framing</text>
</g>
<!-- validate -->
<g id="node2" class="node">
<title>validate</title>
<path fill="#dcfce7" stroke="#16a34a" d="M497.35,-1152.12C497.35,-1152.12 280.15,-1152.12 280.15,-1152.12 274.15,-1152.12 268.15,-1146.12 268.15,-1140.12 268.15,-1140.12 268.15,-1053.6 268.15,-1053.6 268.15,-1047.6 274.15,-1041.6 280.15,-1041.6 280.15,-1041.6 497.35,-1041.6 497.35,-1041.6 503.35,-1041.6 509.35,-1047.6 509.35,-1053.6 509.35,-1053.6 509.35,-1140.12 509.35,-1140.12 509.35,-1146.12 503.35,-1152.12 497.35,-1152.12"/>
<text xml:space="preserve" text-anchor="middle" x="388.75" y="-1131.16" font-family="Helvetica,sans-Serif" font-size="16.00" fill="#0f172a">May 27&#45;29</text>
<text xml:space="preserve" text-anchor="middle" x="388.75" y="-1114.66" font-family="Helvetica,sans-Serif" font-size="16.00" fill="#0f172a">Validation foundation</text>
<text xml:space="preserve" text-anchor="middle" x="388.75" y="-1098.16" font-family="Helvetica,sans-Serif" font-size="16.00" fill="#0f172a">Grafana dashboards</text>
<text xml:space="preserve" text-anchor="middle" x="388.75" y="-1081.66" font-family="Helvetica,sans-Serif" font-size="16.00" fill="#0f172a">Guarded baseline stack</text>
<text xml:space="preserve" text-anchor="middle" x="388.75" y="-1065.16" font-family="Helvetica,sans-Serif" font-size="16.00" fill="#0f172a">k6 Faro actions</text>
<text xml:space="preserve" text-anchor="middle" x="388.75" y="-1048.66" font-family="Helvetica,sans-Serif" font-size="16.00" fill="#0f172a">Playwright regression</text>
</g>
<!-- seed&#45;&gt;validate -->
<g id="edge1" class="edge">
<title>seed&#45;&gt;validate</title>
<path fill="none" stroke="#64748b" stroke-width="2" d="M388.75,-1198.71C388.75,-1187.66 388.75,-1175.26 388.75,-1163.04"/>
<polygon fill="#64748b" stroke="#64748b" stroke-width="2" points="391.55,-1163.41 388.75,-1155.41 385.95,-1163.41 391.55,-1163.41"/>
<text xml:space="preserve" text-anchor="middle" x="430.38" y="-1170.47" font-family="Helvetica,sans-Serif" font-size="12.00" fill="#334155">make it testable</text>
</g>
<!-- app -->
<g id="node3" class="node">
<title>app</title>
<path fill="#fef3c7" stroke="#d97706" d="M301.35,-994.85C301.35,-994.85 84.15,-994.85 84.15,-994.85 78.15,-994.85 72.15,-988.85 72.15,-982.85 72.15,-982.85 72.15,-896.33 72.15,-896.33 72.15,-890.33 78.15,-884.33 84.15,-884.33 84.15,-884.33 301.35,-884.33 301.35,-884.33 307.35,-884.33 313.35,-890.33 313.35,-896.33 313.35,-896.33 313.35,-982.85 313.35,-982.85 313.35,-988.85 307.35,-994.85 301.35,-994.85"/>
<text xml:space="preserve" text-anchor="middle" x="192.75" y="-973.89" font-family="Helvetica,sans-Serif" font-size="16.00" fill="#0f172a">May 30</text>
<text xml:space="preserve" text-anchor="middle" x="192.75" y="-957.39" font-family="Helvetica,sans-Serif" font-size="16.00" fill="#0f172a">Storefront maturity</text>
<text xml:space="preserve" text-anchor="middle" x="192.75" y="-940.89" font-family="Helvetica,sans-Serif" font-size="16.00" fill="#0f172a">Checkout Grafana link</text>
<text xml:space="preserve" text-anchor="middle" x="192.75" y="-924.39" font-family="Helvetica,sans-Serif" font-size="16.00" fill="#0f172a">Sweden localization</text>
<text xml:space="preserve" text-anchor="middle" x="192.75" y="-907.89" font-family="Helvetica,sans-Serif" font-size="16.00" fill="#0f172a">Responsive UI fixes</text>
<text xml:space="preserve" text-anchor="middle" x="192.75" y="-891.39" font-family="Helvetica,sans-Serif" font-size="16.00" fill="#0f172a">Post&#45;deploy reports</text>
</g>
<!-- validate&#45;&gt;app -->
<g id="edge2" class="edge">
<title>validate&#45;&gt;app</title>
<path fill="none" stroke="#64748b" stroke-width="2" d="M319.65,-1041.12C303.6,-1028.4 286.41,-1014.79 270.04,-1001.82"/>
<polygon fill="#64748b" stroke="#64748b" stroke-width="2" points="271.94,-999.75 263.93,-996.98 268.46,-1004.14 271.94,-999.75"/>
<text xml:space="preserve" text-anchor="middle" x="364.5" y="-1013.2" font-family="Helvetica,sans-Serif" font-size="12.00" fill="#334155">expand shopper behavior</text>
</g>
<!-- obs -->
<g id="node4" class="node">
<title>obs</title>
<path fill="#ede9fe" stroke="#7c3aed" d="M695.35,-994.85C695.35,-994.85 478.15,-994.85 478.15,-994.85 472.15,-994.85 466.15,-988.85 466.15,-982.85 466.15,-982.85 466.15,-896.33 466.15,-896.33 466.15,-890.33 472.15,-884.33 478.15,-884.33 478.15,-884.33 695.35,-884.33 695.35,-884.33 701.35,-884.33 707.35,-890.33 707.35,-896.33 707.35,-896.33 707.35,-982.85 707.35,-982.85 707.35,-988.85 701.35,-994.85 695.35,-994.85"/>
<text xml:space="preserve" text-anchor="middle" x="586.75" y="-973.89" font-family="Helvetica,sans-Serif" font-size="16.00" fill="#0f172a">May 30</text>
<text xml:space="preserve" text-anchor="middle" x="586.75" y="-957.39" font-family="Helvetica,sans-Serif" font-size="16.00" fill="#0f172a">Telemetry expansion</text>
<text xml:space="preserve" text-anchor="middle" x="586.75" y="-940.89" font-family="Helvetica,sans-Serif" font-size="16.00" fill="#0f172a">CloudWatch discovery</text>
<text xml:space="preserve" text-anchor="middle" x="586.75" y="-924.39" font-family="Helvetica,sans-Serif" font-size="16.00" fill="#0f172a">Faro action reports</text>
<text xml:space="preserve" text-anchor="middle" x="586.75" y="-907.89" font-family="Helvetica,sans-Serif" font-size="16.00" fill="#0f172a">Alloy/Beyla runbooks</text>
<text xml:space="preserve" text-anchor="middle" x="586.75" y="-891.39" font-family="Helvetica,sans-Serif" font-size="16.00" fill="#0f172a">Dashboard conventions</text>
</g>
<!-- validate&#45;&gt;obs -->
<g id="edge3" class="edge">
<title>validate&#45;&gt;obs</title>
<path fill="none" stroke="#64748b" stroke-width="2" d="M458.56,-1041.12C474.77,-1028.4 492.13,-1014.79 508.67,-1001.82"/>
<polygon fill="#64748b" stroke="#64748b" stroke-width="2" points="510.29,-1004.11 514.86,-996.97 506.83,-999.7 510.29,-1004.11"/>
<text xml:space="preserve" text-anchor="middle" x="547.31" y="-1013.2" font-family="Helvetica,sans-Serif" font-size="12.00" fill="#334155">instrument telemetry</text>
</g>
<!-- app&#45;&gt;obs -->
<g id="edge4" class="edge">
<title>app&#45;&gt;obs</title>
<path fill="none" stroke="#64748b" stroke-width="2" d="M313.64,-939.59C358.35,-939.59 409.24,-939.59 454.88,-939.59"/>
<polygon fill="#64748b" stroke="#64748b" stroke-width="2" points="454.72,-942.39 462.72,-939.59 454.72,-936.79 454.72,-942.39"/>
<text xml:space="preserve" text-anchor="middle" x="389.75" y="-943.94" font-family="Helvetica,sans-Serif" font-size="12.00" fill="#334155">instrument user actions</text>
</g>
<!-- load -->
<g id="node5" class="node">
<title>load</title>
<path fill="#fee2e2" stroke="#dc2626" d="M498.35,-837.58C498.35,-837.58 281.15,-837.58 281.15,-837.58 275.15,-837.58 269.15,-831.58 269.15,-825.58 269.15,-825.58 269.15,-739.06 269.15,-739.06 269.15,-733.06 275.15,-727.06 281.15,-727.06 281.15,-727.06 498.35,-727.06 498.35,-727.06 504.35,-727.06 510.35,-733.06 510.35,-739.06 510.35,-739.06 510.35,-825.58 510.35,-825.58 510.35,-831.58 504.35,-837.58 498.35,-837.58"/>
<text xml:space="preserve" text-anchor="middle" x="389.75" y="-816.62" font-family="Helvetica,sans-Serif" font-size="16.00" fill="#0f172a">May 30&#45;31</text>
<text xml:space="preserve" text-anchor="middle" x="389.75" y="-800.12" font-family="Helvetica,sans-Serif" font-size="16.00" fill="#0f172a">Load and resilience</text>
<text xml:space="preserve" text-anchor="middle" x="389.75" y="-783.62" font-family="Helvetica,sans-Serif" font-size="16.00" fill="#0f172a">Traffic&#45;spike model</text>
<text xml:space="preserve" text-anchor="middle" x="389.75" y="-767.12" font-family="Helvetica,sans-Serif" font-size="16.00" fill="#0f172a">Cloud k6 runs</text>
<text xml:space="preserve" text-anchor="middle" x="389.75" y="-750.62" font-family="Helvetica,sans-Serif" font-size="16.00" fill="#0f172a">Comparison charts</text>
<text xml:space="preserve" text-anchor="middle" x="389.75" y="-734.12" font-family="Helvetica,sans-Serif" font-size="16.00" fill="#0f172a">40 rps then 60 rps baseline</text>
</g>
<!-- app&#45;&gt;load -->
<g id="edge6" class="edge">
<title>app&#45;&gt;load</title>
<path fill="none" stroke="#64748b" stroke-width="2" d="M262.2,-883.85C278.34,-871.13 295.61,-857.52 312.07,-844.55"/>
<polygon fill="#64748b" stroke="#64748b" stroke-width="2" points="313.66,-846.85 318.21,-839.7 310.2,-842.46 313.66,-846.85"/>
<text xml:space="preserve" text-anchor="middle" x="342.53" y="-855.93" font-family="Helvetica,sans-Serif" font-size="12.00" fill="#334155">validate journeys</text>
</g>
<!-- obs&#45;&gt;load -->
<g id="edge5" class="edge">
<title>obs&#45;&gt;load</title>
<path fill="none" stroke="#64748b" stroke-width="2" d="M517.3,-883.85C501.16,-871.13 483.89,-857.52 467.43,-844.55"/>
<polygon fill="#64748b" stroke="#64748b" stroke-width="2" points="469.3,-842.46 461.29,-839.7 465.84,-846.85 469.3,-842.46"/>
<text xml:space="preserve" text-anchor="middle" x="538.78" y="-855.93" font-family="Helvetica,sans-Serif" font-size="12.00" fill="#334155">exercise at scale</text>
</g>
<!-- ops -->
<g id="node6" class="node">
<title>ops</title>
<path fill="#e2e8f0" stroke="#475569" d="M498.35,-680.31C498.35,-680.31 281.15,-680.31 281.15,-680.31 275.15,-680.31 269.15,-674.31 269.15,-668.31 269.15,-668.31 269.15,-581.79 269.15,-581.79 269.15,-575.79 275.15,-569.79 281.15,-569.79 281.15,-569.79 498.35,-569.79 498.35,-569.79 504.35,-569.79 510.35,-575.79 510.35,-581.79 510.35,-581.79 510.35,-668.31 510.35,-668.31 510.35,-674.31 504.35,-680.31 498.35,-680.31"/>
<text xml:space="preserve" text-anchor="middle" x="389.75" y="-659.35" font-family="Helvetica,sans-Serif" font-size="16.00" fill="#0f172a">May 31</text>
<text xml:space="preserve" text-anchor="middle" x="389.75" y="-642.85" font-family="Helvetica,sans-Serif" font-size="16.00" fill="#0f172a">Operations loop</text>
<text xml:space="preserve" text-anchor="middle" x="389.75" y="-626.35" font-family="Helvetica,sans-Serif" font-size="16.00" fill="#0f172a">IRM on&#45;call setup</text>
<text xml:space="preserve" text-anchor="middle" x="389.75" y="-609.85" font-family="Helvetica,sans-Serif" font-size="16.00" fill="#0f172a">Kubelet RCA reports</text>
<text xml:space="preserve" text-anchor="middle" x="389.75" y="-593.35" font-family="Helvetica,sans-Serif" font-size="16.00" fill="#0f172a">Grafana Assistant comparison</text>
<text xml:space="preserve" text-anchor="middle" x="389.75" y="-576.85" font-family="Helvetica,sans-Serif" font-size="16.00" fill="#0f172a">Dashboard validation</text>
</g>
<!-- load&#45;&gt;ops -->
<g id="edge7" class="edge">
<title>load&#45;&gt;ops</title>
<path fill="none" stroke="#64748b" stroke-width="2" d="M389.75,-726.58C389.75,-715.26 389.75,-703.24 389.75,-691.58"/>
<polygon fill="#64748b" stroke="#64748b" stroke-width="2" points="392.55,-691.59 389.75,-683.59 386.95,-691.59 392.55,-691.59"/>
<text xml:space="preserve" text-anchor="middle" x="461.75" y="-698.66" font-family="Helvetica,sans-Serif" font-size="12.00" fill="#334155">turn failures into operations</text>
</g>
<!-- skills -->
<g id="node7" class="node">
<title>skills</title>
<path fill="#ccfbf1" stroke="#0d9488" d="M498.35,-523.04C498.35,-523.04 281.15,-523.04 281.15,-523.04 275.15,-523.04 269.15,-517.04 269.15,-511.04 269.15,-511.04 269.15,-441.02 269.15,-441.02 269.15,-435.02 275.15,-429.02 281.15,-429.02 281.15,-429.02 498.35,-429.02 498.35,-429.02 504.35,-429.02 510.35,-435.02 510.35,-441.02 510.35,-441.02 510.35,-511.04 510.35,-511.04 510.35,-517.04 504.35,-523.04 498.35,-523.04"/>
<text xml:space="preserve" text-anchor="middle" x="389.75" y="-502.08" font-family="Helvetica,sans-Serif" font-size="16.00" fill="#0f172a">May 30&#45;Jun 1</text>
<text xml:space="preserve" text-anchor="middle" x="389.75" y="-485.58" font-family="Helvetica,sans-Serif" font-size="16.00" fill="#0f172a">Reusable agent policy</text>
<text xml:space="preserve" text-anchor="middle" x="389.75" y="-469.08" font-family="Helvetica,sans-Serif" font-size="16.00" fill="#0f172a">Repo skills and personas</text>
<text xml:space="preserve" text-anchor="middle" x="389.75" y="-452.58" font-family="Helvetica,sans-Serif" font-size="16.00" fill="#0f172a">Slash&#45;command sync</text>
<text xml:space="preserve" text-anchor="middle" x="389.75" y="-436.08" font-family="Helvetica,sans-Serif" font-size="16.00" fill="#0f172a">CI checks for guidance</text>
</g>
<!-- ops&#45;&gt;skills -->
<g id="edge8" class="edge">
<title>ops&#45;&gt;skills</title>
<path fill="none" stroke="#64748b" stroke-width="2" d="M389.75,-569.31C389.75,-557.8 389.75,-545.63 389.75,-534.04"/>
<polygon fill="#64748b" stroke="#64748b" stroke-width="2" points="392.55,-534.18 389.75,-526.18 386.95,-534.18 392.55,-534.18"/>
<text xml:space="preserve" text-anchor="middle" x="439.62" y="-541.39" font-family="Helvetica,sans-Serif" font-size="12.00" fill="#334155">codify repeatability</text>
</g>
<!-- latest -->
<g id="node8" class="node">
<title>latest</title>
<path fill="#fce7f3" stroke="#db2777" d="M536.79,-382.27C536.79,-382.27 242.71,-382.27 242.71,-382.27 236.71,-382.27 230.71,-376.27 230.71,-370.27 230.71,-370.27 230.71,-300.25 230.71,-300.25 230.71,-294.25 236.71,-288.25 242.71,-288.25 242.71,-288.25 536.79,-288.25 536.79,-288.25 542.79,-288.25 548.79,-294.25 548.79,-300.25 548.79,-300.25 548.79,-370.27 548.79,-370.27 548.79,-376.27 542.79,-382.27 536.79,-382.27"/>
<text xml:space="preserve" text-anchor="middle" x="389.75" y="-361.31" font-family="Helvetica,sans-Serif" font-size="16.00" fill="#0f172a">Jun 2&#45;8</text>
<text xml:space="preserve" text-anchor="middle" x="389.75" y="-344.81" font-family="Helvetica,sans-Serif" font-size="16.00" fill="#0f172a">Latest evidence</text>
<text xml:space="preserve" text-anchor="middle" x="389.75" y="-328.31" font-family="Helvetica,sans-Serif" font-size="16.00" fill="#0f172a">120 rps baseline docs</text>
<text xml:space="preserve" text-anchor="middle" x="389.75" y="-311.81" font-family="Helvetica,sans-Serif" font-size="16.00" fill="#0f172a">Black Friday cart incident</text>
<text xml:space="preserve" text-anchor="middle" x="389.75" y="-295.31" font-family="Helvetica,sans-Serif" font-size="16.00" fill="#0f172a">Load reports 7673849, 7683642, 7716954</text>
</g>
<!-- skills&#45;&gt;latest -->
<g id="edge9" class="edge">
<title>skills&#45;&gt;latest</title>
<path fill="none" stroke="#64748b" stroke-width="2" d="M389.75,-428.82C389.75,-417.59 389.75,-405.44 389.75,-393.76"/>
<polygon fill="#64748b" stroke="#64748b" stroke-width="2" points="392.55,-393.77 389.75,-385.77 386.95,-393.77 392.55,-393.77"/>
<text xml:space="preserve" text-anchor="middle" x="448.62" y="-400.62" font-family="Helvetica,sans-Serif" font-size="12.00" fill="#334155">keep evidence current</text>
</g>
<!-- end_to_end -->
<g id="node9" class="node">
<title>end_to_end</title>
<path fill="#334155" stroke="none" d="M638.38,-241.5C638.38,-241.5 141.12,-241.5 141.12,-241.5 135.12,-241.5 129.12,-235.5 129.12,-229.5 129.12,-229.5 129.12,-12 129.12,-12 129.12,-6 135.12,0 141.12,0 141.12,0 638.38,0 638.38,0 644.38,0 650.38,-6 650.38,-12 650.38,-12 650.38,-229.5 650.38,-229.5 650.38,-235.5 644.38,-241.5 638.38,-241.5"/>
<polygon fill="#0f172a" stroke="none" points="129.12,-207 129.12,-241.5 650.38,-241.5 650.38,-207 129.12,-207"/>
<polygon fill="none" stroke="#334155" points="129.12,-207 129.12,-241.5 650.38,-241.5 650.38,-207 129.12,-207"/>
<text xml:space="preserve" text-anchor="start" x="290" y="-218.3" font-family="Helvetica,sans-Serif" font-weight="bold" font-size="16.00" fill="#f8fafc">End&#45;to&#45;End System Shape</text>
<polygon fill="#ffffff" stroke="none" points="129.12,-172.5 129.12,-207 650.38,-207 650.38,-172.5 129.12,-172.5"/>
<polygon fill="none" stroke="#334155" points="129.12,-172.5 129.12,-207 650.38,-207 650.38,-172.5 129.12,-172.5"/>
<text xml:space="preserve" text-anchor="start" x="138.12" y="-185.25" font-family="Helvetica,sans-Serif" font-size="16.00" fill="#0f172a">Storefront journeys: browse, cart, checkout, account, region, language</text>
<polygon fill="#ffffff" stroke="none" points="129.12,-138 129.12,-172.5 650.38,-172.5 650.38,-138 129.12,-138"/>
<polygon fill="none" stroke="#334155" points="129.12,-138 129.12,-172.5 650.38,-172.5 650.38,-138 129.12,-138"/>
<text xml:space="preserve" text-anchor="start" x="138.12" y="-150.75" font-family="Helvetica,sans-Serif" font-size="16.00" fill="#0f172a">Spring Boot services: inventory, cart, account</text>
<polygon fill="#ffffff" stroke="none" points="129.12,-103.5 129.12,-138 650.38,-138 650.38,-103.5 129.12,-103.5"/>
<polygon fill="none" stroke="#334155" points="129.12,-103.5 129.12,-138 650.38,-138 650.38,-103.5 129.12,-103.5"/>
<text xml:space="preserve" text-anchor="start" x="138.12" y="-116.25" font-family="Helvetica,sans-Serif" font-size="16.00" fill="#0f172a">AWS and Kubernetes: edge, auth, data, EKS, rollout controls</text>
<polygon fill="#ffffff" stroke="none" points="129.12,-69 129.12,-103.5 650.38,-103.5 650.38,-69 129.12,-69"/>
<polygon fill="none" stroke="#334155" points="129.12,-69 129.12,-103.5 650.38,-103.5 650.38,-69 129.12,-69"/>
<text xml:space="preserve" text-anchor="start" x="138.12" y="-81.75" font-family="Helvetica,sans-Serif" font-size="16.00" fill="#0f172a">Grafana Cloud: Faro, Alloy, Beyla, dashboards, IRM, reports</text>
<polygon fill="#ffffff" stroke="none" points="129.12,-34.5 129.12,-69 650.38,-69 650.38,-34.5 129.12,-34.5"/>
<polygon fill="none" stroke="#334155" points="129.12,-34.5 129.12,-69 650.38,-69 650.38,-34.5 129.12,-34.5"/>
<text xml:space="preserve" text-anchor="start" x="138.12" y="-47.25" font-family="Helvetica,sans-Serif" font-size="16.00" fill="#0f172a">Verification: Playwright, k6 protocol, k6 browser actions, GCX queries</text>
<polygon fill="#ffffff" stroke="none" points="129.12,0 129.12,-34.5 650.38,-34.5 650.38,0 129.12,0"/>
<polygon fill="none" stroke="#334155" points="129.12,0 129.12,-34.5 650.38,-34.5 650.38,0 129.12,0"/>
<text xml:space="preserve" text-anchor="start" x="138.12" y="-12.75" font-family="Helvetica,sans-Serif" font-size="16.00" fill="#0f172a">Communication: Markdown runbooks plus Graphviz DOT, SVG, PNG</text>
</g>
<!-- latest&#45;&gt;end_to_end -->
<g id="edge10" class="edge">
<title>latest&#45;&gt;end_to_end</title>
<path fill="none" stroke="#64748b" stroke-width="2" d="M389.75,-287.89C389.75,-276.91 389.75,-264.68 389.75,-251.96"/>
<polygon fill="#64748b" stroke="#64748b" stroke-width="2" points="392.55,-252.2 389.75,-244.2 386.95,-252.2 392.55,-252.2"/>
<text xml:space="preserve" text-anchor="middle" x="422.38" y="-259.85" font-family="Helvetica,sans-Serif" font-size="12.00" fill="#334155">current state</text>
</g>
</g>
</svg>
